<svg xmlns="http://www.w3.org/2000/svg" xmlns:xlink="http://www.w3.org/1999/xlink" viewBox="0 0 680 462.48"><defs><style>.cls-1{isolation:isolate;}.cls-15,.cls-18,.cls-2,.cls-20,.cls-33,.cls-52,.cls-53,.cls-66,.cls-67,.cls-68,.cls-86{opacity:0.6;}.cls-2{fill:url(#linear-gradient);}.cls-3{fill:#1c1714;}.cls-4{fill:url(#linear-gradient-2);}.cls-5{fill:url(#linear-gradient-3);}.cls-6{fill:url(#linear-gradient-4);}.cls-19,.cls-7{fill:#4c4242;}.cls-41,.cls-8{opacity:0.5;}.cls-48,.cls-62,.cls-9{opacity:0.7;}.cls-10{opacity:0.4;}.cls-11{fill:url(#linear-gradient-5);}.cls-12{fill:url(#linear-gradient-6);}.cls-13{fill:url(#linear-gradient-7);}.cls-14{fill:url(#linear-gradient-8);}.cls-15,.cls-52,.cls-53,.cls-66,.cls-67{mix-blend-mode:multiply;}.cls-16,.cls-28,.cls-76,.cls-94{opacity:0.2;}.cls-16{fill:url(#linear-gradient-9);}.cls-17{fill:url(#linear-gradient-10);}.cls-19{opacity:0.3;}.cls-20{fill:url(#linear-gradient-11);}.cls-21{fill:url(#linear-gradient-12);}.cls-22{fill:url(#linear-gradient-13);}.cls-23{fill:url(#linear-gradient-14);}.cls-24{fill:url(#linear-gradient-15);}.cls-25{fill:url(#linear-gradient-16);}.cls-26{fill:url(#linear-gradient-17);}.cls-27{fill:url(#linear-gradient-18);}.cls-28{fill:url(#linear-gradient-19);}.cls-29{fill:url(#linear-gradient-20);}.cls-30{fill:url(#linear-gradient-21);}.cls-31{fill:url(#linear-gradient-22);}.cls-32{fill:url(#linear-gradient-23);}.cls-33{fill:url(#linear-gradient-24);}.cls-34{fill:url(#linear-gradient-25);}.cls-35{fill:url(#linear-gradient-26);}.cls-36{fill:#3f3c3a;}.cls-37{fill:url(#linear-gradient-27);}.cls-38{fill:url(#linear-gradient-28);}.cls-39{fill:url(#linear-gradient-29);}.cls-40{fill:url(#linear-gradient-30);}.cls-41{fill:#fff;}.cls-42{fill:url(#linear-gradient-31);}.cls-43{fill:url(#linear-gradient-32);}.cls-44{fill:url(#linear-gradient-33);}.cls-45{fill:url(#linear-gradient-34);}.cls-46{fill:url(#linear-gradient-35);}.cls-47{fill:url(#linear-gradient-36);}.cls-48{fill:url(#linear-gradient-37);}.cls-49{fill:url(#linear-gradient-38);}.cls-50{fill:url(#linear-gradient-39);}.cls-51{fill:url(#linear-gradient-40);}.cls-52{fill:url(#linear-gradient-41);}.cls-53{fill:url(#linear-gradient-42);}.cls-54{fill:url(#linear-gradient-43);}.cls-55{fill:url(#linear-gradient-44);}.cls-56{fill:url(#linear-gradient-45);}.cls-57{fill:url(#linear-gradient-46);}.cls-58{fill:url(#linear-gradient-47);}.cls-59{fill:url(#linear-gradient-48);}.cls-60{fill:url(#linear-gradient-49);}.cls-61{fill:url(#linear-gradient-50);}.cls-62{fill:url(#linear-gradient-51);}.cls-63{fill:url(#linear-gradient-52);}.cls-64{fill:url(#linear-gradient-53);}.cls-65{fill:url(#linear-gradient-54);}.cls-66{fill:url(#linear-gradient-55);}.cls-67{fill:url(#linear-gradient-56);}.cls-68{fill:url(#linear-gradient-57);}.cls-69{fill:url(#linear-gradient-58);}.cls-70{fill:url(#linear-gradient-59);}.cls-71{fill:url(#linear-gradient-60);}.cls-72{fill:url(#linear-gradient-61);}.cls-73{fill:url(#linear-gradient-62);}.cls-74{fill:url(#linear-gradient-63);}.cls-75{fill:url(#linear-gradient-64);}.cls-76{fill:url(#linear-gradient-65);}.cls-77{fill:url(#linear-gradient-66);}.cls-78{fill:url(#linear-gradient-67);}.cls-79{fill:url(#linear-gradient-68);}.cls-80{fill:url(#linear-gradient-69);}.cls-81{fill:url(#linear-gradient-70);}.cls-82{fill:url(#linear-gradient-71);}.cls-83{fill:url(#linear-gradient-72);}.cls-84{fill:url(#linear-gradient-73);}.cls-85{fill:url(#linear-gradient-74);}.cls-86{fill:url(#linear-gradient-75);}.cls-87{fill:url(#linear-gradient-76);}.cls-88{fill:url(#linear-gradient-77);}.cls-89{fill:url(#linear-gradient-78);}.cls-90{fill:url(#linear-gradient-79);}.cls-91{fill:url(#linear-gradient-80);}.cls-92{fill:url(#linear-gradient-81);}.cls-93{fill:url(#linear-gradient-82);}.cls-94{fill:url(#linear-gradient-83);}.cls-95{fill:url(#linear-gradient-84);}.cls-96{fill:url(#linear-gradient-85);}</style><linearGradient id="linear-gradient" x1="320.95" y1="117.35" x2="343.16" y2="80.38" gradientUnits="userSpaceOnUse"><stop offset="0.02" stop-opacity="0"/><stop offset="0.07" stop-opacity="0.06"/><stop offset="1" stop-opacity="0.5"/></linearGradient><linearGradient id="linear-gradient-2" x1="409.88" y1="87.29" x2="364.31" y2="87.29" gradientUnits="userSpaceOnUse"><stop offset="0" stop-color="#383533"/><stop offset="1" stop-color="#1c1714"/></linearGradient><linearGradient id="linear-gradient-3" x1="361.94" y1="87.29" x2="315.98" y2="87.29" xlink:href="#linear-gradient-2"/><linearGradient id="linear-gradient-4" x1="313.9" y1="74.55" x2="409.63" y2="74.55" xlink:href="#linear-gradient-2"/><linearGradient id="linear-gradient-5" x1="361.77" y1="7.24" x2="361.77" y2="64.76" gradientUnits="userSpaceOnUse"><stop offset="0" stop-color="#6b6565"/><stop offset="1" stop-color="#4c4242"/></linearGradient><linearGradient id="linear-gradient-6" x1="409.88" y1="54.08" x2="364.31" y2="54.08" xlink:href="#linear-gradient-2"/><linearGradient id="linear-gradient-7" x1="361.94" y1="54.08" x2="315.98" y2="54.08" xlink:href="#linear-gradient-2"/><linearGradient id="linear-gradient-8" x1="313.9" y1="41.34" x2="409.63" y2="41.34" xlink:href="#linear-gradient-2"/><linearGradient id="linear-gradient-9" x1="382.96" y1="22.16" x2="358.18" y2="22.16" xlink:href="#linear-gradient-2"/><linearGradient id="linear-gradient-10" x1="361.93" y1="16.55" x2="339" y2="29.73" xlink:href="#linear-gradient-2"/><linearGradient id="linear-gradient-11" x1="591.32" y1="290.32" x2="613.53" y2="253.35" xlink:href="#linear-gradient"/><linearGradient id="linear-gradient-12" x1="680.25" y1="260.27" x2="634.68" y2="260.27" xlink:href="#linear-gradient-2"/><linearGradient id="linear-gradient-13" x1="632.3" y1="260.27" x2="586.35" y2="260.27" xlink:href="#linear-gradient-2"/><linearGradient id="linear-gradient-14" x1="584.27" y1="247.53" x2="680" y2="247.53" xlink:href="#linear-gradient-2"/><linearGradient id="linear-gradient-15" x1="632.13" y1="180.21" x2="632.13" y2="237.73" xlink:href="#linear-gradient-5"/><linearGradient id="linear-gradient-16" x1="680.25" y1="227.06" x2="634.68" y2="227.06" xlink:href="#linear-gradient-2"/><linearGradient id="linear-gradient-17" x1="632.3" y1="227.05" x2="586.35" y2="227.05" xlink:href="#linear-gradient-2"/><linearGradient id="linear-gradient-18" x1="584.27" y1="214.31" x2="680" y2="214.31" xlink:href="#linear-gradient-2"/><linearGradient id="linear-gradient-19" x1="653.32" y1="195.13" x2="628.54" y2="195.13" xlink:href="#linear-gradient-2"/><linearGradient id="linear-gradient-20" x1="632.29" y1="189.53" x2="609.36" y2="202.71" xlink:href="#linear-gradient-2"/><linearGradient id="linear-gradient-21" x1="260.95" y1="100.6" x2="344.42" y2="100.6" gradientUnits="userSpaceOnUse"><stop offset="0" stop-color="#9e8032"/><stop offset="0.14" stop-color="#a18336"/><stop offset="0.27" stop-color="#aa8e41"/><stop offset="0.39" stop-color="#b9a053"/><stop offset="0.51" stop-color="#cfb96d"/><stop offset="0.61" stop-color="#e6d48a"/><stop offset="0.67" stop-color="#d8c174"/><stop offset="0.75" stop-color="#c6a958"/><stop offset="0.83" stop-color="#b89743"/><stop offset="0.91" stop-color="#b18d37"/><stop offset="0.99" stop-color="#ae8933"/></linearGradient><linearGradient id="linear-gradient-22" x1="528.95" y1="272.57" x2="612.42" y2="272.57" xlink:href="#linear-gradient-21"/><linearGradient id="linear-gradient-23" x1="382.59" y1="131.67" x2="588.8" y2="131.67" xlink:href="#linear-gradient-21"/><linearGradient id="linear-gradient-24" x1="294.05" y1="287.79" x2="317.99" y2="247.94" xlink:href="#linear-gradient"/><linearGradient id="linear-gradient-25" x1="360.69" y1="260.42" x2="464.58" y2="260.42" xlink:href="#linear-gradient-2"/><linearGradient id="linear-gradient-26" x1="269.32" y1="260.42" x2="403.59" y2="260.42" xlink:href="#linear-gradient-2"/><linearGradient id="linear-gradient-27" x1="-562.17" y1="237.12" x2="-576.31" y2="227.91" gradientTransform="matrix(-1.32, -0.1, -1.96, 0.89, 78.65, -10.75)" gradientUnits="userSpaceOnUse"><stop offset="0.16" stop-opacity="0"/><stop offset="0.2" stop-opacity="0.06"/><stop offset="1" stop-opacity="0.5"/></linearGradient><linearGradient id="linear-gradient-28" x1="-665.93" y1="248.44" x2="-718.84" y2="213.96" gradientTransform="matrix(-1.05, -0.03, 0.03, 1.02, -409.63, -17.23)" xlink:href="#linear-gradient"/><linearGradient id="linear-gradient-29" x1="311.02" y1="227.11" x2="383.62" y2="227.11" xlink:href="#linear-gradient-21"/><linearGradient id="linear-gradient-30" x1="311.02" y1="211.78" x2="383.62" y2="211.78" gradientUnits="userSpaceOnUse"><stop offset="0" stop-color="#e6d48a"/><stop offset="0.03" stop-color="#dcc77a"/><stop offset="0.09" stop-color="#cbaf5e"/><stop offset="0.15" stop-color="#be9e49"/><stop offset="0.22" stop-color="#b7933d"/><stop offset="0.28" stop-color="#b49039"/><stop offset="0.35" stop-color="#b6933d"/><stop offset="0.41" stop-color="#bb9a48"/><stop offset="0.47" stop-color="#c4a75a"/><stop offset="0.53" stop-color="#d1b975"/><stop offset="0.59" stop-color="#e1d196"/><stop offset="0.64" stop-color="#f4edbf"/><stop offset="0.66" stop-color="#fbf7cd"/><stop offset="0.99" stop-color="#b49039"/></linearGradient><linearGradient id="linear-gradient-31" x1="311.02" y1="206.33" x2="383.62" y2="206.33" xlink:href="#linear-gradient-21"/><linearGradient id="linear-gradient-32" x1="311.02" y1="190.99" x2="383.62" y2="190.99" xlink:href="#linear-gradient-30"/><linearGradient id="linear-gradient-33" x1="311.02" y1="186.37" x2="383.62" y2="186.37" xlink:href="#linear-gradient-21"/><linearGradient id="linear-gradient-34" x1="311.02" y1="171.03" x2="383.62" y2="171.03" gradientUnits="userSpaceOnUse"><stop offset="0" stop-color="#e6d48a"/><stop offset="0.03" stop-color="#dcc77a"/><stop offset="0.1" stop-color="#cbaf5e"/><stop offset="0.16" stop-color="#be9e49"/><stop offset="0.23" stop-color="#b7933d"/><stop offset="0.29" stop-color="#b49039"/><stop offset="0.34" stop-color="#b6933d"/><stop offset="0.39" stop-color="#bb9a48"/><stop offset="0.43" stop-color="#c4a75a"/><stop offset="0.47" stop-color="#d1b974"/><stop offset="0.5" stop-color="#dcca8c"/><stop offset="0.99" stop-color="#b49039"/></linearGradient><linearGradient id="linear-gradient-35" x1="350.92" y1="211.7" x2="424.2" y2="211.7" xlink:href="#linear-gradient-21"/><linearGradient id="linear-gradient-36" x1="363.85" y1="239.3" x2="413.42" y2="189.73" gradientTransform="translate(165.08 -168.99) rotate(30.86)" xlink:href="#linear-gradient-34"/><linearGradient id="linear-gradient-37" x1="471.81" y1="357.6" x2="485.34" y2="335.09" gradientUnits="userSpaceOnUse"><stop offset="0.13" stop-opacity="0"/><stop offset="0.18" stop-opacity="0.06"/><stop offset="1" stop-opacity="0.5"/></linearGradient><linearGradient id="linear-gradient-38" x1="475.81" y1="319.38" x2="524.74" y2="319.38" gradientUnits="userSpaceOnUse"><stop offset="0" stop-color="#3f3c3a"/><stop offset="1" stop-color="#2c2725"/></linearGradient><linearGradient id="linear-gradient-39" x1="475.81" y1="299.14" x2="524.74" y2="299.14" xlink:href="#linear-gradient-5"/><linearGradient id="linear-gradient-40" x1="482.89" y1="288.08" x2="516.23" y2="288.08" gradientUnits="userSpaceOnUse"><stop offset="0" stop-color="#34302e"/><stop offset="1" stop-color="#1c1714"/></linearGradient><linearGradient id="linear-gradient-41" x1="516.73" y1="286.74" x2="505.82" y2="280.05" gradientUnits="userSpaceOnUse"><stop offset="0" stop-color="#3f3c3a"/><stop offset="1" stop-color="#1c1714"/></linearGradient><linearGradient id="linear-gradient-42" x1="497.99" y1="291.05" x2="482.36" y2="284.87" xlink:href="#linear-gradient-41"/><linearGradient id="linear-gradient-43" x1="336.88" y1="405.57" x2="347.84" y2="405.57" xlink:href="#linear-gradient-21"/><linearGradient id="linear-gradient-44" x1="355.35" y1="394.89" x2="366.31" y2="394.89" xlink:href="#linear-gradient-21"/><linearGradient id="linear-gradient-45" x1="373.82" y1="384.21" x2="384.79" y2="384.21" xlink:href="#linear-gradient-21"/><linearGradient id="linear-gradient-46" x1="392.29" y1="373.53" x2="403.26" y2="373.53" xlink:href="#linear-gradient-21"/><linearGradient id="linear-gradient-47" x1="410.76" y1="362.86" x2="421.73" y2="362.86" xlink:href="#linear-gradient-21"/><linearGradient id="linear-gradient-48" x1="429.24" y1="352.18" x2="440.2" y2="352.18" xlink:href="#linear-gradient-21"/><linearGradient id="linear-gradient-49" x1="448.51" y1="340.99" x2="459.47" y2="340.99" xlink:href="#linear-gradient-21"/><linearGradient id="linear-gradient-50" x1="468.14" y1="329.64" x2="479.1" y2="329.64" xlink:href="#linear-gradient-21"/><linearGradient id="linear-gradient-51" x1="210.63" y1="178.05" x2="224.16" y2="155.53" xlink:href="#linear-gradient-37"/><linearGradient id="linear-gradient-52" x1="214.63" y1="139.83" x2="263.56" y2="139.83" xlink:href="#linear-gradient-38"/><linearGradient id="linear-gradient-53" x1="214.63" y1="119.59" x2="263.56" y2="119.59" xlink:href="#linear-gradient-5"/><linearGradient id="linear-gradient-54" x1="221.71" y1="108.52" x2="255.06" y2="108.52" xlink:href="#linear-gradient-40"/><linearGradient id="linear-gradient-55" x1="255.55" y1="107.18" x2="244.64" y2="100.49" xlink:href="#linear-gradient-41"/><linearGradient id="linear-gradient-56" x1="236.81" y1="111.49" x2="221.18" y2="105.31" xlink:href="#linear-gradient-41"/><linearGradient id="linear-gradient-57" x1="307.25" y1="448.91" x2="329.46" y2="411.94" xlink:href="#linear-gradient"/><linearGradient id="linear-gradient-58" x1="396.18" y1="418.85" x2="350.61" y2="418.85" xlink:href="#linear-gradient-2"/><linearGradient id="linear-gradient-59" x1="348.23" y1="418.85" x2="302.27" y2="418.85" xlink:href="#linear-gradient-2"/><linearGradient id="linear-gradient-60" x1="300.19" y1="406.11" x2="395.93" y2="406.11" xlink:href="#linear-gradient-2"/><linearGradient id="linear-gradient-61" x1="348.06" y1="338.8" x2="348.06" y2="396.32" xlink:href="#linear-gradient-5"/><linearGradient id="linear-gradient-62" x1="396.18" y1="385.64" x2="350.61" y2="385.64" xlink:href="#linear-gradient-2"/><linearGradient id="linear-gradient-63" x1="348.23" y1="385.64" x2="302.27" y2="385.64" xlink:href="#linear-gradient-2"/><linearGradient id="linear-gradient-64" x1="300.19" y1="372.9" x2="395.93" y2="372.9" xlink:href="#linear-gradient-2"/><linearGradient id="linear-gradient-65" x1="369.25" y1="353.72" x2="344.47" y2="353.72" xlink:href="#linear-gradient-2"/><linearGradient id="linear-gradient-66" x1="348.22" y1="348.11" x2="325.29" y2="361.29" xlink:href="#linear-gradient-2"/><linearGradient id="linear-gradient-67" x1="82.98" y1="223.4" x2="93.94" y2="223.4" xlink:href="#linear-gradient-21"/><linearGradient id="linear-gradient-68" x1="101.45" y1="212.72" x2="112.41" y2="212.72" xlink:href="#linear-gradient-21"/><linearGradient id="linear-gradient-69" x1="119.92" y1="202.04" x2="130.89" y2="202.04" xlink:href="#linear-gradient-21"/><linearGradient id="linear-gradient-70" x1="135.92" y1="192.59" x2="146.89" y2="192.59" xlink:href="#linear-gradient-21"/><linearGradient id="linear-gradient-71" x1="154.34" y1="182.15" x2="165.3" y2="182.15" xlink:href="#linear-gradient-21"/><linearGradient id="linear-gradient-72" x1="172.99" y1="171.5" x2="183.95" y2="171.5" xlink:href="#linear-gradient-21"/><linearGradient id="linear-gradient-73" x1="191.62" y1="160.67" x2="202.58" y2="160.67" xlink:href="#linear-gradient-21"/><linearGradient id="linear-gradient-74" x1="207.57" y1="151.28" x2="218.54" y2="151.28" xlink:href="#linear-gradient-21"/><linearGradient id="linear-gradient-75" x1="37.35" y1="280.66" x2="59.56" y2="243.68" xlink:href="#linear-gradient"/><linearGradient id="linear-gradient-76" x1="126.28" y1="250.6" x2="80.71" y2="250.6" xlink:href="#linear-gradient-2"/><linearGradient id="linear-gradient-77" x1="78.33" y1="250.6" x2="32.38" y2="250.6" xlink:href="#linear-gradient-2"/><linearGradient id="linear-gradient-78" x1="30.3" y1="237.86" x2="126.03" y2="237.86" xlink:href="#linear-gradient-2"/><linearGradient id="linear-gradient-79" x1="78.16" y1="170.55" x2="78.16" y2="228.07" xlink:href="#linear-gradient-5"/><linearGradient id="linear-gradient-80" x1="126.28" y1="217.39" x2="80.71" y2="217.39" xlink:href="#linear-gradient-2"/><linearGradient id="linear-gradient-81" x1="78.33" y1="217.39" x2="32.38" y2="217.39" xlink:href="#linear-gradient-2"/><linearGradient id="linear-gradient-82" x1="30.3" y1="204.65" x2="126.03" y2="204.65" xlink:href="#linear-gradient-2"/><linearGradient id="linear-gradient-83" x1="99.35" y1="185.46" x2="74.57" y2="185.46" xlink:href="#linear-gradient-2"/><linearGradient id="linear-gradient-84" x1="78.32" y1="179.86" x2="55.4" y2="193.04" xlink:href="#linear-gradient-2"/><linearGradient id="linear-gradient-85" x1="97.77" y1="293.93" x2="303.98" y2="293.93" xlink:href="#linear-gradient-21"/></defs><title>Asset 3</title><g class="cls-1"><g id="Layer_2" data-name="Layer 2"><g id="Layer_1-2" data-name="Layer 1"><polygon class="cls-2" points="331.38 130.93 283.6 103.33 322.3 81.27 372.75 107.33 331.38 130.93"/><g class="cls-1"><polygon class="cls-3" points="361.86 33.21 313.9 60.94 361.86 88.67 409.63 60.94 361.86 33.21"/><polygon class="cls-4" points="361.86 88.67 361.86 113.65 409.63 85.92 409.63 60.94 361.86 88.67"/><polygon class="cls-5" points="313.9 60.94 313.9 85.92 361.86 113.65 361.86 88.67 313.9 60.94"/></g><polygon class="cls-6" points="361.86 87.67 314.76 60.44 313.9 60.94 361.86 88.67 409.63 60.94 408.78 60.44 361.86 87.67"/><path class="cls-7" d="M403.71,71.17c.77-.44,1.39-.08,1.39.8a3,3,0,0,1-1.38,2.41c-.77.44-1.4.08-1.4-.8a3.09,3.09,0,0,1,1.39-2.41"/><g class="cls-8"><path class="cls-7" d="M398.52,74.18a3.06,3.06,0,0,0-1.39,2.4c0,.89.63,1.24,1.4.8a3.07,3.07,0,0,0,1.39-2.4c0-.89-.63-1.25-1.4-.8"/></g><g class="cls-9"><path class="cls-7" d="M393.33,77.18a3.09,3.09,0,0,0-1.39,2.41c0,.88.63,1.23,1.4.79a3.06,3.06,0,0,0,1.39-2.4c0-.89-.63-1.24-1.4-.8"/></g><g class="cls-10"><path class="cls-7" d="M403.71,78.64c.77-.44,1.39-.08,1.39.8a3,3,0,0,1-1.38,2.4c-.77.45-1.4.09-1.4-.79a3.08,3.08,0,0,1,1.39-2.41"/></g><path class="cls-7" d="M398.52,81.64a3.09,3.09,0,0,0-1.39,2.41c0,.88.63,1.24,1.4.8a3.08,3.08,0,0,0,1.39-2.41c0-.88-.63-1.24-1.4-.8"/><g class="cls-9"><path class="cls-7" d="M393.33,84.65a3.08,3.08,0,0,0-1.39,2.4c0,.89.63,1.24,1.4.8a3.07,3.07,0,0,0,1.39-2.4c0-.89-.63-1.25-1.4-.8"/></g><g class="cls-1"><polygon class="cls-11" points="361.86 0 313.9 27.73 361.86 55.45 409.63 27.73 361.86 0"/><polygon class="cls-12" points="361.86 55.45 361.86 80.44 409.63 52.71 409.63 27.73 361.86 55.45"/><polygon class="cls-13" points="313.9 27.73 313.9 52.71 361.86 80.44 361.86 55.45 313.9 27.73"/></g><polygon class="cls-14" points="361.86 54.46 314.76 27.23 313.9 27.73 361.86 55.45 409.63 27.73 408.78 27.23 361.86 54.46"/><polygon class="cls-3" points="361.81 15.03 339.85 27.73 361.81 40.42 383.69 27.73 361.81 15.03"/><g class="cls-15"><polygon class="cls-16" points="361.81 15.03 361.81 18.15 381 29.29 383.69 27.73 361.81 15.03"/><polygon class="cls-17" points="339.85 27.73 342.54 29.29 361.81 18.15 361.81 15.03 339.85 27.73"/></g><polygon class="cls-7" points="361.77 24.99 357.04 27.73 361.77 30.47 366.5 27.73 361.77 24.99"/><g class="cls-10"><path class="cls-7" d="M403.71,38c.77-.44,1.39-.08,1.39.8a3,3,0,0,1-1.38,2.4c-.77.45-1.4.09-1.4-.79A3.09,3.09,0,0,1,403.71,38"/></g><path class="cls-7" d="M398.52,41a3.06,3.06,0,0,0-1.39,2.4c0,.89.63,1.24,1.4.8a3.08,3.08,0,0,0,1.39-2.41c0-.88-.63-1.24-1.4-.79"/><g class="cls-9"><path class="cls-7" d="M393.33,44a3.08,3.08,0,0,0-1.39,2.4c0,.89.63,1.24,1.4.8a3.07,3.07,0,0,0,1.39-2.4c0-.89-.63-1.25-1.4-.8"/></g><g class="cls-18"><path class="cls-7" d="M403.71,45.43c.77-.44,1.39-.09,1.39.8a3,3,0,0,1-1.38,2.4c-.77.44-1.4.09-1.4-.79a3.06,3.06,0,0,1,1.39-2.41"/></g><path class="cls-19" d="M398.52,48.43a3.09,3.09,0,0,0-1.39,2.41c0,.88.63,1.24,1.4.79a3.06,3.06,0,0,0,1.39-2.4c0-.88-.63-1.24-1.4-.8"/><path class="cls-7" d="M393.33,51.44a3.08,3.08,0,0,0-1.39,2.4c0,.89.63,1.24,1.4.8a3.08,3.08,0,0,0,1.39-2.41c0-.88-.63-1.24-1.4-.79"/><polygon class="cls-20" points="601.75 303.9 553.97 276.3 592.66 254.24 643.11 280.3 601.75 303.9"/><g class="cls-1"><polygon class="cls-3" points="632.22 206.19 584.26 233.91 632.22 261.64 680 233.91 632.22 206.19"/><polygon class="cls-21" points="632.22 261.64 632.22 286.62 680 258.9 680 233.91 632.22 261.64"/><polygon class="cls-22" points="584.26 233.91 584.26 258.89 632.22 286.62 632.22 261.64 584.26 233.91"/></g><polygon class="cls-23" points="632.22 260.64 585.13 233.41 584.26 233.91 632.22 261.64 680 233.91 679.14 233.42 632.22 260.64"/><path class="cls-7" d="M674.07,244.15c.77-.45,1.4-.09,1.4.8a3.06,3.06,0,0,1-1.39,2.4c-.77.44-1.39.09-1.4-.8a3.08,3.08,0,0,1,1.39-2.4"/><g class="cls-8"><path class="cls-7" d="M668.89,247.15a3.08,3.08,0,0,0-1.39,2.41c0,.88.63,1.24,1.4.79a3,3,0,0,0,1.38-2.4c0-.88-.62-1.24-1.39-.8"/></g><g class="cls-9"><path class="cls-7" d="M663.7,250.15a3.09,3.09,0,0,0-1.39,2.41c0,.88.63,1.24,1.4.79a3,3,0,0,0,1.39-2.4c0-.88-.63-1.24-1.4-.8"/></g><g class="cls-10"><path class="cls-7" d="M674.07,251.62c.77-.45,1.4-.09,1.4.79a3.08,3.08,0,0,1-1.39,2.41c-.77.44-1.39.09-1.4-.8a3.08,3.08,0,0,1,1.39-2.4"/></g><path class="cls-7" d="M668.89,254.62a3.06,3.06,0,0,0-1.39,2.4c0,.89.63,1.24,1.4.8a3,3,0,0,0,1.38-2.4c0-.89-.62-1.25-1.39-.8"/><g class="cls-9"><path class="cls-7" d="M663.7,257.62a3.06,3.06,0,0,0-1.39,2.41c0,.88.63,1.24,1.4.79a3.06,3.06,0,0,0,1.39-2.4c0-.88-.63-1.24-1.4-.8"/></g><g class="cls-1"><polygon class="cls-24" points="632.22 172.97 584.26 200.7 632.22 228.43 680 200.7 632.22 172.97"/><polygon class="cls-25" points="632.22 228.43 632.22 253.41 680 225.68 680 200.7 632.22 228.43"/><polygon class="cls-26" points="584.26 200.7 584.26 225.68 632.22 253.41 632.22 228.43 584.26 200.7"/></g><polygon class="cls-27" points="632.22 227.43 585.13 200.2 584.26 200.7 632.22 228.43 680 200.7 679.14 200.2 632.22 227.43"/><polygon class="cls-3" points="632.17 188 610.21 200.7 632.17 213.4 654.05 200.7 632.17 188"/><g class="cls-15"><polygon class="cls-28" points="632.17 188 632.17 191.12 651.37 202.26 654.05 200.7 632.17 188"/><polygon class="cls-29" points="610.21 200.7 612.91 202.26 632.17 191.12 632.17 188 610.21 200.7"/></g><polygon class="cls-7" points="632.14 197.96 627.4 200.7 632.14 203.44 636.86 200.7 632.14 197.96"/><g class="cls-10"><path class="cls-7" d="M674.07,210.94c.77-.45,1.4-.09,1.4.79a3.08,3.08,0,0,1-1.39,2.41c-.77.44-1.39.09-1.4-.8a3.08,3.08,0,0,1,1.39-2.4"/></g><path class="cls-7" d="M668.89,213.94a3.06,3.06,0,0,0-1.39,2.41c0,.88.63,1.23,1.4.79a3,3,0,0,0,1.38-2.4c0-.89-.62-1.24-1.39-.8"/><g class="cls-9"><path class="cls-7" d="M663.7,216.94a3.08,3.08,0,0,0-1.39,2.41c0,.88.63,1.24,1.4.79a3.06,3.06,0,0,0,1.39-2.4c0-.88-.63-1.24-1.4-.8"/></g><g class="cls-18"><path class="cls-7" d="M674.07,218.4c.77-.44,1.4-.08,1.4.8a3,3,0,0,1-1.39,2.4c-.77.45-1.39.09-1.4-.79a3.12,3.12,0,0,1,1.39-2.41"/></g><path class="cls-19" d="M668.89,221.41a3.06,3.06,0,0,0-1.39,2.4c0,.89.63,1.24,1.4.8a3,3,0,0,0,1.38-2.41c0-.88-.62-1.24-1.39-.79"/><path class="cls-7" d="M663.7,224.41a3.06,3.06,0,0,0-1.39,2.41c0,.88.63,1.23,1.4.79a3.06,3.06,0,0,0,1.39-2.4c0-.89-.63-1.24-1.4-.8"/><path class="cls-30" d="M262.47,125.77a1.53,1.53,0,0,1-.76-2.85l7.92-4.57a1.52,1.52,0,1,1,1.52,2.64l-7.91,4.57A1.51,1.51,0,0,1,262.47,125.77Zm18.47-10.68a1.53,1.53,0,0,1-.76-2.85l7.92-4.57a1.52,1.52,0,0,1,1.52,2.64l-7.92,4.57A1.48,1.48,0,0,1,280.94,115.09Zm18.47-10.68a1.52,1.52,0,0,1-.76-2.84L306.57,97a1.53,1.53,0,0,1,1.53,2.64l-7.92,4.57A1.51,1.51,0,0,1,299.41,104.41Zm18.48-10.68a1.52,1.52,0,0,1-.76-2.84L325,86.31A1.53,1.53,0,0,1,326.57,89l-7.92,4.58A1.6,1.6,0,0,1,317.89,93.73ZM335,83.05a1.52,1.52,0,0,1-.76-2.84l7.92-4.58a1.54,1.54,0,0,1,2.08.56,1.52,1.52,0,0,1-.56,2.08l-7.92,4.58A1.57,1.57,0,0,1,335,83.05Z"/><path class="cls-31" d="M530.47,297.74a1.52,1.52,0,0,1-.76-2.84l7.91-4.58a1.53,1.53,0,1,1,1.53,2.64l-7.92,4.57A1.5,1.5,0,0,1,530.47,297.74Zm18.47-10.68a1.52,1.52,0,0,1-.76-2.84l7.92-4.58a1.52,1.52,0,0,1,1.52,2.64l-7.92,4.58A1.6,1.6,0,0,1,548.94,287.06Zm18.47-10.68a1.52,1.52,0,0,1-.76-2.84l7.92-4.58a1.52,1.52,0,0,1,1.52,2.64l-7.92,4.58A1.57,1.57,0,0,1,567.41,276.38Zm18.48-10.68a1.52,1.52,0,0,1-.77-2.84l7.92-4.58a1.52,1.52,0,1,1,1.52,2.64l-7.91,4.58A1.49,1.49,0,0,1,585.89,265.7ZM603,255a1.52,1.52,0,0,1-.76-2.84l7.91-4.58a1.53,1.53,0,0,1,1.53,2.64l-7.92,4.58A1.49,1.49,0,0,1,603,255Z"/><path class="cls-32" d="M587.45,192.07a1.29,1.29,0,0,1-.68-.18l-7-4.07a1.36,1.36,0,0,1,1.36-2.35l7,4.07a1.36,1.36,0,0,1-.68,2.53Zm-16.38-9.5a1.41,1.41,0,0,1-.68-.18l-7-4.07a1.36,1.36,0,1,1,1.37-2.35l7,4.07a1.36,1.36,0,0,1-.69,2.53Zm-16.37-9.5a1.38,1.38,0,0,1-.68-.18l-7-4.08a1.35,1.35,0,1,1,1.36-2.34l7,4.07a1.36,1.36,0,0,1-.68,2.53Zm-16.37-9.5a1.33,1.33,0,0,1-.69-.19l-7-4.07A1.36,1.36,0,0,1,532,157l7,4.08a1.36,1.36,0,0,1-.68,2.53ZM522,154.07a1.32,1.32,0,0,1-.68-.19l-7-4.07a1.36,1.36,0,0,1,1.37-2.35l7,4.08a1.36,1.36,0,0,1,.5,1.85A1.38,1.38,0,0,1,522,154.07Zm-16.37-9.51a1.41,1.41,0,0,1-.68-.18l-7-4.07a1.36,1.36,0,1,1,1.37-2.35l7,4.07a1.35,1.35,0,0,1-.68,2.53Zm-16.37-9.5a1.36,1.36,0,0,1-.68-.18l-7-4.08a1.35,1.35,0,1,1,1.36-2.34l7,4.07a1.37,1.37,0,0,1,.49,1.85A1.35,1.35,0,0,1,489.21,135.06Zm-16.38-9.5a1.32,1.32,0,0,1-.68-.19l-7-4.07A1.36,1.36,0,0,1,466.5,119l7,4.08a1.36,1.36,0,0,1-.69,2.53Zm-16.37-9.51a1.38,1.38,0,0,1-.68-.18l-7-4.07a1.37,1.37,0,0,1-.49-1.85,1.35,1.35,0,0,1,1.85-.5l7,4.07a1.36,1.36,0,0,1-.68,2.53Zm-16.37-9.5a1.42,1.42,0,0,1-.69-.18l-7-4.07a1.36,1.36,0,1,1,1.36-2.35l7,4.07a1.38,1.38,0,0,1,.49,1.86A1.36,1.36,0,0,1,440.09,106.55Zm-16.38-9.5a1.41,1.41,0,0,1-.68-.18l-7-4.08a1.35,1.35,0,1,1,1.36-2.34l7,4.07a1.36,1.36,0,0,1-.68,2.53Zm-16.37-9.5a1.41,1.41,0,0,1-.68-.18l-7-4.08A1.36,1.36,0,1,1,401,81L408,85a1.36,1.36,0,0,1-.68,2.53ZM391,78a1.26,1.26,0,0,1-.68-.18l-7-4.07a1.36,1.36,0,0,1,1.36-2.35l7,4.07a1.38,1.38,0,0,1,.49,1.86A1.36,1.36,0,0,1,391,78Z"/><polygon class="cls-33" points="379.84 285.1 335.95 310.6 232.2 250.64 276.03 225.16 379.84 285.1"/><polygon class="cls-34" points="464.58 223.43 463.81 237.49 360.69 297.42 361.45 283.36 464.58 223.43"/><polygon class="cls-35" points="361.45 283.36 360.69 297.42 256.88 237.49 257.65 223.43 361.45 283.36"/><polygon class="cls-36" points="464.58 223.43 361.45 283.36 257.65 223.43 360.78 163.5 464.58 223.43"/><path class="cls-37" d="M355.45,255l-.14-.48c-.52-1.7,5.42-4.14,13.25-5.45l21.76-3.66,2,6.6-21.77,3.66C362.74,257,356,256.72,355.45,255Z"/><path class="cls-38" d="M281.1,235.73l47.59-26.64,46.77,27-50.91,26C307.6,252.31,286.12,238.64,281.1,235.73Z"/><path class="cls-39" d="M383.62,211.91v9.58c.05,5.38-3.46,10.77-10.56,14.86-14.13,8.16-37.11,8.13-51.34-.09a24.7,24.7,0,0,1-8-6.92,13.74,13.74,0,0,1-2.72-7.85v-9.71c.06,5.33,3.63,10.67,10.7,14.77,14.23,8.22,37.21,8.25,51.34.09C380.11,222.58,383.62,217.24,383.62,211.91Z"/><path class="cls-40" d="M383.62,211.78v.13c0,5.33-3.51,10.67-10.56,14.73-14.13,8.16-37.11,8.13-51.34-.09-7.07-4.1-10.64-9.44-10.7-14.77s3.45-10.76,10.55-14.87c14.12-8.15,37.11-8.12,51.33.09C380,201.1,383.56,206.44,383.62,211.78Z"/><path class="cls-41" d="M368.08,201.48l-14.7,9.9-2-15.89L346.62,199l2.84,20.51L370.94,205ZM340,204l3,20.12,4.6-3.51-2.8-20.13Zm-6.85,4.8,3,20.12,4.59-3.51-2.8-20.14Z"/><path class="cls-42" d="M383.62,191.12v9.58c.05,5.39-3.46,10.78-10.56,14.87-14.13,8.15-37.11,8.13-51.34-.09a24.7,24.7,0,0,1-8-6.92A13.77,13.77,0,0,1,311,200.7V191c.06,5.34,3.63,10.68,10.7,14.78,14.23,8.21,37.21,8.24,51.34.09C380.11,201.8,383.62,196.46,383.62,191.12Z"/><path class="cls-43" d="M383.62,191v.13c0,5.34-3.51,10.68-10.56,14.74C358.93,214,336,214,321.72,205.77c-7.07-4.1-10.64-9.44-10.7-14.78s3.45-10.76,10.55-14.86c14.12-8.16,37.11-8.13,51.33.09C380,180.32,383.56,185.66,383.62,191Z"/><path class="cls-41" d="M368.08,180.7l-14.7,9.89-2-15.88-4.75,3.52,2.84,20.5,21.48-14.48ZM340,183.17l3,20.12,4.6-3.51-2.8-20.14ZM333.1,188l3,20.12,4.59-3.5-2.8-20.14Z"/><path class="cls-44" d="M383.62,171.16v9.58c.05,5.38-3.46,10.78-10.56,14.87-14.13,8.15-37.11,8.12-51.34-.09a24.7,24.7,0,0,1-8-6.92,13.77,13.77,0,0,1-2.72-7.86V171c.06,5.34,3.63,10.68,10.7,14.78,14.23,8.21,37.21,8.24,51.34.08C380.11,181.84,383.62,176.5,383.62,171.16Z"/><path class="cls-45" d="M383.62,171v.13c0,5.34-3.51,10.68-10.56,14.73-14.13,8.16-37.11,8.13-51.34-.08-7.07-4.1-10.64-9.44-10.7-14.78s3.45-10.76,10.55-14.86c14.12-8.16,37.11-8.13,51.33.09C380,160.36,383.56,165.69,383.62,171Z"/><path class="cls-41" d="M368.08,160.74l-14.7,9.89-2-15.89-4.75,3.53,2.84,20.5,21.48-14.48ZM340,163.2l3,20.13,4.6-3.51-2.8-20.14ZM333.1,168l3,20.12,4.59-3.5-2.8-20.14Z"/><path class="cls-46" d="M424.2,211.7a36.35,36.35,0,0,1-3.21,15c0,.11-.09.21-.14.32-.19.4-.38.8-.58,1.19a33.36,33.36,0,0,1-2,3.53,34.49,34.49,0,0,1-2.21,3q-1.11,1.36-2.34,2.61c-.7.72-1.44,1.41-2.21,2.07s-1.53,1.27-2.34,1.86q-.79.58-1.62,1.11a36.64,36.64,0,0,1-56.59-30.74c0-1.26.06-2.5.18-3.73a36.65,36.65,0,0,1,73.1,3.73Z"/><circle class="cls-47" cx="388.64" cy="214.52" r="35.05" transform="translate(-55.01 229.74) rotate(-30.86)"/><path class="cls-41" d="M374.74,207.43l27.63,27.63v7l-27.63-27.63Zm22.68-17.54v20.52l-22.68-22.68v7l27.63,27.63v-32.5Zm-22.68,14.72,27.63,27.63v-7l-27.63-27.63Z"/><polygon class="cls-48" points="468.63 360.82 459.47 353.63 477.4 343.41 493.69 345.7 468.63 360.82"/><path class="cls-49" d="M475.83,308.25l0,.29.06.24c0,.09.05.18.08.27a2.29,2.29,0,0,0,.1.23c0,.09.08.19.13.28s.15.26.23.39l.05.06a3.57,3.57,0,0,0,.3.38l.06.07a4.68,4.68,0,0,0,.39.38l.28.24.26.2a3.78,3.78,0,0,0,.33.22l.35.23.62.32.17.08.59.25.08,0c.21.09.44.16.66.23l.47.14.36.09.51.11.35.07q.51.09,1,.15l.32,0,.63,0h1.32l.47,0,.42,0,.46,0,.41-.06c.17,0,.33-.05.49-.09l.38-.07.57-.14.37-.1.19-.06.56-.19.16-.06c.17-.06.33-.14.49-.21l.24-.1c.23-.11.46-.23.67-.35L522,294.1c1.82-1.05,2.72-2.42,2.72-3.8v35.18a4.47,4.47,0,0,1-2.61,3.8L491.6,346.9a7.06,7.06,0,0,1-.67.35l-.24.11-.41.18-.08,0-.16.05-.56.2-.19.06-.13,0-.24.05-.57.14-.15,0-.23,0-.49.09-.19,0-.22,0-.46.06-.22,0h-.2l-.47,0H484.4c-.21,0-.42,0-.63,0h-.32c-.36,0-.7-.09-1.05-.15h0l-.3-.06-.51-.11-.36-.1-.47-.13-.1,0-.56-.2-.08,0-.59-.25-.17-.08c-.21-.1-.42-.21-.62-.33l-.11-.06c-.09,0-.16-.11-.24-.16l-.33-.22-.26-.21-.28-.23-.06,0-.33-.33-.06-.07-.18-.21-.12-.17,0-.06a2.92,2.92,0,0,1-.21-.32l0-.07a2.55,2.55,0,0,1-.13-.29l-.08-.16,0-.06c0-.09-.05-.18-.08-.28s0-.12,0-.18a.09.09,0,0,0,0,0l0-.29a1.23,1.23,0,0,1,0-.19v-.08L475.81,308A2.45,2.45,0,0,0,475.83,308.25Z"/><path class="cls-50" d="M478.52,304.19l30.53-17.63a14.36,14.36,0,0,1,13,0c3.58,2.08,3.56,5.46-.05,7.54l-30.53,17.63a14.34,14.34,0,0,1-13,0C474.9,309.64,474.92,306.27,478.52,304.19Z"/><path class="cls-51" d="M516.2,280.08c0-7.14-3.48-10.19-5.54-11.38s-6.47-2.65-12.72.95c-8.47,4.89-15.08,16.35-15.05,26.09l0,9.93a3.11,3.11,0,0,0,3.11,3.11h0a3.12,3.12,0,0,0,3.1-3.13l0-9.93c0-7.45,5.44-16.92,11.94-20.67,2.58-1.49,4.95-1.84,6.5-.95s2.41,3.07,2.42,6l0,9.93a3.12,3.12,0,0,0,3.12,3.11h0a3.12,3.12,0,0,0,3.1-3.13Z"/><path class="cls-52" d="M502.9,274c2.59-1.49,5-1.83,6.5-.94s2.41,3.06,2.42,6l0,13.6a1,1,0,0,0,0,.17A3.12,3.12,0,0,1,510,290l0-9.93c0-2.93-.89-5.12-2.42-6-1.3-.75-3.18-.62-5.28.32Z"/><path class="cls-53" d="M497.94,269.65c.49-.28,1-.52,1.43-.75-8.27,5-14.67,16.26-14.64,25.84l0,13.76a3.1,3.1,0,0,1-1.84-2.83l0-9.93C482.86,286,489.47,274.54,497.94,269.65Z"/><path class="cls-36" d="M490.86,280.82a.83.83,0,0,0,.7-.38c2.74-4.29,4.9-6.61,7.7-8.27,2.2-1.3,6.42-3.18,10-1.09a.83.83,0,1,0,.84-1.43c-4.34-2.52-9.2-.4-11.7,1.09-3.05,1.81-5.36,4.28-8.26,8.8a.83.83,0,0,0,.25,1.15A.81.81,0,0,0,490.86,280.82Z"/><path class="cls-3" d="M510.74,320.68c0-2.45-1.74-3.44-3.87-2.21a8.51,8.51,0,0,0-3.84,6.66c0,1.88,1,2.89,2.49,2.7v5.48c0,.88.62,1.23,1.38.79a3,3,0,0,0,1.38-2.38v-5.49A8.56,8.56,0,0,0,510.74,320.68Z"/><path class="cls-54" d="M338.4,409.38a1.52,1.52,0,0,1-.76-2.84l7.91-4.58a1.53,1.53,0,0,1,1.53,2.64l-7.92,4.58A1.6,1.6,0,0,1,338.4,409.38Z"/><path class="cls-55" d="M356.87,398.7a1.52,1.52,0,0,1-.76-2.84l7.92-4.58a1.52,1.52,0,0,1,1.52,2.64l-7.92,4.58A1.49,1.49,0,0,1,356.87,398.7Z"/><path class="cls-56" d="M375.35,388a1.55,1.55,0,0,1-1.33-.77,1.52,1.52,0,0,1,.56-2.08l7.92-4.57a1.51,1.51,0,0,1,2.08.55,1.53,1.53,0,0,1-.56,2.09l-7.91,4.57A1.53,1.53,0,0,1,375.35,388Z"/><path class="cls-57" d="M393.82,377.35a1.53,1.53,0,0,1-.77-2.85l7.92-4.57a1.52,1.52,0,1,1,1.52,2.64l-7.91,4.57A1.5,1.5,0,0,1,393.82,377.35Z"/><path class="cls-58" d="M412.29,366.67a1.53,1.53,0,0,1-.76-2.85l7.91-4.57a1.52,1.52,0,1,1,1.52,2.64l-7.91,4.57A1.5,1.5,0,0,1,412.29,366.67Z"/><path class="cls-59" d="M430.76,356a1.53,1.53,0,0,1-.76-2.85l7.91-4.57a1.53,1.53,0,1,1,1.53,2.64l-7.92,4.57A1.5,1.5,0,0,1,430.76,356Z"/><path class="cls-60" d="M450,344.8a1.52,1.52,0,0,1-.76-2.84l7.91-4.58a1.53,1.53,0,0,1,1.53,2.64l-7.92,4.57A1.5,1.5,0,0,1,450,344.8Z"/><path class="cls-61" d="M469.66,333.45a1.54,1.54,0,0,1-1.32-.76,1.52,1.52,0,0,1,.56-2.08l7.92-4.58a1.52,1.52,0,0,1,1.52,2.64l-7.92,4.57A1.5,1.5,0,0,1,469.66,333.45Z"/><polygon class="cls-62" points="207.45 181.26 198.29 174.08 216.23 163.86 232.52 166.14 207.45 181.26"/><path class="cls-63" d="M214.65,128.7c0,.09,0,.19,0,.29a2,2,0,0,0,.06.23,2.86,2.86,0,0,0,.07.28l.1.22c0,.1.08.19.13.29a4.11,4.11,0,0,0,.24.39l0,.06.31.38.06.07.38.38.29.23a2.43,2.43,0,0,0,.25.2l.34.23c.11.07.22.15.35.22s.4.22.62.33l.17.08.59.25.07,0,.66.23.48.13.36.1.51.11.34.07c.35.06.7.11,1,.14l.33,0,.62,0h.9l.42,0,.47,0,.43,0,.45-.05.42-.06.48-.08.39-.08.57-.14.36-.1.2-.06.56-.19.16-.06.48-.2.24-.11c.23-.11.46-.22.68-.35l30.53-17.63c1.81-1,2.72-2.42,2.71-3.79v35.18c0,1.37-.79,2.74-2.6,3.79l-30.53,17.63c-.22.12-.44.24-.68.35a1.73,1.73,0,0,1-.24.1c-.13.06-.27.13-.41.18l-.07,0-.16.06-.56.19-.2.06-.13,0-.23.06-.57.14-.16,0-.23,0-.48.08-.2,0-.21,0-.46.05-.22,0H225l-.47,0h-1.32l-.62,0-.25,0h-.08c-.35,0-.7-.08-1-.15h-.06l-.29-.07-.51-.1-.36-.1-.48-.14-.1,0-.56-.19-.07,0a5.22,5.22,0,0,1-.59-.25l-.17-.08c-.22-.1-.42-.21-.62-.32l-.12-.07-.23-.16a2.7,2.7,0,0,1-.33-.22,1.79,1.79,0,0,1-.26-.2l-.29-.23a.12.12,0,0,0-.05-.05,3.51,3.51,0,0,1-.33-.34l-.06-.07c-.06-.07-.13-.14-.18-.21a1.83,1.83,0,0,1-.13-.16.43.43,0,0,1,0-.07,3.45,3.45,0,0,1-.2-.32s0,0,0-.06-.09-.2-.13-.29-.06-.11-.08-.17a.13.13,0,0,1,0-.06,1.38,1.38,0,0,1-.08-.27l-.06-.19v-.05a2.54,2.54,0,0,1,0-.29c0-.06,0-.12,0-.18v-.08l-.11-35.18C214.63,128.52,214.65,128.61,214.65,128.7Z"/><path class="cls-64" d="M217.35,124.63,247.88,107a14.28,14.28,0,0,1,13,0c3.58,2.08,3.56,5.45,0,7.53l-30.53,17.63a14.34,14.34,0,0,1-13,0C213.72,130.09,213.74,126.71,217.35,124.63Z"/><path class="cls-65" d="M255,100.53c0-7.14-3.48-10.2-5.54-11.38s-6.48-2.66-12.72.95c-8.47,4.89-15.09,16.35-15.06,26.09l0,9.93a3.12,3.12,0,0,0,3.11,3.1h0A3.12,3.12,0,0,0,228,126.1l0-9.93c0-7.46,5.45-16.93,11.94-20.68,2.59-1.49,5-1.84,6.5-.95s2.41,3.07,2.42,6l0,9.93a3.11,3.11,0,0,0,3.11,3.1h0a3.12,3.12,0,0,0,3.11-3.12Z"/><path class="cls-66" d="M241.73,94.49c2.58-1.49,5-1.84,6.49-.95s2.41,3.07,2.42,6l0,13.61s0,.11,0,.16a3.1,3.1,0,0,1-1.85-2.83l0-9.93c0-2.94-.89-5.13-2.42-6-1.3-.74-3.18-.62-5.27.33C241.31,94.73,241.52,94.61,241.73,94.49Z"/><path class="cls-67" d="M236.77,90.1c.48-.28,1-.53,1.42-.75-8.27,5-14.66,16.26-14.63,25.83l0,13.77a3.11,3.11,0,0,1-1.84-2.83l0-9.93C221.68,106.45,228.3,95,236.77,90.1Z"/><path class="cls-36" d="M229.68,101.27a.84.84,0,0,0,.7-.39c2.75-4.28,4.91-6.6,7.71-8.26,2.19-1.31,6.41-3.18,10-1.09a.83.83,0,0,0,.83-1.44c-4.34-2.51-9.19-.39-11.7,1.1-3,1.81-5.36,4.27-8.26,8.8a.82.82,0,0,0,.25,1.14A.85.85,0,0,0,229.68,101.27Z"/><path class="cls-3" d="M249.56,141.12c0-2.44-1.73-3.43-3.86-2.2a8.44,8.44,0,0,0-3.84,6.65c0,1.89,1,2.9,2.48,2.7v5.48c0,.88.63,1.23,1.39.79a3,3,0,0,0,1.37-2.38v-5.48A8.51,8.51,0,0,0,249.56,141.12Z"/><polygon class="cls-68" points="317.68 462.48 269.9 434.88 308.59 412.83 359.04 438.89 317.68 462.48"/><g class="cls-1"><polygon class="cls-3" points="348.15 364.77 300.19 392.5 348.15 420.22 395.93 392.5 348.15 364.77"/><polygon class="cls-69" points="348.15 420.22 348.15 445.2 395.93 417.48 395.93 392.5 348.15 420.22"/><polygon class="cls-70" points="300.19 392.5 300.19 417.48 348.15 445.2 348.15 420.22 300.19 392.5"/></g><polygon class="cls-71" points="348.15 419.23 301.05 392 300.19 392.5 348.15 420.22 395.93 392.5 395.07 392 348.15 419.23"/><path class="cls-7" d="M390,402.73c.77-.44,1.4-.08,1.4.8a3.06,3.06,0,0,1-1.39,2.4c-.77.45-1.39.09-1.4-.79a3.08,3.08,0,0,1,1.39-2.41"/><g class="cls-8"><path class="cls-7" d="M384.82,405.73a3.06,3.06,0,0,0-1.39,2.41c0,.88.63,1.24,1.4.8a3.07,3.07,0,0,0,1.38-2.41c0-.88-.62-1.24-1.39-.8"/></g><g class="cls-9"><path class="cls-7" d="M379.63,408.74a3.06,3.06,0,0,0-1.39,2.4c0,.89.63,1.24,1.4.8a3.07,3.07,0,0,0,1.39-2.4c0-.89-.63-1.25-1.4-.8"/></g><g class="cls-10"><path class="cls-7" d="M390,410.2c.77-.44,1.4-.09,1.4.8a3.06,3.06,0,0,1-1.39,2.4c-.77.44-1.39.09-1.4-.79A3.06,3.06,0,0,1,390,410.2"/></g><path class="cls-7" d="M384.82,413.2a3,3,0,0,0-1.39,2.41c0,.88.63,1.24,1.4.79a3,3,0,0,0,1.38-2.4c0-.88-.62-1.24-1.39-.8"/><g class="cls-9"><path class="cls-7" d="M379.63,416.2a3.09,3.09,0,0,0-1.39,2.41c0,.88.63,1.24,1.4.8A3.08,3.08,0,0,0,381,417c0-.88-.63-1.24-1.4-.8"/></g><g class="cls-1"><polygon class="cls-72" points="348.15 331.56 300.19 359.28 348.15 387.01 395.93 359.29 348.15 331.56"/><polygon class="cls-73" points="348.15 387.01 348.15 411.99 395.93 384.27 395.93 359.29 348.15 387.01"/><polygon class="cls-74" points="300.19 359.28 300.19 384.27 348.15 411.99 348.15 387.01 300.19 359.28"/></g><polygon class="cls-75" points="348.15 386.02 301.05 358.79 300.19 359.28 348.15 387.01 395.93 359.29 395.07 358.79 348.15 386.02"/><polygon class="cls-3" points="348.1 346.59 326.14 359.28 348.1 371.98 369.98 359.29 348.1 346.59"/><g class="cls-15"><polygon class="cls-76" points="348.1 346.59 348.1 349.71 367.29 360.85 369.98 359.29 348.1 346.59"/><polygon class="cls-77" points="326.14 359.28 328.84 360.84 348.1 349.71 348.1 346.59 326.14 359.28"/></g><polygon class="cls-7" points="348.07 356.55 343.33 359.28 348.07 362.02 352.79 359.28 348.07 356.55"/><g class="cls-10"><path class="cls-7" d="M390,369.52c.77-.44,1.4-.09,1.4.8a3.06,3.06,0,0,1-1.39,2.4c-.77.44-1.39.09-1.4-.79a3.06,3.06,0,0,1,1.39-2.41"/></g><path class="cls-7" d="M384.82,372.52a3.06,3.06,0,0,0-1.39,2.41c0,.88.63,1.24,1.4.79a3,3,0,0,0,1.38-2.4c0-.88-.62-1.24-1.39-.8"/><g class="cls-9"><path class="cls-7" d="M379.63,375.53a3.06,3.06,0,0,0-1.39,2.4c0,.89.63,1.24,1.4.8a3.08,3.08,0,0,0,1.39-2.41c0-.88-.63-1.24-1.4-.79"/></g><g class="cls-18"><path class="cls-7" d="M390,377c.77-.45,1.4-.09,1.4.8a3.07,3.07,0,0,1-1.39,2.4c-.77.44-1.39.09-1.4-.8A3.06,3.06,0,0,1,390,377"/></g><path class="cls-19" d="M384.82,380a3,3,0,0,0-1.39,2.41c0,.88.63,1.23,1.4.79a3,3,0,0,0,1.38-2.4c0-.89-.62-1.24-1.39-.8"/><path class="cls-7" d="M379.63,383a3.09,3.09,0,0,0-1.39,2.41c0,.88.63,1.24,1.4.79a3.06,3.06,0,0,0,1.39-2.4c0-.88-.63-1.24-1.4-.8"/><path class="cls-78" d="M84.5,227.21a1.52,1.52,0,0,1-.76-2.84l7.91-4.58a1.53,1.53,0,0,1,1.53,2.64L85.26,227A1.5,1.5,0,0,1,84.5,227.21Z"/><path class="cls-79" d="M103,216.53a1.52,1.52,0,0,1-.76-2.84l7.92-4.58a1.52,1.52,0,0,1,1.52,2.64l-7.92,4.58A1.6,1.6,0,0,1,103,216.53Z"/><path class="cls-80" d="M121.45,205.85a1.54,1.54,0,0,1-1.33-.76,1.52,1.52,0,0,1,.56-2.08l7.92-4.58a1.52,1.52,0,1,1,1.52,2.64l-7.91,4.58A1.52,1.52,0,0,1,121.45,205.85Z"/><path class="cls-81" d="M137.45,196.41a1.53,1.53,0,0,1-.76-2.85L144.6,189a1.53,1.53,0,1,1,1.53,2.64l-7.92,4.58A1.5,1.5,0,0,1,137.45,196.41Z"/><path class="cls-82" d="M155.86,186a1.53,1.53,0,0,1-.76-2.85l7.91-4.57a1.53,1.53,0,0,1,1.53,2.64l-7.92,4.57A1.5,1.5,0,0,1,155.86,186Z"/><path class="cls-83" d="M174.51,175.32a1.53,1.53,0,0,1-.76-2.85l7.92-4.57a1.52,1.52,0,1,1,1.52,2.63l-7.91,4.58A1.51,1.51,0,0,1,174.51,175.32Z"/><path class="cls-84" d="M193.14,164.48a1.53,1.53,0,0,1-.76-2.85l7.91-4.57a1.53,1.53,0,1,1,1.53,2.64l-7.92,4.57A1.48,1.48,0,0,1,193.14,164.48Z"/><path class="cls-85" d="M209.09,155.09a1.53,1.53,0,0,1-.76-2.85l7.92-4.57a1.53,1.53,0,0,1,1.53,2.64l-7.92,4.57A1.51,1.51,0,0,1,209.09,155.09Z"/><polygon class="cls-86" points="47.78 294.23 0 266.63 38.7 244.58 89.14 270.63 47.78 294.23"/><g class="cls-1"><polygon class="cls-3" points="78.25 196.52 30.3 224.24 78.25 251.97 126.03 224.25 78.25 196.52"/><polygon class="cls-87" points="78.25 251.97 78.25 276.95 126.03 249.23 126.03 224.25 78.25 251.97"/><polygon class="cls-88" points="30.3 224.24 30.3 249.23 78.25 276.95 78.25 251.97 30.3 224.24"/></g><polygon class="cls-89" points="78.25 250.98 31.16 223.75 30.3 224.24 78.25 251.97 126.03 224.25 125.17 223.75 78.25 250.98"/><path class="cls-7" d="M120.11,234.48c.76-.44,1.39-.09,1.39.8a3.06,3.06,0,0,1-1.39,2.4c-.76.45-1.39.09-1.39-.79a3,3,0,0,1,1.39-2.41"/><g class="cls-8"><path class="cls-7" d="M114.92,237.48a3.09,3.09,0,0,0-1.39,2.41c0,.88.63,1.24,1.4.79a3.06,3.06,0,0,0,1.39-2.4c0-.88-.63-1.24-1.4-.8"/></g><g class="cls-9"><path class="cls-7" d="M109.73,240.49a3.06,3.06,0,0,0-1.39,2.4c0,.89.63,1.24,1.4.8a3.08,3.08,0,0,0,1.39-2.41c0-.88-.63-1.24-1.4-.79"/></g><g class="cls-10"><path class="cls-7" d="M120.11,242c.76-.45,1.39-.09,1.39.8a3.07,3.07,0,0,1-1.39,2.4c-.76.44-1.39.09-1.39-.8a3,3,0,0,1,1.39-2.4"/></g><path class="cls-7" d="M114.92,245a3.06,3.06,0,0,0-1.39,2.41c0,.88.63,1.24,1.4.79a3.06,3.06,0,0,0,1.39-2.4c0-.89-.63-1.24-1.4-.8"/><g class="cls-9"><path class="cls-7" d="M109.73,248a3.09,3.09,0,0,0-1.39,2.41c0,.88.63,1.24,1.4.79a3.06,3.06,0,0,0,1.39-2.4c0-.88-.63-1.24-1.4-.8"/></g><g class="cls-1"><polygon class="cls-90" points="78.25 163.31 30.3 191.03 78.25 218.76 126.03 191.03 78.25 163.31"/><polygon class="cls-91" points="78.25 218.76 78.25 243.74 126.03 216.02 126.03 191.03 78.25 218.76"/><polygon class="cls-92" points="30.3 191.03 30.3 216.01 78.25 243.74 78.25 218.76 30.3 191.03"/></g><polygon class="cls-93" points="78.25 217.76 31.16 190.53 30.3 191.03 78.25 218.76 126.03 191.03 125.17 190.54 78.25 217.76"/><polygon class="cls-3" points="78.2 178.34 56.24 191.03 78.2 203.73 100.08 191.03 78.2 178.34"/><g class="cls-15"><polygon class="cls-94" points="78.2 178.34 78.2 181.46 97.4 192.59 100.08 191.03 78.2 178.34"/><polygon class="cls-95" points="56.24 191.03 58.94 192.59 78.2 181.46 78.2 178.34 56.24 191.03"/></g><polygon class="cls-7" points="78.17 188.29 73.44 191.03 78.17 193.77 82.89 191.03 78.17 188.29"/><g class="cls-10"><path class="cls-7" d="M120.11,201.27c.76-.45,1.39-.09,1.39.8a3.06,3.06,0,0,1-1.39,2.4c-.76.44-1.39.09-1.39-.79a3,3,0,0,1,1.39-2.41"/></g><path class="cls-7" d="M114.92,204.27a3.08,3.08,0,0,0-1.39,2.41c0,.88.63,1.24,1.4.79a3.06,3.06,0,0,0,1.39-2.4c0-.88-.63-1.24-1.4-.8"/><g class="cls-9"><path class="cls-7" d="M109.73,207.27a3.09,3.09,0,0,0-1.39,2.41c0,.88.63,1.24,1.4.79a3,3,0,0,0,1.39-2.4c0-.88-.63-1.24-1.4-.8"/></g><g class="cls-18"><path class="cls-7" d="M120.11,208.74c.76-.45,1.39-.09,1.39.79a3.08,3.08,0,0,1-1.39,2.41c-.76.44-1.39.09-1.39-.8a3,3,0,0,1,1.39-2.4"/></g><path class="cls-19" d="M114.92,211.74a3.06,3.06,0,0,0-1.39,2.41c0,.88.63,1.23,1.4.79a3.06,3.06,0,0,0,1.39-2.4c0-.89-.63-1.25-1.4-.8"/><path class="cls-7" d="M109.73,214.74a3.08,3.08,0,0,0-1.39,2.41c0,.88.63,1.24,1.4.79a3.06,3.06,0,0,0,1.39-2.4c0-.88-.63-1.24-1.4-.8"/><path class="cls-96" d="M302.62,354.33a1.41,1.41,0,0,1-.68-.18l-7-4.07a1.36,1.36,0,1,1,1.36-2.35l7,4.07a1.36,1.36,0,0,1-.69,2.53Zm-16.37-9.5a1.38,1.38,0,0,1-.68-.18l-7-4.07a1.36,1.36,0,0,1,1.37-2.35l7,4.07a1.36,1.36,0,0,1-.68,2.53Zm-16.37-9.5a1.42,1.42,0,0,1-.69-.18l-7-4.08a1.35,1.35,0,0,1,1.36-2.34l7,4.07a1.37,1.37,0,0,1,.49,1.85A1.35,1.35,0,0,1,269.88,335.33Zm-16.38-9.5a1.32,1.32,0,0,1-.68-.19l-7-4.07a1.36,1.36,0,0,1,1.37-2.35l7,4.08a1.36,1.36,0,0,1,.5,1.85A1.38,1.38,0,0,1,253.5,325.83Zm-16.37-9.51a1.29,1.29,0,0,1-.68-.18l-7-4.07a1.36,1.36,0,0,1,1.36-2.35l7,4.08a1.35,1.35,0,0,1-.68,2.52Zm-16.37-9.5a1.38,1.38,0,0,1-.68-.18l-7-4.07a1.36,1.36,0,0,1,1.36-2.35l7,4.07a1.36,1.36,0,0,1-.68,2.53Zm-16.38-9.5a1.41,1.41,0,0,1-.68-.18l-7-4.08a1.36,1.36,0,1,1,1.37-2.34l7,4.07a1.36,1.36,0,0,1-.69,2.53ZM188,287.82a1.3,1.3,0,0,1-.68-.19l-7-4.07a1.36,1.36,0,0,1,1.36-2.35l7,4.08a1.36,1.36,0,0,1-.68,2.53Zm-16.37-9.51a1.42,1.42,0,0,1-.69-.18l-7-4.07a1.36,1.36,0,1,1,1.36-2.35l7,4.07a1.38,1.38,0,0,1,.49,1.86A1.36,1.36,0,0,1,171.64,278.31Zm-16.38-9.5a1.41,1.41,0,0,1-.68-.18l-7-4.07a1.36,1.36,0,0,1,1.37-2.35l7,4.07a1.35,1.35,0,0,1-.68,2.53Zm-16.37-9.5a1.36,1.36,0,0,1-.68-.18l-7-4.08a1.36,1.36,0,1,1,1.37-2.34l7,4.07a1.36,1.36,0,0,1-.68,2.53Zm-16.37-9.5a1.27,1.27,0,0,1-.68-.19l-7-4.07a1.35,1.35,0,0,1-.49-1.85,1.36,1.36,0,0,1,1.85-.5l7,4.08a1.36,1.36,0,0,1,.49,1.85A1.35,1.35,0,0,1,122.52,249.81Zm-16.38-9.51a1.31,1.31,0,0,1-.68-.18l-7-4.07a1.36,1.36,0,0,1,1.37-2.35l7,4.07a1.36,1.36,0,0,1-.69,2.53Z"/></g></g></g></svg>