<svg xmlns="http://www.w3.org/2000/svg" xmlns:xlink="http://www.w3.org/1999/xlink" viewBox="0 0 500 457.71"><defs><style>.cls-1{fill:url(#linear-gradient);}.cls-2,.cls-8{mask:url(#mask);}.cls-2{filter:url(#luminosity-noclip-5);}.cls-3,.cls-34,.cls-5,.cls-7,.cls-9{mix-blend-mode:multiply;}.cls-3{fill:url(#linear-gradient-2);}.cls-4,.cls-6{mask:url(#mask-2);}.cls-4{filter:url(#luminosity-noclip-6);}.cls-5{fill:url(#linear-gradient-3);}.cls-6{filter:url(#luminosity-noclip-7);}.cls-7{fill:url(#linear-gradient-4);}.cls-8{filter:url(#luminosity-noclip-8);}.cls-9{fill:url(#linear-gradient-5);}.cls-10{isolation:isolate;}.cls-11,.cls-12,.cls-32{opacity:0.7;}.cls-11{fill:url(#linear-gradient-6);}.cls-12{fill:url(#linear-gradient-7);}.cls-13{fill:url(#linear-gradient-8);}.cls-14{fill:url(#linear-gradient-9);}.cls-15{fill:url(#linear-gradient-10);}.cls-16{fill:url(#linear-gradient-11);}.cls-17{fill:url(#linear-gradient-12);}.cls-18{fill:url(#linear-gradient-13);}.cls-19,.cls-31{fill:#fff;}.cls-20{fill:#3f3c3a;}.cls-21{fill:url(#linear-gradient-14);}.cls-22{fill:#4c4242;}.cls-23{fill:url(#linear-gradient-15);}.cls-24{fill:url(#linear-gradient-16);}.cls-25{mix-blend-mode:overlay;}.cls-26{fill:#a0a0a0;}.cls-27{fill:#b3b3b3;}.cls-28{fill:#c6c6c6;}.cls-29{fill:#d9d9d9;}.cls-30{fill:#ececec;}.cls-31,.cls-43{mix-blend-mode:screen;}.cls-32{fill:url(#linear-gradient-17);}.cls-33{fill:url(#linear-gradient-18);}.cls-34,.cls-63{opacity:0.5;}.cls-35{fill:url(#linear-gradient-19);}.cls-36{fill:url(#linear-gradient-20);}.cls-37{fill:url(#linear-gradient-21);}.cls-38{opacity:0.2;}.cls-39{fill:#575757;}.cls-40{fill:url(#radial-gradient);}.cls-41{fill:url(#linear-gradient-22);}.cls-42{fill:url(#linear-gradient-23);}.cls-44{fill:url(#linear-gradient-24);}.cls-45{fill:url(#linear-gradient-25);}.cls-46{fill:#6c6a6b;}.cls-47{fill:url(#linear-gradient-26);}.cls-110,.cls-111,.cls-124,.cls-127,.cls-130,.cls-48,.cls-54,.cls-74,.cls-75,.cls-88{opacity:0.6;}.cls-48{fill:url(#linear-gradient-27);}.cls-49{fill:url(#linear-gradient-28);}.cls-50{fill:url(#linear-gradient-29);}.cls-51{fill:url(#linear-gradient-30);}.cls-52{fill:url(#linear-gradient-31);}.cls-53{fill:url(#linear-gradient-32);}.cls-54{fill:url(#linear-gradient-33);}.cls-55{fill:url(#linear-gradient-34);}.cls-56{fill:url(#linear-gradient-35);}.cls-57{fill:url(#linear-gradient-36);}.cls-58{fill:url(#linear-gradient-37);}.cls-59{fill:url(#linear-gradient-38);}.cls-60{fill:url(#linear-gradient-39);}.cls-61{fill:url(#linear-gradient-40);}.cls-62{mask:url(#mask-5);}.cls-63{fill:url(#linear-gradient-41);}.cls-64{fill:url(#radial-gradient-2);}.cls-65{mask:url(#mask-6);}.cls-66{fill:#1c1714;}.cls-67{mask:url(#mask-7);}.cls-68{fill:url(#linear-gradient-42);}.cls-69{fill:url(#linear-gradient-43);}.cls-70{fill:url(#linear-gradient-44);}.cls-71{mask:url(#mask-8);}.cls-72{mask:url(#mask-9);}.cls-73{fill:url(#linear-gradient-45);}.cls-74{fill:url(#linear-gradient-46);}.cls-75{fill:url(#linear-gradient-47);}.cls-76{fill:url(#linear-gradient-48);}.cls-77{fill:url(#linear-gradient-49);}.cls-78{fill:url(#linear-gradient-50);}.cls-79{fill:url(#linear-gradient-51);}.cls-80{fill:url(#linear-gradient-52);}.cls-81{fill:url(#linear-gradient-53);}.cls-82{fill:url(#linear-gradient-54);}.cls-83{fill:url(#linear-gradient-55);}.cls-84{fill:url(#linear-gradient-56);}.cls-85{fill:url(#linear-gradient-57);}.cls-86{fill:url(#linear-gradient-58);}.cls-87{fill:url(#linear-gradient-59);}.cls-88{fill:url(#linear-gradient-60);}.cls-89{fill:url(#linear-gradient-61);}.cls-90{fill:url(#linear-gradient-62);}.cls-91{fill:url(#linear-gradient-63);}.cls-92{fill:url(#linear-gradient-64);}.cls-93{fill:url(#linear-gradient-65);}.cls-94{fill:url(#linear-gradient-66);}.cls-95{fill:url(#linear-gradient-67);}.cls-96{fill:#bcd4e3;}.cls-97{fill:url(#linear-gradient-68);}.cls-98{fill:url(#linear-gradient-69);}.cls-99{fill:url(#linear-gradient-70);}.cls-100{fill:url(#linear-gradient-71);}.cls-101{fill:url(#linear-gradient-72);}.cls-102{fill:url(#linear-gradient-73);}.cls-103{fill:url(#linear-gradient-74);}.cls-104{fill:url(#linear-gradient-75);}.cls-105{fill:url(#linear-gradient-76);}.cls-106{fill:url(#linear-gradient-77);}.cls-107{fill:url(#linear-gradient-78);}.cls-108{fill:url(#linear-gradient-79);}.cls-109{fill:url(#linear-gradient-80);}.cls-110{fill:url(#linear-gradient-81);}.cls-111{fill:url(#linear-gradient-82);}.cls-112{fill:url(#linear-gradient-83);}.cls-113{fill:url(#linear-gradient-84);}.cls-114{fill:url(#linear-gradient-85);}.cls-115{fill:url(#linear-gradient-86);}.cls-116{fill:url(#linear-gradient-87);}.cls-117{fill:url(#linear-gradient-88);}.cls-118{fill:url(#linear-gradient-89);}.cls-119{fill:url(#linear-gradient-90);}.cls-120{fill:url(#linear-gradient-91);}.cls-121{fill:url(#linear-gradient-92);}.cls-122{fill:url(#linear-gradient-93);}.cls-123{fill:url(#linear-gradient-94);}.cls-124{fill:url(#linear-gradient-95);}.cls-125{fill:url(#linear-gradient-96);}.cls-126{fill:url(#linear-gradient-97);}.cls-127{fill:url(#linear-gradient-98);}.cls-128{fill:url(#linear-gradient-99);}.cls-129{fill:url(#linear-gradient-100);}.cls-130{fill:url(#linear-gradient-101);}.cls-131{fill:url(#linear-gradient-102);}.cls-132{fill:url(#linear-gradient-103);}.cls-133{filter:url(#luminosity-noclip-2);}.cls-134{filter:url(#luminosity-noclip);}</style><linearGradient id="linear-gradient" x1="252.44" y1="295.21" x2="252.44" y2="26.12" gradientUnits="userSpaceOnUse"><stop offset="0" stop-color="#fff"/><stop offset="0.07" stop-color="#e0e0e0"/><stop offset="0.21" stop-color="#a6a6a6"/><stop offset="0.36" stop-color="#737373"/><stop offset="0.5" stop-color="#4a4a4a"/><stop offset="0.64" stop-color="#2a2a2a"/><stop offset="0.77" stop-color="#131313"/><stop offset="0.89" stop-color="#050505"/><stop offset="1"/></linearGradient><filter id="luminosity-noclip" x="172.18" y="-7969.66" width="66.01" height="32766" filterUnits="userSpaceOnUse" color-interpolation-filters="sRGB"><feFlood flood-color="#fff" result="bg"/><feBlend in="SourceGraphic" in2="bg"/></filter><mask id="mask" x="172.18" y="-7969.66" width="66.01" height="32766" maskUnits="userSpaceOnUse"><g class="cls-134"/></mask><linearGradient id="linear-gradient-2" x1="172.74" y1="204.13" x2="236.65" y2="241.74" gradientUnits="userSpaceOnUse"><stop offset="0"/><stop offset="0.1" stop-color="#050505"/><stop offset="0.23" stop-color="#141414"/><stop offset="0.36" stop-color="#2c2c2c"/><stop offset="0.5" stop-color="#4e4e4e"/><stop offset="0.65" stop-color="#7a7a7a"/><stop offset="0.8" stop-color="#b0b0b0"/><stop offset="0.96" stop-color="#eee"/><stop offset="1" stop-color="#fff"/></linearGradient><filter id="luminosity-noclip-2" x="267.3" y="-7969.66" width="66.01" height="32766" filterUnits="userSpaceOnUse" color-interpolation-filters="sRGB"><feFlood flood-color="#fff" result="bg"/><feBlend in="SourceGraphic" in2="bg"/></filter><mask id="mask-2" x="267.3" y="-7969.66" width="66.01" height="32766" maskUnits="userSpaceOnUse"><g class="cls-133"/></mask><linearGradient id="linear-gradient-3" x1="332.71" y1="203.92" x2="268.27" y2="242.32" xlink:href="#linear-gradient-2"/><linearGradient id="linear-gradient-4" x1="332.65" y1="300.51" x2="270.06" y2="263.95" xlink:href="#linear-gradient-2"/><linearGradient id="linear-gradient-5" x1="172.18" y1="281.62" x2="238.19" y2="281.62" xlink:href="#linear-gradient-2"/><linearGradient id="linear-gradient-6" x1="129.5" y1="432.68" x2="152.13" y2="395.32" gradientTransform="matrix(1.05, -0.09, -0.09, 1.15, 62.97, -109.07)" gradientUnits="userSpaceOnUse"><stop offset="0.15" stop-opacity="0"/><stop offset="0.19" stop-opacity="0.06"/><stop offset="1" stop-opacity="0.5"/></linearGradient><linearGradient id="linear-gradient-7" x1="365.5" y1="224.48" x2="379.1" y2="201.84" gradientUnits="userSpaceOnUse"><stop offset="0.26" stop-opacity="0"/><stop offset="0.3" stop-opacity="0.06"/><stop offset="1" stop-opacity="0.5"/></linearGradient><linearGradient id="linear-gradient-8" x1="309.45" y1="82.38" x2="324.75" y2="82.38" gradientUnits="userSpaceOnUse"><stop offset="0" stop-color="#4c4242"/><stop offset="1" stop-color="#342c2b"/></linearGradient><linearGradient id="linear-gradient-9" x1="320.68" y1="121.8" x2="452.89" y2="121.8" gradientUnits="userSpaceOnUse"><stop offset="0" stop-color="#5c5657"/><stop offset="1" stop-color="#4c4242"/></linearGradient><linearGradient id="linear-gradient-10" x1="354.74" y1="198.19" x2="418.61" y2="127.84" gradientUnits="userSpaceOnUse"><stop offset="0" stop-color="#beb8bb"/><stop offset="1" stop-color="#fff"/></linearGradient><linearGradient id="linear-gradient-11" x1="464.26" y1="248.51" x2="450.01" y2="149.09" xlink:href="#linear-gradient-9"/><linearGradient id="linear-gradient-12" x1="324.83" y1="113.89" x2="284.72" y2="162.63" xlink:href="#linear-gradient-9"/><linearGradient id="linear-gradient-13" x1="455.67" y1="160.04" x2="448.47" y2="270.99" xlink:href="#linear-gradient-9"/><linearGradient id="linear-gradient-14" x1="499.33" y1="-391.82" x2="584.26" y2="-391.82" gradientTransform="matrix(0.87, 0.5, 0, 1.15, -90.93, 351.15)" gradientUnits="userSpaceOnUse"><stop offset="0" stop-color="#848388"/><stop offset="0.74" stop-color="#6c6a6b"/></linearGradient><linearGradient id="linear-gradient-15" x1="103.11" y1="332.6" x2="398.07" y2="332.6" gradientUnits="userSpaceOnUse"><stop offset="0" stop-color="#383533"/><stop offset="1" stop-color="#1c1714"/></linearGradient><linearGradient id="linear-gradient-16" x1="103.25" y1="272.68" x2="398.07" y2="272.68" xlink:href="#linear-gradient-15"/><linearGradient id="linear-gradient-17" x1="0" y1="310.23" x2="105.28" y2="310.23" xlink:href="#linear-gradient-10"/><linearGradient id="linear-gradient-18" y1="281.49" x2="105.28" y2="281.49" gradientUnits="userSpaceOnUse"><stop offset="0" stop-color="#c9c8c9"/><stop offset="1" stop-color="#8c8a8b"/></linearGradient><linearGradient id="linear-gradient-19" x1="3.29" y1="253.92" x2="5.02" y2="253.92" xlink:href="#linear-gradient-18"/><linearGradient id="linear-gradient-20" x1="7.28" y1="256.21" x2="9.01" y2="256.21" xlink:href="#linear-gradient-18"/><linearGradient id="linear-gradient-21" x1="11.27" y1="258.49" x2="12.99" y2="258.49" xlink:href="#linear-gradient-18"/><radialGradient id="radial-gradient" cx="-733.58" cy="493.73" r="28.92" gradientTransform="matrix(-2.05, 0.13, 0.62, 1.61, -1454.05, -311.96)" gradientUnits="userSpaceOnUse"><stop offset="0" stop-opacity="0.5"/><stop offset="1" stop-opacity="0"/></radialGradient><linearGradient id="linear-gradient-22" x1="384.81" y1="383.64" x2="387.66" y2="383.64" gradientTransform="matrix(1, -0.03, 0.03, 1, -2.74, -31.08)" xlink:href="#linear-gradient-14"/><linearGradient id="linear-gradient-23" x1="328.61" y1="386.51" x2="334.61" y2="386.51" gradientTransform="matrix(1, -0.03, 0.03, 1, -2.74, -31.08)" xlink:href="#linear-gradient-14"/><linearGradient id="linear-gradient-24" x1="328.75" y1="385.56" x2="387.66" y2="385.56" gradientTransform="matrix(1, -0.03, 0.03, 1, -2.74, -31.08)" xlink:href="#linear-gradient-18"/><linearGradient id="linear-gradient-25" x1="-2009.94" y1="421.16" x2="-2059.41" y2="421.16" gradientTransform="matrix(-1, 0.03, 0.03, 1, -1638.86, 25.04)" xlink:href="#linear-gradient-15"/><linearGradient id="linear-gradient-26" x1="-1927.86" y1="423.95" x2="-2016.14" y2="423.95" gradientTransform="matrix(-1, 0.03, 0.03, 1, -1638.86, 25.04)" xlink:href="#linear-gradient-15"/><linearGradient id="linear-gradient-27" x1="-951.88" y1="456.34" x2="-969.04" y2="428.8" gradientTransform="matrix(-0.91, -0.02, 0.02, 0.89, -774.94, 13.89)" gradientUnits="userSpaceOnUse"><stop offset="0.24" stop-opacity="0"/><stop offset="0.28" stop-opacity="0.06"/><stop offset="1" stop-opacity="0.5"/></linearGradient><linearGradient id="linear-gradient-28" x1="95.97" y1="409.86" x2="144.07" y2="409.86" gradientUnits="userSpaceOnUse"><stop offset="0" stop-color="#3f3c3a"/><stop offset="1" stop-color="#2c2725"/></linearGradient><linearGradient id="linear-gradient-29" x1="137.65" y1="399.7" x2="101.61" y2="399.7" gradientUnits="userSpaceOnUse"><stop offset="0" stop-color="#6c6a6b"/><stop offset="1" stop-color="#4c4242"/></linearGradient><linearGradient id="linear-gradient-30" x1="95.97" y1="399.95" x2="144.07" y2="399.95" xlink:href="#linear-gradient-28"/><linearGradient id="linear-gradient-31" x1="137.65" y1="389.79" x2="101.61" y2="389.79" xlink:href="#linear-gradient-29"/><linearGradient id="linear-gradient-32" x1="106.07" y1="388.98" x2="133.97" y2="388.98" xlink:href="#linear-gradient-28"/><linearGradient id="linear-gradient-33" x1="-1001.3" y1="485.03" x2="-1020.58" y2="454.08" xlink:href="#linear-gradient-27"/><linearGradient id="linear-gradient-34" x1="135.92" y1="435.21" x2="189.95" y2="435.21" xlink:href="#linear-gradient-28"/><linearGradient id="linear-gradient-35" x1="182.73" y1="423.8" x2="142.26" y2="423.8" xlink:href="#linear-gradient-29"/><linearGradient id="linear-gradient-36" x1="135.92" y1="422.41" x2="189.95" y2="422.41" xlink:href="#linear-gradient-28"/><linearGradient id="linear-gradient-37" x1="182.73" y1="411" x2="142.26" y2="411" xlink:href="#linear-gradient-29"/><linearGradient id="linear-gradient-38" x1="135.92" y1="408.96" x2="189.95" y2="408.96" xlink:href="#linear-gradient-28"/><linearGradient id="linear-gradient-39" x1="182.73" y1="397.55" x2="142.26" y2="397.55" xlink:href="#linear-gradient-29"/><linearGradient id="linear-gradient-40" x1="147.27" y1="396.64" x2="178.6" y2="396.64" xlink:href="#linear-gradient-28"/><mask id="mask-5" x="159.38" y="23.08" width="186.08" height="308.11" maskUnits="userSpaceOnUse"><path class="cls-1" d="M318,38.91c-36.42-21-95.34-21.11-131.53-.21-18.18,10.51-27.18,24.29-27,38.08V276.69h0a33.46,33.46,0,0,0,3.32,13.6c4.14,8.74,12.18,17,24.09,23.92,36.47,21.06,95.34,21.13,131.54.23,11.73-6.74,19.64-14.88,23.73-23.51a32.67,32.67,0,0,0,3.34-14.24V76.78C345.3,63.1,336.16,49.43,318,38.91Z"/></mask><linearGradient id="linear-gradient-41" x1="159.38" y1="177.13" x2="345.46" y2="177.13" gradientUnits="userSpaceOnUse"><stop offset="0" stop-color="#fff"/><stop offset="1" stop-color="#fff"/></linearGradient><radialGradient id="radial-gradient-2" cx="206.82" cy="329.73" r="15.5" gradientTransform="translate(-117.42 -312.63) scale(1.79 1.79)" xlink:href="#radial-gradient"/><filter id="luminosity-noclip-5" x="172.18" y="202.52" width="66.01" height="41.41" filterUnits="userSpaceOnUse" color-interpolation-filters="sRGB"><feFlood flood-color="#fff" result="bg"/><feBlend in="SourceGraphic" in2="bg"/></filter><mask id="mask-6" x="172.18" y="202.52" width="66.01" height="41.41" maskUnits="userSpaceOnUse"><g class="cls-2"><path class="cls-3" d="M234.15,243.93a4.09,4.09,0,0,1-2-.53L174.2,210.05a4,4,0,0,1,4-7l57.94,33.34a4,4,0,0,1-2,7.53Z"/></g></mask><filter id="luminosity-noclip-6" x="267.3" y="202.52" width="66.01" height="41.41" filterUnits="userSpaceOnUse" color-interpolation-filters="sRGB"><feFlood flood-color="#fff" result="bg"/><feBlend in="SourceGraphic" in2="bg"/></filter><mask id="mask-7" x="267.3" y="202.52" width="66.01" height="41.41" maskUnits="userSpaceOnUse"><g class="cls-4"><path class="cls-5" d="M271.34,243.93a4,4,0,0,0,2-.53l57.94-33.35a4,4,0,1,0-4-7L269.32,236.4a4,4,0,0,0,2,7.53Z"/></g></mask><linearGradient id="linear-gradient-42" x1="218.79" y1="264.84" x2="252.62" y2="264.84" gradientUnits="userSpaceOnUse"><stop offset="0" stop-color="#9e8032"/><stop offset="0.14" stop-color="#a18336"/><stop offset="0.27" stop-color="#aa8e41"/><stop offset="0.39" stop-color="#b9a053"/><stop offset="0.51" stop-color="#cfb96d"/><stop offset="0.61" stop-color="#e6d48a"/><stop offset="0.67" stop-color="#d8c174"/><stop offset="0.75" stop-color="#c6a958"/><stop offset="0.83" stop-color="#b89743"/><stop offset="0.91" stop-color="#b18d37"/><stop offset="0.99" stop-color="#ae8933"/></linearGradient><linearGradient id="linear-gradient-43" x1="252.62" y1="264.65" x2="286.7" y2="264.65" xlink:href="#linear-gradient-42"/><linearGradient id="linear-gradient-44" x1="218.79" y1="235.57" x2="286.7" y2="235.57" gradientUnits="userSpaceOnUse"><stop offset="0" stop-color="#e6d48a"/><stop offset="0.03" stop-color="#dcc77a"/><stop offset="0.09" stop-color="#cbaf5e"/><stop offset="0.15" stop-color="#be9e49"/><stop offset="0.22" stop-color="#b7933d"/><stop offset="0.28" stop-color="#b49039"/><stop offset="0.35" stop-color="#b6933d"/><stop offset="0.41" stop-color="#bb9a48"/><stop offset="0.47" stop-color="#c4a75a"/><stop offset="0.53" stop-color="#d1b975"/><stop offset="0.59" stop-color="#e1d196"/><stop offset="0.64" stop-color="#f4edbf"/><stop offset="0.66" stop-color="#fbf7cd"/><stop offset="0.99" stop-color="#b49039"/></linearGradient><filter id="luminosity-noclip-7" x="267.3" y="260.91" width="66.01" height="41.41" filterUnits="userSpaceOnUse" color-interpolation-filters="sRGB"><feFlood flood-color="#fff" result="bg"/><feBlend in="SourceGraphic" in2="bg"/></filter><mask id="mask-8" x="267.3" y="260.91" width="66.01" height="41.41" maskUnits="userSpaceOnUse"><g class="cls-6"><path class="cls-7" d="M331.28,294.79l-57.94-33.35a4,4,0,0,0-4,7l57.94,33.34a4,4,0,0,0,2,.54,4,4,0,0,0,2-7.53Z"/></g></mask><filter id="luminosity-noclip-8" x="172.18" y="260.91" width="66.01" height="41.41" filterUnits="userSpaceOnUse" color-interpolation-filters="sRGB"><feFlood flood-color="#fff" result="bg"/><feBlend in="SourceGraphic" in2="bg"/></filter><mask id="mask-9" x="172.18" y="260.91" width="66.01" height="41.41" maskUnits="userSpaceOnUse"><g class="cls-8"><path class="cls-9" d="M176.22,302.32a4,4,0,0,0,2-.54l57.94-33.34a4,4,0,0,0-4-7L174.2,294.79a4,4,0,0,0,2,7.53Z"/></g></mask><linearGradient id="linear-gradient-45" x1="218.79" y1="245.11" x2="286.7" y2="245.11" xlink:href="#linear-gradient-44"/><linearGradient id="linear-gradient-46" x1="-1321.42" y1="296.83" x2="-1337.1" y2="271.67" xlink:href="#linear-gradient-27"/><linearGradient id="linear-gradient-47" x1="-1828.08" y1="235.03" x2="-1836.92" y2="229.27" gradientTransform="matrix(-1.32, -0.1, -1.96, 0.89, -1493.89, -95.62)" gradientUnits="userSpaceOnUse"><stop offset="0.16" stop-opacity="0"/><stop offset="0.2" stop-opacity="0.06"/><stop offset="1" stop-opacity="0.5"/></linearGradient><linearGradient id="linear-gradient-48" x1="425.83" y1="276.33" x2="474.88" y2="276.33" xlink:href="#linear-gradient-28"/><linearGradient id="linear-gradient-49" x1="474.88" y1="265.97" x2="425.83" y2="265.97" xlink:href="#linear-gradient-29"/><linearGradient id="linear-gradient-50" x1="440.75" y1="266.24" x2="466.32" y2="266.24" xlink:href="#linear-gradient-28"/><linearGradient id="linear-gradient-51" x1="425.83" y1="263.89" x2="474.88" y2="263.89" xlink:href="#linear-gradient-28"/><linearGradient id="linear-gradient-52" x1="474.88" y1="253.53" x2="425.83" y2="253.53" xlink:href="#linear-gradient-29"/><linearGradient id="linear-gradient-53" x1="440.75" y1="253.8" x2="466.32" y2="253.8" xlink:href="#linear-gradient-28"/><linearGradient id="linear-gradient-54" x1="425.83" y1="251.59" x2="474.88" y2="251.59" xlink:href="#linear-gradient-28"/><linearGradient id="linear-gradient-55" x1="474.88" y1="241.23" x2="425.83" y2="241.23" xlink:href="#linear-gradient-29"/><linearGradient id="linear-gradient-56" x1="440.75" y1="241.5" x2="466.32" y2="241.5" xlink:href="#linear-gradient-28"/><linearGradient id="linear-gradient-57" x1="450.64" y1="267.28" x2="500" y2="267.28" xlink:href="#linear-gradient-28"/><linearGradient id="linear-gradient-58" x1="452.44" y1="269.17" x2="499.65" y2="269.17" gradientTransform="translate(205.49 -206.09) rotate(30.86)" xlink:href="#linear-gradient-29"/><linearGradient id="linear-gradient-59" x1="466.69" y1="269.44" x2="485.3" y2="269.44" xlink:href="#linear-gradient-28"/><linearGradient id="linear-gradient-60" x1="-963.55" y1="226.41" x2="-987.68" y2="187.68" xlink:href="#linear-gradient-27"/><linearGradient id="linear-gradient-61" x1="93.49" y1="186.74" x2="160.12" y2="186.74" gradientUnits="userSpaceOnUse"><stop offset="0" stop-color="#6b6565"/><stop offset="1" stop-color="#4c4242"/></linearGradient><linearGradient id="linear-gradient-62" x1="105.5" y1="199.29" x2="128.52" y2="181.12" gradientUnits="userSpaceOnUse"><stop offset="0.02" stop-opacity="0"/><stop offset="0.07" stop-opacity="0.06"/><stop offset="1" stop-opacity="0.5"/></linearGradient><linearGradient id="linear-gradient-63" x1="126.62" y1="185.66" x2="126.62" y2="163.71" xlink:href="#linear-gradient-61"/><linearGradient id="linear-gradient-64" x1="115.63" y1="193.51" x2="115.63" y2="165.91" xlink:href="#linear-gradient-9"/><linearGradient id="linear-gradient-65" x1="35.01" y1="105.23" x2="203.61" y2="105.23" xlink:href="#linear-gradient-8"/><linearGradient id="linear-gradient-66" x1="31.16" y1="109.65" x2="207.48" y2="109.65" xlink:href="#linear-gradient-61"/><linearGradient id="linear-gradient-67" x1="26.38" y1="108.2" x2="206.65" y2="108.2" xlink:href="#linear-gradient-9"/><linearGradient id="linear-gradient-68" x1="272.34" y1="712.95" x2="277.36" y2="667.41" gradientTransform="matrix(0.87, -0.5, 0, 1.15, -155.36, -526.62)" gradientUnits="userSpaceOnUse"><stop offset="0" stop-color="#4c4242"/><stop offset="0.81" stop-color="#bab8b9"/></linearGradient><linearGradient id="linear-gradient-69" x1="96.84" y1="183.49" x2="96.84" y2="89.46" gradientTransform="matrix(1, 0, 0, 1, 0, 0)" xlink:href="#linear-gradient-68"/><linearGradient id="linear-gradient-70" x1="337.59" y1="647.95" x2="385.55" y2="647.95" gradientTransform="matrix(0.87, -0.5, 0, 1.15, -147.35, -486.71)" gradientUnits="userSpaceOnUse"><stop offset="0" stop-color="#4c4242"/><stop offset="0.16" stop-color="#524949"/><stop offset="0.39" stop-color="#635b5b"/><stop offset="0.66" stop-color="#807979"/><stop offset="0.96" stop-color="#a7a2a2"/><stop offset="1" stop-color="#ada9a9"/></linearGradient><linearGradient id="linear-gradient-71" x1="-931.13" y1="147.48" x2="-957.69" y2="130.17" gradientTransform="matrix(-1.05, -0.03, 0.03, 1.02, -772.92, -12.8)" xlink:href="#linear-gradient-62"/><linearGradient id="linear-gradient-72" x1="215.33" y1="149.97" x2="254.68" y2="149.97" xlink:href="#linear-gradient-28"/><linearGradient id="linear-gradient-73" x1="254.68" y1="141.66" x2="215.33" y2="141.66" xlink:href="#linear-gradient-29"/><linearGradient id="linear-gradient-74" x1="227.3" y1="141.88" x2="247.81" y2="141.88" xlink:href="#linear-gradient-28"/><linearGradient id="linear-gradient-75" x1="215.33" y1="140" x2="254.68" y2="140" xlink:href="#linear-gradient-28"/><linearGradient id="linear-gradient-76" x1="254.68" y1="131.69" x2="215.33" y2="131.69" xlink:href="#linear-gradient-29"/><linearGradient id="linear-gradient-77" x1="227.3" y1="131.91" x2="247.81" y2="131.91" xlink:href="#linear-gradient-28"/><linearGradient id="linear-gradient-78" x1="215.33" y1="130.13" x2="254.68" y2="130.13" xlink:href="#linear-gradient-28"/><linearGradient id="linear-gradient-79" x1="254.68" y1="121.82" x2="215.33" y2="121.82" xlink:href="#linear-gradient-29"/><linearGradient id="linear-gradient-80" x1="227.3" y1="122.04" x2="247.81" y2="122.04" xlink:href="#linear-gradient-28"/><linearGradient id="linear-gradient-81" x1="-1058.25" y1="181.33" x2="-1071.13" y2="160.66" xlink:href="#linear-gradient-27"/><linearGradient id="linear-gradient-82" x1="-1514.63" y1="149.92" x2="-1522.05" y2="145.08" xlink:href="#linear-gradient-47"/><linearGradient id="linear-gradient-83" x1="184.24" y1="172.65" x2="225.4" y2="172.65" xlink:href="#linear-gradient-28"/><linearGradient id="linear-gradient-84" x1="225.4" y1="163.96" x2="184.24" y2="163.96" xlink:href="#linear-gradient-29"/><linearGradient id="linear-gradient-85" x1="196.76" y1="164.18" x2="218.21" y2="164.18" xlink:href="#linear-gradient-28"/><linearGradient id="linear-gradient-86" x1="184.24" y1="162.22" x2="225.4" y2="162.22" xlink:href="#linear-gradient-28"/><linearGradient id="linear-gradient-87" x1="225.4" y1="153.52" x2="184.24" y2="153.52" xlink:href="#linear-gradient-29"/><linearGradient id="linear-gradient-88" x1="196.76" y1="153.75" x2="218.21" y2="153.75" xlink:href="#linear-gradient-28"/><linearGradient id="linear-gradient-89" x1="184.24" y1="151.89" x2="225.4" y2="151.89" xlink:href="#linear-gradient-28"/><linearGradient id="linear-gradient-90" x1="225.4" y1="143.2" x2="184.24" y2="143.2" xlink:href="#linear-gradient-29"/><linearGradient id="linear-gradient-91" x1="196.76" y1="143.43" x2="218.21" y2="143.43" xlink:href="#linear-gradient-28"/><linearGradient id="linear-gradient-92" x1="205.06" y1="165.06" x2="246.47" y2="165.06" xlink:href="#linear-gradient-28"/><linearGradient id="linear-gradient-93" x1="206.57" y1="166.65" x2="246.18" y2="166.65" gradientTransform="translate(117.54 -92.53) rotate(30.86)" xlink:href="#linear-gradient-29"/><linearGradient id="linear-gradient-94" x1="218.52" y1="166.87" x2="234.14" y2="166.87" xlink:href="#linear-gradient-28"/><linearGradient id="linear-gradient-95" x1="42.22" y1="261.66" x2="51.14" y2="246.82" gradientTransform="matrix(1, 0, 0, 1, 0, 0)" xlink:href="#linear-gradient-27"/><linearGradient id="linear-gradient-96" x1="56.8" y1="243.78" x2="65.41" y2="243.78" xlink:href="#linear-gradient-15"/><linearGradient id="linear-gradient-97" x1="49.24" y1="243.78" x2="60.36" y2="243.78" xlink:href="#linear-gradient-15"/><linearGradient id="linear-gradient-98" x1="55.66" y1="269.56" x2="64.58" y2="254.71" gradientTransform="matrix(1, 0, 0, 1, 0, 0)" xlink:href="#linear-gradient-27"/><linearGradient id="linear-gradient-99" x1="70.19" y1="246.7" x2="78.8" y2="246.7" xlink:href="#linear-gradient-15"/><linearGradient id="linear-gradient-100" x1="62.63" y1="246.7" x2="73.75" y2="246.7" xlink:href="#linear-gradient-15"/><linearGradient id="linear-gradient-101" x1="69.57" y1="277.57" x2="78.49" y2="262.72" gradientTransform="matrix(1, 0, 0, 1, 0, 0)" xlink:href="#linear-gradient-27"/><linearGradient id="linear-gradient-102" x1="84.16" y1="244.72" x2="92.76" y2="244.72" xlink:href="#linear-gradient-15"/><linearGradient id="linear-gradient-103" x1="76.59" y1="244.72" x2="87.71" y2="244.72" xlink:href="#linear-gradient-15"/></defs><title>Asset 4</title><g class="cls-10"><g id="Layer_2" data-name="Layer 2"><g id="Layer_1-2" data-name="Layer 1"><polygon class="cls-11" points="225.86 418.43 76.84 327.75 122.94 294.2 270.96 385.61 225.86 418.43"/><polygon class="cls-12" points="427.94 260.91 291.14 179.8 314.84 166.12 453.77 246 427.94 260.91"/><path class="cls-13" d="M317.75,79.59c-1.65-1-3.16-1-4.24-.42l-4.06,2.36c1.08-.63,2.58-.54,4.24.42l7,4,4.07-2.36Z"/><polygon class="cls-14" points="320.68 85.98 324.75 83.62 452.89 157.61 448.83 159.97 320.68 85.98"/><polygon class="cls-15" points="448.83 159.97 448.59 244.53 320.44 170.55 320.68 85.98 448.83 159.97"/><path class="cls-16" d="M455.45,159.09l-2.56-1.48L448.83,160l2.56,1.48a13.09,13.09,0,0,1,5.95,10.31l-.2,70.84c0,1.88-.67,3.21-1.74,3.83l4.06-2.36c1.07-.62,1.73-1.95,1.74-3.83l.2-70.85A13.09,13.09,0,0,0,455.45,159.09Z"/><path class="cls-17" d="M313.69,82c-3.3-1.91-6-.38-6,3.42l-.2,70.84a13.05,13.05,0,0,0,5.94,10.3l7,4L320.68,86Z"/><path class="cls-18" d="M451.39,161.45,448.83,160l-.24,84.56h0l2.56,1.48c3.3,1.9,6,.38,6-3.41l.2-70.84A13.09,13.09,0,0,0,451.39,161.45Z"/><path class="cls-19" d="M316.93,128.54c0,1.8-1.27,2.52-2.84,1.62a6.28,6.28,0,0,1-2.83-4.9c0-1.8,1.27-2.52,2.83-1.62A6.26,6.26,0,0,1,316.93,128.54Z"/><path class="cls-19" d="M453,215.2l-.11-.06a1.78,1.78,0,0,1-.75-1.43v-17.3c0-.55.33-.81.75-.57l.11.07a1.78,1.78,0,0,1,.75,1.43v17.3C453.77,215.19,453.44,215.44,453,215.2Z"/><polygon class="cls-20" points="420.54 210.55 347 168.09 347 121.39 420.54 163.85 420.54 210.55"/><polygon class="cls-21" points="415.04 214.2 341.5 171.73 341.5 125.03 415.04 167.5 415.04 214.2"/><polygon class="cls-22" points="351.96 166.81 349.31 165.28 349.31 146.25 351.96 147.78 351.96 166.81"/><polygon class="cls-19" points="357.14 169.81 354.49 168.28 354.49 162.71 357.14 164.24 357.14 169.81"/><polygon class="cls-22" points="362.32 172.8 359.67 171.27 359.67 156.16 362.32 157.69 362.32 172.8"/><polygon class="cls-19" points="367.51 175.79 364.86 174.26 364.86 162.97 367.51 164.5 367.51 175.79"/><polygon class="cls-19" points="372.69 178.78 370.04 177.25 370.04 157.37 372.69 158.9 372.69 178.78"/><path class="cls-22" d="M397.34,172.3c0,2.37-1.68,3.33-3.75,2.13a8.25,8.25,0,0,1-3.74-6.45c0-2.38,1.68-3.33,3.74-2.14A8.27,8.27,0,0,1,397.34,172.3Z"/><path class="cls-19" d="M396.65,184.13l-15.31-8.85a1.67,1.67,0,0,1-.71-1.34h0c0-.51.32-.75.71-.53l15.31,8.85a1.66,1.66,0,0,1,.7,1.34h0C397.35,184.11,397,184.35,396.65,184.13Z"/><path class="cls-19" d="M405.85,189.44l-6.16-3.56a1.66,1.66,0,0,1-.7-1.34h0c0-.52.31-.75.7-.53l6.16,3.56a1.66,1.66,0,0,1,.7,1.34h0C406.55,189.42,406.24,189.66,405.85,189.44Z"/><path class="cls-19" d="M396.65,191.24l-15.31-8.84a1.67,1.67,0,0,1-.71-1.34h0c0-.52.32-.75.71-.53l15.31,8.84a1.69,1.69,0,0,1,.7,1.34h0C397.35,191.23,397,191.47,396.65,191.24Z"/><path class="cls-19" d="M405.85,196.55,399.69,193a1.69,1.69,0,0,1-.7-1.34h0c0-.52.31-.76.7-.53l6.16,3.55a1.69,1.69,0,0,1,.7,1.34h0C406.55,196.54,406.24,196.78,405.85,196.55Z"/><path class="cls-19" d="M390.53,182.4l15.32,8.84a1.69,1.69,0,0,1,.7,1.34h0c0,.52-.31.76-.7.53l-15.32-8.84a1.66,1.66,0,0,1-.7-1.34h0C389.83,182.41,390.14,182.18,390.53,182.4Z"/><path class="cls-19" d="M381.34,177.09l6.15,3.56a1.67,1.67,0,0,1,.71,1.34h0c0,.51-.32.75-.71.53L381.34,179a1.67,1.67,0,0,1-.71-1.34h0C380.63,177.1,381,176.87,381.34,177.09Z"/><g class="cls-10"><path class="cls-23" d="M398,273.39c0,.24,0,.47-.08.7s-.09.38-.14.57-.11.44-.19.66-.15.36-.23.54-.2.46-.32.68-.2.33-.3.5-.33.52-.52.77l-.35.45c-.29.34-.6.68-.94,1-.13.12-.24.24-.37.35s-.45.38-.68.57-.4.33-.62.48-.53.36-.8.54l-.83.54L266.77,354.31a24.43,24.43,0,0,1-3.09,1.47l-.87.33c-.67.24-1.37.43-2.07.63s-1.46.4-2.22.55-1.77.35-2.68.46l-.66.1c-1.23.13-2.47.19-3.72.2h-.59a34.43,34.43,0,0,1-3.67-.2l-.55-.06c-1.21-.15-2.4-.35-3.56-.61l-.63-.16a29.59,29.59,0,0,1-3.07-.93l-.54-.18a23.88,23.88,0,0,1-3.38-1.6L109.78,281.75c-4.36-2.53-6.54-5.83-6.53-9.13l-.14,34.52c0,3.3,2.17,6.61,6.54,9.13l125.69,72.57a24.22,24.22,0,0,0,3.2,1.53l.17.06c.18.07.37.12.55.18.64.24,1.29.48,2,.67.36.1.73.18,1.1.27.21.05.42.11.63.15l.57.14c.73.15,1.46.28,2.2.39l.79.08.54.07.82.09c.72.06,1.44.09,2.17.11h2.27c.82,0,1.63-.08,2.45-.16l.28,0c.22,0,.43-.06.65-.09.63-.08,1.27-.15,1.89-.26.27,0,.52-.15.8-.2.75-.16,1.48-.35,2.21-.56.39-.1.8-.17,1.18-.29s.6-.23.9-.34.58-.21.86-.33a23.09,23.09,0,0,0,3.09-1.46L391.5,316.27l.27-.16c.21-.12.38-.26.58-.38s.54-.35.79-.53.42-.33.62-.49.47-.37.68-.56l.13-.11c.09-.08.15-.17.23-.25a11,11,0,0,0,.94-1c.06-.07.15-.14.21-.22s.09-.15.15-.23c.19-.25.36-.51.52-.77s.16-.21.22-.32l.08-.17c.12-.23.22-.46.32-.69s.14-.26.19-.4a.74.74,0,0,1,0-.14c.07-.22.13-.44.19-.66s.09-.3.12-.45,0-.08,0-.12c0-.23.06-.46.08-.69s.05-.31.05-.46v-.19l.14-34.53C398.07,273,398,273.18,398,273.39Z"/><path class="cls-24" d="M391.54,263.62c8.67,5,8.7,13.13.1,18.13L266.77,354.31c-8.62,5-22.62,5-31.3,0L109.78,281.75c-8.67-5-8.72-13.12-.1-18.13l124.87-72.57c8.61-5,22.62-5,31.3,0Z"/></g><g class="cls-25"><path class="cls-26" d="M332.14,273.2l-71-41c-4.9-2.83-12.82-2.83-17.69,0l-70.57,41c-4.87,2.83-4.84,7.41.06,10.25l71,41c4.91,2.83,12.82,2.83,17.69,0l70.57-41C337.06,280.62,337.05,276,332.14,273.2Z"/><path class="cls-27" d="M245.71,322.42c-.28,0-57.31-32.88-57.36-32.91-3.92-2.26-16.24-13-12.34-15.29l68.65-39.9c3.93-2.28,10.46-2.35,14.68-.09.28,0,57.31,32.87,57.37,32.9,3.92,2.27,16.23,13,12.34,15.3l-68.66,39.9C256.45,324.61,249.94,324.68,245.71,322.42Z"/><path class="cls-28" d="M247.49,320.38c-.57,0-43.59-24.74-43.7-24.8-2.94-1.7-27.55-18.64-24.62-20.34l66.73-38.79c3-1.74,8.13-1.88,11.67-.18.56,0,43.59,24.74,43.7,24.8,2.94,1.7,27.54,18.65,24.62,20.34l-66.74,38.78C256.15,321.94,251,322.07,247.49,320.38Z"/><path class="cls-29" d="M249.26,318.33c-.84,0-29.87-16.59-30-16.68-2-1.14-38.86-24.26-36.91-25.4l64.82-37.66c2.07-1.2,5.81-1.41,8.66-.28.84,0,29.86,16.6,30,16.69,2,1.13,38.85,24.26,36.9,25.39l-64.82,37.67A11,11,0,0,1,249.26,318.33Z"/><path class="cls-30" d="M251,316.29c-1.12,0-16.14-8.45-16.36-8.58-1-.56-50.17-29.87-49.19-30.44l62.9-36.55a8.44,8.44,0,0,1,5.65-.37c1.12,0,16.14,8.46,16.36,8.58,1,.57,50.16,29.88,49.19,30.45l-62.9,36.55A8.39,8.39,0,0,1,251,316.29Z"/><path class="cls-19" d="M252.8,314.25a6.69,6.69,0,0,1-2.69-.47l-61.47-35.49,61-35.44a6.38,6.38,0,0,1,2.64-.45,6.51,6.51,0,0,1,2.69.47l61.47,35.49-61,35.44A6.62,6.62,0,0,1,252.8,314.25Z"/></g><path class="cls-31" d="M391.64,278.09,266.77,350.66c-8.62,5-22.62,5-31.3,0L109.78,278.09c-3.54-2-5.62-4.62-6.28-7.28-1,3.87,1.12,7.95,6.28,10.94l125.69,72.56c8.68,5,22.68,5,31.3,0l124.87-72.57c5.08-2.95,7.13-7,6.18-10.85C397.16,273.53,395.12,276.07,391.64,278.09Z"/><polygon class="cls-32" points="0 312.48 0 247.14 105.28 307.98 105.28 373.32 0 312.48"/><polygon class="cls-33" points="0 247.14 0 255.01 105.28 315.85 105.28 307.98 0 247.14"/><g class="cls-34"><path class="cls-35" d="M4.16,252.93c-.48-.28-.86-.05-.87.49a1.91,1.91,0,0,0,.86,1.49c.48.28.87.06.87-.49a1.88,1.88,0,0,0-.86-1.49"/><path class="cls-36" d="M8.15,255.21c-.48-.27-.87-.05-.87.5a1.91,1.91,0,0,0,.86,1.49c.48.27.87.05.87-.5a1.94,1.94,0,0,0-.86-1.49"/><path class="cls-37" d="M12.13,257.5c-.47-.28-.86-.06-.86.49a1.88,1.88,0,0,0,.86,1.49c.47.28.86,0,.86-.49a1.88,1.88,0,0,0-.86-1.49"/></g><polygon class="cls-22" points="41.63 294.5 41.63 299.46 6.66 279.25 6.66 274.29 41.63 294.5"/><polygon class="cls-22" points="41.63 304.24 41.63 305.51 6.66 285.3 6.66 284.02 41.63 304.24"/><polygon class="cls-22" points="41.63 307.45 41.63 308.73 6.66 288.52 6.66 287.24 41.63 307.45"/><polygon class="cls-22" points="41.63 310.67 41.63 311.94 6.66 291.73 6.66 290.46 41.63 310.67"/><polygon class="cls-22" points="41.63 313.89 41.63 315.16 6.66 294.95 6.66 293.68 41.63 313.89"/><polygon class="cls-22" points="41.63 317.1 41.63 318.38 6.66 298.17 6.66 296.89 41.63 317.1"/><polygon class="cls-22" points="41.63 320.32 41.63 321.6 6.66 301.38 6.66 300.11 41.63 320.32"/><g class="cls-38"><path class="cls-39" d="M94.17,356.59l-2.25-1.3v-2.65l2.25,1.3v2.65m-2.29-1.33L89.62,354v-2.65l2.25,1.3v2.65m-2.3-1.32-2.25-1.3V350l2.25,1.3v2.65m-2.29-1.32L85,351.31v-2.65l2.25,1.3v2.66M85,351.29,82.74,350v-2.65l2.25,1.3v2.65M82.7,350l-2.25-1.3V346l2.25,1.3V350m-2.3-1.33-2.26-1.31v-2.65L80.41,346v2.65m-2.29-1.32L75.84,346v-2.66l2.27,1.31v2.66M75.81,346l-2.26-1.31V342l2.26,1.31V346m-2.29-1.32-2.27-1.31v-2.65l2.27,1.3v2.66m-2.3-1.33L69,342v-2.65l2.26,1.31v2.65M68.93,342l-2.27-1.31v-2.65l2.27,1.3V342m-2.29-1.33-2.27-1.31v-2.65L66.64,338v2.65m-2.3-1.32-2.27-1.31v-2.65l2.27,1.31v2.65M62.05,338l-2.27-1.31v-2.65l2.26,1.31V338m-2.3-1.32-2.26-1.31v-2.65l2.27,1.31v2.65m-2.29-1.33-2.27-1.3v-2.66l2.26,1.31v2.65m-2.31-1.33-2.25-1.3v-2.65l2.26,1.3v2.65m-2.3-1.32-2.25-1.3v-2.66l2.25,1.3v2.66m41.33,21.15-2.25-1.3v-2.65l2.26,1.29v2.66m-2.3-1.33-2.25-1.3v-2.65l2.25,1.3v2.65m-2.29-1.32-2.25-1.3v-2.65l2.26,1.3v2.65m-2.3-1.33L85,348.61V346l2.25,1.3v2.65M85,348.59l-2.25-1.3v-2.65l2.25,1.3v2.65m-2.3-1.33L80.45,346v-2.65l2.25,1.3v2.65m-2.29-1.32-2.27-1.31V342l2.27,1.31v2.65m-2.29-1.33-2.27-1.3v-2.66L78.12,342v2.65m-2.3-1.32L73.56,342v-2.65l2.27,1.31v2.65M73.53,342l-2.27-1.3V338l2.26,1.31V342m-2.3-1.32L69,339.33v-2.65L71.24,338v2.65m-2.29-1.32L66.67,338v-2.66L69,336.66v2.66M66.64,338l-2.26-1.31V334l2.27,1.31V338m-2.29-1.32-2.27-1.31V332.7L64.36,334v2.66m-2.3-1.33L59.79,334v-2.65l2.26,1.31v2.65M59.76,334l-2.27-1.31v-2.65l2.27,1.3V334m-2.3-1.33-2.26-1.31v-2.65L57.47,330v2.65m-2.3-1.33-2.26-1.3v-2.65l2.25,1.3v2.65M52.86,330l-2.25-1.3v-2.65l2.25,1.3V330m41.33,21.16-2.26-1.3v-2.66l2.25,1.3v2.66m-2.3-1.33-2.25-1.3v-2.65l2.25,1.3v2.65m-2.29-1.32-2.26-1.3v-2.66l2.25,1.3v2.66m-2.3-1.33-2.25-1.3v-2.65l2.25,1.3v2.65M85,345.89l-2.25-1.3v-2.66l2.25,1.3v2.66m-2.3-1.33-2.25-1.3v-2.65l2.25,1.3v2.65m-2.29-1.32-2.27-1.31v-2.65l2.27,1.3v2.66m-2.3-1.33-2.26-1.31V338l2.26,1.31v2.65m-2.29-1.32-2.27-1.31v-2.65l2.27,1.3v2.66m-2.3-1.33L71.27,338V335.3l2.26,1.31v2.65m-2.29-1.32L69,336.63V334l2.27,1.31v2.65M69,336.61l-2.27-1.3v-2.66L69,334v2.65m-2.3-1.32L64.38,334v-2.65l2.27,1.31v2.65M64.36,334l-2.27-1.3V330l2.26,1.31V334m-2.3-1.32-2.26-1.31v-2.65L62.07,330v2.65m-2.29-1.33L57.5,330v-2.66l2.26,1.31v2.65M57.47,330l-2.26-1.31V326l2.27,1.31V330m-2.31-1.33-2.25-1.3V324.7l2.25,1.3v2.66m-2.29-1.33L50.62,326v-2.65l2.26,1.3v2.65m41.32,21.15-2.25-1.3v-2.65l2.25,1.3v2.65m-2.29-1.32-2.25-1.3v-2.65l2.26,1.3v2.65m-2.3-1.32-2.25-1.31v-2.65l2.25,1.3v2.66m-2.29-1.33-2.25-1.3v-2.65l2.25,1.3v2.65M85,343.19l-2.25-1.3v-2.66l2.25,1.3v2.66m-2.29-1.33-2.25-1.3v-2.65l2.25,1.3v2.65m-2.29-1.32-2.27-1.31v-2.66l2.26,1.31v2.66m-2.3-1.33-2.26-1.31v-2.65l2.27,1.31v2.65m-2.29-1.32-2.27-1.31v-2.65l2.26,1.3v2.66m-2.3-1.33-2.26-1.31V332.6l2.27,1.31v2.65m-2.29-1.32L69,333.93v-2.65l2.26,1.3v2.66M69,333.91l-2.26-1.31V330L69,331.26v2.65m-2.29-1.32-2.27-1.31v-2.65l2.27,1.3v2.66m-2.3-1.33L62.1,330V327.3l2.26,1.31v2.65m-2.29-1.32-2.27-1.31V326l2.27,1.31v2.65m-2.3-1.33-2.26-1.31v-2.65L59.78,326v2.65m-2.29-1.32L55.21,326v-2.65l2.27,1.31v2.65M55.17,326l-2.25-1.3V322l2.25,1.3V326m-2.29-1.33-2.26-1.3v-2.65l2.25,1.3v2.65M94.2,345.78,92,344.48v-2.65l2.25,1.3v2.65m-2.29-1.32-2.26-1.3V340.5l2.25,1.31v2.65m-2.3-1.33-2.25-1.3v-2.65l2.25,1.3v2.65m-2.29-1.32-2.25-1.3v-2.65l2.25,1.3v2.65M85,340.48l-2.25-1.3v-2.65l2.25,1.3v2.65m-2.29-1.32-2.25-1.3v-2.65l2.26,1.3v2.65m-2.3-1.33-2.26-1.3v-2.66l2.27,1.31v2.65m-2.29-1.32-2.27-1.31v-2.65l2.27,1.31v2.65m-2.3-1.33-2.26-1.3v-2.66l2.26,1.31v2.65m-2.29-1.32-2.27-1.31V329.9l2.27,1.31v2.65m-2.29-1.32L69,331.23v-2.66l2.26,1.31v2.66M69,331.21l-2.27-1.31v-2.65L69,328.56v2.65m-2.29-1.32-2.27-1.31v-2.66l2.26,1.31v2.66m-2.3-1.33-2.26-1.31V324.6l2.27,1.31v2.65m-2.29-1.32-2.27-1.31v-2.66l2.26,1.31v2.66m-2.3-1.33-2.26-1.31V322l2.27,1.31v2.65m-2.29-1.32-2.27-1.31v-2.65l2.27,1.3v2.66m-2.31-1.34L52.93,322V319.3l2.26,1.3v2.65m-2.3-1.32-2.25-1.3V318l2.25,1.3v2.65m41.33,21.15L92,341.78v-2.65l2.26,1.3v2.65m-2.3-1.32-2.25-1.3V337.8l2.25,1.3v2.66m-2.29-1.33-2.25-1.3v-2.65l2.26,1.3v2.65m-2.29-1.32-2.26-1.3v-2.66l2.25,1.3v2.66M85,337.78l-2.25-1.3v-2.65l2.25,1.3v2.65m-2.29-1.32-2.26-1.3V332.5l2.25,1.3v2.66m-2.3-1.33-2.27-1.31v-2.65l2.27,1.31v2.65m-2.29-1.32-2.27-1.31v-2.65l2.26,1.3v2.66m-2.3-1.33-2.26-1.31v-2.65l2.27,1.31v2.65m-2.29-1.32-2.27-1.31V327.2l2.27,1.31v2.65m-2.3-1.33L69,328.53v-2.66l2.27,1.31v2.65M69,328.51,66.7,327.2v-2.65L69,325.86v2.65m-2.3-1.33-2.26-1.3v-2.66l2.27,1.31v2.65m-2.29-1.32-2.27-1.31V321.9l2.27,1.31v2.65m-2.3-1.33-2.26-1.3v-2.66l2.26,1.31v2.65m-2.29-1.32-2.27-1.31v-2.65l2.27,1.31v2.65m-2.29-1.33-2.27-1.3v-2.66l2.26,1.31v2.65m-2.31-1.33-2.26-1.3V316.6l2.25,1.3v2.65m-2.3-1.32-2.25-1.3v-2.66l2.25,1.3v2.66m41.33,21.15L92,339.08v-2.65l2.25,1.3v2.65m-2.3-1.33-2.25-1.3V335.1l2.25,1.3v2.65m-2.29-1.32-2.26-1.3v-2.65l2.25,1.3v2.65m-2.3-1.32-2.25-1.31v-2.65l2.25,1.3v2.66M85,335.08l-2.25-1.3v-2.65l2.26,1.3v2.65m-2.3-1.32-2.25-1.3V329.8l2.25,1.3v2.66m-2.29-1.33-2.27-1.31v-2.65l2.27,1.31v2.65m-2.3-1.32-2.26-1.31v-2.66l2.26,1.31v2.66m-2.29-1.33-2.27-1.31v-2.65l2.27,1.31v2.65m-2.29-1.32-2.27-1.31V324.5l2.26,1.3v2.66m-2.3-1.33L69,325.82v-2.65l2.27,1.31v2.65M69,325.81l-2.27-1.31v-2.65l2.26,1.3v2.66m-2.3-1.33-2.27-1.31v-2.65l2.27,1.31v2.65m-2.29-1.32-2.27-1.31V319.2l2.26,1.3v2.66m-2.3-1.33-2.26-1.31v-2.65l2.27,1.31v2.65m-2.29-1.32-2.27-1.31v-2.65l2.27,1.31v2.65m-2.3-1.33-2.26-1.31v-2.65l2.27,1.31v2.65m-2.31-1.33-2.25-1.3V313.9l2.25,1.3v2.65m-2.29-1.32-2.25-1.3v-2.66l2.25,1.3v2.66m41.32,21.15L92,336.38v-2.66l2.25,1.3v2.66m-2.29-1.33-2.25-1.3V332.4l2.26,1.3v2.65M89.63,335l-2.25-1.3v-2.66l2.25,1.31V335m-2.29-1.33-2.25-1.3v-2.65l2.25,1.3v2.65m-2.29-1.32-2.26-1.3v-2.65l2.25,1.3v2.65m-2.3-1.33-2.25-1.3V327.1l2.25,1.3v2.65m-2.29-1.32-2.27-1.31v-2.65l2.26,1.31v2.65m-2.3-1.33-2.26-1.3v-2.66l2.27,1.31v2.65m-2.29-1.32-2.27-1.31v-2.65l2.27,1.31v2.65m-2.3-1.33-2.26-1.3v-2.66l2.27,1.31v2.65m-2.29-1.32L69,323.12v-2.65l2.27,1.31v2.65M69,323.11l-2.26-1.31v-2.66L69,320.45v2.66m-2.29-1.33-2.27-1.31v-2.65l2.27,1.31v2.65m-2.3-1.32-2.26-1.31v-2.66l2.26,1.31v2.66m-2.29-1.33-2.27-1.31v-2.65l2.27,1.31v2.65m-2.29-1.32-2.27-1.31v-2.66l2.26,1.31v2.66m-2.3-1.33-2.27-1.31v-2.65l2.27,1.31v2.65m-2.31-1.33L53,313.85V311.2l2.25,1.3v2.65m-2.29-1.33-2.25-1.3v-2.65l2.26,1.3v2.65M94.23,335,92,333.68V331l2.25,1.3V335m-2.29-1.33-2.26-1.3V329.7l2.25,1.3v2.65m-2.3-1.32L87.39,331v-2.66l2.25,1.3v2.66M87.35,331l-2.25-1.3v-2.65l2.26,1.3V331m-2.3-1.32-2.25-1.3v-2.66l2.25,1.3v2.66m-2.29-1.33-2.25-1.3V324.4l2.26,1.3v2.65M80.46,327l-2.26-1.31v-2.65l2.26,1.3V327m-2.29-1.33-2.27-1.31v-2.65l2.27,1.31v2.65m-2.29-1.32-2.27-1.31v-2.65l2.26,1.3v2.66m-2.3-1.33-2.27-1.31v-2.65l2.27,1.31v2.65m-2.29-1.32L69,320.42v-2.65l2.26,1.31v2.65M69,320.4l-2.26-1.31v-2.65L69,317.75v2.65m-2.29-1.32-2.27-1.31v-2.65l2.26,1.31v2.65m-2.3-1.33-2.26-1.3v-2.66l2.27,1.31v2.65m-2.29-1.32-2.27-1.31v-2.65l2.27,1.31v2.65m-2.3-1.33-2.26-1.3v-2.66l2.27,1.31v2.65m-2.29-1.32-2.27-1.31v-2.65l2.27,1.31v2.65m-2.31-1.33L53,311.15v-2.66l2.25,1.3v2.66m-2.29-1.33-2.26-1.3v-2.65l2.25,1.3v2.65m41.32,21.15L92,331v-2.65l2.26,1.3v2.65M91.94,331l-2.25-1.3V327L92,328.3V331m-2.29-1.33-2.25-1.3v-2.65l2.25,1.3v2.65m-2.29-1.32L85.1,327v-2.65l2.25,1.3v2.65M85.06,327l-2.25-1.31V323l2.25,1.3V327m-2.29-1.33-2.26-1.3V321.7l2.25,1.3v2.65m-2.3-1.32L78.21,323v-2.66l2.27,1.31v2.66M78.18,323l-2.27-1.31V319l2.26,1.31V323m-2.3-1.32-2.26-1.31v-2.66L75.89,319v2.66m-2.29-1.33L71.32,319v-2.65l2.27,1.31v2.65M71.29,319,69,317.72v-2.65l2.26,1.3V319M69,317.7l-2.27-1.31v-2.65L69,315.05v2.65m-2.3-1.32-2.26-1.31v-2.65l2.26,1.3v2.66m-2.29-1.33-2.27-1.31v-2.65l2.27,1.31v2.65m-2.29-1.32-2.27-1.31v-2.65l2.26,1.3v2.66m-2.3-1.33-2.27-1.31v-2.65l2.27,1.31v2.65m-2.29-1.32-2.27-1.31v-2.65l2.26,1.3v2.66m-2.31-1.34L53,308.44v-2.65l2.25,1.3v2.65m-2.3-1.32-2.25-1.3v-2.65l2.25,1.3v2.65m41.33,21.15L92,328.27v-2.65l2.25,1.3v2.65M92,328.25,89.7,327v-2.66l2.25,1.3v2.66m-2.29-1.33-2.25-1.3V323l2.26,1.3v2.65m-2.3-1.32-2.25-1.3v-2.66L87.37,323v2.65m-2.29-1.33L82.82,323v-2.65l2.26,1.3v2.65M82.77,323l-2.25-1.3V319l2.25,1.3V323m-2.29-1.33-2.27-1.3v-2.66L80.49,319v2.65m-2.3-1.32L75.92,319v-2.65l2.26,1.31v2.65M75.89,319l-2.27-1.3V315l2.27,1.31V319m-2.29-1.32-2.27-1.31v-2.65L73.6,315v2.65m-2.3-1.33L69,315v-2.66l2.27,1.31v2.65M69,315l-2.27-1.31V311L69,312.35V315m-2.3-1.32-2.26-1.31v-2.66L66.72,311v2.66m-2.29-1.33L62.15,311v-2.65l2.27,1.31v2.65M62.12,311l-2.26-1.31v-2.66l2.27,1.31V311m-2.29-1.33-2.27-1.31v-2.65l2.27,1.31v2.65m-2.3-1.32-2.26-1.31v-2.66l2.26,1.31v2.66M55.22,307,53,305.74v-2.65l2.25,1.3V307m-2.29-1.32-2.25-1.3v-2.65l2.25,1.3v2.65m41.32,21.15L92,325.57v-2.65l2.25,1.3v2.65M92,325.55l-2.25-1.3v-2.66l2.25,1.3v2.66m-2.29-1.33-2.26-1.3v-2.65l2.25,1.3v2.65m-2.3-1.32-2.25-1.3v-2.66l2.25,1.3v2.66m-2.29-1.33-2.26-1.3v-2.65l2.25,1.3v2.65m-2.3-1.32L80.53,319v-2.66l2.25,1.3v2.66m-2.29-1.33-2.27-1.31V315l2.26,1.31v2.65m-2.3-1.32-2.26-1.31v-2.65l2.27,1.3v2.66m-2.29-1.33L73.63,315v-2.65l2.27,1.31v2.65M73.6,315l-2.26-1.31V311l2.27,1.3V315m-2.29-1.33L69,312.31v-2.65L71.32,311v2.65M69,312.3,66.75,311v-2.65L69,309.65v2.65M66.72,311l-2.27-1.31V307l2.27,1.31V311m-2.29-1.32-2.27-1.31v-2.65L64.43,307v2.65m-2.3-1.33L59.86,307v-2.66l2.27,1.31v2.65M59.84,307l-2.27-1.31V303l2.26,1.31V307m-2.3-1.33-2.26-1.3v-2.66L57.55,303v2.65m-2.31-1.33L53,303v-2.65l2.25,1.3v2.65M52.94,303l-2.25-1.3v-2.66l2.26,1.3V303m-4.65-5.4v.05L50.65,299v2.65l-2.36-1.36v.05l2.36,1.36v2.65L48.27,303v.05l2.37,1.36v2.66l-2.37-1.37v0l2.37,1.36v2.66l-2.36-1.37v.05l2.36,1.37v2.65l-2.36-1.37v.05l2.36,1.37v2.65l-2.37-1.36v0l2.37,1.37v2.65l-2.37-1.36v0L50.6,318v2.65l-2.37-1.36v.05l2.37,1.36v2.66l-2.36-1.37V322l2.36,1.36V326l-2.36-1.37v.05l2.36,1.37v2.65l-2.37-1.37v.05l2.37,1.37v2.65l-2.37-1.36v0l48.23,27.85v-.05l-2.21-1.28V354l2.21,1.28v-.05l-2.21-1.28v-2.65l2.21,1.28v-.05l-2.21-1.28v-2.65l2.21,1.27v0l-2.21-1.28v-2.65l2.21,1.27v-.05l-2.21-1.27v-2.66l2.21,1.28v-.05l-2.21-1.27v-2.66l2.21,1.28v-.05l-2.21-1.28v-2.65L96.48,339v0l-2.21-1.28v-2.65l2.21,1.28v-.05L94.27,335v-2.65l2.21,1.27v-.05l-2.21-1.27v-2.65l2.21,1.27v-.05l-2.21-1.27v-2.66l2.21,1.28v-.05L94.3,326.9v-2.66l2.21,1.28v0L48.29,297.62"/></g><path class="cls-22" d="M75.82,323.18c3.53,2,3.46,20.86,5.5,22s1.12-7.85,3.57-7.86a1.44,1.44,0,0,1,.7.19c2.32,1.34,3.26,9.14,4.1,11.53,2,5.43,4.35,7.65,4.35,7.65L50.6,331.64c5.08,1.21,3.71-16.69,6.56-15.05,2.32,1.34,2.45,14.44,4.42,15.57a.59.59,0,0,0,.34.08c2.3-.26,2.11-8.18,4.47-6.81s2.65,7.64,4.53,8.84l0,0c1.86,1.07,2.26-12.62,4.87-11.11"/><path class="cls-40" d="M309,416l-6-2c-21.13-7-24.38-21.41-7.28-32.21l47.5-30,82.45,27.28-47.5,30C361.12,419.93,330.14,423,309,416Z"/><polygon class="cls-41" points="397.56 330.47 397.92 345.02 395.3 347.7 394.94 333.16 397.56 330.47"/><polygon class="cls-42" points="344.74 338.46 345.11 353.01 339.12 349.2 338.75 334.66 344.74 338.46"/><g class="cls-43"><path class="cls-19" d="M344.74,338.46l27.8,17.66-38.6-10.36A36.07,36.07,0,0,1,344.74,338.46Z"/></g><path class="cls-22" d="M394.93,333.16a51.9,51.9,0,0,1,14.38,6.06,26,26,0,0,1,8.78,8.64l-45.55,8.26Z"/><path class="cls-44" d="M397.56,330.47l-2.63,2.69-22.39,23-27.8-17.66-6-3.8a76.94,76.94,0,0,1,18.3-5.59,97.79,97.79,0,0,1,20.64-1.48A89.22,89.22,0,0,1,397.56,330.47Z"/><path class="cls-45" d="M425.69,356c0,.15,0,.31,0,.47-.05.48-.1,1-.19,1.45s-.18.89-.3,1.33c0,.13-.08.27-.12.4-.09.3-.18.61-.29.91s-.13.35-.2.52-.21.53-.33.8-.17.37-.26.55l-.38.76c-.11.2-.24.41-.36.62s-.27.47-.42.7l-.42.63c-.15.22-.31.45-.48.67s-.39.51-.59.77l-.49.61c-.22.26-.45.51-.68.77l-.69.74c-.46.47-1,.94-1.45,1.39l-.51.44c-.35.31-.7.61-1.07.9-.22.19-.46.36-.69.54l-.87.66-.76.54c-.31.21-.61.42-.93.62s-.53.34-.8.51l-1,.6-.84.48c-.34.2-.68.38-1,.57l-.78.42c-.8.41-1.61.81-2.44,1.19-.64.3-1.29.58-1.95.86l-.66.26c-.45.18-.9.37-1.36.54l-.79.29-1.29.47-.85.28-1.18.38-1.31.4-1.08.31-1.35.37-1.1.28-1.38.32-1.12.26-1.43.29-1.43.28.36,14.55.62-.12.81-.16c.48-.1,1-.19,1.43-.3l1.12-.25,1.38-.32,1.11-.29,1.34-.36,1.09-.31,1.3-.4.55-.17.63-.21.85-.29,1.29-.46.79-.29,1.37-.54.65-.27c.66-.27,1.31-.56,1.95-.85.84-.38,1.65-.79,2.44-1.2a2.8,2.8,0,0,0,.3-.15c.17-.08.33-.18.49-.26l1-.57.84-.49,1-.59.8-.51.92-.63c.26-.17.51-.35.76-.53l.87-.66.48-.36.22-.18c.36-.29.72-.6,1.06-.9.17-.15.35-.29.51-.44.5-.45,1-.92,1.45-1.39l.29-.3.4-.45.68-.76.49-.62c.21-.25.41-.5.6-.76l.17-.22c.11-.15.2-.31.3-.46s.29-.41.42-.62.29-.47.42-.71.25-.41.36-.62l.11-.19c.1-.19.18-.38.27-.56l.27-.55c.11-.27.22-.54.32-.81s.14-.34.2-.51a1,1,0,0,0,0-.1c.1-.27.17-.54.25-.81s.09-.27.12-.4c.12-.44.22-.87.3-1.31v0A14.58,14.58,0,0,0,426,371c0-.15,0-.31,0-.46s0-.47,0-.7,0-.35,0-.52l-.36-14.55C425.73,355.22,425.71,355.62,425.69,356Z"/><path class="cls-46" d="M423.42,346.9A16.16,16.16,0,0,1,425.48,358a20.87,20.87,0,0,1-6,10.78,43.54,43.54,0,0,1-13.14,8.86,76.78,76.78,0,0,1-18.28,5.59l-15.5-27.05,45.54-8.26Z"/><path class="cls-20" d="M372.54,356.12l15.51,27.06,3.1,5.41a117.46,117.46,0,0,1-24.79,1.77,106.66,106.66,0,0,1-23.83-3.45,69.72,69.72,0,0,1-19.27-8.13c-5.36-3.41-9.33-7.35-11.75-11.58A19.35,19.35,0,0,1,309,353.93c.78-4.37,3.13-8.75,7.2-12.93Z"/><path class="cls-47" d="M388.21,403.68q1.67-.26,3.3-.54l-.36-14.55q-1.63.3-3.3.54l-1.08.15c-.75.11-1.51.21-2.27.3l-1.38.16-1.79.18-1.44.12-1.81.13c-.5,0-1,.07-1.52.09l-1.48.07-1.62.05-1.49,0h-2.75l-2.86-.06c-.7,0-1.41-.06-2.11-.1l-1.25-.07-1.75-.13c-.39,0-.79-.05-1.18-.09l-1.86-.19-1.06-.11c-.78-.09-1.56-.19-2.33-.3l-.58-.07c-1-.15-2-.3-2.95-.47h0c-1-.16-1.93-.34-2.89-.54l-1.89-.41-1.05-.23c-1-.23-1.94-.47-2.9-.73s-1.75-.49-2.61-.75l-.54-.16c-.69-.22-1.36-.43-2-.66l-.47-.15c-.77-.27-1.52-.54-2.26-.82l-.47-.19c-.65-.25-1.29-.5-1.92-.77l-.36-.14c-.7-.3-1.38-.61-2.05-.92l-.47-.22-1.81-.9-.2-.1-1.87-1-.43-.25c-.61-.36-1.2-.71-1.78-1.08-5.36-3.41-9.33-7.35-11.75-11.58a21.18,21.18,0,0,1-2-4.68,18.57,18.57,0,0,1-.76-4.83h0l.36,14.55a20,20,0,0,0,2.77,9.5c2.42,4.23,6.39,8.18,11.75,11.59.58.37,1.18.72,1.78,1.08l.43.24c.61.35,1.23.69,1.87,1l.2.11c.59.3,1.2.6,1.82.89l.46.22c.67.32,1.36.62,2.06.92l.35.15c.63.26,1.27.52,1.92.77l.47.19.3.11c.64.24,1.3.47,2,.7l.48.16,2,.65.55.17,2.21.64.4.11c1,.26,1.93.5,2.9.73l1,.21c.65.14,1.31.3,2,.43h0c.95.19,1.9.36,2.86.53h0c1,.16,1.94.32,2.92.46h0l.59.08c.77.11,1.54.21,2.32.3l1.08.11,1.6.17.24,0,1.19.09,1.74.13,1.25.07,1.21.06.91,0c.95,0,1.9,0,2.86.06h2.75l1.48,0,1.62-.05,1.48-.07.8,0,.73,0,1.8-.13,1.44-.12,1.8-.19c.3,0,.6,0,.9-.09l.47-.06c.76-.09,1.52-.2,2.28-.3Z"/><path class="cls-48" d="M84.15,428.59,82,427.34c-7.69-4.44-6.86-12,1.85-16.79l17.39-9.65,31,16.91-18.36,10.06C105.13,432.71,91.84,433,84.15,428.59Z"/><path class="cls-49" d="M144.07,399.79v6.35c0,3.56-2.28,7.14-7,9.84-9.37,5.41-24.59,5.39-34-.05a16.55,16.55,0,0,1-5.29-4.59,9.16,9.16,0,0,1-1.8-5.2V399.7c0,3.54,2.4,7.08,7.09,9.79,9.43,5.45,24.65,5.47,34,.06C141.75,406.86,144.07,403.32,144.07,399.79Z"/><path class="cls-50" d="M144.07,399.7v.09c0,3.53-2.32,7.07-7,9.76-9.37,5.41-24.59,5.39-34-.06-4.69-2.71-7-6.25-7.09-9.79s2.29-7.13,7-9.85c9.36-5.4,24.59-5.38,34,.06C141.67,392.63,144,396.17,144.07,399.7Z"/><path class="cls-51" d="M144.07,389.87v6.35c0,3.57-2.28,7.14-7,9.85-9.37,5.41-24.59,5.39-34-.06a16.41,16.41,0,0,1-5.29-4.58,9.17,9.17,0,0,1-1.8-5.21v-6.43c0,3.53,2.4,7.07,7.09,9.79,9.43,5.44,24.65,5.46,34,.06C141.75,397,144.07,393.41,144.07,389.87Z"/><path class="cls-52" d="M144.07,389.79v.08c0,3.54-2.32,7.08-7,9.77-9.37,5.4-24.59,5.38-34-.06-4.69-2.72-7-6.26-7.09-9.79s2.29-7.13,7-9.85c9.36-5.41,24.59-5.39,34,.06C141.67,382.71,144,386.25,144.07,389.79Z"/><path class="cls-53" d="M124.34,395a8.29,8.29,0,0,1-3.61,1,13.34,13.34,0,0,1-4.5-.48,17.76,17.76,0,0,1-2.42-.83l-2.09,1.2-3.81-2.19,2-1.16a15,15,0,0,1-2-1.64,7.17,7.17,0,0,1-1.86-2.52l5-1a7.18,7.18,0,0,0,1.53,2.19,9.56,9.56,0,0,0,1,.9,11.63,11.63,0,0,0,1.6,1.11,9.85,9.85,0,0,0,2.32,1,2.81,2.81,0,0,0,2.19-.14c.46-.26.52-.62.18-1.05l-.1-.12a13,13,0,0,0-1.92-1.63c-.43-.34-.83-.66-1.19-1a16.51,16.51,0,0,1-1.44-1.36,2.88,2.88,0,0,1-.88-2.11c0-.76.67-1.49,1.89-2.2a8.82,8.82,0,0,1,3.65-1.07,13.91,13.91,0,0,1,4.48.44,17.65,17.65,0,0,1,2.06.67l2.13-1.24,3.81,2.2-2,1.15a15.28,15.28,0,0,1,1.81,1.41,7.16,7.16,0,0,1,1.8,2.24l-4.95,1a7.11,7.11,0,0,0-2.26-2.6,11.79,11.79,0,0,0-1.25-.83,8.45,8.45,0,0,0-2.71-1.07l-.29,0a2.45,2.45,0,0,0-1.56.23c-.43.24-.56.54-.37.88a.63.63,0,0,0,.13.2,13,13,0,0,0,2.05,1.85c.28.22.54.44.77.64a21.17,21.17,0,0,1,1.8,1.67,2.73,2.73,0,0,1,.85,2.08C126.14,393.64,125.53,394.36,124.34,395Z"/><path class="cls-54" d="M128.09,454.19l-2.44-1.41c-8.64-5-7.71-13.43,2.08-18.86l19.54-10.85,34.82,19-20.64,11.31C151.67,458.82,136.73,459.18,128.09,454.19Z"/><path class="cls-55" d="M190,423.89V431c0,4-2.57,8-7.86,11.06-10.52,6.07-27.61,6.05-38.2-.06a18.36,18.36,0,0,1-5.94-5.15,10.26,10.26,0,0,1-2-5.85V423.8c0,4,2.7,7.94,8,11,10.59,6.12,27.68,6.14,38.2.07C187.33,431.84,190,427.87,190,423.89Z"/><path class="cls-56" d="M190,423.8v.09c0,4-2.62,7.95-7.86,11-10.52,6.07-27.61,6.05-38.2-.07-5.27-3.05-7.93-7-8-11s2.57-8,7.85-11.06c10.51-6.07,27.62-6.05,38.2.06C187.25,415.85,189.9,419.82,190,423.8Z"/><path class="cls-57" d="M190,411.1v7.13c0,4-2.57,8-7.86,11.06-10.52,6.07-27.61,6-38.2-.07a18.24,18.24,0,0,1-5.94-5.15,10.23,10.23,0,0,1-2-5.84V411c0,4,2.7,7.95,8,11,10.59,6.11,27.68,6.13,38.2.06C187.33,419,190,415.07,190,411.1Z"/><path class="cls-58" d="M190,411v.1c0,4-2.62,7.94-7.86,11-10.52,6.07-27.61,6.05-38.2-.06-5.27-3.05-7.93-7-8-11s2.57-8,7.85-11.06c10.51-6.07,27.62-6.05,38.2.07C187.25,403.06,189.9,407,190,411Z"/><path class="cls-59" d="M190,397.64v7.13c0,4-2.57,8-7.86,11.06-10.52,6.07-27.61,6.05-38.2-.06a18.36,18.36,0,0,1-5.94-5.15,10.28,10.28,0,0,1-2-5.85v-7.22c0,4,2.7,7.94,8,11,10.59,6.11,27.68,6.14,38.2.07C187.33,405.59,190,401.61,190,397.64Z"/><path class="cls-60" d="M190,397.55v.09c0,4-2.62,7.95-7.86,11-10.52,6.07-27.61,6-38.2-.07-5.27-3.05-7.93-7-8-11s2.57-8,7.85-11.06c10.51-6.07,27.62-6.05,38.2.06C187.25,389.6,189.9,393.57,190,397.55Z"/><path class="cls-61" d="M167.78,403.45a9.28,9.28,0,0,1-4.05,1.15,15.11,15.11,0,0,1-5-.54,19.55,19.55,0,0,1-2.73-.93l-2.34,1.35L149.33,402l2.26-1.31a16.5,16.5,0,0,1-2.23-1.83,8.08,8.08,0,0,1-2.09-2.83l5.58-1.18a7.74,7.74,0,0,0,1.72,2.46,10.94,10.94,0,0,0,1.12,1,13,13,0,0,0,1.8,1.24,10.59,10.59,0,0,0,2.6,1.15,3.2,3.2,0,0,0,2.46-.15c.52-.3.58-.7.2-1.19l-.11-.13a13.88,13.88,0,0,0-2.16-1.83l-1.33-1.09a19.31,19.31,0,0,1-1.62-1.53,3.21,3.21,0,0,1-1-2.37c0-.85.74-1.67,2.12-2.47a9.8,9.8,0,0,1,4.09-1.2,15.47,15.47,0,0,1,5,.5,18.74,18.74,0,0,1,2.31.74l2.39-1.38,4.28,2.46-2.23,1.29a17,17,0,0,1,2,1.58,7.92,7.92,0,0,1,2,2.53L173,397.65a7.94,7.94,0,0,0-2.54-2.92,11.88,11.88,0,0,0-1.41-.93,9,9,0,0,0-3-1.2l-.32-.05a2.73,2.73,0,0,0-1.75.26c-.48.27-.63.6-.42,1a.75.75,0,0,0,.15.23,15.06,15.06,0,0,0,2.3,2.07l.87.72a27.17,27.17,0,0,1,2,1.87,3.12,3.12,0,0,1,1,2.34C169.81,401.87,169.12,402.68,167.78,403.45Z"/><g class="cls-62"><path class="cls-63" d="M318,38.91c-36.42-21-95.34-21.11-131.53-.21-18.18,10.51-27.18,24.29-27,38.08V276.69h0c-2,6.08,49.28,32.5,85.34,52.44,15,8.29,30.27-10.1,60.29-25.39,12.06-6.14,24.47-14.13,32.72-18.92,3.63-2.11,7.67-3.32,7.67-8.13V76.78C345.3,63.1,336.16,49.43,318,38.91Z"/></g><polygon class="cls-64" points="252.63 257.88 218.79 277.7 252.63 297.15 286.7 277.33 252.63 257.88"/><g class="cls-65"><path class="cls-66" d="M234.15,243.93a4.09,4.09,0,0,1-2-.53L174.2,210.05a4,4,0,0,1,4-7l57.94,33.34a4,4,0,0,1-2,7.53Z"/></g><g class="cls-67"><path class="cls-66" d="M271.34,243.93a4,4,0,0,0,2-.53l57.94-33.35a4,4,0,1,0-4-7L269.32,236.4a4,4,0,0,0,2,7.53Z"/></g><g class="cls-10"><polygon class="cls-68" points="218.79 235.75 218.79 274.47 252.63 293.92 252.63 255.2 218.79 235.75"/><polygon class="cls-69" points="252.63 255.2 252.63 293.92 286.7 274.1 286.7 235.38 252.63 255.2"/><polygon class="cls-70" points="252.63 215.93 218.79 235.75 252.63 255.2 286.7 235.38 252.63 215.93"/></g><g class="cls-71"><path class="cls-66" d="M331.28,294.79l-57.94-33.35a4,4,0,0,0-4,7l57.94,33.34a4,4,0,0,0,2,.54,4,4,0,0,0,2-7.53Z"/></g><g class="cls-72"><path class="cls-66" d="M176.22,302.32a4,4,0,0,0,2-.54l57.94-33.34a4,4,0,0,0-4-7L174.2,294.79a4,4,0,0,0,2,7.53Z"/></g><polygon class="cls-73" points="252.63 254.45 219.44 235.37 218.79 235.75 252.63 255.2 286.7 235.38 286.05 235.01 252.63 254.45"/><path class="cls-74" d="M417.5,292.84l-2-1.15c-7-4.05-6.27-10.92,1.69-15.34l15.89-8.82L461.4,283l-16.78,9.19C436.67,296.6,424.52,296.89,417.5,292.84Z"/><path class="cls-75" d="M455.23,294.42l-.09-.3c-.32-1.06,3.39-2.59,8.29-3.41l13.62-2.29,1.26,4.13-13.62,2.29C459.79,295.67,455.55,295.48,455.23,294.42Z"/><path class="cls-76" d="M474.88,266.05v6.48c0,3.63-2.33,7.28-7.13,10-9.55,5.51-25.07,5.49-34.69-.06a16.71,16.71,0,0,1-5.39-4.67,9.33,9.33,0,0,1-1.84-5.31V266c0,3.6,2.45,7.21,7.23,10,9.62,5.55,25.14,5.57,34.69.06C472.51,273.27,474.88,269.66,474.88,266.05Z"/><path class="cls-77" d="M474.88,266v.08c0,3.61-2.37,7.22-7.13,10-9.55,5.51-25.07,5.49-34.69-.06-4.78-2.77-7.19-6.38-7.23-10s2.33-7.28,7.12-10.05c9.55-5.51,25.09-5.49,34.69.06C472.43,258.75,474.84,262.36,474.88,266Z"/><path class="cls-78" d="M464.39,259l-9.94,6.69L453.1,255l-3.22,2.38,1.92,13.85,14.52-9.78Zm-19,1.67,2,13.59,3.11-2.37-1.9-13.6Zm-4.63,3.24,2,13.59,3.1-2.37L444,261.54Z"/><path class="cls-79" d="M474.88,253.62v6.47c0,3.64-2.33,7.28-7.13,10.05-9.55,5.51-25.07,5.49-34.69-.06a16.73,16.73,0,0,1-5.39-4.68,9.3,9.3,0,0,1-1.84-5.31v-6.56c0,3.61,2.45,7.21,7.23,10,9.62,5.56,25.14,5.58,34.69.06C472.51,260.83,474.88,257.22,474.88,253.62Z"/><path class="cls-80" d="M474.88,253.53v.09c0,3.6-2.37,7.21-7.13,9.95-9.55,5.52-25.07,5.5-34.69-.06-4.78-2.77-7.19-6.37-7.23-10s2.33-7.27,7.12-10c9.55-5.51,25.09-5.49,34.69.06C472.43,246.32,474.84,249.92,474.88,253.53Z"/><path class="cls-81" d="M464.39,246.57l-9.94,6.69-1.35-10.73-3.22,2.38,1.92,13.85L466.32,249Zm-19,1.67,2,13.6,3.11-2.37-1.9-13.61Zm-4.63,3.24,2,13.6,3.1-2.37L444,249.1Z"/><path class="cls-82" d="M474.88,241.31v6.48c0,3.63-2.33,7.28-7.13,10-9.55,5.51-25.07,5.49-34.69-.06a16.71,16.71,0,0,1-5.39-4.67,9.33,9.33,0,0,1-1.84-5.31v-6.56c0,3.6,2.45,7.21,7.23,10,9.62,5.55,25.14,5.57,34.69.06C472.51,248.53,474.88,244.92,474.88,241.31Z"/><path class="cls-83" d="M474.88,241.23v.08c0,3.61-2.37,7.22-7.13,10-9.55,5.51-25.07,5.49-34.69-.06-4.78-2.77-7.19-6.38-7.23-10s2.33-7.28,7.12-10c9.55-5.51,25.09-5.49,34.69.06C472.43,234,474.84,237.62,474.88,241.23Z"/><path class="cls-84" d="M464.39,234.27,454.45,241l-1.35-10.74-3.22,2.38,1.92,13.85,14.52-9.78Zm-19,1.67,2,13.59,3.11-2.37-1.9-13.6Zm-4.63,3.24,2,13.59,3.1-2.37L444,236.8Z"/><path class="cls-85" d="M500,267.28a24.58,24.58,0,0,1-2.16,10.12l-.1.21c-.12.27-.25.54-.39.8a24.44,24.44,0,0,1-1.37,2.38c-.46.7-1,1.38-1.49,2s-1,1.2-1.58,1.76-1,1-1.48,1.39-1,.86-1.58,1.25c-.36.26-.72.51-1.09.75a24.68,24.68,0,0,1-38.12-20.7c0-.85.05-1.69.13-2.52A24.68,24.68,0,0,1,500,267.28Z"/><circle class="cls-86" cx="476.05" cy="269.17" r="23.61" transform="translate(-70.67 282.32) rotate(-30.86)"/><path class="cls-87" d="M466.69,264.4,485.3,283v4.73l-18.61-18.6ZM482,252.59v13.82l-15.27-15.27v4.73l18.61,18.61V252.59Zm-15.27,9.91,18.61,18.61v-4.73l-18.61-18.61Z"/><path class="cls-88" d="M87.9,222.85l-2.24-1.29c-7.94-4.59-7.09-12.35,1.91-17.35l18-10,44.45,10-31.41,17.86C109.58,227.11,95.85,227.44,87.9,222.85Z"/><path class="cls-66" d="M160.11,185.43a12.28,12.28,0,0,1-.24,2.09,12.71,12.71,0,0,1-.58,2,14.89,14.89,0,0,1-1,2.07,17.18,17.18,0,0,1-1.46,2.17,21.15,21.15,0,0,1-2.26,2.42,27.33,27.33,0,0,1-4.6,3.41l-.44.26a40.65,40.65,0,0,1-8,3.5,50.5,50.5,0,0,1-6.88,1.71c-1.52.28-3.07.49-4.63.65-1.34.13-2.68.22-4,.27s-2.48,0-3.72,0-2.4-.09-3.58-.19-2.37-.23-3.54-.39-2.41-.38-3.6-.63-2.55-.57-3.79-.93c-1.51-.43-3-.93-4.41-1.49a38.35,38.35,0,0,1-5.24-2.51,29.41,29.41,0,0,1-4.69-3.31v4.63a29.41,29.41,0,0,0,4.69,3.31,37.79,37.79,0,0,0,5.24,2.51c1.42.56,2.89,1.06,4.41,1.49,1.24.36,2.5.67,3.79.93s2.39.46,3.6.63,2.35.3,3.53.39,2.39.16,3.58.19,2.49,0,3.72,0,2.7-.14,4-.27c1.57-.16,3.12-.37,4.64-.65a50.86,50.86,0,0,0,6.88-1.71,40.91,40.91,0,0,0,8-3.5l.44-.26a27.75,27.75,0,0,0,4.6-3.41,20.19,20.19,0,0,0,2.25-2.42,17.27,17.27,0,0,0,1.47-2.17,14.82,14.82,0,0,0,1-2.07,12.75,12.75,0,0,0,.59-2,12.28,12.28,0,0,0,.24-2.09v-.32l0-4.63C160.12,185.22,160.11,185.33,160.11,185.43Z"/><path class="cls-89" d="M149.39,170.13c14.24,8.22,14.31,21.54.17,29.76s-37.15,8.22-51.38,0a29.41,29.41,0,0,1-4.69-3.31l50.17-29.16A40.29,40.29,0,0,1,149.39,170.13Z"/><polygon class="cls-90" points="104.71 200.56 101.88 198.92 114.27 191.74 117.1 193.37 104.71 200.56"/><polygon class="cls-91" points="117.1 167.56 136.21 156.46 136.14 182.4 117.02 193.51 117.1 167.56"/><polygon class="cls-92" points="117.1 167.56 117.02 193.51 114.17 191.86 114.24 165.91 117.1 167.56"/><polygon class="cls-93" points="203.38 8.57 203.61 104.68 35.24 201.89 35.01 105.77 203.38 8.57"/><path class="cls-94" d="M205.28,3c1.07-.61,1.93-.12,1.93,1.1l.27,109.38a4.18,4.18,0,0,1-1.91,3.31L33.36,216.26c-1.06.61-1.92.12-1.93-1.1l-.27-109.38a4.19,4.19,0,0,1,1.92-3.31Zm-1.67,101.64-.24-96.11L35,105.77l.23,96.12,168.37-97.21Z"/><path class="cls-95" d="M201.87.13a1.35,1.35,0,0,0-1.36.14L28.3,99.69A4.2,4.2,0,0,0,26.38,103l.27,109.37a1.38,1.38,0,0,0,.56,1.24L32,216.4a1.36,1.36,0,0,1-.56-1.24l-.27-109.38a4.19,4.19,0,0,1,1.92-3.31L205.28,3a1.34,1.34,0,0,1,1.37-.13Z"/><path class="cls-96" d="M125.08,156.25a5.93,5.93,0,0,1,2.68-4.63c1.49-.86,2.69-.17,2.69,1.53a5.93,5.93,0,0,1-2.69,4.64C126.28,158.64,125.08,158,125.08,156.25Z"/><g class="cls-43"><path class="cls-19" d="M112.14,75.82v5.89L53.89,115.34v-5.89a4.37,4.37,0,0,1,2-3.43l54.27-31.33C111.25,74.06,112.14,74.56,112.14,75.82Z"/><path class="cls-97" d="M112.14,81.71v59.7a2.17,2.17,0,0,1-1,1.71L54.89,175.6c-.55.32-1,.07-1-.56v-59.7Z"/><path class="cls-22" d="M107,80.59a2.55,2.55,0,0,1,1.17-2c.64-.38,1.17-.08,1.17.66a2.6,2.6,0,0,1-1.17,2C107.52,81.63,107,81.34,107,80.59Z"/><path class="cls-22" d="M103,82.91a2.6,2.6,0,0,1,1.18-2c.64-.37,1.17-.07,1.17.67a2.6,2.6,0,0,1-1.17,2C103.51,84,103,83.65,103,82.91Z"/><path class="cls-22" d="M98.93,85.25a2.58,2.58,0,0,1,1.17-2c.65-.37,1.17-.07,1.17.67a2.57,2.57,0,0,1-1.17,2C99.45,86.29,98.93,86,98.93,85.25Z"/></g><g class="cls-43"><path class="cls-19" d="M126,83.57v5.89L67.72,123.08v-5.89a4.37,4.37,0,0,1,2-3.42L124,82.43C125.07,81.8,126,82.31,126,83.57Z"/><path class="cls-98" d="M126,89.46v59.7a2.18,2.18,0,0,1-1,1.71L68.71,183.35c-.55.32-1,.06-1-.57v-59.7Z"/><path class="cls-22" d="M120.82,88.34a2.6,2.6,0,0,1,1.17-2c.65-.37,1.17-.07,1.17.67A2.58,2.58,0,0,1,122,89C121.35,89.38,120.82,89.08,120.82,88.34Z"/><path class="cls-22" d="M116.81,90.66a2.57,2.57,0,0,1,1.17-2c.65-.37,1.17-.08,1.17.67a2.55,2.55,0,0,1-1.17,2C117.33,91.7,116.81,91.4,116.81,90.66Z"/><path class="cls-22" d="M112.75,93a2.6,2.6,0,0,1,1.17-2c.65-.37,1.17-.08,1.17.67a2.58,2.58,0,0,1-1.17,2C113.28,94,112.75,93.74,112.75,93Z"/></g><path class="cls-99" d="M186.54,68.7c0,13.17-9.29,29.2-20.76,35.82S145,105.85,145,92.68s9.29-29.19,20.77-35.82V80.69Z"/><path class="cls-46" d="M183.48,67l-14.64,8.45V58.61C176.93,53.94,183.48,57.67,183.48,67Z"/><path class="cls-100" d="M201.6,154.8l23.88-13.37L249,155l-25.54,13C214.9,163.12,204.12,156.26,201.6,154.8Z"/><path class="cls-101" d="M254.68,141.73v5.2c0,2.91-1.87,5.84-5.73,8-7.65,4.42-20.1,4.41-27.82,0a13.29,13.29,0,0,1-4.32-3.75,7.47,7.47,0,0,1-1.48-4.25v-5.27c0,2.9,2,5.79,5.8,8,7.72,4.45,20.17,4.47,27.82.05C252.78,147.52,254.68,144.63,254.68,141.73Z"/><path class="cls-102" d="M254.68,141.66v.07c0,2.9-1.9,5.79-5.73,8-7.65,4.42-20.1,4.4-27.82-.05-3.83-2.22-5.77-5.11-5.8-8s1.87-5.83,5.72-8c7.66-4.42,20.12-4.41,27.82,0C252.71,135.88,254.65,138.77,254.68,141.66Z"/><path class="cls-103" d="M246.26,136.08l-8,5.37-1.09-8.61-2.57,1.91,1.54,11.11L247.81,138ZM231,137.42l1.61,10.91,2.49-1.91-1.52-10.91ZM227.3,140l1.6,10.91,2.49-1.91-1.51-10.91Z"/><path class="cls-104" d="M254.68,131.76V137c0,2.92-1.87,5.84-5.73,8.06-7.65,4.42-20.1,4.4-27.82,0a13.52,13.52,0,0,1-4.32-3.75,7.48,7.48,0,0,1-1.48-4.26v-5.26c0,2.89,2,5.79,5.8,8,7.72,4.45,20.17,4.47,27.82,0C252.78,137.55,254.68,134.65,254.68,131.76Z"/><path class="cls-105" d="M254.68,131.69v.07c0,2.89-1.9,5.79-5.73,8-7.65,4.43-20.1,4.41-27.82,0-3.83-2.22-5.77-5.12-5.8-8s1.87-5.83,5.72-8c7.66-4.43,20.12-4.41,27.82,0C252.71,125.9,254.65,128.8,254.68,131.69Z"/><path class="cls-106" d="M246.26,126.11l-8,5.36-1.09-8.61-2.57,1.91,1.54,11.11L247.81,128ZM231,127.45l1.61,10.9,2.49-1.9-1.52-10.91Zm-3.71,2.6,1.6,10.9,2.49-1.9-1.51-10.91Z"/><path class="cls-107" d="M254.68,121.89v5.19c0,2.92-1.87,5.84-5.73,8.06-7.65,4.42-20.1,4.4-27.82,0a13.4,13.4,0,0,1-4.32-3.75,7.48,7.48,0,0,1-1.48-4.26v-5.26c0,2.89,2,5.79,5.8,8,7.72,4.45,20.17,4.47,27.82,0C252.78,127.68,254.68,124.78,254.68,121.89Z"/><path class="cls-108" d="M254.68,121.82v.07c0,2.89-1.9,5.79-5.73,8-7.65,4.43-20.1,4.41-27.82,0-3.83-2.22-5.77-5.12-5.8-8s1.87-5.83,5.72-8c7.66-4.43,20.12-4.41,27.82,0C252.71,116,254.65,118.93,254.68,121.82Z"/><path class="cls-109" d="M246.26,116.24l-8,5.36L237.2,113l-2.57,1.91L236.17,126l11.64-7.84ZM231,117.58l1.61,10.9,2.49-1.9-1.52-10.91Zm-3.71,2.6,1.6,10.9,2.49-1.9-1.51-10.91Z"/><path class="cls-110" d="M179,187.07l-1.62-.94c-5.78-3.33-5.15-9,1.38-12.6l13.05-7.24L215,179l-13.78,7.55C194.71,190.16,184.73,190.4,179,187.07Z"/><path class="cls-111" d="M208.91,187.83l-.07-.25c-.28-.89,2.84-2.17,6.95-2.87l11.43-1.92,1.05,3.47-11.42,1.92C212.74,188.87,209.18,188.71,208.91,187.83Z"/><path class="cls-112" d="M225.4,164v5.43c0,3-2,6.11-6,8.43-8,4.62-21,4.61-29.1,0a14.21,14.21,0,0,1-4.52-3.92,7.82,7.82,0,0,1-1.55-4.46V164c0,3,2.06,6,6.07,8.37,8.07,4.66,21.09,4.68,29.1,0C223.41,170.08,225.4,167.06,225.4,164Z"/><path class="cls-113" d="M225.4,164V164c0,3-2,6.05-6,8.35-8,4.63-21,4.61-29.1,0-4-2.32-6-5.35-6.07-8.37s2-6.1,6-8.43c8-4.62,21-4.61,29.1.05C223.34,157.9,225.37,160.93,225.4,164Z"/><path class="cls-114" d="M216.59,158.12l-8.33,5.61-1.14-9-2.7,2L206,168.34l12.17-8.21Zm-15.94,1.4,1.67,11.41,2.61-2-1.59-11.42Zm-3.89,2.72,1.68,11.41,2.6-2-1.58-11.42Z"/><path class="cls-115" d="M225.4,153.6V159c0,3.05-2,6.11-6,8.43-8,4.62-21,4.6-29.1-.05a14.1,14.1,0,0,1-4.52-3.93,7.77,7.77,0,0,1-1.55-4.45v-5.51c0,3,2.06,6.06,6.07,8.38,8.07,4.66,21.09,4.67,29.1,0C223.41,159.65,225.4,156.62,225.4,153.6Z"/><path class="cls-116" d="M225.4,153.52v.08c0,3-2,6.05-6,8.35-8,4.62-21,4.61-29.1,0-4-2.32-6-5.35-6.07-8.38s2-6.1,6-8.42c8-4.63,21-4.61,29.1.05C223.34,147.47,225.37,150.5,225.4,153.52Z"/><path class="cls-117" d="M216.59,147.69l-8.33,5.61-1.14-9-2.7,2L206,157.91l12.17-8.21Zm-15.94,1.4,1.67,11.4,2.61-2-1.59-11.42Zm-3.89,2.72,1.68,11.4,2.6-2-1.58-11.41Z"/><path class="cls-118" d="M225.4,143.27v5.44c0,3-2,6.11-6,8.42-8,4.63-21,4.61-29.1,0a14.08,14.08,0,0,1-4.52-3.92,7.8,7.8,0,0,1-1.55-4.45V143.2c0,3,2.06,6.05,6.07,8.38,8.07,4.65,21.09,4.67,29.1,0C223.41,149.33,225.4,146.3,225.4,143.27Z"/><path class="cls-119" d="M225.4,143.2v.07c0,3-2,6.06-6,8.36-8,4.62-21,4.6-29.1,0-4-2.33-6-5.35-6.07-8.38s2-6.1,6-8.42c8-4.63,21-4.61,29.1,0C223.34,137.15,225.37,140.18,225.4,143.2Z"/><path class="cls-120" d="M216.59,137.36,208.26,143l-1.14-9-2.7,2L206,147.59l12.17-8.21Zm-15.94,1.4,1.67,11.41,2.61-2-1.59-11.41Zm-3.89,2.72,1.68,11.41,2.6-2-1.58-11.41Z"/><path class="cls-121" d="M246.47,165.06a20.74,20.74,0,0,1-1.81,8.49,1.42,1.42,0,0,0-.08.18l-.33.67a20.58,20.58,0,0,1-1.15,2c-.39.59-.81,1.17-1.25,1.71s-.86,1-1.32,1.48-.82.8-1.25,1.17-.87.72-1.33,1.05c-.29.22-.6.43-.91.63a20.72,20.72,0,0,1-32-17.37,21,21,0,0,1,.11-2.11,20.7,20.7,0,0,1,41.3,2.11Z"/><circle class="cls-122" cx="226.38" cy="166.65" r="19.81" transform="translate(-53.43 139.73) rotate(-30.86)"/><path class="cls-123" d="M218.52,162.64l15.62,15.62v4l-15.62-15.61Zm12.82-9.9v11.59l-12.82-12.81v4l15.62,15.61V152.74Zm-12.82,8.31,15.62,15.61v-4l-15.62-15.61Z"/><polygon class="cls-124" points="41.04 264.13 32.38 259.13 49.2 249.54 57.86 254.54 41.04 264.13"/><polygon class="cls-125" points="65.41 232.39 65.35 250.2 56.8 255.16 56.87 237.35 65.41 232.39"/><polygon class="cls-126" points="56.87 237.35 56.8 255.16 48.21 250.2 48.27 232.39 56.87 237.35"/><polygon class="cls-20" points="65.41 232.39 56.87 237.35 48.27 232.39 56.81 227.43 65.41 232.39"/><polygon class="cls-127" points="54.48 272.02 45.82 267.02 62.64 257.44 71.3 262.43 54.48 272.02"/><polygon class="cls-128" points="78.8 230.32 78.74 258.1 70.19 263.07 70.26 235.29 78.8 230.32"/><polygon class="cls-129" points="70.26 235.29 70.19 263.07 61.59 258.1 61.66 230.32 70.26 235.29"/><polygon class="cls-20" points="78.8 230.32 70.26 235.29 61.66 230.32 70.2 225.36 78.8 230.32"/><polygon class="cls-130" points="68.39 280.03 59.73 275.03 76.55 265.44 85.21 270.44 68.39 280.03"/><polygon class="cls-131" points="92.76 218.37 92.7 266.1 84.16 271.07 84.22 223.34 92.76 218.37"/><polygon class="cls-132" points="84.22 223.34 84.16 271.07 75.56 266.1 75.62 218.37 84.22 223.34"/><polygon class="cls-20" points="92.76 218.37 84.22 223.34 75.62 218.37 84.16 213.41 92.76 218.37"/></g></g></g></svg>