<svg xmlns="http://www.w3.org/2000/svg" xmlns:xlink="http://www.w3.org/1999/xlink" viewBox="0 0 540 496.04"><defs><style>.cls-1{isolation:isolate;}.cls-2,.cls-66{opacity:0.7;}.cls-2{fill:url(#linear-gradient);}.cls-3{fill:url(#linear-gradient-2);}.cls-4{fill:url(#linear-gradient-3);}.cls-5{fill:url(#linear-gradient-4);}.cls-6{fill:url(#linear-gradient-5);}.cls-7{fill:url(#linear-gradient-6);}.cls-19,.cls-8{fill:#1c1714;}.cls-9{fill:url(#linear-gradient-7);}.cls-10{fill:url(#linear-gradient-8);}.cls-11,.cls-14,.cls-32,.cls-49,.cls-70,.cls-71{opacity:0.6;}.cls-11{mix-blend-mode:overlay;fill:url(#linear-gradient-9);}.cls-12{fill:url(#linear-gradient-10);}.cls-13,.cls-30{fill:#3f3c3a;}.cls-14{fill:url(#linear-gradient-11);}.cls-15,.cls-16,.cls-17,.cls-18,.cls-19,.cls-20,.cls-21,.cls-22,.cls-23,.cls-24,.cls-25,.cls-26,.cls-27,.cls-28,.cls-29,.cls-30,.cls-31,.cls-33,.cls-34,.cls-35,.cls-36,.cls-37,.cls-38,.cls-39,.cls-40,.cls-41,.cls-42,.cls-43,.cls-44,.cls-45,.cls-46,.cls-47,.cls-48,.cls-50,.cls-51,.cls-52,.cls-53,.cls-54,.cls-55,.cls-56,.cls-57,.cls-58,.cls-59,.cls-60,.cls-61,.cls-62,.cls-63,.cls-64,.cls-65{fill-rule:evenodd;}.cls-15{fill:url(#linear-gradient-12);}.cls-16{fill:url(#linear-gradient-13);}.cls-17{fill:url(#linear-gradient-14);}.cls-18{fill:url(#linear-gradient-15);}.cls-20{fill:url(#linear-gradient-16);}.cls-21{fill:url(#linear-gradient-17);}.cls-22{fill:url(#linear-gradient-18);}.cls-23{fill:url(#linear-gradient-19);}.cls-24{fill:url(#linear-gradient-20);}.cls-25{fill:url(#linear-gradient-21);}.cls-26{fill:url(#linear-gradient-22);}.cls-27{fill:url(#linear-gradient-23);}.cls-28{fill:url(#linear-gradient-24);}.cls-29{fill:url(#linear-gradient-25);}.cls-31{fill:url(#linear-gradient-26);}.cls-32{fill:url(#linear-gradient-27);}.cls-33{fill:url(#linear-gradient-28);}.cls-34{fill:url(#linear-gradient-29);}.cls-35{fill:url(#linear-gradient-30);}.cls-36{fill:url(#linear-gradient-31);}.cls-37{fill:url(#linear-gradient-32);}.cls-38{fill:url(#linear-gradient-33);}.cls-39{fill:url(#linear-gradient-34);}.cls-40{fill:url(#linear-gradient-35);}.cls-41{fill:url(#linear-gradient-36);}.cls-42{fill:url(#linear-gradient-37);}.cls-43{fill:url(#linear-gradient-38);}.cls-44{fill:url(#linear-gradient-39);}.cls-45{fill:url(#linear-gradient-40);}.cls-46{fill:url(#linear-gradient-41);}.cls-47{fill:url(#linear-gradient-42);}.cls-48{fill:url(#linear-gradient-43);}.cls-49{fill:url(#linear-gradient-44);}.cls-50{fill:url(#linear-gradient-45);}.cls-51{fill:url(#linear-gradient-46);}.cls-52{fill:url(#linear-gradient-47);}.cls-53{fill:url(#linear-gradient-48);}.cls-54{fill:url(#linear-gradient-49);}.cls-55{fill:url(#linear-gradient-50);}.cls-56{fill:url(#linear-gradient-51);}.cls-57{fill:url(#linear-gradient-52);}.cls-58{fill:url(#linear-gradient-53);}.cls-59{fill:url(#linear-gradient-54);}.cls-60{fill:url(#linear-gradient-55);}.cls-61{fill:url(#linear-gradient-56);}.cls-62{fill:url(#linear-gradient-57);}.cls-63{fill:url(#linear-gradient-58);}.cls-64{fill:url(#linear-gradient-59);}.cls-65{fill:url(#linear-gradient-60);}.cls-66{fill:url(#linear-gradient-61);}.cls-67{fill:url(#linear-gradient-62);}.cls-68{fill:url(#linear-gradient-63);}.cls-69{fill:url(#linear-gradient-64);}.cls-70,.cls-71{mix-blend-mode:multiply;}.cls-70{fill:url(#linear-gradient-65);}.cls-71{fill:url(#linear-gradient-66);}.cls-72{fill:url(#linear-gradient-67);}.cls-73{fill:url(#linear-gradient-68);}</style><linearGradient id="linear-gradient" x1="261.94" y1="417" x2="296.45" y2="359.57" gradientUnits="userSpaceOnUse"><stop offset="0.38" stop-opacity="0"/><stop offset="0.41" stop-opacity="0.06"/><stop offset="1" stop-opacity="0.5"/></linearGradient><linearGradient id="linear-gradient-2" x1="422.41" y1="102.38" x2="440.05" y2="72.22" gradientUnits="userSpaceOnUse"><stop offset="0" stop-color="#383533"/><stop offset="1" stop-color="#1c1714"/></linearGradient><linearGradient id="linear-gradient-3" x1="444" y1="67.97" x2="278.18" y2="355.18" gradientUnits="userSpaceOnUse"><stop offset="0" stop-color="#6b6565"/><stop offset="0.32" stop-color="#4c4242"/></linearGradient><linearGradient id="linear-gradient-4" x1="182.05" y1="342.32" x2="391.28" y2="342.32" xlink:href="#linear-gradient-2"/><linearGradient id="linear-gradient-5" x1="379.1" y1="270.55" x2="540" y2="270.55" gradientUnits="userSpaceOnUse"><stop offset="0" stop-color="#6c6a6b"/><stop offset="1" stop-color="#4c4242"/></linearGradient><linearGradient id="linear-gradient-6" x1="182.05" y1="317.45" x2="381.23" y2="317.45" xlink:href="#linear-gradient-5"/><linearGradient id="linear-gradient-7" x1="410.43" y1="248.28" x2="481.39" y2="248.28" gradientUnits="userSpaceOnUse"><stop offset="0" stop-color="#e6d48a"/><stop offset="0.03" stop-color="#dcc77a"/><stop offset="0.1" stop-color="#cbaf5e"/><stop offset="0.16" stop-color="#be9e49"/><stop offset="0.23" stop-color="#b7933d"/><stop offset="0.29" stop-color="#b49039"/><stop offset="0.34" stop-color="#b6933d"/><stop offset="0.39" stop-color="#bb9a48"/><stop offset="0.43" stop-color="#c4a75a"/><stop offset="0.47" stop-color="#d1b974"/><stop offset="0.5" stop-color="#dcca8c"/><stop offset="0.99" stop-color="#b49039"/></linearGradient><linearGradient id="linear-gradient-8" x1="442.01" y1="197" x2="491.5" y2="282.19" xlink:href="#linear-gradient-2"/><linearGradient id="linear-gradient-9" x1="469.71" y1="234.39" x2="430.78" y2="257.29" xlink:href="#linear-gradient-2"/><linearGradient id="linear-gradient-10" x1="426.13" y1="249.47" x2="463.85" y2="249.47" xlink:href="#linear-gradient-2"/><linearGradient id="linear-gradient-11" x1="54.27" y1="251.41" x2="78.28" y2="211.46" gradientUnits="userSpaceOnUse"><stop offset="0" stop-opacity="0"/><stop offset="0.05" stop-opacity="0.06"/><stop offset="1" stop-opacity="0.5"/></linearGradient><linearGradient id="linear-gradient-12" x1="102.72" y1="196.53" x2="125.38" y2="196.53" xlink:href="#linear-gradient-2"/><linearGradient id="linear-gradient-13" x1="97.33" y1="233.72" x2="117.78" y2="233.72" xlink:href="#linear-gradient-2"/><linearGradient id="linear-gradient-14" x1="66.88" y1="237.49" x2="82.2" y2="237.49" xlink:href="#linear-gradient-2"/><linearGradient id="linear-gradient-15" x1="0.1" y1="139.73" x2="22.75" y2="139.73" xlink:href="#linear-gradient-2"/><linearGradient id="linear-gradient-16" x1="100" y1="240.95" x2="117.78" y2="240.95" xlink:href="#linear-gradient-2"/><linearGradient id="linear-gradient-17" x1="19.02" y1="114.63" x2="39.48" y2="114.63" xlink:href="#linear-gradient-2"/><linearGradient id="linear-gradient-18" x1="13.39" y1="109.4" x2="32.34" y2="109.4" xlink:href="#linear-gradient-2"/><linearGradient id="linear-gradient-19" x1="97.33" y1="219.64" x2="117.27" y2="219.64" xlink:href="#linear-gradient-2"/><linearGradient id="linear-gradient-20" x1="26.16" y1="119.7" x2="58.56" y2="119.7" xlink:href="#linear-gradient-2"/><linearGradient id="linear-gradient-21" x1="90.49" y1="180.81" x2="116.04" y2="180.81" xlink:href="#linear-gradient-2"/><linearGradient id="linear-gradient-22" x1="58.46" y1="124.44" x2="74.07" y2="124.44" xlink:href="#linear-gradient-2"/><linearGradient id="linear-gradient-23" x1="44.5" y1="115" x2="73.33" y2="115" xlink:href="#linear-gradient-2"/><linearGradient id="linear-gradient-24" x1="60.76" y1="139.56" x2="94.45" y2="139.56" xlink:href="#linear-gradient-2"/><linearGradient id="linear-gradient-25" x1="87.23" y1="154.98" x2="112.38" y2="154.98" xlink:href="#linear-gradient-2"/><linearGradient id="linear-gradient-26" x1="112.06" y1="207.66" x2="126.7" y2="207.66" xlink:href="#linear-gradient-2"/><linearGradient id="linear-gradient-27" x1="38.71" y1="360.85" x2="56.33" y2="331.53" xlink:href="#linear-gradient-11"/><linearGradient id="linear-gradient-28" x1="79.69" y1="317.54" x2="96.85" y2="317.54" xlink:href="#linear-gradient-2"/><linearGradient id="linear-gradient-29" x1="75.61" y1="345.7" x2="91.1" y2="345.7" xlink:href="#linear-gradient-2"/><linearGradient id="linear-gradient-30" x1="52.54" y1="348.56" x2="64.14" y2="348.56" xlink:href="#linear-gradient-2"/><linearGradient id="linear-gradient-31" x1="1.95" y1="274.51" x2="19.12" y2="274.51" xlink:href="#linear-gradient-2"/><linearGradient id="linear-gradient-32" x1="77.63" y1="351.18" x2="91.1" y2="351.18" xlink:href="#linear-gradient-2"/><linearGradient id="linear-gradient-33" x1="16.29" y1="255.5" x2="31.78" y2="255.5" xlink:href="#linear-gradient-2"/><linearGradient id="linear-gradient-34" x1="12.02" y1="251.54" x2="26.38" y2="251.54" xlink:href="#linear-gradient-2"/><linearGradient id="linear-gradient-35" x1="75.61" y1="335.04" x2="90.71" y2="335.04" xlink:href="#linear-gradient-2"/><linearGradient id="linear-gradient-36" x1="21.7" y1="259.34" x2="46.24" y2="259.34" xlink:href="#linear-gradient-2"/><linearGradient id="linear-gradient-37" x1="70.42" y1="305.63" x2="89.78" y2="305.63" xlink:href="#linear-gradient-2"/><linearGradient id="linear-gradient-38" x1="46.17" y1="262.93" x2="57.99" y2="262.93" xlink:href="#linear-gradient-2"/><linearGradient id="linear-gradient-39" x1="35.59" y1="255.78" x2="57.43" y2="255.78" xlink:href="#linear-gradient-2"/><linearGradient id="linear-gradient-40" x1="47.9" y1="274.38" x2="73.43" y2="274.38" xlink:href="#linear-gradient-2"/><linearGradient id="linear-gradient-41" x1="67.95" y1="286.06" x2="87.01" y2="286.06" xlink:href="#linear-gradient-2"/><linearGradient id="linear-gradient-42" x1="86.76" y1="325.97" x2="97.85" y2="325.97" xlink:href="#linear-gradient-2"/><linearGradient id="linear-gradient-43" x1="25.09" y1="310.07" x2="50.66" y2="310.07" gradientUnits="userSpaceOnUse"><stop offset="0" stop-color="#6b6565"/><stop offset="1" stop-color="#4c4242"/></linearGradient><linearGradient id="linear-gradient-44" x1="126.56" y1="329.06" x2="137.44" y2="310.96" xlink:href="#linear-gradient-11"/><linearGradient id="linear-gradient-45" x1="151.87" y1="302.31" x2="162.47" y2="302.31" xlink:href="#linear-gradient-2"/><linearGradient id="linear-gradient-46" x1="149.35" y1="319.71" x2="158.91" y2="319.71" xlink:href="#linear-gradient-2"/><linearGradient id="linear-gradient-47" x1="135.1" y1="321.47" x2="142.27" y2="321.47" xlink:href="#linear-gradient-2"/><linearGradient id="linear-gradient-48" x1="103.86" y1="275.74" x2="114.46" y2="275.74" xlink:href="#linear-gradient-2"/><linearGradient id="linear-gradient-49" x1="150.59" y1="323.09" x2="158.91" y2="323.09" xlink:href="#linear-gradient-2"/><linearGradient id="linear-gradient-50" x1="112.71" y1="264" x2="122.28" y2="264" xlink:href="#linear-gradient-2"/><linearGradient id="linear-gradient-51" x1="110.08" y1="261.55" x2="118.94" y2="261.55" xlink:href="#linear-gradient-2"/><linearGradient id="linear-gradient-52" x1="149.35" y1="313.12" x2="158.67" y2="313.12" xlink:href="#linear-gradient-2"/><linearGradient id="linear-gradient-53" x1="116.05" y1="266.37" x2="131.21" y2="266.37" xlink:href="#linear-gradient-2"/><linearGradient id="linear-gradient-54" x1="146.15" y1="294.96" x2="158.1" y2="294.96" xlink:href="#linear-gradient-2"/><linearGradient id="linear-gradient-55" x1="131.16" y1="268.59" x2="138.47" y2="268.59" xlink:href="#linear-gradient-2"/><linearGradient id="linear-gradient-56" x1="124.63" y1="264.17" x2="138.12" y2="264.17" xlink:href="#linear-gradient-2"/><linearGradient id="linear-gradient-57" x1="132.24" y1="275.66" x2="148" y2="275.66" xlink:href="#linear-gradient-2"/><linearGradient id="linear-gradient-58" x1="144.62" y1="282.88" x2="156.39" y2="282.88" xlink:href="#linear-gradient-2"/><linearGradient id="linear-gradient-59" x1="156.24" y1="307.52" x2="163.09" y2="307.52" xlink:href="#linear-gradient-2"/><linearGradient id="linear-gradient-60" x1="118.15" y1="297.7" x2="133.94" y2="297.7" xlink:href="#linear-gradient-43"/><linearGradient id="linear-gradient-61" x1="426.23" y1="490.01" x2="451.62" y2="447.75" gradientUnits="userSpaceOnUse"><stop offset="0.13" stop-opacity="0"/><stop offset="0.18" stop-opacity="0.06"/><stop offset="1" stop-opacity="0.5"/></linearGradient><linearGradient id="linear-gradient-62" x1="433.73" y1="418.27" x2="525.58" y2="418.27" gradientUnits="userSpaceOnUse"><stop offset="0" stop-color="#3f3c3a"/><stop offset="1" stop-color="#2c2725"/></linearGradient><linearGradient id="linear-gradient-63" x1="433.73" y1="380.28" x2="525.58" y2="380.28" xlink:href="#linear-gradient-43"/><linearGradient id="linear-gradient-64" x1="447.02" y1="359.5" x2="509.61" y2="359.5" gradientUnits="userSpaceOnUse"><stop offset="0" stop-color="#34302e"/><stop offset="1" stop-color="#1c1714"/></linearGradient><linearGradient id="linear-gradient-65" x1="510.54" y1="356.99" x2="490.06" y2="344.44" gradientUnits="userSpaceOnUse"><stop offset="0" stop-color="#3f3c3a"/><stop offset="1" stop-color="#1c1714"/></linearGradient><linearGradient id="linear-gradient-66" x1="475.36" y1="365.08" x2="446.02" y2="353.48" xlink:href="#linear-gradient-65"/><linearGradient id="linear-gradient-67" x1="114.04" y1="389.9" x2="304.39" y2="389.9" gradientUnits="userSpaceOnUse"><stop offset="0" stop-color="#9e8032"/><stop offset="0.14" stop-color="#a18336"/><stop offset="0.27" stop-color="#aa8e41"/><stop offset="0.39" stop-color="#b9a053"/><stop offset="0.51" stop-color="#cfb96d"/><stop offset="0.61" stop-color="#e6d48a"/><stop offset="0.67" stop-color="#d8c174"/><stop offset="0.75" stop-color="#c6a958"/><stop offset="0.83" stop-color="#b89743"/><stop offset="0.91" stop-color="#b18d37"/><stop offset="0.99" stop-color="#ae8933"/></linearGradient><linearGradient id="linear-gradient-68" x1="76.81" y1="385.97" x2="245.88" y2="385.97" xlink:href="#linear-gradient-67"/></defs><title>Asset 2</title><g class="cls-1"><g id="Layer_2" data-name="Layer 2"><g id="Layer_1-2" data-name="Layer 1"><polygon class="cls-2" points="339.13 463.37 156.99 347.98 219.89 314.98 404.81 422.89 339.13 463.37"/><path class="cls-3" d="M537.84,144.55a39.93,39.93,0,0,0-1.76-12.15,28.3,28.3,0,0,0-1.3-3.32c-.25-.52-.5-1-.77-1.52a20.17,20.17,0,0,0-7.49-7.84L329.47,5.21c7,4,11.28,12.63,11.32,24.82l0,16.48L537.88,161Z"/><path class="cls-4" d="M528.1,117.27,331.05,2.76l-.23-.13-.27-.13c-.49-.27-1-.51-1.5-.73a2.44,2.44,0,0,0-.28-.14,2,2,0,0,0-.26-.09c-.57-.23-1.14-.44-1.74-.62a1.15,1.15,0,0,1-.17-.06h0c-.66-.19-1.35-.34-2.05-.47l-.22,0-.94-.14a1.81,1.81,0,0,1-.23,0c-.43,0-.88-.09-1.33-.12h-.69c-.4,0-.8,0-1.2,0h-.85c-.31,0-.62,0-.93.07l-.48,0c-.56.05-1.13.12-1.7.21h-.06l-.61.11c-.43.08-.85.15-1.29.25l-.76.18-1,.24-.17,0c-.75.21-1.5.44-2.27.7l-.14.06c-.72.25-1.45.53-2.18.83l-.2.07c-.53.22-1.06.46-1.59.7l-.32.15c-.54.25-1.08.52-1.63.8l-.52.27c-.65.34-1.29.69-2,1.07S300,6.6,299.36,7l-.6.39-1.31.9-.66.47c-.43.31-.86.63-1.28,1l-.6.45c-.55.43-1.11.88-1.66,1.33l-.16.14c-.6.5-1.2,1-1.79,1.55l-.53.48-1.24,1.15-.61.59-.51.48-.43.45c-.44.44-.87.88-1.3,1.33l-.76.8q-.68.74-1.35,1.5l-.48.54c-.06.06-.11.13-.17.2-.26.29-.5.59-.76.89l-.94,1.13-.75.94-.67.83-.15.21c-.81,1.05-1.6,2.12-2.36,3.21a2.92,2.92,0,0,0-.21.28c-.1.13-.18.27-.27.4q-1,1.48-2,3a1.3,1.3,0,0,0-.1.15l0,0c-.65,1-1.27,2.05-1.89,3.09-.07.13-.15.24-.22.37s-.16.3-.25.44c-.51.9-1,1.8-1.5,2.7-.07.12-.14.24-.2.36a.47.47,0,0,0-.05.1C271,39.91,270.48,41,270,42l-.15.31c-.08.16-.15.33-.23.49-.42.88-.82,1.76-1.21,2.64-.07.17-.15.33-.22.49l-.09.21c-.47,1.09-.91,2.19-1.34,3.29a2.72,2.72,0,0,1-.11.25c-.05.15-.1.31-.16.46q-.58,1.55-1.11,3.09l-.15.41s0,.1,0,.16c-.42,1.24-.79,2.49-1.15,3.74,0,.12-.08.25-.11.38l-.18.67-.3,1.14-.33,1.35c-.09.38-.17.76-.26,1.14,0,.17-.08.35-.12.53l-.12.64c-.12.56-.22,1.12-.33,1.69l-.18,1.09c-.1.57-.18,1.14-.26,1.7,0,.24-.08.48-.11.71s0,.28,0,.42l-.09.83c-.06.51-.11,1-.15,1.51,0,.28-.05.56-.07.84q-.06.78-.09,1.56c0,.24,0,.49,0,.73,0,.75,0,1.5,0,2.24l.54,160.67c0,.7,0,1.41,0,2.12l0,.67-.09,1.5c0,.26,0,.51-.07.76q-.06.75-.15,1.5c0,.24,0,.47-.08.7s-.1.7-.14,1c-.08.52-.15,1-.24,1.55-.06.35-.12.7-.19,1.06s-.18,1-.29,1.5-.17.82-.26,1.23-.15.67-.23,1-.22.9-.34,1.35-.16.65-.25,1l-.21.75c-.31,1.07-.63,2.14-1,3.21l-.14.41c-.35,1.07-.74,2.13-1.14,3.19-.1.27-.21.53-.31.8-.33.85-.68,1.7-1,2.54-.09.21-.17.41-.26.61-.43,1-.88,2-1.35,3l-.35.7c-.38.78-.77,1.55-1.17,2.32l-.42.8c-.52,1-1.06,1.93-1.61,2.89l-.14.22c-.53.92-1.09,1.82-1.66,2.72-.15.25-.31.49-.47.74-.65,1-1.31,2-2,3l-.12.16c-.73,1-1.48,2.05-2.25,3l-.4.53q-1.37,1.74-2.79,3.4l-.51.59-1.46,1.62-.51.55c-.67.71-1.34,1.4-2,2.07s-1.13,1.1-1.71,1.64L234,296l-1.46,1.31-.62.52c-.39.34-.78.67-1.18,1l-.7.56-1.14.89-.73.55-1.16.83-.71.51L225,303l-.62.41c-.64.4-1.28.79-1.92,1.16s-1.46.79-2.19,1.14l-.68.33c-.5.23-1,.46-1.49.67l-.77.32c-.47.19-1,.37-1.42.54l-.72.26c-.54.18-1.08.34-1.61.49l-.47.14-.66.16c-.36.09-.72.18-1.08.25l-.71.13c-.34.06-.68.13-1,.17l-.55.07-1,.12-.59,0c-.36,0-.71,0-1.06,0H206c-.5,0-1,0-1.48,0-.7-.05-1.39-.14-2.06-.24l-.53-.1c-.58-.11-1.16-.24-1.72-.39l-.22-.06a18.65,18.65,0,0,1-1.82-.64l-.45-.2c-.51-.22-1-.46-1.48-.72l-.44-.23h0l197,114.51.21.12.23.11c.48.27,1,.51,1.48.73.09,0,.17.09.26.12l.19.07c.6.24,1.2.46,1.82.64l.05,0,.17,0c.57.16,1.14.29,1.73.4l.27.06.25,0a19.84,19.84,0,0,0,2.07.24h0c.48,0,1,0,1.47,0h1.07l.44,0,.59,0,1.05-.11.55-.07.22,0,.79-.14.71-.13,1.08-.26.66-.16.09,0c.13,0,.26-.08.38-.12.54-.15,1.07-.31,1.61-.49l.73-.26c.47-.17.94-.34,1.41-.54l.42-.15.35-.16c.49-.21,1-.44,1.49-.68l.68-.32c.73-.36,1.46-.74,2.19-1.15s1.29-.76,1.92-1.16l.62-.4c.43-.28.86-.56,1.28-.85l.71-.5c.39-.28.78-.55,1.17-.84l.73-.55c.38-.29.76-.58,1.13-.88l.7-.56c.4-.33.8-.66,1.19-1l.61-.52,1.47-1.32.29-.26c.54-.5,1.08-1,1.62-1.55l.08-.08c.68-.68,1.36-1.37,2-2.07l.51-.56c.5-.53,1-1.07,1.47-1.62.08-.1.18-.2.27-.3s.15-.19.23-.29c.95-1.1,1.89-2.23,2.79-3.39l.15-.18.25-.35c.77-1,1.52-2,2.25-3l.09-.13,0,0c.68-1,1.34-2,2-3l.24-.35c.08-.13.15-.26.24-.39.56-.89,1.12-1.8,1.65-2.71l.12-.18,0-.05c.56-.95,1.09-1.92,1.61-2.89l.18-.32.24-.48c.4-.77.8-1.54,1.18-2.31.07-.17.16-.33.24-.49a1.47,1.47,0,0,0,.1-.22c.47-1,.92-2,1.35-2.95l.08-.17c.07-.15.12-.3.18-.44.36-.85.71-1.69,1-2.55.06-.15.13-.31.19-.47s.08-.22.12-.32c.4-1.07.79-2.13,1.15-3.2a.76.76,0,0,1,0-.11l.09-.3c.35-1.07.67-2.14,1-3.21,0-.13.09-.27.12-.41l.09-.33c.09-.33.17-.65.25-1s.24-.91.34-1.36.16-.66.23-1l.18-.76c0-.16.05-.32.09-.48.1-.5.19-1,.29-1.5s.13-.7.18-1.05c.09-.52.16-1,.24-1.55,0-.25.08-.5.11-.75l0-.29c0-.24.06-.47.08-.7.06-.5.11-1,.16-1.5l.06-.77c0-.5.07-1,.09-1.49,0-.23,0-.45,0-.67,0-.72,0-1.42,0-2.13l-.54-160.66c0-.75,0-1.5,0-2.25,0-.24,0-.48,0-.72l.09-1.57c0-.28.05-.55.07-.83l.15-1.52c0-.27.06-.55.1-.82s.1-.76.15-1.13c.08-.57.16-1.14.26-1.71.06-.36.12-.73.19-1.09.1-.56.21-1.13.32-1.69.08-.39.16-.78.25-1.17s.17-.76.26-1.14.21-.89.32-1.34l.3-1.15.3-1c.35-1.25.73-2.49,1.14-3.74l.19-.57q.53-1.55,1.11-3.09l.27-.71c.43-1.1.88-2.2,1.35-3.29.09-.23.2-.46.3-.69.39-.88.79-1.76,1.21-2.64l.38-.81c.52-1,1-2.09,1.59-3.13l.24-.45c.49-.91,1-1.81,1.51-2.7.16-.27.32-.54.47-.81.62-1,1.24-2.08,1.89-3.09,0-.07.09-.13.13-.19.65-1,1.32-2,2-3l.48-.69c.77-1.09,1.55-2.16,2.36-3.2l.82-1.05.75-.94c.31-.38.63-.75.94-1.12l.76-.9.66-.74c.44-.5.89-1,1.35-1.49l.75-.8c.43-.45.87-.9,1.31-1.34s.61-.62.92-.92l.62-.6,1.24-1.14.53-.49c.59-.53,1.19-1,1.79-1.55l.18-.14c.54-.45,1.09-.89,1.64-1.33l.6-.45,1.28-1,.66-.48,1.31-.89.6-.4c.63-.41,1.27-.81,1.91-1.19s1.31-.73,1.95-1.07l.52-.27c.55-.28,1.09-.55,1.63-.8l.32-.15c.6-.28,1.2-.54,1.79-.78s1.46-.58,2.18-.83l.14,0c.77-.27,1.52-.5,2.27-.7.39-.11.77-.2,1.16-.29l.75-.19,1.29-.24.61-.11c.59-.1,1.18-.17,1.76-.22l.48,0c.42,0,.85-.06,1.26-.07H517c.4,0,.81,0,1.2,0l.47,0c.52,0,1,.07,1.56.13l.22,0c.39.05.78.12,1.16.19a19.12,19.12,0,0,1,2.05.47l.21.07c.6.18,1.18.38,1.74.61l.54.23c.51.22,1,.47,1.5.73l.5.26h0Z"/><path class="cls-5" d="M379.17,397.14l-.07-21.82-197-114.51.06,21.82c0,13,4.62,22.32,12.11,26.68L391.28,423.82C383.78,419.47,379.2,410.16,379.17,397.14Z"/><path class="cls-6" d="M498.32,120.34c23.17-13.39,41.56-2.91,41.63,23l0,16.48L537.88,161l0-16.48C537.77,120,520.33,110.07,499,122.4c-21.86,13-38.69,43.13-38.62,67.56l.54,160.71c.07,25.89-18.2,57.54-40.74,70.55-23,12.91-40.91,1.69-41-24.08l-.07-21.82,2.13-1.22.06,21.85c.07,24.44,17,35.07,38.26,23.17,22-12.68,39.29-42.67,39.22-67.23l-.54-160.66C458.16,165.46,475.91,133.67,498.32,120.34Z"/><polygon class="cls-7" points="379.1 375.32 182.05 260.81 184.17 259.58 381.23 374.1 379.1 375.32"/><polygon class="cls-8" points="281.07 79.12 281.07 91.13 437.58 181.71 437.58 169.7 281.07 79.12"/><polygon class="cls-8" points="397.19 170.92 281.07 103.71 281.07 109.72 397.19 176.93 397.19 170.92"/><polygon class="cls-8" points="397.19 187.75 281.07 120.55 281.07 126.56 397.19 193.77 397.19 187.75"/><polygon class="cls-8" points="397.19 204.59 281.07 137.38 281.07 143.4 397.19 210.6 397.19 204.59"/><polygon class="cls-8" points="281.07 202.02 281.07 214.03 437.58 304.61 437.58 292.6 281.07 202.02"/><polygon class="cls-8" points="397.19 293.82 281.07 226.61 281.07 232.62 397.19 299.83 397.19 293.82"/><polygon class="cls-8" points="397.19 310.65 281.07 243.45 281.07 249.46 397.19 316.67 397.19 310.65"/><polygon class="cls-8" points="397.19 327.49 281.07 260.28 281.07 266.3 397.19 333.5 397.19 327.49"/><polygon class="cls-8" points="397.19 221.43 281.07 154.22 281.07 160.23 397.19 227.44 397.19 221.43"/><polygon class="cls-8" points="397.19 238.27 281.07 171.06 281.07 177.07 397.19 244.28 397.19 238.27"/><path class="cls-9" d="M446,207.51c-19.59-11.31-35.52-2.23-35.59,20.29S426.2,277.73,445.79,289s35.53,2.23,35.6-20.28S465.62,218.82,446,207.51Z"/><path class="cls-10" d="M495,259.16c0-.57-.05-1.14-.08-1.71,0-.26-.05-.53-.07-.79s0-.22,0-.34,0-.4,0-.6c-.06-.57-.12-1.15-.19-1.73s-.16-1.19-.26-1.79a.11.11,0,0,0,0,0,.13.13,0,0,0,0-.06c-.09-.56-.18-1.12-.29-1.68s-.24-1.23-.37-1.85c-.05-.22-.11-.44-.16-.66l-.09-.38c-.06-.27-.12-.55-.19-.82-.15-.62-.32-1.25-.49-1.88-.13-.46-.27-.92-.4-1.38a2.17,2.17,0,0,1-.07-.24c0-.09-.05-.17-.08-.25-.19-.62-.38-1.23-.59-1.84s-.41-1.2-.63-1.81l-.12-.34a2.6,2.6,0,0,1-.1-.25c-.14-.38-.28-.76-.43-1.14-.22-.58-.45-1.15-.69-1.73-.17-.41-.35-.82-.53-1.24l-.09-.21-.11-.24q-.37-.85-.78-1.71c-.29-.63-.59-1.25-.9-1.87l-.15-.29-.19-.36c-.25-.5-.5-1-.76-1.48s-.68-1.22-1-1.83l-.51-.92c-.08-.12-.14-.25-.21-.37-.31-.53-.66-1-1-1.56-.47-.76-.93-1.53-1.43-2.27-.07-.12-.14-.25-.22-.36-.73-1.09-1.48-2.16-2.25-3.2-.52-.7-1-1.39-1.58-2.07s-.87-1.1-1.32-1.64l0,0v0c-.46-.54-.91-1.07-1.38-1.6s-.91-1-1.38-1.53l-.23-.24-.23-.25-1-1c-.49-.5-1-1-1.49-1.48l-.47-.43-.35-.33c-.25-.23-.49-.47-.74-.69-.52-.47-1-.93-1.58-1.38l-.7-.57-.35-.29c-.18-.14-.35-.29-.53-.42-.51-.41-1-.81-1.55-1.19l-1.14-.81-.21-.15-.2-.14-1.5-1c-.5-.32-1-.63-1.5-.92l-.35-.21-1.13-.63-1.45-.75c-.32-.16-.63-.3-.94-.44l-.22-.11-.28-.13-1.42-.6-1.43-.54-.24-.08-.22-.07c-.32-.11-.65-.22-1-.31-.49-.15-1-.29-1.47-.41l-.7-.15-.3-.07-.45-.1c-.53-.1-1-.19-1.56-.26-.31,0-.62-.06-.93-.09l-.33,0-.31,0c-.57,0-1.12,0-1.67,0-.24,0-.47,0-.71,0l-.56,0c-.19,0-.38,0-.57,0a18.9,18.9,0,0,0-2,.29h0c-.15,0-.28.09-.42.12a16.67,16.67,0,0,0-2,.55c-.06,0-.1.06-.16.08a17.37,17.37,0,0,0-2.7,1.24h0l-13.64,8a17.68,17.68,0,0,1,2.72-1.26,19.33,19.33,0,0,1,2.17-.62l.42-.12a19.14,19.14,0,0,1,2.66-.33c.18,0,.37,0,.55,0a24.51,24.51,0,0,1,2.7,0l.33,0a26.21,26.21,0,0,1,2.94.45l.3.07a28.19,28.19,0,0,1,3.12.87l.23.07q1.65.57,3.36,1.35l.23.11c1.16.54,2.33,1.14,3.51,1.82s2.39,1.45,3.55,2.26l.22.15c1.09.76,2.16,1.57,3.21,2.42l.36.29c1,.84,2,1.72,3,2.64l.36.32q1.5,1.42,2.94,2.94l.24.26q1.54,1.64,3,3.39l0,0c1,1.2,2,2.43,2.89,3.69h0l0,0c.85,1.15,1.66,2.33,2.45,3.53.5.75,1,1.51,1.43,2.28s.8,1.26,1.18,1.91l.53.94c.61,1.09,1.21,2.18,1.78,3.29.06.13.13.25.19.37.68,1.36,1.33,2.72,1.93,4.1,0,.08.07.16.1.23.59,1.35,1.13,2.72,1.64,4.08,0,.1.07.19.11.28.51,1.4,1,2.81,1.41,4.22,0,.08.05.17.08.26.4,1.35.76,2.71,1.08,4.06l.09.4c.32,1.39.6,2.78.82,4.16,0,0,0,.06,0,.08q.33,2.1.51,4.17c0,.11,0,.23,0,.34.11,1.38.17,2.75.17,4.1s-.07,2.64-.19,3.89l0,.34c-.12,1.15-.28,2.25-.49,3.31,0,.14-.05.28-.08.42-.21,1-.47,2-.76,2.95l-.18.52a26.07,26.07,0,0,1-1,2.53l-.12.28a23.14,23.14,0,0,1-1.41,2.56,19.92,19.92,0,0,1-2.46,3c-.21.22-.44.43-.66.64a17.26,17.26,0,0,1-3,2.28h0l13.64-8a17.26,17.26,0,0,0,3-2.28c.23-.21.45-.42.66-.64a19.92,19.92,0,0,0,2.46-3l0-.05a22.42,22.42,0,0,0,1.33-2.42.36.36,0,0,0,0-.09c0-.09.08-.18.11-.27.25-.54.49-1.08.7-1.66.11-.28.2-.59.3-.88s.11-.34.17-.52.11-.31.15-.47c.18-.58.33-1.19.48-1.81.05-.22.08-.45.13-.67l.09-.42c0-.22.09-.42.13-.64.09-.56.18-1.12.25-1.7,0-.32.07-.65.1-1l0-.33c0-.14,0-.27,0-.41.05-.55.08-1.1.11-1.67s0-1.13,0-1.71v-.11C495,260.23,495,259.7,495,259.16Z"/><path class="cls-11" d="M446,207.51c-8.76-5.06-16.77-6-23-3.54,6.07-2,13.72-.92,22,3.88,19.59,11.31,35.42,38.74,35.36,61.25,0,12.45-4.94,20.76-12.61,23.82,8.21-2.74,13.52-11.21,13.56-24.16C481.45,246.25,465.62,218.82,446,207.51Z"/><path class="cls-12" d="M459.93,238.44a2.78,2.78,0,0,0-2.8-.28l-20,11.4-4.28-7.31a8.15,8.15,0,0,0-2.79-2.93,2.86,2.86,0,0,0-2.8-.3c-1.52.9-1.53,3.76,0,6.42l7,12.11a8.12,8.12,0,0,0,2.81,3,2.79,2.79,0,0,0,2.78.26l22.82-13c1.52-.87,1.53-3.76,0-6.38a8,8,0,0,0-2.79-2.95"/><path class="cls-13" d="M458.92,239.58a2.8,2.8,0,0,0-2.8-.27l-20,11.39-4.27-7.3a8.15,8.15,0,0,0-2.79-2.93,2.86,2.86,0,0,0-2.8-.3c-1.52.9-1.53,3.76,0,6.42l7,12.11a8.28,8.28,0,0,0,2.81,3,2.79,2.79,0,0,0,2.78.26l22.82-13c1.53-.87,1.53-3.76,0-6.39a8.14,8.14,0,0,0-2.79-2.95"/><polygon class="cls-14" points="59.63 263.72 20.53 236.28 62.03 212.63 105.37 237.65 59.63 263.72"/><polygon class="cls-15" points="116.04 189.9 109.49 192.54 102.72 197.99 112.06 203.16 118.39 201.04 125.38 195.07 116.04 189.9"/><polygon class="cls-16" points="110.64 224.2 103.28 227.99 97.33 232.29 104.47 243.23 110.03 240.4 117.78 235.14 110.64 224.2"/><polygon class="cls-17" points="66.88 235.5 68.88 246.68 82.2 238.59 81.46 228.31 66.88 235.5"/><polygon class="cls-18" points="13.41 133.1 0.1 141.19 9.44 146.36 22.75 138.27 13.41 133.1"/><path class="cls-19" d="M76.82,213.79,89.94,203c-6.28,3.83-14.7.49-20.64-3.43a57.61,57.61,0,0,1-15.16-15.34c-5.16-7.47-9.31-16.51-10.07-25.4-.53-6.25.62-13.31,6-16.59l-15.45,7.49C10,165.05,52.2,229.18,76.82,213.79Z"/><path class="cls-20" d="M104.47,243.23a23.57,23.57,0,0,1-4.47,3.52l13.32-8.09a23.09,23.09,0,0,0,2.33-1.62,23.72,23.72,0,0,0,2.13-1.9Z"/><polygon class="cls-21" points="32.34 104.11 19.02 112.2 26.23 125.16 39.48 115.05 32.34 104.11"/><path class="cls-22" d="M19,112.2l13.32-8.09a25.21,25.21,0,0,0-5.64,2.49l-13.31,8.09A24.69,24.69,0,0,1,19,112.2Z"/><path class="cls-23" d="M117.27,207l-14.65,6.3c-.52,6.2-1.16,14.45-5.29,19l13.32-8.09C114.78,219.64,116.76,213.22,117.27,207Z"/><path class="cls-24" d="M45.24,125.05,58.56,117c-6.08-2.3-13-3.45-19.08-1.91l-13.32,8.09C32.29,121.61,39.17,122.76,45.24,125.05Z"/><path class="cls-25" d="M102.72,198,116,189.9a99.42,99.42,0,0,0-9.75-26.27l-15.8,6.75C94.86,178.6,100.88,189,102.72,198Z"/><polygon class="cls-26" points="58.46 122.52 60.76 133.64 74.07 125.55 73.33 115.25 58.46 122.52"/><path class="cls-27" d="M60,123.34l13.31-8.09a81.11,81.11,0,0,0-15.51-8.59L44.5,114.75A82,82,0,0,1,60,123.34Z"/><path class="cls-28" d="M81.14,153.57,91,152.1l3.49-6.62a104.85,104.85,0,0,0-20.38-19.93l-13.31,8.09A105.13,105.13,0,0,1,81.14,153.57Z"/><path class="cls-29" d="M99.07,168.1,112.38,160a144.88,144.88,0,0,0-11.84-18.15L87.23,150A148.67,148.67,0,0,1,99.07,168.1Z"/><path class="cls-30" d="M58.76,209.36c-14.37-8-26.93-27.21-28.07-43s9.58-22.2,24-14.25,26.92,27.22,28.06,43-9.59,22.2-23.94,14.25Zm53.3-6.2L102.72,198A99.8,99.8,0,0,0,93,171.72l6.09-3.62A148.26,148.26,0,0,0,87.23,150l-6.09,3.62a104.48,104.48,0,0,0-20.38-19.93L60,123.34q-3.85-2.67-7.8-4.87a74,74,0,0,0-7.72-3.72l.74,10.3c-7.17-2.7-13.66-3.27-19.08-1.91L19,112.2a23.74,23.74,0,0,0-10.1,6l7.14,10.94c-3.67,4-6,9.87-6.62,17.21L.1,141.19a63.56,63.56,0,0,0,.08,8.25,81.1,81.1,0,0,0,1.15,8.84l9.34,5.17a98.84,98.84,0,0,0,9.74,26.27l-6.09,3.62A146.46,146.46,0,0,0,26.16,211.5l6.09-3.63a104.55,104.55,0,0,0,20.38,19.94l.74,10.29a87.64,87.64,0,0,0,7.8,4.88,69.77,69.77,0,0,0,7.71,3.7l-.74-10.29c7.18,2.71,13.67,3.27,19.09,1.91l7.13,10.95a23.85,23.85,0,0,0,10.11-6l-7.14-10.94c3.67-4,6-9.86,6.62-17.21l9.34,5.17a63.56,63.56,0,0,0-.08-8.25A81.42,81.42,0,0,0,112.06,203.16Z"/><path class="cls-31" d="M125.38,195.07l-13.32,8.09a72.47,72.47,0,0,1,1.23,17.09l13.32-8.09A71.91,71.91,0,0,0,125.38,195.07Z"/><polygon class="cls-32" points="42.64 369.89 13.96 349.75 44.41 332.39 76.21 350.75 42.64 369.89"/><polygon class="cls-33" points="89.78 312.51 84.82 314.51 79.69 318.64 86.77 322.56 91.56 320.95 96.85 316.43 89.78 312.51"/><polygon class="cls-34" points="85.69 338.49 80.11 341.37 75.61 344.62 81.01 352.91 85.23 350.76 91.1 346.78 85.69 338.49"/><polygon class="cls-35" points="52.54 347.05 54.06 355.52 64.14 349.4 63.58 341.6 52.54 347.05"/><polygon class="cls-36" points="12.04 269.49 1.96 275.62 9.03 279.53 19.11 273.41 12.04 269.49"/><path class="cls-19" d="M60.07,330.61,70,322.44c-4.76,2.9-11.14.38-15.63-2.59a43.54,43.54,0,0,1-11.49-11.63c-3.91-5.65-7-12.5-7.63-19.23-.4-4.74.48-10.09,4.56-12.57l-11.7,5.67C9.47,293.69,41.42,342.26,60.07,330.61Z"/><path class="cls-37" d="M81,352.91a18.39,18.39,0,0,1-3.38,2.67l10.09-6.13a16.33,16.33,0,0,0,1.76-1.23,16.85,16.85,0,0,0,1.62-1.44Z"/><polygon class="cls-38" points="26.38 247.53 16.29 253.66 21.75 263.47 31.78 255.82 26.38 247.53"/><path class="cls-39" d="M16.29,253.66l10.09-6.13a18.38,18.38,0,0,0-4.27,1.89L12,255.55A18.34,18.34,0,0,1,16.29,253.66Z"/><path class="cls-40" d="M90.71,325.46l-11.1,4.77c-.39,4.7-.88,10.95-4,14.39l10.08-6.13C88.82,335,90.32,330.18,90.71,325.46Z"/><path class="cls-41" d="M36.15,263.39l10.09-6.13c-4.61-1.74-9.82-2.61-14.46-1.44L21.7,261.94C26.34,260.78,31.55,261.66,36.15,263.39Z"/><path class="cls-42" d="M79.69,318.64l10.09-6.13a75.67,75.67,0,0,0-7.39-19.9l-12,5.11C73.74,304,78.3,311.84,79.69,318.64Z"/><polygon class="cls-43" points="46.16 261.47 47.9 269.89 57.99 263.77 57.43 255.97 46.16 261.47"/><path class="cls-44" d="M47.34,262.09,57.43,256a61.37,61.37,0,0,0-11.75-6.51l-10.09,6.13A61.87,61.87,0,0,1,47.34,262.09Z"/><path class="cls-45" d="M63.34,285l7.44-1.11,2.65-5A79.16,79.16,0,0,0,58,263.77L47.9,269.89A79.74,79.74,0,0,1,63.34,285Z"/><path class="cls-46" d="M76.92,296,87,289.87a111.43,111.43,0,0,0-9-13.75L68,282.25A111.43,111.43,0,0,1,76.92,296Z"/><path class="cls-30" d="M46.39,327.26c-10.88-6-20.4-20.62-21.26-32.6s7.26-16.82,18.14-10.8,20.39,20.62,21.25,32.6-7.26,16.81-18.13,10.8Zm40.37-4.7-7.07-3.92a75.7,75.7,0,0,0-7.38-19.9L76.92,296a110.29,110.29,0,0,0-9-13.75L63.34,285a79.46,79.46,0,0,0-15.44-15.1l-.56-7.8c-1.94-1.34-3.91-2.58-5.9-3.69a57.28,57.28,0,0,0-5.85-2.81l.56,7.8c-5.43-2-10.35-2.48-14.45-1.44l-5.41-8.29a17.86,17.86,0,0,0-7.65,4.55l5.4,8.28c-2.77,3.07-4.54,7.48-5,13L2,275.62A50.35,50.35,0,0,0,2,281.86a63.39,63.39,0,0,0,.87,6.7L10,292.48a75.16,75.16,0,0,0,7.38,19.89l-4.61,2.75a110.29,110.29,0,0,0,9,13.75l4.61-2.74a79.17,79.17,0,0,0,15.44,15.1l.56,7.79a66.53,66.53,0,0,0,5.91,3.7,54.07,54.07,0,0,0,5.84,2.8l-.56-7.79c5.43,2,10.35,2.48,14.45,1.45l5.41,8.29A18,18,0,0,0,81,352.91l-5.4-8.29c2.77-3.06,4.54-7.47,5-13l7.07,3.91a46.91,46.91,0,0,0-.06-6.25A58.68,58.68,0,0,0,86.76,322.56Z"/><path class="cls-47" d="M96.85,316.43l-10.09,6.13a54.31,54.31,0,0,1,.93,12.94l10.09-6.13A54.31,54.31,0,0,0,96.85,316.43Z"/><path class="cls-19" d="M45.49,320.26c-7-3.9-13.2-13.34-13.76-21.1-.18-2.5-5.39-1.91-4.5-3.37.57-.92,10.16-6.1,11.07-6.55,2.1-1,5-.77,8.36,1.07,7,3.89,13.2,13.34,13.75,21.1.27,3.73-.8,6.39-2.78,7.71-.63.42-10.18,6.19-11,6.33C44.75,325.78,48.06,321.68,45.49,320.26Z"/><path class="cls-48" d="M38.88,324.12c-7-3.9-13.2-13.35-13.75-21.1s4.69-10.89,11.74-7,13.2,13.34,13.75,21.1S45.92,328,38.88,324.12Z"/><polygon class="cls-49" points="128.99 334.64 111.27 322.21 130.08 311.49 149.72 322.83 128.99 334.64"/><polygon class="cls-50" points="158.1 299.21 155.04 300.45 151.87 303 156.24 305.41 159.19 304.42 162.47 301.63 158.1 299.21"/><polygon class="cls-51" points="155.57 315.25 152.13 317.03 149.34 319.04 152.68 324.16 155.29 322.83 158.91 320.38 155.57 315.25"/><polygon class="cls-52" points="135.1 320.54 136.04 325.77 142.27 321.99 141.92 317.18 135.1 320.54"/><polygon class="cls-53" points="110.09 272.64 103.86 276.43 108.23 278.84 114.46 275.06 110.09 272.64"/><path class="cls-19" d="M139.75,310.38l6.14-5c-2.94,1.8-6.88.23-9.65-1.6a26.94,26.94,0,0,1-7.1-7.18,25.69,25.69,0,0,1-4.71-11.88c-.25-2.92.29-6.23,2.82-7.76L120,280.43C108.5,287.58,128.23,317.58,139.75,310.38Z"/><path class="cls-54" d="M152.68,324.16a10.7,10.7,0,0,1-2.09,1.65l6.23-3.79a9.22,9.22,0,0,0,1.09-.76,10.49,10.49,0,0,0,1-.88Z"/><polygon class="cls-55" points="118.94 259.08 112.71 262.86 116.09 268.92 122.28 264.2 118.94 259.08"/><path class="cls-56" d="M112.71,262.86l6.23-3.78a11.69,11.69,0,0,0-2.63,1.16L110.08,264A11.92,11.92,0,0,1,112.71,262.86Z"/><path class="cls-57" d="M158.67,307.21l-6.85,2.94c-.24,2.9-.54,6.76-2.47,8.89l6.22-3.78A13.66,13.66,0,0,0,158.67,307.21Z"/><path class="cls-58" d="M125,268.87l6.23-3.78a15.39,15.39,0,0,0-8.93-.89L116.05,268A15.38,15.38,0,0,1,125,268.87Z"/><path class="cls-59" d="M151.87,303l6.23-3.79a46.52,46.52,0,0,0-4.56-12.29l-7.39,3.16C148.19,293.93,151,298.79,151.87,303Z"/><polygon class="cls-60" points="131.16 267.69 132.24 272.89 138.47 269.11 138.12 264.29 131.16 267.69"/><path class="cls-61" d="M131.89,268.07l6.23-3.78a38.73,38.73,0,0,0-7.26-4l-6.23,3.79A37.82,37.82,0,0,1,131.89,268.07Z"/><path class="cls-62" d="M141.77,282.22l4.6-.69,1.63-3.1a48.92,48.92,0,0,0-9.53-9.32l-6.23,3.78A49.25,49.25,0,0,1,141.77,282.22Z"/><path class="cls-63" d="M150.16,289l6.23-3.78a68.71,68.71,0,0,0-5.54-8.49l-6.23,3.78A69.06,69.06,0,0,1,150.16,289Z"/><path class="cls-30" d="M131.3,308.32c-6.72-3.72-12.59-12.73-13.13-20.14s4.49-10.38,11.2-6.66,12.6,12.73,13.13,20.13S138,312,131.3,308.32Zm24.94-2.91L151.87,303a46.45,46.45,0,0,0-4.56-12.29l2.85-1.7a69.06,69.06,0,0,0-5.54-8.49l-2.85,1.7a48.81,48.81,0,0,0-9.53-9.33l-.35-4.82c-1.2-.83-2.42-1.59-3.65-2.27a32,32,0,0,0-3.61-1.74l.35,4.81a15.08,15.08,0,0,0-8.93-.89l-3.34-5.12a11,11,0,0,0-4.72,2.82l3.34,5.11a13.44,13.44,0,0,0-3.1,8l-4.37-2.41a29.33,29.33,0,0,0,0,3.85,37.88,37.88,0,0,0,.54,4.14l4.36,2.42a46.61,46.61,0,0,0,4.56,12.28l-2.85,1.7a69.46,69.46,0,0,0,5.54,8.49l2.85-1.69a49,49,0,0,0,9.53,9.32l.35,4.82c1.2.83,2.42,1.6,3.65,2.28a32.69,32.69,0,0,0,3.61,1.73l-.35-4.81a15.08,15.08,0,0,0,8.93.89L148,327a11,11,0,0,0,4.72-2.81L149.35,319a13.44,13.44,0,0,0,3.09-8.05l4.37,2.42a29.47,29.47,0,0,0,0-3.86A37.82,37.82,0,0,0,156.24,305.41Z"/><path class="cls-64" d="M162.47,301.63l-6.23,3.78a34.28,34.28,0,0,1,.57,8l6.23-3.79A33.66,33.66,0,0,0,162.47,301.63Z"/><path class="cls-19" d="M130.75,304c-4.35-2.41-8.15-8.24-8.5-13-.11-1.54-3.33-1.18-2.78-2.08.35-.57,6.27-3.77,6.83-4,1.3-.65,3.11-.48,5.17.66,4.34,2.4,8.15,8.24,8.49,13,.17,2.3-.5,3.94-1.71,4.76-.39.26-6.29,3.82-6.79,3.91C130.29,307.4,132.33,304.87,130.75,304Z"/><path class="cls-65" d="M126.67,306.38c-4.35-2.41-8.16-8.24-8.5-13s2.9-6.73,7.25-4.32,8.15,8.24,8.5,13S131,308.78,126.67,306.38Z"/><polygon class="cls-66" points="420.25 496.04 403.06 482.56 436.72 463.37 467.3 467.66 420.25 496.04"/><path class="cls-67" d="M433.77,397.38c0,.18,0,.36.06.54s.08.3.12.44a4.42,4.42,0,0,0,.14.52c.05.14.12.28.18.42s.16.36.25.54.28.49.44.73l.09.11a7.38,7.38,0,0,0,.57.71,1.34,1.34,0,0,0,.11.14,9.86,9.86,0,0,0,.73.71c.16.15.35.29.53.44s.31.26.48.38l.62.41.66.43c.37.21.76.41,1.16.61l.32.15c.36.16.73.32,1.11.47l.14.06,1.24.43.89.25c.23.06.45.13.68.18l1,.21.65.13c.65.11,1.3.2,2,.27l.62,0c.39,0,.77.06,1.16.08l.75,0h.95l.79,0,.88,0,.79-.07.87-.1.77-.1.91-.16.72-.15,1.07-.26.69-.19.36-.11q.54-.17,1.05-.36l.3-.11c.31-.12.62-.25.92-.39l.45-.19c.43-.21.86-.43,1.26-.66l57.31-33.09c3.4-2,5.11-4.55,5.1-7.12v66c0,2.58-1.49,5.16-4.89,7.13l-57.31,33.08a13.85,13.85,0,0,1-1.27.66l-.45.2-.77.34-.14.05-.3.11c-.35.13-.69.25-1.05.36l-.37.11-.24.08-.44.11-1.07.26-.29.07-.43.07-.92.16-.36.07-.41,0-.86.1-.41,0-.39,0-.87.05-.44,0c-.12,0-.24,0-.35,0-.32,0-.63,0-.95,0h-.47l-.28,0-1.16-.08-.48,0-.14,0c-.66-.07-1.32-.16-2-.27l-.1,0c-.19,0-.37-.08-.55-.12s-.65-.12-1-.2l-.68-.18-.89-.26-.19-.05-1.05-.37-.14-.06c-.38-.15-.75-.31-1.11-.47l-.32-.15c-.4-.2-.79-.4-1.16-.62l-.21-.12-.45-.3c-.21-.13-.43-.27-.62-.41l-.48-.38c-.19-.15-.37-.29-.54-.44l-.1-.09c-.22-.21-.43-.41-.62-.63l-.12-.13c-.11-.13-.23-.26-.33-.39a3.19,3.19,0,0,1-.23-.32l-.09-.11c-.14-.2-.26-.4-.38-.6l-.06-.13c-.1-.18-.17-.36-.25-.54s-.11-.21-.15-.32l0-.1c-.06-.18-.1-.35-.15-.52s-.07-.23-.1-.35a.28.28,0,0,0,0-.09c0-.18,0-.36-.06-.55s0-.23,0-.35v-.15l-.21-66C433.73,397,433.76,397.21,433.77,397.38Z"/><path class="cls-68" d="M438.83,389.75l57.3-33.09c6.77-3.9,17.71-3.9,24.43,0s6.69,10.24-.08,14.15L463.17,403.9c-6.76,3.9-17.7,3.9-24.42,0S432.06,393.66,438.83,389.75Z"/><path class="cls-69" d="M509.55,344.51c0-13.41-6.53-19.14-10.4-21.37s-12.15-5-23.87,1.79c-15.9,9.18-28.31,30.68-28.26,49l.05,18.64a5.85,5.85,0,0,0,5.85,5.83h0a5.84,5.84,0,0,0,5.83-5.86l-.05-18.64c0-14,10.22-31.77,22.42-38.81,4.85-2.8,9.29-3.45,12.19-1.78s4.53,5.76,4.54,11.27l.06,18.64a5.84,5.84,0,0,0,5.84,5.83h0a5.86,5.86,0,0,0,5.83-5.87Z"/><path class="cls-70" d="M484.59,333.17c4.85-2.8,9.29-3.45,12.2-1.78s4.52,5.76,4.53,11.27l.06,25.53c0,.1,0,.21,0,.31a5.82,5.82,0,0,1-3.47-5.32l-.06-18.64c0-5.51-1.67-9.62-4.54-11.27-2.43-1.4-6-1.16-9.9.61C483.81,333.63,484.2,333.39,484.59,333.17Z"/><path class="cls-71" d="M475.28,324.93c.91-.53,1.8-1,2.67-1.41C462.44,333,450.43,354,450.48,372l0,25.84a5.86,5.86,0,0,1-3.46-5.32L447,373.89C447,355.61,459.38,334.11,475.28,324.93Z"/><path class="cls-13" d="M462,345.89a1.57,1.57,0,0,0,1.31-.72c5.16-8.05,9.21-12.4,14.47-15.52,4.12-2.44,12-6,18.81-2a1.56,1.56,0,1,0,1.56-2.7c-8.14-4.72-17.26-.73-22,2.06-5.72,3.39-10.06,8-15.5,16.52a1.55,1.55,0,0,0,.47,2.15A1.52,1.52,0,0,0,462,345.89Z"/><path class="cls-8" d="M499.3,420.7c0-4.59-3.26-6.45-7.26-4.14a15.92,15.92,0,0,0-7.21,12.49c0,3.54,1.95,5.44,4.66,5.07l0,10.29c0,1.65,1.17,2.31,2.6,1.48a5.67,5.67,0,0,0,2.58-4.47l0-10.29A16,16,0,0,0,499.3,420.7Z"/><path class="cls-72" d="M115.86,385.94a1.82,1.82,0,0,1-.91-3.39l9.46-5.47a1.82,1.82,0,0,1,1.82,3.15l-9.46,5.47A1.82,1.82,0,0,1,115.86,385.94Zm23.45-13.56a1.82,1.82,0,0,1-.91-3.39l9.46-5.47a1.82,1.82,0,0,1,1.83,3.15l-9.47,5.47A1.82,1.82,0,0,1,139.31,372.38Zm111.31,44.15a1.82,1.82,0,0,1-.91-3.4l9.46-5.46a1.82,1.82,0,1,1,1.82,3.15l-9.46,5.47A1.85,1.85,0,0,1,250.62,416.53Zm22.07-12.75a1.82,1.82,0,0,1-.91-3.4l9.46-5.47a1.82,1.82,0,0,1,1.82,3.15l-9.46,5.47A1.76,1.76,0,0,1,272.69,403.78ZM293.11,391a1.82,1.82,0,0,1-.91-3.4l9.46-5.47a1.82,1.82,0,0,1,1.82,3.15L294,390.77A1.76,1.76,0,0,1,293.11,391Z"/><path class="cls-73" d="M244.27,412.72a1.63,1.63,0,0,1-.82-.22l-8.38-4.86a1.62,1.62,0,0,1,1.63-2.81l8.38,4.87a1.62,1.62,0,0,1-.81,3ZM224.7,401.37a1.62,1.62,0,0,1-.81-.22l-8.38-4.86a1.62,1.62,0,0,1,1.63-2.81l8.38,4.87a1.62,1.62,0,0,1-.82,3ZM205.14,390a1.7,1.7,0,0,1-.81-.22l-8.39-4.87a1.62,1.62,0,0,1,1.63-2.8L206,387a1.63,1.63,0,0,1,.58,2.22A1.61,1.61,0,0,1,205.14,390Zm-19.56-11.36a1.66,1.66,0,0,1-.81-.21l-8.39-4.87a1.62,1.62,0,0,1,1.63-2.8l8.39,4.86a1.62,1.62,0,0,1-.82,3ZM166,367.31a1.72,1.72,0,0,1-.82-.21l-8.38-4.87a1.62,1.62,0,1,1,1.63-2.8l8.38,4.86a1.62,1.62,0,0,1-.81,3ZM106.37,382a1.72,1.72,0,0,1-.82-.21l-8.38-4.87a1.62,1.62,0,1,1,1.63-2.8l8.38,4.86a1.62,1.62,0,0,1-.81,3ZM86.81,370.63a1.63,1.63,0,0,1-.82-.22l-8.38-4.86a1.62,1.62,0,0,1,1.63-2.81l8.38,4.87a1.62,1.62,0,0,1-.81,3Z"/></g></g></g></svg>