<svg xmlns="http://www.w3.org/2000/svg" xmlns:xlink="http://www.w3.org/1999/xlink" viewBox="0 0 356.18 500"><defs><style>.cls-1{fill:url(#linear-gradient);}.cls-2{fill:url(#linear-gradient-2);}.cls-3{fill:url(#linear-gradient-3);}.cls-4{fill:url(#linear-gradient-4);}.cls-5{fill:url(#linear-gradient-5);}.cls-6{opacity:0.7;fill:url(#linear-gradient-6);}.cls-7{opacity:0.4;fill:url(#linear-gradient-7);}.cls-8{fill:url(#linear-gradient-8);}.cls-9{fill:url(#linear-gradient-9);}.cls-10{fill:#fff;opacity:0.5;}</style><linearGradient id="linear-gradient" x1="250.77" y1="463.2" x2="92.21" y2="318.86" gradientUnits="userSpaceOnUse"><stop offset="0" stop-color="#6b6565"/><stop offset="1" stop-color="#4c4242"/></linearGradient><linearGradient id="linear-gradient-2" x1="42.2" y1="326.88" x2="314.86" y2="326.88" gradientUnits="userSpaceOnUse"><stop offset="0" stop-color="#c9c8c9"/><stop offset="1" stop-color="#8c8a8b"/></linearGradient><linearGradient id="linear-gradient-3" x1="298.26" y1="326.88" x2="52.12" y2="326.88" xlink:href="#linear-gradient"/><linearGradient id="linear-gradient-4" x1="117.28" y1="361.37" x2="263.4" y2="282.41" gradientUnits="userSpaceOnUse"><stop offset="0.02" stop-opacity="0"/><stop offset="0.07" stop-opacity="0.06"/><stop offset="1" stop-opacity="0.5"/></linearGradient><linearGradient id="linear-gradient-5" x1="334.98" y1="392.17" x2="22.09" y2="392.17" gradientUnits="userSpaceOnUse"><stop offset="0" stop-color="#3f3c3a"/><stop offset="1" stop-color="#2c2725"/></linearGradient><linearGradient id="linear-gradient-6" x1="47.17" y1="400.52" x2="63.44" y2="400.52" gradientUnits="userSpaceOnUse"><stop offset="0" stop-color="#8c8388"/><stop offset="1" stop-color="#fff"/></linearGradient><linearGradient id="linear-gradient-7" x1="177.66" x2="177.66" y2="498.94" gradientUnits="userSpaceOnUse"><stop offset="0.23" stop-color="#8c8388" stop-opacity="0"/><stop offset="1" stop-color="#fff"/></linearGradient><linearGradient id="linear-gradient-8" x1="101.1" y1="217.12" x2="255.9" y2="217.12" gradientUnits="userSpaceOnUse"><stop offset="0" stop-color="#9e8032"/><stop offset="0.14" stop-color="#a18336"/><stop offset="0.27" stop-color="#aa8e41"/><stop offset="0.39" stop-color="#b9a053"/><stop offset="0.51" stop-color="#cfb96d"/><stop offset="0.61" stop-color="#e6d48a"/><stop offset="0.67" stop-color="#d8c174"/><stop offset="0.75" stop-color="#c6a958"/><stop offset="0.83" stop-color="#b89743"/><stop offset="0.91" stop-color="#b18d37"/><stop offset="0.99" stop-color="#ae8933"/></linearGradient><linearGradient id="linear-gradient-9" x1="101.1" y1="184.42" x2="255.89" y2="184.42" gradientUnits="userSpaceOnUse"><stop offset="0" stop-color="#e6d48a"/><stop offset="0.03" stop-color="#dcc77a"/><stop offset="0.09" stop-color="#cbaf5e"/><stop offset="0.15" stop-color="#be9e49"/><stop offset="0.22" stop-color="#b7933d"/><stop offset="0.28" stop-color="#b49039"/><stop offset="0.35" stop-color="#b6933d"/><stop offset="0.41" stop-color="#bb9a48"/><stop offset="0.47" stop-color="#c4a75a"/><stop offset="0.53" stop-color="#d1b975"/><stop offset="0.59" stop-color="#e1d196"/><stop offset="0.64" stop-color="#f4edbf"/><stop offset="0.66" stop-color="#fbf7cd"/><stop offset="0.99" stop-color="#b49039"/></linearGradient></defs><title>Asset 12</title><g id="Layer_2" data-name="Layer 2"><g id="Layer_1-2" data-name="Layer 1"><path class="cls-1" d="M356.18,397.43v.63c0,26.12-17.18,52.25-51.68,72.1-69.14,39.93-181.59,39.79-251.23-.42C18.63,449.67,1.17,423.55.89,397.43.6,371.09,17.78,344.76,52.5,324.69c69.14-39.92,181.66-39.78,251.23.42C338.44,345.18,355.9,371.3,356.18,397.43Z"/><path class="cls-2" d="M313.9,336.73v0c-1.75,8.5-5.9,16.84-12.46,24.68-6.41,7.68-15.14,14.91-26.21,21.29-53.07,30.63-139.39,30.48-192.79-.35-11.35-6.54-20.3-14-26.86-21.88s-10.69-16.26-12.42-24.76a46,46,0,0,1,1.2-23.27c4.7-15.19,17.19-29.69,37.47-41.4,53.07-30.65,139.39-30.5,192.82.33,22.84,13.18,36,29.85,39.33,47A46.46,46.46,0,0,1,313.9,336.73Z"/><path class="cls-3" d="M179.4,398c-35.27,0-68.34-7.88-93.14-22.2-10.3-5.94-18.65-12.71-24.81-20.14-5.67-6.85-9.31-14.05-10.81-21.41a38.62,38.62,0,0,1,1-19.48c4.31-13.89,16.06-26.7,34-37.06,24.41-14.1,57.1-21.87,92-21.87,35.26,0,68.33,7.89,93.14,22.2,19.94,11.51,32.6,26.37,35.66,41.86a38.78,38.78,0,0,1-.06,15.33l-.13.59a49,49,0,0,1-10.71,20.75c-6,7.22-14.16,13.81-24.17,19.58C247,390.2,214.32,398,179.4,398Z"/><path class="cls-4" d="M264.18,328.19v.3c0,12.57-8.26,25.14-24.86,34.7-33.27,19.21-87.38,19.14-120.89-.21-16.67-9.65-25.07-22.22-25.2-34.79s8.13-25.34,24.83-35c33.27-19.21,87.41-19.14,120.88.2C255.65,303.05,264.05,315.62,264.18,328.19Z"/><path class="cls-5" d="M289.5,445.64c-60.9,35.16-160,35-221.25-.41-40-23.07-54-55.41-42-84.87h0l18.14-47.9h0a46,46,0,0,0-1.2,23.27c1.73,8.5,5.88,16.87,12.42,24.76s15.51,15.34,26.86,21.88c53.4,30.83,139.72,31,192.79.35,11.07-6.38,19.8-13.61,26.21-21.29,6.56-7.84,10.71-16.18,12.46-24.68v0a46.46,46.46,0,0,0,.08-18.35l16.51,42.11.41,1.07C342.7,390.89,328.91,422.87,289.5,445.64Z"/><path class="cls-6" d="M63.44,405.22c0,5.15-3.64,7.23-8.13,4.63s-8.14-8.87-8.14-14,3.64-7.23,8.14-4.63S63.44,400.06,63.44,405.22Z"/><path class="cls-7" d="M302.85,29.46C233.29-10.73,120.76-9.28,51.63,30.63,16.91,50.7-.27,90.06,0,116.39V397H0a63.79,63.79,0,0,0,6.34,26c7.9,16.69,23.26,32.51,46,45.69,69.65,40.21,182.09,40.35,251.22.43,22.41-12.88,37.52-28.42,45.34-44.9a62.72,62.72,0,0,0,6.37-27.2V114C355,87.93,337.57,49.55,302.85,29.46Z"/><path class="cls-8" d="M255.89,184.7v20.43c.13,11.47-7.36,23-22.51,31.69-30.13,17.39-79.12,17.33-109.46-.19-7.54-4.35-13.22-9.38-17-14.75a29.37,29.37,0,0,1-5.8-16.75V184.42c.12,11.38,7.73,22.77,22.82,31.51,30.34,17.51,79.33,17.58,109.46.18C248.41,207.46,255.89,196.08,255.89,184.7Z"/><path class="cls-9" d="M255.89,184.42v.28c0,11.38-7.48,22.76-22.51,31.41-30.13,17.4-79.12,17.33-109.46-.18-15.09-8.74-22.7-20.13-22.82-31.51s7.36-22.94,22.49-31.69c30.12-17.39,79.14-17.33,109.45.19C248.16,161.66,255.77,173,255.89,184.42Z"/><path class="cls-10" d="M222.77,162.47l-31.35,21.1-4.28-33.88L177,157.21l6.06,43.71,45.81-30.87Zm-60,5.26,6.31,42.91,9.81-7.48-6-42.94ZM148.17,178l6.31,42.9,9.81-7.47-6-42.94Z"/></g></g></svg>