<svg xmlns="http://www.w3.org/2000/svg" xmlns:xlink="http://www.w3.org/1999/xlink" viewBox="0 0 500 504.04"><defs><style>.cls-1{isolation:isolate;}.cls-105,.cls-110,.cls-2{opacity:0.6;}.cls-2{fill:url(#linear-gradient);}.cls-3{fill:#1c1714;}.cls-4{fill:#3f3c3a;}.cls-5{fill:url(#linear-gradient-2);}.cls-6{fill:url(#linear-gradient-3);}.cls-7{fill:url(#linear-gradient-4);}.cls-8{fill:#bababa;}.cls-10,.cls-11,.cls-12,.cls-13,.cls-20,.cls-22,.cls-23,.cls-24,.cls-25,.cls-34,.cls-69,.cls-79,.cls-82,.cls-85,.cls-9,.cls-91{opacity:0.5;}.cls-9{fill:url(#linear-gradient-5);}.cls-10{fill:url(#linear-gradient-6);}.cls-11{fill:url(#linear-gradient-7);}.cls-12{fill:url(#linear-gradient-8);}.cls-13{fill:url(#linear-gradient-9);}.cls-14{opacity:0.3;fill:url(#linear-gradient-10);}.cls-15{opacity:0.25;fill:url(#linear-gradient-11);}.cls-16{opacity:0.1;fill:url(#linear-gradient-12);}.cls-17{fill:url(#linear-gradient-13);}.cls-18{fill:url(#linear-gradient-14);}.cls-19{fill:url(#linear-gradient-15);}.cls-20{fill:url(#linear-gradient-16);}.cls-21{fill:url(#linear-gradient-17);}.cls-22{fill:url(#linear-gradient-18);}.cls-23{fill:url(#linear-gradient-19);}.cls-24{fill:url(#linear-gradient-20);}.cls-25{fill:url(#linear-gradient-21);}.cls-26{fill:url(#linear-gradient-22);}.cls-27{fill:url(#linear-gradient-23);}.cls-28{fill:url(#linear-gradient-24);}.cls-29{fill:url(#linear-gradient-25);}.cls-30{fill:url(#_ÂÁ_Ï_ÌÌ_È_ËÂÌÚ_1056);}.cls-31{fill:#cccccf;}.cls-32{fill:url(#linear-gradient-26);}.cls-33{fill:url(#linear-gradient-27);}.cls-34{fill:#fff;}.cls-35{fill:url(#linear-gradient-28);}.cls-36{fill:url(#linear-gradient-29);}.cls-37{fill:url(#linear-gradient-30);}.cls-38{fill:url(#linear-gradient-31);}.cls-39{fill:url(#linear-gradient-32);}.cls-40{fill:url(#linear-gradient-33);}.cls-41{fill:url(#linear-gradient-34);}.cls-42{fill:url(#linear-gradient-35);}.cls-43{fill:url(#linear-gradient-36);}.cls-44{fill:url(#linear-gradient-37);}.cls-45{fill:url(#linear-gradient-38);}.cls-46{fill:url(#linear-gradient-39);}.cls-47{fill:url(#linear-gradient-40);}.cls-48{fill:url(#linear-gradient-41);}.cls-49{fill:url(#linear-gradient-42);}.cls-50{fill:url(#linear-gradient-43);}.cls-51{fill:url(#linear-gradient-44);}.cls-52{fill:url(#linear-gradient-45);}.cls-53{fill:url(#linear-gradient-46);}.cls-54{fill:#ceddde;}.cls-55{fill:url(#linear-gradient-47);}.cls-106,.cls-56,.cls-60{mix-blend-mode:multiply;}.cls-106,.cls-57{fill:#cad9d9;}.cls-58{fill:url(#linear-gradient-48);}.cls-59{fill:url(#linear-gradient-49);}.cls-60{fill:#ecf2f2;}.cls-61{fill:url(#linear-gradient-50);}.cls-62{fill:url(#linear-gradient-51);}.cls-63{fill:url(#linear-gradient-52);}.cls-64{fill:url(#linear-gradient-53);}.cls-65{fill:url(#linear-gradient-54);}.cls-66{fill:url(#linear-gradient-55);}.cls-67{fill:#96b6b7;}.cls-68{fill:url(#linear-gradient-56);}.cls-69{fill:url(#linear-gradient-57);}.cls-70{fill:url(#linear-gradient-58);}.cls-71{fill:url(#linear-gradient-59);}.cls-72{fill:#f4e8b4;}.cls-73{fill:url(#linear-gradient-60);}.cls-74{fill:url(#linear-gradient-61);}.cls-75{fill:url(#linear-gradient-62);}.cls-76{fill:url(#linear-gradient-63);}.cls-77{fill:url(#linear-gradient-64);}.cls-78{fill:url(#linear-gradient-65);}.cls-79{fill:url(#linear-gradient-66);}.cls-80{fill:url(#linear-gradient-67);}.cls-81{fill:url(#linear-gradient-68);}.cls-82{fill:url(#linear-gradient-69);}.cls-83{fill:url(#linear-gradient-70);}.cls-84{fill:url(#linear-gradient-71);}.cls-85{fill:url(#linear-gradient-72);}.cls-86{fill:url(#linear-gradient-73);}.cls-87{fill:url(#linear-gradient-74);}.cls-88{fill:url(#linear-gradient-75);}.cls-89{fill:url(#linear-gradient-76);}.cls-90{fill:url(#linear-gradient-77);}.cls-91{fill:url(#linear-gradient-78);}.cls-92{fill:url(#linear-gradient-79);}.cls-93{fill:url(#linear-gradient-80);}.cls-94{fill:url(#linear-gradient-81);}.cls-95{fill:#d3d5cb;}.cls-96{fill:#9b9b9b;}.cls-97{fill:#a1a1a1;}.cls-98{fill:url(#linear-gradient-82);}.cls-99{fill:url(#linear-gradient-83);}.cls-100{fill:url(#linear-gradient-84);}.cls-101{fill:url(#linear-gradient-85);}.cls-102{fill:url(#linear-gradient-86);}.cls-103{fill:url(#linear-gradient-87);}.cls-104{fill:url(#linear-gradient-88);}.cls-105{fill:url(#linear-gradient-89);}.cls-107{fill:url(#linear-gradient-90);}.cls-108{fill:url(#linear-gradient-91);}.cls-109{fill:url(#linear-gradient-92);}.cls-110{fill:url(#linear-gradient-93);}.cls-111{fill:url(#linear-gradient-94);}.cls-112{fill:url(#linear-gradient-95);}.cls-113{fill:url(#linear-gradient-96);}.cls-114{fill:url(#linear-gradient-97);}.cls-115{fill:url(#linear-gradient-98);}.cls-116{fill:url(#linear-gradient-99);}.cls-117{fill:url(#linear-gradient-100);}.cls-118{fill:url(#linear-gradient-101);}.cls-119{fill:url(#linear-gradient-102);}.cls-120{fill:url(#linear-gradient-103);}</style><linearGradient id="linear-gradient" x1="3917.07" y1="859.56" x2="3872" y2="778.8" gradientTransform="matrix(-0.73, 0.03, -0.07, 0.79, 3076.11, -327.02)" gradientUnits="userSpaceOnUse"><stop offset="0.02" stop-opacity="0"/><stop offset="0.07" stop-opacity="0.06"/><stop offset="1" stop-opacity="0.5"/></linearGradient><linearGradient id="linear-gradient-2" x1="163.5" y1="411.83" x2="211.07" y2="374.27" gradientTransform="matrix(1, 0, 0, 1, 0, 0)" xlink:href="#linear-gradient"/><linearGradient id="linear-gradient-3" x1="207.13" y1="383.64" x2="207.13" y2="338.3" gradientUnits="userSpaceOnUse"><stop offset="0" stop-color="#383533"/><stop offset="1" stop-color="#1c1714"/></linearGradient><linearGradient id="linear-gradient-4" x1="9.87" y1="226.59" x2="374.24" y2="226.59" xlink:href="#linear-gradient-3"/><linearGradient id="linear-gradient-5" x1="18.31" y1="316.76" x2="366.23" y2="316.76" gradientUnits="userSpaceOnUse"><stop offset="0" stop-color="#6c6a6b"/><stop offset="1" stop-color="#4c4242"/></linearGradient><linearGradient id="linear-gradient-6" x1="18.31" y1="332.35" x2="236.68" y2="332.35" xlink:href="#linear-gradient-5"/><linearGradient id="linear-gradient-7" x1="143.09" y1="280.74" x2="366.23" y2="280.74" xlink:href="#linear-gradient-5"/><linearGradient id="linear-gradient-8" x1="63.56" y1="300.53" x2="236.68" y2="300.53" xlink:href="#linear-gradient-5"/><linearGradient id="linear-gradient-9" x1="157.83" y1="283.52" x2="297.9" y2="283.52" xlink:href="#linear-gradient-5"/><linearGradient id="linear-gradient-10" x1="225.43" y1="251.39" x2="366.23" y2="251.39" gradientUnits="userSpaceOnUse"><stop offset="0" stop-color="#1c1714"/><stop offset="0.67" stop-color="#383533"/><stop offset="1" stop-color="#1c1714"/></linearGradient><linearGradient id="linear-gradient-11" x1="345.81" y1="483.8" x2="148.97" y2="142.86" gradientUnits="userSpaceOnUse"><stop offset="0" stop-color="#fff" stop-opacity="0"/><stop offset="0.8" stop-color="#fff"/></linearGradient><linearGradient id="linear-gradient-12" x1="388.63" y1="459.08" x2="191.79" y2="118.14" xlink:href="#linear-gradient-11"/><linearGradient id="linear-gradient-13" x1="329.35" y1="449.09" x2="500" y2="449.09" xlink:href="#linear-gradient-3"/><linearGradient id="linear-gradient-14" x1="180.4" y1="449.09" x2="399.32" y2="449.09" xlink:href="#linear-gradient-3"/><linearGradient id="linear-gradient-15" x1="248.72" y1="443.35" x2="500" y2="443.35" xlink:href="#linear-gradient-5"/><linearGradient id="linear-gradient-16" x1="329.5" y1="394.14" x2="441.38" y2="394.14" xlink:href="#linear-gradient-5"/><linearGradient id="linear-gradient-17" x1="160.11" y1="350.51" x2="329.5" y2="350.51" xlink:href="#linear-gradient-5"/><linearGradient id="linear-gradient-18" x1="160.11" y1="377.57" x2="329.5" y2="377.57" xlink:href="#linear-gradient-5"/><linearGradient id="linear-gradient-19" x1="236.68" y1="416.23" x2="405.85" y2="416.23" xlink:href="#linear-gradient-5"/><linearGradient id="linear-gradient-20" x1="378.07" y1="382.93" x2="500" y2="382.93" xlink:href="#linear-gradient-5"/><linearGradient id="linear-gradient-21" x1="292.61" y1="368.21" x2="376.49" y2="368.21" xlink:href="#linear-gradient-5"/><linearGradient id="linear-gradient-22" x1="348.6" y1="253.62" x2="362.17" y2="253.62" xlink:href="#linear-gradient-5"/><linearGradient id="linear-gradient-23" x1="333.48" y1="251.01" x2="368.05" y2="251.01" xlink:href="#linear-gradient-5"/><linearGradient id="linear-gradient-24" x1="360.69" y1="260.72" x2="370.47" y2="260.72" xlink:href="#linear-gradient-5"/><linearGradient id="linear-gradient-25" x1="360.79" y1="258.53" x2="367.95" y2="258.53" gradientUnits="userSpaceOnUse"><stop offset="0" stop-color="#c9c8c9"/><stop offset="1" stop-color="#8c8a8b"/></linearGradient><linearGradient id="_ÂÁ_Ï_ÌÌ_È_ËÂÌÚ_1056" x1="926.05" y1="301.69" x2="930.11" y2="301.69" gradientTransform="matrix(-1, 0, 0, 1, 1293.66, 0)" gradientUnits="userSpaceOnUse"><stop offset="0" stop-color="#838383"/><stop offset="0.21" stop-color="#888"/><stop offset="0.39" stop-color="#919191"/><stop offset="0.39" stop-color="#a7a7a7"/><stop offset="0.4" stop-color="#afafaf"/><stop offset="0.62" stop-color="#b6b6b6"/><stop offset="0.63" stop-color="#cfcfcf"/><stop offset="0.74" stop-color="#d5d5d5"/><stop offset="0.88" stop-color="#e6e6e6"/><stop offset="1" stop-color="#f9f9f9"/></linearGradient><linearGradient id="linear-gradient-26" x1="363.44" y1="261.61" x2="372.44" y2="261.61" xlink:href="#linear-gradient-25"/><linearGradient id="linear-gradient-27" x1="382.6" y1="272.58" x2="471.19" y2="272.58" gradientTransform="translate(8.05 -60.22) rotate(5.34)" gradientUnits="userSpaceOnUse"><stop offset="0" stop-color="#e6d48a"/><stop offset="0.02" stop-color="#dcc77a"/><stop offset="0.08" stop-color="#cbaf5e"/><stop offset="0.13" stop-color="#be9e49"/><stop offset="0.18" stop-color="#b7933d"/><stop offset="0.23" stop-color="#b49039"/><stop offset="0.4" stop-color="#b5923c"/><stop offset="0.53" stop-color="#ba9845"/><stop offset="0.63" stop-color="#c1a354"/><stop offset="0.73" stop-color="#ccb26a"/><stop offset="0.81" stop-color="#d9c686"/><stop offset="0.83" stop-color="#dcca8c"/><stop offset="0.99" stop-color="#b49039"/></linearGradient><linearGradient id="linear-gradient-28" x1="321.98" y1="203.43" x2="328.79" y2="203.43" xlink:href="#linear-gradient-3"/><linearGradient id="linear-gradient-29" x1="261.09" y1="219" x2="270.35" y2="219" xlink:href="#linear-gradient-3"/><linearGradient id="linear-gradient-30" x1="258.74" y1="219.36" x2="268.5" y2="219.36" xlink:href="#linear-gradient-25"/><linearGradient id="linear-gradient-31" x1="272.16" y1="250.79" x2="313.6" y2="250.79" xlink:href="#linear-gradient-3"/><linearGradient id="linear-gradient-32" x1="263.63" y1="205.21" x2="296.94" y2="205.21" xlink:href="#linear-gradient-5"/><linearGradient id="linear-gradient-33" x1="258.97" y1="237.14" x2="266.97" y2="237.14" xlink:href="#linear-gradient-3"/><linearGradient id="linear-gradient-34" x1="292.79" y1="200.9" x2="327.4" y2="200.9" xlink:href="#linear-gradient-3"/><linearGradient id="linear-gradient-35" x1="313.26" y1="371.16" x2="345.16" y2="371.16" xlink:href="#linear-gradient-5"/><linearGradient id="linear-gradient-36" x1="313.19" y1="375.34" x2="345.16" y2="375.34" xlink:href="#linear-gradient-3"/><linearGradient id="linear-gradient-37" x1="307.46" y1="323.53" x2="331.88" y2="323.53" xlink:href="#linear-gradient-5"/><linearGradient id="linear-gradient-38" x1="318.25" y1="339.89" x2="329.55" y2="339.89" xlink:href="#linear-gradient-5"/><linearGradient id="linear-gradient-39" x1="308.24" y1="345.4" x2="335.08" y2="345.4" xlink:href="#linear-gradient-3"/><linearGradient id="linear-gradient-40" x1="287.05" y1="379.06" x2="321.08" y2="379.06" xlink:href="#linear-gradient-5"/><linearGradient id="linear-gradient-41" x1="287.05" y1="382.61" x2="321.08" y2="382.61" xlink:href="#linear-gradient-3"/><linearGradient id="linear-gradient-42" x1="280.09" y1="331.16" x2="316.54" y2="331.16" xlink:href="#linear-gradient-5"/><linearGradient id="linear-gradient-43" x1="291.45" y1="349.78" x2="307.3" y2="349.78" xlink:href="#linear-gradient-5"/><linearGradient id="linear-gradient-44" x1="278.77" y1="311.34" x2="333.41" y2="311.34" xlink:href="#linear-gradient-3"/><linearGradient id="linear-gradient-45" x1="278.77" y1="311.24" x2="313.06" y2="311.24" xlink:href="#linear-gradient-3"/><linearGradient id="linear-gradient-46" x1="288.66" y1="182.66" x2="309.49" y2="182.66" gradientTransform="translate(3.06 104.15) rotate(-10.61)" xlink:href="#linear-gradient-5"/><linearGradient id="linear-gradient-47" x1="277.39" y1="250.35" x2="333.11" y2="250.35" xlink:href="#linear-gradient-5"/><linearGradient id="linear-gradient-48" x1="258.4" y1="237.64" x2="264.55" y2="237.64" xlink:href="#linear-gradient-25"/><linearGradient id="linear-gradient-49" x1="287.58" y1="237.14" x2="331.22" y2="237.14" xlink:href="#linear-gradient-5"/><linearGradient id="linear-gradient-50" x1="294.88" y1="256.59" x2="305.25" y2="256.59" xlink:href="#linear-gradient-3"/><linearGradient id="linear-gradient-51" x1="295.6" y1="257.21" x2="305.97" y2="257.21" xlink:href="#linear-gradient-25"/><linearGradient id="linear-gradient-52" x1="297.9" y1="257.21" x2="303.68" y2="257.21" xlink:href="#linear-gradient-3"/><linearGradient id="linear-gradient-53" x1="294.88" y1="243.51" x2="305.25" y2="243.51" xlink:href="#linear-gradient-3"/><linearGradient id="linear-gradient-54" x1="295.6" y1="244.13" x2="305.97" y2="244.13" xlink:href="#linear-gradient-25"/><linearGradient id="linear-gradient-55" x1="297.9" y1="244.13" x2="303.68" y2="244.13" xlink:href="#linear-gradient-3"/><linearGradient id="linear-gradient-56" x1="276.54" y1="219.38" x2="324.23" y2="219.38" xlink:href="#linear-gradient-25"/><linearGradient id="linear-gradient-57" x1="267.81" y1="177.13" x2="309.49" y2="177.13" gradientTransform="translate(3.06 104.15) rotate(-10.61)" xlink:href="#linear-gradient-3"/><linearGradient id="linear-gradient-58" x1="287" y1="218.52" x2="320.37" y2="218.52" xlink:href="#linear-gradient-5"/><linearGradient id="linear-gradient-59" x1="287.62" y1="216.1" x2="320.37" y2="216.1" xlink:href="#linear-gradient-3"/><linearGradient id="linear-gradient-60" x1="281.65" y1="202.55" x2="325.85" y2="202.55" xlink:href="#linear-gradient-25"/><linearGradient id="linear-gradient-61" x1="300.13" y1="197.96" x2="326.97" y2="197.96" xlink:href="#linear-gradient-5"/><linearGradient id="linear-gradient-62" x1="281.46" y1="203.82" x2="312.78" y2="203.82" xlink:href="#linear-gradient-25"/><linearGradient id="linear-gradient-63" x1="283.19" y1="209.18" x2="290.07" y2="209.18" xlink:href="#linear-gradient-3"/><linearGradient id="linear-gradient-64" x1="285.2" y1="210.8" x2="290.97" y2="210.8" xlink:href="#linear-gradient-5"/><linearGradient id="linear-gradient-65" x1="286.03" y1="210.8" x2="290.14" y2="210.8" xlink:href="#linear-gradient-3"/><linearGradient id="linear-gradient-66" x1="286.09" y1="210.68" x2="290.14" y2="210.68" xlink:href="#linear-gradient-5"/><linearGradient id="linear-gradient-67" x1="281.46" y1="191.7" x2="326.97" y2="191.7" xlink:href="#linear-gradient-25"/><linearGradient id="linear-gradient-68" x1="300.13" y1="185.36" x2="325.81" y2="185.36" xlink:href="#linear-gradient-25"/><linearGradient id="linear-gradient-69" x1="284.69" y1="197.11" x2="327.39" y2="197.11" xlink:href="#linear-gradient-3"/><linearGradient id="linear-gradient-70" x1="284.69" y1="196.43" x2="327.35" y2="196.43" xlink:href="#linear-gradient-5"/><linearGradient id="linear-gradient-71" x1="310.1" y1="200.9" x2="318.62" y2="200.9" xlink:href="#linear-gradient-5"/><linearGradient id="linear-gradient-72" x1="303.53" y1="192.54" x2="315.58" y2="192.54" xlink:href="#linear-gradient-25"/><linearGradient id="linear-gradient-73" x1="281.07" y1="202.54" x2="287.07" y2="202.54" xlink:href="#linear-gradient-5"/><linearGradient id="linear-gradient-74" x1="280.89" y1="203.07" x2="285.65" y2="203.07" xlink:href="#linear-gradient-25"/><linearGradient id="linear-gradient-75" x1="290.98" y1="210.32" x2="325.87" y2="210.32" xlink:href="#linear-gradient-3"/><linearGradient id="linear-gradient-76" x1="312.28" y1="209.53" x2="325.87" y2="209.53" xlink:href="#linear-gradient-5"/><linearGradient id="linear-gradient-77" x1="293.5" y1="210" x2="316.64" y2="210" xlink:href="#linear-gradient-5"/><linearGradient id="linear-gradient-78" x1="302.9" y1="210.09" x2="321.21" y2="210.09" xlink:href="#linear-gradient-25"/><linearGradient id="linear-gradient-79" x1="290.98" y1="201.21" x2="325.67" y2="201.21" xlink:href="#linear-gradient-3"/><linearGradient id="linear-gradient-80" x1="298.36" y1="345.15" x2="309.96" y2="345.15" xlink:href="#linear-gradient-5"/><linearGradient id="linear-gradient-81" x1="319.68" y1="336.23" x2="332.93" y2="336.23" xlink:href="#linear-gradient-5"/><linearGradient id="linear-gradient-82" x1="277.39" y1="311.16" x2="307.46" y2="311.16" xlink:href="#linear-gradient-3"/><linearGradient id="linear-gradient-83" x1="264.67" y1="305.49" x2="283.88" y2="305.49" xlink:href="#linear-gradient-25"/><linearGradient id="linear-gradient-84" x1="256.74" y1="257.4" x2="302.65" y2="257.4" xlink:href="#linear-gradient-5"/><linearGradient id="linear-gradient-85" x1="264.97" y1="266.6" x2="302.65" y2="266.6" xlink:href="#linear-gradient-3"/><linearGradient id="linear-gradient-86" x1="259.27" y1="252.02" x2="267.27" y2="252.02" xlink:href="#linear-gradient-3"/><linearGradient id="linear-gradient-87" x1="257.05" y1="256.59" x2="300.5" y2="256.59" xlink:href="#linear-gradient-25"/><linearGradient id="linear-gradient-88" x1="260.11" y1="260.77" x2="289.8" y2="260.77" xlink:href="#linear-gradient-5"/><linearGradient id="linear-gradient-89" x1="260.11" y1="270.91" x2="269.98" y2="270.91" xlink:href="#linear-gradient-3"/><linearGradient id="linear-gradient-90" x1="265.45" y1="235.96" x2="291.54" y2="235.96" xlink:href="#linear-gradient-5"/><linearGradient id="linear-gradient-91" x1="270.52" y1="238.16" x2="291" y2="238.16" xlink:href="#linear-gradient-5"/><linearGradient id="linear-gradient-92" x1="269.47" y1="235.4" x2="281.02" y2="235.4" xlink:href="#linear-gradient-25"/><linearGradient id="linear-gradient-93" x1="265.45" y1="233.12" x2="286.26" y2="233.12" xlink:href="#linear-gradient-3"/><linearGradient id="linear-gradient-94" x1="286.63" y1="210.8" x2="288.54" y2="210.8" xlink:href="#linear-gradient-25"/><linearGradient id="linear-gradient-95" x1="298.85" y1="380.06" x2="319.5" y2="380.06" xlink:href="#linear-gradient-25"/><linearGradient id="linear-gradient-96" x1="323.49" y1="369.19" x2="343.46" y2="369.19" xlink:href="#linear-gradient-25"/><linearGradient id="linear-gradient-97" x1="306.99" y1="251.69" x2="329.81" y2="251.69" xlink:href="#linear-gradient-3"/><linearGradient id="linear-gradient-98" x1="309.26" y1="252.55" x2="330.09" y2="252.55" xlink:href="#linear-gradient-5"/><linearGradient id="linear-gradient-99" x1="309.81" y1="251.69" x2="325.12" y2="251.69" xlink:href="#linear-gradient-25"/><linearGradient id="linear-gradient-100" x1="315.95" y1="302.25" x2="331.69" y2="302.25" xlink:href="#linear-gradient-5"/><linearGradient id="linear-gradient-101" x1="288.98" y1="308.47" x2="315.11" y2="308.47" xlink:href="#linear-gradient-5"/><linearGradient id="linear-gradient-102" x1="292.9" y1="184.58" x2="310.03" y2="184.58" xlink:href="#linear-gradient-25"/><linearGradient id="linear-gradient-103" x1="265.02" y1="275.02" x2="280.28" y2="275.02" xlink:href="#linear-gradient-5"/></defs><title>Asset 10</title><g class="cls-1"><g id="Layer_2" data-name="Layer 2"><g id="Layer_1-2" data-name="Layer 1"><path class="cls-2" d="M111.7,467.5,107.56,465c-14.63-9-11.08-26,7.93-38l52.8-33.24,57.14,35.16-52.81,33.23C153.61,474.1,126.33,476.5,111.7,467.5Z"/><path class="cls-3" d="M276.34,383.19a25.3,25.3,0,0,1-.49,4.31,27.56,27.56,0,0,1-1.21,4.22,30.49,30.49,0,0,1-2,4.27,36.39,36.39,0,0,1-3,4.49,43.14,43.14,0,0,1-4.66,5,57.85,57.85,0,0,1-9.5,7l-.92.54a85.35,85.35,0,0,1-16.45,7.24,109.29,109.29,0,0,1-14.21,3.53c-3.15.57-6.35,1-9.58,1.34-2.76.27-5.54.46-8.33.55q-3.84.13-7.69,0c-2.47-.06-4.94-.2-7.39-.4s-4.89-.47-7.3-.81-5-.79-7.45-1.3c-2.65-.55-5.27-1.19-7.83-1.92-3.13-.89-6.18-1.92-9.11-3.08a80.14,80.14,0,0,1-10.83-5.19,61.16,61.16,0,0,1-9.69-6.84l0,9.56a61,61,0,0,0,9.69,6.85,80.72,80.72,0,0,0,10.83,5.19q4.41,1.74,9.12,3.08c2.55.73,5.17,1.37,7.83,1.92,2.44.51,4.93.94,7.44,1.29s4.85.62,7.3.82,4.92.33,7.4.4,5.13.05,7.69,0c2.79-.1,5.57-.28,8.32-.56,3.23-.32,6.43-.76,9.58-1.33a107.71,107.71,0,0,0,14.21-3.54,84.45,84.45,0,0,0,16.45-7.23l.92-.54a57.85,57.85,0,0,0,9.5-7,42.42,42.42,0,0,0,4.66-5,34.51,34.51,0,0,0,3-4.48,29.9,29.9,0,0,0,2-4.27,26.29,26.29,0,0,0,1.21-4.23,25.2,25.2,0,0,0,.5-4.31c0-.22,0-.44,0-.66l0-9.56C276.35,382.75,276.35,383,276.34,383.19Z"/><path class="cls-4" d="M254.19,351.56c29.42,17,29.57,44.52.35,61.5s-76.76,17-106.17,0a61.16,61.16,0,0,1-9.69-6.84L242.34,346A82.73,82.73,0,0,1,254.19,351.56Z"/><polygon class="cls-5" points="161.85 414.44 156.02 411.06 181.62 396.21 187.46 399.58 161.85 414.44"/><polygon class="cls-6" points="187.46 346.26 226.95 323.31 226.8 376.92 187.3 399.87 187.46 346.26"/><polygon class="cls-4" points="187.46 346.26 187.3 399.87 181.4 396.46 181.55 342.85 187.46 346.26"/><polygon class="cls-4" points="365.75 17.71 366.23 216.32 18.31 417.19 17.83 218.57 365.75 17.71"/><path class="cls-7" d="M369.69,6.29c2.2-1.27,4-.26,4,2.27l.56,226a8.72,8.72,0,0,1-4,6.85L14.42,446.89c-2.2,1.27-4,.25-4-2.27l-.57-226a8.72,8.72,0,0,1,4-6.86Zm-3.46,210-.48-198.61L17.83,218.57l.48,198.62L366.23,216.32Z"/><path class="cls-4" d="M362.65.27a2.8,2.8,0,0,0-2.83.28L4,206a8.7,8.7,0,0,0-4,6.86l.56,226a2.78,2.78,0,0,0,1.16,2.55l9.87,5.74a2.79,2.79,0,0,1-1.15-2.55l-.57-226a8.72,8.72,0,0,1,4-6.86L369.69,6.29A2.83,2.83,0,0,1,372.52,6Z"/><path class="cls-3" d="M203.94,322.89a12.24,12.24,0,0,1,5.56-9.58c3.06-1.77,5.55-.35,5.55,3.17a12.27,12.27,0,0,1-5.55,9.58C206.43,327.83,203.94,326.41,203.94,322.89Z"/><g id="_Group_" data-name="&lt;Group&gt;"><g id="_Group_2" data-name="&lt;Group&gt;"><path id="_Path_" data-name="&lt;Path&gt;" class="cls-8" d="M130.37,213.61a.69.69,0,0,0,.78,0l0,0a.4.4,0,0,0,.12-.1h0l.07-.08a.77.77,0,0,0,.12-.28.57.57,0,0,0,0-.13h0v-.1a.82.82,0,0,0-.1-.3l-.06-.07a.62.62,0,0,0-.14-.14.72.72,0,0,0-.91.07l-.09.11a1.06,1.06,0,0,0-.11.21h0v.06a.55.55,0,0,0,0,.22h0a.43.43,0,0,0,0,.11s0,0,0,.05A.74.74,0,0,0,130.37,213.61Z"/><path id="_Path_2" data-name="&lt;Path&gt;" class="cls-8" d="M150.09,266.69a.66.66,0,0,0,.69,0l0,0,.11-.09h0l.06-.07a.64.64,0,0,0,.1-.24.49.49,0,0,0,0-.12h0v-.08a.62.62,0,0,0-.09-.26l-.05-.07a.43.43,0,0,0-.12-.11.62.62,0,0,0-.36-.12.69.69,0,0,0-.43.18l-.08.09a.82.82,0,0,0-.09.19h0l0,.05a1.28,1.28,0,0,0,0,.19h0s0,.06,0,.09,0,0,0,.05A.7.7,0,0,0,150.09,266.69Z"/><path id="_Path_3" data-name="&lt;Path&gt;" class="cls-8" d="M59.74,291.63a.59.59,0,0,0,.65,0h0a.43.43,0,0,0,.1-.09h0l.06-.06a.5.5,0,0,0,.09-.23.36.36,0,0,0,0-.11h0a.22.22,0,0,0,0-.08.68.68,0,0,0-.08-.24l-.05-.07-.11-.11a.63.63,0,0,0-.34-.1.62.62,0,0,0-.41.16l-.08.09a1.42,1.42,0,0,0-.08.18h0v0a.55.55,0,0,0,0,.18h0s0,.06,0,.09l0,0A.56.56,0,0,0,59.74,291.63Z"/><path id="_Path_4" data-name="&lt;Path&gt;" class="cls-8" d="M45,212.05a.67.67,0,0,0,.73,0l0,0,.11-.09h0a.23.23,0,0,0,.07-.07.85.85,0,0,0,.11-.26.49.49,0,0,0,0-.12h0v-.09a.67.67,0,0,0-.1-.28.18.18,0,0,0,0-.07.8.8,0,0,0-.13-.13.71.71,0,0,0-.39-.12A.63.63,0,0,0,45,211l-.09.1a.75.75,0,0,0-.1.2h0v.06a.67.67,0,0,0,0,.2h0a.43.43,0,0,0,0,.11s0,0,0,0A.76.76,0,0,0,45,212.05Z"/><path id="_Path_5" data-name="&lt;Path&gt;" class="cls-8" d="M31.92,246.3a.86.86,0,0,0,1,0l0,0a.64.64,0,0,0,.15-.13h0a.39.39,0,0,0,.08-.1.83.83,0,0,0,.14-.32.52.52,0,0,0,0-.17h0v-.12a1,1,0,0,0-.13-.36l-.06-.09-.17-.17a.88.88,0,0,0-.51-.16.92.92,0,0,0-.6.25.69.69,0,0,0-.11.13.91.91,0,0,0-.13.26h0l0,.08a1.15,1.15,0,0,0,0,.26h0a.58.58,0,0,0,0,.14s0,0,0,.06A.91.91,0,0,0,31.92,246.3Z"/><path id="_Path_6" data-name="&lt;Path&gt;" class="cls-8" d="M151.05,234.24a.71.71,0,0,0,.79,0l0,0,.12-.11h0l.07-.08a1,1,0,0,0,.11-.27.78.78,0,0,0,0-.14h0v-.1a.77.77,0,0,0-.11-.3.22.22,0,0,0-.05-.08.67.67,0,0,0-.15-.14.7.7,0,0,0-.42-.13.7.7,0,0,0-.5.21l-.09.11a.84.84,0,0,0-.11.21h0v.07a.54.54,0,0,0,0,.22h0a.43.43,0,0,0,0,.11.43.43,0,0,0,0,0A.74.74,0,0,0,151.05,234.24Z"/><path id="_Path_7" data-name="&lt;Path&gt;" class="cls-8" d="M34.72,274.47a1.15,1.15,0,0,0,1.28,0l.06,0a1.54,1.54,0,0,0,.19-.17h0a.76.76,0,0,0,.11-.14,1.34,1.34,0,0,0,.2-.44,1.79,1.79,0,0,0,0-.23h0v-.16a1.25,1.25,0,0,0-.17-.49l-.09-.12a1,1,0,0,0-.23-.22,1.18,1.18,0,0,0-.69-.22,1.21,1.21,0,0,0-.81.33c-.05.06-.11.12-.15.18a1,1,0,0,0-.17.35h0l0,.11a1.45,1.45,0,0,0,0,.36h0a1.16,1.16,0,0,0,0,.18.19.19,0,0,0,0,.08A1.22,1.22,0,0,0,34.72,274.47Z"/><path id="_Path_8" data-name="&lt;Path&gt;" class="cls-8" d="M61.42,261.87a1.31,1.31,0,0,0,1.41.05l.05,0a1.3,1.3,0,0,0,.22-.19h0l.12-.15a1.14,1.14,0,0,0,.21-.48,1.07,1.07,0,0,0,0-.25h0a1,1,0,0,0,0-.17,1.33,1.33,0,0,0-.18-.54l-.1-.14a1.42,1.42,0,0,0-.25-.24,1.23,1.23,0,0,0-.75-.23,1.25,1.25,0,0,0-.89.36,1.12,1.12,0,0,0-.17.2,1.46,1.46,0,0,0-.18.38h0l0,.11a1.08,1.08,0,0,0,0,.4h0a1.38,1.38,0,0,0,0,.2l0,.09A1.32,1.32,0,0,0,61.42,261.87Z"/><path id="_Path_9" data-name="&lt;Path&gt;" class="cls-8" d="M125.93,244.2a1.3,1.3,0,0,0,1.43.05l.06,0a1.3,1.3,0,0,0,.22-.19h0l.12-.15a1.35,1.35,0,0,0,.22-.49l0-.26h0a1,1,0,0,0,0-.17,1.29,1.29,0,0,0-.19-.54l-.1-.15a1.2,1.2,0,0,0-.26-.24,1.27,1.27,0,0,0-.76-.24,1.3,1.3,0,0,0-.9.37,1.63,1.63,0,0,0-.17.2,1.18,1.18,0,0,0-.19.39h0l0,.11a1.36,1.36,0,0,0,0,.4h0a1.55,1.55,0,0,0,0,.21.32.32,0,0,0,0,.09A1.19,1.19,0,0,0,125.93,244.2Z"/><path id="_Path_10" data-name="&lt;Path&gt;" class="cls-8" d="M82.69,307.05a.57.57,0,0,0,.59,0l0,0,.09-.08h0l0-.06a.4.4,0,0,0,.09-.2.41.41,0,0,0,0-.11h0v-.07a.45.45,0,0,0-.08-.22l0-.06-.1-.1a.55.55,0,0,0-.32-.1.53.53,0,0,0-.37.15l-.07.09a1.09,1.09,0,0,0-.08.15h0v0a1,1,0,0,0,0,.17h0s0,0,0,.08,0,0,0,0A.58.58,0,0,0,82.69,307.05Z"/><path id="_Path_11" data-name="&lt;Path&gt;" class="cls-8" d="M105.08,197.52a1,1,0,0,0,1.12,0l0,0a.8.8,0,0,0,.17-.15h0a.4.4,0,0,0,.1-.12.91.91,0,0,0,.16-.38.64.64,0,0,0,0-.2h0a.57.57,0,0,0,0-.13,1.16,1.16,0,0,0-.14-.42l-.08-.12a1.8,1.8,0,0,0-.2-.19,1.07,1.07,0,0,0-.59-.18,1.06,1.06,0,0,0-.71.28c0,.05-.09.1-.13.16a1.4,1.4,0,0,0-.15.3h0l0,.09a1.09,1.09,0,0,0,0,.31h0a1,1,0,0,0,0,.17l0,.07A1,1,0,0,0,105.08,197.52Z"/><path id="_Path_12" data-name="&lt;Path&gt;" class="cls-8" d="M84.77,278.14a.91.91,0,0,0,1,0l0,0A.87.87,0,0,0,86,278h0a.39.39,0,0,0,.08-.1.83.83,0,0,0,.15-.35.88.88,0,0,0,0-.17h0v-.12a1.07,1.07,0,0,0-.13-.38l-.07-.1a1,1,0,0,0-.18-.17.87.87,0,0,0-.53-.16,1,1,0,0,0-.63.25.76.76,0,0,0-.11.14.84.84,0,0,0-.13.27h0l0,.08a1.31,1.31,0,0,0,0,.28h0a.58.58,0,0,0,0,.14.19.19,0,0,0,0,.07A1,1,0,0,0,84.77,278.14Z"/></g></g><g id="_Group_3" data-name="&lt;Group&gt;"><g id="_Group_4" data-name="&lt;Group&gt;"><path id="_Path_13" data-name="&lt;Path&gt;" class="cls-8" d="M266.35,136.62a.71.71,0,0,0,.78,0l0,0,.12-.11h0l.06-.08a.66.66,0,0,0,.12-.27.68.68,0,0,0,0-.14h0a.28.28,0,0,0,0-.09.63.63,0,0,0-.1-.3l-.05-.08a.64.64,0,0,0-.15-.13.69.69,0,0,0-.41-.13.7.7,0,0,0-.49.2.52.52,0,0,0-.1.11.58.58,0,0,0-.1.21h0l0,.06a.83.83,0,0,0,0,.22h0s0,.08,0,.12,0,0,0,.05A.64.64,0,0,0,266.35,136.62Z"/><path id="_Path_14" data-name="&lt;Path&gt;" class="cls-8" d="M286.08,189.7a.6.6,0,0,0,.68,0h0l.1-.09h0l.06-.08a.67.67,0,0,0,.1-.23s0-.08,0-.12h0s0-.06,0-.08a.62.62,0,0,0-.09-.26.43.43,0,0,0,0-.07l-.13-.12a.66.66,0,0,0-.36-.11.63.63,0,0,0-.43.17l-.08.1a.76.76,0,0,0-.09.18h0v.05a.41.41,0,0,0,0,.19h0s0,.07,0,.1,0,0,0,0A.64.64,0,0,0,286.08,189.7Z"/><path id="_Path_15" data-name="&lt;Path&gt;" class="cls-8" d="M195.73,214.65a.57.57,0,0,0,.64,0l0,0,.1-.08h0l.05-.07a.62.62,0,0,0,.1-.22.45.45,0,0,0,0-.11h0v-.08a.58.58,0,0,0-.09-.25l0-.06a.43.43,0,0,0-.12-.11.6.6,0,0,0-.34-.11.56.56,0,0,0-.4.17.24.24,0,0,0-.08.09.56.56,0,0,0-.09.17h0v0a1.09,1.09,0,0,0,0,.18h0s0,.07,0,.1,0,0,0,0A.57.57,0,0,0,195.73,214.65Z"/><path id="_Path_16" data-name="&lt;Path&gt;" class="cls-8" d="M181,135.06a.69.69,0,0,0,.74,0l0,0,.11-.1h0l.06-.08a.62.62,0,0,0,.11-.25s0-.09,0-.13h0s0-.06,0-.09a.71.71,0,0,0-.09-.28l-.05-.07a.53.53,0,0,0-.14-.12.63.63,0,0,0-.39-.13.75.75,0,0,0-.46.19l-.09.1a.88.88,0,0,0-.09.2h0l0,.06a1.48,1.48,0,0,0,0,.21h0s0,.07,0,.1l0,0A.61.61,0,0,0,181,135.06Z"/><path id="_Path_17" data-name="&lt;Path&gt;" class="cls-8" d="M167.91,169.32a.88.88,0,0,0,1,0l0,0a.53.53,0,0,0,.14-.12h0l.09-.1a1,1,0,0,0,.14-.33.88.88,0,0,0,0-.17h0a.41.41,0,0,0,0-.11.77.77,0,0,0-.12-.36.36.36,0,0,0-.07-.1.87.87,0,0,0-.17-.16.86.86,0,0,0-.51-.16.89.89,0,0,0-.59.24.81.81,0,0,0-.12.14.88.88,0,0,0-.12.26h0l0,.07a1.23,1.23,0,0,0,0,.27h0l0,.14a.14.14,0,0,0,0,.06A.79.79,0,0,0,167.91,169.32Z"/><path id="_Path_18" data-name="&lt;Path&gt;" class="cls-8" d="M287,157.26a.73.73,0,0,0,.8,0l0,0,.12-.1h0l.07-.08a.77.77,0,0,0,.12-.28.61.61,0,0,0,0-.14h0v-.09a.87.87,0,0,0-.1-.31l-.06-.07a.62.62,0,0,0-.14-.14.74.74,0,0,0-.42-.13.7.7,0,0,0-.5.2.52.52,0,0,0-.1.11.62.62,0,0,0-.1.22h0l0,.06a.83.83,0,0,0,0,.22h0a.5.5,0,0,0,0,.12l0,.05A.66.66,0,0,0,287,157.26Z"/><path id="_Path_19" data-name="&lt;Path&gt;" class="cls-8" d="M170.7,197.48a1.19,1.19,0,0,0,1.29.05l0,0a1.06,1.06,0,0,0,.2-.17h0l.11-.13a1.11,1.11,0,0,0,.19-.45.83.83,0,0,0,0-.22h0a.76.76,0,0,0,0-.15,1.25,1.25,0,0,0-.17-.49.51.51,0,0,0-.09-.13,1.21,1.21,0,0,0-.23-.22,1.09,1.09,0,0,0-.68-.21,1.13,1.13,0,0,0-.81.33.93.93,0,0,0-.16.18,1.26,1.26,0,0,0-.17.35h0l0,.1a1.09,1.09,0,0,0,0,.36h0a1.25,1.25,0,0,0,0,.19l0,.08A1.08,1.08,0,0,0,170.7,197.48Z"/><path id="_Path_20" data-name="&lt;Path&gt;" class="cls-8" d="M197.4,184.88a1.27,1.27,0,0,0,1.41.05l.06,0a1.18,1.18,0,0,0,.21-.18h0a.79.79,0,0,0,.12-.15,1.35,1.35,0,0,0,.22-.49,1.94,1.94,0,0,0,0-.24h0v-.16a1.45,1.45,0,0,0-.19-.54.71.71,0,0,0-.1-.14,1.14,1.14,0,0,0-.25-.24,1.31,1.31,0,0,0-.75-.24,1.38,1.38,0,0,0-.89.36c-.06.06-.11.13-.17.2a1.46,1.46,0,0,0-.18.38h0l0,.12a1.28,1.28,0,0,0,0,.39h0a1.55,1.55,0,0,0,0,.21.32.32,0,0,0,0,.09A1.22,1.22,0,0,0,197.4,184.88Z"/><path id="_Path_21" data-name="&lt;Path&gt;" class="cls-8" d="M261.91,167.22a1.29,1.29,0,0,0,1.43,0l.06,0a1.37,1.37,0,0,0,.22-.19h0l.13-.15a1.57,1.57,0,0,0,.21-.5,1.07,1.07,0,0,0,0-.25h0a.91.91,0,0,0,0-.17,1.25,1.25,0,0,0-.19-.55.67.67,0,0,0-.09-.14,2.06,2.06,0,0,0-.26-.25,1.28,1.28,0,0,0-.76-.23,1.31,1.31,0,0,0-.91.36,1.63,1.63,0,0,0-.17.2,1.75,1.75,0,0,0-.19.39h0l0,.12a1.79,1.79,0,0,0,0,.4h0a1.55,1.55,0,0,0,0,.21l0,.09A1.39,1.39,0,0,0,261.91,167.22Z"/><path id="_Path_22" data-name="&lt;Path&gt;" class="cls-8" d="M218.67,230.06a.53.53,0,0,0,.59,0h0l.09-.08h0l.05-.06a1,1,0,0,0,.09-.21s0-.07,0-.1h0a.17.17,0,0,0,0-.07.48.48,0,0,0-.07-.23l0,0a.35.35,0,0,0-.11-.1.52.52,0,0,0-.31-.1.51.51,0,0,0-.37.15.27.27,0,0,0-.07.08.6.6,0,0,0-.08.16h0v0a.43.43,0,0,0,0,.16h0s0,.06,0,.09l0,0A.53.53,0,0,0,218.67,230.06Z"/><path id="_Path_23" data-name="&lt;Path&gt;" class="cls-8" d="M241.07,120.54a1,1,0,0,0,1.11,0l0,0,.17-.14h0l.09-.12a1,1,0,0,0,.17-.38,1.36,1.36,0,0,0,0-.2h0a.53.53,0,0,0,0-.13,1,1,0,0,0-.14-.43.76.76,0,0,0-.08-.11.73.73,0,0,0-.2-.19,1,1,0,0,0-.59-.19,1,1,0,0,0-.7.29,1.07,1.07,0,0,0-.14.16,1,1,0,0,0-.14.3h0l0,.09a.81.81,0,0,0,0,.31h0a.9.9,0,0,0,0,.16.19.19,0,0,0,0,.07A1,1,0,0,0,241.07,120.54Z"/><path id="_Path_24" data-name="&lt;Path&gt;" class="cls-8" d="M220.75,201.15a.91.91,0,0,0,1,0l0,0,.15-.13h0l.09-.11a1,1,0,0,0,.15-.34c0-.06,0-.12,0-.17h0s0-.08,0-.11a.82.82,0,0,0-.13-.38.36.36,0,0,0-.07-.1.73.73,0,0,0-.18-.17.86.86,0,0,0-.53-.17.89.89,0,0,0-.62.26.81.81,0,0,0-.12.14.84.84,0,0,0-.13.27h0l0,.08a1.23,1.23,0,0,0,0,.27h0l0,.14s0,0,0,.06A.87.87,0,0,0,220.75,201.15Z"/></g></g><g id="_Group_5" data-name="&lt;Group&gt;"><g id="_Group_6" data-name="&lt;Group&gt;"><path id="_Path_25" data-name="&lt;Path&gt;" class="cls-8" d="M269.45,173.3a.71.71,0,0,0,.56.54h.2l.1,0a.83.83,0,0,0,.27-.12l.11-.09h0l.06-.07a.69.69,0,0,0,.12-.29.28.28,0,0,0,0-.09.68.68,0,0,0,0-.2.64.64,0,0,0-.22-.37.69.69,0,0,0-.5-.18l-.14,0a.73.73,0,0,0-.22.09h0l-.06,0a.75.75,0,0,0-.15.16h0l-.06.1a.08.08,0,0,0,0,.05A.65.65,0,0,0,269.45,173.3Z"/><path id="_Path_26" data-name="&lt;Path&gt;" class="cls-8" d="M248.73,226a.64.64,0,0,0,.49.47h.17l.1,0a.94.94,0,0,0,.23-.1l.09-.09h0l.05-.06A.71.71,0,0,0,250,226s0-.06,0-.08a.47.47,0,0,0,0-.17.64.64,0,0,0-.19-.33.62.62,0,0,0-.44-.15h-.12l-.19.08h0l-.05,0a.57.57,0,0,0-.13.14h0a.35.35,0,0,0-.05.08s0,0,0,0A.64.64,0,0,0,248.73,226Z"/><path id="_Path_27" data-name="&lt;Path&gt;" class="cls-8" d="M164.78,184.31a.59.59,0,0,0,.47.44h.16l.08,0a.41.41,0,0,0,.22-.1l.09-.07h0l0-.06a.64.64,0,0,0,.1-.24s0-.05,0-.08a.92.92,0,0,0,0-.16.56.56,0,0,0-.19-.3.55.55,0,0,0-.41-.15h-.12a.71.71,0,0,0-.18.08h0l0,0a.53.53,0,0,0-.13.13h0a.56.56,0,0,0,0,.08v0A.59.59,0,0,0,164.78,184.31Z"/><path id="_Path_28" data-name="&lt;Path&gt;" class="cls-8" d="M206.92,115.21a.68.68,0,0,0,.53.51h0a.38.38,0,0,0,.15,0h.1a.64.64,0,0,0,.25-.12l.09-.08h0l.06-.07a.54.54,0,0,0,.11-.27.28.28,0,0,0,0-.09.55.55,0,0,0,0-.18.68.68,0,0,0-.68-.52l-.13,0a.54.54,0,0,0-.21.08h0l0,0a.93.93,0,0,0-.14.14h0l-.06.09s0,0,0,0A.71.71,0,0,0,206.92,115.21Z"/><path id="_Path_29" data-name="&lt;Path&gt;" class="cls-8" d="M174.3,132a.89.89,0,0,0,.69.66h.24l.12,0a.91.91,0,0,0,.33-.15,1.31,1.31,0,0,0,.12-.11h0l.07-.08a1.14,1.14,0,0,0,.15-.36s0-.07,0-.11a.65.65,0,0,0,0-.24.87.87,0,0,0-.88-.67l-.17,0a1.09,1.09,0,0,0-.27.11h0l-.06.05a.58.58,0,0,0-.19.19h0a.41.41,0,0,0-.07.11l0,.06A.9.9,0,0,0,174.3,132Z"/><path id="_Path_30" data-name="&lt;Path&gt;" class="cls-8" d="M271.09,202.47a.7.7,0,0,0,.57.55h.2l.11,0a.68.68,0,0,0,.27-.13l.1-.09h0l.06-.07a.81.81,0,0,0,.13-.3s0-.06,0-.09a.68.68,0,0,0,0-.2.7.7,0,0,0-.22-.38.73.73,0,0,0-.51-.18l-.15,0a.85.85,0,0,0-.22.09h0l-.05,0a.57.57,0,0,0-.16.15h0l-.06.1s0,0,0,.05A.69.69,0,0,0,271.09,202.47Z"/><path id="_Path_31" data-name="&lt;Path&gt;" class="cls-8" d="M157.59,154.82a1.17,1.17,0,0,0,.93.89h.06a1.15,1.15,0,0,0,.26,0h0l.18,0a1.35,1.35,0,0,0,.44-.2l.17-.15h0l.1-.12a1.26,1.26,0,0,0,.2-.48c0-.05,0-.1,0-.16a1.82,1.82,0,0,0,0-.32,1.2,1.2,0,0,0-1.19-.91l-.24,0a1.22,1.22,0,0,0-.35.14h0l-.08.06a1.28,1.28,0,0,0-.26.26h0a.86.86,0,0,0-.1.16l0,.08A1.11,1.11,0,0,0,157.59,154.82Z"/><path id="_Path_32" data-name="&lt;Path&gt;" class="cls-8" d="M185.89,163.25a1.26,1.26,0,0,0,1,1H187a.94.94,0,0,0,.29,0h0l.19,0a1.32,1.32,0,0,0,.48-.22,1,1,0,0,0,.18-.17h0a.69.69,0,0,0,.11-.13,1.21,1.21,0,0,0,.22-.52,1,1,0,0,0,0-.17,1,1,0,0,0,0-.35,1.22,1.22,0,0,0-.4-.67,1.27,1.27,0,0,0-.9-.33l-.26,0a1.34,1.34,0,0,0-.39.16h0l-.1.07a1,1,0,0,0-.27.28h0a1,1,0,0,0-.11.17.36.36,0,0,0,0,.09A1.18,1.18,0,0,0,185.89,163.25Z"/><path id="_Path_33" data-name="&lt;Path&gt;" class="cls-8" d="M245.73,193.12a1.32,1.32,0,0,0,1,1h.35a.69.69,0,0,0,.2,0,1.18,1.18,0,0,0,.67-.39h0l.1-.13a1.3,1.3,0,0,0,.23-.54.88.88,0,0,0,0-.17,1.06,1.06,0,0,0,0-.35,1.32,1.32,0,0,0-1.32-1l-.27,0a1.34,1.34,0,0,0-.39.16h0l-.09.07a1.54,1.54,0,0,0-.29.28h0c0,.05-.07.11-.11.17l0,.09A1.36,1.36,0,0,0,245.73,193.12Z"/><path id="_Path_34" data-name="&lt;Path&gt;" class="cls-8" d="M171.59,211.1a.52.52,0,0,0,.43.4h.22a.67.67,0,0,0,.21-.09l.07-.07h0l0-.06a.54.54,0,0,0,.09-.22.15.15,0,0,0,0-.07.61.61,0,0,0,0-.14.61.61,0,0,0-.17-.29.52.52,0,0,0-.38-.13H172l-.17.07h0l0,0a.68.68,0,0,0-.12.12h0a.43.43,0,0,0,0,.07l0,0A.65.65,0,0,0,171.59,211.1Z"/><path id="_Path_35" data-name="&lt;Path&gt;" class="cls-8" d="M261.34,144.44a1,1,0,0,0,.81.78h.05a.81.81,0,0,0,.22,0h0l.15,0A1.21,1.21,0,0,0,263,145a.86.86,0,0,0,.14-.13h0l.09-.11a.88.88,0,0,0,.17-.41.59.59,0,0,0,0-.13.88.88,0,0,0,0-.28,1,1,0,0,0-1-.79l-.21,0a1.2,1.2,0,0,0-.31.13h0l-.07,0a.92.92,0,0,0-.22.22h0a1.1,1.1,0,0,0-.09.14l0,.07A1,1,0,0,0,261.34,144.44Z"/><path id="_Path_36" data-name="&lt;Path&gt;" class="cls-8" d="M192.43,191a.91.91,0,0,0,.72.69h.25l.13,0a1,1,0,0,0,.34-.16.49.49,0,0,0,.13-.12h0l.08-.09a.85.85,0,0,0,.15-.37.5.5,0,0,0,0-.12,1,1,0,0,0,0-.24,1,1,0,0,0-.28-.48.93.93,0,0,0-.64-.23l-.18,0a.86.86,0,0,0-.28.11h0l-.07,0a.86.86,0,0,0-.19.19h0l-.08.13,0,.06A1,1,0,0,0,192.43,191Z"/></g></g><g id="_Group_7" data-name="&lt;Group&gt;"><g id="_Group_8" data-name="&lt;Group&gt;"><path id="_Path_37" data-name="&lt;Path&gt;" class="cls-8" d="M289.11,156.46a.48.48,0,0,0,.38.36h.2a.51.51,0,0,0,.18-.09s.05,0,.07-.06h0l0,0a.41.41,0,0,0,.08-.19.13.13,0,0,0,0-.06.53.53,0,0,0,0-.13.46.46,0,0,0-.15-.25.45.45,0,0,0-.33-.12h-.1a.35.35,0,0,0-.14.06h0l0,0a.35.35,0,0,0-.1.11h0l0,.06s0,0,0,0A.48.48,0,0,0,289.11,156.46Z"/><path id="_Path_38" data-name="&lt;Path&gt;" class="cls-8" d="M275.3,191.59a.42.42,0,0,0,.33.32h.18a.3.3,0,0,0,.15-.07l.06-.05h0s0,0,0,0a.51.51,0,0,0,.07-.17v-.06a.22.22,0,0,0,0-.11.43.43,0,0,0-.12-.22.45.45,0,0,0-.3-.1h-.08l-.12,0h0l0,0-.09.09h0l0,.06v0A.37.37,0,0,0,275.3,191.59Z"/><path id="_Path_39" data-name="&lt;Path&gt;" class="cls-8" d="M219.34,163.8a.38.38,0,0,0,.31.3h.16A.26.26,0,0,0,220,164L220,164h0l0,0a.69.69,0,0,0,.07-.15v-.06a.34.34,0,0,0,0-.1.37.37,0,0,0-.12-.21.43.43,0,0,0-.27-.1h-.08a.33.33,0,0,0-.12.05h0l0,0-.09.09h0l0,.05v0A.39.39,0,0,0,219.34,163.8Z"/><path id="_Path_40" data-name="&lt;Path&gt;" class="cls-8" d="M247.43,117.73a.45.45,0,0,0,.36.34H248a.45.45,0,0,0,.17-.08l.06-.06h0s0,0,0,0a.48.48,0,0,0,.08-.18.13.13,0,0,1,0-.06s0-.08,0-.12a.57.57,0,0,0-.14-.24.52.52,0,0,0-.32-.11h-.09a.38.38,0,0,0-.13.06h0l0,0-.09.1h0l0,.06v0A.42.42,0,0,0,247.43,117.73Z"/><path id="_Path_41" data-name="&lt;Path&gt;" class="cls-8" d="M225.68,128.91a.59.59,0,0,0,.46.44h.25a.68.68,0,0,0,.21-.1l.09-.08h0l0-.06a.52.52,0,0,0,.1-.23.22.22,0,0,0,0-.08.45.45,0,0,0,0-.16.58.58,0,0,0-.18-.3.54.54,0,0,0-.41-.14h-.11a.75.75,0,0,0-.18.07h0l0,0a.8.8,0,0,0-.13.13h0a.56.56,0,0,0-.05.08s0,0,0,0A.53.53,0,0,0,225.68,128.91Z"/><path id="_Path_42" data-name="&lt;Path&gt;" class="cls-8" d="M290.21,175.91a.47.47,0,0,0,.38.36h.2a.51.51,0,0,0,.18-.09.13.13,0,0,0,.07-.06h0a.1.1,0,0,0,0-.05.48.48,0,0,0,.09-.19.17.17,0,0,1,0-.07.69.69,0,0,0,0-.13.41.41,0,0,0-.15-.25.45.45,0,0,0-.33-.12h-.1a.39.39,0,0,0-.15.06h0l0,0a.47.47,0,0,0-.1.1h0a.16.16,0,0,0,0,.07l0,0A.5.5,0,0,0,290.21,175.91Z"/><path id="_Path_43" data-name="&lt;Path&gt;" class="cls-8" d="M214.54,144.14a.78.78,0,0,0,.62.6h.22l.11,0a.83.83,0,0,0,.3-.14.52.52,0,0,0,.11-.1h0l.07-.08a.83.83,0,0,0,.13-.32.31.31,0,0,0,0-.1.74.74,0,0,0,0-.21.75.75,0,0,0-.25-.41.78.78,0,0,0-.55-.2l-.16,0a.94.94,0,0,0-.23.1h0l-.06,0a.69.69,0,0,0-.17.17h0l-.07.11s0,0,0,0A.72.72,0,0,0,214.54,144.14Z"/><path id="_Path_44" data-name="&lt;Path&gt;" class="cls-8" d="M233.41,149.76a.84.84,0,0,0,.68.65h0a.61.61,0,0,0,.19,0h0l.13,0a.94.94,0,0,0,.32-.15l.12-.11h0a.27.27,0,0,0,.07-.08.83.83,0,0,0,.15-.35s0-.08,0-.12a2,2,0,0,0,0-.23.94.94,0,0,0-.27-.45.86.86,0,0,0-.6-.21l-.17,0a.81.81,0,0,0-.27.11h0l-.06,0a1.14,1.14,0,0,0-.19.19h0a1.27,1.27,0,0,0-.07.12l0,0A.87.87,0,0,0,233.41,149.76Z"/><path id="_Path_45" data-name="&lt;Path&gt;" class="cls-8" d="M273.3,169.68a.87.87,0,0,0,.69.66H274a.61.61,0,0,0,.19,0h0l.13,0a1,1,0,0,0,.33-.15l.12-.11h0l.08-.09a1.19,1.19,0,0,0,.15-.35s0-.08,0-.12a1,1,0,0,0,0-.24.83.83,0,0,0-.27-.45.85.85,0,0,0-.61-.22l-.18,0a.85.85,0,0,0-.26.11h0l-.07.05a.69.69,0,0,0-.19.19h0a.41.41,0,0,0-.07.11l0,.06A.9.9,0,0,0,273.3,169.68Z"/><path id="_Path_46" data-name="&lt;Path&gt;" class="cls-8" d="M223.88,181.66a.34.34,0,0,0,.28.27h.15a.59.59,0,0,0,.14-.06l.05-.05h0l0,0a.35.35,0,0,0,.06-.14s0,0,0,0a.34.34,0,0,0,0-.1.45.45,0,0,0-.11-.19.39.39,0,0,0-.26-.09h-.07l-.11.05h0l0,0-.08.08h0l0,0v0A.33.33,0,0,0,223.88,181.66Z"/><path id="_Path_47" data-name="&lt;Path&gt;" class="cls-8" d="M283.71,137.22a.67.67,0,0,0,.54.52h.18l.1,0a.76.76,0,0,0,.26-.11l.1-.09h0l.05-.07a.7.7,0,0,0,.12-.28s0-.06,0-.09a.55.55,0,0,0,0-.18.63.63,0,0,0-.21-.36.71.71,0,0,0-.47-.17l-.14,0a1,1,0,0,0-.21.09h0l0,0a.67.67,0,0,0-.14.15h0l-.06.09s0,0,0,.05A.64.64,0,0,0,283.71,137.22Z"/><path id="_Path_48" data-name="&lt;Path&gt;" class="cls-8" d="M237.77,168.23a.61.61,0,0,0,.48.46h.25a.8.8,0,0,0,.23-.1l.09-.08h0l.05-.06a.6.6,0,0,0,.1-.25.22.22,0,0,0,0-.08.86.86,0,0,0,0-.16.61.61,0,0,0-.19-.32.59.59,0,0,0-.42-.15h-.13a.71.71,0,0,0-.18.08h0l-.05,0a.8.8,0,0,0-.13.13h0a.56.56,0,0,1-.05.08.05.05,0,0,1,0,0A.62.62,0,0,0,237.77,168.23Z"/></g></g><g id="_Group_9" data-name="&lt;Group&gt;"><g id="_Group_10" data-name="&lt;Group&gt;"><path id="_Path_49" data-name="&lt;Path&gt;" class="cls-8" d="M154.84,224.52a.48.48,0,0,0,.38.36h.13l.07,0a.37.37,0,0,0,.18-.08l.07-.06h0l0,0a.46.46,0,0,0,.08-.19.13.13,0,0,0,0-.06.53.53,0,0,0,0-.13.43.43,0,0,0-.15-.25.45.45,0,0,0-.33-.12h-.1a.47.47,0,0,0-.15.06h0l0,0a.35.35,0,0,0-.1.11h0l0,.06,0,0A.51.51,0,0,0,154.84,224.52Z"/><path id="_Path_50" data-name="&lt;Path&gt;" class="cls-8" d="M141,259.65a.42.42,0,0,0,.33.32h.18a.41.41,0,0,0,.15-.07l.06-.05h0l0,0a.46.46,0,0,0,.07-.16v-.06a.21.21,0,0,0,0-.11.43.43,0,0,0-.12-.22.41.41,0,0,0-.3-.1h-.08l-.13.05h0l0,0-.09.09h0l0,.06v0A.35.35,0,0,0,141,259.65Z"/><path id="_Path_51" data-name="&lt;Path&gt;" class="cls-8" d="M85.07,231.86a.37.37,0,0,0,.31.29h.16a.35.35,0,0,0,.15-.07.12.12,0,0,0,0-.05h0l0,0a.59.59,0,0,0,.07-.16v-.05a.34.34,0,0,0,0-.1.37.37,0,0,0-.12-.21.43.43,0,0,0-.27-.1h-.08a.33.33,0,0,0-.12.05h0l0,0-.09.09h0l0,.05v0A.38.38,0,0,0,85.07,231.86Z"/><path id="_Path_52" data-name="&lt;Path&gt;" class="cls-8" d="M113.16,185.79a.44.44,0,0,0,.35.34h.19l.17-.08.06-.06h0l0,0a.48.48,0,0,0,.08-.18.13.13,0,0,1,0-.06.5.5,0,0,0,0-.12.47.47,0,0,0-.13-.24.52.52,0,0,0-.32-.11h-.09a.31.31,0,0,0-.13.06h0l0,0a.43.43,0,0,0-.09.1h0a.21.21,0,0,0,0,.06v0A.42.42,0,0,0,113.16,185.79Z"/><path id="_Path_53" data-name="&lt;Path&gt;" class="cls-8" d="M91.41,197a.58.58,0,0,0,.46.44H92l.08,0a.49.49,0,0,0,.22-.09l.09-.08h0l0-.06a.52.52,0,0,0,.1-.23.22.22,0,0,0,0-.08.45.45,0,0,0,0-.16.58.58,0,0,0-.18-.3.59.59,0,0,0-.41-.15l-.11,0a.48.48,0,0,0-.18.07h0l0,0a.8.8,0,0,0-.13.13h0a.56.56,0,0,0-.05.08s0,0,0,0A.52.52,0,0,0,91.41,197Z"/><path id="_Path_54" data-name="&lt;Path&gt;" class="cls-8" d="M155.94,244a.46.46,0,0,0,.38.37h.2a.51.51,0,0,0,.18-.09l.07-.06h0l0-.05a.48.48,0,0,0,.09-.19v-.07a.29.29,0,0,0,0-.13.41.41,0,0,0-.15-.25.46.46,0,0,0-.34-.12h-.09a.34.34,0,0,0-.15.06h0l0,0a.52.52,0,0,0-.1.11h0a.16.16,0,0,0,0,.07l0,0A.41.41,0,0,0,155.94,244Z"/><path id="_Path_55" data-name="&lt;Path&gt;" class="cls-8" d="M80.27,212.2a.79.79,0,0,0,.62.6h.22l.11,0a1,1,0,0,0,.3-.14.52.52,0,0,0,.11-.1h0l.07-.08a.83.83,0,0,0,.13-.32.34.34,0,0,0,0-.1.74.74,0,0,0,0-.21.75.75,0,0,0-.25-.41.78.78,0,0,0-.55-.2l-.16,0a.67.67,0,0,0-.23.1h0l-.06,0a.69.69,0,0,0-.17.17h0a.41.41,0,0,0-.07.11.08.08,0,0,0,0,.05A.72.72,0,0,0,80.27,212.2Z"/><path id="_Path_56" data-name="&lt;Path&gt;" class="cls-8" d="M99.14,217.82a.84.84,0,0,0,.68.65h0a.61.61,0,0,0,.19,0h0l.13,0a.94.94,0,0,0,.32-.15l.12-.11h0a.31.31,0,0,0,.07-.09.74.74,0,0,0,.15-.34s0-.08,0-.12a2,2,0,0,0,0-.23.9.9,0,0,0-.27-.45.86.86,0,0,0-.6-.21l-.18,0a.85.85,0,0,0-.26.11h0l-.06,0a.86.86,0,0,0-.19.19h0l-.07.11,0,.06A.8.8,0,0,0,99.14,217.82Z"/><path id="_Path_57" data-name="&lt;Path&gt;" class="cls-8" d="M139,237.74a.87.87,0,0,0,.69.66H140l.13,0a1,1,0,0,0,.33-.15l.12-.11h0l.07-.09a1,1,0,0,0,.16-.36s0-.07,0-.11a1,1,0,0,0,0-.24.85.85,0,0,0-.88-.67l-.18,0a.76.76,0,0,0-.26.11h0l-.07,0a1.14,1.14,0,0,0-.19.19h0a.75.75,0,0,0-.07.12l0,.06A.89.89,0,0,0,139,237.74Z"/><path id="_Path_58" data-name="&lt;Path&gt;" class="cls-8" d="M89.61,249.72a.35.35,0,0,0,.28.27H90l.14-.07,0,0h0l0,0a.35.35,0,0,0,.06-.14.07.07,0,0,1,0,0s0-.07,0-.1a.4.4,0,0,0-.11-.19.39.39,0,0,0-.26-.09h-.07l-.11.05h0l0,0a.27.27,0,0,0-.08.07h0l0,.05v0A.32.32,0,0,0,89.61,249.72Z"/><path id="_Path_59" data-name="&lt;Path&gt;" class="cls-8" d="M149.44,205.28a.69.69,0,0,0,.54.52h.18l.1,0a.62.62,0,0,0,.26-.12l.09-.08h0l.06-.07a.7.7,0,0,0,.12-.28s0-.06,0-.09a.55.55,0,0,0,0-.18.65.65,0,0,0-.21-.36.71.71,0,0,0-.47-.17l-.14,0a1,1,0,0,0-.21.09h0l-.05,0a.67.67,0,0,0-.14.15h0a.47.47,0,0,0-.06.09s0,0,0,.05A.64.64,0,0,0,149.44,205.28Z"/><path id="_Path_60" data-name="&lt;Path&gt;" class="cls-8" d="M103.5,236.29a.59.59,0,0,0,.48.45h.25a.61.61,0,0,0,.23-.11l.09-.07h0l0-.07a.51.51,0,0,0,.1-.24.22.22,0,0,0,0-.08,1,1,0,0,0,0-.17.63.63,0,0,0-.19-.31.59.59,0,0,0-.42-.15H104a.58.58,0,0,0-.18.08h0l0,0-.13.13h0l0,.08s0,0,0,0A.62.62,0,0,0,103.5,236.29Z"/></g></g><g id="_Group_11" data-name="&lt;Group&gt;"><g id="_Group_12" data-name="&lt;Group&gt;"><path id="_Path_61" data-name="&lt;Path&gt;" class="cls-8" d="M231.43,193.32a.48.48,0,0,0,.52.1h0l.09-.06h0s0,0,.05,0a.39.39,0,0,0,.1-.16l0-.09h0V193a.44.44,0,0,0,0-.2l0-.06a.39.39,0,0,0-.08-.1.47.47,0,0,0-.61,0l-.07.06a.38.38,0,0,0-.09.13h0l0,0,0,.14h0a.19.19,0,0,0,0,.08v0A.52.52,0,0,0,231.43,193.32Z"/><path id="_Path_62" data-name="&lt;Path&gt;" class="cls-8" d="M239.3,230.25a.44.44,0,0,0,.45.08h0l.08,0h0l0,0a.46.46,0,0,0,.09-.15.19.19,0,0,0,0-.08h0a.07.07,0,0,0,0-.05.39.39,0,0,0,0-.18s0,0,0-.05l-.07-.09a.41.41,0,0,0-.53,0l-.06.05a.76.76,0,0,0-.08.11h0v0a.53.53,0,0,0,0,.12h0a.15.15,0,0,0,0,.07v0A.47.47,0,0,0,239.3,230.25Z"/><path id="_Path_63" data-name="&lt;Path&gt;" class="cls-8" d="M177.29,238a.39.39,0,0,0,.42.08h0a.18.18,0,0,0,.07-.05h0l0,0a.46.46,0,0,0,.08-.13.24.24,0,0,0,0-.08h0a.09.09,0,0,0,0-.05.47.47,0,0,0,0-.17l0-.05s0,0-.06-.08a.37.37,0,0,0-.22-.1.35.35,0,0,0-.28.07l-.06,0a.26.26,0,0,0-.07.11h0l0,0a.5.5,0,0,0,0,.12h0v.09A.36.36,0,0,0,177.29,238Z"/><path id="_Path_64" data-name="&lt;Path&gt;" class="cls-8" d="M175.3,184a.45.45,0,0,0,.48.09h0l.09-.05h0l.05-.05a.51.51,0,0,0,.09-.16.19.19,0,0,0,0-.08h0a.13.13,0,0,0,0-.06.63.63,0,0,0,0-.19l0-.05a.46.46,0,0,0-.32-.22.46.46,0,0,0-.32.08l-.07.06a.42.42,0,0,0-.08.12h0l0,0a.61.61,0,0,0,0,.13h0a.22.22,0,0,0,0,.08v0A.47.47,0,0,0,175.3,184Z"/><path id="_Path_65" data-name="&lt;Path&gt;" class="cls-8" d="M163.33,205.35a.57.57,0,0,0,.63.12h0l.11-.07h0l.07-.06a.59.59,0,0,0,.12-.2.61.61,0,0,0,0-.11h0a.22.22,0,0,0,0-.08.56.56,0,0,0,0-.25l0-.07a.63.63,0,0,0-.42-.28.6.6,0,0,0-.42.11l-.08.07a.51.51,0,0,0-.11.16h0l0,0a1.36,1.36,0,0,0,0,.17h0a.28.28,0,0,0,0,.09v0A.53.53,0,0,0,163.33,205.35Z"/><path id="_Path_66" data-name="&lt;Path&gt;" class="cls-8" d="M243.07,208.94a.48.48,0,0,0,.53.09h0l.09-.05h0s0,0,0-.05a.62.62,0,0,0,.11-.17.29.29,0,0,0,0-.09h0s0,0,0-.06a.46.46,0,0,0,0-.21l0-.06a.76.76,0,0,0-.08-.11.47.47,0,0,0-.27-.12.49.49,0,0,0-.35.08l-.07.07a.38.38,0,0,0-.09.13h0l0,0a.78.78,0,0,0,0,.14h0a.09.09,0,0,0,0,.07v0A.55.55,0,0,0,243.07,208.94Z"/><path id="_Path_67" data-name="&lt;Path&gt;" class="cls-8" d="M162.45,224.2a.77.77,0,0,0,.84.16l0,0,.14-.09h0l.08-.08a.68.68,0,0,0,.17-.28.74.74,0,0,0,0-.14h0a.41.41,0,0,0,0-.11,1,1,0,0,0-.06-.34l-.05-.09a.7.7,0,0,0-.13-.17.79.79,0,0,0-.43-.21.83.83,0,0,0-.57.14l-.12.11a.7.7,0,0,0-.14.21h0l0,.07a.86.86,0,0,0-.05.23h0a.53.53,0,0,0,0,.13.13.13,0,0,0,0,.06A.68.68,0,0,0,162.45,224.2Z"/><path id="_Path_68" data-name="&lt;Path&gt;" class="cls-8" d="M181.28,218.48a.85.85,0,0,0,.92.17l0,0,.16-.1h0l.1-.09a.92.92,0,0,0,.18-.3,1,1,0,0,0,0-.16h0s0-.08,0-.11a1,1,0,0,0-.07-.38.93.93,0,0,0,0-.1.84.84,0,0,0-.15-.18A.81.81,0,0,0,182,217a.88.88,0,0,0-.62.15l-.13.12a1.19,1.19,0,0,0-.16.23h0l0,.07a1.32,1.32,0,0,0-.05.26h0a.66.66,0,0,0,0,.14.13.13,0,0,0,0,.06A.81.81,0,0,0,181.28,218.48Z"/><path id="_Path_69" data-name="&lt;Path&gt;" class="cls-8" d="M225.54,213.07a.87.87,0,0,0,.94.18l0,0,.17-.11h0l.09-.08a.87.87,0,0,0,.23-.47h0s0-.08,0-.12a1,1,0,0,0-.07-.38l-.06-.1a.85.85,0,0,0-.14-.19.93.93,0,0,0-.48-.23.84.84,0,0,0-.63.16l-.14.11a1.67,1.67,0,0,0-.16.24h0l0,.08a.75.75,0,0,0,0,.26h0v.14a.13.13,0,0,1,0,.06A.88.88,0,0,0,225.54,213.07Z"/><path id="_Path_70" data-name="&lt;Path&gt;" class="cls-8" d="M190.93,250.34a.37.37,0,0,0,.39.07h0l.06,0h0a.08.08,0,0,0,0,0,.32.32,0,0,0,.08-.12s0,0,0-.07h0v0a.27.27,0,0,0,0-.15.05.05,0,0,0,0,0,.16.16,0,0,0-.06-.08.3.3,0,0,0-.19-.1.35.35,0,0,0-.26.07l-.06,0a.27.27,0,0,0-.06.1h0l0,0a.43.43,0,0,0,0,.11h0v.08A.35.35,0,0,0,190.93,250.34Z"/><path id="_Path_71" data-name="&lt;Path&gt;" class="cls-8" d="M216.31,180.27a.68.68,0,0,0,.73.13l0,0a.42.42,0,0,0,.12-.08h0l.08-.06a1,1,0,0,0,.14-.24.65.65,0,0,0,0-.13h0s0-.06,0-.09a.72.72,0,0,0-.06-.29.2.2,0,0,0,0-.08.83.83,0,0,0-.11-.15.67.67,0,0,0-.86-.06l-.11.09a.76.76,0,0,0-.12.19h0l0,.06a1.18,1.18,0,0,0,0,.2h0a.41.41,0,0,0,0,.11v.05A.75.75,0,0,0,216.31,180.27Z"/><path id="_Path_72" data-name="&lt;Path&gt;" class="cls-8" d="M195.11,231.47a.6.6,0,0,0,.65.12h0l.11-.07h0l.07-.07a.57.57,0,0,0,.13-.21l0-.11h0s0-.05,0-.08a.75.75,0,0,0,0-.26.3.3,0,0,0,0-.08.58.58,0,0,0-.1-.12.52.52,0,0,0-.33-.16.58.58,0,0,0-.44.1l-.09.08a.45.45,0,0,0-.11.17h0l0,0a.57.57,0,0,0,0,.18h0v.1s0,0,0,0A.57.57,0,0,0,195.11,231.47Z"/></g></g><g id="_Group_13" data-name="&lt;Group&gt;"><g id="_Group_14" data-name="&lt;Group&gt;"><path id="_Path_73" data-name="&lt;Path&gt;" class="cls-8" d="M300.94,205.36a.73.73,0,0,0-.35.7v0a.83.83,0,0,0,0,.15h0s0,.07.05.1a.7.7,0,0,0,.2.22l.12.07h0l.09,0a.65.65,0,0,0,.31,0h.09a.58.58,0,0,0,.18-.08.64.64,0,0,0,.29-.32.68.68,0,0,0,0-.54.49.49,0,0,0-.06-.13.65.65,0,0,0-.15-.18h0l0,0a.69.69,0,0,0-.19-.1h0l-.11,0h-.06A.67.67,0,0,0,300.94,205.36Z"/><path id="_Path_74" data-name="&lt;Path&gt;" class="cls-8" d="M244.46,201.37a.61.61,0,0,0-.31.61v0a.5.5,0,0,0,0,.13h0a.36.36,0,0,0,0,.09.61.61,0,0,0,.17.19l.1.06h0l.08,0a.63.63,0,0,0,.27,0l.08,0a.44.44,0,0,0,.16-.06.59.59,0,0,0,.25-.29.56.56,0,0,0,0-.46.37.37,0,0,0-.05-.11.7.7,0,0,0-.13-.16h0l-.05,0-.17-.08h0l-.09,0h0A.54.54,0,0,0,244.46,201.37Z"/><path id="_Path_75" data-name="&lt;Path&gt;" class="cls-8" d="M259.11,108.79a.58.58,0,0,0-.29.58v0a.56.56,0,0,0,0,.12h0a.3.3,0,0,0,0,.08.69.69,0,0,0,.16.18l.1.06h0l.07,0a.74.74,0,0,0,.26,0h.08l.14-.06a.57.57,0,0,0,.24-.27.6.6,0,0,0,0-.44l-.05-.1a.61.61,0,0,0-.12-.15h0l-.05,0-.16-.08h0l-.09,0h0A.55.55,0,0,0,259.11,108.79Z"/><path id="_Path_76" data-name="&lt;Path&gt;" class="cls-8" d="M337.65,128.32a.65.65,0,0,0-.33.65v0a.74.74,0,0,0,0,.14h0a.41.41,0,0,0,.05.09.58.58,0,0,0,.18.2l.11.07h0l.08,0a.77.77,0,0,0,.3,0h.08l.17-.07a.7.7,0,0,0,.28-.31.69.69,0,0,0,0-.49.5.5,0,0,0-.05-.13,1.15,1.15,0,0,0-.14-.17h0l-.05,0-.18-.09h0l-.11,0h-.05A.59.59,0,0,0,337.65,128.32Z"/><path id="_Path_77" data-name="&lt;Path&gt;" class="cls-8" d="M311.88,102.21a.88.88,0,0,0-.42.85v0a1.21,1.21,0,0,0,0,.18h0l.06.12a1,1,0,0,0,.24.26l.14.09h0l.11,0a1,1,0,0,0,.38,0l.12,0a1,1,0,0,0,.21-.09.86.86,0,0,0,.36-.4.83.83,0,0,0,0-.64.77.77,0,0,0-.07-.16.79.79,0,0,0-.18-.22h0l-.07,0a.72.72,0,0,0-.23-.12h0l-.14,0h-.06A.92.92,0,0,0,311.88,102.21Z"/><path id="_Path_78" data-name="&lt;Path&gt;" class="cls-8" d="M273.6,215.66a.69.69,0,0,0-.35.71v0a.88.88,0,0,0,.05.15h0a1,1,0,0,1,0,.1,1.07,1.07,0,0,0,.2.22l.13.07h0l.08,0a.87.87,0,0,0,.32,0l.1,0a.71.71,0,0,0,.18-.08.64.64,0,0,0,.29-.32.72.72,0,0,0,0-.54l-.07-.14a.65.65,0,0,0-.15-.18h0l-.05,0a.54.54,0,0,0-.2-.1h0a.23.23,0,0,0-.11,0h0A.75.75,0,0,0,273.6,215.66Z"/><path id="_Path_79" data-name="&lt;Path&gt;" class="cls-8" d="M285.09,93.1a1.18,1.18,0,0,0-.58,1.16.13.13,0,0,1,0,.06,2.33,2.33,0,0,0,.07.25h0a1,1,0,0,0,.07.15,1.15,1.15,0,0,0,.33.36,1,1,0,0,0,.19.12h0l.14.06a1.25,1.25,0,0,0,.51,0l.16,0a.81.81,0,0,0,.29-.12,1.11,1.11,0,0,0,.48-.53,1.21,1.21,0,0,0,0-.88,2,2,0,0,0-.1-.21,1.25,1.25,0,0,0-.25-.3h0l-.09-.07a.88.88,0,0,0-.32-.16h0a.61.61,0,0,0-.18-.05h-.08A1.12,1.12,0,0,0,285.09,93.1Z"/><path id="_Path_80" data-name="&lt;Path&gt;" class="cls-8" d="M285.52,122.62a1.29,1.29,0,0,0-.63,1.27.13.13,0,0,0,0,.06.9.9,0,0,0,.08.28h0l.08.17a1.35,1.35,0,0,0,.36.39l.21.13h0l.16.06a1.37,1.37,0,0,0,.57.06l.16,0a1.36,1.36,0,0,0,.33-.14,1.21,1.21,0,0,0,.52-.58,1.32,1.32,0,0,0,0-1,1.63,1.63,0,0,0-.11-.23,1.26,1.26,0,0,0-.27-.33h0l-.09-.07a1.29,1.29,0,0,0-.35-.18h0a.84.84,0,0,0-.2,0l-.1,0A1.32,1.32,0,0,0,285.52,122.62Z"/><path id="_Path_81" data-name="&lt;Path&gt;" class="cls-8" d="M274.92,188.66a1.32,1.32,0,0,0-.64,1.29s0,.05,0,.07a1.09,1.09,0,0,0,.08.28h0l.08.17a1.39,1.39,0,0,0,.36.4l.22.13h0a.52.52,0,0,0,.16.06,1.42,1.42,0,0,0,.58.06l.17,0a1.17,1.17,0,0,0,.33-.14,1.31,1.31,0,0,0,.53-.59,1.35,1.35,0,0,0,0-1,2.56,2.56,0,0,0-.11-.24,1.29,1.29,0,0,0-.28-.33h0l-.09-.08a1.22,1.22,0,0,0-.36-.18h0a.73.73,0,0,0-.2-.05l-.1,0A1.39,1.39,0,0,0,274.92,188.66Z"/><path id="_Path_82" data-name="&lt;Path&gt;" class="cls-8" d="M235.58,123.31a.54.54,0,0,0-.26.52v0a.27.27,0,0,0,0,.12h0l0,.07a.57.57,0,0,0,.15.16l.09.06h0l.07,0a.45.45,0,0,0,.23,0l.07,0,.14,0a.53.53,0,0,0,.22-.25.55.55,0,0,0,0-.4l0-.1a.69.69,0,0,0-.11-.13h0l0,0-.15-.08h0l-.08,0h0A.49.49,0,0,0,235.58,123.31Z"/><path id="_Path_83" data-name="&lt;Path&gt;" class="cls-8" d="M326,189a1,1,0,0,0-.49,1,.09.09,0,0,0,0,0,.79.79,0,0,0,.06.22h0a.83.83,0,0,0,.07.13.93.93,0,0,0,.28.31l.17.11h0l.12.05a1.13,1.13,0,0,0,.45,0l.13,0a1.19,1.19,0,0,0,.26-.11,1,1,0,0,0,.41-.46,1,1,0,0,0,0-.76.76.76,0,0,0-.09-.18.89.89,0,0,0-.21-.26h0l-.07-.06a1,1,0,0,0-.28-.14h0l-.16,0h-.07A1,1,0,0,0,326,189Z"/><path id="_Path_84" data-name="&lt;Path&gt;" class="cls-8" d="M261,137.16a.9.9,0,0,0-.44.89.07.07,0,0,1,0,0,.7.7,0,0,0,.06.19h0a.34.34,0,0,0,.06.12.84.84,0,0,0,.25.28l.15.09h0l.11,0a.9.9,0,0,0,.4,0l.12,0a1.09,1.09,0,0,0,.23-.09.94.94,0,0,0,.39-1.09.65.65,0,0,0-.08-.17.83.83,0,0,0-.19-.23h0l-.06,0a1.19,1.19,0,0,0-.25-.13h0l-.14,0h-.07A.92.92,0,0,0,261,137.16Z"/></g></g><g id="_Group_15" data-name="&lt;Group&gt;"><g id="_Group_16" data-name="&lt;Group&gt;"><path id="_Path_85" data-name="&lt;Path&gt;" class="cls-8" d="M328.3,174.5a.71.71,0,0,0-.34.71v0a.88.88,0,0,0,.05.15h0a.36.36,0,0,0,0,.09.85.85,0,0,0,.2.22l.12.07h0l.09,0a.82.82,0,0,0,.31,0l.1,0a.67.67,0,0,0,.18-.07.77.77,0,0,0,.29-.33.74.74,0,0,0,0-.53l-.06-.13a.9.9,0,0,0-.15-.18h0l-.06,0a.5.5,0,0,0-.19-.1h0a.23.23,0,0,0-.11,0h-.05A.85.85,0,0,0,328.3,174.5Z"/><path id="_Path_86" data-name="&lt;Path&gt;" class="cls-8" d="M271.82,170.51a.62.62,0,0,0-.3.61v0a.65.65,0,0,0,0,.13h0a.2.2,0,0,0,0,.08.63.63,0,0,0,.17.19.24.24,0,0,0,.11.06h0l.07,0a.82.82,0,0,0,.27,0h.09l.15-.07a.63.63,0,0,0,.26-.28.72.72,0,0,0,0-.58.47.47,0,0,0-.13-.15h0l0,0a.7.7,0,0,0-.17-.09h0l-.1,0h-.05A.62.62,0,0,0,271.82,170.51Z"/><path id="_Path_87" data-name="&lt;Path&gt;" class="cls-8" d="M286.47,77.93a.62.62,0,0,0-.29.58v0l0,.13h0a.59.59,0,0,1,0,.08.55.55,0,0,0,.17.17.24.24,0,0,0,.09.06h0l.08,0a.54.54,0,0,0,.25,0l.08,0a.47.47,0,0,0,.15-.06.6.6,0,0,0,.24-.26.61.61,0,0,0,0-.44.54.54,0,0,0-.05-.11.44.44,0,0,0-.12-.15h0l0,0a.6.6,0,0,0-.16-.08h0l-.09,0h-.05A.61.61,0,0,0,286.47,77.93Z"/><path id="_Path_88" data-name="&lt;Path&gt;" class="cls-8" d="M365,97.46a.68.68,0,0,0-.32.66v0a.57.57,0,0,0,0,.14h0a.56.56,0,0,0,0,.08.63.63,0,0,0,.18.21l.11.07h0l.09,0a.7.7,0,0,0,.29,0l.09,0a.61.61,0,0,0,.17-.07.71.71,0,0,0,.27-.3.66.66,0,0,0,0-.5l-.06-.12a.79.79,0,0,0-.14-.17h0l-.05,0a.61.61,0,0,0-.18-.09h0a.38.38,0,0,0-.1,0h-.05A.75.75,0,0,0,365,97.46Z"/><path id="_Path_89" data-name="&lt;Path&gt;" class="cls-8" d="M339.25,71.35a.87.87,0,0,0-.43.86v0a1.33,1.33,0,0,0,.05.19h0l.06.11a1.05,1.05,0,0,0,.24.27l.15.08h0l.1,0a.86.86,0,0,0,.39,0l.11,0a1,1,0,0,0,.22-.09.83.83,0,0,0,.35-.39.91.91,0,0,0,0-.65s0-.1-.08-.16a1,1,0,0,0-.18-.22h0l-.06,0a1.34,1.34,0,0,0-.24-.12h0l-.13,0h-.07A.86.86,0,0,0,339.25,71.35Z"/><path id="_Path_90" data-name="&lt;Path&gt;" class="cls-8" d="M301,184.8a.72.72,0,0,0-.35.71v0a.88.88,0,0,0,.05.15h0a.31.31,0,0,0,0,.1.61.61,0,0,0,.2.22l.12.08h0l.09,0a.69.69,0,0,0,.32,0l.09,0a.67.67,0,0,0,.18-.07.73.73,0,0,0,.3-.33.77.77,0,0,0,0-.54l-.06-.13a.93.93,0,0,0-.16-.18h0l-.05,0-.2-.1h0l-.11,0h-.05A.69.69,0,0,0,301,184.8Z"/><path id="_Path_91" data-name="&lt;Path&gt;" class="cls-8" d="M312.45,62.25a1.15,1.15,0,0,0-.57,1.15.13.13,0,0,0,0,.06.72.72,0,0,0,.07.25h0a.8.8,0,0,0,.08.16,1,1,0,0,0,.32.36,1.32,1.32,0,0,0,.2.12h0l.14.05a1.15,1.15,0,0,0,.52.06l.15,0a1.88,1.88,0,0,0,.3-.12,1.17,1.17,0,0,0,.51-1.41,1.47,1.47,0,0,0-.1-.22,1.42,1.42,0,0,0-.25-.3h0l-.08-.06a1.1,1.1,0,0,0-.32-.17h0l-.19,0h-.08A1.2,1.2,0,0,0,312.45,62.25Z"/><path id="_Path_92" data-name="&lt;Path&gt;" class="cls-8" d="M312.88,91.77a1.27,1.27,0,0,0-.63,1.26s0,0,0,.07a1.38,1.38,0,0,0,.08.27h0a.56.56,0,0,0,.09.17,1.35,1.35,0,0,0,.35.4l.22.13h0l.15.06a1.23,1.23,0,0,0,.57.05.51.51,0,0,0,.17,0,1.27,1.27,0,0,0,.32-.13,1.34,1.34,0,0,0,.53-.58,1.35,1.35,0,0,0-.08-1.2,1.18,1.18,0,0,0-.27-.32h0l-.09-.08a1.29,1.29,0,0,0-.35-.18h0l-.2,0h-.1A1.18,1.18,0,0,0,312.88,91.77Z"/><path id="_Path_93" data-name="&lt;Path&gt;" class="cls-8" d="M302.28,157.81a1.31,1.31,0,0,0-.63,1.29.13.13,0,0,0,0,.06.9.9,0,0,0,.08.28h0a.76.76,0,0,0,.09.18,1.25,1.25,0,0,0,.36.4l.21.13h0l.16.06a1.37,1.37,0,0,0,.57.06l.17,0a1.56,1.56,0,0,0,.33-.14,1.21,1.21,0,0,0,.53-.59,1.32,1.32,0,0,0,0-1,2.56,2.56,0,0,0-.11-.24,1.48,1.48,0,0,0-.28-.33h0l-.09-.07a1.55,1.55,0,0,0-.36-.19h0l-.2,0h-.1A1.32,1.32,0,0,0,302.28,157.81Z"/><path id="_Path_94" data-name="&lt;Path&gt;" class="cls-8" d="M263,92.45a.55.55,0,0,0-.27.53v0l0,.11h0a.16.16,0,0,0,0,.07.5.5,0,0,0,.15.17.19.19,0,0,0,.09,0h0l.06,0a.65.65,0,0,0,.24,0h.07a.38.38,0,0,0,.13-.06.51.51,0,0,0,.22-.24.55.55,0,0,0,0-.4.47.47,0,0,0-.05-.1.76.76,0,0,0-.11-.14h0l0,0-.15-.07h0l-.08,0h0A.52.52,0,0,0,263,92.45Z"/><path id="_Path_95" data-name="&lt;Path&gt;" class="cls-8" d="M353.41,158.13a1,1,0,0,0-.5,1s0,0,0,.06a.83.83,0,0,0,.06.21h0a.61.61,0,0,0,.07.14,1,1,0,0,0,.28.31,1,1,0,0,0,.17.1h0l.13.05a1.09,1.09,0,0,0,.44.05l.13,0a1.17,1.17,0,0,0,.26-.1,1,1,0,0,0,.41-.47,1,1,0,0,0,0-.75.9.9,0,0,0-.3-.45h0l-.07-.06a1.47,1.47,0,0,0-.28-.14h0l-.16,0H354A1,1,0,0,0,353.41,158.13Z"/><path id="_Path_96" data-name="&lt;Path&gt;" class="cls-8" d="M288.41,106.3a.9.9,0,0,0-.44.89v0a.6.6,0,0,0,.06.19h0l.06.13a.93.93,0,0,0,.25.27.6.6,0,0,0,.15.09h0l.11,0a1.09,1.09,0,0,0,.4,0l.12,0a.94.94,0,0,0,.23-.1.92.92,0,0,0,.37-.41.94.94,0,0,0,0-.68.85.85,0,0,0-.26-.39h0l-.07,0a.85.85,0,0,0-.25-.13h0l-.14,0H289A1,1,0,0,0,288.41,106.3Z"/></g></g><g id="_Group_17" data-name="&lt;Group&gt;"><g id="_Group_18" data-name="&lt;Group&gt;"><path id="_Path_97" data-name="&lt;Path&gt;" class="cls-8" d="M160.11,271.77a.71.71,0,0,0-.35.7v0a.83.83,0,0,0,0,.15h0l.05.09a.61.61,0,0,0,.2.22.35.35,0,0,0,.12.07h0l.08,0a.85.85,0,0,0,.32,0l.09,0a.67.67,0,0,0,.47-.4.65.65,0,0,0,0-.53.38.38,0,0,0-.06-.13.65.65,0,0,0-.15-.18h0l0,0a.58.58,0,0,0-.19-.1h0l-.12,0h-.05A.76.76,0,0,0,160.11,271.77Z"/><path id="_Path_98" data-name="&lt;Path&gt;" class="cls-8" d="M103.62,267.77a.63.63,0,0,0-.3.62v0a.61.61,0,0,0,0,.13h0a.56.56,0,0,0,0,.08.52.52,0,0,0,.17.19l.1.07h0l.08,0a.82.82,0,0,0,.27,0h.08l.16-.07a.53.53,0,0,0,.25-.28.68.68,0,0,0,0-.58.64.64,0,0,0-.13-.15h0l0,0a.56.56,0,0,0-.17-.09h0l-.09,0h0A.73.73,0,0,0,103.62,267.77Z"/><path id="_Path_99" data-name="&lt;Path&gt;" class="cls-8" d="M118.28,175.2a.57.57,0,0,0-.29.57v0a.5.5,0,0,0,0,.13h0l0,.08a.69.69,0,0,0,.16.18l.1.05h0a.11.11,0,0,0,.07,0,.57.57,0,0,0,.26,0l.08,0a.35.35,0,0,0,.14-.06.55.55,0,0,0,.24-.26.61.61,0,0,0,0-.44.54.54,0,0,0,0-.11,1.58,1.58,0,0,0-.12-.15h0l0,0a.48.48,0,0,0-.16-.08h0l-.09,0h0A.55.55,0,0,0,118.28,175.2Z"/><path id="_Path_100" data-name="&lt;Path&gt;" class="cls-8" d="M196.82,194.72a.67.67,0,0,0-.33.66v0a.83.83,0,0,0,0,.15h0l0,.09a.73.73,0,0,0,.19.2.41.41,0,0,0,.11.07h0l.08,0a.77.77,0,0,0,.3,0l.08,0a.51.51,0,0,0,.17-.07.6.6,0,0,0,.27-.3.66.66,0,0,0,0-.5.61.61,0,0,0-.05-.12.79.79,0,0,0-.14-.17h0l-.05,0-.18-.09h0l-.11,0h-.05A.71.71,0,0,0,196.82,194.72Z"/><path id="_Path_101" data-name="&lt;Path&gt;" class="cls-8" d="M171.05,168.61a.88.88,0,0,0-.42.86v0a1.05,1.05,0,0,0,.05.19h0l.06.11a.78.78,0,0,0,.24.27l.14.09h0l.11,0a1,1,0,0,0,.38,0l.11,0a.47.47,0,0,0,.22-.09.8.8,0,0,0,.36-.39.86.86,0,0,0,0-.65l-.07-.16a.76.76,0,0,0-.19-.21h0l-.06,0a.76.76,0,0,0-.23-.13h0l-.14,0h-.06A.91.91,0,0,0,171.05,168.61Z"/><path id="_Path_102" data-name="&lt;Path&gt;" class="cls-8" d="M132.77,282.06a.73.73,0,0,0-.36.71v0a.94.94,0,0,0,0,.16h0l0,.09a.71.71,0,0,0,.2.22l.12.08h0l.09,0a.59.59,0,0,0,.32,0h.1a.75.75,0,0,0,.47-.41.67.67,0,0,0,0-.54.38.38,0,0,0-.06-.13.65.65,0,0,0-.15-.18h0l-.05,0a.78.78,0,0,0-.2-.11h0l-.11,0h-.06A.66.66,0,0,0,132.77,282.06Z"/><path id="_Path_103" data-name="&lt;Path&gt;" class="cls-8" d="M144.26,159.51a1.17,1.17,0,0,0-.58,1.15.17.17,0,0,1,0,.07,2.17,2.17,0,0,0,.07.24h0c0,.06.05.11.08.16a1.15,1.15,0,0,0,.33.36.76.76,0,0,0,.19.12h0l.15.06a1.25,1.25,0,0,0,.51.05l.16,0a1.48,1.48,0,0,0,.29-.12A1.14,1.14,0,0,0,146,161a1.19,1.19,0,0,0,0-.87,1.47,1.47,0,0,0-.1-.22,1.41,1.41,0,0,0-.25-.29h0l-.09-.06a1.23,1.23,0,0,0-.32-.17h0l-.18,0-.09,0A1.18,1.18,0,0,0,144.26,159.51Z"/><path id="_Path_104" data-name="&lt;Path&gt;" class="cls-8" d="M144.68,189a1.28,1.28,0,0,0-.62,1.26.15.15,0,0,0,0,.07.92.92,0,0,0,.08.27h0a1.42,1.42,0,0,0,.08.18,1.49,1.49,0,0,0,.36.39l.21.13h0l.16.06a1.36,1.36,0,0,0,.57.06l.16,0a1.13,1.13,0,0,0,.33-.13,1.26,1.26,0,0,0,.52-.58,1.32,1.32,0,0,0,0-1,2.56,2.56,0,0,0-.11-.24,1.69,1.69,0,0,0-.27-.32h0l-.1-.08a1.64,1.64,0,0,0-.35-.18h0l-.2,0h-.09A1.29,1.29,0,0,0,144.68,189Z"/><path id="_Path_105" data-name="&lt;Path&gt;" class="cls-8" d="M134.09,255.07a1.31,1.31,0,0,0-.64,1.29.15.15,0,0,1,0,.07,2.76,2.76,0,0,0,.08.27h0l.09.18a1.54,1.54,0,0,0,.36.4l.22.13h0l.16.06a1.42,1.42,0,0,0,.58.06l.17,0a1.56,1.56,0,0,0,.33-.14,1.31,1.31,0,0,0,.53-.59,1.38,1.38,0,0,0,0-1,1.34,1.34,0,0,0-.12-.24,1.4,1.4,0,0,0-.27-.33h0l-.1-.07a1.48,1.48,0,0,0-.35-.19h0l-.2-.05h-.1A1.31,1.31,0,0,0,134.09,255.07Z"/><path id="_Path_106" data-name="&lt;Path&gt;" class="cls-8" d="M94.75,189.71a.54.54,0,0,0-.26.53v0a.36.36,0,0,0,0,.11h0l0,.08a.57.57,0,0,0,.15.16l.09,0h0l.07,0a.58.58,0,0,0,.23,0h.07a.35.35,0,0,0,.14-.06.51.51,0,0,0,.22-.24.55.55,0,0,0,0-.4.42.42,0,0,0,0-.1.37.37,0,0,0-.12-.13h0l0,0-.15-.07h0l-.08,0h0A.55.55,0,0,0,94.75,189.71Z"/><path id="_Path_107" data-name="&lt;Path&gt;" class="cls-8" d="M185.21,255.4a1,1,0,0,0-.49,1,.11.11,0,0,0,0,.05.83.83,0,0,0,.06.21h0a.83.83,0,0,0,.07.13.93.93,0,0,0,.28.31,1,1,0,0,0,.17.1h0l.12.05a1,1,0,0,0,.45.05l.13,0a1.39,1.39,0,0,0,.26-.1,1,1,0,0,0,.41-.46,1,1,0,0,0,0-.76.82.82,0,0,0-.09-.19,1,1,0,0,0-.21-.25h0l-.07,0a1.08,1.08,0,0,0-.28-.15h0l-.16,0h-.07A1,1,0,0,0,185.21,255.4Z"/><path id="_Path_108" data-name="&lt;Path&gt;" class="cls-8" d="M120.21,203.56a.92.92,0,0,0-.44.9v0a1.46,1.46,0,0,0,0,.2h0a.75.75,0,0,0,.07.12.81.81,0,0,0,.25.27.56.56,0,0,0,.15.1h0l.11,0a.9.9,0,0,0,.4,0l.12,0a.72.72,0,0,0,.22-.1.91.91,0,0,0,.4-1.08.89.89,0,0,0-.08-.17.71.71,0,0,0-.19-.23h0l-.06,0a.85.85,0,0,0-.25-.13h0l-.14,0h-.07A.9.9,0,0,0,120.21,203.56Z"/></g></g><polygon class="cls-9" points="63.56 324.29 18.31 417.19 366.23 216.32 63.56 324.29"/><polygon class="cls-10" points="225.43 247.5 18.31 417.19 236.68 291.12 225.43 247.5"/><polygon class="cls-11" points="366.23 216.32 225.43 247.5 143.09 345.15 236.68 291.12 366.23 216.32"/><polygon class="cls-12" points="157.82 276.76 63.56 324.29 236.68 291.12 157.82 276.76"/><polygon class="cls-13" points="225.43 247.5 157.82 276.76 187.46 319.54 297.9 255.77 225.43 247.5"/><polygon class="cls-14" points="366.23 216.32 281.01 215.64 225.43 247.5 243.56 287.14 366.23 216.32"/><polygon class="cls-15" points="17.83 218.57 365.75 17.71 366.23 216.32 500 394.13 330.61 492.57 18.31 417.19 17.83 218.57"/><polygon class="cls-16" points="17.83 218.57 330.61 492.57 500 394.13 365.75 17.71 17.83 218.57"/><polygon class="cls-17" points="500 394.13 499.42 404.86 329.35 504.04 330.61 492.57 500 394.13"/><polygon class="cls-18" points="330.61 492.57 329.35 504.04 160.11 404.86 160.11 394.14 330.61 492.57"/><polygon class="cls-4" points="500 394.13 330.61 492.57 160.11 394.14 329.5 295.7 500 394.13"/><polygon class="cls-19" points="248.72 405.32 330.61 492.57 500 394.13 248.72 405.32"/><polygon class="cls-20" points="329.5 295.7 330.61 492.57 441.38 360.29 329.5 295.7"/><polygon class="cls-21" points="160.11 394.14 248.72 405.32 329.5 295.7 160.11 394.14"/><polygon class="cls-22" points="273.24 459.45 329.5 295.7 160.11 394.14 216.1 426.46 273.24 459.45"/><polygon class="cls-23" points="405.85 339.89 330.61 492.57 236.68 438.34 405.85 339.89"/><polygon class="cls-24" points="500 394.13 378.07 323.74 417.43 442.12 500 394.13"/><polygon class="cls-25" points="316.64 333.45 292.61 402.96 376.49 399.46 316.64 333.45"/><path id="_Path_109" data-name="&lt;Path&gt;" class="cls-4" d="M332.47,246a47.6,47.6,0,0,0,5.31,6.92,22,22,0,0,0,4.59,3.85c5.22,3.12,7.33,5.59,11.91,8a41.83,41.83,0,0,0,9.35,3.62c1.47.36,3.3-.1,4.13-2.75a8.64,8.64,0,0,0,.29-1.36c.29-2.45-.58-5.49-4-9.09-4-4.31-6.71-7-8.61-8.25-5.62-3.69-12.27-15.8-19.89-18.3S332.47,246,332.47,246Z"/><path id="_Path_110" data-name="&lt;Path&gt;" class="cls-26" d="M352,245.09s8.81,6.18,9.67,8.38.85,7.22-1.88,8.56-8.29-8.56-9.74-10l-1.44-1.5A15.13,15.13,0,0,0,352,245.09Z"/><path id="_Path_111" data-name="&lt;Path&gt;" class="cls-27" d="M342.85,233.58a63.78,63.78,0,0,1,8.55,9.67c-.22,1.57-1.23,4.87-5.63,8.71h0s7.25,9.18,9.8,10.67,4.44,1.62,9.23,1.12a6.07,6.07,0,0,1,3.25.47,8.64,8.64,0,0,1-.29,1.36c-.83,2.65-2.66,3.11-4.13,2.75a41.83,41.83,0,0,1-9.35-3.62c-4.58-2.39-6.69-4.86-11.91-8a16.31,16.31,0,0,1-1.88-1.31h0l-.05,0c-.2-.16-.4-.32-.59-.49l-.16-.14-.48-.44-.18-.17-.45-.44-.19-.18-.42-.43a34.56,34.56,0,0,1-4.49-5.58C339.7,242.33,342.53,237.92,342.85,233.58Z"/><path id="_Path_112" data-name="&lt;Path&gt;" class="cls-28" d="M361,260.68a6.48,6.48,0,0,0,1.24,3.1c1.1,1.41.37,1.41,2.23,2.2s5.4-.59,5.88-2.65-.7-6.57-2.26-7.18a14.43,14.43,0,0,0-2.62-.8s-2.24-.41-3,.31S359.94,257.82,361,260.68Z"/><path id="_Path_113" data-name="&lt;Path&gt;" class="cls-29" d="M361,257.69s-.42,2.71.11,3.37a2.22,2.22,0,0,0,1.36,1c.48.11,1.22-1,1.22-1l.15-2.33a5.15,5.15,0,0,0,2.68.82,1.61,1.61,0,0,0,1.47-1.78,6,6,0,0,0-2.46-2.34,2.57,2.57,0,0,0-3,.31C361.8,256.39,361.21,256.48,361,257.69Z"/><path id="_Path_114" data-name="&lt;Path&gt;" class="cls-30" d="M363.55,393.73v0a1,1,0,0,0,.59.8,3.16,3.16,0,0,0,2.87,0,1.05,1.05,0,0,0,.59-.74V377l-.13-168.56h-3.75L363.56,377Z"/><path id="_Path_115" data-name="&lt;Path&gt;" class="cls-31" d="M364.25,209.23a2.94,2.94,0,0,0,2.65,0,.81.81,0,0,0,0-1.54,2.93,2.93,0,0,0-2.66,0A.81.81,0,0,0,364.25,209.23Z"/><path id="_Path_116" data-name="&lt;Path&gt;" class="cls-32" d="M363.79,258.65a2.36,2.36,0,0,0-.27,1.62l.17,1a1.68,1.68,0,0,0-.05,1.62l.46.75s-.86.69-.33,1.35.33.86.33.86-.35.92,1.48,1.75,2.58.79,4-.52,1.48-.55,2.06-2.47,1-3.8.69-5.1-1-4.07-1.85-4.23-3.87-.24-4.54.21S365.2,258.41,363.79,258.65Z"/><path class="cls-33" d="M366.59,215.13c6.39-3.59,16.82-6.86,36.84,5.33,18.91,11.51,40.2,15.51,51,6.74,0,0-9.34,16.93-8.39,31.33.58,8.62,1.92,21.94-2.15,30.15,0,0-27.1,4.83-47.27-10.12s-27.13-6.35-31.72-5.61c10.44-18.49-4.39-26.18,2.21-31S372.07,222.07,366.59,215.13Z"/><path class="cls-34" d="M395.08,248.09,417,272.66l-.34,5.9L394.74,254ZM415,234.47l-1,17.23L396,231.54l-.34,5.91L417.57,262l1.59-27.3Zm-19.77,11.25,21.87,24.57.34-5.91-21.87-24.56Z"/><g id="_Group_19" data-name="&lt;Group&gt;"><path id="_Path_117" data-name="&lt;Path&gt;" class="cls-4" d="M258.82,283.64c1.21,5.29,8.86,8.6,16.3,10.6a100.12,100.12,0,0,0,15,2.72l25-90.69,2.3-8.32c-.34-.69-5.88-9-18-4.27C296,195,293,195.37,288.37,196.8a104.11,104.11,0,0,0-21.49,9.76C265.1,216.74,257.81,279.2,258.82,283.64Z"/><path id="_Path_118" data-name="&lt;Path&gt;" class="cls-35" d="M325.69,196.8s3.3-.54,3.09,3.43.15,6.71-2,8.23a10,10,0,0,1-4.8,1.63Z"/><path id="_Path_119" data-name="&lt;Path&gt;" class="cls-4" d="M261,226.67c.08,2.79,9.17,8.9,16.87,11,7.88,2.12,9.78,60.39,9.78,60.39l25.91-93.89,2.38-8.62c-.35-.71-6.09-9.29-18.62-4.42-3.6,1.4-6.66,1.75-11.48,3.24a107.52,107.52,0,0,0-22.25,10.1C261.79,215,260.89,222,261,226.67Z"/><polygon id="_Path_120" data-name="&lt;Path&gt;" class="cls-36" points="261.09 209.85 266.15 228.87 268 228.14 270.35 213.79 262.94 209.12 261.09 209.85"/><polygon id="_Path_121" data-name="&lt;Path&gt;" class="cls-37" points="258.74 224.2 266.15 228.87 268.5 214.52 261.09 209.85 258.74 224.2"/><path id="_Path_122" data-name="&lt;Path&gt;" class="cls-38" d="M272.16,295.21A104.36,104.36,0,0,0,287.69,298l25.91-93.89-1.32-.21c-18-2.71-34.16,10-34.16,10Z"/><path id="_Path_123" data-name="&lt;Path&gt;" class="cls-39" d="M265.09,207.3l9.79,7.3a7.47,7.47,0,0,0,7.58.79A124.49,124.49,0,0,1,296,209.94c4.35-1.38-8.32-12.82-10.15-15.6-7.3,2.25-14.93,4.78-19.94,6.7A3.6,3.6,0,0,0,265.09,207.3Z"/><path id="_Path_124" data-name="&lt;Path&gt;" class="cls-40" d="M259.14,235.76A5.77,5.77,0,0,0,261.5,242c1.82,1.06,4.66-.72,5.28-3.25s-.35-5.43-2.18-6.49S259.76,233.23,259.14,235.76Z"/><path id="_Path_125" data-name="&lt;Path&gt;" class="cls-41" d="M327.39,196.94a4.31,4.31,0,0,1-1.61,3.78c-1.92,1.46-34.23,13.64-32.95,5.63s27-15.59,30.3-13.15S325.78,192.16,327.39,196.94Z"/><path id="_Path_126" data-name="&lt;Path&gt;" class="cls-42" d="M313.78,369.22c1.28.77,7,3.53,7.48,4.91s10.57,10.34,13.7,10.51,10.9-2.87,10.14-6.53c-.41-2,.44-3.28-.8-5.27a22.44,22.44,0,0,0-2.56-3.27,36.67,36.67,0,0,0-7.5-6.24,11.1,11.1,0,0,1-3.7-3.46,12.27,12.27,0,0,1-1.25-2.2l-6.16,1.24-7,1.41-2.2.44s-.12.61-.25,1.51C313.35,364.56,312.87,368.68,313.78,369.22Z"/><path id="_Path_127" data-name="&lt;Path&gt;" class="cls-43" d="M321.26,371.26c.55,1.43,10.57,10.34,13.7,10.51,2.59.14,9.1-2.28,10-4.79a6.59,6.59,0,0,0,.12,1.13c.76,3.66-7,6.7-10.14,6.53s-13.15-9.07-13.7-10.51-6.2-4.14-7.47-4.9c-.54-.32-.71-1.69-.53-3.19C314.53,366.8,320.73,369.87,321.26,371.26Z"/><path id="_Path_128" data-name="&lt;Path&gt;" class="cls-44" d="M308.24,306.56c.39,3.3.86,6.38,1.16,8,.78,4,1.11,17.22,1.11,17.22a114.86,114.86,0,0,0,.89,12.6c.58,4.8,1.53,10.82,1.53,12.46,0,1.44.19,4.41.77,5.45a.81.81,0,0,0,.25.31,16.12,16.12,0,0,0,3.28,1.5,18,18,0,0,0,6,1.07c4.28-.08,7-2.88,7.17-3.9,0-.13.06-.62.11-1.38.36-5.13,1.34-22.48,1.34-22.88s-.44-12.57-.05-19.18-1.48-35.9-1.48-35.9h-9.89s-11.91,10.59-12.77,12.69C307.17,295.88,307.62,301.46,308.24,306.56Z"/><path id="_Path_129" data-name="&lt;Path&gt;" class="cls-45" d="M321.94,364.76s-1.56-8.15-1.46-11.16,1-13.71.73-15.32-3-20.34-3-20.34,6.34-.24,10-2.92c1.14,3.44,1.35,13.25,1,16.46s.68,14.64.14,21.18.16,9.43.16,9.43S327.8,364.91,321.94,364.76Z"/><path id="_Path_130" data-name="&lt;Path&gt;" class="cls-46" d="M308.24,306.56c.39,3.3.86,6.38,1.16,8,.78,4,1.11,17.22,1.11,17.22a114.86,114.86,0,0,0,.89,12.6c.58,4.8,1.53,10.82,1.53,12.46,0,1.44.19,4.41.77,5.45-.35,2.29-.83,6.41.08,7,1.28.77,7,3.53,7.48,4.91s10.57,10.34,13.7,10.51c-.45-2.65.81-5.58-.49-8.11a7.84,7.84,0,0,0-2.07-2.34c-4.19-3.41-9.88-5.39-12.41-10.16a20.9,20.9,0,0,1-1.77-6.58c-.87-5.73.36-11.35-.22-17.06-.35-3.47-1.77-6.71-2.38-10.13-.53-2.94-1-5.94-1.27-8.92q-.62-7.05-1.29-14.1C311.26,306,309.66,305.88,308.24,306.56Z"/><path id="_Path_131" data-name="&lt;Path&gt;" class="cls-47" d="M291.06,376.62c.89,1.34,1.83,5.22,3.18,7.81,1.26,2.41,6.42,8,10.51,10,.29.14.58.27.85.37,4.19,1.61,12.26-1,14.8-3,1.11-.87.77-5.95-.39-8.71-.95-2.27-9.22-10.07-12.07-12.72l-.95-.89s-13.18-6.54-16.45-6.67h0c-2.55-.09-3.09,3.1-3.21,5.83a29,29,0,0,1-.15,3.75C286.38,373.92,290.17,375.27,291.06,376.62Z"/><path id="_Path_132" data-name="&lt;Path&gt;" class="cls-48" d="M287.28,369.92c.74,1.11,3.1,2.14,3.78,3.17.89,1.34,1.83,5.22,3.18,7.81s7.17,8.78,11.36,10.38,12.26-1,14.8-3A2.09,2.09,0,0,0,321,387c.25,2.18.12,4.27-.56,4.8-2.54,2-10.61,4.61-14.8,3s-10-7.79-11.36-10.38-2.29-6.47-3.18-7.81-4.68-2.7-3.9-4.23A11.91,11.91,0,0,0,287.28,369.92Z"/><path id="_Path_133" data-name="&lt;Path&gt;" class="cls-49" d="M281.79,320.42c1.33,8.52,2.92,15.37,2.72,22.22-.35,11.67,2.09,24.56,2.8,26a6.28,6.28,0,0,0,1,1.28h0a40.21,40.21,0,0,0,4.61,4h0c1.94,1.44,3.93,2.62,5.21,2.72,3,.23,8.9-1.9,9.61-5.14a11.43,11.43,0,0,0,.17-1.17c.59-5.07.9-20.16,1-25.5.09-5.66-.61-12.65.83-21.6a18.35,18.35,0,0,1,.61-2.67h0a13.85,13.85,0,0,1,1.44-3.17h0a33.55,33.55,0,0,0,2.59-4.25c2.79-6.3,2.21-14.09,1.72-17.74-.18-1.3-.34-2.07-.34-2.07l-29.35-6.66-4.65-1.06-.09,0a33.45,33.45,0,0,0-1.23,6.63l-.09.92c-.16,1.74-.27,3.78-.29,6.13A130.07,130.07,0,0,0,281.79,320.42Z"/><path id="_Path_134" data-name="&lt;Path&gt;" class="cls-50" d="M292.42,324.74s8.65.09,13.67-1.21c0,12.32.09,21.21-.18,22.22s1.22,19.17,1.34,20.62,0,6.37,0,6.37-4.86,3.56-9.61,3.28-4.28-3.24-4.28-3.24-2.26-19.7-1.87-26.55S292.35,331.82,292.42,324.74Z"/><path id="_Path_135" data-name="&lt;Path&gt;" class="cls-4" d="M280.09,317.94s-.12,4.42,12.72,5.59,17.56-2.93,17.56-2.93l1.45-3.18s1.32.87,7.23,0c6.22-.91,13.57-3.42,14.18-11.93a76.41,76.41,0,0,0-1.6-21.71s-40.25-.13-49.7,7a4.86,4.86,0,0,0-1.83,2.3C277.12,302.46,280.09,317.94,280.09,317.94Z"/><path id="_Path_136" data-name="&lt;Path&gt;" class="cls-51" d="M278.79,302.39a85.92,85.92,0,0,0,1.3,12.85s-.12,4.42,12.72,5.59,17.56-2.93,17.56-2.93l1.45-3.18s1.32.87,7.23,0c6.22-.91,13.57-3.42,14.18-11.92.09-1.33.14-2.62.16-3.87,0,2.07,0,4.28-.16,6.56-.61,8.51-8,11-14.18,11.93-5.91.87-7.23,0-7.23,0l-1.45,3.18s-4.71,4.1-17.56,2.93-12.72-5.59-12.72-5.59A83.89,83.89,0,0,1,278.79,302.39Z"/><path id="_Path_137" data-name="&lt;Path&gt;" class="cls-4" d="M280.09,317.94s0,1.18,1.7,2.48a9.48,9.48,0,0,0,2,1.13,22.32,22.32,0,0,0,5.08,1.46c1.16.21,2.46.39,3.94.52,12.68,1.15,17.43-2.82,17.56-2.93h0l1.44-3.17h0s.72-6.7.93-8.78a100.23,100.23,0,0,0,.17-12.46,9.12,9.12,0,0,0-.17-1.23c-.36-1.5-15.69-3-27.23-3.93l-3.59-.28,0,0a5.62,5.62,0,0,0-1.42,1.48,3.76,3.76,0,0,0-.37.79C277.12,302.46,280.09,317.94,280.09,317.94Z"/><path id="_Path_138" data-name="&lt;Path&gt;" class="cls-52" d="M278.79,302.23a86.69,86.69,0,0,0,1.3,12.7s-.12,4.42,12.72,5.59,17.56-2.93,17.56-2.93l1.45-3.18s.72-6.7.93-8.78c.1-1.06.25-4,.3-6.89.06,3.65-.16,8.47-.3,9.9-.21,2.08-.93,8.78-.93,8.78l-1.45,3.18s-4.71,4.1-17.56,2.93-12.72-5.59-12.72-5.59A83.85,83.85,0,0,1,278.79,302.23Z"/><path id="_Path_139" data-name="&lt;Path&gt;" class="cls-53" d="M319.55,225.63v.05c2.44,10.93,7.48,24.24,13.52,20.18a19.61,19.61,0,0,0,7.77-9.09h0a11.77,11.77,0,0,0,.9-5.51c-.06-.31-1.42-3.3-8.33-10.6a25,25,0,0,0-15.1-7.82.53.53,0,0,0-.15.25C317.67,214.36,318.22,219.64,319.55,225.63Z"/><path id="_Path_140" data-name="&lt;Path&gt;" class="cls-54" d="M276.61,227.88c.42,5.44,2.52,14.45,2.71,16.82,1.56,20.24-.26,41.42,2.54,45.89s9.63,7,26.87,5.71,20.86-10.07,21.38-11.94,1.13-22.08.29-36c-1-17.08-3.57-25.91-6.17-30.69a18,18,0,0,0-1-1.61c-2.9-4.3-12.21-8.84-19.58-7.08s-22.61,8.44-22.61,8.44a54.26,54.26,0,0,0-4.23,6.7A8.84,8.84,0,0,0,276.61,227.88Z"/><path id="_Path_141" data-name="&lt;Path&gt;" class="cls-55" d="M282,279.34a18.08,18.08,0,0,0,4.94,2.89c3.79,1.53,9,2.46,16,2.46,14.25,0,22.13-4.71,26.38-10.74a22.66,22.66,0,0,0,1.84-3.13c0-.07.07-.13.09-.19,2.73-6.55,1.72-22.29,1.72-22.29-.33-20.72-4.48-27.73-8.75-30.52a13.46,13.46,0,0,0-3.88-1.66c-5.22-1.44-20.85,8.63-33.67,11a8.44,8.44,0,0,0-1.9.59l-.19.09c-9.85,4.7-3.08,27.3-3.08,27.3S272,270.83,282,279.34Z"/><g id="_Group_20" data-name="&lt;Group&gt;" class="cls-56"><path id="_Path_142" data-name="&lt;Path&gt;" class="cls-57" d="M289.08,280.69c4.71,0,8.41-1.39,11-4.16,6.12-6.48,3.77-17.94,3.67-18.43,0,0-.23-2.35-2.06-1.83a1.89,1.89,0,0,0-1.29,2.54c0,.1,2.07,10.21-2.81,15.37-2.57,2.71-6.75,3.64-12.43,2.77-9.45-1.46-16.13-5.3-19.85-11.41-5.46-9-3.13-20.58-2.11-24.48a3.48,3.48,0,0,0-.35-2.62h0a1.21,1.21,0,0,0-1.77-.36l-.09.06a2.46,2.46,0,0,0-.9,1.29c-1,3.47-4.3,17,2.28,27.87,4.27,7,11.76,11.41,22.27,13A29,29,0,0,0,289.08,280.69Z"/></g><path id="_Path_143" data-name="&lt;Path&gt;" class="cls-58" d="M258.56,236c-.54,2.22.32,4.78,1.92,5.7s3.36-.12,3.9-2.35-.31-4.78-1.92-5.7S259.11,233.73,258.56,236Z"/><path id="_Path_144" data-name="&lt;Path&gt;" class="cls-59" d="M287.58,224.2s1.39,3.76,10,5.35,12.24.07,15.25-.41,5.61-2.42,8.57-5.89,2.87-4.25,2.87-4.25,5.91,5.59,6.58,12.61.55,8.07-.74,12.21S318,253.2,305.25,254.87s-15.18-2.28-15.18-2.28.68-13.53,0-16.2S287.58,224.2,287.58,224.2Z"/><path id="_Path_145" data-name="&lt;Path&gt;" class="cls-60" d="M308,261.84s14.26-20.65,19.54-22.21c1.48-.43,3.39,3.15,3.39,3.15s.63,13.31,0,15.72-19.07,6.65-19.54,6.48A36.39,36.39,0,0,1,308,261.84Z"/><path id="_Path_146" data-name="&lt;Path&gt;" class="cls-61" d="M295.63,254a5.17,5.17,0,0,0,1.74,7.14,5.26,5.26,0,0,0,7.12-2,5.17,5.17,0,0,0-1.73-7.14A5.28,5.28,0,0,0,295.63,254Z"/><path id="_Path_147" data-name="&lt;Path&gt;" class="cls-62" d="M296.36,254.65a5.17,5.17,0,0,0,1.73,7.14,5.28,5.28,0,0,0,7.13-2,5.16,5.16,0,0,0-1.74-7.14A5.27,5.27,0,0,0,296.36,254.65Z"/><path id="_Path_148" data-name="&lt;Path&gt;" class="cls-63" d="M298.32,255.78a2.88,2.88,0,0,0,1,4,2.94,2.94,0,0,0,4-1.13,2.89,2.89,0,0,0-1-4A2.94,2.94,0,0,0,298.32,255.78Z"/><path id="_Path_149" data-name="&lt;Path&gt;" class="cls-64" d="M295.63,241a5.17,5.17,0,0,0,1.74,7.14,5.26,5.26,0,0,0,7.12-2,5.17,5.17,0,0,0-1.73-7.14A5.27,5.27,0,0,0,295.63,241Z"/><path id="_Path_150" data-name="&lt;Path&gt;" class="cls-65" d="M296.36,241.57a5.17,5.17,0,0,0,1.73,7.14,5.28,5.28,0,0,0,7.13-2,5.18,5.18,0,0,0-1.74-7.15A5.27,5.27,0,0,0,296.36,241.57Z"/><path id="_Path_151" data-name="&lt;Path&gt;" class="cls-66" d="M298.32,242.7a2.88,2.88,0,0,0,1,4,2.94,2.94,0,0,0,4-1.13,2.89,2.89,0,0,0-1-4A2.94,2.94,0,0,0,298.32,242.7Z"/><path id="_Path_152" data-name="&lt;Path&gt;" class="cls-67" d="M289,247.5s-2.61,4.87-3.82,15.78.69,21.38.47,24.5-5.45-2.81-5.45-2.81-1.81-21.8,1.24-29.79S289,247.5,289,247.5Z"/><path id="_Path_153" data-name="&lt;Path&gt;" class="cls-68" d="M276.61,227.88a38.79,38.79,0,0,0,7.89-.07l.23,0c2.76-.25,5-.59,5-.59s13.95,5.62,24.49,1.44l.13,0a16.7,16.7,0,0,0,4.88-3,18,18,0,0,0,5-7.76.84.84,0,0,0,.05-.17,18,18,0,0,0-1-1.61,13,13,0,0,0-3.09-3l-.2-.14a23.72,23.72,0,0,0-6.51-3.23,18.5,18.5,0,0,0-9.78-.66c-7.37,1.76-22.61,8.44-22.61,8.44a54.26,54.26,0,0,0-4.23,6.7A8.84,8.84,0,0,0,276.61,227.88Z"/><path id="_Path_154" data-name="&lt;Path&gt;" class="cls-69" d="M299.49,232.09s9.32,1.26,15.7-2.54l.12-.07a15.9,15.9,0,0,0,4.25-3.8,17,17,0,0,1,7.33-5s.72-2.11,4.73,1.65,9.12,14.2,9.23,14.44a11.77,11.77,0,0,0,.9-5.51c-.06-.31-1.42-3.3-8.33-10.6a25,25,0,0,0-15.1-7.82.53.53,0,0,0-.15.25L318,213a24,24,0,0,0-7-2C304.74,218.54,299.49,232.09,299.49,232.09Z"/><path id="_Path_155" data-name="&lt;Path&gt;" class="cls-4" d="M276.61,227.88a38.79,38.79,0,0,0,7.89-.07l-.43-.61s1.5-7.11,23.39-12.25a87.35,87.35,0,0,1,12.51-2.1c-4.19-3-10.78-5.21-16.29-3.89-7.37,1.76-22.61,8.44-22.61,8.44a54.26,54.26,0,0,0-4.23,6.7A8.84,8.84,0,0,0,276.61,227.88Z"/><path id="_Path_156" data-name="&lt;Path&gt;" class="cls-70" d="M291.06,211.9s-10,7.95,1.42,14.64c11.63,6.79,26.6.42,27.64-5.6.64-3.71.54-7.85-6.53-10.56S299.55,205.16,291.06,211.9Z"/><path id="_Path_157" data-name="&lt;Path&gt;" class="cls-71" d="M293.41,209.06s-12.38,8.54-.93,15.22c11.63,6.79,26.6.43,27.64-5.59.64-3.72.54-7.85-6.53-10.57S301.91,202.32,293.41,209.06Z"/><path id="_Path_158" data-name="&lt;Path&gt;" class="cls-72" d="M296.68,215a11.39,11.39,0,0,0,0-4.46,17.82,17.82,0,0,0-.77-2.39,36.28,36.28,0,0,1-3.9-10c-1.14-5.4-2.28-11.47,4.91-14.27s13-3.17,16.27,1.55,3.32,6,3.32,6l-.46.73a53.22,53.22,0,0,1,.46,5.76c-.1,1.2,0,2.18,0,4.36s.92,10.18-2.35,14.33l-1.66.83s-.16,4-.63,4.78-5.19,1.29-7.16.78-2.54-3.12-5.35-4.83S296.68,215,296.68,215Z"/><path id="_Path_159" data-name="&lt;Path&gt;" class="cls-73" d="M281.65,202.55a24.75,24.75,0,0,0,.15,2.74v0c.09.22,2.91,7.16,6,9.31s4,8.12,12.81,10.51h.1c.81.09,2.15.38,3,.38a21.72,21.72,0,0,0,16.72-8,23.52,23.52,0,0,0,5.38-15,24.08,24.08,0,0,0-.69-5.75,25,25,0,0,0-.92-2.89,22.23,22.23,0,0,0-18.59-14.29c-.62-.05-1.26-.08-1.9-.08a21.26,21.26,0,0,0-10.81,2.94A23.13,23.13,0,0,0,281.65,202.55Z"/><path id="_Path_160" data-name="&lt;Path&gt;" class="cls-74" d="M300.13,178.66a23,23,0,0,1,5.52,1c4.78,1.41,11.27,4.87,13.53,13.4a24.34,24.34,0,0,1,.7,4.09c1.36,15.53-3.34,22.17.59,20.49a23.52,23.52,0,0,0,5.38-15,24.08,24.08,0,0,0-.69-5.75,25,25,0,0,0-.92-2.89c1.58.72,1.86,1.62,2.21,1.73.61.18.51-.21.51-.21S322.4,174.3,300.13,178.66Z"/><path id="_Path_161" data-name="&lt;Path&gt;" class="cls-75" d="M281.81,205.31v0c.09.22,2.91,7.16,6,9.31s4,8.12,12.81,10.52h.1c6.76-2.2,14-8.42,11.52-23.81a31.63,31.63,0,0,0-2-7.4h0c-4.32-10.15-12.83-11.52-17.29-11.47a16.9,16.9,0,0,0-2.87.24h0C279.09,190.43,281.69,204.7,281.81,205.31Z"/><path id="_Path_162" data-name="&lt;Path&gt;" class="cls-4" d="M310.76,191.88c11.23-2.09,13.46.68,14.72,1.28,1.86,3.55,1.91,5.28,1.91,5.28s-.33-1.12-.94-1.3c-.78-.24-.39-3.88-15.49-1.07a89.08,89.08,0,0,0-26.24,9.87s-.05,1,0-1.89C287.06,202.94,298,194.25,310.76,191.88Z"/><path id="_Path_163" data-name="&lt;Path&gt;" class="cls-76" d="M283.24,209.3a7.69,7.69,0,0,0,3.39,6.34l1.52-4.52,1.92-5.67a25.44,25.44,0,0,1-4.48-1.69l-2-1A21.69,21.69,0,0,0,283.24,209.3Z"/><path id="_Path_164" data-name="&lt;Path&gt;" class="cls-4" d="M283.24,209.3a7.69,7.69,0,0,0,3.39,6.34l1.52-4.52c-.26-1.9-.89-3.65-1.89-4.27a5.58,5.58,0,0,1-2.66-4.13A21.69,21.69,0,0,0,283.24,209.3Z"/><path id="_Path_165" data-name="&lt;Path&gt;" class="cls-77" d="M290.07,205.45s-4.17.89-4.52,2.21a11.45,11.45,0,0,0,.7,7.5c.74,1.72,4.72.69,4.72.69A23.41,23.41,0,0,1,290.07,205.45Z"/><path id="_Path_166" data-name="&lt;Path&gt;" class="cls-78" d="M289.5,206.41s-3,.73-3.22,1.81a10.64,10.64,0,0,0,.5,6.16c.52,1.41,3.36.57,3.36.57A21.89,21.89,0,0,1,289.5,206.41Z"/><path id="_Path_167" data-name="&lt;Path&gt;" class="cls-79" d="M287.62,211.26c0-.69,0-2.15-1.53-1.9a9.68,9.68,0,0,1,.19-1.14c.25-1.08,3.22-1.81,3.22-1.81a21.89,21.89,0,0,0,.64,8.54S287.65,212.07,287.62,211.26Z"/><path id="_Path_168" data-name="&lt;Path&gt;" class="cls-80" d="M281.8,205.29v0s14.1-8.72,28.29-11.35l.13,0h0a47.85,47.85,0,0,1,8.95-.93,12.67,12.67,0,0,1,5.06.89c1.58.72,1.86,1.62,2.21,1.73.61.18.51-.21.51-.21s-4.56-21.13-26.83-16.77a26,26,0,0,0-10.06,4.06h0C279.2,190.35,281.64,204.4,281.8,205.29Z"/><path id="_Path_169" data-name="&lt;Path&gt;" class="cls-81" d="M300.13,178.66a24.44,24.44,0,0,1,9.12,2.34,18.81,18.81,0,0,1,6.58,5.19,16.66,16.66,0,0,1,2.48,4.26c.59,1.5,2.49,1.86,3.94,2.06a8.62,8.62,0,0,0,1.6.12c.38,0,1.77-.11,1.94-.52.09-.2-.2-.65-.29-.84-.23-.52-.48-1-.74-1.54a22.3,22.3,0,0,0-8-8.82C311.74,177.9,305.75,177.56,300.13,178.66Z"/><path id="_Path_170" data-name="&lt;Path&gt;" class="cls-82" d="M310.76,190.38c11.23-2.09,13.46.68,14.72,1.28,1.86,3.55,1.91,5.28,1.91,5.28s-.33-1.12-.94-1.3c-.78-.24.16-3.35-14.95-.55a105.38,105.38,0,0,0-26.78,9.35s-.05,1,0-1.89C287.06,201.44,298,192.75,310.76,190.38Z"/><path id="_Path_171" data-name="&lt;Path&gt;" class="cls-83" d="M284.72,203.76a108.79,108.79,0,0,1,20.57-7.94c2-.53,4.09-1,6.21-1.41,1.52-.28,2.87-.5,4.08-.68,1.76-.24,3.21-.38,4.42-.45,6.25-.32,5.86,1.5,6.45,1.68s.9,1.65.9,1.65a13.82,13.82,0,0,0-1.87-5.63,11.33,11.33,0,0,0-6.65-2,31.68,31.68,0,0,0-5.41.31c-.82.12-1.71.26-2.66.43a45.87,45.87,0,0,0-7.23,2c-9.5,3.47-16.93,9.27-18.81,10.15C284.67,204.77,284.72,203.76,284.72,203.76Z"/><path id="_Path_172" data-name="&lt;Path&gt;" class="cls-84" d="M310.1,197.07a27.5,27.5,0,0,1,1.14,4.1l0,.23c6.25-.32,5.86,1.5,6.45,1.67s.9,1.65.9,1.65a13.76,13.76,0,0,0-1.87-5.62A11.25,11.25,0,0,0,310.1,197.07Z"/><path id="_Path_173" data-name="&lt;Path&gt;" class="cls-85" d="M303.53,191.71a12.38,12.38,0,0,1,1.76,4.11c2-.53,4.09-1,6.21-1.41,1.52-.28,2.87-.5,4.08-.68a20.14,20.14,0,0,0-2.16-4.47c-.82.12-1.71.26-2.66.43A45.87,45.87,0,0,0,303.53,191.71Z"/><path id="_Path_174" data-name="&lt;Path&gt;" class="cls-86" d="M281.07,201.3a5.76,5.76,0,0,0,2.78,4.5,2.12,2.12,0,0,0,3.22-1.89,6,6,0,0,0-2.71-4.66A2.24,2.24,0,0,0,281.07,201.3Z"/><path id="_Path_175" data-name="&lt;Path&gt;" class="cls-87" d="M280.89,201.7a5.25,5.25,0,0,0,2.38,4.1c1.32.76,2.38.15,2.38-1.35a5.24,5.24,0,0,0-2.38-4.11C282,199.58,280.89,200.19,280.89,201.7Z"/><path id="_Path_176" data-name="&lt;Path&gt;" class="cls-88" d="M311.19,223.5a15.71,15.71,0,0,0,2.69-.89c7.66-3.33,10.45-11.67,10.45-11.67a23.4,23.4,0,0,0,.9-13.81s-2.34-1.67-11.87.14A137.48,137.48,0,0,0,291.17,204C290.67,204.14,289.65,228.6,311.19,223.5Z"/><path id="_Path_177" data-name="&lt;Path&gt;" class="cls-89" d="M312.28,222.61c7.66-3.33,12.05-11.67,12.05-11.67a23.4,23.4,0,0,0,.9-13.81,14.33,14.33,0,0,0-9.05.14C317.84,199.52,319.65,215.41,312.28,222.61Z"/><path id="_Path_178" data-name="&lt;Path&gt;" class="cls-90" d="M295.91,208.15a35.94,35.94,0,0,1-2.41-5.06,130.58,130.58,0,0,1,19.86-5.82c1.15-.22,2.19-.38,3.14-.51a8.23,8.23,0,0,1,0,1.21c-.1,1.2,0,2.18,0,4.36s.92,10.18-2.35,14.33l-1.66.83s-.16,4-.63,4.78-5.19,1.29-7.16.78-2.54-3.12-5.35-4.83-2.7-3.22-2.7-3.22a11.39,11.39,0,0,0,0-4.46A17.82,17.82,0,0,0,295.91,208.15Z"/><path id="_Path_179" data-name="&lt;Path&gt;" class="cls-91" d="M309.44,198.43c1.91-.49,3.61-.87,5.13-1.16,1.71-.32,3.19-.53,4.46-.66.82.67,1.34,1.14,1.34,1.14a32,32,0,0,1-3.28,23,16.75,16.75,0,0,1-3.21,1.86,15.71,15.71,0,0,1-2.69.89c-1.27.3-7.17-.36-8.29-.25,4.47-2.62,7.19-12.5,3.14-23.79C306,199.28,309.5,198.6,309.44,198.43Z"/><path id="_Path_180" data-name="&lt;Path&gt;" class="cls-92" d="M291.17,205.18a1.93,1.93,0,0,0-.15.81c-.1-1.93,0-2,.15-2,28.53-10.75,34.06-6.82,34.06-6.82s.26-.31.44,1.15C324.49,197.76,317,195.44,291.17,205.18Z"/><path id="_Path_181" data-name="&lt;Path&gt;" class="cls-4" d="M311.19,221.91c9.7-2.3,13.14-12.57,13.14-12.57a23.33,23.33,0,0,0,1.52-7.3c0-.24,0-.47,0-.68,0,.61,0,1.37,0,2.28a23.42,23.42,0,0,1-1.52,7.3s-3.44,10.27-13.14,12.56c-18.71,4.43-20.42-13.66-20.2-18.42C291.22,211.34,294.17,225.93,311.19,221.91Z"/><path id="_Path_182" data-name="&lt;Path&gt;" class="cls-4" d="M292.08,347.19c-.26-2.26,7.52-9.4,11.8-10.85l.13,0c3.18-1,4.59-.07,4.73.49,1.92,7.68,1.39,13.74-.35,15.64-2.12,2.32-12.48,4.31-15.44-1.71C292.42,349.64,292.36,349.71,292.08,347.19Z"/><path id="_Path_183" data-name="&lt;Path&gt;" class="cls-93" d="M298.36,346.4c-.17-1.47,4.88-6.1,7.65-7l.09,0c2.06-.67,3,0,3.07.32,1.24,5,.9,8.91-.23,10.15-1.38,1.5-8.1,2.79-10-1.11A4.63,4.63,0,0,1,298.36,346.4Z"/><path id="_Path_184" data-name="&lt;Path&gt;" class="cls-4" d="M315.05,338.24c-.26-2.26,7.52-9.41,11.8-10.85l.13,0c3.18-1.05,4.59-.08,4.73.49,1.92,7.68,1.39,13.73-.35,15.63-2.12,2.32-12.48,4.32-15.44-1.71C315.39,340.69,315.33,340.76,315.05,338.24Z"/><path id="_Path_185" data-name="&lt;Path&gt;" class="cls-94" d="M319.68,337.65c-.19-1.67,5.57-7,8.74-8l.1,0c2.35-.77,3.4-.05,3.51.37,1.42,5.69,1,10.17-.27,11.58-1.57,1.72-9.24,3.2-11.43-1.26A5.28,5.28,0,0,1,319.68,337.65Z"/><path id="_Path_186" data-name="&lt;Path&gt;" class="cls-95" d="M331.18,269.69l0,.63A2.36,2.36,0,0,0,331.18,269.69Z"/><path id="_Path_187" data-name="&lt;Path&gt;" class="cls-96" d="M280.1,291.16l.28.12c.31.14.89.39,1.7.69s1.86.67,3.13,1a58.16,58.16,0,0,0,27.71,1.27l1.05-.21q1.13-.24,2.16-.54c12.24-3.42,15.59-11.24,15.59-11.24l-.51-13.56v-.31a3.91,3.91,0,0,1-.08.5,6.79,6.79,0,0,1-1.84,3.13c-2.11,2.23-6.46,5-15.4,7.6-9.82,2.82-20.29,1.08-26.9-.67l-1.77-.5c-1.3-.39-2.39-.75-3.22-1-1.14-.41-1.77-.67-1.77-.67Z"/><path id="_Path_188" data-name="&lt;Path&gt;" class="cls-8" d="M280.1,293l.28.13c.31.14.89.39,1.7.69s1.86.67,3.13,1.05a58.29,58.29,0,0,0,27.71,1.27L314,296c.75-.16,1.47-.35,2.16-.54,12.24-3.42,15.59-11.24,15.59-11.24l-.51-13.56v-.31a3.91,3.91,0,0,1-.08.5,6.79,6.79,0,0,1-1.84,3.13c-2.11,2.23-6.46,5-15.4,7.59-9.82,2.83-20.29,1.09-26.9-.67-.63-.16-1.22-.33-1.77-.49-1.3-.39-2.39-.75-3.22-1-1.14-.41-1.77-.68-1.77-.68Z"/><path id="_Path_189" data-name="&lt;Path&gt;" class="cls-97" d="M280.22,285s17.69,7.47,33.66,2.88c18.88-5.44,16.87-13.49,16.87-13.49l.06,6.26S328,289.12,314,292.17a56.47,56.47,0,0,1-33.87-2.92Z"/><path id="_Path_190" data-name="&lt;Path&gt;" class="cls-67" d="M280.09,317.94s0,1.18,1.7,2.48c1.33,8.52,2.92,15.37,2.72,22.22-.35,11.67,2.09,24.56,2.8,26a6.28,6.28,0,0,0,1,1.28c-1.37-2-2.13-14.12-2.76-20.27s.78-13.16.55-15.57c-.17-1.74-1.27-8.23-2.33-12.53a17.24,17.24,0,0,0-1.19-3.61c-1.25-2.12-1.93-12-1.39-14.93a57.33,57.33,0,0,0,.87-9.15,20.56,20.56,0,0,0-.19-3.09l0-.18a21.87,21.87,0,0,1-.07-4.95c.18-2.4.54-4.51.59-4.74.08-.39,2.83-.52,2.83-.52a52.23,52.23,0,0,1-5-1.72L280.1,293C277.12,302.46,280.09,317.94,280.09,317.94Z"/><path id="_Path_191" data-name="&lt;Path&gt;" class="cls-98" d="M282,279.34c-1.14-.41-1.77-.68-1.77-.68L280.1,293c-3,9.42,0,24.9,0,24.9s0,1.18,1.7,2.48c1.33,8.52,2.92,15.37,2.72,22.22-.35,11.67,2.09,24.56,2.8,26a29,29,0,0,1-.15,3.75c-.78,1.53,3,2.88,3.9,4.23s1.83,5.22,3.18,7.81c1.26,2.41,6.42,8,10.51,10,.89-.88,1.79-1.79,2.71-2.73,0,0-7.15-5-8.61-8s-5-9-5.9-9.74h0c-.86-.67-2.26-6.57-2.4-11.14,0-.25,0-.49,0-.72,0-4.65-2.19-17.11-.73-23.13.83-3.45,0-10.23-.93-15.95-.72-4.26-1.53-7.93-1.82-9.17a114.17,114.17,0,0,1-1.84-18.93,21.84,21.84,0,0,1,.31-3.89,2.29,2.29,0,0,1,.07-.28c.36-1.55.64-2.82.85-4a34,34,0,0,0,.49-4.47c0-.43,0-.88.05-1.36,0-1.41,0-3.07,0-5.14a181.76,181.76,0,0,1,2.8-30.55c1.39-6.87-3.65-15-5.26-17.3-9.85,4.7-3.08,27.3-3.08,27.3S272,270.83,282,279.34Z"/><path id="_Path_192" data-name="&lt;Path&gt;" class="cls-99" d="M275.37,293s1.46,3.82,1.93,4,2.17.48,4.34,4.19,2.41,3.06,2.17,3.71-1,1.13-2.46.38-1.88-2.48-2.35-1.94.77,6.72,1.06,7.69.66,4.46-.43,4.46-3.44-6.56-3.44-6.56.94,7.37,0,8.23-2.23,1-2.29,0-1.58-7.1-1.58-7.1.53,6.26-.53,6.8-2.2-.48-2.17-2.47a33.2,33.2,0,0,0-.7-5.46,6.53,6.53,0,0,0-1.35,3.36c.06,1.53-.3,2.66-1.47,2.47s-1.29-4.22-1.26-4.62a51.34,51.34,0,0,0,0-6.57,25.84,25.84,0,0,1,0-6C265,296.83,263.84,293.81,275.37,293Z"/><g id="_Group_21" data-name="&lt;Group&gt;"><path id="_Path_193" data-name="&lt;Path&gt;" class="cls-100" d="M287.42,278.83c4.71,0,8.41-1.4,11-4.17,6.12-6.47,3.77-17.94,3.67-18.43,0,0-.23-2.35-2.06-1.82a1.88,1.88,0,0,0-1.29,2.53c0,.1,2.07,10.21-2.81,15.37-2.57,2.71-6.76,3.65-12.43,2.77-9.45-1.46-16.13-5.3-19.85-11.41-5.46-9-3.13-20.57-2.11-24.47a3.47,3.47,0,0,0-.35-2.62h0a1.21,1.21,0,0,0-1.77-.37l-.09.06a2.43,2.43,0,0,0-.9,1.3c-1,3.46-4.31,17,2.28,27.86,4.27,7,11.76,11.41,22.27,13A30.19,30.19,0,0,0,287.42,278.83Z"/><g id="_Group_22" data-name="&lt;Group&gt;"><path id="_Path_194" data-name="&lt;Path&gt;" class="cls-101" d="M282.09,277.66a28.87,28.87,0,0,0,4.41.36c4.71,0,8.41-1.4,11-4.17,6.12-6.47,3.77-17.94,3.67-18.43a3.44,3.44,0,0,0-.32-1c1.08.27,1.24,1.86,1.24,1.86.1.49,2.45,12-3.67,18.43-2.62,2.77-6.32,4.17-11,4.17a30.19,30.19,0,0,1-4.41-.36c-7.63-1.18-13.67-3.82-18-7.87C269.25,274.19,275,276.56,282.09,277.66Z"/><path id="_Path_195" data-name="&lt;Path&gt;" class="cls-102" d="M262.76,262.86c-5.46-9-3.13-20.57-2.11-24.47a3.55,3.55,0,0,0-.23-2.4,1.21,1.21,0,0,1,.8.59,3.47,3.47,0,0,1,.35,2.62c-1,3.9-3.35,15.49,2.11,24.47a20.66,20.66,0,0,0,3.59,4.38A20.64,20.64,0,0,1,262.76,262.86Z"/></g><path id="_Path_196" data-name="&lt;Path&gt;" class="cls-103" d="M286.5,276.76c4.35,0,7.76-1.27,10.13-3.77,5.68-6,3.45-16.85,3.36-17.31l0-.07v-.07a1.41,1.41,0,0,0-.3-.78l-.17,0a.71.71,0,0,0-.46.28,1,1,0,0,0,0,.64l0,.08,0,.08c0,.11,2.21,10.85-3.13,16.49-2.18,2.3-5.36,3.47-9.46,3.47a26.79,26.79,0,0,1-4.05-.33c-9.84-1.52-16.81-5.56-20.73-12-5.62-9.24-3.45-20.87-2.25-25.43a2.27,2.27,0,0,0-.21-1.66l-.06.05a1.2,1.2,0,0,0-.44.64c-1.08,3.69-4.11,16.55,2.15,26.87,4.07,6.7,11.26,10.89,21.39,12.45a27.82,27.82,0,0,0,4.22.34Z"/></g><path id="_Path_197" data-name="&lt;Path&gt;" class="cls-104" d="M264.67,298.73a14.52,14.52,0,0,0,2.05.82c2,.63,5,1.13,7.18-.51,3.58-2.65,3.27-4.05,3.27-4.05s2.92-16.36,2.92-22.28,6.23-20.16,6.23-20.16A29.57,29.57,0,0,0,289,231.77c-1.61-6.82-4.52-10.78-7.35-10.35-2.09.31-4.48,4.38-4.48,4.38a140.1,140.1,0,0,0-9.95,16.48,72.27,72.27,0,0,0-6.17,15.91C257.62,273,264.67,298.73,264.67,298.73Z"/><path id="_Path_198" data-name="&lt;Path&gt;" class="cls-105" d="M264.67,298.73a14.52,14.52,0,0,0,2.05.82,2.89,2.89,0,0,0,0-.62c-.38-2-2.93-21.12-3.27-29.24S270,245.83,270,245.83a25.33,25.33,0,0,0-2.76-3.55,72.27,72.27,0,0,0-6.17,15.91C257.62,273,264.67,298.73,264.67,298.73Z"/><path id="_Path_199" data-name="&lt;Path&gt;" class="cls-106" d="M266,244.75a138.74,138.74,0,0,1,11.17-18.95s2.39-4.07,4.48-4.38a2.82,2.82,0,0,1,.82,0,12.07,12.07,0,0,1,2.47,1.45c1.63,1.69,3.08,4.77,4.06,8.9a29.57,29.57,0,0,1-2.68,20.78s-.21.47-.55,1.29C276.76,254.46,268.18,248.48,266,244.75Z"/><path id="_Path_200" data-name="&lt;Path&gt;" class="cls-107" d="M265.48,242.13c.2,1.22,1.56,3,3.7,4.73,4.05,3.29,10.88,6.47,17.82,5.52,2.58-5.51,7.06-17.45,2.72-25.18a19.21,19.21,0,0,0-3.46-4.56c-3.36-3.21-6.45-3.26-6.45-3.26C271.24,220.19,264.92,238.6,265.48,242.13Z"/><path id="_Path_201" data-name="&lt;Path&gt;" class="cls-108" d="M287.58,224.2a12.9,12.9,0,0,1,3.4,7.74c.48,5-6.81,12.46-8.29,16.4l-1.47,3.95s-6.54-.53-10.7-4.42c0,0,3.05-14.13,7.38-19.63S287.58,224.2,287.58,224.2Z"/><path id="_Path_202" data-name="&lt;Path&gt;" class="cls-109" d="M269.7,234a6,6,0,0,0,4,7.5,6.08,6.08,0,0,0,7.13-4.7,6,6,0,0,0-4-7.5C273.76,228.52,270.57,230.63,269.7,234Z"/><path id="_Path_203" data-name="&lt;Path&gt;" class="cls-110" d="M265.48,242.13c.2,1.22,1.56,3,3.7,4.73,1.4-7.38,5.07-16.05,7.39-19.66s7.68-4.42,9.69-4.56c-3.36-3.21-6.45-3.26-6.45-3.26C271.24,220.19,264.92,238.6,265.48,242.13Z"/><path id="_Path_204" data-name="&lt;Path&gt;" class="cls-111" d="M288.48,210.54c.18,1.25-.07,2.38-.57,2.52s-1-.75-1.23-2,.08-2.37.58-2.52S288.3,209.3,288.48,210.54Z"/><path id="_Path_205" data-name="&lt;Path&gt;" class="cls-112" d="M298.85,377.8s2.57,6.23,7.47,8.37,12.12-.95,13.06-2.23-3.91-5.24-6.68-7.92-4.46-2.8-4.46-2.8S307.18,376.24,298.85,377.8Z"/><path id="_Path_206" data-name="&lt;Path&gt;" class="cls-113" d="M323.49,366s4.41,4.3,10.07,9.3c2.18,1.93,8.8.53,9.74-.75s-2.37-4.18-5.14-6.86-6.28-5.64-6.28-5.64S331.82,364.48,323.49,366Z"/><path id="_Path_207" data-name="&lt;Path&gt;" class="cls-114" d="M307,244.85s.54,16.82,1,17c.06,0,1.53,2.4,2.27,1.81,4.58-3.67,19-20.13,19.54-22.21l-2.27-1.81-5.16,1.92C317.21,243.47,307,244.85,307,244.85Z"/><path id="_Path_208" data-name="&lt;Path&gt;" class="cls-4" d="M307,244.85l2.27,1.81s13.53,1.6,20.55-5.22l-2.27-1.81-5.16,1.92C317.21,243.47,307,244.85,307,244.85Z"/><path id="_Path_209" data-name="&lt;Path&gt;" class="cls-115" d="M309.26,246.66s10.22-1.37,15.39-3.3l5.16-1.92s.62,13.32,0,15.73-19.08,6.65-19.54,6.48S309.26,246.66,309.26,246.66Z"/><path id="_Path_210" data-name="&lt;Path&gt;" class="cls-116" d="M309.81,247.36s7.51-1,11.31-2.42l3.79-1.41s.46,9.78,0,11.55-14,4.89-14.36,4.76S309.81,247.36,309.81,247.36Z"/><path id="_Path_211" data-name="&lt;Path&gt;" class="cls-117" d="M329.81,289.48s2.44,10.26,1.76,15-1.33,6.54-7.58,9.15c-4.94,1.11-7.45,1.41-7.45,1.41s-.44-8.45-.56-12.09.15-7.5.15-7.5S322,295.64,329.81,289.48Z"/><path id="_Path_212" data-name="&lt;Path&gt;" class="cls-118" d="M290.4,296.62s13.73,2.31,24.64-.46c.93,10.71-8,23.14-8,23.14s-3.6,1.85-10.45,1.42l-6.85-.42S287.68,299.57,290.4,296.62Z"/><path id="_Path_213" data-name="&lt;Path&gt;" class="cls-119" d="M297.63,180.32a15.05,15.05,0,0,1,10.11,2.17c.25.17.47.22.7.38,2.11,1.43,2.16,4.07-.11,5.08-.05,0-.74.38-.79.39A13.15,13.15,0,0,1,297,187.27c-.43-.24-.85-.47-1.25-.71C294,185.45,289.47,183.23,297.63,180.32Z"/><path id="_Path_214" data-name="&lt;Path&gt;" class="cls-120" d="M270,250.35s7.29,3.79,8.79,3.93l1.51.14a53.09,53.09,0,0,0-5.15,16.49c-1,8.67-.35,21.82-.18,24.48s-2.83,3.83-2.79,4.16-3.8,0-3.8,0-2.91-18.42-3.32-26.28S270,250.35,270,250.35Z"/></g></g></g></g></svg>