<svg xmlns="http://www.w3.org/2000/svg" xmlns:xlink="http://www.w3.org/1999/xlink" viewBox="0 0 331.27 500"><defs><style>.cls-1{opacity:0.6;fill:url(#linear-gradient);}.cls-2{fill:url(#linear-gradient-2);}.cls-3{fill:url(#linear-gradient-3);}.cls-4{fill:url(#linear-gradient-4);}.cls-5{fill:#1c1714;opacity:0.5;}.cls-6{fill:url(#linear-gradient-5);}.cls-7{fill:url(#linear-gradient-6);}.cls-8{fill:url(#linear-gradient-7);}.cls-9{fill:url(#linear-gradient-8);}.cls-10{fill:url(#linear-gradient-9);}.cls-11{opacity:0.3;fill:url(#linear-gradient-10);}.cls-12{fill:url(#linear-gradient-11);}.cls-13{fill:url(#linear-gradient-12);}.cls-14{fill:#222221;}</style><linearGradient id="linear-gradient" x1="163.05" y1="456.42" x2="232.7" y2="340.5" gradientUnits="userSpaceOnUse"><stop offset="0.25" stop-opacity="0"/><stop offset="0.29" stop-opacity="0.06"/><stop offset="1" stop-opacity="0.5"/></linearGradient><linearGradient id="linear-gradient-2" x1="305.33" y1="406.3" x2="322.48" y2="406.3" gradientUnits="userSpaceOnUse"><stop offset="0" stop-color="#5c5657"/><stop offset="1" stop-color="#4c4242"/></linearGradient><linearGradient id="linear-gradient-3" x1="182.58" y1="5.41" x2="197.74" y2="5.41" xlink:href="#linear-gradient-2"/><linearGradient id="linear-gradient-4" x1="185.22" y1="203.07" x2="331.27" y2="203.07" gradientUnits="userSpaceOnUse"><stop offset="0" stop-color="#3f3c3a"/><stop offset="1" stop-color="#2c2725"/></linearGradient><linearGradient id="linear-gradient-5" x1="173.09" y1="209.14" x2="319.13" y2="209.14" xlink:href="#linear-gradient-2"/><linearGradient id="linear-gradient-6" x1="178.29" y1="209.14" x2="313.92" y2="209.14" gradientUnits="userSpaceOnUse"><stop offset="0" stop-color="#afadae"/><stop offset="1" stop-color="#8c8a8b"/></linearGradient><linearGradient id="linear-gradient-7" x1="227.15" y1="364.57" x2="263.67" y2="364.57" xlink:href="#linear-gradient-4"/><linearGradient id="linear-gradient-8" x1="226.24" y1="51.93" x2="258.81" y2="51.93" xlink:href="#linear-gradient-4"/><linearGradient id="linear-gradient-9" x1="261.79" y1="64.52" x2="266.85" y2="64.52" xlink:href="#linear-gradient-2"/><linearGradient id="linear-gradient-10" y1="265.19" x2="313.93" y2="265.19" gradientUnits="userSpaceOnUse"><stop offset="0.29" stop-color="#fff" stop-opacity="0"/><stop offset="1" stop-color="#fff"/></linearGradient><linearGradient id="linear-gradient-11" x1="112.1" y1="199.15" x2="224.72" y2="199.15" xlink:href="#linear-gradient-2"/><linearGradient id="linear-gradient-12" x1="110.73" y1="205.42" x2="203.13" y2="205.42" gradientUnits="userSpaceOnUse"><stop offset="0" stop-color="#e6d48a"/><stop offset="0.03" stop-color="#dcc77a"/><stop offset="0.1" stop-color="#cbaf5e"/><stop offset="0.16" stop-color="#be9e49"/><stop offset="0.23" stop-color="#b7933d"/><stop offset="0.29" stop-color="#b49039"/><stop offset="0.34" stop-color="#b6933d"/><stop offset="0.39" stop-color="#bb9a48"/><stop offset="0.43" stop-color="#c4a75a"/><stop offset="0.47" stop-color="#d1b974"/><stop offset="0.5" stop-color="#dcca8c"/><stop offset="0.99" stop-color="#b49039"/></linearGradient></defs><title>Asset 11</title><g id="Layer_2" data-name="Layer 2"><g id="Layer_1-2" data-name="Layer 1"><polygon class="cls-1" points="171.14 485.31 70.38 427.13 200.25 352.14 301.02 410.32 171.14 485.31"/><polygon class="cls-2" points="309.7 411.34 322.48 404.98 315.74 401.27 308.34 402.01 305.33 407.76 309.7 411.34"/><polygon class="cls-3" points="182.58 6.93 192.99 1.69 197.74 7.32 185.76 9.13 182.58 6.93"/><path class="cls-4" d="M331.27,100.89l-.82,288.2c0,15.22-10.92,21.41-24.16,13.77l-50.5-29.16-46.57-26.88c-13.23-7.64-24-26.35-24-41.57L186.05,17c0-15.22,10.9-21.41,24.15-13.76l97.07,56c6.5,3.76,12.42,10.19,16.75,17.56C328.51,84.51,331.29,93.16,331.27,100.89Z"/><path class="cls-5" d="M331.27,100.89l-.82,288.2c0,15.22-10.92,21.41-24.16,13.77l-50.5-29.16L303.55,86.93,324,76.88C328.51,84.51,331.29,93.16,331.27,100.89Z"/><path class="cls-6" d="M232.63,363.51a12.11,12.11,0,0,1-5.48-9.48c0-3.48,2.49-4.89,5.51-3.15l25.53,14.74a12.12,12.12,0,0,1,5.48,9.49c0,3.48-2.49,4.89-5.51,3.14l-25.53-14.74Zm-51.14-49.85a7.09,7.09,0,0,1-3.2-5.54l.78-275.8c0-2,1.45-2.87,3.22-1.84l128.43,74.14a7.1,7.1,0,0,1,3.2,5.55L313.14,386c0,2-1.45,2.86-3.22,1.83L181.49,313.66Zm47-267.2a5,5,0,0,1-2.26-3.93c0-1.43,1-2,2.28-1.3l28,16.19a5,5,0,0,1,2.26,3.91c0,1.44-1,2-2.28,1.31l-28-16.18Zm35.81,21a5.55,5.55,0,0,1-2.52-4.38c0-1.6,1.14-2.25,2.54-1.44A5.56,5.56,0,0,1,266.85,66c0,1.6-1.14,2.25-2.54,1.45Zm30.82-2-97.07-56C184.82,1.71,174,7.9,173.9,23.12l-.81,288.2c-.05,15.22,10.75,33.93,24,41.57l97.06,56.05c13.24,7.64,24.12,1.45,24.16-13.77L319.13,107c0-15.21-10.76-33.92-24-41.57Z"/><path class="cls-7" d="M310.72,104.62,182.29,30.48c-1.77-1-3.21-.2-3.22,1.84l-.78,275.8a7.09,7.09,0,0,0,3.2,5.54L309.92,387.8c1.77,1,3.21.2,3.22-1.83l.78-275.8a7.1,7.1,0,0,0-3.2-5.55Z"/><path class="cls-8" d="M258.19,365.62l-25.53-14.74c-3-1.74-5.5-.33-5.51,3.15a12.11,12.11,0,0,0,5.48,9.48l25.53,14.74c3,1.75,5.5.34,5.51-3.14a12.12,12.12,0,0,0-5.48-9.49Z"/><path class="cls-9" d="M256.55,57.42l-28-16.19c-1.25-.72-2.28-.13-2.28,1.3a5,5,0,0,0,2.26,3.93l28,16.18c1.25.72,2.28.13,2.28-1.31a5,5,0,0,0-2.26-3.91Z"/><path class="cls-10" d="M264.33,61.61c-1.4-.81-2.54-.16-2.54,1.44a5.55,5.55,0,0,0,2.52,4.38c1.4.8,2.53.15,2.54-1.45a5.56,5.56,0,0,0-2.52-4.37Z"/><path class="cls-11" d="M179.07,32.32,0,152.67V418.72L125.74,500l187.4-114,.78-275.8s.55-3.39-5-6.58S192.16,36.29,185.22,32.17,179.07,32.32,179.07,32.32Z"/><path id="_Path_" data-name="&lt;Path&gt;" class="cls-12" d="M215.72,161.22c4.95,2.86,9,9.87,9,15.59v87.73a6.11,6.11,0,0,1-4.18,5.8S200.85,282,199.47,281.25l-64.38-53.13c-5-2.86-9-9.88-9-15.59l-14-81.38c0-1.88,14.91-10.36,16.46-11.43l1.32-.92a10.06,10.06,0,0,1,10.71-.47Z"/><path id="_Path_2" data-name="&lt;Path&gt;" class="cls-5" d="M222.08,167.94a18.45,18.45,0,0,1,2.64,8.87v87.73a6.11,6.11,0,0,1-4.18,5.8S200.85,282,199.47,281.25l-64.38-53.13c-5-2.86,58-37.42,58-43.13C193.05,185,220.45,165.12,222.08,167.94Z"/><path id="_Path_3" data-name="&lt;Path&gt;" class="cls-13" d="M194.13,173.55c5,2.86,9,9.88,9,15.59v85.91c0,5.71-4,8.05-9,5.19l-74.4-43c-5-2.86-9-9.87-9-15.59V135.8c0-5.72,4-8.06,9-5.2Z"/><polygon class="cls-14" points="170.46 177.69 154.66 188.59 143.9 164.76 148.01 167.29 155.09 182.17 165.64 175 160.89 171.62 155.09 175.74 149.7 164.02 136.79 155.58 154.35 195.3 171.45 182.81 175.98 185.97 154.35 203.6 131.34 151.99 126.8 149.03 154.24 210.67 182.95 186.47 170.46 177.69"/><polygon class="cls-14" points="154.4 239.17 164.11 253.15 166.12 250.33 154.45 233.89 143.63 235.32 145.38 240.12 154.4 239.17"/><polygon class="cls-14" points="152.87 230.41 152.87 213.55 130.49 164.02 125.74 160.85 149.7 213.55 149.7 225.82 140.36 226.5 142.1 231.57 152.87 230.41"/><polygon class="cls-14" points="159.49 232.5 160.05 220.06 184.11 199.8 179.48 196.64 156.88 216.37 156.3 232.41 167.54 248.77 169.48 246.38 159.49 232.5"/></g></g></svg>