<svg xmlns="http://www.w3.org/2000/svg" xmlns:xlink="http://www.w3.org/1999/xlink" viewBox="0 0 550 457.76"><defs><style>.cls-1{fill:none;}.cls-2{fill:url(#linear-gradient);}.cls-3{fill:url(#linear-gradient-2);}.cls-4{fill:url(#linear-gradient-3);}.cls-5{isolation:isolate;}.cls-6{fill:url(#linear-gradient-4);}.cls-7{fill:url(#linear-gradient-5);}.cls-8{fill:url(#linear-gradient-6);}.cls-9{fill:url(#linear-gradient-7);}.cls-10{fill:url(#linear-gradient-8);}.cls-11{fill:url(#linear-gradient-9);}.cls-12{fill:url(#linear-gradient-10);}.cls-13{fill:url(#linear-gradient-11);}.cls-14{fill:url(#linear-gradient-12);}.cls-15{fill:url(#linear-gradient-13);}.cls-16{fill:url(#linear-gradient-14);}.cls-17{fill:url(#linear-gradient-15);}.cls-18{fill:url(#linear-gradient-16);}.cls-117,.cls-121,.cls-122,.cls-19,.cls-32,.cls-35,.cls-47,.cls-94{opacity:0.6;}.cls-19{fill:url(#linear-gradient-17);}.cls-20{fill:#1c1714;}.cls-21{fill:url(#linear-gradient-18);}.cls-22{fill:url(#linear-gradient-19);}.cls-23{fill:url(#linear-gradient-20);}.cls-24,.cls-36{fill:#4c4242;}.cls-25{opacity:0.5;}.cls-26{opacity:0.7;}.cls-27{opacity:0.4;}.cls-28{fill:url(#linear-gradient-21);}.cls-29{fill:url(#linear-gradient-22);}.cls-30{fill:url(#linear-gradient-23);}.cls-31{fill:url(#linear-gradient-24);}.cls-121,.cls-122,.cls-127,.cls-129,.cls-32,.cls-65,.cls-66,.cls-82,.cls-86,.cls-92{mix-blend-mode:multiply;}.cls-102,.cls-33,.cls-55{opacity:0.2;}.cls-33{fill:url(#linear-gradient-25);}.cls-34{fill:url(#linear-gradient-26);}.cls-36{opacity:0.3;}.cls-37{fill:url(#linear-gradient-27);}.cls-38{fill:url(#linear-gradient-28);}.cls-39{fill:url(#linear-gradient-29);}.cls-40{fill:url(#linear-gradient-30);}.cls-41{fill:url(#linear-gradient-31);}.cls-42{fill:url(#linear-gradient-32);}.cls-43{fill:url(#linear-gradient-33);}.cls-44{fill:url(#linear-gradient-34);}.cls-45{fill:url(#linear-gradient-35);}.cls-46{fill:url(#linear-gradient-36);}.cls-47{fill:url(#linear-gradient-37);}.cls-48{fill:url(#linear-gradient-38);}.cls-49{fill:url(#linear-gradient-39);}.cls-50{fill:url(#linear-gradient-40);}.cls-51{fill:url(#linear-gradient-41);}.cls-52{fill:url(#linear-gradient-42);}.cls-53{fill:url(#linear-gradient-43);}.cls-54{fill:url(#linear-gradient-44);}.cls-55{fill:url(#linear-gradient-45);}.cls-56{fill:url(#linear-gradient-46);}.cls-57{fill:url(#linear-gradient-47);}.cls-58{fill:url(#linear-gradient-48);}.cls-59{fill:url(#linear-gradient-49);}.cls-60{fill:url(#linear-gradient-50);}.cls-61{fill:url(#linear-gradient-51);}.cls-62{fill:url(#linear-gradient-52);}.cls-63{fill:url(#linear-gradient-53);}.cls-64{fill:url(#linear-gradient-54);}.cls-65{fill:url(#linear-gradient-55);}.cls-66{opacity:0.31;fill:url(#linear-gradient-56);}.cls-67{fill:url(#linear-gradient-57);}.cls-68{fill:url(#linear-gradient-58);}.cls-69{fill:url(#linear-gradient-59);}.cls-70{fill:url(#linear-gradient-60);}.cls-71{fill:url(#linear-gradient-61);}.cls-72{clip-path:url(#clip-path);}.cls-73{fill:url(#linear-gradient-62);}.cls-74{fill:url(#linear-gradient-63);}.cls-75{fill:url(#linear-gradient-64);}.cls-76{fill:url(#linear-gradient-65);}.cls-77{fill:url(#linear-gradient-66);}.cls-78{fill:url(#linear-gradient-67);}.cls-79{fill:url(#linear-gradient-68);}.cls-80{fill:url(#linear-gradient-69);}.cls-81{fill:url(#linear-gradient-70);}.cls-82{fill:#eaedf2;}.cls-83{fill:url(#linear-gradient-71);}.cls-84{fill:url(#linear-gradient-72);}.cls-85{fill:url(#linear-gradient-73);}.cls-86,.cls-92{opacity:0.57;}.cls-86{fill:url(#linear-gradient-74);}.cls-87,.cls-93{opacity:0.71;}.cls-128,.cls-139,.cls-87,.cls-93{mix-blend-mode:screen;}.cls-87{fill:url(#linear-gradient-75);}.cls-88{fill:url(#linear-gradient-76);}.cls-89{clip-path:url(#clip-path-2);}.cls-90{fill:url(#linear-gradient-77);}.cls-91{fill:url(#linear-gradient-78);}.cls-92{fill:url(#linear-gradient-79);}.cls-93{fill:url(#linear-gradient-80);}.cls-94{fill:url(#linear-gradient-81);}.cls-95{fill:url(#linear-gradient-82);}.cls-96{fill:url(#linear-gradient-83);}.cls-97{fill:url(#linear-gradient-84);}.cls-98{fill:url(#linear-gradient-85);}.cls-99{fill:url(#linear-gradient-86);}.cls-100{fill:url(#linear-gradient-87);}.cls-101{fill:url(#linear-gradient-88);}.cls-102{fill:url(#linear-gradient-89);}.cls-103{fill:url(#linear-gradient-90);}.cls-104{fill:url(#linear-gradient-91);}.cls-105{fill:url(#linear-gradient-92);}.cls-106{fill:url(#linear-gradient-93);}.cls-107{fill:url(#linear-gradient-94);}.cls-108{fill:url(#linear-gradient-95);}.cls-109{fill:url(#linear-gradient-96);}.cls-110{fill:url(#linear-gradient-97);}.cls-111{fill:url(#linear-gradient-98);}.cls-112{fill:url(#linear-gradient-99);}.cls-113{fill:url(#linear-gradient-100);}.cls-114{fill:url(#linear-gradient-101);}.cls-115{fill:url(#linear-gradient-102);}.cls-116{fill:url(#linear-gradient-103);}.cls-117{fill:url(#linear-gradient-104);}.cls-118{fill:url(#linear-gradient-105);}.cls-119{fill:url(#linear-gradient-106);}.cls-120{fill:url(#linear-gradient-107);}.cls-121{fill:url(#linear-gradient-108);}.cls-122{fill:url(#linear-gradient-109);}.cls-123{fill:#3f3c3a;}.cls-124{fill:url(#linear-gradient-110);}.cls-125{fill:url(#linear-gradient-111);}.cls-126{fill:url(#linear-gradient-112);}.cls-127{opacity:0.54;fill:url(#linear-gradient-113);}.cls-128{fill:url(#linear-gradient-114);}.cls-129{fill:#c9ced4;}.cls-130{clip-path:url(#clip-path-3);}.cls-131{fill:url(#linear-gradient-116);}.cls-132{clip-path:url(#clip-path-4);}.cls-133{fill:url(#linear-gradient-118);}.cls-134{clip-path:url(#clip-path-5);}.cls-135{fill:url(#linear-gradient-120);}.cls-136{fill:url(#linear-gradient-121);}.cls-137{fill:url(#linear-gradient-122);}.cls-138{fill:url(#linear-gradient-123);}.cls-140{fill:url(#linear-gradient-124);}.cls-141{fill:url(#linear-gradient-125);}.cls-142{fill:url(#linear-gradient-126);}.cls-143{fill:url(#linear-gradient-127);}.cls-144{fill:url(#linear-gradient-128);}.cls-145{fill:url(#linear-gradient-129);}.cls-146{fill:url(#linear-gradient-130);}.cls-147{fill:url(#linear-gradient-131);}.cls-148{fill:url(#linear-gradient-132);}.cls-149{fill:url(#linear-gradient-133);}.cls-150{fill:url(#linear-gradient-134);}.cls-151{fill:url(#linear-gradient-135);}.cls-152{fill:url(#linear-gradient-136);}.cls-153{fill:url(#linear-gradient-137);}.cls-154{fill:url(#linear-gradient-138);}.cls-155{fill:url(#linear-gradient-139);}.cls-156{fill:url(#linear-gradient-140);}.cls-157{fill:url(#linear-gradient-141);}.cls-158{fill:url(#linear-gradient-142);}</style><linearGradient id="linear-gradient" x1="186.35" y1="380" x2="191.24" y2="390.05" gradientUnits="userSpaceOnUse"><stop offset="0" stop-color="#e6d48a"/><stop offset="0.03" stop-color="#dcc77a"/><stop offset="0.1" stop-color="#cbaf5e"/><stop offset="0.16" stop-color="#be9e49"/><stop offset="0.23" stop-color="#b7933d"/><stop offset="0.29" stop-color="#b49039"/><stop offset="0.34" stop-color="#b6933d"/><stop offset="0.39" stop-color="#bb9a48"/><stop offset="0.43" stop-color="#c4a75a"/><stop offset="0.47" stop-color="#d1b974"/><stop offset="0.5" stop-color="#dcca8c"/><stop offset="0.99" stop-color="#b49039"/></linearGradient><linearGradient id="linear-gradient-2" x1="185.93" y1="380.2" x2="190.82" y2="390.25" xlink:href="#linear-gradient"/><linearGradient id="linear-gradient-3" x1="200.14" y1="389.52" x2="200.97" y2="389.52" xlink:href="#linear-gradient"/><linearGradient id="linear-gradient-4" x1="347.06" y1="33.92" x2="462.35" y2="33.92" gradientUnits="userSpaceOnUse"><stop offset="0" stop-color="#9e8032"/><stop offset="0.14" stop-color="#a18336"/><stop offset="0.27" stop-color="#aa8e41"/><stop offset="0.39" stop-color="#b9a053"/><stop offset="0.51" stop-color="#cfb96d"/><stop offset="0.61" stop-color="#e6d48a"/><stop offset="0.67" stop-color="#d8c174"/><stop offset="0.75" stop-color="#c6a958"/><stop offset="0.83" stop-color="#b89743"/><stop offset="0.91" stop-color="#b18d37"/><stop offset="0.99" stop-color="#ae8933"/></linearGradient><linearGradient id="linear-gradient-5" x1="171.12" y1="99.05" x2="180.11" y2="99.05" xlink:href="#linear-gradient-4"/><linearGradient id="linear-gradient-6" x1="186.26" y1="90.3" x2="195.24" y2="90.3" xlink:href="#linear-gradient-4"/><linearGradient id="linear-gradient-7" x1="201.4" y1="81.55" x2="210.38" y2="81.55" xlink:href="#linear-gradient-4"/><linearGradient id="linear-gradient-8" x1="214.51" y1="73.81" x2="223.49" y2="73.81" xlink:href="#linear-gradient-4"/><linearGradient id="linear-gradient-9" x1="229.6" y1="65.25" x2="238.58" y2="65.25" xlink:href="#linear-gradient-4"/><linearGradient id="linear-gradient-10" x1="244.88" y1="56.53" x2="253.86" y2="56.53" xlink:href="#linear-gradient-4"/><linearGradient id="linear-gradient-11" x1="260.14" y1="47.65" x2="269.13" y2="47.65" xlink:href="#linear-gradient-4"/><linearGradient id="linear-gradient-12" x1="273.22" y1="39.95" x2="282.2" y2="39.95" xlink:href="#linear-gradient-4"/><linearGradient id="linear-gradient-13" x1="288.2" y1="31" x2="297.18" y2="31" xlink:href="#linear-gradient-4"/><linearGradient id="linear-gradient-14" x1="303.48" y1="22.28" x2="312.46" y2="22.28" xlink:href="#linear-gradient-4"/><linearGradient id="linear-gradient-15" x1="318.74" y1="13.4" x2="327.73" y2="13.4" xlink:href="#linear-gradient-4"/><linearGradient id="linear-gradient-16" x1="331.82" y1="5.7" x2="340.8" y2="5.7" xlink:href="#linear-gradient-4"/><linearGradient id="linear-gradient-17" x1="429.23" y1="175.7" x2="458.14" y2="127.58" gradientUnits="userSpaceOnUse"><stop offset="0.02" stop-opacity="0"/><stop offset="0.07" stop-opacity="0.06"/><stop offset="1" stop-opacity="0.5"/></linearGradient><linearGradient id="linear-gradient-18" x1="544.99" y1="136.58" x2="485.67" y2="136.58" gradientUnits="userSpaceOnUse"><stop offset="0" stop-color="#383533"/><stop offset="1" stop-color="#1c1714"/></linearGradient><linearGradient id="linear-gradient-19" x1="482.58" y1="136.58" x2="422.75" y2="136.58" xlink:href="#linear-gradient-18"/><linearGradient id="linear-gradient-20" x1="420.05" y1="119.99" x2="544.66" y2="119.99" xlink:href="#linear-gradient-18"/><linearGradient id="linear-gradient-21" x1="482.35" y1="32.38" x2="482.35" y2="107.25" gradientUnits="userSpaceOnUse"><stop offset="0" stop-color="#6b6565"/><stop offset="1" stop-color="#4c4242"/></linearGradient><linearGradient id="linear-gradient-22" x1="544.99" y1="93.35" x2="485.67" y2="93.35" xlink:href="#linear-gradient-18"/><linearGradient id="linear-gradient-23" x1="482.58" y1="93.35" x2="422.75" y2="93.35" xlink:href="#linear-gradient-18"/><linearGradient id="linear-gradient-24" x1="420.05" y1="76.76" x2="544.66" y2="76.76" xlink:href="#linear-gradient-18"/><linearGradient id="linear-gradient-25" x1="509.94" y1="51.79" x2="477.68" y2="51.79" xlink:href="#linear-gradient-18"/><linearGradient id="linear-gradient-26" x1="482.56" y1="44.5" x2="452.72" y2="61.65" xlink:href="#linear-gradient-18"/><linearGradient id="linear-gradient-27" x1="341.37" y1="173.71" x2="350.35" y2="173.71" xlink:href="#linear-gradient-4"/><linearGradient id="linear-gradient-28" x1="356.5" y1="164.97" x2="365.49" y2="164.97" xlink:href="#linear-gradient-4"/><linearGradient id="linear-gradient-29" x1="371.64" y1="156.22" x2="380.63" y2="156.22" xlink:href="#linear-gradient-4"/><linearGradient id="linear-gradient-30" x1="310.51" y1="191.99" x2="319.49" y2="191.99" xlink:href="#linear-gradient-4"/><linearGradient id="linear-gradient-31" x1="325.65" y1="183.24" x2="334.63" y2="183.24" xlink:href="#linear-gradient-4"/><linearGradient id="linear-gradient-32" x1="384.75" y1="148.48" x2="393.74" y2="148.48" xlink:href="#linear-gradient-4"/><linearGradient id="linear-gradient-33" x1="399.84" y1="139.92" x2="408.82" y2="139.92" xlink:href="#linear-gradient-4"/><linearGradient id="linear-gradient-34" x1="415.13" y1="131.2" x2="424.11" y2="131.2" xlink:href="#linear-gradient-4"/><linearGradient id="linear-gradient-35" x1="430.39" y1="122.32" x2="439.37" y2="122.32" xlink:href="#linear-gradient-4"/><linearGradient id="linear-gradient-36" x1="443.46" y1="114.62" x2="452.45" y2="114.62" xlink:href="#linear-gradient-4"/><linearGradient id="linear-gradient-37" x1="434.56" y1="427.31" x2="463.48" y2="379.19" xlink:href="#linear-gradient-17"/><linearGradient id="linear-gradient-38" x1="550.33" y1="388.19" x2="491" y2="388.19" xlink:href="#linear-gradient-18"/><linearGradient id="linear-gradient-39" x1="487.91" y1="388.19" x2="428.09" y2="388.19" xlink:href="#linear-gradient-18"/><linearGradient id="linear-gradient-40" x1="425.38" y1="371.6" x2="550" y2="371.6" xlink:href="#linear-gradient-18"/><linearGradient id="linear-gradient-41" x1="487.69" y1="283.98" x2="487.69" y2="358.86" xlink:href="#linear-gradient-21"/><linearGradient id="linear-gradient-42" x1="550.33" y1="344.96" x2="491" y2="344.96" xlink:href="#linear-gradient-18"/><linearGradient id="linear-gradient-43" x1="487.91" y1="344.95" x2="428.09" y2="344.95" xlink:href="#linear-gradient-18"/><linearGradient id="linear-gradient-44" x1="425.38" y1="328.37" x2="550" y2="328.37" xlink:href="#linear-gradient-18"/><linearGradient id="linear-gradient-45" x1="515.28" y1="303.4" x2="483.02" y2="303.4" xlink:href="#linear-gradient-18"/><linearGradient id="linear-gradient-46" x1="487.9" y1="296.1" x2="458.06" y2="313.26" xlink:href="#linear-gradient-18"/><linearGradient id="linear-gradient-47" x1="242.8" y1="168.59" x2="420.59" y2="279.86" xlink:href="#linear-gradient-18"/><linearGradient id="linear-gradient-48" x1="384.04" y1="94.74" x2="331.73" y2="206.61" xlink:href="#linear-gradient-18"/><linearGradient id="linear-gradient-49" x1="262.65" y1="164.71" x2="438.06" y2="164.71" xlink:href="#linear-gradient-21"/><linearGradient id="linear-gradient-50" x1="281.48" y1="237.97" x2="290.55" y2="364.96" xlink:href="#linear-gradient-21"/><linearGradient id="linear-gradient-51" x1="356.73" y1="171.57" x2="292.02" y2="265.09" xlink:href="#linear-gradient-18"/><linearGradient id="linear-gradient-52" x1="422.48" y1="288.22" x2="417.33" y2="281.07" xlink:href="#linear-gradient-21"/><linearGradient id="linear-gradient-53" x1="323.72" y1="227.69" x2="217.29" y2="331.1" gradientUnits="userSpaceOnUse"><stop offset="0" stop-color="#fff"/><stop offset="0.41" stop-color="#f1f0f5"/><stop offset="1" stop-color="#e2e0ea"/></linearGradient><linearGradient id="linear-gradient-54" x1="286.83" y1="244.86" x2="219.1" y2="311.38" xlink:href="#linear-gradient-18"/><linearGradient id="linear-gradient-55" x1="286.64" y1="244.81" x2="219.26" y2="310.98" xlink:href="#linear-gradient-18"/><linearGradient id="linear-gradient-56" x1="418.01" y1="329.54" x2="353.98" y2="327.59" gradientTransform="matrix(1, 0.05, -0.05, 1, 5.39, -147.48)" gradientUnits="userSpaceOnUse"><stop offset="0" stop-color="#f4d98b"/><stop offset="0.08" stop-color="#dcb88a"/><stop offset="0.27" stop-color="#a16686"/><stop offset="0.39" stop-color="#782e84"/><stop offset="0.48" stop-color="#5a2363"/><stop offset="0.69" stop-color="#100611"/><stop offset="0.73"/></linearGradient><linearGradient id="linear-gradient-57" x1="315.17" y1="268.35" x2="314.66" y2="269.31" gradientTransform="translate(4.28 -24.77) rotate(0.85)" xlink:href="#linear-gradient-18"/><linearGradient id="linear-gradient-58" x1="269.24" y1="239.13" x2="267.53" y2="243.19" gradientTransform="translate(4.28 -24.77) rotate(0.85)" gradientUnits="userSpaceOnUse"><stop offset="0" stop-color="#fff"/><stop offset="1" stop-color="#dfebf7"/></linearGradient><linearGradient id="linear-gradient-59" x1="357.87" y1="133.94" x2="312.84" y2="240.89" gradientTransform="translate(4.28 -24.77) rotate(0.85)" gradientUnits="userSpaceOnUse"><stop offset="0" stop-color="#6b6565"/><stop offset="0.2" stop-color="#4c4242"/><stop offset="1" stop-color="#1c1714"/></linearGradient><linearGradient id="linear-gradient-60" x1="314.89" y1="264.55" x2="290.42" y2="290.55" gradientTransform="translate(4.28 -24.77) rotate(0.85)" xlink:href="#linear-gradient-21"/><linearGradient id="linear-gradient-61" x1="378.93" y1="236.62" x2="400.77" y2="154.3" gradientTransform="translate(4.28 -24.77) rotate(0.85)" xlink:href="#linear-gradient-21"/><clipPath id="clip-path"><polygon class="cls-1" points="287.38 188.61 287.58 115.03 374.54 165.24 374.33 238.81 287.38 188.61"/></clipPath><linearGradient id="linear-gradient-62" x1="287.57" y1="142.58" x2="374.54" y2="142.58" xlink:href="#linear-gradient-21"/><linearGradient id="linear-gradient-63" x1="287.45" y1="170.85" x2="322.79" y2="170.85" xlink:href="#linear-gradient-21"/><linearGradient id="linear-gradient-64" x1="287.53" y1="154.51" x2="365.43" y2="154.51" xlink:href="#linear-gradient-21"/><linearGradient id="linear-gradient-65" x1="287.49" y1="168.43" x2="365.39" y2="168.43" xlink:href="#linear-gradient-21"/><linearGradient id="linear-gradient-66" x1="353.36" y1="226.14" x2="372.58" y2="226.14" xlink:href="#linear-gradient-21"/><linearGradient id="linear-gradient-67" x1="242.09" y1="258.04" x2="265.72" y2="258.04" gradientTransform="translate(56.51 -59.44) rotate(0.98)" xlink:href="#linear-gradient-18"/><linearGradient id="linear-gradient-68" x1="236.14" y1="258.97" x2="261.8" y2="258.97" gradientTransform="translate(56.51 -59.44) rotate(0.98)" xlink:href="#linear-gradient-18"/><linearGradient id="linear-gradient-69" x1="242.09" y1="257.57" x2="265.72" y2="257.57" gradientTransform="translate(56.51 -59.44) rotate(0.98)" xlink:href="#linear-gradient-21"/><linearGradient id="linear-gradient-70" x1="236.14" y1="258.97" x2="261.8" y2="258.97" gradientTransform="translate(56.51 -59.44) rotate(0.98)" xlink:href="#linear-gradient-21"/><linearGradient id="linear-gradient-71" x1="243.91" y1="257.37" x2="261.63" y2="263.84" gradientTransform="translate(56.51 -59.44) rotate(0.98)" xlink:href="#linear-gradient-21"/><linearGradient id="linear-gradient-72" x1="351.58" y1="94.24" x2="348.01" y2="53.41" xlink:href="#linear-gradient-4"/><linearGradient id="linear-gradient-73" x1="341.56" y1="45.56" x2="341.56" y2="95.63" xlink:href="#linear-gradient"/><linearGradient id="linear-gradient-74" x1="332.04" y1="65.91" x2="364.74" y2="65.91" xlink:href="#linear-gradient-4"/><linearGradient id="linear-gradient-75" x1="323.79" y1="67.85" x2="359.32" y2="67.85" xlink:href="#linear-gradient-4"/><linearGradient id="linear-gradient-76" x1="322.72" y1="104.47" x2="360.64" y2="104.47" xlink:href="#linear-gradient-18"/><clipPath id="clip-path-2"><path class="cls-1" d="M359.85,112.76l-3.64-2.1a17.42,17.42,0,0,1-3.48-2c-.76-.75-.77-1.74-1.05-2.73-.36-1.29-1.51-2.17-2.31-3.24-2.39-3.18-1.75-8-4.43-11a8.81,8.81,0,0,0-6.46-2.49c-2,0-4.22.42-5.57,1.94-.8.9-1.24,2.1-2.14,2.91-2.11,1.91-4.71-1.58-7.29-.08-1,.6-1,1.59,0,2.19L356.07,115a4.18,4.18,0,0,0,3.79,0,1.18,1.18,0,0,0,0-2.22"/></clipPath><linearGradient id="linear-gradient-77" x1="345.34" y1="152.68" x2="341.78" y2="111.85" xlink:href="#linear-gradient-4"/><linearGradient id="linear-gradient-78" x1="335.32" y1="104.01" x2="335.32" y2="154.07" xlink:href="#linear-gradient"/><linearGradient id="linear-gradient-79" x1="325.8" y1="124.35" x2="358.5" y2="124.35" xlink:href="#linear-gradient-4"/><linearGradient id="linear-gradient-80" x1="317.56" y1="126.29" x2="353.08" y2="126.29" xlink:href="#linear-gradient-4"/><linearGradient id="linear-gradient-81" x1="89.72" y1="194.08" x2="118.63" y2="145.96" xlink:href="#linear-gradient-17"/><linearGradient id="linear-gradient-82" x1="205.48" y1="154.96" x2="146.16" y2="154.96" xlink:href="#linear-gradient-18"/><linearGradient id="linear-gradient-83" x1="143.07" y1="154.96" x2="83.25" y2="154.96" xlink:href="#linear-gradient-18"/><linearGradient id="linear-gradient-84" x1="80.54" y1="138.38" x2="205.15" y2="138.38" xlink:href="#linear-gradient-18"/><linearGradient id="linear-gradient-85" x1="142.85" y1="50.76" x2="142.85" y2="125.63" xlink:href="#linear-gradient-21"/><linearGradient id="linear-gradient-86" x1="205.48" y1="111.73" x2="146.16" y2="111.73" xlink:href="#linear-gradient-18"/><linearGradient id="linear-gradient-87" x1="143.07" y1="111.73" x2="83.25" y2="111.73" xlink:href="#linear-gradient-18"/><linearGradient id="linear-gradient-88" x1="80.54" y1="95.15" x2="205.15" y2="95.15" xlink:href="#linear-gradient-18"/><linearGradient id="linear-gradient-89" x1="170.43" y1="70.18" x2="138.17" y2="70.18" xlink:href="#linear-gradient-18"/><linearGradient id="linear-gradient-90" x1="143.06" y1="62.88" x2="113.21" y2="80.03" xlink:href="#linear-gradient-18"/><linearGradient id="linear-gradient-91" x1="0" y1="195.83" x2="8.98" y2="195.83" xlink:href="#linear-gradient-4"/><linearGradient id="linear-gradient-92" x1="15.13" y1="187.08" x2="24.12" y2="187.08" xlink:href="#linear-gradient-4"/><linearGradient id="linear-gradient-93" x1="30.27" y1="178.33" x2="39.26" y2="178.33" xlink:href="#linear-gradient-4"/><linearGradient id="linear-gradient-94" x1="43.39" y1="170.59" x2="52.37" y2="170.59" xlink:href="#linear-gradient-4"/><linearGradient id="linear-gradient-95" x1="58.47" y1="162.03" x2="67.45" y2="162.03" xlink:href="#linear-gradient-4"/><linearGradient id="linear-gradient-96" x1="73.76" y1="153.31" x2="82.74" y2="153.31" xlink:href="#linear-gradient-4"/><linearGradient id="linear-gradient-97" x1="89.02" y1="144.43" x2="98" y2="144.43" xlink:href="#linear-gradient-4"/><linearGradient id="linear-gradient-98" x1="102.09" y1="136.73" x2="111.08" y2="136.73" xlink:href="#linear-gradient-4"/><linearGradient id="linear-gradient-99" x1="145.95" y1="347.87" x2="154.93" y2="347.87" xlink:href="#linear-gradient-4"/><linearGradient id="linear-gradient-100" x1="161.24" y1="339.15" x2="170.22" y2="339.15" xlink:href="#linear-gradient-4"/><linearGradient id="linear-gradient-101" x1="176.5" y1="330.27" x2="185.48" y2="330.27" xlink:href="#linear-gradient-4"/><linearGradient id="linear-gradient-102" x1="189.57" y1="322.58" x2="198.56" y2="322.58" xlink:href="#linear-gradient-4"/><linearGradient id="linear-gradient-103" x1="12.12" y1="226.37" x2="87.17" y2="226.37" xlink:href="#linear-gradient-4"/><linearGradient id="linear-gradient-104" x1="94.46" y1="328.16" x2="122.44" y2="281.59" gradientUnits="userSpaceOnUse"><stop offset="0.26" stop-opacity="0"/><stop offset="0.3" stop-opacity="0.06"/><stop offset="1" stop-opacity="0.5"/></linearGradient><linearGradient id="linear-gradient-105" x1="6234.88" y1="273.59" x2="6307.25" y2="273.59" gradientTransform="matrix(-1, 0, 0, 1, 6398.93, 0)" xlink:href="#linear-gradient-18"/><linearGradient id="linear-gradient-106" x1="6234.88" y1="243.66" x2="6307.25" y2="243.66" gradientTransform="matrix(-1, 0, 0, 1, 6398.93, 0)" xlink:href="#linear-gradient-21"/><linearGradient id="linear-gradient-107" x1="6245.35" y1="227.29" x2="6294.66" y2="227.29" gradientTransform="matrix(-1, 0, 0, 1, 6398.93, 0)" gradientUnits="userSpaceOnUse"><stop offset="0" stop-color="#34302e"/><stop offset="1" stop-color="#1c1714"/></linearGradient><linearGradient id="linear-gradient-108" x1="6295.4" y1="225.31" x2="6279.27" y2="215.42" gradientTransform="matrix(-1, 0, 0, 1, 6398.93, 0)" gradientUnits="userSpaceOnUse"><stop offset="0" stop-color="#3f3c3a"/><stop offset="1" stop-color="#1c1714"/></linearGradient><linearGradient id="linear-gradient-109" x1="6267.69" y1="231.68" x2="6244.57" y2="222.54" xlink:href="#linear-gradient-108"/><linearGradient id="linear-gradient-110" x1="158.45" y1="303.46" x2="206.67" y2="303.46" xlink:href="#linear-gradient-4"/><linearGradient id="linear-gradient-111" x1="2915.38" y1="2246.93" x2="3003.47" y2="2246.93" gradientTransform="translate(3369.32 -1551.72) rotate(110.79)" xlink:href="#linear-gradient-18"/><linearGradient id="linear-gradient-112" x1="2893.17" y1="2250.4" x2="2988.86" y2="2250.4" gradientTransform="translate(3369.32 -1551.72) rotate(110.79)" xlink:href="#linear-gradient-18"/><linearGradient id="linear-gradient-113" x1="2915.38" y1="2245.18" x2="3003.47" y2="2245.18" gradientTransform="translate(3369.32 -1551.72) rotate(110.79)" xlink:href="#linear-gradient-18"/><linearGradient id="linear-gradient-114" x1="2893.17" y1="2250.4" x2="2988.86" y2="2250.4" gradientTransform="translate(3369.32 -1551.72) rotate(110.79)" xlink:href="#linear-gradient-18"/><clipPath id="clip-path-3"><path class="cls-2" d="M188.47,389.32l0-10.12c0,.09,0,.18,0,.28l0,10.12A1.34,1.34,0,0,1,188.47,389.32Z"/></clipPath><linearGradient id="linear-gradient-116" x1="186.35" y1="380" x2="191.24" y2="390.05" xlink:href="#linear-gradient"/><clipPath id="clip-path-4"><path class="cls-3" d="M188.61,381.54l0,10.12a20.58,20.58,0,0,0-.1-2.06l0-10.12A20.43,20.43,0,0,1,188.61,381.54Z"/></clipPath><linearGradient id="linear-gradient-118" x1="185.93" y1="380.21" x2="190.82" y2="390.25" xlink:href="#linear-gradient"/><clipPath id="clip-path-5"><path class="cls-4" d="M201,381.7l0,10.13a20.49,20.49,0,0,1-.8,5.5l0-10.12A21,21,0,0,0,201,381.7Z"/></clipPath><linearGradient id="linear-gradient-120" x1="200.93" y1="387" x2="200.97" y2="387" xlink:href="#linear-gradient"/><linearGradient id="linear-gradient-121" x1="202.68" y1="389.44" x2="198.85" y2="390.01" xlink:href="#linear-gradient"/><linearGradient id="linear-gradient-122" x1="267.86" y1="397.86" x2="170.97" y2="402.24" xlink:href="#linear-gradient"/><linearGradient id="linear-gradient-123" x1="184.95" y1="382.13" x2="314.66" y2="417.93" xlink:href="#linear-gradient"/><linearGradient id="linear-gradient-124" x1="263.72" y1="385.22" x2="182.27" y2="384.75" xlink:href="#linear-gradient"/><linearGradient id="linear-gradient-125" x1="263.66" y1="395.02" x2="182.22" y2="394.56" xlink:href="#linear-gradient"/><linearGradient id="linear-gradient-126" x1="263.66" y1="381.2" x2="182.3" y2="380.74" xlink:href="#linear-gradient"/><linearGradient id="linear-gradient-127" x1="151.85" y1="363.44" x2="159.82" y2="363.44" xlink:href="#linear-gradient-4"/><linearGradient id="linear-gradient-128" x1="138.43" y1="355.65" x2="146.4" y2="355.65" xlink:href="#linear-gradient-4"/><linearGradient id="linear-gradient-129" x1="280.47" y1="444.78" x2="315.27" y2="444.78" xlink:href="#linear-gradient-4"/><linearGradient id="linear-gradient-130" x1="414.39" y1="314.79" x2="422.37" y2="314.79" xlink:href="#linear-gradient-4"/><linearGradient id="linear-gradient-131" x1="400.72" y1="307.08" x2="408.69" y2="307.08" xlink:href="#linear-gradient-4"/><linearGradient id="linear-gradient-132" x1="390.59" y1="300.52" x2="395.27" y2="300.52" xlink:href="#linear-gradient-4"/><linearGradient id="linear-gradient-133" x1="350.78" y1="429.29" x2="359.76" y2="429.29" xlink:href="#linear-gradient-4"/><linearGradient id="linear-gradient-134" x1="365.91" y1="420.54" x2="374.9" y2="420.54" xlink:href="#linear-gradient-4"/><linearGradient id="linear-gradient-135" x1="381.05" y1="411.8" x2="390.03" y2="411.8" xlink:href="#linear-gradient-4"/><linearGradient id="linear-gradient-136" x1="319.92" y1="447.57" x2="328.9" y2="447.57" xlink:href="#linear-gradient-4"/><linearGradient id="linear-gradient-137" x1="335.05" y1="438.82" x2="344.04" y2="438.82" xlink:href="#linear-gradient-4"/><linearGradient id="linear-gradient-138" x1="394.16" y1="404.06" x2="403.15" y2="404.06" xlink:href="#linear-gradient-4"/><linearGradient id="linear-gradient-139" x1="409.25" y1="395.5" x2="418.23" y2="395.5" xlink:href="#linear-gradient-4"/><linearGradient id="linear-gradient-140" x1="424.53" y1="386.78" x2="433.52" y2="386.78" xlink:href="#linear-gradient-4"/><linearGradient id="linear-gradient-141" x1="439.8" y1="377.89" x2="448.78" y2="377.89" xlink:href="#linear-gradient-4"/><linearGradient id="linear-gradient-142" x1="452.87" y1="370.2" x2="461.85" y2="370.2" xlink:href="#linear-gradient-4"/></defs><title>Asset 5</title><g class="cls-5"><g id="Layer_2" data-name="Layer 2"><g id="Layer_1-2" data-name="Layer 1"><path class="cls-6" d="M461.24,67.85a1.15,1.15,0,0,1-.56-.15l-5.75-3.34a1.13,1.13,0,0,1-.4-1.52,1.11,1.11,0,0,1,1.52-.4l5.75,3.34a1.11,1.11,0,0,1-.56,2.07Zm-13.41-7.79a1.12,1.12,0,0,1-.56-.15l-5.75-3.33a1.12,1.12,0,1,1,1.12-1.93L448.39,58a1.11,1.11,0,0,1-.56,2.07Zm-13.42-7.78a1.15,1.15,0,0,1-.56-.15l-5.75-3.34a1.11,1.11,0,0,1,1.12-1.92L435,50.2a1.12,1.12,0,0,1-.56,2.08ZM421,44.49a1.15,1.15,0,0,1-.56-.15L414.69,41a1.11,1.11,0,1,1,1.12-1.92l5.74,3.34a1.11,1.11,0,0,1-.56,2.07ZM407.58,36.7a1,1,0,0,1-.56-.15l-5.75-3.33a1.12,1.12,0,0,1,1.12-1.93l5.75,3.34a1.11,1.11,0,0,1-.56,2.07Zm-13.42-7.78a1.15,1.15,0,0,1-.56-.15l-5.75-3.34A1.11,1.11,0,1,1,389,23.51l5.75,3.33a1.12,1.12,0,0,1-.56,2.08Zm-13.41-7.79a1.12,1.12,0,0,1-.56-.15l-5.75-3.34a1.11,1.11,0,0,1,1.12-1.92l5.75,3.34a1.11,1.11,0,0,1-.56,2.07Zm-13.42-7.79a1.14,1.14,0,0,1-.56-.14L361,9.86a1.13,1.13,0,0,1-.4-1.52,1.11,1.11,0,0,1,1.52-.41l5.75,3.34a1.11,1.11,0,0,1,.4,1.52A1.09,1.09,0,0,1,367.33,13.34ZM353.92,5.56a1.12,1.12,0,0,1-.56-.15l-5.75-3.34A1.12,1.12,0,0,1,347.2.55a1.13,1.13,0,0,1,1.53-.4l5.75,3.33a1.13,1.13,0,0,1,.4,1.52A1.11,1.11,0,0,1,353.92,5.56Z"/><path class="cls-7" d="M172.38,102.17a1.25,1.25,0,0,1-.63-2.33l6.48-3.75a1.25,1.25,0,1,1,1.25,2.16L173,102A1.19,1.19,0,0,1,172.38,102.17Z"/><path class="cls-8" d="M187.51,93.42a1.25,1.25,0,0,1-.63-2.33l6.49-3.75a1.25,1.25,0,1,1,1.25,2.16l-6.49,3.75A1.19,1.19,0,0,1,187.51,93.42Z"/><path class="cls-9" d="M202.65,84.67a1.25,1.25,0,0,1-.63-2.33l6.49-3.75a1.25,1.25,0,0,1,1.25,2.16l-6.49,3.75A1.19,1.19,0,0,1,202.65,84.67Z"/><path class="cls-10" d="M215.76,76.93a1.24,1.24,0,0,1-1.08-.62,1.25,1.25,0,0,1,.45-1.71l6.49-3.75A1.25,1.25,0,1,1,222.87,73l-6.49,3.75A1.16,1.16,0,0,1,215.76,76.93Z"/><path class="cls-11" d="M230.84,68.37a1.24,1.24,0,0,1-1.08-.62,1.26,1.26,0,0,1,.46-1.71l6.49-3.75A1.25,1.25,0,1,1,238,64.45l-6.48,3.75A1.19,1.19,0,0,1,230.84,68.37Z"/><path class="cls-12" d="M246.13,59.65a1.25,1.25,0,0,1-.63-2.33L252,53.57a1.26,1.26,0,0,1,1.71.46,1.25,1.25,0,0,1-.46,1.7l-6.49,3.75A1.26,1.26,0,0,1,246.13,59.65Z"/><path class="cls-13" d="M261.39,50.77a1.25,1.25,0,0,1-.62-2.33l6.48-3.75a1.26,1.26,0,0,1,1.71.46,1.25,1.25,0,0,1-.46,1.7L262,50.6A1.29,1.29,0,0,1,261.39,50.77Z"/><path class="cls-14" d="M274.46,43.08a1.25,1.25,0,0,1-.62-2.33L280.33,37a1.24,1.24,0,0,1,1.7.45,1.25,1.25,0,0,1-.45,1.71l-6.49,3.75A1.29,1.29,0,0,1,274.46,43.08Z"/><path class="cls-15" d="M289.44,34.12a1.25,1.25,0,0,1-.62-2.33L295.31,28a1.25,1.25,0,1,1,1.24,2.16L290.07,34A1.19,1.19,0,0,1,289.44,34.12Z"/><path class="cls-16" d="M304.73,25.4a1.24,1.24,0,0,1-1.08-.62,1.25,1.25,0,0,1,.45-1.71l6.49-3.75a1.26,1.26,0,0,1,1.71.46,1.25,1.25,0,0,1-.46,1.7l-6.49,3.75A1.16,1.16,0,0,1,304.73,25.4Z"/><path class="cls-17" d="M320,16.52a1.24,1.24,0,0,1-1.08-.62,1.26,1.26,0,0,1,.46-1.71l6.48-3.75a1.26,1.26,0,0,1,1.71.46,1.25,1.25,0,0,1-.46,1.7l-6.48,3.75A1.19,1.19,0,0,1,320,16.52Z"/><path class="cls-18" d="M333.06,8.83a1.25,1.25,0,0,1-.62-2.33l6.49-3.75a1.25,1.25,0,0,1,1.25,2.16l-6.49,3.75A1.29,1.29,0,0,1,333.06,8.83Z"/><polygon class="cls-19" points="442.81 193.37 380.61 157.45 430.98 128.74 496.65 162.66 442.81 193.37"/><g class="cls-5"><polygon class="cls-20" points="482.47 66.18 420.05 102.27 482.47 138.36 544.66 102.27 482.47 66.18"/><polygon class="cls-21" points="482.47 138.36 482.47 170.88 544.66 134.79 544.66 102.27 482.47 138.36"/><polygon class="cls-22" points="420.05 102.27 420.05 134.79 482.47 170.88 482.47 138.36 420.05 102.27"/></g><polygon class="cls-23" points="482.47 137.07 421.17 101.63 420.05 102.27 482.47 138.36 544.66 102.27 543.55 101.63 482.47 137.07"/><path class="cls-24" d="M537,115.6c1-.58,1.81-.11,1.82,1a4,4,0,0,1-1.81,3.12c-1,.58-1.82.12-1.82-1A4,4,0,0,1,537,115.6"/><g class="cls-25"><path class="cls-24" d="M530.2,119.51a4,4,0,0,0-1.81,3.13c0,1.15.82,1.61,1.82,1a4,4,0,0,0,1.81-3.13c0-1.15-.82-1.61-1.82-1"/></g><g class="cls-26"><path class="cls-24" d="M523.45,123.41a4,4,0,0,0-1.81,3.14c0,1.15.82,1.61,1.82,1a4,4,0,0,0,1.8-3.13c0-1.15-.81-1.61-1.81-1"/></g><g class="cls-27"><path class="cls-24" d="M537,125.32c1-.58,1.81-.11,1.82,1a4,4,0,0,1-1.81,3.12c-1,.58-1.82.12-1.82-1a4,4,0,0,1,1.81-3.13"/></g><path class="cls-24" d="M530.2,129.23a4,4,0,0,0-1.81,3.13c0,1.15.82,1.61,1.82,1a4,4,0,0,0,1.81-3.13c0-1.15-.82-1.61-1.82-1"/><g class="cls-26"><path class="cls-24" d="M523.45,133.13a4,4,0,0,0-1.81,3.14c0,1.15.82,1.61,1.82,1a4,4,0,0,0,1.8-3.13c0-1.15-.81-1.61-1.81-1"/></g><g class="cls-5"><polygon class="cls-28" points="482.47 22.95 420.05 59.04 482.47 95.13 544.66 59.04 482.47 22.95"/><polygon class="cls-29" points="482.47 95.13 482.47 127.65 544.66 91.56 544.66 59.04 482.47 95.13"/><polygon class="cls-30" points="420.05 59.04 420.05 91.56 482.47 127.65 482.47 95.13 420.05 59.04"/></g><polygon class="cls-31" points="482.47 93.84 421.17 58.39 420.05 59.04 482.47 95.13 544.66 59.04 543.55 58.4 482.47 93.84"/><polygon class="cls-20" points="482.41 42.51 453.82 59.04 482.41 75.57 510.89 59.04 482.41 42.51"/><g class="cls-32"><polygon class="cls-33" points="482.41 42.51 482.41 46.58 507.39 61.07 510.89 59.04 482.41 42.51"/><polygon class="cls-34" points="453.82 59.04 457.33 61.07 482.41 46.58 482.41 42.51 453.82 59.04"/></g><polygon class="cls-24" points="482.37 55.48 476.2 59.04 482.37 62.61 488.51 59.04 482.37 55.48"/><g class="cls-27"><path class="cls-24" d="M537,72.37c1-.58,1.81-.12,1.82,1A4,4,0,0,1,537,76.53c-1,.58-1.82.12-1.82-1A4,4,0,0,1,537,72.37"/></g><path class="cls-24" d="M530.2,76.27a4,4,0,0,0-1.81,3.14c0,1.15.82,1.61,1.82,1A4,4,0,0,0,532,77.31c0-1.15-.82-1.61-1.82-1"/><g class="cls-26"><path class="cls-24" d="M523.45,80.18a4,4,0,0,0-1.81,3.13c0,1.16.82,1.62,1.82,1a4,4,0,0,0,1.8-3.13c0-1.15-.81-1.62-1.81-1"/></g><g class="cls-35"><path class="cls-24" d="M537,82.09c1-.58,1.81-.12,1.82,1A4,4,0,0,1,537,86.25c-1,.58-1.82.12-1.82-1A4,4,0,0,1,537,82.09"/></g><path class="cls-36" d="M530.2,86a4,4,0,0,0-1.81,3.14c0,1.15.82,1.61,1.82,1A4,4,0,0,0,532,87c0-1.15-.82-1.61-1.82-1"/><path class="cls-24" d="M523.45,89.9A4,4,0,0,0,521.64,93c0,1.15.82,1.61,1.82,1a4,4,0,0,0,1.8-3.13c0-1.15-.81-1.62-1.81-1"/><path class="cls-37" d="M342.62,176.84a1.25,1.25,0,0,1-.63-2.33l6.49-3.75a1.25,1.25,0,0,1,1.25,2.16l-6.49,3.75A1.16,1.16,0,0,1,342.62,176.84Z"/><path class="cls-38" d="M357.75,168.09a1.24,1.24,0,0,1-1.08-.62,1.25,1.25,0,0,1,.46-1.71l6.49-3.75a1.25,1.25,0,0,1,1.24,2.16l-6.48,3.75A1.19,1.19,0,0,1,357.75,168.09Z"/><path class="cls-39" d="M372.89,159.34a1.24,1.24,0,0,1-1.08-.62,1.25,1.25,0,0,1,.45-1.71l6.49-3.75a1.25,1.25,0,1,1,1.25,2.16l-6.49,3.75A1.16,1.16,0,0,1,372.89,159.34Z"/><path class="cls-40" d="M311.76,195.12a1.25,1.25,0,0,1-.63-2.33l6.49-3.75a1.25,1.25,0,1,1,1.25,2.16L312.38,195A1.29,1.29,0,0,1,311.76,195.12Z"/><path class="cls-41" d="M326.9,186.37a1.25,1.25,0,0,1-.63-2.33l6.49-3.75a1.23,1.23,0,0,1,1.7.46,1.24,1.24,0,0,1-.45,1.7l-6.49,3.75A1.29,1.29,0,0,1,326.9,186.37Z"/><path class="cls-42" d="M386,151.6a1.25,1.25,0,0,1-.63-2.33l6.48-3.75a1.25,1.25,0,1,1,1.25,2.16l-6.48,3.75A1.19,1.19,0,0,1,386,151.6Z"/><path class="cls-43" d="M401.09,143a1.24,1.24,0,0,1-1.08-.62,1.25,1.25,0,0,1,.45-1.71L407,137a1.25,1.25,0,0,1,1.7.46,1.23,1.23,0,0,1-.45,1.7l-6.49,3.75A1.26,1.26,0,0,1,401.09,143Z"/><path class="cls-44" d="M416.37,134.32a1.25,1.25,0,0,1-.62-2.33l6.49-3.75a1.25,1.25,0,0,1,1.24,2.16L417,134.15A1.29,1.29,0,0,1,416.37,134.32Z"/><path class="cls-45" d="M431.64,125.44a1.25,1.25,0,0,1-.63-2.33l6.49-3.75a1.25,1.25,0,0,1,1.25,2.16l-6.49,3.75A1.26,1.26,0,0,1,431.64,125.44Z"/><path class="cls-46" d="M444.71,117.75a1.25,1.25,0,0,1-.63-2.33l6.49-3.75a1.25,1.25,0,1,1,1.25,2.16l-6.49,3.75A1.26,1.26,0,0,1,444.71,117.75Z"/><polygon class="cls-47" points="448.15 444.98 385.95 409.06 436.32 380.35 501.99 414.26 448.15 444.98"/><g class="cls-5"><polygon class="cls-20" points="487.81 317.79 425.38 353.88 487.81 389.97 550 353.88 487.81 317.79"/><polygon class="cls-48" points="487.81 389.97 487.81 422.49 550 386.4 550 353.88 487.81 389.97"/><polygon class="cls-49" points="425.38 353.88 425.38 386.4 487.81 422.49 487.81 389.97 425.38 353.88"/></g><polygon class="cls-50" points="487.81 388.68 426.5 353.23 425.38 353.88 487.81 389.97 550 353.88 548.88 353.24 487.81 388.68"/><path class="cls-24" d="M542.29,367.21c1-.58,1.81-.12,1.81,1a4,4,0,0,1-1.8,3.13c-1,.58-1.82.12-1.82-1a4,4,0,0,1,1.81-3.13"/><g class="cls-25"><path class="cls-24" d="M535.54,371.11a4,4,0,0,0-1.81,3.14c0,1.15.82,1.61,1.82,1a4,4,0,0,0,1.8-3.13c0-1.15-.81-1.61-1.81-1"/></g><g class="cls-26"><path class="cls-24" d="M528.78,375a4,4,0,0,0-1.8,3.13c0,1.15.82,1.62,1.82,1a4,4,0,0,0,1.8-3.13c0-1.15-.81-1.62-1.82-1"/></g><g class="cls-27"><path class="cls-24" d="M542.29,376.92c1-.57,1.81-.11,1.81,1a4,4,0,0,1-1.8,3.13c-1,.58-1.82.12-1.82-1a4,4,0,0,1,1.81-3.14"/></g><path class="cls-24" d="M535.54,380.83a4,4,0,0,0-1.81,3.14c0,1.15.82,1.61,1.82,1a4,4,0,0,0,1.8-3.13c0-1.15-.81-1.61-1.81-1"/><g class="cls-26"><path class="cls-24" d="M528.78,384.74a4,4,0,0,0-1.8,3.13c0,1.15.82,1.62,1.82,1a4,4,0,0,0,1.8-3.13c0-1.15-.81-1.62-1.82-1"/></g><g class="cls-5"><polygon class="cls-51" points="487.81 274.56 425.38 310.65 487.81 346.74 550 310.65 487.81 274.56"/><polygon class="cls-52" points="487.81 346.74 487.81 379.26 550 343.17 550 310.65 487.81 346.74"/><polygon class="cls-53" points="425.38 310.65 425.38 343.17 487.81 379.26 487.81 346.74 425.38 310.65"/></g><polygon class="cls-54" points="487.81 345.45 426.5 310 425.38 310.65 487.81 346.74 550 310.65 548.88 310 487.81 345.45"/><polygon class="cls-20" points="487.75 294.12 459.16 310.65 487.75 327.18 516.23 310.65 487.75 294.12"/><g class="cls-32"><polygon class="cls-55" points="487.75 294.12 487.75 298.18 512.73 312.68 516.23 310.65 487.75 294.12"/><polygon class="cls-56" points="459.16 310.65 462.67 312.68 487.75 298.18 487.75 294.12 459.16 310.65"/></g><polygon class="cls-24" points="487.7 307.08 481.54 310.65 487.7 314.22 493.85 310.65 487.7 307.08"/><g class="cls-27"><path class="cls-24" d="M542.29,324c1-.57,1.81-.11,1.81,1a4,4,0,0,1-1.8,3.13c-1,.58-1.82.12-1.82-1a4,4,0,0,1,1.81-3.14"/></g><path class="cls-24" d="M535.54,327.88a4,4,0,0,0-1.81,3.13c0,1.16.82,1.62,1.82,1a4,4,0,0,0,1.8-3.13c0-1.15-.81-1.62-1.81-1"/><g class="cls-26"><path class="cls-24" d="M528.78,331.79a4,4,0,0,0-1.8,3.13c0,1.15.82,1.62,1.82,1a4,4,0,0,0,1.8-3.13c0-1.15-.81-1.62-1.82-1"/></g><g class="cls-35"><path class="cls-24" d="M542.29,333.69c1-.57,1.81-.11,1.81,1a4,4,0,0,1-1.8,3.13c-1,.58-1.82.12-1.82-1a4,4,0,0,1,1.81-3.14"/></g><path class="cls-36" d="M535.54,337.6a4,4,0,0,0-1.81,3.14c0,1.15.82,1.61,1.82,1a4,4,0,0,0,1.8-3.13c0-1.15-.81-1.62-1.81-1"/><path class="cls-24" d="M528.78,341.51a4,4,0,0,0-1.8,3.13c0,1.15.82,1.62,1.82,1a4,4,0,0,0,1.8-3.13c0-1.15-.81-1.62-1.82-1"/><path class="cls-57" d="M447.34,155.36l-1.87,12.55-.28,1.86L440,205l-5.92,39.6-.25,1.66-5,33.92a4.55,4.55,0,0,1-2.18,3.88l-112.31,60a14.5,14.5,0,0,1-14.45,0L142.68,253.34c-3.14-1.94-4.06-5.08-2.65-7.51a3.32,3.32,0,0,0,1.45,4.13l158.35,91.49a14.34,14.34,0,0,0,14.45-.07L420,280.18,255.59,182.7l10.67-71.76L268.8,94l.63-4.33,4.69-31.53c0-2.89,3.24-7.12,7.85-4.72L308,68.52l2.36,1.38,50.17,29,21.91,12.64,59.33,34.25A11,11,0,0,1,447.34,155.36Z"/><path class="cls-58" d="M263.14,129l-7.58,48.86,171,98.52,18.58-119.68a11.11,11.11,0,0,0-5.56-9.62L279.78,54.79A3.76,3.76,0,0,0,274.14,58l-11,70.94"/><polygon class="cls-59" points="438.06 155.13 419.48 264.83 262.65 174.61 281.23 64.58 438.06 155.13"/><path class="cls-60" d="M255.56,177.84,141.48,244.13a3.39,3.39,0,0,0,0,5.86l158.34,91.42a14.47,14.47,0,0,0,14.47,0l112.27-65Z"/><path class="cls-61" d="M408.12,272,258.76,186a3.79,3.79,0,0,0-3.81,0l-53.38,31a2.51,2.51,0,0,0,0,4.35l147.66,85.07a6.44,6.44,0,0,0,6.44,0l52.44-30.29A2.4,2.4,0,0,0,408.12,272Z"/><polygon class="cls-62" points="416.06 284.16 416.06 287.97 422.94 283.99 422.94 280.18 416.06 284.16"/><path class="cls-63" d="M400.9,272.32c1,.55,1,1.44,0,2l-1.73,1a3.81,3.81,0,0,1-3.42,0l-5.87-3.39a1.05,1.05,0,0,1,0-2l1.72-1a3.77,3.77,0,0,1,3.43,0Zm-17.17-9.92a3.81,3.81,0,0,0-3.42,0l-1.73,1a1,1,0,0,0,0,2l5.87,3.39a3.77,3.77,0,0,0,3.43,0l1.72-1a1.05,1.05,0,0,0,0-2Zm-11.3-6.52a3.77,3.77,0,0,0-3.43,0l-1.72,1c-.95.55-.94,1.43,0,2l5.86,3.39a3.77,3.77,0,0,0,3.43,0l1.73-1a1.05,1.05,0,0,0,0-2Zm-11.31-6.53a3.77,3.77,0,0,0-3.43,0l-1.72,1a1.05,1.05,0,0,0,0,2l5.87,3.38a3.75,3.75,0,0,0,3.42,0l1.73-1a1,1,0,0,0,0-2Zm-11.31-6.53a3.75,3.75,0,0,0-3.42,0l-1.73,1a1.05,1.05,0,0,0,0,2l5.86,3.39a3.8,3.8,0,0,0,3.43,0l1.72-1a1.05,1.05,0,0,0,0-2Zm-11.3-6.52a3.77,3.77,0,0,0-3.43,0l-1.72,1a1,1,0,0,0,0,2l5.87,3.39a3.75,3.75,0,0,0,3.42,0l1.73-1a1.05,1.05,0,0,0,0-2Zm-11.31-6.53a3.75,3.75,0,0,0-3.42,0l-1.73,1a1,1,0,0,0,0,2l5.87,3.39a3.77,3.77,0,0,0,3.43,0l1.72-1a1,1,0,0,0,0-2Zm-11.3-6.53a3.77,3.77,0,0,0-3.43,0l-1.72,1a1.05,1.05,0,0,0,0,2l5.87,3.38a3.75,3.75,0,0,0,3.42,0l1.73-1a1,1,0,0,0,0-2Zm-11.31-6.53a3.81,3.81,0,0,0-3.42,0l-1.73,1a1,1,0,0,0,0,2l5.87,3.39a3.77,3.77,0,0,0,3.43,0l1.72-1a1.05,1.05,0,0,0,0-2Zm-11.3-6.52a3.77,3.77,0,0,0-3.43,0l-1.72,1c-.95.55-.94,1.43,0,2l5.87,3.39a3.75,3.75,0,0,0,3.42,0l1.73-1a1.05,1.05,0,0,0,0-2ZM282,203.66a3.77,3.77,0,0,0-3.43,0l-1.72,1a1.05,1.05,0,0,0,0,2l5.87,3.38a3.75,3.75,0,0,0,3.42,0l1.73-1a1,1,0,0,0,0-2Zm-11.31-6.53a3.75,3.75,0,0,0-3.42,0l-1.73,1a1.05,1.05,0,0,0,0,2l5.87,3.39a3.83,3.83,0,0,0,3.43,0l1.72-1c.95-.54.94-1.43,0-2Zm-11.3-6.53a3.83,3.83,0,0,0-3.43,0l-1.72,1c-.95.54-.94,1.43,0,2L260.1,197a3.75,3.75,0,0,0,3.42,0l1.73-1a1.05,1.05,0,0,0,0-2ZM363.55,261a3.77,3.77,0,0,0-3.43,0l-3.45,2a1,1,0,0,0,0,2l5.86,3.39a3.77,3.77,0,0,0,3.43,0l3.45-2a1.05,1.05,0,0,0,0-2Zm-11.31-6.53a3.75,3.75,0,0,0-3.42,0l-3.45,2a1.05,1.05,0,0,0,0,2l5.87,3.39a3.83,3.83,0,0,0,3.43,0l3.44-2a1,1,0,0,0,0-2ZM340.94,248a3.75,3.75,0,0,0-3.42,0l-3.45,2a1.05,1.05,0,0,0,0,2l5.87,3.39a3.81,3.81,0,0,0,3.42,0l3.45-2a1,1,0,0,0,0-2Zm-11.3-6.53a3.77,3.77,0,0,0-3.43,0l-3.45,2a1,1,0,0,0,0,2l5.87,3.39a3.77,3.77,0,0,0,3.43,0l3.45-2a1,1,0,0,0,0-2Zm-11.31-6.53a3.81,3.81,0,0,0-3.42,0l-3.45,2a1,1,0,0,0,0,2l5.87,3.39a3.77,3.77,0,0,0,3.43,0l3.44-2a1.05,1.05,0,0,0,0-2ZM307,228.4a3.75,3.75,0,0,0-3.42,0l-3.45,2a1,1,0,0,0,0,2l5.87,3.39a3.75,3.75,0,0,0,3.42,0l3.45-2a1.05,1.05,0,0,0,0-2Zm-11.3-6.53a3.77,3.77,0,0,0-3.43,0l-3.45,2a1.05,1.05,0,0,0,0,2l5.87,3.38a3.77,3.77,0,0,0,3.43,0l3.45-2a1,1,0,0,0,0-2Zm-11.31-6.53a3.75,3.75,0,0,0-3.42,0l-3.45,2a1.05,1.05,0,0,0,0,2l5.87,3.39a3.81,3.81,0,0,0,3.42,0l3.45-2c.95-.55.94-1.43,0-2Zm-11.3-6.53a3.77,3.77,0,0,0-3.43,0l-3.44,2a1.05,1.05,0,0,0,0,2l5.87,3.39a3.75,3.75,0,0,0,3.42,0l3.45-2a1,1,0,0,0,0-2Zm-11.3-6.53a3.77,3.77,0,0,0-3.43,0l-3.45,2a1,1,0,0,0,0,2l5.87,3.39a3.77,3.77,0,0,0,3.43,0l3.45-2c.94-.54.93-1.43,0-2Zm-11.31-6.53a3.81,3.81,0,0,0-3.42,0l-3.45,2a1,1,0,0,0,0,2l5.87,3.39a3.75,3.75,0,0,0,3.42,0l3.45-2a1.05,1.05,0,0,0,0-2Zm127.28,73.51a3.77,3.77,0,0,0-3.43,0l-3.44,2a1.05,1.05,0,0,0,0,2l14.23,8.22a3.77,3.77,0,0,0,3.43,0l3.45-2a1,1,0,0,0,0-2Zm-23.14-3.05a3.75,3.75,0,0,0-3.42,0l-3.45,2a1,1,0,0,0,0,2l5.87,3.39a3.75,3.75,0,0,0,3.42,0l3.45-2a1.05,1.05,0,0,0,0-2ZM366,272.72a3.77,3.77,0,0,0-3.43,0l-3.45,2a1,1,0,0,0,0,2L365,280.1a3.77,3.77,0,0,0,3.43,0l3.45-2a1,1,0,0,0,0-2Zm11.32,6.52a3.75,3.75,0,0,0-3.42,0l-3.45,2a1.05,1.05,0,0,0,0,2l5.87,3.38a3.75,3.75,0,0,0,3.42,0l3.45-2a1,1,0,0,0,0-2Zm-33.95-19.56a3.77,3.77,0,0,0-3.43,0l-3.45,2a1.05,1.05,0,0,0,0,2l5.87,3.38a3.77,3.77,0,0,0,3.43,0l3.45-2a1,1,0,0,0,0-2ZM332,253.15a3.75,3.75,0,0,0-3.42,0l-3.45,2a1.05,1.05,0,0,0,0,2l5.87,3.39a3.81,3.81,0,0,0,3.42,0l3.45-2c.95-.55.94-1.43,0-2Zm-11.3-6.53a3.77,3.77,0,0,0-3.43,0l-3.44,2c-.95.54-.94,1.43,0,2l5.87,3.39a3.75,3.75,0,0,0,3.42,0l3.45-2a1,1,0,0,0,0-2Zm-11.3-6.53a3.77,3.77,0,0,0-3.43,0l-3.45,2a1,1,0,0,0,0,2l5.87,3.39a3.77,3.77,0,0,0,3.43,0l3.45-2a1,1,0,0,0,0-2Zm-11.31-6.53a3.81,3.81,0,0,0-3.42,0l-3.45,2a1,1,0,0,0,0,2l5.87,3.39a3.75,3.75,0,0,0,3.42,0l3.45-2a1.05,1.05,0,0,0,0-2ZM286.83,227a3.77,3.77,0,0,0-3.43,0L280,229a1,1,0,0,0,0,2l5.87,3.39a3.75,3.75,0,0,0,3.42,0l3.45-2a1.05,1.05,0,0,0,0-2Zm-11.3-6.53a3.77,3.77,0,0,0-3.43,0l-3.45,2a1.05,1.05,0,0,0,0,2l5.87,3.38a3.77,3.77,0,0,0,3.43,0l3.45-2a1,1,0,0,0,0-2ZM264.22,214a3.75,3.75,0,0,0-3.42,0l-3.45,2a1.05,1.05,0,0,0,0,2l5.87,3.39a3.81,3.81,0,0,0,3.42,0l3.45-2c.95-.55.94-1.43,0-2Zm-11.3-6.53a3.77,3.77,0,0,0-3.43,0l-3.45,2c-.94.54-.93,1.43,0,2l5.86,3.39a3.77,3.77,0,0,0,3.43,0l3.45-2a1,1,0,0,0,0-2Zm-11.3-6.53a3.83,3.83,0,0,0-3.43,0l-3.45,2a1,1,0,0,0,0,2l5.87,3.39a3.77,3.77,0,0,0,3.43,0l3.44-2a1.05,1.05,0,0,0,0-2Zm104.13,70.46a3.77,3.77,0,0,0-3.43,0l-3.44,2a1.05,1.05,0,0,0,0,2l5.87,3.38a3.75,3.75,0,0,0,3.42,0l3.45-2a1,1,0,0,0,0-2Zm11.33,6.51a3.83,3.83,0,0,0-3.43,0l-3.45,2a1,1,0,0,0,0,2l5.87,3.39a3.77,3.77,0,0,0,3.43,0l3.45-2a1.05,1.05,0,0,0,0-2Zm11.32,6.52a3.75,3.75,0,0,0-3.42,0l-3.45,2a1.05,1.05,0,0,0,0,2l5.87,3.39a3.81,3.81,0,0,0,3.42,0l3.45-2c1-.55.94-1.43,0-2Zm-33.95-19.56a3.77,3.77,0,0,0-3.43,0l-3.45,2a1.05,1.05,0,0,0,0,2l5.87,3.39a3.83,3.83,0,0,0,3.43,0l3.45-2a1,1,0,0,0,0-2Zm-11.31-6.53a3.75,3.75,0,0,0-3.42,0l-3.45,2a1,1,0,0,0,0,2l5.87,3.39a3.75,3.75,0,0,0,3.42,0l3.45-2c1-.54.94-1.43,0-2Zm-11.3-6.53a3.77,3.77,0,0,0-3.43,0l-3.44,2c-1,.55-.94,1.43,0,2l5.87,3.39a3.75,3.75,0,0,0,3.42,0l3.45-2a1.05,1.05,0,0,0,0-2Zm-11.3-6.52a3.77,3.77,0,0,0-3.43,0l-3.45,2a1,1,0,0,0,0,2l5.87,3.39a3.77,3.77,0,0,0,3.43,0l3.45-2a1.05,1.05,0,0,0,0-2Zm-11.31-6.53a3.75,3.75,0,0,0-3.42,0l-3.45,2a1.05,1.05,0,0,0,0,2l5.87,3.38a3.75,3.75,0,0,0,3.42,0l3.45-2a1.05,1.05,0,0,0,0-2Zm-11.3-6.53a3.77,3.77,0,0,0-3.43,0l-3.45,2a1.05,1.05,0,0,0,0,2l5.86,3.39a3.83,3.83,0,0,0,3.43,0l3.45-2a1,1,0,0,0,0-2Zm-11.3-6.53a3.77,3.77,0,0,0-3.43,0l-3.45,2a1.05,1.05,0,0,0,0,2l5.87,3.39a3.83,3.83,0,0,0,3.43,0l3.44-2c.95-.55.94-1.43,0-2Zm-11.31-6.53a3.75,3.75,0,0,0-3.42,0l-3.45,2c-.95.54-.94,1.43,0,2l5.87,3.39a3.75,3.75,0,0,0,3.42,0l3.45-2a1,1,0,0,0,0-2ZM244,212.62a3.83,3.83,0,0,0-3.43,0l-3.45,2c-.94.55-.93,1.43,0,2L243,220a3.77,3.77,0,0,0,3.43,0l3.45-2a1.05,1.05,0,0,0,0-2Zm-11.31-6.52a3.75,3.75,0,0,0-3.42,0l-3.45,2a1,1,0,0,0,0,2l5.87,3.39a3.77,3.77,0,0,0,3.43,0l3.44-2a1.05,1.05,0,0,0,0-2Zm104.18,70.42a3.75,3.75,0,0,0-3.42,0l-3.45,2a1.05,1.05,0,0,0,0,2l5.87,3.39a3.81,3.81,0,0,0,3.42,0l3.45-2a1,1,0,0,0,0-2ZM348.22,283a3.83,3.83,0,0,0-3.43,0l-3.45,2a1,1,0,0,0,0,2L358.53,297a3.77,3.77,0,0,0,3.43,0l3.45-2c.94-.54.93-1.43,0-2ZM223.86,211.24a3.77,3.77,0,0,0-3.43,0l-3.45,2a1.05,1.05,0,0,0,0,2l17.18,9.92a3.75,3.75,0,0,0,3.42,0l3.45-2a1.05,1.05,0,0,0,0-2ZM325.59,270a3.77,3.77,0,0,0-3.43,0l-3.45,2a1.05,1.05,0,0,0,0,2l5.87,3.39a3.77,3.77,0,0,0,3.43,0l3.45-2a1,1,0,0,0,0-2Zm-11.31-6.53a3.75,3.75,0,0,0-3.42,0l-3.45,2a1,1,0,0,0,0,2l5.87,3.39a3.75,3.75,0,0,0,3.42,0l3.45-2c.95-.54.94-1.43,0-2ZM303,256.93a3.81,3.81,0,0,0-3.42,0l-3.45,2c-.95.55-.94,1.43,0,2l5.87,3.39a3.75,3.75,0,0,0,3.42,0l3.45-2a1.05,1.05,0,0,0,0-2Zm-11.3-6.52a3.77,3.77,0,0,0-3.43,0l-3.45,2a1,1,0,0,0,0,2l5.87,3.39a3.77,3.77,0,0,0,3.43,0l3.45-2a1.05,1.05,0,0,0,0-2Zm-11.31-6.53a3.75,3.75,0,0,0-3.42,0l-3.45,2a1.05,1.05,0,0,0,0,2l5.87,3.38a3.75,3.75,0,0,0,3.42,0l3.45-2a1,1,0,0,0,0-2Zm-11.3-6.53a3.77,3.77,0,0,0-3.43,0l-3.44,2a1.05,1.05,0,0,0,0,2l5.87,3.39a3.81,3.81,0,0,0,3.42,0l3.45-2a1,1,0,0,0,0-2Zm-11.3-6.53a3.77,3.77,0,0,0-3.43,0l-3.45,2a1,1,0,0,0,0,2l5.87,3.39a3.77,3.77,0,0,0,3.43,0l3.45-2c.94-.54.93-1.43,0-2Zm-11.31-6.53a3.75,3.75,0,0,0-3.42,0l-3.45,2c-1,.54-.94,1.43,0,2l5.87,3.39a3.75,3.75,0,0,0,3.42,0l3.45-2a1.05,1.05,0,0,0,0-2ZM328,281.68a3.77,3.77,0,0,0-3.43,0l-3.45,2a1,1,0,0,0,0,2l5.87,3.39a3.77,3.77,0,0,0,3.43,0l3.45-2a1.05,1.05,0,0,0,0-2Zm11.32,6.51a3.75,3.75,0,0,0-3.42,0l-3.45,2a1,1,0,0,0,0,2l5.87,3.39a3.77,3.77,0,0,0,3.43,0l3.44-2c.95-.54.94-1.43,0-2Zm11.33,6.52a3.75,3.75,0,0,0-3.42,0l-3.45,2a1.05,1.05,0,0,0,0,2l5.87,3.38a3.75,3.75,0,0,0,3.42,0l3.45-2a1,1,0,0,0,0-2Zm-34-19.56a3.75,3.75,0,0,0-3.42,0l-3.45,2a1.05,1.05,0,0,0,0,2l5.87,3.38a3.77,3.77,0,0,0,3.43,0l3.44-2a1,1,0,0,0,0-2Zm-56.51-32.64a3.77,3.77,0,0,0-3.43,0l-3.45,2a1,1,0,0,0,0,2L304.43,276a3.77,3.77,0,0,0,3.43,0l3.44-2a1.05,1.05,0,0,0,0-2ZM248.9,236a3.75,3.75,0,0,0-3.42,0L242,238a1.05,1.05,0,0,0,0,2l5.87,3.38a3.75,3.75,0,0,0,3.42,0l3.45-2a1,1,0,0,0,0-2Zm-11.3-6.53a3.77,3.77,0,0,0-3.43,0l-3.44,2a1.05,1.05,0,0,0,0,2l5.86,3.39a3.83,3.83,0,0,0,3.43,0l3.45-2a1,1,0,0,0,0-2Zm-11.3-6.53a3.77,3.77,0,0,0-3.43,0l-3.45,2a1,1,0,0,0,0,2l5.87,3.39a3.77,3.77,0,0,0,3.43,0l3.45-2c.94-.54.93-1.43,0-2ZM215,216.39a3.75,3.75,0,0,0-3.42,0l-3.45,2c-1,.55-.94,1.43,0,2l5.87,3.39a3.75,3.75,0,0,0,3.42,0l3.45-2a1.05,1.05,0,0,0,0-2Z"/><path class="cls-64" d="M298.61,283.11,246.29,253a4.36,4.36,0,0,0-4.35,0l-39.18,22.32a1.32,1.32,0,0,0,0,2.29L255,307.71a4.38,4.38,0,0,0,4.35,0l39.26-22.32A1.32,1.32,0,0,0,298.61,283.11Z"/><path class="cls-65" d="M202.76,275.66l39.18-22.32a4.38,4.38,0,0,1,4.35,0l52.32,30.1a1.27,1.27,0,0,1,.57,1,1.23,1.23,0,0,0-.57-1.32L246.29,253a4.36,4.36,0,0,0-4.35,0l-39.18,22.32a1.21,1.21,0,0,0-.57,1.31A1.25,1.25,0,0,1,202.76,275.66Z"/><path class="cls-66" d="M403.7,134.22l6.73,126.89S388,271.52,370.06,272c-9.49.23-10.71-5.61-10.71-5.61l10.71-122.22L371,124.2l10.2.46Z"/><path class="cls-67" d="M366.75,279.45a14.94,14.94,0,0,1-4.43-4.18l-98.7-57.33a14.94,14.94,0,0,0,4.43,4.18"/><polygon class="cls-68" points="269.07 220.34 269.07 220.34 269.07 220.34 269.07 220.34"/><path class="cls-69" d="M303.88,76.9a4.13,4.13,0,0,0-.47-.26l-.21-.09a11.91,11.91,0,0,0-2.06-.83,1.42,1.42,0,0,0-.18-.08h-.06a12.53,12.53,0,0,0-1.33-.26c-.25,0-.47-.11-.74-.14a11.45,11.45,0,0,0-2.34,0,11.68,11.68,0,0,0-3.33.9,15.42,15.42,0,0,0-2,1.07,16.25,16.25,0,0,0-1.67,1.26,20.5,20.5,0,0,0-1.67,1.6c-.39.41-.78.86-1.16,1.34a1.09,1.09,0,0,0-.13.17,7.36,7.36,0,0,0-.4.62,11,11,0,0,0-.59,1.28c-3.6,9.29-3.08,38.13-2.49,68.5.47,26.39,1,53.63-1.84,61-.11.27-.22.52-.33.74q-.37.72-.75,1.38a22.87,22.87,0,0,1-1.45,2.24,16.71,16.71,0,0,1-1.1,1.32,10,10,0,0,1-.95.91,8.59,8.59,0,0,1-.94.71,7.73,7.73,0,0,1-1.09.59,6.47,6.47,0,0,1-1.58.46,5.65,5.65,0,0,1-2.18-.19,7.57,7.57,0,0,1-1.8-.77h0l98.7,57.33.32.18a7.06,7.06,0,0,0,1.42.58h.06a5.85,5.85,0,0,0,2.18.2,6.83,6.83,0,0,0,1.58-.47,7.22,7.22,0,0,0,1.09-.59,8.59,8.59,0,0,0,.94-.71,10,10,0,0,0,.95-.91,16.71,16.71,0,0,0,1.1-1.32,22.87,22.87,0,0,0,1.45-2.24q.38-.66.75-1.38a7.41,7.41,0,0,0,.33-.74c2.82-7.34,2.31-34.58,1.84-61-.59-30.37-1.11-59.21,2.49-68.5a10.12,10.12,0,0,1,.59-1.27,6.21,6.21,0,0,1,.4-.63,1.09,1.09,0,0,1,.13-.17c.39-.48.77-.93,1.16-1.34a20.5,20.5,0,0,1,1.67-1.6,15.32,15.32,0,0,1,1.68-1.26,14.68,14.68,0,0,1,2-1.07,11.68,11.68,0,0,1,3.33-.9,11.46,11.46,0,0,1,2.34,0c.28,0,.52.1.78.15a12.28,12.28,0,0,1,1.29.25l.25.09a13.41,13.41,0,0,1,2,.83c.23.12.49.24.68.35Z"/><polygon class="cls-70" points="362.32 275.27 263.62 217.94 265.16 216.65 363.86 273.98 362.32 275.27"/><path class="cls-71" d="M395.19,132.57a12.4,12.4,0,0,1,8.71,2.55l-1.22,1.61a10.54,10.54,0,0,0-7.44-2.23c-2.55.29-5.52,1.69-8.52,5.42-4.33,5.33-3.71,39.22-3.17,69.12.57,28.92,1.06,56.15-2.33,62.78-2.77,5.22-5.86,8.16-9.2,8.75l-.33,0c-5.37.6-9.18-5.08-9.37-5.34l1.54-1.29c0,.07,3.5,5.15,7.89,4.66,2.95-.48,5.5-3,7.86-7.62,3.18-6,2.66-34.33,2.17-61.71-.64-33.19-1.2-64.56,3.61-70.57C388.81,134.5,392.24,132.9,395.19,132.57Z"/><g class="cls-5"><g class="cls-72"><polyline class="cls-73" points="374.54 165.24 287.58 115.03 287.57 119.92 374.52 170.12 374.54 165.24"/><polyline class="cls-74" points="322.79 178.63 287.46 158.23 287.45 163.07 322.78 183.47 322.79 178.63"/><polyline class="cls-75" points="365.43 174.57 287.54 129.6 287.53 134.44 365.42 179.41 365.43 174.57"/><polyline class="cls-76" points="365.39 188.5 287.5 143.53 287.49 148.37 365.38 193.34 365.39 188.5"/><path class="cls-77" d="M363.33,215.88a1,1,0,0,0-.84-.11c-1.91.64-3.82,1.23-5.7,2-.87.37-1.51.41-1.59,1.69a2.38,2.38,0,0,0,.55,1.51l.32.36c-.8.69-1.64,1.35-2.44,2s.09,2.44.91,2.92a.6.6,0,0,0,.76,0c1-.86,2.07-1.77,3.11-2.64,2,1.86,4,3.94,3,5.79a2.24,2.24,0,0,0,1,2.6,1,1,0,0,0,.86.12,4,4,0,0,1,3.7.17,11.58,11.58,0,0,1,2.3,1.88c.64.59,1.08,1.39,1.79,2a1.73,1.73,0,0,0,.34.25c1.22.71,1.65-1.28.3-2.53-1.77-1.57-2.42-3.78-4.25-4.84a4,4,0,0,0-.55-.26,5.2,5.2,0,0,0-3.14-.22,11.75,11.75,0,0,0-2.34-4.77,13.14,13.14,0,0,0-1.47-1.58c1.4-1.21,2.76-2.39,4.15-3.55.74-.63.07-2.27-.82-2.78"/></g></g><path class="cls-78" d="M298.41,183.58l.08,0c.25-.08.51-.15.77-.21a6.66,6.66,0,0,1,.78-.11,5.49,5.49,0,0,1,.81,0,8.28,8.28,0,0,1,.86.06c.31,0,.61.1.92.17a8.44,8.44,0,0,1,1,.31c.38.14.77.3,1.17.49a14.12,14.12,0,0,1,1.52.88,20,20,0,0,1,1.76,1.34,23.89,23.89,0,0,1,3.94,4.49c.42.62.82,1.26,1.2,1.91s.59,1.05.86,1.59.47.95.68,1.43.39.9.58,1.36.33.87.48,1.31.3.86.43,1.3.26.86.37,1.29.22.88.32,1.31.19.9.27,1.35.15.93.21,1.4.12,1,.16,1.5.07,1.11.08,1.66,0,1.34,0,2a20.05,20.05,0,0,1-.35,2.75c-.86,4.37-3,7.15-5.77,8.12l-3.94,1.37c2.77-1,4.91-3.74,5.77-8.11a20.46,20.46,0,0,0,.35-2.75c0-.66.05-1.32,0-2s0-1.11-.08-1.67-.09-1-.16-1.5-.13-.93-.22-1.4-.16-.9-.26-1.34-.21-.88-.32-1.31-.24-.87-.37-1.3-.28-.87-.43-1.3-.32-.87-.49-1.31-.37-.91-.57-1.35-.44-1-.68-1.43-.56-1.08-.86-1.59-.78-1.3-1.2-1.91a23.62,23.62,0,0,0-4-4.49,15.7,15.7,0,0,0-1.75-1.34,13.32,13.32,0,0,0-1.53-.88,9.79,9.79,0,0,0-1.17-.5,9.66,9.66,0,0,0-1-.3,7.78,7.78,0,0,0-.92-.17,8.31,8.31,0,0,0-.86-.07l-.81,0a6.35,6.35,0,0,0-.78.12,6.69,6.69,0,0,0-.77.2l-.08,0Z"/><path class="cls-79" d="M304.15,187.83c-6.8-5.91-13.72-3.56-15.45,5.24s2.39,20.73,9.19,26.63,13.73,3.57,15.46-5.23S311,193.74,304.15,187.83Z"/><path class="cls-80" d="M315.58,213.71a22.21,22.21,0,0,0,.35-2.75c0-.66.05-1.32,0-2s0-1.11-.08-1.67-.1-1-.16-1.5-.14-.93-.22-1.4-.17-.9-.27-1.34-.2-.88-.32-1.31-.23-.87-.37-1.3-.27-.87-.42-1.3-.32-.87-.49-1.31-.37-.91-.57-1.35-.45-1-.68-1.43-.56-1.08-.86-1.59c-.39-.66-.79-1.3-1.21-1.91a23.23,23.23,0,0,0-3.94-4.49,15.78,15.78,0,0,0-1.76-1.34,14.12,14.12,0,0,0-1.52-.88,9.79,9.79,0,0,0-1.17-.5,10.43,10.43,0,0,0-1-.3,7.78,7.78,0,0,0-.92-.17,8.54,8.54,0,0,0-.86-.07c-.28,0-.55,0-.82,0a7,7,0,0,0-.78.12,6.53,6.53,0,0,0-.76.2l-.09,0-1.95.68-.19,0-.08,0,3.94-1.37.08,0c.25-.08.51-.15.77-.21a6.66,6.66,0,0,1,.78-.11,5.49,5.49,0,0,1,.81,0,8.28,8.28,0,0,1,.86.06c.31,0,.61.1.92.17a8.44,8.44,0,0,1,1,.31c.38.14.77.3,1.17.49a14.12,14.12,0,0,1,1.52.88,20,20,0,0,1,1.76,1.34,23.89,23.89,0,0,1,3.94,4.49c.42.62.82,1.26,1.2,1.91s.59,1.05.86,1.59.47.95.68,1.43.39.9.58,1.36.33.87.48,1.31.3.86.43,1.3.26.86.37,1.29.22.88.32,1.31.19.9.27,1.35.15.93.21,1.4.12,1,.16,1.5.07,1.11.08,1.66,0,1.34,0,2a20.05,20.05,0,0,1-.35,2.75c-.86,4.37-3,7.15-5.77,8.12l-1.38.48C312.75,220.63,314.75,217.9,315.58,213.71Z"/><path class="cls-81" d="M288.7,193.07c-1.73,8.8,2.39,20.73,9.19,26.63s13.73,3.57,15.46-5.23-2.39-20.73-9.2-26.64S290.43,184.27,288.7,193.07Zm1.6,1.39c1.5-7.66,7.53-9.7,13.45-4.56s9.5,15.52,8,23.18-7.53,9.69-13.45,4.55S288.8,202.12,290.3,194.46Z"/><path class="cls-82" d="M299.86,191.51h0l0,.06c.38.84.76,1.67,1.13,2.51l1.56,3.44q.85,1.86,1.68,3.72c.52,1.14,1.05,2.3,1.57,3.46.09.19.18.4.28.6h0l0,0-.61-.69-.75-.84-.88-1-.75-.83-.9-1-.75-.84c-.18-.21-.36-.39-.54-.61l-.05-.07v0h-1.29c-.15,0-.32,0-.48,0h-.83a2.55,2.55,0,0,1-.48,0h-1.19a2.81,2.81,0,0,1-.29,0l0-.09c1.19-2.62,2.39-5.22,3.58-7.83v0h0m1,9.23h0v0l-.05,0h-.29q-.44,0-.87,0h-2.82a4.17,4.17,0,0,0-.5,0l0,0v0h0v0l1.28,1.62,4,5.08.06.07h0l.19,0,4.2-.88h0v0q-.39-.45-.81-.9c-.34-.4-.69-.8-1-1.18l-.81-.91-1.17-1.3-.8-.91-.58-.63-.05-.07m-4.5,1.64,0,.08,5.41,10.88.57,1.14v0h0v0c.39-.63.77-1.26,1.16-1.91s.78-1.28,1.17-1.93.76-1.26,1.14-1.88c.09-.17.2-.33.29-.49l0-.05h-.05l-1.87.4c-.73.14-1.45.31-2.17.45l-.37.08-1.09-1.38-4.24-5.34,0-.05h0"/><path class="cls-83" d="M298.84,192.16h0v.06c.39.84.76,1.67,1.14,2.51l1.56,3.44,1.68,3.72,1.56,3.46c.09.19.18.4.28.6h0l-.05,0c-.19-.23-.4-.46-.6-.69l-.76-.84-.88-1-.75-.83-.9-1-.75-.84-.54-.61,0-.07v0h-1.28c-.16,0-.33,0-.49,0h-2.5a2.71,2.71,0,0,1-.29,0l0-.1,3.57-7.82v0h0m1,9.23h0v0l-.05,0h-1.17l-.74,0h-2.58l0,0v0h0v0c.43.53.85,1.07,1.28,1.62l4.05,5.08.05.07h0l.18,0,4.2-.88h.05v0l-.81-.9c-.35-.4-.7-.8-1.06-1.18l-.81-.91-1.16-1.3-.81-.91-.57-.63-.06-.07M295.36,203l0,.08q2.72,5.43,5.41,10.88l.57,1.14v0h0l0,0c.38-.63.77-1.26,1.15-1.91s.78-1.28,1.17-1.93.76-1.26,1.14-1.88l.3-.49,0,0h-.06l-1.87.4c-.73.14-1.44.31-2.17.45l-.36.08-1.1-1.38-4.24-5.34,0-.05h0"/><path class="cls-84" d="M337.46,40l.12,0a9.05,9.05,0,0,1,1.05-.3,9.36,9.36,0,0,1,1.08-.18,10.37,10.37,0,0,1,1.12-.06,9.61,9.61,0,0,1,1.19.07,11.76,11.76,0,0,1,1.28.21,13.71,13.71,0,0,1,1.41.4,14.65,14.65,0,0,1,1.63.66,17.4,17.4,0,0,1,2.13,1.18,22.72,22.72,0,0,1,2.46,1.81,32.48,32.48,0,0,1,5.56,6.12q.9,1.26,1.71,2.61c.43.71.84,1.44,1.23,2.18s.67,1.3,1,2,.56,1.23.82,1.86.49,1.2.71,1.8.43,1.19.62,1.79.37,1.18.54,1.78.33,1.2.47,1.81.29,1.23.41,1.85.23,1.29.33,1.94.19,1.38.25,2.06.13,1.55.16,2.31c0,.93,0,1.85,0,2.75a29.56,29.56,0,0,1-.42,3.82c-1.08,6.07-4,10-7.79,11.37l-5.42,2c3.81-1.4,6.7-5.3,7.79-11.37a27.76,27.76,0,0,0,.41-3.81c.05-.91.05-1.83,0-2.75,0-.77-.08-1.54-.16-2.31s-.15-1.38-.25-2.07-.21-1.29-.33-1.93-.26-1.24-.41-1.86-.3-1.2-.47-1.8-.35-1.2-.54-1.79-.4-1.19-.62-1.78-.46-1.21-.71-1.81-.54-1.24-.82-1.86-.64-1.32-1-2-.8-1.47-1.23-2.18c-.54-.9-1.11-1.78-1.71-2.61a32.48,32.48,0,0,0-5.56-6.12,22.85,22.85,0,0,0-2.46-1.82,20.75,20.75,0,0,0-2.13-1.18,14.65,14.65,0,0,0-1.63-.66c-.48-.16-1-.29-1.41-.4s-.86-.16-1.28-.21-.8-.07-1.19-.07a10.23,10.23,0,0,0-1.12.06,9.36,9.36,0,0,0-1.08.18,9.82,9.82,0,0,0-1.06.3L332,42Z"/><path class="cls-85" d="M345.51,45.72c-9.56-8-19.08-4.6-21.27,7.62S328,82,337.6,90s19.08,4.6,21.27-7.62S355.07,53.73,345.51,45.72Z"/><path class="cls-86" d="M361.93,81.26a29.56,29.56,0,0,0,.42-3.82c0-.9,0-1.82,0-2.75,0-.76-.08-1.53-.16-2.31s-.15-1.37-.25-2.06-.21-1.29-.33-1.94-.26-1.24-.41-1.85-.3-1.21-.47-1.81-.35-1.19-.54-1.78-.4-1.2-.62-1.79-.46-1.2-.71-1.8-.53-1.25-.82-1.86-.64-1.32-1-2-.8-1.47-1.23-2.18Q355,52,354.13,50.73a32.48,32.48,0,0,0-5.56-6.12,22.72,22.72,0,0,0-2.46-1.81A18.17,18.17,0,0,0,344,41.62a14.65,14.65,0,0,0-1.63-.66,13.71,13.71,0,0,0-1.41-.4,9.75,9.75,0,0,0-1.28-.21,9.61,9.61,0,0,0-1.19-.07,10.37,10.37,0,0,0-1.12.06,9.36,9.36,0,0,0-1.08.18,9.05,9.05,0,0,0-1,.3l-.12,0-2.69,1-.26.07L332,42l5.42-2,.12,0a9.05,9.05,0,0,1,1.05-.3,9.36,9.36,0,0,1,1.08-.18,10.37,10.37,0,0,1,1.12-.06,9.61,9.61,0,0,1,1.19.07,11.76,11.76,0,0,1,1.28.21,13.71,13.71,0,0,1,1.41.4,14.65,14.65,0,0,1,1.63.66,17.4,17.4,0,0,1,2.13,1.18,22.72,22.72,0,0,1,2.46,1.81,32.48,32.48,0,0,1,5.56,6.12q.9,1.26,1.71,2.61c.43.71.84,1.44,1.23,2.18s.67,1.3,1,2,.56,1.23.82,1.86.49,1.2.71,1.8.43,1.19.62,1.79.37,1.18.54,1.78.33,1.2.47,1.81.29,1.23.41,1.85.23,1.29.33,1.94.19,1.38.25,2.06.13,1.55.16,2.31c0,.93,0,1.85,0,2.75a29.56,29.56,0,0,1-.42,3.82c-1.08,6.07-4,10-7.79,11.36l-1.91.71C358.18,90.9,360.89,87.08,361.93,81.26Z"/><path class="cls-87" d="M324.24,53.34C322.06,65.56,328,82,337.6,90s19.08,4.6,21.27-7.62-3.8-28.63-13.36-36.64S326.43,41.12,324.24,53.34Zm2.25,1.89c1.9-10.64,10.19-13.61,18.51-6.64s13.52,21.25,11.62,31.89-10.19,13.59-18.51,6.62S324.59,65.85,326.49,55.23Z"/><path class="cls-88" d="M359.85,112.76,327.31,94a4.24,4.24,0,0,0-3.83,0c-1,.6-1,1.59,0,2.19L356.07,115a4.18,4.18,0,0,0,3.79,0,1.18,1.18,0,0,0,0-2.22"/><g class="cls-89"><path class="cls-90" d="M331.22,98.42l.12,0a9.05,9.05,0,0,1,1.05-.3,9.36,9.36,0,0,1,1.08-.18,10.55,10.55,0,0,1,1.13-.06c.39,0,.78,0,1.18.07s.85.12,1.28.21.94.24,1.41.4a13.91,13.91,0,0,1,1.63.66,17.4,17.4,0,0,1,2.13,1.18,22.85,22.85,0,0,1,2.46,1.82,33.12,33.12,0,0,1,5.57,6.11c.59.84,1.16,1.72,1.71,2.62.42.71.83,1.43,1.23,2.18s.66,1.3,1,2,.56,1.23.83,1.86.48,1.2.7,1.81.43,1.18.62,1.78.38,1.19.55,1.78.32,1.21.47,1.81.28,1.24.4,1.85.24,1.29.33,1.94.19,1.38.26,2.07.12,1.54.15,2.3c0,.93,0,1.85,0,2.76a29.41,29.41,0,0,1-.42,3.81c-1.08,6.07-4,10-7.79,11.37l-5.42,2c3.81-1.4,6.71-5.3,7.79-11.37a29.21,29.21,0,0,0,.42-3.81c0-.9,0-1.82,0-2.75,0-.76-.08-1.53-.16-2.31s-.15-1.38-.25-2.07-.21-1.29-.33-1.93-.26-1.24-.4-1.85-.31-1.21-.48-1.81-.35-1.19-.54-1.79-.4-1.19-.62-1.78-.46-1.21-.71-1.8-.53-1.25-.82-1.87-.64-1.32-1-2-.8-1.47-1.23-2.18q-.81-1.35-1.71-2.61a32.48,32.48,0,0,0-5.56-6.12,22.72,22.72,0,0,0-2.46-1.81,19,19,0,0,0-2.13-1.19c-.55-.25-1.09-.47-1.63-.66a12.94,12.94,0,0,0-1.41-.39,10.4,10.4,0,0,0-2.47-.28,7,7,0,0,0-1.12.06,7.61,7.61,0,0,0-1.08.18,9.05,9.05,0,0,0-1.05.3l-.12,0Z"/><path class="cls-91" d="M339.27,104.16c-9.56-8-19.08-4.6-21.26,7.62s3.79,28.63,13.35,36.64,19.09,4.6,21.27-7.62S348.83,112.18,339.27,104.16Z"/><path class="cls-92" d="M355.69,139.7a29.41,29.41,0,0,0,.42-3.81c0-.91,0-1.83,0-2.76,0-.76-.08-1.53-.15-2.3s-.15-1.38-.26-2.07-.2-1.29-.33-1.94-.26-1.23-.4-1.85-.3-1.21-.47-1.81-.35-1.19-.55-1.78-.4-1.19-.62-1.78-.46-1.21-.7-1.81-.54-1.25-.83-1.86-.64-1.32-1-2-.81-1.47-1.23-2.18c-.55-.9-1.12-1.78-1.72-2.62a32.72,32.72,0,0,0-5.56-6.11,22.85,22.85,0,0,0-2.46-1.82,17.4,17.4,0,0,0-2.13-1.18,13.91,13.91,0,0,0-1.63-.66c-.47-.16-.94-.29-1.41-.4s-.86-.16-1.28-.21a9.45,9.45,0,0,0-1.18-.07,10.55,10.55,0,0,0-1.13.06A9.36,9.36,0,0,0,330,99a9.05,9.05,0,0,0-1,.3l-.12,0-2.69,1-.25.08-.12,0,5.42-2,.12,0a9.05,9.05,0,0,1,1.05-.3,9.36,9.36,0,0,1,1.08-.18,10.55,10.55,0,0,1,1.13-.06c.39,0,.78,0,1.18.07s.85.12,1.28.21.94.24,1.41.4a13.91,13.91,0,0,1,1.63.66,17.4,17.4,0,0,1,2.13,1.18,22.85,22.85,0,0,1,2.46,1.82,33.12,33.12,0,0,1,5.57,6.11c.59.84,1.16,1.72,1.71,2.62.42.71.83,1.43,1.23,2.18s.66,1.3,1,2,.56,1.23.83,1.86.48,1.2.7,1.81.43,1.18.62,1.78.38,1.19.55,1.78.32,1.21.47,1.81.28,1.24.4,1.85.24,1.29.33,1.94.19,1.38.26,2.07.12,1.54.15,2.3c0,.93,0,1.85,0,2.76a29.41,29.41,0,0,1-.42,3.81c-1.08,6.07-4,10-7.79,11.37l-1.9.7C351.94,149.34,354.65,145.52,355.69,139.7Z"/><path class="cls-93" d="M318,111.78c-2.19,12.22,3.79,28.63,13.35,36.64s19.09,4.6,21.27-7.62-3.8-28.62-13.36-36.64S320.19,99.56,318,111.78Zm2.25,1.89c1.9-10.63,10.18-13.6,18.5-6.63s13.52,21.24,11.62,31.88-10.18,13.59-18.5,6.62S318.36,124.3,320.26,113.67Z"/></g><polygon class="cls-94" points="103.3 211.75 41.1 175.83 91.47 147.12 157.14 181.04 103.3 211.75"/><g class="cls-5"><polygon class="cls-20" points="142.96 84.56 80.54 120.65 142.96 156.75 205.15 120.66 142.96 84.56"/><polygon class="cls-95" points="142.96 156.75 142.96 189.27 205.15 153.18 205.15 120.66 142.96 156.75"/><polygon class="cls-96" points="80.54 120.65 80.54 153.17 142.96 189.27 142.96 156.75 80.54 120.65"/></g><polygon class="cls-97" points="142.96 155.45 81.66 120.01 80.54 120.65 142.96 156.75 205.15 120.66 204.04 120.01 142.96 155.45"/><path class="cls-24" d="M197.44,134c1-.58,1.81-.11,1.82,1a4,4,0,0,1-1.81,3.13c-1,.57-1.82.11-1.82-1a4,4,0,0,1,1.81-3.13"/><g class="cls-25"><path class="cls-24" d="M190.69,137.89a4,4,0,0,0-1.81,3.13c0,1.15.82,1.61,1.82,1a4,4,0,0,0,1.81-3.12c0-1.15-.82-1.62-1.82-1"/></g><g class="cls-26"><path class="cls-24" d="M183.94,141.8a4,4,0,0,0-1.81,3.13c0,1.15.82,1.61,1.82,1a4,4,0,0,0,1.81-3.13c0-1.15-.82-1.61-1.82-1"/></g><g class="cls-27"><path class="cls-24" d="M197.44,143.7c1-.58,1.81-.11,1.82,1a4,4,0,0,1-1.81,3.13c-1,.57-1.82.11-1.82-1a4,4,0,0,1,1.81-3.13"/></g><path class="cls-24" d="M190.69,147.61a4,4,0,0,0-1.81,3.13c0,1.15.82,1.61,1.82,1a4,4,0,0,0,1.81-3.12c0-1.15-.82-1.62-1.82-1"/><g class="cls-26"><path class="cls-24" d="M183.94,151.52a4,4,0,0,0-1.81,3.13c0,1.15.82,1.61,1.82,1a4,4,0,0,0,1.81-3.13c0-1.15-.82-1.61-1.82-1"/></g><g class="cls-5"><polygon class="cls-98" points="142.96 41.33 80.54 77.42 142.96 113.52 205.15 77.42 142.96 41.33"/><polygon class="cls-99" points="142.96 113.52 142.96 146.03 205.15 109.94 205.15 77.42 142.96 113.52"/><polygon class="cls-100" points="80.54 77.42 80.54 109.94 142.96 146.03 142.96 113.52 80.54 77.42"/></g><polygon class="cls-101" points="142.96 112.22 81.66 76.78 80.54 77.42 142.96 113.52 205.15 77.42 204.04 76.78 142.96 112.22"/><polygon class="cls-20" points="142.9 60.9 114.31 77.42 142.9 93.95 171.38 77.42 142.9 60.9"/><g class="cls-32"><polygon class="cls-102" points="142.9 60.9 142.9 64.96 167.88 79.45 171.38 77.42 142.9 60.9"/><polygon class="cls-103" points="114.31 77.42 117.82 79.45 142.9 64.96 142.9 60.9 114.31 77.42"/></g><polygon class="cls-24" points="142.86 73.86 136.69 77.42 142.86 80.99 149 77.42 142.86 73.86"/><g class="cls-27"><path class="cls-24" d="M197.44,90.75c1-.58,1.81-.11,1.82,1a4,4,0,0,1-1.81,3.12c-1,.58-1.82.12-1.82-1a4,4,0,0,1,1.81-3.13"/></g><path class="cls-24" d="M190.69,94.66a4,4,0,0,0-1.81,3.13c0,1.15.82,1.61,1.82,1a4,4,0,0,0,1.81-3.12c0-1.15-.82-1.62-1.82-1"/><g class="cls-26"><path class="cls-24" d="M183.94,98.57a4,4,0,0,0-1.81,3.13c0,1.15.82,1.61,1.82,1a4,4,0,0,0,1.81-3.13c0-1.15-.82-1.61-1.82-1"/></g><g class="cls-35"><path class="cls-24" d="M197.44,100.47c1-.58,1.81-.11,1.82,1a4,4,0,0,1-1.81,3.12c-1,.58-1.82.12-1.82-1a4,4,0,0,1,1.81-3.13"/></g><path class="cls-36" d="M190.69,104.38a4,4,0,0,0-1.81,3.13c0,1.15.82,1.61,1.82,1a4,4,0,0,0,1.81-3.12c0-1.15-.82-1.62-1.82-1"/><path class="cls-24" d="M183.94,108.29a4,4,0,0,0-1.81,3.13c0,1.15.82,1.61,1.82,1a4,4,0,0,0,1.81-3.13c0-1.15-.82-1.61-1.82-1"/><path class="cls-104" d="M1.25,199a1.24,1.24,0,0,1-1.08-.62,1.25,1.25,0,0,1,.45-1.71l6.49-3.75A1.25,1.25,0,1,1,8.36,195l-6.49,3.75A1.16,1.16,0,0,1,1.25,199Z"/><path class="cls-105" d="M16.39,190.2a1.25,1.25,0,0,1-.63-2.33l6.49-3.75a1.24,1.24,0,0,1,1.7.46,1.25,1.25,0,0,1-.45,1.71L17,190A1.27,1.27,0,0,1,16.39,190.2Z"/><path class="cls-106" d="M31.52,181.45a1.25,1.25,0,0,1-.62-2.33l6.48-3.75a1.25,1.25,0,0,1,1.25,2.17l-6.49,3.75A1.25,1.25,0,0,1,31.52,181.45Z"/><path class="cls-107" d="M44.64,173.71a1.25,1.25,0,0,1-.63-2.33l6.49-3.75a1.25,1.25,0,0,1,1.24,2.16l-6.48,3.76A1.27,1.27,0,0,1,44.64,173.71Z"/><path class="cls-108" d="M59.72,165.15a1.24,1.24,0,0,1-1.08-.62,1.25,1.25,0,0,1,.45-1.71l6.49-3.75a1.26,1.26,0,0,1,1.71.46,1.24,1.24,0,0,1-.46,1.7L60.34,165A1.16,1.16,0,0,1,59.72,165.15Z"/><path class="cls-109" d="M75,156.43a1.25,1.25,0,0,1-.62-2.33l6.49-3.75a1.25,1.25,0,0,1,1.24,2.16l-6.48,3.75A1.19,1.19,0,0,1,75,156.43Z"/><path class="cls-110" d="M90.27,147.55a1.24,1.24,0,0,1-1.08-.62,1.25,1.25,0,0,1,.45-1.71l6.49-3.75a1.25,1.25,0,0,1,1.25,2.16l-6.49,3.75A1.16,1.16,0,0,1,90.27,147.55Z"/><path class="cls-111" d="M103.34,139.86a1.25,1.25,0,0,1-.63-2.33l6.49-3.75a1.25,1.25,0,1,1,1.25,2.16L104,139.69A1.26,1.26,0,0,1,103.34,139.86Z"/><path class="cls-112" d="M147.2,351a1.24,1.24,0,0,1-1.08-.62,1.25,1.25,0,0,1,.45-1.71l6.49-3.75a1.26,1.26,0,0,1,1.71.46,1.24,1.24,0,0,1-.46,1.7l-6.49,3.75A1.16,1.16,0,0,1,147.2,351Z"/><path class="cls-113" d="M162.48,342.27a1.24,1.24,0,0,1-1.08-.62,1.26,1.26,0,0,1,.46-1.71l6.49-3.75a1.25,1.25,0,1,1,1.24,2.16l-6.48,3.75A1.19,1.19,0,0,1,162.48,342.27Z"/><path class="cls-114" d="M177.75,333.39a1.24,1.24,0,0,1-1.08-.62,1.25,1.25,0,0,1,.45-1.71l6.49-3.75a1.25,1.25,0,0,1,1.25,2.16l-6.49,3.75A1.16,1.16,0,0,1,177.75,333.39Z"/><path class="cls-115" d="M190.82,325.7a1.25,1.25,0,0,1-.63-2.33l6.49-3.75a1.26,1.26,0,0,1,1.71.46,1.25,1.25,0,0,1-.46,1.7l-6.49,3.75A1.26,1.26,0,0,1,190.82,325.7Z"/><path class="cls-116" d="M86.06,248.61a1.15,1.15,0,0,1-.56-.15l-5.75-3.33a1.13,1.13,0,0,1-.4-1.52,1.11,1.11,0,0,1,1.52-.41l5.75,3.34a1.11,1.11,0,0,1-.56,2.07Zm-13.41-7.78a1.12,1.12,0,0,1-.56-.15l-5.75-3.34a1.11,1.11,0,1,1,1.12-1.92l5.75,3.33a1.13,1.13,0,0,1,.4,1.52A1.11,1.11,0,0,1,72.65,240.83ZM59.23,233a1.15,1.15,0,0,1-.56-.15l-5.75-3.33A1.12,1.12,0,0,1,54,227.63L59.79,231a1.11,1.11,0,0,1,.4,1.52A1.12,1.12,0,0,1,59.23,233Zm-13.42-7.78a1.06,1.06,0,0,1-.56-.16l-5.74-3.33a1.11,1.11,0,1,1,1.12-1.92l5.74,3.33a1.12,1.12,0,0,1-.56,2.08ZM32.4,217.47a1.15,1.15,0,0,1-.56-.15L26.09,214a1.11,1.11,0,1,1,1.12-1.92L33,215.4a1.1,1.1,0,0,1,.4,1.51A1.11,1.11,0,0,1,32.4,217.47ZM19,209.68a1.15,1.15,0,0,1-.56-.15l-5.75-3.33a1.13,1.13,0,0,1-.4-1.52,1.11,1.11,0,0,1,1.52-.41l5.75,3.34a1.11,1.11,0,0,1-.56,2.07Z"/><polygon class="cls-117" points="98.11 283.55 50.08 310.93 104.27 344.65 157.56 314.25 98.11 283.55"/><path class="cls-118" d="M164,257.13a3.15,3.15,0,0,1,0,.43c0,.11-.05.23-.08.35s-.07.27-.12.4-.09.22-.14.33a3.36,3.36,0,0,1-.2.43,5.84,5.84,0,0,1-.35.57l-.06.1c-.14.18-.29.37-.45.55l-.09.11c-.18.19-.37.38-.57.56s-.28.23-.42.35l-.38.3-.49.32-.52.34c-.29.17-.6.33-.92.48l-.25.12c-.28.13-.57.25-.87.37l-.11,0c-.32.13-.65.24-1,.34l-.7.2-.54.14-.75.17-.51.1c-.51.09-1,.16-1.55.21l-.48.05-.92.06h-1.34l-.62,0-.69,0-.63-.05-.68-.08-.61-.08-.72-.13-.56-.11c-.29-.06-.57-.14-.85-.21l-.54-.14-.29-.09-.82-.29-.24-.08-.72-.31-.35-.15c-.35-.17-.68-.34-1-.52L95.7,236.2c-2.68-1.55-4-3.58-4-5.61v52c0,2,1.17,4.06,3.86,5.61l45.14,26.07,1,.52.36.15c.2.09.4.19.61.27l.11,0,.24.08.82.29.29.09.19.06.35.08.84.21.23.05c.11,0,.23,0,.34.06l.72.13.29.05.32,0,.68.08.32,0h.31l.69,0,.34,0h1.61l.92-.06.37,0,.12,0c.52,0,1-.12,1.54-.21h.08l.44-.09.75-.17.53-.14.71-.2.15,0,.82-.29.12-.05c.3-.12.59-.24.87-.37l.25-.12c.31-.15.62-.31.92-.48l.16-.1.35-.24c.17-.1.34-.21.49-.32s.26-.2.38-.3.29-.23.42-.35l.09-.07.49-.49.09-.11a3.88,3.88,0,0,0,.26-.31c.07-.08.12-.16.18-.24l.07-.1a4.66,4.66,0,0,0,.3-.47l0-.1c.07-.14.13-.28.2-.43s.08-.16.11-.24l0-.09c0-.13.08-.27.11-.4s.06-.19.08-.28a.17.17,0,0,0,0-.07,3.15,3.15,0,0,0,0-.43,2.66,2.66,0,0,0,0-.28v-.12l.17-52C164.05,256.86,164,257,164,257.13Z"/><path class="cls-119" d="M160,251.12l-45.15-26.07c-5.33-3.08-13.95-3.08-19.24,0s-5.27,8.07.06,11.15l45.15,26.07c5.33,3.07,13.94,3.07,19.24,0S165.36,254.2,160,251.12Z"/><path class="cls-120" d="M104.31,215.47c0-10.56,5.14-15.08,8.19-16.83s9.58-3.92,18.81,1.41c12.52,7.23,22.3,24.18,22.26,38.58l0,14.68a4.59,4.59,0,0,1-4.6,4.59h0a4.6,4.6,0,0,1-4.6-4.61l.05-14.69c0-11-8.06-25-17.67-30.58-3.82-2.2-7.32-2.71-9.61-1.4s-3.56,4.54-3.57,8.88l0,14.69a4.6,4.6,0,0,1-4.6,4.59h0a4.6,4.6,0,0,1-4.59-4.62Z"/><path class="cls-121" d="M124,206.54c-3.82-2.21-7.33-2.72-9.61-1.4s-3.57,4.54-3.58,8.88l0,20.11c0,.09,0,.17,0,.25a4.59,4.59,0,0,0,2.73-4.19l0-14.69c0-4.34,1.31-7.58,3.57-8.88,1.92-1.1,4.7-.91,7.81.48C124.59,206.9,124.29,206.72,124,206.54Z"/><path class="cls-122" d="M131.31,200.05c-.72-.42-1.42-.78-2.11-1.11,12.23,7.43,21.69,24,21.65,38.2l0,20.36a4.59,4.59,0,0,0,2.72-4.19l0-14.68C153.61,224.23,143.83,207.28,131.31,200.05Z"/><path class="cls-123" d="M141.79,216.56a1.23,1.23,0,0,1-1-.56c-4.07-6.34-7.26-9.77-11.4-12.23-3.25-1.93-9.49-4.7-14.82-1.61a1.23,1.23,0,1,1-1.23-2.12c6.41-3.72,13.59-.58,17.3,1.62,4.5,2.67,7.93,6.32,12.21,13a1.23,1.23,0,0,1-.37,1.7A1.21,1.21,0,0,1,141.79,216.56Z"/><path class="cls-20" d="M112.39,275.5c0-3.61,2.57-5.07,5.72-3.26a12.52,12.52,0,0,1,5.67,9.84c0,2.79-1.53,4.29-3.67,4l0,8.1c0,1.3-.92,1.82-2,1.17a4.47,4.47,0,0,1-2-3.52l0-8.11A12.58,12.58,0,0,1,112.39,275.5Z"/><path class="cls-124" d="M205.56,317.92a1.15,1.15,0,0,1-.56-.15l-5.75-3.34a1.11,1.11,0,0,1,1.12-1.92l5.75,3.33a1.12,1.12,0,0,1-.56,2.08Zm-13.42-7.79a1.15,1.15,0,0,1-.56-.15l-5.74-3.34a1.11,1.11,0,1,1,1.12-1.92l5.74,3.34a1.11,1.11,0,0,1-.56,2.07Zm-13.41-7.79a1,1,0,0,1-.56-.15l-5.75-3.33a1.12,1.12,0,0,1,1.12-1.93l5.75,3.34a1.11,1.11,0,0,1-.56,2.07Zm-13.42-7.78a1.15,1.15,0,0,1-.56-.15L159,291.07a1.11,1.11,0,0,1,1.12-1.92l5.75,3.33a1.12,1.12,0,0,1-.56,2.08Z"/><path class="cls-125" d="M295.78,415.51c0,.11,0,.22,0,.33a24,24,0,0,1-.24,2.93,26.57,26.57,0,0,1-.58,2.9,26.21,26.21,0,0,1-.93,2.89,30.24,30.24,0,0,1-1.31,2.93,32.21,32.21,0,0,1-1.76,3,35.33,35.33,0,0,1-2.34,3.17,43.26,43.26,0,0,1-3.23,3.48,48.49,48.49,0,0,1-5,4.23,63,63,0,0,1-6.92,4.46A87.74,87.74,0,0,1,252.73,454c-2.69.7-5.43,1.31-8.22,1.81q-3.3.6-6.66,1-2.92.36-5.88.59c-1.82.13-3.65.23-5.48.29s-3.48.07-5.22.06-3.39-.07-5.08-.15-3.35-.19-5-.34-3.34-.32-5-.54-3.38-.47-5-.75-3.48-.64-5.19-1-3.66-.84-5.45-1.33q-3-.83-6-1.82c-2.37-.81-4.68-1.69-6.92-2.66a78.77,78.77,0,0,1-9.21-4.7c-14.25-8.53-21.29-19.55-21.17-30.49l.16-15.56c-.12,10.94,6.93,22,21.17,30.49a80.35,80.35,0,0,0,9.21,4.7q3.36,1.44,6.92,2.66c1.95.66,3.94,1.26,6,1.82,1.79.48,3.61.93,5.45,1.33s3.44.71,5.19,1,3.36.54,5.05.76,3.33.39,5,.54,3.34.26,5,.34,3.38.13,5.08.15,3.48,0,5.22-.06,3.66-.16,5.48-.3q3-.22,5.88-.58,3.36-.4,6.66-1,4.19-.76,8.22-1.81a87.74,87.74,0,0,0,20.72-8.16,64.08,64.08,0,0,0,6.93-4.46,52.1,52.1,0,0,0,5-4.23,45,45,0,0,0,3.22-3.48,37.53,37.53,0,0,0,2.35-3.17,33.17,33.17,0,0,0,1.75-3,27,27,0,0,0,1.31-2.92,26.21,26.21,0,0,0,.93-2.89,26.57,26.57,0,0,0,.58-2.9,24,24,0,0,0,.24-2.93c0-.11,0-.23,0-.34Z"/><path class="cls-126" d="M273.61,430.28c29.32-16.41,29.83-43.65,1.14-60.84s-75.72-17.8-105-1.39-29.84,43.66-1.16,60.84S244.29,446.7,273.61,430.28Z"/><path class="cls-127" d="M168.41,437.66a77.18,77.18,0,0,0,9.21,4.69q3.36,1.45,6.92,2.66c1.94.66,3.93,1.27,6,1.82q2.7.74,5.46,1.34c1.71.38,3.44.71,5.18,1s3.36.54,5.06.76,3.32.39,5,.54,3.34.26,5,.34,3.39.13,5.08.14,3.49,0,5.23-.06,3.65-.15,5.47-.29q3-.23,5.88-.58c2.24-.28,4.47-.61,6.67-1,2.78-.51,5.53-1.11,8.21-1.81a88.25,88.25,0,0,0,20.73-8.16,63,63,0,0,0,6.92-4.46,50.76,50.76,0,0,0,5-4.24,41.38,41.38,0,0,0,3.22-3.47A36.11,36.11,0,0,0,291,423.7a31.84,31.84,0,0,0,1.76-3,30.08,30.08,0,0,0,1.31-2.92,28.62,28.62,0,0,0,.92-2.9,24.23,24.23,0,0,0,.58-2.89,26.5,26.5,0,0,0,.25-2.94v-.33l.08-7.71c0-.24.06-.48.06-.72s0-.23,0-.34l-.16,15.57c0,.11,0,.22,0,.33a24,24,0,0,1-.24,2.93,26.57,26.57,0,0,1-.58,2.9,26.21,26.21,0,0,1-.93,2.89,30.24,30.24,0,0,1-1.31,2.93,32.21,32.21,0,0,1-1.76,3,35.33,35.33,0,0,1-2.34,3.17,43.26,43.26,0,0,1-3.23,3.48,48.49,48.49,0,0,1-5,4.23,63,63,0,0,1-6.92,4.46A87.74,87.74,0,0,1,252.73,454c-2.69.7-5.43,1.31-8.22,1.81q-3.3.6-6.66,1c-1.95.24-3.91.44-5.89.58-1.81.14-3.64.24-5.47.3s-3.48.07-5.22.06-3.39-.07-5.08-.15-3.35-.19-5-.34-3.34-.32-5-.54-3.38-.47-5-.75-3.48-.64-5.19-1-3.66-.84-5.45-1.33q-3-.83-6-1.82c-2.37-.81-4.68-1.69-6.92-2.66a78.77,78.77,0,0,1-9.21-4.7c-14.25-8.53-21.29-19.55-21.17-30.49l.05-5.47C147.72,419,154.74,429.47,168.41,437.66Z"/><path class="cls-128" d="M274.75,369.44c-28.68-17.18-75.72-17.8-105-1.39s-29.84,43.66-1.16,60.84,75.74,17.81,105.06,1.39S303.44,386.63,274.75,369.44Zm-6.9,3.87c25,14.95,24.51,38.65-1,52.93S200.42,440,175.46,425s-24.51-38.65,1-52.94S242.89,358.36,267.85,373.31Z"/><path class="cls-129" d="M263.14,396.32c0-.07-.06-.14-.07-.22h0a2.48,2.48,0,0,0-1.43-1.93,7.38,7.38,0,0,0-1.7-.7c-19.14-5.47-39.49-6.28-59.69-3.79l0-5.42c0,.39-.07.77-.09,1.16a17.49,17.49,0,0,0-.05-3.39,3.14,3.14,0,0,0-1.76-2.39c-3.48-2-10.85-1.25-10.55,2.33h0s0,0,0,.06,0-.19,0-.28v4a19.24,19.24,0,0,1-2.67,8,1.86,1.86,0,0,0-.2.73h0a1.8,1.8,0,0,0-.06.22h0l0,10.12a3.18,3.18,0,0,0,1.88,2.49,8.1,8.1,0,0,0,1,.47c.25.1.52.19.79.27l.67.16.28.05h.06l.26,0,.56.07.55,0h.56a5.65,5.65,0,0,0,.59,0q.34,0,.69-.09c4.29-.77,8.6-1.35,12.91-1.81l1.66-.19c3-.29,6.09-.5,9.13-.61,1,0,2,0,3,0,1.66,0,3.33-.06,5,0,1.39,0,2.78.11,4.16.18,1.1.06,2.2.09,3.29.18,1.75.13,3.48.33,5.21.54.7.09,1.39.14,2.08.24,2.44.34,4.86.75,7.26,1.25,1.58.33,3.14.75,4.7,1.15.94.24,1.89.43,2.82.69h0c.26.07.52.14.77.19s.43.08.65.11l.3,0h.1l.19,0,.57,0H257l.24,0h.39c.25,0,.49-.06.73-.11l.29-.07.5-.13c.14,0,.29-.06.43-.11s.17-.09.27-.12a7.59,7.59,0,0,0,.91-.41c.1-.06.23-.09.32-.15l.17-.12c.15-.1.28-.21.42-.31s.24-.16.34-.25l.2-.22.14-.15a.74.74,0,0,0,.12-.13,2.79,2.79,0,0,0,.28-.42,1.74,1.74,0,0,0,.1-.19l0-.08a.37.37,0,0,0,.05-.11,2,2,0,0,0,.11-.35c0-.11,0-.23,0-.34v0l0-10.12ZM258,400h0Zm-7.58-1.13c-1.36-.35-2.71-.72-4.08-1C247.75,398.18,249.1,398.56,250.46,398.9Zm-51-1.65c-2.24.3-4.48.54-6.72.94,2.24-.4,4.48-.74,6.72-1.06Zm.57-10.37c0,.26,0,.52-.09.78-.13.7-.26,1.41-.45,2.1A23.55,23.55,0,0,0,200,386.88ZM185.33,396l.07.07.12.15A1.3,1.3,0,0,1,185.33,396Zm1.39,1.22Zm13.3-.05a.66.66,0,0,0,0-.14c1.86-.25,3.73-.45,5.59-.65C203.75,396.58,201.89,396.91,200,397.17Zm7.27-1c3-.29,6.08-.5,9.12-.61C213.37,395.69,210.33,395.9,207.29,396.19Zm12.12-.65c1.65,0,3.3-.06,4.94,0C222.71,395.48,221.06,395.51,219.41,395.54Zm9.15.15c1.09.06,2.18.09,3.26.18h0C230.74,395.78,229.64,395.75,228.56,395.69Zm8.55.73c.67.08,1.33.13,2,.22C238.44,396.55,237.78,396.5,237.11,396.42Zm16.78,3.32a9.61,9.61,0,0,0,1.76.35h0A10.83,10.83,0,0,1,253.89,399.74Zm2.73.38h0a6.14,6.14,0,0,0,.74,0h-.07C257.09,400.14,256.85,400.12,256.62,400.12Zm2-.18h.06l.15,0-.1,0Zm.66-.16c.2-.06.38-.13.57-.2l.14,0-.06,0C259.71,399.64,259.5,399.72,259.27,399.78Zm1.56-.63a.67.67,0,0,1-.12.06,5.89,5.89,0,0,0,.82-.48l-.21.16C261.17,399,261,399.07,260.83,399.15Zm1.59-1.19-.14.15c-.1.1-.22.19-.34.29a3.84,3.84,0,0,0,.28-.3c.09-.1.19-.19.26-.28a1.42,1.42,0,0,0,.12-.13C262.53,397.78,262.49,397.87,262.42,398Zm.53-.82,0,.08s-.08.1-.11.16a1.38,1.38,0,0,0,.08-.27c0-.07.05-.15.08-.22a2.25,2.25,0,0,0,.13-.42A2,2,0,0,1,263,397.14Z"/><g class="cls-5"><g class="cls-5"><path class="cls-2" d="M188.47,389.32l0-10.12c0,.09,0,.18,0,.28l0,10.12A1.34,1.34,0,0,1,188.47,389.32Z"/><g class="cls-130"><g class="cls-5"><path class="cls-131" d="M188.51,379.48l0,10.12a1.34,1.34,0,0,1,0-.28l0-10.12c0,.09,0,.18,0,.28"/></g></g></g><g class="cls-5"><path class="cls-3" d="M188.61,381.54l0,10.12a20.58,20.58,0,0,0-.1-2.06l0-10.12A20.43,20.43,0,0,1,188.61,381.54Z"/><g class="cls-132"><g class="cls-5"><path class="cls-133" d="M188.61,381.54l0,10.12a20.58,20.58,0,0,0-.1-2.06l0-10.12a20.43,20.43,0,0,1,.1,2.06"/></g></g></g><g class="cls-5"><path class="cls-4" d="M201,381.7l0,10.13a20.49,20.49,0,0,1-.8,5.5l0-10.12A21,21,0,0,0,201,381.7Z"/><g class="cls-134"><g class="cls-5"><path class="cls-135" d="M201,381.7l0,10.13c0,.16,0,.32,0,.48l0-10.13c0-.16,0-.32,0-.48"/><path class="cls-136" d="M200.57,385.52c-.11.57-.25,1.13-.4,1.69l0,10.12c.15-.56.29-1.12.4-1.68a19.89,19.89,0,0,0,.39-3.34l0-10.13A19.65,19.65,0,0,1,200.57,385.52Z"/></g></g></g><path class="cls-137" d="M263.65,394.59l0,.07a2.93,2.93,0,0,1-.5.74l-.14.15a3.57,3.57,0,0,1-.54.47,4.56,4.56,0,0,1-.42.31c-.15.1-.32.18-.49.27a6.94,6.94,0,0,1-.91.41,7.19,7.19,0,0,1-.7.24c-.16,0-.33.09-.5.12a10.23,10.23,0,0,1-1.29.2H258a9.49,9.49,0,0,1-1.59,0h-.1a10,10,0,0,1-1.73-.34l-.08,0c-1-.29-2-.48-3-.73-1.49-.38-3-.79-4.46-1.1H247q-3.47-.72-7-1.21l-.24,0c-.69-.09-1.38-.15-2.07-.23-1.54-.19-3.07-.39-4.61-.51l-.6,0c-1.1-.08-2.2-.12-3.3-.17s-2.29-.16-3.44-.18h-.72c-1.66,0-3.33,0-5,0-.85,0-1.7,0-2.55,0l-.41,0c-3,.12-6.09.33-9.13.62l-.61,0c-.35,0-.7.11-1,.15-4.31.45-8.62,1-12.91,1.8a9.11,9.11,0,0,1-3.21,0h-.06a8.4,8.4,0,0,1-2.72-.95,3.18,3.18,0,0,1-1.88-2.49l0,10.12a3.18,3.18,0,0,0,1.88,2.49,6.83,6.83,0,0,0,1,.47c.26.1.52.19.8.27s.44.12.66.16l.28.05h.06l.26.05a5.32,5.32,0,0,0,.56.06l.55,0h.56l.6,0a5.31,5.31,0,0,0,.68-.1c4.29-.76,8.6-1.34,12.91-1.8.55-.06,1.11-.14,1.66-.19,3-.29,6.09-.5,9.13-.61,1,0,2,0,3,0,1.67,0,3.33-.06,5,0,1.39,0,2.78.11,4.17.18,1.09.06,2.19.09,3.29.18,1.74.13,3.47.33,5.21.54.69.09,1.38.14,2.07.23q3.66.51,7.27,1.25c1.57.33,3.13.76,4.7,1.16.93.24,1.88.42,2.81.69h0c.26.08.52.14.77.2l.65.11.3,0h.1l.19,0,.57,0h1l.27,0c.25,0,.49-.06.73-.1l.29-.07.5-.13.43-.11a2.24,2.24,0,0,0,.27-.13,6.94,6.94,0,0,0,.91-.41l.33-.14a1.67,1.67,0,0,1,.16-.12c.15-.1.28-.21.42-.32s.24-.16.34-.25a2.18,2.18,0,0,0,.21-.22l.13-.14.12-.13a3.52,3.52,0,0,0,.29-.42l.09-.2,0-.07a.54.54,0,0,0,.05-.11,2.47,2.47,0,0,0,.11-.36c0-.11,0-.22,0-.34v0l0-10.12A2.24,2.24,0,0,1,263.65,394.59Z"/><path class="cls-138" d="M262.34,391.61c4.31,2.49-1.38,7.44-7.75,5.58-19.71-5.63-40.65-5.22-61.17-1.56a9.2,9.2,0,0,1-6-1c-1.52-.87-2.32-2.16-1.62-3.43a18.59,18.59,0,0,0,2.7-11.76c-.39-3.64,7.06-4.42,10.56-2.39a3.16,3.16,0,0,1,1.77,2.39,19.72,19.72,0,0,1-.67,7.73c20.45-2.61,41.08-1.83,60.47,3.71A7.22,7.22,0,0,1,262.34,391.61Z"/></g><g class="cls-139"><path class="cls-140" d="M200.26,386.74a21.14,21.14,0,0,0,.62-3.78,22.39,22.39,0,0,1-.71,3.79Z"/><path class="cls-141" d="M254.59,396.73c-19.71-5.63-40.65-5.22-61.17-1.56a9.26,9.26,0,0,1-6-1,3.33,3.33,0,0,1-1.82-2.25c-.12,1,.59,2,1.82,2.71a9.2,9.2,0,0,0,6,1c20.52-3.66,41.46-4.07,61.17,1.56,5,1.45,9.42-1.21,9.18-3.64C263.44,395.83,259.22,398.08,254.59,396.73Z"/><path class="cls-142" d="M188.52,379.41s0,0,0,.07a19.65,19.65,0,0,1,.06,2.65A19.11,19.11,0,0,0,188.52,379.41Z"/></g><path class="cls-143" d="M158.71,366.22a1.15,1.15,0,0,1-.56-.15l-5.75-3.34a1.11,1.11,0,0,1,1.12-1.92l5.75,3.33a1.12,1.12,0,0,1-.56,2.08Z"/><path class="cls-144" d="M145.29,358.43a1.15,1.15,0,0,1-.56-.15L139,354.94a1.13,1.13,0,0,1-.4-1.52,1.11,1.11,0,0,1,1.52-.4l5.75,3.34a1.11,1.11,0,0,1,.4,1.52A1.1,1.1,0,0,1,145.29,358.43Z"/><path class="cls-145" d="M314.16,455.34a1.15,1.15,0,0,1-.56-.15l-5.74-3.34a1.11,1.11,0,0,1,1.12-1.92l5.74,3.34a1.11,1.11,0,0,1-.56,2.07Zm-13.41-7.78a1.15,1.15,0,0,1-.56-.15l-5.75-3.34a1.11,1.11,0,1,1,1.12-1.92l5.75,3.33a1.12,1.12,0,0,1-.56,2.08Zm-13.42-7.79a1.15,1.15,0,0,1-.56-.15L281,436.28a1.11,1.11,0,0,1,1.12-1.92l5.75,3.34a1.11,1.11,0,0,1-.56,2.07Z"/><path class="cls-146" d="M421.25,317.57a1.08,1.08,0,0,1-.55-.15L415,314.08a1.11,1.11,0,1,1,1.11-1.92l5.75,3.33a1.11,1.11,0,0,1-.56,2.08Z"/><path class="cls-147" d="M408.14,307.79l-5.75-3.34a1.12,1.12,0,0,0-1.12,1.93l5.75,3.33a1.15,1.15,0,0,0,.56.15,1.11,1.11,0,0,0,.56-2.07Z"/><path class="cls-148" d="M394.72,300l-1.8-1-2.33,1.22,3,1.75a1.15,1.15,0,0,0,.56.15,1.12,1.12,0,0,0,.56-2.08Z"/><path class="cls-149" d="M352,432.42a1.25,1.25,0,0,1-.63-2.33l6.49-3.75a1.23,1.23,0,0,1,1.7.46,1.24,1.24,0,0,1-.45,1.7l-6.49,3.75A1.29,1.29,0,0,1,352,432.42Z"/><path class="cls-150" d="M367.16,423.67a1.25,1.25,0,0,1-.62-2.33l6.48-3.75a1.25,1.25,0,1,1,1.25,2.16l-6.48,3.75A1.22,1.22,0,0,1,367.16,423.67Z"/><path class="cls-151" d="M382.3,414.92a1.24,1.24,0,0,1-1.08-.62,1.25,1.25,0,0,1,.45-1.71l6.49-3.75a1.25,1.25,0,1,1,1.25,2.16l-6.49,3.75A1.19,1.19,0,0,1,382.3,414.92Z"/><path class="cls-152" d="M321.17,450.7a1.28,1.28,0,0,1-1.09-.63,1.25,1.25,0,0,1,.46-1.7l6.49-3.75a1.23,1.23,0,0,1,1.7.45,1.25,1.25,0,0,1-.45,1.71l-6.49,3.75A1.29,1.29,0,0,1,321.17,450.7Z"/><path class="cls-153" d="M336.3,442a1.23,1.23,0,0,1-1.08-.63,1.25,1.25,0,0,1,.46-1.7l6.49-3.75a1.25,1.25,0,1,1,1.24,2.16l-6.48,3.75A1.32,1.32,0,0,1,336.3,442Z"/><path class="cls-154" d="M395.41,407.18a1.26,1.26,0,0,1-1.08-.62,1.25,1.25,0,0,1,.46-1.71l6.48-3.75a1.25,1.25,0,1,1,1.25,2.16L396,407A1.22,1.22,0,0,1,395.41,407.18Z"/><path class="cls-155" d="M410.5,398.62a1.25,1.25,0,0,1-.63-2.33l6.49-3.75a1.25,1.25,0,0,1,1.25,2.16l-6.49,3.75A1.26,1.26,0,0,1,410.5,398.62Z"/><path class="cls-156" d="M425.78,389.9a1.25,1.25,0,0,1-.62-2.33l6.48-3.75a1.26,1.26,0,0,1,1.71.46,1.25,1.25,0,0,1-.46,1.7l-6.48,3.75A1.29,1.29,0,0,1,425.78,389.9Z"/><path class="cls-157" d="M441.05,381a1.27,1.27,0,0,1-1.09-.63,1.25,1.25,0,0,1,.46-1.7l6.49-3.75a1.25,1.25,0,1,1,1.24,2.16l-6.48,3.75A1.29,1.29,0,0,1,441.05,381Z"/><path class="cls-158" d="M454.12,373.32a1.24,1.24,0,0,1-1.08-.62,1.25,1.25,0,0,1,.45-1.71l6.49-3.75a1.25,1.25,0,0,1,1.25,2.17l-6.49,3.75A1.25,1.25,0,0,1,454.12,373.32Z"/></g></g></g></svg>