<svg viewBox="0 0 590 452.34" xmlns="http://www.w3.org/2000/svg" xmlns:xlink="http://www.w3.org/1999/xlink"><radialGradient id="a" cx="-1156.45" cy="649.39" gradientTransform="matrix(-2.05 .13 .62 1.61 -2484.33 -539.53)" gradientUnits="userSpaceOnUse" r="17.4"><stop offset="0" stop-opacity=".5"/><stop offset="1" stop-opacity="0"/></radialGradient><linearGradient id="b" gradientTransform="matrix(1 -.03 .03 1 -17.54 -39.44)" gradientUnits="userSpaceOnUse" x1="315" x2="316.71" y1="374.22" y2="374.22"><stop offset="0" stop-color="#848388"/><stop offset=".74" stop-color="#6c6a6b"/></linearGradient><linearGradient id="c" x1="281.18" x2="284.79" xlink:href="#b" y1="375.95" y2="375.95"/><linearGradient id="d" gradientTransform="matrix(1 -.03 .03 1 -17.54 -39.44)" gradientUnits="userSpaceOnUse" x1="281.26" x2="316.71" y1="375.38" y2="375.38"><stop offset="0" stop-color="#c9c8c9"/><stop offset="1" stop-color="#8c8a8b"/></linearGradient><linearGradient id="e" gradientTransform="matrix(-1 .03 .03 1 -2155.33 33.89)" gradientUnits="userSpaceOnUse" x1="-2446.86" x2="-2476.62" y1="396.8" y2="396.8"><stop offset="0" stop-color="#383533"/><stop offset="1" stop-color="#1c1714"/></linearGradient><linearGradient id="f" x1="-2397.46" x2="-2450.58" xlink:href="#e" y1="398.48" y2="398.48"/><linearGradient id="g" gradientUnits="userSpaceOnUse" x1="283.1" x2="374.48" y1="269.25" y2="269.25"><stop offset="0" stop-color="#6c6a6b"/><stop offset="1" stop-color="#4c4242"/></linearGradient><linearGradient id="h" x1="299.55" x2="356.57" xlink:href="#g" y1="268.06" y2="268.06"/><linearGradient id="i" x1="305.47" x2="328.16" xlink:href="#e" y1="265.8" y2="265.8"/><linearGradient id="j" x1="328.12" x2="350.66" xlink:href="#e" y1="265.78" y2="265.78"/><linearGradient id="k" gradientUnits="userSpaceOnUse" x1="113.27" x2="352.2" y1="113.9" y2="113.9"><stop offset="0" stop-color="#9e8032"/><stop offset=".14" stop-color="#a18336"/><stop offset=".27" stop-color="#aa8e41"/><stop offset=".39" stop-color="#b9a053"/><stop offset=".51" stop-color="#cfb96d"/><stop offset=".61" stop-color="#e6d48a"/><stop offset=".67" stop-color="#d8c174"/><stop offset=".75" stop-color="#c6a958"/><stop offset=".83" stop-color="#b89743"/><stop offset=".91" stop-color="#b18d37"/><stop offset=".99" stop-color="#ae8933"/></linearGradient><linearGradient id="l" x1="349.7" x2="416.96" xlink:href="#k" y1="56.33" y2="56.33"/><linearGradient id="m" gradientTransform="matrix(-1 0 0 1 1309.64 0)" gradientUnits="userSpaceOnUse" x1="1214.59" x2="1222.23" y1="234.14" y2="221.42"><stop offset=".26" stop-opacity="0"/><stop offset=".3" stop-opacity=".06"/><stop offset="1" stop-opacity=".5"/></linearGradient><linearGradient id="n" gradientTransform="matrix(-1 0 0 1 1309.64 0)" gradientUnits="userSpaceOnUse" x1="1183.1" x2="1191.7" y1="154.31" y2="154.31"><stop offset="0" stop-color="#4c4242"/><stop offset="1" stop-color="#342c2b"/></linearGradient><linearGradient id="o" gradientTransform="matrix(-1 0 0 1 1309.64 0)" gradientUnits="userSpaceOnUse" x1="1189.42" x2="1263.68" y1="176.46" y2="176.46"><stop offset="0" stop-color="#5c5657"/><stop offset="1" stop-color="#4c4242"/></linearGradient><linearGradient id="p" gradientTransform="matrix(-1 0 0 1 1309.64 0)" gradientUnits="userSpaceOnUse" x1="1208.54" x2="1244.42" y1="219.37" y2="179.85"><stop offset="0" stop-color="#beb8bb"/><stop offset="1" stop-color="#fff"/></linearGradient><linearGradient id="q" x1="1270.07" x2="1262.06" xlink:href="#o" y1="247.63" y2="191.79"/><linearGradient id="r" x1="1191.74" x2="1169.22" xlink:href="#o" y1="172.01" y2="199.39"/><linearGradient id="s" x1="1265.24" x2="1261.19" xlink:href="#o" y1="197.94" y2="260.26"/><linearGradient id="t" gradientTransform="matrix(-.87 .5 0 1.15 1434.19 410.52)" x1="1530.79" x2="1578.5" xlink:href="#b" y1="-852.62" y2="-852.62"/><linearGradient id="u" gradientUnits="userSpaceOnUse" x1="358.19" x2="369.43" y1="426.53" y2="407.83"><stop offset=".02" stop-opacity="0"/><stop offset=".07" stop-opacity=".06"/><stop offset="1" stop-opacity=".5"/></linearGradient><linearGradient id="v" x1="403.18" x2="380.13" xlink:href="#e" y1="411.33" y2="411.33"/><linearGradient id="w" x1="378.93" x2="355.68" xlink:href="#e" y1="411.33" y2="411.33"/><linearGradient id="x" x1="354.63" x2="403.06" xlink:href="#e" y1="404.88" y2="404.88"/><linearGradient id="y" x1="403.18" x2="380.13" xlink:href="#e" y1="395.06" y2="395.06"/><linearGradient id="z" x1="378.93" x2="355.68" xlink:href="#e" y1="395.06" y2="395.06"/><linearGradient id="A" x1="354.63" x2="403.06" xlink:href="#e" y1="388.61" y2="388.61"/><linearGradient id="B" x1="403.18" x2="380.13" xlink:href="#e" y1="378.22" y2="378.22"/><linearGradient id="C" x1="378.93" x2="355.68" xlink:href="#e" y1="378.22" y2="378.22"/><linearGradient id="D" x1="354.63" x2="403.06" xlink:href="#e" y1="371.78" y2="371.78"/><linearGradient id="E" gradientUnits="userSpaceOnUse" x1="378.84" x2="378.84" y1="337.73" y2="366.82"><stop offset="0" stop-color="#6b6565"/><stop offset="1" stop-color="#4c4242"/></linearGradient><linearGradient id="F" x1="403.18" x2="380.13" xlink:href="#e" y1="361.42" y2="361.42"/><linearGradient id="G" x1="378.93" x2="355.68" xlink:href="#e" y1="361.42" y2="361.42"/><linearGradient id="H" x1="354.63" x2="403.06" xlink:href="#e" y1="354.98" y2="354.98"/><linearGradient id="I" x1="325.84" x2="337.07" xlink:href="#u" y1="445.48" y2="426.77"/><linearGradient id="J" x1="370.83" x2="347.77" xlink:href="#e" y1="430.27" y2="430.27"/><linearGradient id="K" x1="346.57" x2="323.32" xlink:href="#e" y1="430.27" y2="430.27"/><linearGradient id="L" x1="322.27" x2="370.7" xlink:href="#e" y1="423.83" y2="423.83"/><linearGradient id="M" x1="370.83" x2="347.77" xlink:href="#e" y1="414" y2="414"/><linearGradient id="N" x1="346.57" x2="323.32" xlink:href="#e" y1="414" y2="414"/><linearGradient id="O" x1="322.27" x2="370.7" xlink:href="#e" y1="407.55" y2="407.55"/><linearGradient id="P" x1="370.83" x2="347.77" xlink:href="#e" y1="397.16" y2="397.16"/><linearGradient id="Q" x1="346.57" x2="323.32" xlink:href="#e" y1="397.16" y2="397.16"/><linearGradient id="R" x1="322.27" x2="370.7" xlink:href="#e" y1="390.72" y2="390.72"/><linearGradient id="S" x1="346.48" x2="346.48" xlink:href="#E" y1="356.67" y2="385.76"/><linearGradient id="T" x1="370.83" x2="347.77" xlink:href="#e" y1="380.36" y2="380.36"/><linearGradient id="U" x1="346.57" x2="323.32" xlink:href="#e" y1="380.36" y2="380.36"/><linearGradient id="V" x1="322.27" x2="370.7" xlink:href="#e" y1="373.92" y2="373.92"/><linearGradient id="W" gradientUnits="userSpaceOnUse" x1="162.87" x2="304.24" y1="95.42" y2="95.42"><stop offset=".42" stop-color="#4c4242"/><stop offset="1" stop-color="#342c2b"/></linearGradient><linearGradient id="X" x1="251.4" x2="260.2" xlink:href="#n" y1="79.25" y2="79.25"/><linearGradient id="Y" x1="255.85" x2="255.85" xlink:href="#e" y1="110.61" y2="86.72"/><linearGradient id="Z" x1="265.27" x2="274.06" xlink:href="#n" y1="71.25" y2="71.25"/><linearGradient id="aa" x1="269.68" x2="269.68" xlink:href="#e" y1="97.53" y2="54.53"/><linearGradient id="ab" x1="279.13" x2="287.93" xlink:href="#n" y1="63.25" y2="63.25"/><linearGradient id="ac" x1="283.57" x2="283.57" xlink:href="#e" y1="105.1" y2="61.47"/><linearGradient id="ad" x1="175.95" x2="240.4" xlink:href="#e" y1="127.47" y2="127.47"/><linearGradient id="ae" gradientTransform="matrix(-.91 -.02 .02 .89 -1259.78 57.67)" gradientUnits="userSpaceOnUse" x1="-1562.21" x2="-1573.59" y1="200.65" y2="182.37"><stop offset=".24" stop-opacity="0"/><stop offset=".28" stop-opacity=".06"/><stop offset="1" stop-opacity=".5"/></linearGradient><linearGradient id="af" gradientUnits="userSpaceOnUse" x1="153.5" x2="188.32" y1="244.98" y2="244.98"><stop offset="0" stop-color="#3f3c3a"/><stop offset="1" stop-color="#2c2725"/></linearGradient><linearGradient id="ag" x1="183.67" x2="157.58" xlink:href="#g" y1="237.62" y2="237.62"/><linearGradient id="ah" x1="153.5" x2="188.32" xlink:href="#af" y1="236.73" y2="236.73"/><linearGradient id="ai" x1="183.67" x2="157.58" xlink:href="#g" y1="229.38" y2="229.38"/><linearGradient id="aj" x1="153.5" x2="188.32" xlink:href="#af" y1="228.06" y2="228.06"/><linearGradient id="ak" x1="183.67" x2="157.58" xlink:href="#g" y1="220.7" y2="220.7"/><linearGradient id="al" x1="160.81" x2="181.01" xlink:href="#af" y1="220.12" y2="220.12"/><linearGradient id="am" x1="-1525.38" x2="-1536.77" xlink:href="#ae" y1="218.88" y2="200.61"/><linearGradient id="an" x1="122.97" x2="157.79" xlink:href="#af" y1="259.06" y2="259.06"/><linearGradient id="ao" x1="153.14" x2="127.05" xlink:href="#g" y1="251.71" y2="251.71"/><linearGradient id="ap" x1="122.97" x2="157.79" xlink:href="#af" y1="250.82" y2="250.82"/><linearGradient id="aq" x1="153.14" x2="127.05" xlink:href="#g" y1="243.46" y2="243.46"/><linearGradient id="ar" x1="122.97" x2="157.79" xlink:href="#af" y1="242.14" y2="242.14"/><linearGradient id="as" x1="153.14" x2="127.05" xlink:href="#g" y1="234.79" y2="234.79"/><linearGradient id="at" x1="130.28" x2="150.48" xlink:href="#af" y1="234.2" y2="234.2"/><linearGradient id="au" x1="425.86" x2="486.2" xlink:href="#u" y1="254.28" y2="254.28"/><linearGradient id="av" x1="477.61" x2="482.12" xlink:href="#af" y1="240.86" y2="240.86"/><linearGradient id="aw" x1="432.27" x2="436.82" xlink:href="#af" y1="240.86" y2="240.86"/><linearGradient id="ax" x1="440.73" x2="473.78" xlink:href="#af" y1="244.75" y2="244.75"/><linearGradient id="ay" x1="427.07" x2="427.12" xlink:href="#af" y1="249.51" y2="249.51"/><linearGradient id="az" x1="480.26" x2="487.44" xlink:href="#af" y1="252.67" y2="252.67"/><linearGradient id="aA" x1="427.11" x2="434.29" xlink:href="#af" y1="252.67" y2="252.67"/><linearGradient id="aB" x1="477.69" x2="480.28" xlink:href="#af" y1="254.71" y2="254.71"/><linearGradient id="aC" x1="434.27" x2="436.9" xlink:href="#af" y1="254.71" y2="254.71"/><linearGradient id="aD" x1="463.18" x2="469.45" xlink:href="#af" y1="262.07" y2="262.07"/><linearGradient id="aE" x1="445.19" x2="451.48" xlink:href="#af" y1="262.07" y2="262.07"/><linearGradient id="aF" x1="475.06" x2="482.24" xlink:href="#af" y1="261.86" y2="261.86"/><linearGradient id="aG" x1="469.43" x2="475.08" xlink:href="#af" y1="262.63" y2="262.63"/><linearGradient id="aH" x1="439.59" x2="445.21" xlink:href="#af" y1="262.63" y2="262.63"/><linearGradient id="aI" x1="432.39" x2="439.61" xlink:href="#af" y1="261.86" y2="261.86"/><linearGradient id="aJ" x1="462.42" x2="463.19" xlink:href="#af" y1="264.9" y2="264.9"/><linearGradient id="aK" x1="451.47" x2="452.28" xlink:href="#af" y1="264.9" y2="264.9"/><linearGradient id="aL" x1="427.09" x2="487.44" xlink:href="#g" y1="246.88" y2="246.88"/><linearGradient id="aM" x1="452.27" x2="462.44" xlink:href="#af" y1="266.97" y2="266.97"/><linearGradient id="aN" x1="329.64" x2="377.72" xlink:href="#u" y1="88.42" y2="88.42"/><linearGradient id="aO" x1="370.87" x2="374.47" xlink:href="#af" y1="77.73" y2="77.73"/><linearGradient id="aP" x1="334.76" x2="338.38" xlink:href="#af" y1="77.73" y2="77.73"/><linearGradient id="aQ" x1="341.49" x2="367.82" xlink:href="#af" y1="80.82" y2="80.82"/><linearGradient id="aR" x1="330.61" x2="330.65" xlink:href="#af" y1="84.62" y2="84.62"/><linearGradient id="aS" x1="372.99" x2="378.7" xlink:href="#af" y1="87.14" y2="87.14"/><linearGradient id="aT" x1="330.64" x2="336.36" xlink:href="#af" y1="87.14" y2="87.14"/><linearGradient id="aU" x1="370.94" x2="373" xlink:href="#af" y1="88.76" y2="88.76"/><linearGradient id="aV" x1="336.35" x2="338.44" xlink:href="#af" y1="88.76" y2="88.76"/><linearGradient id="aW" x1="359.38" x2="364.37" xlink:href="#af" y1="94.63" y2="94.63"/><linearGradient id="aX" x1="345.05" x2="350.06" xlink:href="#af" y1="94.63" y2="94.63"/><linearGradient id="aY" x1="368.84" x2="374.56" xlink:href="#af" y1="94.46" y2="94.46"/><linearGradient id="aZ" x1="364.36" x2="368.86" xlink:href="#af" y1="95.07" y2="95.07"/><linearGradient id="a0" x1="340.59" x2="345.06" xlink:href="#af" y1="95.07" y2="95.07"/><linearGradient id="a1" x1="334.85" x2="340.6" xlink:href="#af" y1="94.46" y2="94.46"/><linearGradient id="a2" x1="358.78" x2="359.39" xlink:href="#af" y1="96.88" y2="96.88"/><linearGradient id="a3" x1="350.05" x2="350.7" xlink:href="#af" y1="96.88" y2="96.88"/><linearGradient id="a4" x1="330.63" x2="378.7" xlink:href="#g" y1="82.53" y2="82.53"/><linearGradient id="a5" x1="350.68" x2="358.79" xlink:href="#af" y1="98.53" y2="98.53"/><linearGradient id="a6" x1="324.36" x2="357.97" xlink:href="#u" y1="119.95" y2="119.95"/><linearGradient id="a7" x1="353.18" x2="355.69" xlink:href="#af" y1="112.47" y2="112.47"/><linearGradient id="a8" x1="327.93" x2="330.47" xlink:href="#af" y1="112.47" y2="112.47"/><linearGradient id="a9" x1="332.64" x2="351.05" xlink:href="#af" y1="114.64" y2="114.64"/><linearGradient id="ba" x1="325.04" x2="325.06" xlink:href="#af" y1="117.29" y2="117.29"/><linearGradient id="bb" x1="354.66" x2="358.65" xlink:href="#af" y1="119.05" y2="119.05"/><linearGradient id="bc" x1="325.06" x2="329.05" xlink:href="#af" y1="119.05" y2="119.05"/><linearGradient id="bd" x1="353.22" x2="354.67" xlink:href="#af" y1="120.19" y2="120.19"/><linearGradient id="be" x1="329.05" x2="330.51" xlink:href="#af" y1="120.19" y2="120.19"/><linearGradient id="bf" x1="345.14" x2="348.63" xlink:href="#af" y1="124.29" y2="124.29"/><linearGradient id="bg" x1="335.13" x2="338.63" xlink:href="#af" y1="124.29" y2="124.29"/><linearGradient id="bh" x1="351.76" x2="355.76" xlink:href="#af" y1="124.17" y2="124.17"/><linearGradient id="bi" x1="348.63" x2="351.77" xlink:href="#af" y1="124.6" y2="124.6"/><linearGradient id="bj" x1="332.01" x2="335.14" xlink:href="#af" y1="124.6" y2="124.6"/><linearGradient id="bk" x1="328" x2="332.02" xlink:href="#af" y1="124.17" y2="124.17"/><linearGradient id="bl" x1="344.72" x2="345.15" xlink:href="#af" y1="125.86" y2="125.86"/><linearGradient id="bm" x1="338.62" x2="339.08" xlink:href="#af" y1="125.86" y2="125.86"/><linearGradient id="bn" x1="325.05" x2="358.65" xlink:href="#g" y1="115.83" y2="115.83"/><linearGradient id="bo" x1="339.07" x2="344.73" xlink:href="#af" y1="127.02" y2="127.02"/><linearGradient id="bp" x1="399.64" x2="433.25" xlink:href="#u" y1="171.21" y2="171.21"/><linearGradient id="bq" x1="428.46" x2="430.97" xlink:href="#af" y1="163.73" y2="163.73"/><linearGradient id="br" x1="403.21" x2="405.74" xlink:href="#af" y1="163.73" y2="163.73"/><linearGradient id="bs" x1="407.92" x2="426.33" xlink:href="#af" y1="165.9" y2="165.9"/><linearGradient id="bt" x1="400.32" x2="400.34" xlink:href="#af" y1="168.55" y2="168.55"/><linearGradient id="bu" x1="429.94" x2="433.93" xlink:href="#af" y1="170.31" y2="170.31"/><linearGradient id="bv" x1="400.34" x2="404.33" xlink:href="#af" y1="170.31" y2="170.31"/><linearGradient id="bw" x1="428.5" x2="429.94" xlink:href="#af" y1="171.45" y2="171.45"/><linearGradient id="bx" x1="404.33" x2="405.79" xlink:href="#af" y1="171.45" y2="171.45"/><linearGradient id="by" x1="420.42" x2="423.91" xlink:href="#af" y1="175.55" y2="175.55"/><linearGradient id="bz" x1="410.41" x2="413.91" xlink:href="#af" y1="175.55" y2="175.55"/><linearGradient id="bA" x1="427.04" x2="431.04" xlink:href="#af" y1="175.43" y2="175.43"/><linearGradient id="bB" x1="423.91" x2="427.05" xlink:href="#af" y1="175.86" y2="175.86"/><linearGradient id="bC" x1="407.29" x2="410.42" xlink:href="#af" y1="175.86" y2="175.86"/><linearGradient id="bD" x1="403.28" x2="407.3" xlink:href="#af" y1="175.43" y2="175.43"/><linearGradient id="bE" x1="420" x2="420.43" xlink:href="#af" y1="177.12" y2="177.12"/><linearGradient id="bF" x1="413.9" x2="414.35" xlink:href="#af" y1="177.12" y2="177.12"/><linearGradient id="bG" x1="400.32" x2="433.93" xlink:href="#g" y1="167.09" y2="167.09"/><linearGradient id="bH" x1="414.35" x2="420.01" xlink:href="#af" y1="178.27" y2="178.27"/><linearGradient id="bI" x1="175.47" x2="315.49" xlink:href="#k" y1="306.88" y2="306.88"/><linearGradient id="bJ" x1="0" x2="118.49" xlink:href="#k" y1="287.78" y2="287.78"/><linearGradient id="bK" x1="473.46" x2="547.86" xlink:href="#k" y1="169.24" y2="169.24"/><linearGradient id="bL" x1="561.73" x2="571.54" xlink:href="#k" y1="268.38" y2="268.38"/><linearGradient id="bM" x1="580.2" x2="590" xlink:href="#k" y1="257.62" y2="257.62"/><linearGradient id="bN" x1="545.22" x2="555.02" xlink:href="#k" y1="277.93" y2="277.93"/><linearGradient id="bO" x1="528.97" x2="538.77" xlink:href="#k" y1="287.12" y2="287.12"/><linearGradient id="bP" x1="220.88" x2="229.57" xlink:href="#k" y1="198.71" y2="198.71"/><linearGradient id="bQ" x1="206.24" x2="214.94" xlink:href="#k" y1="190.21" y2="190.21"/><linearGradient id="bR" x1="191.6" x2="200.3" xlink:href="#k" y1="181.72" y2="181.72"/><linearGradient id="bS" x1="238.12" x2="451.21" xlink:href="#k" y1="269.6" y2="269.6"/><linearGradient id="bT" gradientTransform="translate(371.56)" gradientUnits="userSpaceOnUse" x1="33.56" x2="54.4" y1="144.81" y2="110.14"><stop offset=".27" stop-opacity="0"/><stop offset=".31" stop-opacity=".06"/><stop offset="1" stop-opacity=".5"/></linearGradient><linearGradient id="bU" gradientTransform="matrix(-1 0 0 1 627.07 0)" x1="183.2" x2="213.35" xlink:href="#E" y1="84.48" y2="84.48"/><linearGradient id="bV" gradientTransform="matrix(-1 0 0 1 627.07 0)" x1="153.08" x2="183.42" xlink:href="#e" y1="84.48" y2="84.48"/><linearGradient id="bW" gradientTransform="matrix(-1 0 0 1 627.07 0)" x1="171.11" x2="180.07" xlink:href="#u" y1="45.98" y2="32.62"/><linearGradient id="bX" gradientTransform="matrix(-1 0 0 1 627.07 0)" x1="183.21" x2="201.72" xlink:href="#g" y1="41.09" y2="41.09"/><linearGradient id="bY" gradientTransform="matrix(-1 0 0 1 627.07 0)" x1="181.13" x2="157.21" xlink:href="#g" y1="41.09" y2="41.09"/><linearGradient id="bZ" gradientTransform="matrix(-1 0 0 1 627.07 0)" x1="164.85" x2="201.72" xlink:href="#g" y1="34.93" y2="34.93"/><linearGradient id="b0" x1="72.95" x2="93.78" xlink:href="#bT" y1="167.51" y2="132.83"/><linearGradient id="b1" gradientTransform="matrix(-1 0 0 1 627.07 0)" x1="143.82" x2="173.97" xlink:href="#E" y1="107.18" y2="107.18"/><linearGradient id="b2" gradientTransform="matrix(-1 0 0 1 627.07 0)" x1="113.69" x2="144.04" xlink:href="#e" y1="107.18" y2="107.18"/><linearGradient id="b3" gradientTransform="matrix(-1 0 0 1 627.07 0)" x1="131.73" x2="140.68" xlink:href="#u" y1="68.68" y2="55.32"/><linearGradient id="b4" gradientTransform="matrix(-1 0 0 1 627.07 0)" x1="143.82" x2="162.33" xlink:href="#g" y1="63.78" y2="63.78"/><linearGradient id="b5" gradientTransform="matrix(-1 0 0 1 627.07 0)" x1="141.74" x2="117.82" xlink:href="#g" y1="63.78" y2="63.78"/><linearGradient id="b6" gradientTransform="matrix(-1 0 0 1 627.07 0)" x1="125.46" x2="162.33" xlink:href="#g" y1="57.63" y2="57.63"/><linearGradient id="b7" x1="480.01" x2="589.45" xlink:href="#k" y1="185.24" y2="185.24"/><linearGradient id="b8" gradientTransform="matrix(-.81 -.01 .01 .8 -990.43 -42.56)" x1="-1455.65" x2="-1484.53" xlink:href="#u" y1="390.52" y2="371.69"/><linearGradient id="b9" x1="196.72" x2="230.49" xlink:href="#af" y1="265.26" y2="265.26"/><linearGradient id="ca" x1="196.72" x2="230.48" xlink:href="#g" y1="262.01" y2="262.01"/><linearGradient id="cb" x1="202.42" x2="223.22" xlink:href="#af" y1="262.5" y2="262.5"/><linearGradient id="cc" x1="196.72" x2="230.49" xlink:href="#af" y1="260.33" y2="260.33"/><linearGradient id="cd" x1="196.72" x2="230.48" xlink:href="#g" y1="257.08" y2="257.08"/><linearGradient id="ce" x1="202.42" x2="223.22" xlink:href="#af" y1="257.56" y2="257.56"/><linearGradient id="cf" x1="196.72" x2="230.49" xlink:href="#af" y1="254.95" y2="254.95"/><linearGradient id="cg" x1="196.72" x2="230.48" xlink:href="#g" y1="251.7" y2="251.7"/><linearGradient id="ch" x1="202.42" x2="223.22" xlink:href="#af" y1="252.18" y2="252.18"/><linearGradient id="ci" x1="196.72" x2="230.49" xlink:href="#af" y1="249.34" y2="249.34"/><linearGradient id="cj" x1="196.72" x2="230.48" xlink:href="#g" y1="246.09" y2="246.09"/><linearGradient id="ck" x1="202.42" x2="223.22" xlink:href="#af" y1="246.57" y2="246.57"/><linearGradient id="cl" x1="101.5" x2="120.51" xlink:href="#bT" y1="399.46" y2="367.83"/><linearGradient id="cm" x1="132.47" x2="150.81" xlink:href="#e" y1="350.75" y2="350.75"/><linearGradient id="cn" x1="116.35" x2="140.04" xlink:href="#e" y1="350.75" y2="350.75"/><linearGradient id="co" x1="114.28" x2="150.81" xlink:href="#E" y1="315.87" y2="315.87"/><linearGradient id="cp" x1="131.14" x2="150.14" xlink:href="#bT" y1="416.53" y2="384.9"/><linearGradient id="cq" x1="162.22" x2="180.55" xlink:href="#e" y1="346.54" y2="346.54"/><linearGradient id="cr" x1="146.09" x2="169.79" xlink:href="#e" y1="346.54" y2="346.54"/><linearGradient id="cs" x1="144.03" x2="180.55" xlink:href="#E" y1="290.41" y2="290.41"/><linearGradient id="ct" x1="161.24" x2="180.25" xlink:href="#bT" y1="433.71" y2="402.08"/><linearGradient id="cu" x1="192.32" x2="210.66" xlink:href="#e" y1="395.6" y2="395.6"/><linearGradient id="cv" x1="176.2" x2="199.9" xlink:href="#e" y1="395.6" y2="395.6"/><linearGradient id="cw" x1="174.14" x2="210.66" xlink:href="#E" y1="371.34" y2="371.34"/><linearGradient id="cx" x1="202.97" x2="270.23" xlink:href="#k" y1="416.85" y2="416.85"/><radialGradient id="cy" cx="706.89" cy="361.03" gradientTransform="matrix(.89 0 0 .89 -116.27 45.59)" r="45.89" xlink:href="#a"/><linearGradient id="cz" x1="514.78" x2="564.9" xlink:href="#af" y1="358.5" y2="358.5"/><linearGradient id="cA" x1="509.14" x2="444.37" xlink:href="#af" y1="358.5" y2="358.5"/><linearGradient id="cB" x1="465.07" x2="564.9" xlink:href="#af" y1="341.82" y2="341.82"/><linearGradient id="cC" x1="503.83" x2="558.71" xlink:href="#u" y1="349.2" y2="305.87"/><linearGradient id="cD" x1="497.04" x2="533.12" xlink:href="#e" y1="295.85" y2="295.85"/><linearGradient id="cE" gradientUnits="userSpaceOnUse" x1="505.76" x2="524.33" y1="298.4" y2="267.48"><stop offset="0" stop-color="#e6d48a"/><stop offset=".03" stop-color="#dcc77a"/><stop offset=".09" stop-color="#cbaf5e"/><stop offset=".15" stop-color="#be9e49"/><stop offset=".22" stop-color="#b7933d"/><stop offset=".28" stop-color="#b49039"/><stop offset=".35" stop-color="#b6933d"/><stop offset=".41" stop-color="#bb9a48"/><stop offset=".47" stop-color="#c4a75a"/><stop offset=".53" stop-color="#d1b975"/><stop offset=".59" stop-color="#e1d196"/><stop offset=".64" stop-color="#f4edbf"/><stop offset=".66" stop-color="#fbf7cd"/><stop offset=".99" stop-color="#b49039"/></linearGradient><linearGradient id="cF" x1="510.22" x2="528.61" xlink:href="#k" y1="300.65" y2="270.05"/><linearGradient id="cG" x1="501.67" x2="510.87" xlink:href="#cE" y1="319" y2="303.69"/><linearGradient id="cH" x1="510.66" x2="529.23" xlink:href="#k" y1="324.39" y2="293.48"/><linearGradient id="cI" x1="273.93" x2="494.94" xlink:href="#k" y1="375.68" y2="375.68"/><linearGradient id="cJ" x1="316.16" x2="324.85" xlink:href="#k" y1="156.27" y2="156.27"/><linearGradient id="cK" x1="345.03" x2="353.73" xlink:href="#k" y1="173.19" y2="173.19"/><linearGradient id="cL" x1="359.54" x2="368.24" xlink:href="#k" y1="181.18" y2="181.18"/><linearGradient id="cM" x1="373.7" x2="382.4" xlink:href="#k" y1="188.85" y2="188.85"/><linearGradient id="cN" x1="330.79" x2="339.48" xlink:href="#k" y1="165.23" y2="165.23"/><linearGradient id="cO" x1="258.06" x2="266.76" xlink:href="#k" y1="122.75" y2="122.75"/><linearGradient id="cP" x1="286.94" x2="295.64" xlink:href="#k" y1="139.66" y2="139.66"/><linearGradient id="cQ" x1="301.45" x2="310.15" xlink:href="#k" y1="147.65" y2="147.65"/><linearGradient id="cR" x1="272.3" x2="281" xlink:href="#k" y1="131.17" y2="131.17"/><linearGradient id="cS" x1="402.38" x2="411.08" xlink:href="#k" y1="205.64" y2="205.64"/><linearGradient id="cT" x1="388.82" x2="397.52" xlink:href="#k" y1="197.76" y2="197.76"/><linearGradient id="cU" x1="351.53" x2="361.33" xlink:href="#k" y1="238.42" y2="238.42"/><linearGradient id="cV" x1="368.04" x2="377.85" xlink:href="#k" y1="228.87" y2="228.87"/><linearGradient id="cW" x1="384.56" x2="394.37" xlink:href="#k" y1="219.32" y2="219.32"/><linearGradient id="cX" x1="401.08" x2="410.88" xlink:href="#k" y1="209.77" y2="209.77"/><linearGradient id="cY" x1="331.01" x2="453.21" xlink:href="#k" y1="129.43" y2="129.43"/><linearGradient id="cZ" x1="292" x2="325.99" xlink:href="#k" y1="179.07" y2="179.07"/><linearGradient id="c0" x1="292" x2="325.99" xlink:href="#cE" y1="171.89" y2="171.89"/><linearGradient id="c1" x1="292" x2="325.99" xlink:href="#k" y1="169.34" y2="169.34"/><linearGradient id="c2" x1="292" x2="325.99" xlink:href="#cE" y1="162.16" y2="162.16"/><linearGradient id="c3" x1="292" x2="325.99" xlink:href="#k" y1="159.99" y2="159.99"/><linearGradient id="c4" gradientUnits="userSpaceOnUse" x1="292" x2="325.99" y1="152.81" y2="152.81"><stop offset="0" stop-color="#e6d48a"/><stop offset=".03" stop-color="#dcc77a"/><stop offset=".1" stop-color="#cbaf5e"/><stop offset=".16" stop-color="#be9e49"/><stop offset=".23" stop-color="#b7933d"/><stop offset=".29" stop-color="#b49039"/><stop offset=".34" stop-color="#b6933d"/><stop offset=".39" stop-color="#bb9a48"/><stop offset=".43" stop-color="#c4a75a"/><stop offset=".47" stop-color="#d1b974"/><stop offset=".5" stop-color="#dcca8c"/><stop offset=".99" stop-color="#b49039"/></linearGradient><linearGradient id="c5" gradientTransform="matrix(-1.05 -.03 .03 1.02 -1300.13 -27.38)" gradientUnits="userSpaceOnUse" x1="-1487.39" x2="-1497.03" y1="187.46" y2="171.38"><stop offset=".14" stop-opacity="0"/><stop offset=".18" stop-opacity=".06"/><stop offset="1" stop-opacity=".5"/></linearGradient><linearGradient id="c6" x1="265.61" x2="299.6" xlink:href="#k" y1="193.49" y2="193.49"/><linearGradient id="c7" x1="265.61" x2="299.6" xlink:href="#cE" y1="186.31" y2="186.31"/><linearGradient id="c8" x1="265.61" x2="299.6" xlink:href="#k" y1="183.76" y2="183.76"/><linearGradient id="c9" x1="265.61" x2="299.6" xlink:href="#cE" y1="176.58" y2="176.58"/><linearGradient id="da" x1="265.61" x2="299.6" xlink:href="#k" y1="174.41" y2="174.41"/><linearGradient id="db" x1="265.61" x2="299.6" xlink:href="#c4" y1="167.23" y2="167.23"/><linearGradient id="dc" x1="284.29" x2="318.61" xlink:href="#k" y1="186.27" y2="186.27"/><linearGradient id="dd" gradientTransform="matrix(.85842322 .51294208 -.51294208 .85842322 138.99 -128.33)" x1="290.35" x2="313.56" xlink:href="#c4" y1="199.19" y2="175.98"/><path d="m258.37 370-3.59-1.19c-12.71-4.21-14.67-12.88-4.38-19.38l28.6-18.01 49.61 16.42-28.61 18.05c-10.28 6.5-28.93 8.35-41.63 4.11z" fill="url(#a)"/><path d="m311.64 318.55.22 8.76-1.58 1.61-.22-8.75z" fill="url(#b)"/><path d="m279.86 323.36.22 8.76-3.6-2.29-.22-8.76z" fill="url(#c)"/><path d="m279.86 323.36 16.73 10.64-23.23-6.24a21.94 21.94 0 0 1 6.5-4.4z" fill="#fff"/><path d="m310.07 320.17a31.19 31.19 0 0 1 8.65 3.65 15.63 15.63 0 0 1 5.28 5.18l-27.41 5z" fill="#4c4242"/><path d="m311.64 318.55-1.57 1.62-13.48 13.83-16.73-10.63-3.6-2.29a46.33 46.33 0 0 1 11-3.36 59.28 59.28 0 0 1 12.42-.89 53.85 53.85 0 0 1 11.96 1.72z" fill="url(#d)"/><path d="m328.57 333.93v.28a8.47 8.47 0 0 1 -.12.88 7.6 7.6 0 0 1 -.17.8c0 .08 0 .16-.08.24s-.11.37-.17.55l-.12.31-.2.48c-.05.11-.1.22-.16.33l-.23.46c-.06.12-.14.25-.21.37l-.26.43c-.08.12-.16.25-.25.37s-.19.27-.29.41l-.35.46-.3.37-.41.46-.41.45c-.28.28-.57.56-.88.83l-.3.27-.64.54-.42.32c-.17.14-.35.27-.53.4l-.45.32-.56.38-.48.31-.59.35-.5.3-.62.34-.47.25q-.72.38-1.47.72l-1.17.51-.4.16-.82.33-.47.17-.78.28-.51.17-.71.23-.79.24-.65.19-.81.22-.66.17-.84.19-.67.16-.86.17-.86.17.22 8.75.37-.07.49-.1.86-.17.67-.15.83-.2.67-.17.81-.22.65-.19.79-.23.33-.11.38-.12.51-.18.77-.27.48-.18.82-.33.39-.15 1.18-.52q.75-.35 1.47-.72l.18-.09.29-.16.62-.34.5-.29.59-.36.48-.31.56-.37.45-.32.53-.4.29-.22.13-.11c.22-.17.43-.36.64-.54l.3-.26c.31-.28.6-.56.88-.84l.17-.18.24-.27.41-.46.3-.37c.12-.15.24-.3.35-.46l.11-.13.18-.28c.09-.12.17-.25.25-.37l.26-.43.21-.37.07-.12c.06-.11.11-.22.16-.33s.11-.22.16-.34l.2-.48.12-.31a.14.14 0 0 1 0-.06c.06-.16.1-.32.15-.49s0-.16.07-.24q.11-.39.18-.78a8.62 8.62 0 0 0 .11-.87c0-.1 0-.19 0-.28s0-.28 0-.42v-.29l-.22-8.75c.06.19.04.44.03.68z" fill="url(#e)"/><path d="m327.2 328.44a9.66 9.66 0 0 1 1.24 6.65 12.59 12.59 0 0 1 -3.61 6.49 26.38 26.38 0 0 1 -7.91 5.33 46.39 46.39 0 0 1 -11 3.36l-9.33-16.27 27.41-5z" fill="#6c6a6b"/><path d="m296.59 334 9.33 16.28 1.87 3.26a71.45 71.45 0 0 1 -14.92 1.06 64.53 64.53 0 0 1 -14.34-2.07 42 42 0 0 1 -11.59-4.9 20.79 20.79 0 0 1 -7.08-7 11.67 11.67 0 0 1 -1.49-8 15.13 15.13 0 0 1 4.34-7.78z" fill="#3f3c3a"/><path d="m306 362.61q1-.15 2-.33l-.21-8.75-2 .32-.65.09c-.45.07-.91.13-1.36.18l-.83.1-1.08.11-.87.07-1.08.08h-.92-.89c-.33 0-.65 0-1 0h-.89-1.66-1.72l-1.27-.06h-.75l-1.06-.08-.7-.05-1.13-.12-.63-.06-1.4-.18-.35-.05c-.6-.08-1.19-.18-1.78-.28-.58-.1-1.16-.21-1.73-.33l-1.14-.25-.63-.14c-.59-.13-1.17-.28-1.75-.43l-1.57-.45-.33-.11c-.41-.12-.81-.25-1.21-.39l-.29-.09-1.36-.49-.28-.11-1.16-.47-.21-.09-1.24-.55-.28-.13-1.09-.54-.12-.06c-.39-.2-.76-.41-1.12-.62l-.26-.15c-.37-.21-.73-.43-1.07-.65a20.79 20.79 0 0 1 -7.08-7 13.47 13.47 0 0 1 -1.21-2.81 11.6 11.6 0 0 1 -.45-2.91l.22 8.76a12 12 0 0 0 1.66 5.72 20.94 20.94 0 0 0 7.07 7l1.08.65.25.14c.37.21.74.42 1.13.62l.12.06 1.09.54.28.13 1.24.56.21.08 1.15.47.29.11.18.07 1.18.42.29.1 1.21.39.33.1 1.33.38.24.07 1.75.44.58.12 1.18.26 1.72.32c.58.1 1.17.2 1.76.28l.35.05 1.39.18.65.07 1 .1h.14l.72.06 1.05.07h.75.73.54 1.72 1.66.89 1 .9.48.43l1.09-.08.86-.07 1.09-.11.54-.06h.28l1.37-.19z" fill="url(#f)"/><path d="m296.44 250.6c-17.79 10.26-17.79 27 0 37.29s46.9 10.26 64.69 0 17.79-27 0-37.29-46.9-10.25-64.69 0z" fill="url(#g)" opacity=".3"/><path d="m307.88 256.43c-11.1 6.4-11.1 16.87 0 23.27s29.27 6.39 40.37 0 11.1-16.87 0-23.27-29.25-6.43-40.37 0z" fill="url(#h)" opacity=".3"/><path d="m305.47 246.27 22.65 12.97.04 26.08-22.63-13.11z" fill="url(#i)"/><path d="m305.47 246.27 22.55-13.05 22.57 13.03-22.47 12.99z" fill="#3f3c3a"/><path d="m328.12 259.24.04 26.08 22.5-13.1-.07-25.97z" fill="url(#j)"/><path d="m310.73 62.2a1.36 1.36 0 0 1 -.68-2.54l7.08-4.1a1.36 1.36 0 0 1 1.36 2.36l-7.08 4.08a1.38 1.38 0 0 1 -.68.2zm16.52-9.55a1.37 1.37 0 0 1 -1.18-.68 1.35 1.35 0 0 1 .5-1.86l7.07-4.11a1.36 1.36 0 1 1 1.36 2.37l-7.08 4.1a1.41 1.41 0 0 1 -.67.18zm16.51-9.55a1.35 1.35 0 0 1 -1.18-.68 1.37 1.37 0 0 1 .5-1.86l7.08-4.09a1.36 1.36 0 0 1 1.84.53 1.38 1.38 0 0 1 -.5 1.87l-7.08 4.09a1.36 1.36 0 0 1 -.66.14zm-229.13 148.42a1.37 1.37 0 0 1 -.63-2.52l7.08-4.09a1.36 1.36 0 0 1 1.36 2.36l-7.08 4.09a1.3 1.3 0 0 1 -.73.16zm16.52-9.52a1.36 1.36 0 0 1 -.68-2.54l7.08-4.1a1.36 1.36 0 1 1 1.36 2.36l-7.08 4.1a1.38 1.38 0 0 1 -.68.18zm16.52-9.55a1.36 1.36 0 0 1 -.68-2.54l7.07-4.09a1.36 1.36 0 1 1 1.37 2.36l-7.08 4.09a1.41 1.41 0 0 1 -.68.15z" fill="url(#k)"/><path d="m401.11 67.86a1.22 1.22 0 0 1 -.61-.17l-6.28-3.64a1.21 1.21 0 0 1 1.22-2.1l6.28 3.64a1.22 1.22 0 0 1 -.61 2.27zm-14.64-8.5a1.21 1.21 0 0 1 -.61-.16l-6.28-3.64a1.23 1.23 0 0 1 -.44-1.66 1.2 1.2 0 0 1 1.66-.44l6.28 3.64a1.21 1.21 0 0 1 -.61 2.26zm29.28 17a1.21 1.21 0 0 1 -.61-.16l-6.28-3.64a1.21 1.21 0 1 1 1.22-2.1l6.28 3.64a1.21 1.21 0 0 1 -.61 2.26zm-43.92-25.5a1.21 1.21 0 0 1 -.61-.16l-6.28-3.64a1.21 1.21 0 0 1 1.22-2.1l6.28 3.64a1.21 1.21 0 0 1 -.61 2.26zm-14.64-8.49a1.22 1.22 0 0 1 -.61-.17l-6.28-3.64a1.21 1.21 0 1 1 1.22-2.1l6.28 3.64a1.22 1.22 0 0 1 .43 1.66 1.2 1.2 0 0 1 -1.04.61z" fill="url(#l)"/><path d="m59.97 254.6 76.84-45.56-13.31-7.68-78.04 44.86z" fill="url(#m)" opacity=".7"/><path d="m121.87 152.75a2.36 2.36 0 0 1 2.38-.24l2.28 1.33a2.33 2.33 0 0 0 -2.38.23l-3.93 2.27-2.28-1.34z" fill="url(#n)"/><path d="m120.22 156.34-2.28-1.33-71.99 41.56 2.29 1.33z" fill="url(#o)"/><path d="m48.24 197.9.13 47.5 71.99-41.56-.14-47.5z" fill="url(#p)"/><path d="m44.52 197.4 1.43-.83 2.29 1.33-1.44.83a7.36 7.36 0 0 0 -3.34 5.79l.11 39.79a2.33 2.33 0 0 0 1 2.15l-2.28-1.32a2.34 2.34 0 0 1 -1-2.15l-.11-39.8a7.36 7.36 0 0 1 3.34-5.79z" fill="url(#q)"/><path d="m124.15 154.07c1.85-1.07 3.35-.21 3.36 1.92l.11 39.8a7.31 7.31 0 0 1 -3.34 5.78l-3.93 2.27-.13-47.5z" fill="url(#r)"/><path d="m46.8 198.73 1.44-.83.13 47.5-1.44.83c-1.85 1.07-3.35.21-3.36-1.92l-.11-39.79a7.36 7.36 0 0 1 3.34-5.79z" fill="url(#s)"/><path d="m122.33 180.24c0 1 .71 1.42 1.59.91a3.52 3.52 0 0 0 1.6-2.75c0-1-.72-1.41-1.6-.91a3.51 3.51 0 0 0 -1.59 2.75z" fill="#fff"/><path d="m45.88 228.92h.07a1 1 0 0 0 .42-.81v-9.71c0-.31-.19-.45-.42-.32h-.07a1 1 0 0 0 -.42.8v9.72c0 .32.19.46.42.32z" fill="#fff"/><path d="m64.13 226.31 41.31-23.85v-26.23l-41.31 23.85z" fill="#3f3c3a"/><path d="m67.22 228.36 41.31-23.85v-26.23l-41.31 23.85z" fill="url(#t)"/><path d="m102.65 201.74 1.49-.86v-10.69l-1.49.86z" fill="#4c4242"/><path d="m99.74 203.42 1.49-.86v-3.12l-1.49.86z" fill="#fff"/><path d="m96.83 205.1 1.49-.85v-8.49l-1.49.86z" fill="#4c4242"/><path d="m93.92 206.78 1.49-.85v-6.34l-1.49.85z" fill="#fff"/><path d="m91.01 208.47 1.49-.86v-11.17l-1.49.86z" fill="#fff"/><path d="m77.16 204.82c0 1.34.94 1.87 2.11 1.2a4.62 4.62 0 0 0 2.1-3.62c0-1.34-.94-1.87-2.1-1.2a4.61 4.61 0 0 0 -2.11 3.62z" fill="#4c4242"/><g fill="#fff"><path d="m77.55 211.47 8.6-5a.92.92 0 0 0 .39-.75c0-.29-.17-.43-.39-.3l-8.6 5a.93.93 0 0 0 -.4.75c0 .29.18.42.4.3z"/><path d="m72.38 214.45 3.46-2a.92.92 0 0 0 .39-.75c0-.29-.17-.42-.39-.3l-3.46 2a.93.93 0 0 0 -.39.75c.01.29.17.43.39.3z"/><path d="m77.55 215.47 8.6-5a.93.93 0 0 0 .39-.75c0-.29-.17-.43-.39-.3l-8.6 5a.93.93 0 0 0 -.4.75c0 .29.18.42.4.3z"/><path d="m72.38 218.45 3.46-2a.92.92 0 0 0 .39-.75c0-.29-.17-.42-.39-.3l-3.46 2a.92.92 0 0 0 -.39.75c.01.29.17.42.39.3z"/><path d="m81 210.5-8.6 5a.92.92 0 0 0 -.39.75c0 .29.17.42.39.3l8.6-5a.94.94 0 0 0 .4-.75c-.02-.29-.2-.43-.4-.3z"/><path d="m86.15 207.52-3.46 2a1 1 0 0 0 -.39.76c0 .29.17.42.39.29l3.46-2a1 1 0 0 0 .39-.76c0-.29-.17-.42-.39-.29z"/></g><path d="m363.47 433.4-24.17-13.96 19.58-11.16 25.52 13.18z" fill="url(#u)" opacity=".6"/><path d="m378.89 383.97-24.26 14.03 24.26 14.02 24.17-14.02z" fill="#1c1714"/><path d="m378.89 412.02v12.64l24.17-14.02v-12.64z" fill="url(#v)"/><path d="m354.63 398v12.63l24.26 14.03v-12.64z" fill="url(#w)"/><path d="m378.89 411.52-23.83-13.77-.43.25 24.26 14.02 24.17-14.02-.44-.25z" fill="url(#x)"/><path d="m378.89 367.7-24.26 14.02 24.26 14.03 24.17-14.03z" fill="#1c1714"/><path d="m378.89 395.75v12.64l24.17-14.03v-12.64z" fill="url(#y)"/><path d="m354.63 381.72v12.64l24.26 14.03v-12.64z" fill="url(#z)"/><path d="m378.89 395.25-23.83-13.78-.43.25 24.26 14.03 24.17-14.03-.44-.25z" fill="url(#A)"/><path d="m378.89 350.86-24.26 14.03 24.26 14.03 24.17-14.03z" fill="#1c1714"/><path d="m378.89 378.92v12.64l24.17-14.03v-12.64z" fill="url(#B)"/><path d="m354.63 364.89v12.64l24.26 14.03v-12.64z" fill="url(#C)"/><path d="m378.89 378.41-23.83-13.77-.43.25 24.26 14.03 24.17-14.03-.44-.25z" fill="url(#D)"/><path d="m378.89 334.06-24.26 14.03 24.26 14.03 24.17-14.03z" fill="url(#E)"/><path d="m378.89 362.12v12.63l24.17-14.02v-12.64z" fill="url(#F)"/><path d="m354.63 348.09v12.64l24.26 14.02v-12.63z" fill="url(#G)"/><path d="m378.89 361.61-23.83-13.77-.43.25 24.26 14.03 24.17-14.03-.44-.25z" fill="url(#H)"/><path d="m331.11 452.34-24.17-13.96 19.58-11.16 25.52 13.19z" fill="url(#I)" opacity=".6"/><path d="m346.53 402.91-24.26 14.03 24.26 14.02 24.17-14.02z" fill="#1c1714"/><path d="m346.53 430.96v12.64l24.17-14.02v-12.64z" fill="url(#J)"/><path d="m322.27 416.94v12.64l24.26 14.02v-12.64z" fill="url(#K)"/><path d="m346.53 430.46-23.83-13.77-.43.25 24.26 14.02 24.17-14.02-.44-.25z" fill="url(#L)"/><path d="m346.53 386.64-24.26 14.02 24.26 14.03 24.17-14.03z" fill="#1c1714"/><path d="m346.53 414.69v12.64l24.17-14.03v-12.64z" fill="url(#M)"/><path d="m322.27 400.66v12.64l24.26 14.03v-12.64z" fill="url(#N)"/><path d="m346.53 414.19-23.83-13.78-.43.25 24.26 14.03 24.17-14.03-.44-.25z" fill="url(#O)"/><path d="m346.53 369.8-24.26 14.03 24.26 14.03 24.17-14.03z" fill="#1c1714"/><path d="m346.53 397.86v12.64l24.17-14.03v-12.64z" fill="url(#P)"/><path d="m322.27 383.83v12.64l24.26 14.03v-12.64z" fill="url(#Q)"/><path d="m346.53 397.35-23.83-13.77-.43.25 24.26 14.03 24.17-14.03-.44-.25z" fill="url(#R)"/><path d="m346.53 353-24.26 14.03 24.26 14.03 24.17-14.03z" fill="url(#S)"/><path d="m346.53 381.06v12.63l24.17-14.02v-12.64z" fill="url(#T)"/><path d="m322.27 367.03v12.64l24.26 14.02v-12.63z" fill="url(#U)"/><path d="m346.53 380.55-23.83-13.77-.43.25 24.26 14.03 24.17-14.03-.44-.25z" fill="url(#V)"/><path d="m167.47 77.29 131.87-76.14c2.54-1.46 4.89-.28 4.9 2.64v101.8a10.18 10.18 0 0 1 -4.6 8l-131.87 76.1c-2.54 1.46-4.62.28-4.62-2.64l-.25-92.59v-9.21a10.13 10.13 0 0 1 4.57-7.96z" fill="url(#W)" opacity=".7"/><path d="m167.47 76.77 131.87-76.14c2.54-1.47 4.89-.29 4.9 2.64v101.8a10.18 10.18 0 0 1 -4.6 8l-131.87 76.09c-2.54 1.47-4.62.29-4.62-2.63l-.25-92.59v-9.22a10.11 10.11 0 0 1 4.57-7.95z" fill="none" opacity=".85"/><path d="m174.92 159.91-.03-3.32 118.2-68.12v3.34z" fill="#6c6a6b"/><path d="m174.92 168.17-.03-3.32 118.2-68.13v3.34z" fill="#6c6a6b"/><path d="m174.89 173.04 64.45-37.14v3.34l-64.45 37.14z" fill="#6c6a6b"/><path d="m255.73 54.3a9.58 9.58 0 0 0 -4.33 7.5l.11 39.93c0 2.76 2 3.86 4.36 2.48a9.5 9.5 0 0 0 4.33-7.49 9.5 9.5 0 0 1 -4.33 7.49c-2.38 1.38-4.35.28-4.36-2.48v-5.54a9.58 9.58 0 0 1 4.33-7.5c2.4-1.38 4.34-.27 4.35 2.49l-.1-34.4c0-2.76-1.95-3.87-4.35-2.48" fill="url(#X)"/><path d="m255.83 88.69a9.58 9.58 0 0 0 -4.33 7.5v5.54c0 2.76 2 3.86 4.36 2.48a9.5 9.5 0 0 0 4.33-7.49v-5.54c0-2.76-1.95-3.87-4.35-2.49" fill="url(#Y)"/><path d="m269.59 46.3a9.49 9.49 0 0 0 -4.32 7.49l.11 39.94c0 2.75 1.95 3.86 4.36 2.48a9.53 9.53 0 0 0 4.32-7.5 9.53 9.53 0 0 1 -4.32 7.5c-2.41 1.38-4.35.27-4.36-2.48l-.08-28.73a9.57 9.57 0 0 1 4.33-7.5c2.37-1.39 4.37-.26 4.37 2.5v-11.19c0-2.76-1.95-3.87-4.36-2.48" fill="url(#Z)"/><path d="m269.63 57.49a9.57 9.57 0 0 0 -4.33 7.51l.08 28.74c0 2.75 1.95 3.86 4.36 2.48a9.53 9.53 0 0 0 4.32-7.5l-.06-28.72c0-2.73-2-3.86-4.35-2.48" fill="url(#aa)"/><path d="m283.46 38.29a9.54 9.54 0 0 0 -4.33 7.5l.12 39.93c0 2.76 1.95 3.87 4.35 2.48a9.5 9.5 0 0 0 4.33-7.49 9.5 9.5 0 0 1 -4.33 7.49c-2.4 1.39-4.35.28-4.35-2.48v-10.53a9.5 9.5 0 0 1 4.32-7.47c2.4-1.39 4.35-.28 4.36 2.46l-.08-29.41c0-2.76-2-3.87-4.36-2.48" fill="url(#ab)"/><path d="m283.54 67.72a9.5 9.5 0 0 0 -4.32 7.47v10.53c0 2.76 1.95 3.87 4.35 2.48a9.5 9.5 0 0 0 4.33-7.49v-10.53c0-2.74-2-3.85-4.36-2.46" fill="url(#ac)"/><path d="m176.19 152.63v-4l3.41-2v4zm3.47-2v-4l3.41-2v4l-3.42 2m3.48-2v-4l3.41-2v4zm3.47-2v-4l3.41-2v4l-3.42 2m3.48-2v-4l3.41-2v4zm3.48-2v-4l3.42-2v4l-3.41 2m3.47-2v-4l3.43-2v4zm3.48-2v-4l3.43-2v4zm3.47-2v-4l3.43-2v4l-3.44 2m3.48-2v-4l3.43-2v4zm3.47-2v-4l3.44-2v4zm3.48-2v-4l3.43-2v4zm3.48-2v-4l3.44-2v4l-3.43 2m3.47-2v-4l3.43-2v4zm3.48-2v-4l3.43-2v4zm3.47-2v-4l3.43-2v4l-3.44 2m3.48-2v-4l3.43-2v4zm3.49-2v-4l3.41-2v4l-3.42 2m3.48-2v-4l3.41-2v4zm-62.59 32v-4l3.41-2v4zm3.47-2v-4l3.41-2v4zm3.48-2v-4l3.41-2v4zm3.47-2v-4l3.41-2v4zm3.48-2v-4l3.41-2v4zm3.47-2v-4l3.41-2v4l-3.42 2m3.48-2v-4l3.43-2v4zm3.48-2v-4l3.44-2v4l-3.43 2m3.47-2v-4l3.43-2v4zm3.48-2v-4l3.43-2v4zm3.47-2v-4l3.43-2v4zm3.48-2v-4l3.43-2v4zm3.47-2v-4l3.43-2v4l-3.44 2m3.48-2v-4l3.43-2v4zm3.47-2v-4l3.44-2v4zm3.48-2v-4l3.43-2v4zm3.48-2v-4l3.44-2v4l-3.43 2m3.49-2v-4l3.41-2v4zm3.48-2v-4l3.41-2v4zm-62.59 32v-4l3.41-2v4zm3.47-2v-4l3.41-2v4zm3.48-2v-4l3.42-2v4l-3.41 2m3.47-2v-4l3.41-2v4zm3.48-2v-4l3.41-2v4zm3.47-2v-4l3.41-2v4zm3.48-2v-4l3.43-2v4zm3.47-2v-4l3.44-2v4zm3.48-2v-4l3.43-2v4zm3.48-2v-4l3.44-2v4l-3.43 2m3.47-2v-4l3.43-2v4zm3.48-2v-4l3.43-2v4zm3.47-2v-4l3.43-2v4zm3.48-2v-4l3.43-2v4zm3.47-2v-4l3.43-2v4l-3.44 2m3.48-2v-4l3.43-2v4zm3.47-2v-4l3.44-2v4zm3.5-2v-4l3.41-2v4zm3.48-2v-4l3.41-2v4zm-62.6 32v-4l3.41-2v4zm3.48-2v-4l3.41-2v4zm3.47-2v-4l3.41-2v4l-3.42 2m3.48-2v-4l3.41-2v4zm3.48-2v-4l3.42-2v4l-3.41 2m3.47-2v-4l3.41-2v4zm3.48-2v-4l3.43-2v4zm3.47-2v-4l3.43-2v4l-3.44 2m3.48-2v-4l3.43-2v4zm3.47-2v-4l3.43-2v4l-3.44 2m3.48-2v-4l3.43-2v4zm3.48-2v-4l3.44-2v4l-3.43 2m3.47-2v-4l3.43-2v4zm3.48-2v-4l3.44-2v4l-3.43 2m3.47-2v-4l3.43-2v4zm3.48-2v-4l3.43-2v4zm3.47-2v-4l3.43-2v4l-3.44 2m3.5-2v-4l3.41-2v4zm3.48-2v-4l3.42-2v4l-3.41 2m-62.6 32v-4l3.41-2v4zm3.48-2v-4l3.41-2v4zm3.47-2v-4l3.41-2v4zm3.48-2v-4l3.41-2v4zm3.47-2v-4l3.41-2v4l-3.42 2m3.48-2v-4l3.41-2v4zm3.47-2v-4l3.44-2v4zm3.48-2v-4l3.43-2v4zm3.48-2v-4l3.43-2v4zm3.47-2v-4l3.43-2v4zm3.48-2v-4l3.43-2v4zm3.47-2v-4l3.43-2v4l-3.44 2m3.48-2v-4l3.43-2v4zm3.47-2v-4l3.44-2v4zm3.48-2v-4l3.43-2v4zm3.48-2v-4l3.44-2v4l-3.43 2m3.47-2v-4l3.43-2v4zm3.5-2v-4l3.41-2v4zm3.47-2v-4l3.41-2v4l-3.42 2m-62.59 32v-4l3.41-2v4zm3.48-2v-4l3.42-2v4l-3.41 2m3.47-2v-4l3.41-2v4zm3.48-2v-4l3.41-2v4zm3.47-2v-4l3.41-2v4zm3.48-2v-4l3.41-2v4zm3.47-2v-4l3.44-2v4zm3.48-2v-4l3.43-2v4zm3.48-2v-4l3.44-2v4l-3.43 2m3.47-2v-4l3.43-2v4zm3.48-2v-4l3.44-2v4l-3.43 2m3.47-2v-4l3.43-2v4zm3.48-2v-4l3.43-2v4zm3.47-2v-4l3.43-2v4l-3.44 2m3.48-2v-4l3.43-2v4zm3.47-2v-4l3.44-2v4zm3.48-2v-4l3.43-2v4zm3.5-2v-4.63l3.41-2v4l-3.41 2m3.47-2v-4l3.41-2v4zm-62.59 32v-4l3.41-2v4zm3.47-2v-4l3.41-2v4l-3.42 2m3.48-2v-4l3.41-2v4zm3.48-2v-4l3.41-2v4zm3.47-2v-4l3.41-2v4zm3.48-2v-4l3.42-2v4l-3.41 2m3.47-2v-4l3.43-2v4l-3.38 2m3.48-2v-4l3.43-2v4zm3.47-2v-4l3.43-2v4l-3.44 2m3.48-2v-4l3.43-2v4zm3.47-2v-4l3.44-2v4zm3.48-2v-4l3.43-2v4zm3.48-2v-4l3.44-2v4l-3.43 2m3.47-2v-4l3.43-2v4zm3.48-2v-4l3.43-2v4zm3.47-2v-4l3.43-2v4l-3.44 2m3.48-2v-4l3.43-2v4zm3.5-2v-4l3.41-2v4zm3.47-2v-4l3.41-2v4zm-62.59 32v-4l3.41-2v4zm3.47-2v-4l3.41-2v4zm3.48-2v-4l3.41-2v4zm3.47-2v-4l3.41-2v4zm3.48-2v-4l3.41-2v4l-3.44 2m3.47-2v-4l3.42-2v4zm3.48-2v-4l3.43-2v4l-3.38 2m3.48-2v-4l3.44-2v4l-3.43 2m3.47-2v-4l3.43-2v4zm3.48-2v-4l3.43-2v4zm3.47-2v-4l3.43-2v4l-3.44 2m3.48-2v-4l3.43-2v4zm3.47-2v-4l3.44-2v4zm3.48-2v-4l3.43-2v4zm3.48-2v-4l3.44-2v4l-3.43 2m3.47-2v-4l3.43-2v4zm3.48-2v-4l3.44-2v4l-3.43 2m3.49-2v-4l3.41-2v4zm3.48-2v-4l3.41-2v4zm-62.59 32v-4l3.42-2v4l-3.41 2m3.47-2v-4l3.41-2v4zm3.48-2v-4l3.41-2v4zm3.47-2v-4l3.41-2v4zm3.48-2v-4l3.41-2v4zm3.47-2v-4l3.41-2v4l-3.42 2m3.48-2v-4l3.43-2v4zm3.47-2v-4l3.44-2v4zm3.48-2v-4l3.43-2v4zm3.48-2v-4l3.44-2v4l-3.43 2m3.47-2v-4l3.43-2v4zm3.48-2v-4l3.43-2v4zm3.47-2v-4l3.43-2v4l-3.44 2m3.48-2v-4l3.43-2v4zm3.47-2v-4l3.44-2v4zm3.48-2v-4l3.43-2v4zm3.47-2v-4l3.44-2v4zm3.5-2v-4l3.41-2v4zm3.48-2v-4l3.41-2v4zm-62.6 32v-4l3.41-2v4zm3.48-2v-4l3.41-2v4zm3.47-2v-4l3.41-2v4l-3.42 2m3.48-2v-4l3.41-2v4zm3.48-2v-4l3.42-2v4l-3.41 2m3.47-2v-4l3.41-2v4zm3.48-2v-4l3.43-2v4zm3.47-2v-4l3.43-2v4l-3.44 2m3.48-2v-4l3.43-2v4zm3.47-2v-4l3.44-2v4zm3.48-2v-4l3.43-2v4zm3.48-2v-4l3.44-2v4l-3.43 2m3.47-2v-4l3.43-2v4zm3.48-2v-4l3.43-2v4zm3.47-2v-4l3.43-2v4l-3.44 2m3.48-2v-4l3.43-2v4zm3.47-2v-4l3.43-2v4l-3.44 2m3.5-2v-4l3.41-2v4zm3.48-2v-4l3.42-2v4l-3.41 2m-62.6 32v-4l3.41-2v4zm3.48-2v-4l3.41-2v4zm3.47-2v-4l3.41-2v4zm3.48-2v-4l3.41-2v4zm3.47-2v-4l3.41-2v4l-3.42 2m3.48-2v-4l3.41-2v4zm3.48-2v-4l3.44-2v4l-3.43 2m3.47-2v-4l3.43-2v4zm3.48-2v-4l3.43-2v4zm3.47-2v-4l3.43-2v4zm3.48-2v-4l3.43-2v4zm3.47-2v-4l3.43-2v4l-3.44 2m3.48-2v-4l3.43-2v4zm3.47-2v-4l3.44-2v4zm3.48-2v-4l3.43-2v4zm3.48-2v-4l3.44-2v4l-3.43 2m3.47-2v-4l3.43-2v4zm3.5-2v-4l3.41-2v4zm3.47-2v-4l3.41-2v4l-3.42 2m-62.59 32v-4l3.41-2v4zm3.48-2v-4l3.42-2v4l-3.41 2m3.47-2v-4l3.41-2v4zm3.48-2v-4l3.41-2v4zm3.47-2v-4l3.41-2v4zm3.48-2v-4l3.41-2v4zm3.47-2v-4l3.44-2v4zm3.48-2v-4l3.43-2v4zm3.48-2v-4l3.44-2v4l-3.43 2m3.47-2v-4l3.43-2v4zm3.48-2v-4l3.43-2v4zm3.47-2v-4l3.43-2v4zm3.48-2v-4l3.43-2v4zm3.47-2v-4l3.43-2v4l-3.44 2m3.48-2v-4l3.43-2v4zm3.47-2v-4l3.44-2v4zm3.48-2v-4l3.43-2v4zm3.5-2v-4l3.41-2v4zm3.47-2v-4l3.41-2v4zm7.05-8.16-73.05 42.17v.08l3.34-1.93v4l-3.35 1.94v.07l3.35-1.93v4l-3.35 1.93v.07l3.35-1.93v4l-3.35 1.93v.07l3.35-1.93v4l-3.35 1.93v.08l3.32-2.39v4l-3.3 2 3.3-1.9v4l-3.34 1.94v.07l3.34-1.93v4l-3.35 1.93v.07l3.35-1.93v4l-3.35 1.93v.08l3.35-1.94v4l-3.35 1.93v.08l3.35-1.93v4l-3.35 1.94v.07l3.35-1.93v4l-3.34 1.93v.07l3.34-1.93v4l-3.34 1.93v.08l73.05-42.18v-.08l-3.58 2.07v-4l3.59-2.06v-.08l-3.59 2.07v-4l3.59-2.07v-.07l-3.59 2.07v-4l3.58-2.07v-.07l-3.58 2.07v-4l3.58-2.07v-.07l-3.58 2.06v-4l3.64-2.08-3.58 2v-4l3.57-2v-.08l-3.58 2.07v-4l3.58-2.07v-.07l-3.59 2.07v-4l3.59-2.07v-.07l-3.59 2.07v-4l3.58-2.07v-.08l-3.58 2.07v-4l3.58-2.06v-.21l-3.58 2.07v-4l3.58-2.07v-.07l-3.58 2.07v-4l3.58-2.07v-.07" fill="#fff" opacity=".17"/><path d="m231.55 101.73c-1.25.6-2.17 2.28-2.83 4.31.42.71.8 1.46 1.18 2.14 1 1.78 2.24 3.37 4.16 3.43s4.21-1.31 6.34-1.88c-.8-.77-1.58-1.6-2.34-2.48-1.86-2.15-3.65-6.45-6.18-5.65a1.89 1.89 0 0 0 -.33.13m-36.31 2.56a3.82 3.82 0 0 0 -1 .71c-2.69 2.61-3.28 8.73-3.93 13.58-.48 3.62-1.28 7.34-3 9.64-2.2 2.95-5.05 3.2-7.37 5.95-3.49 4.12-3 12.21-4 19.26 4-3.89 5.1-10.09 7.88-15.39 1.42-2.7 2.47-6.62 4.94-8.09a2.68 2.68 0 0 1 .33-.18c2.18-1.05 3.89.65 5 2.43.79 1.3 1.36 2.89 2.43 3.83a2.23 2.23 0 0 0 2.61.33 8.7 8.7 0 0 0 3.25-3.58c1.59-2.82 2-6.07 3.22-9 .75-1.9 1.87-3.49 3-4a1.93 1.93 0 0 1 2.59.87c.51.72 1.12 2 2.14 1.7l.19-.07c1.07-.52 1.76-2.42 2.19-3.61s.78-2.34 1.13-3.51a28.22 28.22 0 0 0 -1.39-2.75c-1.09-1.8-2.43-2.73-3.59-2.18-.89.43-1.68 1.74-2.14 4.22-.3 1.61-.57 4.13-1.55 4.87l-.19.11c-1.07.52-2.09-1.37-2.74-2.54-1.73-3.11-3-7-4.93-9.8-1.41-2.08-3.22-3.6-5.09-2.7" fill="url(#ad)"/><path d="m223.26 103.46c-1.86.9-3.33 3.19-4.35 5.51a48.41 48.41 0 0 0 -2 6.09c-.35 1.17-.7 2.35-1.13 3.51s-1.12 3.09-2.19 3.61l-.19.07c-1 .32-1.63-1-2.14-1.7a1.93 1.93 0 0 0 -2.59-.87c-1.16.56-2.28 2.15-3 4-1.17 3-1.63 6.23-3.22 9a8.7 8.7 0 0 1 -3.25 3.58 2.23 2.23 0 0 1 -2.61-.33c-1.07-.94-1.64-2.53-2.43-3.83-1.09-1.78-2.8-3.48-5-2.43a2.68 2.68 0 0 0 -.33.18c-2.47 1.47-3.52 5.39-4.94 8.09-2.78 5.3-3.91 11.5-7.88 15.39l69.64-40.21s-.09-23.94-.38-27.87c-.8 6-3.29 12.27-7.37 10.34s-2.18 8.09-2.88 11.45a2.7 2.7 0 0 1 -5.06 1c-.38-.68-.76-1.43-1.18-2.14-1.06-1.76-2.37-3.28-4.43-2.92a4.15 4.15 0 0 0 -1 .34" fill="#6c6a6b"/><path d="m152 256.05-1.44-.83c-5.1-2.95-4.56-7.94 1.22-11.14l11.54-6.41 20.56 11.23-12.18 6.67c-5.81 3.21-14.63 3.43-19.7.48z" fill="url(#ae)" opacity=".6"/><path d="m188.32 237.68v4.6c0 2.58-1.65 5.17-5.06 7.13-6.78 3.91-17.8 3.9-24.63 0a12 12 0 0 1 -3.83-3.32 6.63 6.63 0 0 1 -1.3-3.77v-4.66c0 2.56 1.74 5.12 5.13 7.09 6.83 3.94 17.85 3.95 24.63 0 3.38-1.95 5.06-4.51 5.06-7.07z" fill="url(#af)"/><path d="m188.32 237.62v.06c0 2.56-1.68 5.12-5.06 7.07-6.78 3.91-17.8 3.9-24.63 0-3.39-2-5.1-4.53-5.13-7.09s1.66-5.16 5.06-7.13c6.77-3.91 17.8-3.9 24.62 0 3.4 1.97 5.11 4.53 5.14 7.09z" fill="url(#ag)"/><path d="m188.32 229.44v4.56c0 2.58-1.65 5.17-5.06 7.13-6.78 3.91-17.8 3.9-24.63 0a12 12 0 0 1 -3.83-3.32 6.63 6.63 0 0 1 -1.3-3.77v-4.65c0 2.56 1.74 5.12 5.13 7.08 6.83 3.94 17.85 4 24.63 0 3.38-1.91 5.06-4.47 5.06-7.03z" fill="url(#ah)"/><path d="m188.32 229.38v.06c0 2.56-1.68 5.12-5.06 7.06-6.78 3.92-17.8 3.9-24.63 0-3.39-2-5.1-4.52-5.13-7.08s1.66-5.17 5.06-7.13c6.77-3.92 17.8-3.9 24.62 0 3.4 1.96 5.11 4.53 5.14 7.09z" fill="url(#ai)"/><path d="m188.32 220.76v4.6c0 2.58-1.65 5.17-5.06 7.13-6.78 3.91-17.8 3.9-24.63 0a12 12 0 0 1 -3.83-3.32 6.63 6.63 0 0 1 -1.3-3.77v-4.7c0 2.56 1.74 5.12 5.13 7.09 6.83 3.94 17.85 4 24.63 0 3.38-1.91 5.06-4.47 5.06-7.03z" fill="url(#aj)"/><path d="m188.32 220.7v.06c0 2.56-1.68 5.12-5.06 7.07-6.78 3.91-17.8 3.9-24.63 0-3.39-2-5.1-4.53-5.13-7.09s1.66-5.16 5.06-7.13c6.77-3.91 17.8-3.9 24.62 0 3.4 1.97 5.11 4.53 5.14 7.09z" fill="url(#ak)"/><path d="m174 224.51a6.09 6.09 0 0 1 -2.62.74 9.63 9.63 0 0 1 -3.25-.35 12.19 12.19 0 0 1 -1.76-.6l-1.51.87-2.76-1.59 1.46-.84a10.09 10.09 0 0 1 -1.44-1.18 5.23 5.23 0 0 1 -1.35-1.83l3.6-.75a5 5 0 0 0 1.11 1.58 5.64 5.64 0 0 0 .72.66 8.81 8.81 0 0 0 1.16.8 7.26 7.26 0 0 0 1.68.74 2 2 0 0 0 1.58-.1c.34-.19.38-.45.13-.76l-.07-.09a10 10 0 0 0 -1.39-1.18l-.86-.7a11.4 11.4 0 0 1 -1-1 2.09 2.09 0 0 1 -.64-1.52c0-.55.48-1.08 1.37-1.59a6.38 6.38 0 0 1 2.64-.78 10.1 10.1 0 0 1 3.25.32 14.15 14.15 0 0 1 1.48.48l1.55-.89 2.75 1.59-1.43.83a11.27 11.27 0 0 1 1.3 1 5.08 5.08 0 0 1 1.3 1.63l-3.58.75a5.33 5.33 0 0 0 -1.64-1.89 9.55 9.55 0 0 0 -.91-.59 5.9 5.9 0 0 0 -2-.78h-.21a1.75 1.75 0 0 0 -1.13.17c-.31.17-.4.39-.26.64a.55.55 0 0 0 .09.14 8.92 8.92 0 0 0 1.48 1.34l.56.46a15.34 15.34 0 0 1 1.31 1.21 2 2 0 0 1 .61 1.51c.02.53-.42 1.04-1.32 1.55z" fill="url(#al)"/><path d="m118.87 271.7-1.44-.83c-5.1-2.95-4.55-7.94 1.23-11.14l11.54-6.41 20.55 11.23-12.18 6.67c-5.78 3.21-14.57 3.42-19.7.48z" fill="url(#am)" opacity=".6"/><path d="m157.79 251.77v4.6c0 2.58-1.66 5.16-5.06 7.12-6.78 3.92-17.8 3.9-24.63 0a12 12 0 0 1 -3.83-3.32 6.6 6.6 0 0 1 -1.3-3.76v-4.66c0 2.56 1.74 5.12 5.13 7.08 6.83 3.95 17.85 4 24.63 0 3.38-1.94 5.06-4.5 5.06-7.06z" fill="url(#an)"/><path d="m157.79 251.71v.06c0 2.56-1.68 5.12-5.06 7.07-6.78 3.91-17.8 3.9-24.63 0-3.39-2-5.1-4.52-5.13-7.08s1.66-5.16 5.06-7.13c6.77-3.91 17.8-3.9 24.62 0 3.4 1.96 5.11 4.52 5.14 7.08z" fill="url(#ao)"/><path d="m157.79 243.52v4.6c0 2.58-1.66 5.17-5.06 7.13-6.78 3.91-17.8 3.9-24.63 0a12.14 12.14 0 0 1 -3.83-3.32 6.63 6.63 0 0 1 -1.3-3.77v-4.66c0 2.56 1.74 5.12 5.13 7.09 6.83 3.94 17.85 3.95 24.63 0 3.38-1.95 5.06-4.51 5.06-7.07z" fill="url(#ap)"/><path d="m157.79 243.46v.06c0 2.56-1.68 5.12-5.06 7.07-6.78 3.91-17.8 3.9-24.63 0-3.39-2-5.1-4.53-5.13-7.09s1.66-5.16 5.06-7.13c6.77-3.91 17.8-3.9 24.62 0 3.4 1.97 5.11 4.53 5.14 7.09z" fill="url(#aq)"/><path d="m157.79 234.85v4.6c0 2.58-1.66 5.16-5.06 7.12-6.78 3.92-17.8 3.9-24.63 0a12 12 0 0 1 -3.83-3.32 6.6 6.6 0 0 1 -1.3-3.76v-4.66c0 2.56 1.74 5.12 5.13 7.08 6.83 3.94 17.85 4 24.63 0 3.38-1.91 5.06-4.5 5.06-7.06z" fill="url(#ar)"/><path d="m157.79 234.79v.06c0 2.56-1.68 5.12-5.06 7.07-6.78 3.91-17.8 3.89-24.63 0-3.39-2-5.1-4.52-5.13-7.08s1.66-5.16 5.06-7.13c6.77-3.91 17.8-3.9 24.62 0 3.4 1.96 5.11 4.52 5.14 7.08z" fill="url(#as)"/><path d="m143.51 238.59a6.09 6.09 0 0 1 -2.62.75 9.89 9.89 0 0 1 -3.25-.35 12.26 12.26 0 0 1 -1.76-.61l-1.51.88-2.76-1.59 1.46-.84a10.81 10.81 0 0 1 -1.44-1.18 5.32 5.32 0 0 1 -1.35-1.83l3.6-.75a5.1 5.1 0 0 0 1.11 1.58 6.4 6.4 0 0 0 .72.65 8.87 8.87 0 0 0 1.16.81 6.78 6.78 0 0 0 1.68.73 2 2 0 0 0 1.58-.09.45.45 0 0 0 .13-.77l-.07-.08a8.8 8.8 0 0 0 -1.39-1.18l-.86-.7a13 13 0 0 1 -1-1 2.1 2.1 0 0 1 -.64-1.53c0-.55.48-1.07 1.37-1.59a6.23 6.23 0 0 1 2.64-.77 9.75 9.75 0 0 1 3.24.32 10.33 10.33 0 0 1 1.49.48l1.55-.9 2.75 1.6-1.43.82a11.27 11.27 0 0 1 1.3 1 5.2 5.2 0 0 1 1.31 1.63l-3.58.74a5.22 5.22 0 0 0 -1.64-1.88 8 8 0 0 0 -.91-.6 5.94 5.94 0 0 0 -2-.77h-.21a1.82 1.82 0 0 0 -1.13.16c-.31.18-.4.39-.27.64a.65.65 0 0 0 .1.15 9.92 9.92 0 0 0 1.48 1.34c.2.16.39.31.56.46a17 17 0 0 1 1.31 1.21 2 2 0 0 1 .61 1.51c-.03.54-.47 1.05-1.33 1.55z" fill="url(#at)"/><path d="m473.84 268.71-5.63-2.61a34.78 34.78 0 0 1 -6.25 1.5l-.75 4.15h-10.16l-.8-4.15a35 35 0 0 1 -6.27-1.5l-5.6 2.61-7.21-4.16 4.5-3.25a11.58 11.58 0 0 1 -2.62-3.63l-7.16-.45v-5.88l7.15-.45a11.7 11.7 0 0 1 2.58-3.63l-4.56-3.26 7.15-4.16 5.63 2.62a34.07 34.07 0 0 1 6.26-1.46l.75-4.15h10.15l.8 4.15a34.17 34.17 0 0 1 6.27 1.51l5.6-2.62 7.21 4.16-4.5 3.25a11.82 11.82 0 0 1 2.61 3.63l7.17.45v5.88l-7.16.45a11.39 11.39 0 0 1 -2.57 3.63l4.53 3.25zm-11-5.7a19.84 19.84 0 0 0 4.89-2 11.69 11.69 0 0 0 3.37-2.84l.38-.54a5.93 5.93 0 0 0 0-6.78q-.18-.27-.39-.54a11.69 11.69 0 0 0 -3.4-2.83 19.46 19.46 0 0 0 -4.91-2l-.92-.23a28.23 28.23 0 0 0 -11.72 0l-.92.23a19.31 19.31 0 0 0 -4.89 2 11.54 11.54 0 0 0 -3.37 2.83l-.38.54a5.91 5.91 0 0 0 0 6.78c.12.19.25.36.39.54a11.58 11.58 0 0 0 3.4 2.84 19.84 19.84 0 0 0 4.91 2l.92.22a27.89 27.89 0 0 0 11.72 0z" fill="url(#au)"/><path d="m482.12 236.61-.02 5.24-4.49 3.26.01-5.24z" fill="url(#av)"/><path d="m436.82 239.86-.01 5.25-4.54-3.26.02-5.24z" fill="url(#aw)"/><path d="m473.78 246.93v5.24a6.22 6.22 0 0 0 -1.08-3.44 6.55 6.55 0 0 0 -.39-.53 11.85 11.85 0 0 0 -3.4-2.84 20 20 0 0 0 -4.91-2l-.93-.22a27.85 27.85 0 0 0 -11.71 0l-.92.22a19.53 19.53 0 0 0 -4.89 2 11.56 11.56 0 0 0 -3.37 2.84 6.42 6.42 0 0 0 -.38.53 6.11 6.11 0 0 0 -1 3.35v-5.24a6.28 6.28 0 0 1 1.05-3.35 6.55 6.55 0 0 1 .39-.53 11.36 11.36 0 0 1 3.36-2.84 19.46 19.46 0 0 1 4.89-2c.31-.08.61-.16.93-.22a27.85 27.85 0 0 1 11.71 0c.31.06.62.14.93.22a19.53 19.53 0 0 1 4.9 2 11.43 11.43 0 0 1 3.4 2.84 6.55 6.55 0 0 1 .39.53 6.21 6.21 0 0 1 1.03 3.44z" fill="url(#ax)"/><path d="m427.12 249.83-.01 5.24-.04-5.88.02-5.25z" fill="url(#ay)"/><path d="m487.44 249.83-.02 5.24-7.16.45.02-5.24z" fill="url(#az)"/><path d="m434.29 250.28-.02 5.24-7.16-.45.01-5.24z" fill="url(#aA)"/><path d="m480.28 250.28v5.24a11.66 11.66 0 0 1 -2.57 3.63v-5.25a11.55 11.55 0 0 0 2.57-3.62z" fill="url(#aB)"/><path d="m436.9 253.9v5.25a11.7 11.7 0 0 1 -2.62-3.63v-5.24a11.67 11.67 0 0 0 2.62 3.62z" fill="url(#aC)"/><path d="m469.45 258.7v5.24a34 34 0 0 1 -6.25 1.5v-5.24a34.89 34.89 0 0 0 6.25-1.5z" fill="url(#aD)"/><path d="m451.48 260.2v5.25a35.12 35.12 0 0 1 -6.28-1.51v-5.24a35 35 0 0 0 6.28 1.5z" fill="url(#aE)"/><path d="m482.24 257.16-.02 5.24-7.16 4.16.02-5.24z" fill="url(#aF)"/><path d="m475.08 261.32-.02 5.24-5.63-2.62.02-5.24z" fill="url(#aG)"/><path d="m445.21 258.7-.02 5.24-5.59 2.62.01-5.24z" fill="url(#aH)"/><path d="m439.61 261.32-.01 5.24-7.21-4.16.01-5.24z" fill="url(#aI)"/><path d="m463.19 260.2-.01 5.24-.76 4.15.02-5.24z" fill="url(#aJ)"/><path d="m452.28 264.35-.01 5.24-.81-4.14.02-5.25z" fill="url(#aK)"/><path d="m475.08 261.32-5.63-2.62a34.89 34.89 0 0 1 -6.26 1.5l-.75 4.15h-10.16l-.8-4.15a35 35 0 0 1 -6.27-1.5l-5.6 2.62-7.21-4.16 4.5-3.26a11.67 11.67 0 0 1 -2.61-3.62l-7.17-.45v-5.89l7.16-.45a11.5 11.5 0 0 1 2.57-3.63l-4.53-3.25 7.16-4.16 5.63 2.62a34.78 34.78 0 0 1 6.25-1.5l.75-4.15h10.16l.8 4.14a35.88 35.88 0 0 1 6.27 1.51l5.6-2.62 7.21 4.16-4.5 3.25a11.7 11.7 0 0 1 2.62 3.63l7.16.45v5.89l-7.16.45a11.55 11.55 0 0 1 -2.58 3.62l4.54 3.26zm-11-5.71a19.53 19.53 0 0 0 4.89-2 11.56 11.56 0 0 0 3.37-2.84 6.42 6.42 0 0 0 .38-.53 5.93 5.93 0 0 0 0-6.79 6.55 6.55 0 0 0 -.39-.53 11.43 11.43 0 0 0 -3.4-2.84 19.53 19.53 0 0 0 -4.9-2c-.31-.08-.62-.16-.93-.22a27.85 27.85 0 0 0 -11.71 0c-.32.06-.62.14-.93.22a19.46 19.46 0 0 0 -4.89 2 11.36 11.36 0 0 0 -3.36 2.84 6.55 6.55 0 0 0 -.39.53 5.94 5.94 0 0 0 0 6.79 6.55 6.55 0 0 0 .39.53 11.71 11.71 0 0 0 3.4 2.84 19.84 19.84 0 0 0 4.91 2l.93.22a27.85 27.85 0 0 0 11.71 0z" fill="url(#aL)"/><path d="m462.44 264.35-.02 5.24h-10.15l.01-5.24z" fill="url(#aM)"/><path d="m367.87 99.92-4.48-2.08a27.43 27.43 0 0 1 -5 1.19l-.6 3.31h-8.1l-.61-3.34a27.64 27.64 0 0 1 -5-1.19l-4.46 2.08-5.74-3.32 3.58-2.57a9.17 9.17 0 0 1 -2.08-2.89l-5.71-.35v-4.69l5.71-.36a9.17 9.17 0 0 1 2-2.89l-3.61-2.59 5.7-3.32 4.53 2.09a27.75 27.75 0 0 1 5-1.2l.6-3.3h8.09l.64 3.3a27.55 27.55 0 0 1 5 1.2l4.46-2.09 5.74 3.32-3.58 2.59a9.13 9.13 0 0 1 2.05 2.9l5.71.36v4.68l-5.7.36a9.22 9.22 0 0 1 -2.01 2.88l3.61 2.59zm-8.75-4.55a15.74 15.74 0 0 0 3.9-1.56 9.15 9.15 0 0 0 2.68-2.26 4.15 4.15 0 0 0 .3-.43 4.69 4.69 0 0 0 0-5.4 3.85 3.85 0 0 0 -.31-.43 9.41 9.41 0 0 0 -2.69-2.29 16.13 16.13 0 0 0 -3.91-1.56l-.74-.18a22.56 22.56 0 0 0 -9.33 0l-.74.18a15.67 15.67 0 0 0 -3.93 1.56 9.22 9.22 0 0 0 -2.69 2.26c-.11.14-.21.29-.3.43a4.71 4.71 0 0 0 0 5.4 4.25 4.25 0 0 0 .31.43 9.18 9.18 0 0 0 2.71 2.26 15.81 15.81 0 0 0 3.91 1.56c.24.07.49.13.74.18a22.23 22.23 0 0 0 9.33 0c.25 0 .49-.11.73-.18z" fill="url(#aN)"/><path d="m374.47 74.34-.02 4.18-3.58 2.59.01-4.17z" fill="url(#aO)"/><path d="m338.38 76.94-.01 4.17-3.61-2.59.01-4.18z" fill="url(#aP)"/><path d="m367.82 82.57v4.17a5 5 0 0 0 -.87-2.74c-.09-.14-.19-.29-.3-.43a9.6 9.6 0 0 0 -2.71-2.26 16.13 16.13 0 0 0 -3.94-1.56l-.74-.17a22.23 22.23 0 0 0 -9.33 0l-.74.17a15.82 15.82 0 0 0 -3.89 1.56 9.38 9.38 0 0 0 -2.69 2.26c-.11.14-.21.29-.3.43a4.94 4.94 0 0 0 -.84 2.67v-4.18a4.89 4.89 0 0 1 .83-2.66c.09-.15.2-.29.3-.43a9.2 9.2 0 0 1 2.69-2.26 15.44 15.44 0 0 1 3.89-1.56c.24-.07.49-.13.74-.18a22.23 22.23 0 0 1 9.33 0c.25 0 .49.11.74.18a15.74 15.74 0 0 1 3.91 1.56 9.31 9.31 0 0 1 2.71 2.26c.11.14.21.28.31.43a4.94 4.94 0 0 1 .9 2.74z" fill="url(#aQ)"/><path d="m330.65 84.87-.01 4.18-.03-4.69.02-4.18z" fill="url(#aR)"/><path d="m378.7 84.87-.01 4.18-5.7.36.01-4.18z" fill="url(#aS)"/><path d="m336.36 85.23-.01 4.18-5.71-.36.01-4.18z" fill="url(#aT)"/><path d="m373 85.23v4.18a9.45 9.45 0 0 1 -2.05 2.89v-4.18a9.33 9.33 0 0 0 2.05-2.89z" fill="url(#aU)"/><path d="m338.44 88.12v4.18a9.4 9.4 0 0 1 -2.08-2.89v-4.18a9.45 9.45 0 0 0 2.08 2.89z" fill="url(#aV)"/><path d="m364.37 91.94v4.18a27.43 27.43 0 0 1 -5 1.19v-4.17a28.3 28.3 0 0 0 5-1.2z" fill="url(#aW)"/><path d="m350.06 93.14v4.17a27.64 27.64 0 0 1 -5-1.19v-4.18a28.52 28.52 0 0 0 5 1.2z" fill="url(#aX)"/><path d="m374.56 90.71-.01 4.18-5.71 3.31.02-4.17z" fill="url(#aY)"/><path d="m368.86 94.03-.02 4.17-4.48-2.08.01-4.18z" fill="url(#aZ)"/><path d="m345.06 91.94-.01 4.18-4.46 2.08.01-4.17z" fill="url(#a0)"/><path d="m340.6 94.03-.01 4.17-5.74-3.31.01-4.18z" fill="url(#a1)"/><path d="m359.39 93.14-.01 4.17-.6 3.31.01-4.18z" fill="url(#a2)"/><path d="m350.7 96.44-.02 4.18-.63-3.31.01-4.17z" fill="url(#a3)"/><path d="m368.86 94-4.49-2.09a28.3 28.3 0 0 1 -5 1.2l-.6 3.3h-8.07l-.64-3.3a28.52 28.52 0 0 1 -5-1.2l-4.46 2.09-5.74-3.32 3.58-2.59a9.45 9.45 0 0 1 -2.08-2.89l-5.71-.36v-4.69l5.7-.35a9.22 9.22 0 0 1 2.05-2.89l-3.61-2.6 5.7-3.31 4.51 2.11a27.43 27.43 0 0 1 5-1.19l.6-3.31h8.09l.64 3.31a27.85 27.85 0 0 1 5 1.19l4.4-2.11 5.74 3.31-3.59 2.6a9.21 9.21 0 0 1 2.12 2.92l5.71.35v4.69l-5.7.36a9.33 9.33 0 0 1 -2.01 2.89l3.61 2.59zm-8.75-4.55a15.82 15.82 0 0 0 3.89-1.53 9.17 9.17 0 0 0 2.68-2.26c.11-.14.21-.29.31-.43a4.72 4.72 0 0 0 0-5.4c-.1-.15-.2-.29-.31-.43a9.31 9.31 0 0 0 -2.71-2.26 15.74 15.74 0 0 0 -3.97-1.56c-.25-.07-.49-.13-.74-.18a22.23 22.23 0 0 0 -9.33 0c-.25 0-.5.11-.74.18a15.44 15.44 0 0 0 -3.89 1.56 9.2 9.2 0 0 0 -2.69 2.26c-.1.14-.21.28-.3.43a4.72 4.72 0 0 0 0 5.4c.1.14.2.29.31.43a9.33 9.33 0 0 0 2.71 2.26 16 16 0 0 0 3.91 1.56l.74.18a22.56 22.56 0 0 0 9.33 0l.74-.18z" fill="url(#a4)"/><path d="m358.79 96.44-.01 4.18h-8.1l.02-4.18z" fill="url(#a5)"/><path d="m351.08 128-3.08-1.47a18.8 18.8 0 0 1 -3.48.83l-.42 2.32h-5.66l-.45-2.31a19.55 19.55 0 0 1 -3.49-.84l-3.17 1.47-4-2.31 2.5-1.81a6.5 6.5 0 0 1 -1.45-2l-4-.25v-3.28l4-.25a6.42 6.42 0 0 1 1.43-2l-2.53-1.81 4-2.32 3.14 1.46a19.23 19.23 0 0 1 3.48-.84l.42-2.31h5.66l.44 2.31a19.55 19.55 0 0 1 3.49.84l3.12-1.46 4 2.32-2.53 1.71a6.54 6.54 0 0 1 1.46 2l4 .25v3.28l-4 .25a6.59 6.59 0 0 1 -1.43 2l2.52 1.81zm-6.08-3.19a10.77 10.77 0 0 0 2.72-1.1 6.35 6.35 0 0 0 1.87-1.57l.22-.3a3.31 3.31 0 0 0 0-3.78 2.73 2.73 0 0 0 -.21-.3 6.52 6.52 0 0 0 -1.9-1.58 11 11 0 0 0 -2.73-1.09l-.51-.13a15.62 15.62 0 0 0 -6.53 0l-.51.13a11 11 0 0 0 -2.72 1.09 6.42 6.42 0 0 0 -1.88 1.58 2.73 2.73 0 0 0 -.21.3 3.29 3.29 0 0 0 0 3.78l.21.3a6.5 6.5 0 0 0 1.9 1.57 10.69 10.69 0 0 0 2.73 1.1l.52.12a15.57 15.57 0 0 0 6.52 0l.52-.12z" fill="url(#a6)"/><path d="m355.69 110.11-.01 2.92-2.5 1.81.01-2.92z" fill="url(#a7)"/><path d="m330.46 111.92v2.92l-2.53-1.81.01-2.92z" fill="url(#a8)"/><path d="m351.05 115.85v2.92a3.4 3.4 0 0 0 -.61-1.91c-.06-.1-.14-.2-.21-.3a6.52 6.52 0 0 0 -1.9-1.58 11 11 0 0 0 -2.73-1.09l-.52-.13a15.57 15.57 0 0 0 -6.52 0l-.51.13a10.82 10.82 0 0 0 -2.72 1.09 6.42 6.42 0 0 0 -1.88 1.58 2.73 2.73 0 0 0 -.21.3 3.4 3.4 0 0 0 -.59 1.86v-2.92a3.4 3.4 0 0 1 .59-1.86 2.73 2.73 0 0 1 .21-.3 6.37 6.37 0 0 1 1.87-1.58 11.13 11.13 0 0 1 2.68-1.06l.52-.13a15.57 15.57 0 0 1 6.52 0l.52.13a11 11 0 0 1 2.73 1.09 6.52 6.52 0 0 1 1.9 1.58l.21.3a3.4 3.4 0 0 1 .65 1.88z" fill="url(#a9)"/><path d="m325.06 117.47v2.92l-.02-3.28.01-2.92z" fill="url(#ba)"/><path d="m358.65 117.47-.01 2.92-3.98.25.01-2.92z" fill="url(#bb)"/><path d="m329.06 117.72-.01 2.92-3.99-.25v-2.92z" fill="url(#bc)"/><path d="m354.67 117.72v2.92a6.46 6.46 0 0 1 -1.44 2v-2.92a6.63 6.63 0 0 0 1.44-2z" fill="url(#bd)"/><path d="m330.51 119.74v2.92a6.5 6.5 0 0 1 -1.45-2v-2.92a6.71 6.71 0 0 0 1.45 2z" fill="url(#be)"/><path d="m348.63 122.41v2.92a18.71 18.71 0 0 1 -3.49.83v-2.92a18.42 18.42 0 0 0 3.49-.83z" fill="url(#bf)"/><path d="m338.63 123.25v2.91a18.71 18.71 0 0 1 -3.49-.83v-2.92a19.55 19.55 0 0 0 3.49.84z" fill="url(#bg)"/><path d="m355.76 121.55-.01 2.92-3.99 2.31.01-2.92z" fill="url(#bh)"/><path d="m351.77 123.86-.01 2.92-3.13-1.45v-2.92z" fill="url(#bi)"/><path d="m335.14 122.41-.01 2.92-3.12 1.45.01-2.92z" fill="url(#bj)"/><path d="m332.02 123.86-.01 2.92-4.01-2.31.01-2.92z" fill="url(#bk)"/><path d="m345.15 123.25-.01 2.91-.42 2.31.01-2.91z" fill="url(#bl)"/><path d="m339.07 125.56v2.91l-.45-2.31.01-2.91z" fill="url(#bm)"/><path d="m351.77 123.86-3.14-1.45a18.42 18.42 0 0 1 -3.48.83l-.42 2.32h-5.65l-.45-2.31a19.55 19.55 0 0 1 -3.49-.84l-3.14 1.45-4-2.31 2.5-1.81a6.71 6.71 0 0 1 -1.46-2l-4-.25v-3.28l4-.25a6.46 6.46 0 0 1 1.44-2l-2.53-1.81 4-2.32 3.13 1.46a19.55 19.55 0 0 1 3.49-.84l.42-2.31h5.65l.45 2.31a19.55 19.55 0 0 1 3.49.84l3.12-1.46 4 2.32-2.5 1.81a6.5 6.5 0 0 1 1.45 2l4 .25v3.28l-4 .25a6.63 6.63 0 0 1 -1.44 2l2.53 1.81zm-6.12-3.17a10.62 10.62 0 0 0 2.72-1.1 6.4 6.4 0 0 0 1.88-1.57 2.73 2.73 0 0 0 .21-.3 3.29 3.29 0 0 0 0-3.78l-.21-.3a6.52 6.52 0 0 0 -1.9-1.58 11 11 0 0 0 -2.75-1.06l-.52-.13a15.57 15.57 0 0 0 -6.52 0l-.56.13a11.13 11.13 0 0 0 -2.72 1.09 6.37 6.37 0 0 0 -1.87 1.58 2.73 2.73 0 0 0 -.21.3 3.29 3.29 0 0 0 0 3.78 2.73 2.73 0 0 0 .21.3 6.68 6.68 0 0 0 1.9 1.58 11 11 0 0 0 2.73 1.09l.52.12a15.57 15.57 0 0 0 6.52 0l.51-.12z" fill="url(#bn)"/><path d="m344.73 125.56-.01 2.91h-5.65v-2.91z" fill="url(#bo)"/><path d="m426.36 179.24-3.13-1.45a18.71 18.71 0 0 1 -3.49.83l-.42 2.31h-5.65l-.45-2.31a18.71 18.71 0 0 1 -3.49-.83l-3.12 1.45-4-2.31 2.5-1.81a6.5 6.5 0 0 1 -1.45-2l-4-.25v-3.28l4-.25a6.63 6.63 0 0 1 1.44-2l-2.53-1.81 4-2.32 3.14 1.46a19.23 19.23 0 0 1 3.48-.84l.42-2.31h5.66l.44 2.31a19.55 19.55 0 0 1 3.49.84l3.12-1.46 4 2.32-2.5 1.81a6.71 6.71 0 0 1 1.46 2l4 .25v3.28l-4 .25a6.46 6.46 0 0 1 -1.44 2l2.53 1.81zm-6.11-3.17a11.15 11.15 0 0 0 2.75-1.07 6.22 6.22 0 0 0 1.87-1.58 3.15 3.15 0 0 0 .22-.29 3.31 3.31 0 0 0 0-3.78 2.73 2.73 0 0 0 -.21-.3 6.52 6.52 0 0 0 -1.9-1.58 11 11 0 0 0 -2.73-1.09l-.51-.13a15.62 15.62 0 0 0 -6.53 0l-.51.13a11 11 0 0 0 -2.72 1.09 6.42 6.42 0 0 0 -1.98 1.53 2.73 2.73 0 0 0 -.21.3 3.29 3.29 0 0 0 0 3.78l.21.29a6.37 6.37 0 0 0 2 1.63 11.06 11.06 0 0 0 2.73 1.1l.52.12a15.57 15.57 0 0 0 6.52 0l.52-.12z" fill="url(#bp)"/><path d="m430.97 161.37-.01 2.92-2.5 1.81.01-2.92z" fill="url(#bq)"/><path d="m405.75 163.18-.01 2.92-2.53-1.81.01-2.92z" fill="url(#br)"/><path d="m426.33 167.11v2.89a3.4 3.4 0 0 0 -.61-1.91c-.06-.1-.14-.2-.21-.3a6.52 6.52 0 0 0 -1.9-1.58 10.67 10.67 0 0 0 -2.73-1.09l-.52-.13a15.57 15.57 0 0 0 -6.52 0l-.51.13a10.67 10.67 0 0 0 -2.73 1.09 6.5 6.5 0 0 0 -1.87 1.58 2.73 2.73 0 0 0 -.21.3 3.4 3.4 0 0 0 -.59 1.86v-2.92a3.47 3.47 0 0 1 .58-1.86l.22-.3a6.37 6.37 0 0 1 1.87-1.58 11.13 11.13 0 0 1 2.72-1.09l.52-.13a15.57 15.57 0 0 1 6.52 0l.52.13a11 11 0 0 1 2.73 1.09 6.52 6.52 0 0 1 1.9 1.58l.21.3a3.4 3.4 0 0 1 .61 1.94z" fill="url(#bs)"/><path d="m400.34 168.72-.01 2.93-.01-3.28v-2.92z" fill="url(#bt)"/><path d="m433.93 168.72-.01 2.92-3.98.26v-2.92z" fill="url(#bu)"/><path d="m404.33 168.98v2.92l-4-.25.01-2.93z" fill="url(#bv)"/><path d="m429.94 169v2.92a6.63 6.63 0 0 1 -1.44 2v-2.92a6.42 6.42 0 0 0 1.44-2z" fill="url(#bw)"/><path d="m405.79 171v2.92a6.5 6.5 0 0 1 -1.45-2v-2.92a6.71 6.71 0 0 0 1.45 2z" fill="url(#bx)"/><path d="m423.91 173.67v2.92a18.71 18.71 0 0 1 -3.49.83v-2.92a18.42 18.42 0 0 0 3.49-.83z" fill="url(#by)"/><path d="m413.91 174.5v2.92a18.71 18.71 0 0 1 -3.49-.83v-2.92a18.71 18.71 0 0 0 3.49.83z" fill="url(#bz)"/><path d="m431.04 172.81-.01 2.92-3.99 2.31.01-2.92z" fill="url(#bA)"/><path d="m427.05 175.12-.01 2.92-3.13-1.45v-2.92z" fill="url(#bB)"/><path d="m410.42 173.67-.01 2.92-3.12 1.45.01-2.92z" fill="url(#bC)"/><path d="m407.3 175.12-.01 2.92-4.01-2.31.01-2.92z" fill="url(#bD)"/><path d="m420.43 174.5-.01 2.92-.42 2.31.01-2.92z" fill="url(#bE)"/><path d="m414.36 176.81-.01 2.92-.45-2.31.01-2.92z" fill="url(#bF)"/><path d="m427.05 175.12-3.14-1.45a18.42 18.42 0 0 1 -3.48.83l-.42 2.31h-5.66l-.44-2.31a18.71 18.71 0 0 1 -3.49-.83l-3.12 1.45-4-2.31 2.5-1.81a6.71 6.71 0 0 1 -1.46-2l-4-.25v-3.28l4-.25a6.59 6.59 0 0 1 1.43-2l-2.52-1.81 4-2.32 3.13 1.46a19.65 19.65 0 0 1 3.48-.84l.43-2.31h5.65l.45 2.31a19.55 19.55 0 0 1 3.49.84l3.12-1.46 4 2.32-2.5 1.81a6.5 6.5 0 0 1 1.45 2l4 .25v3.28l-4 .25a6.42 6.42 0 0 1 -1.43 2l2.53 1.81zm-6.12-3.12a11 11 0 0 0 2.72-1.1 6.27 6.27 0 0 0 1.88-1.58 1.94 1.94 0 0 0 .21-.29 3.29 3.29 0 0 0 0-3.78l-.21-.3a6.52 6.52 0 0 0 -1.9-1.58 11 11 0 0 0 -2.73-1.09l-.52-.13a15.57 15.57 0 0 0 -6.52 0l-.52.13a11.13 11.13 0 0 0 -2.72 1.09 6.37 6.37 0 0 0 -1.87 1.58l-.22.3a3.31 3.31 0 0 0 0 3.78 2.73 2.73 0 0 0 .21.3 6.5 6.5 0 0 0 1.9 1.57 11.06 11.06 0 0 0 2.73 1.1l.51.12a15.62 15.62 0 0 0 6.53 0l.51-.12z" fill="url(#bG)"/><path d="m420.01 176.81-.01 2.92h-5.65l.01-2.92z" fill="url(#bH)"/><path d="m242.21 310.6a1.36 1.36 0 0 1 -.68-2.54l7.08-4.09a1.36 1.36 0 0 1 1.36 2.36l-7.07 4.09a1.42 1.42 0 0 1 -.69.18zm16.52-9.55a1.36 1.36 0 0 1 -.68-2.54l7.08-4.09a1.36 1.36 0 0 1 1.36 2.36l-7.08 4.09a1.38 1.38 0 0 1 -.68.18zm16.52-9.55a1.36 1.36 0 0 1 -.69-2.54l7.09-4.09a1.36 1.36 0 0 1 1.36 2.36l-7.08 4.09a1.41 1.41 0 0 1 -.68.18zm16.51-9.5a1.37 1.37 0 0 1 -.68-2.55l7.08-4.09a1.36 1.36 0 0 1 1.36 2.36l-7.08 4.09a1.27 1.27 0 0 1 -.68.19zm-114.92 66.2a1.36 1.36 0 0 1 -.69-2.54l7.08-4.09a1.36 1.36 0 1 1 1.36 2.36l-7.07 4.07a1.41 1.41 0 0 1 -.68.16zm16.51-9.55a1.36 1.36 0 0 1 -.68-2.54l7.08-4.09a1.36 1.36 0 1 1 1.36 2.36l-7.11 4.05a1.38 1.38 0 0 1 -.65.18zm16.52-9.54a1.37 1.37 0 0 1 -.69-2.55l7.09-4.09a1.36 1.36 0 1 1 1.36 2.36l-7.08 4.09a1.32 1.32 0 0 1 -.68.15zm16.51-9.55a1.4 1.4 0 0 1 -1.18-.68 1.37 1.37 0 0 1 .5-1.86l7.08-4.1a1.36 1.36 0 0 1 1.36 2.36l-7.07 4.1a1.42 1.42 0 0 1 -.69.14zm80.67-47.11a1.37 1.37 0 0 1 -1.18-.68 1.35 1.35 0 0 1 .5-1.86l7.07-4.1a1.37 1.37 0 0 1 1.86.5 1.36 1.36 0 0 1 -.49 1.86l-7.08 4.09a1.3 1.3 0 0 1 -.68.15z" fill="url(#bI)"/><path d="m102.64 342.11a1.22 1.22 0 0 1 -.61-.17l-6.28-3.64a1.21 1.21 0 0 1 1.25-2.1l6.28 3.65a1.23 1.23 0 0 1 .44 1.66 1.24 1.24 0 0 1 -1.08.6zm-14.64-8.5a1.21 1.21 0 0 1 -.61-.16l-6.28-3.64a1.21 1.21 0 1 1 1.22-2.1l6.28 3.64a1.21 1.21 0 0 1 -.61 2.26zm29.28 17a1.21 1.21 0 0 1 -.61-.16l-6.28-3.64a1.21 1.21 0 1 1 1.22-2.1l6.28 3.64a1.21 1.21 0 0 1 -.61 2.26zm-43.92-25.5a1.21 1.21 0 0 1 -.61-.16l-6.28-3.64a1.21 1.21 0 1 1 1.22-2.1l6.31 3.64a1.21 1.21 0 0 1 .44 1.66 1.19 1.19 0 0 1 -1.08.6zm-14.65-8.49a1.28 1.28 0 0 1 -.61-.17l-6.27-3.64a1.21 1.21 0 0 1 1.22-2.1l6.27 3.64a1.22 1.22 0 0 1 -.61 2.27zm-14-8.57a1.26 1.26 0 0 1 -.61-.16l-6.27-3.64a1.21 1.21 0 1 1 1.22-2.1l6.27 3.64a1.21 1.21 0 0 1 -.61 2.26zm7.32-26.16a1.13 1.13 0 0 1 -.61-.17l-6.27-3.64a1.21 1.21 0 1 1 1.25-2.08l6.27 3.64a1.21 1.21 0 0 1 .44 1.65 1.23 1.23 0 0 1 -1.05.6zm-14.64-8.5a1.21 1.21 0 0 1 -.61-.16l-6.27-3.64a1.21 1.21 0 1 1 1.22-2.1l6.27 3.64a1.22 1.22 0 0 1 .44 1.66 1.21 1.21 0 0 1 -1.02.6zm-14.61-8.49a1.22 1.22 0 0 1 -.61-.17l-6.27-3.64a1.21 1.21 0 1 1 1.22-2.1l6.27 3.64a1.22 1.22 0 0 1 -.61 2.27zm-15.29-8.9a1.22 1.22 0 0 1 -.61-.17l-6.28-3.64a1.23 1.23 0 0 1 -.44-1.66 1.22 1.22 0 0 1 1.66-.44l6.28 3.64a1.22 1.22 0 0 1 -.61 2.27zm24.6 44.46a1.37 1.37 0 0 1 -.68-2.55l7.08-4.09a1.36 1.36 0 1 1 1.36 2.36l-7.08 4.09a1.3 1.3 0 0 1 -.68.19zm16.52-9.55a1.36 1.36 0 0 1 -.68-2.54l7.08-4.1a1.36 1.36 0 1 1 1.36 2.36l-7.08 4.1a1.41 1.41 0 0 1 -.68.18zm-14.45-59.13a1.36 1.36 0 0 1 -.68-2.54l7.08-4.09a1.35 1.35 0 0 1 1.86.5 1.37 1.37 0 0 1 -.5 1.86l-7.08 4.09a1.31 1.31 0 0 1 -.68.18zm-29 16.94a1.37 1.37 0 0 1 -.68-2.55l7.08-4.09a1.36 1.36 0 0 1 1.36 2.36l-7.08 4.09a1.3 1.3 0 0 1 -.69.19zm14.67-8.44a1.36 1.36 0 0 1 -.68-2.54l7.08-4.1a1.36 1.36 0 0 1 1.35 2.36l-7.08 4.1a1.41 1.41 0 0 1 -.68.18z" fill="url(#bJ)"/><path d="m490.82 182.48a1.36 1.36 0 0 1 -.68-2.54l7.08-4.09a1.36 1.36 0 0 1 1.36 2.36l-7.08 4.09a1.29 1.29 0 0 1 -.68.18zm16.18-9.63a1.36 1.36 0 0 1 -.68-2.54l7.07-4.09a1.36 1.36 0 1 1 1.37 2.35l-7.08 4.1a1.41 1.41 0 0 1 -.68.18zm-32.15 18.56a1.36 1.36 0 0 1 -.68-2.54l7.08-4.09a1.34 1.34 0 0 1 1.86.5 1.37 1.37 0 0 1 -.5 1.86l-7.08 4.09a1.41 1.41 0 0 1 -.71.18zm47.65-27.34a1.35 1.35 0 0 1 -1.18-.68 1.37 1.37 0 0 1 .5-1.86l7.08-4.09a1.36 1.36 0 0 1 1.86.49 1.38 1.38 0 0 1 -.5 1.87l-7.08 4.09a1.38 1.38 0 0 1 -.71.18zm16.95-10.19a1.37 1.37 0 0 1 -.68-2.55l7.08-4.09a1.36 1.36 0 0 1 1.36 2.36l-7.08 4.09a1.3 1.3 0 0 1 -.71.19z" fill="url(#bK)"/><path d="m563.1 271.79a1.36 1.36 0 0 1 -.69-2.54l7.08-4.09a1.34 1.34 0 0 1 1.86.5 1.36 1.36 0 0 1 -.49 1.86l-7.08 4.09a1.41 1.41 0 0 1 -.68.18z" fill="url(#bL)"/><path d="m581.56 261a1.37 1.37 0 0 1 -.68-2.55l7.08-4.09a1.35 1.35 0 0 1 1.86.5 1.37 1.37 0 0 1 -.5 1.86l-7.08 4.09a1.32 1.32 0 0 1 -.68.19z" fill="url(#bM)"/><path d="m546.58 281.34a1.36 1.36 0 0 1 -.68-2.54l7.08-4.1a1.36 1.36 0 1 1 1.36 2.36l-7.08 4.1a1.38 1.38 0 0 1 -.68.18z" fill="url(#bN)"/><path d="m530.33 290.53a1.37 1.37 0 0 1 -.68-2.55l7.08-4.09a1.36 1.36 0 1 1 1.36 2.36l-7.09 4.09a1.3 1.3 0 0 1 -.67.19z" fill="url(#bO)"/><path d="m228.36 201.74a1.21 1.21 0 0 1 -.61-.16l-6.27-3.64a1.21 1.21 0 0 1 1.22-2.1l6.27 3.64a1.22 1.22 0 0 1 .44 1.66 1.21 1.21 0 0 1 -1.05.6z" fill="url(#bP)"/><path d="m213.72 193.25a1.28 1.28 0 0 1 -.61-.17l-6.27-3.64a1.21 1.21 0 0 1 1.22-2.1l6.27 3.65a1.21 1.21 0 0 1 -.61 2.26z" fill="url(#bQ)"/><path d="m199.08 184.75a1.26 1.26 0 0 1 -.61-.16l-6.27-3.59a1.21 1.21 0 0 1 1.22-2.1l6.27 3.64a1.21 1.21 0 0 1 -.61 2.26z" fill="url(#bR)"/><path d="m421.28 315.77a1.21 1.21 0 0 1 -.61-.16l-6.28-3.61a1.21 1.21 0 0 1 1.22-2.1l6.28 3.64a1.22 1.22 0 0 1 .44 1.66 1.21 1.21 0 0 1 -1.05.57zm-14.64-8.49a1.22 1.22 0 0 1 -.61-.17l-6.28-3.64a1.21 1.21 0 0 1 1.22-2.1l6.28 3.65a1.21 1.21 0 0 1 -.61 2.26zm43.36 25.66a1.26 1.26 0 0 1 -.61-.16l-6.27-3.65a1.21 1.21 0 0 1 1.22-2.1l6.27 3.65a1.21 1.21 0 0 1 -.61 2.26zm-14.64-8.5a1.24 1.24 0 0 1 -.61-.16l-6.27-3.64a1.21 1.21 0 1 1 1.22-2.1l6.27 3.64a1.21 1.21 0 0 1 -.61 2.26zm-43.36-25.66a1.21 1.21 0 0 1 -.61-.16l-6.28-3.62a1.23 1.23 0 0 1 -.44-1.66 1.21 1.21 0 0 1 1.66-.44l6.28 3.64a1.21 1.21 0 0 1 -.61 2.26zm-14.95-8.63a1.21 1.21 0 0 1 -.61-.16l-6.28-3.65a1.22 1.22 0 0 1 -.44-1.65 1.2 1.2 0 0 1 1.66-.44l6.28 3.64a1.21 1.21 0 0 1 -.61 2.26zm-14.64-8.5a1.21 1.21 0 0 1 -.61-.16l-6.28-3.64a1.21 1.21 0 0 1 1.22-2.1l6.28 3.64a1.22 1.22 0 0 1 .43 1.66 1.19 1.19 0 0 1 -1.04.6zm-14.65-8.5a1.26 1.26 0 0 1 -.61-.16l-6.27-3.64a1.21 1.21 0 1 1 1.22-2.1l6.27 3.64a1.21 1.21 0 0 1 .44 1.66 1.2 1.2 0 0 1 -1.05.6zm-43.68-26.77a1.22 1.22 0 0 1 -.61-.17l-6.27-3.64a1.21 1.21 0 1 1 1.22-2.1l6.27 3.65a1.21 1.21 0 0 1 -.61 2.26zm-14.64-8.5a1.26 1.26 0 0 1 -.61-.16l-6.27-3.65a1.21 1.21 0 1 1 1.22-2.09l6.27 3.64a1.21 1.21 0 0 1 -.61 2.26zm-14.64-8.5a1.24 1.24 0 0 1 -.61-.16l-6.27-3.64a1.21 1.21 0 1 1 1.22-2.1l6.27 3.64a1.21 1.21 0 0 1 -.61 2.26zm-14.55-8.55a1.21 1.21 0 0 1 -.61-.16l-6.27-3.67a1.21 1.21 0 0 1 1.22-2.1l6.27 3.64a1.22 1.22 0 0 1 .44 1.66 1.21 1.21 0 0 1 -1.05.63zm-14.64-8.49a1.22 1.22 0 0 1 -.61-.17l-6.27-3.64a1.21 1.21 0 0 1 1.22-2.1l6.27 3.64a1.22 1.22 0 0 1 -.61 2.27z" fill="url(#bS)"/><path d="m407.54 153.45-30.14-17.4 38.85-22.43 30.15 17.4z" fill="url(#bT)" opacity=".6"/><path d="m413.72 36.62.22 78.32 29.93 17.4-.22-78.32z" fill="url(#bU)"/><path d="m443.65 54.02.22 78.32 30.13-17.4-.23-78.32z" fill="url(#bV)"/><path d="m413.72 36.62 29.93 17.4 30.12-17.4-29.92-17.39z" fill="#3f3c3a"/><path d="m449.71 50.56 18.41-10.63-11.25-6.49-18.41 10.63z" fill="url(#bW)"/><path d="m425.36 34.93.13 1.64 18.38 10.68-.14-1.65z" fill="url(#bX)"/><path d="m443.73 45.6.14 1.65 18.49-10.68-.14-1.64z" fill="url(#bY)"/><path d="m425.36 34.93 18.37 10.67 18.49-10.67-18.37-10.68z" fill="url(#bZ)"/><path d="m419.62 70.5 17.56 10.14c1.3.75 2.36 0 2.36-1.79a5.67 5.67 0 0 0 -2.36-4.51l-17.56-10.13c-1.3-.75-2.36 0-2.36 1.78a5.66 5.66 0 0 0 2.36 4.51z" fill="#3f3c3a"/><path d="m438.37 78.18a3.64 3.64 0 0 0 -1.64-2.84c-.91-.53-1.65-.1-1.65.94a3.64 3.64 0 0 0 1.65 2.84c.9.52 1.64.1 1.64-.94z" fill="#fff"/><path d="m420.79 68a1.87 1.87 0 0 0 -.85-1.47c-.47-.27-.85 0-.85.49a1.89 1.89 0 0 0 .85 1.47c.47.3.85.08.85-.49z" fill="#6c6a6b"/><path d="m423.5 69.59a1.89 1.89 0 0 0 -.85-1.47c-.47-.27-.86-.05-.86.49a1.89 1.89 0 0 0 .86 1.47c.47.27.85.05.85-.49z" fill="#fff"/><path d="m426.21 71.16a1.87 1.87 0 0 0 -.85-1.47c-.47-.28-.86-.06-.86.48a1.89 1.89 0 0 0 .86 1.47c.47.28.85.06.85-.48z" fill="#fff"/><path d="m419.62 62.49 17.56 10.14c1.3.75 2.36 0 2.36-1.78a5.66 5.66 0 0 0 -2.36-4.51l-17.56-10.14c-1.3-.75-2.36 0-2.36 1.78a5.66 5.66 0 0 0 2.36 4.51z" fill="#3f3c3a"/><path d="m438.37 70.17a3.66 3.66 0 0 0 -1.64-2.84c-.91-.52-1.65-.1-1.65.94a3.61 3.61 0 0 0 1.65 2.84c.9.53 1.64.11 1.64-.94z" fill="#848388"/><path d="m420.79 60a1.87 1.87 0 0 0 -.85-1.47c-.47-.27-.85 0-.85.49a1.87 1.87 0 0 0 .85 1.47c.47.29.85.07.85-.49z" fill="#fff"/><path d="m423.5 61.59a1.87 1.87 0 0 0 -.85-1.47c-.47-.28-.86-.06-.86.48a1.89 1.89 0 0 0 .86 1.47c.47.28.85.06.85-.48z" fill="#6c6a6b"/><path d="m426.21 63.15a1.87 1.87 0 0 0 -.85-1.47c-.47-.27-.86 0-.86.49a1.89 1.89 0 0 0 .86 1.47c.47.27.85.05.85-.49z" fill="#6c6a6b"/><path d="m419.62 54.49 17.56 10.13c1.3.75 2.36 0 2.36-1.78a5.66 5.66 0 0 0 -2.36-4.51l-17.56-10.14c-1.3-.75-2.36.05-2.36 1.79a5.67 5.67 0 0 0 2.36 4.51z" fill="#3f3c3a"/><path d="m438.37 62.17a3.63 3.63 0 0 0 -1.64-2.84c-.91-.53-1.65-.11-1.65.94a3.64 3.64 0 0 0 1.65 2.84c.9.52 1.64.1 1.64-.94z" fill="#848388"/><path d="m420.79 52a1.87 1.87 0 0 0 -.85-1.47c-.47-.28-.85-.06-.85.48a1.87 1.87 0 0 0 .85 1.47c.47.3.85.08.85-.48z" fill="#6c6a6b"/><path d="m423.5 53.58a1.87 1.87 0 0 0 -.85-1.47c-.47-.27-.86 0-.86.49a1.89 1.89 0 0 0 .86 1.47c.47.27.85.05.85-.49z" fill="#6c6a6b"/><path d="m426.21 55.14a1.89 1.89 0 0 0 -.85-1.47c-.47-.27-.86-.05-.86.49a1.89 1.89 0 0 0 .86 1.47c.47.27.85.06.85-.49z" fill="#6c6a6b"/><path d="m419.62 94.52 17.56 10.14c1.3.75 2.36 0 2.36-1.79a5.69 5.69 0 0 0 -2.36-4.51l-17.56-10.13c-1.3-.75-2.36 0-2.36 1.78a5.66 5.66 0 0 0 2.36 4.51z" fill="#3f3c3a"/><path d="m438.37 102.2a3.66 3.66 0 0 0 -1.64-2.84c-.91-.53-1.65-.1-1.65.94a3.64 3.64 0 0 0 1.65 2.84c.9.52 1.64.1 1.64-.94z" fill="#848388"/><path d="m420.79 92.05a1.87 1.87 0 0 0 -.85-1.47c-.47-.27-.85 0-.85.49a1.89 1.89 0 0 0 .85 1.47c.47.27.85.05.85-.49z" fill="#6c6a6b"/><path d="m423.5 93.61a1.89 1.89 0 0 0 -.85-1.47c-.47-.27-.86 0-.86.49a1.89 1.89 0 0 0 .86 1.47c.47.27.85.05.85-.49z" fill="#6c6a6b"/><path d="m426.21 95.18a1.87 1.87 0 0 0 -.85-1.47c-.47-.27-.86-.06-.86.48a1.89 1.89 0 0 0 .86 1.47c.47.28.85.06.85-.48z" fill="#fff"/><path d="m419.62 86.51 17.56 10.14c1.3.75 2.36-.05 2.36-1.78a5.66 5.66 0 0 0 -2.36-4.51l-17.56-10.14c-1.3-.75-2.36 0-2.36 1.78a5.66 5.66 0 0 0 2.36 4.51z" fill="#3f3c3a"/><path d="m438.37 94.19a3.66 3.66 0 0 0 -1.64-2.84c-.91-.52-1.65-.1-1.65.94a3.61 3.61 0 0 0 1.65 2.84c.9.53 1.64.11 1.64-.94z" fill="#fff"/><path d="m420.79 84a1.87 1.87 0 0 0 -.85-1.47c-.47-.27-.85 0-.85.49a1.87 1.87 0 0 0 .85 1.47c.47.31.85.09.85-.49z" fill="#fff"/><path d="m423.5 85.61a1.87 1.87 0 0 0 -.85-1.47c-.47-.28-.86-.06-.86.48a1.89 1.89 0 0 0 .86 1.47c.47.28.85.06.85-.48z" fill="#fff"/><path d="m426.21 87.17a1.87 1.87 0 0 0 -.85-1.47c-.47-.27-.86 0-.86.49a1.89 1.89 0 0 0 .86 1.47c.47.27.85.05.85-.49z" fill="#fff"/><path d="m419.62 78.51 17.56 10.13c1.3.76 2.36 0 2.36-1.78a5.66 5.66 0 0 0 -2.36-4.51l-17.56-10.14c-1.3-.75-2.36.05-2.36 1.79a5.67 5.67 0 0 0 2.36 4.51z" fill="#3f3c3a"/><path d="m438.37 86.19a3.63 3.63 0 0 0 -1.64-2.84c-.91-.53-1.65-.11-1.65.94a3.64 3.64 0 0 0 1.65 2.84c.9.52 1.64.1 1.64-.94z" fill="#848388"/><path d="m420.79 76a1.87 1.87 0 0 0 -.85-1.47c-.47-.28-.85-.06-.85.48a1.87 1.87 0 0 0 .85 1.47c.47.32.85.1.85-.48z" fill="#fff"/><path d="m423.5 77.6a1.87 1.87 0 0 0 -.85-1.47c-.47-.27-.86 0-.86.49a1.89 1.89 0 0 0 .86 1.47c.47.27.85.05.85-.49z" fill="#fff"/><path d="m426.21 79.16a1.89 1.89 0 0 0 -.85-1.47c-.47-.27-.86 0-.86.49a1.89 1.89 0 0 0 .86 1.47c.47.27.85.06.85-.49z" fill="#6c6a6b"/><path d="m446.93 176.15-30.14-17.4 38.85-22.43 30.14 17.4z" fill="url(#b0)" opacity=".6"/><path d="m453.11 59.32.22 78.32 29.93 17.39-.23-78.32z" fill="url(#b1)"/><path d="m483.03 76.71.23 78.32 30.12-17.39-.22-78.32z" fill="url(#b2)"/><path d="m453.11 59.32 29.92 17.39 30.13-17.39-29.93-17.39z" fill="#3f3c3a"/><path d="m489.1 73.26 18.41-10.63-11.25-6.49-18.41 10.63z" fill="url(#b3)"/><path d="m464.74 57.63.14 1.64 18.37 10.67-.13-1.64z" fill="url(#b4)"/><path d="m483.12 68.3.13 1.64 18.5-10.67-.14-1.64z" fill="url(#b5)"/><path d="m464.74 57.63 18.38 10.67 18.49-10.67-18.37-10.68z" fill="url(#b6)"/><path d="m459 93.2 17.56 10.13c1.3.76 2.36 0 2.36-1.78a5.66 5.66 0 0 0 -2.36-4.55l-17.56-10.1c-1.3-.75-2.35 0-2.35 1.79a5.66 5.66 0 0 0 2.35 4.51z" fill="#3f3c3a"/><path d="m477.76 100.88a3.61 3.61 0 0 0 -1.65-2.88c-.91-.53-1.65-.11-1.65.94a3.64 3.64 0 0 0 1.65 2.84c.89.56 1.65.14 1.65-.9z" fill="#fff"/><path d="m460.18 90.73a1.86 1.86 0 0 0 -.86-1.47c-.47-.28-.85-.06-.85.48a1.87 1.87 0 0 0 .85 1.47c.48.28.86.06.86-.48z" fill="#6c6a6b"/><path d="m462.89 92.29a1.89 1.89 0 0 0 -.86-1.47c-.47-.27-.85 0-.85.49a1.87 1.87 0 0 0 .85 1.47c.47.27.86.05.86-.49z" fill="#fff"/><path d="m465.59 93.86a1.89 1.89 0 0 0 -.85-1.48c-.47-.27-.85 0-.85.49a1.87 1.87 0 0 0 .85 1.47c.47.27.85.06.85-.48z" fill="#fff"/><path d="m459 85.19 17.56 10.14c1.3.75 2.36 0 2.36-1.79a5.69 5.69 0 0 0 -2.36-4.54l-17.56-10.1c-1.3-.75-2.35 0-2.35 1.78a5.65 5.65 0 0 0 2.35 4.51z" fill="#3f3c3a"/><path d="m477.76 92.87a3.64 3.64 0 0 0 -1.65-2.87c-.91-.53-1.65-.1-1.65.94a3.64 3.64 0 0 0 1.65 2.84c.89.55 1.65.13 1.65-.91z" fill="#848388"/><path d="m460.18 82.72a1.86 1.86 0 0 0 -.86-1.47c-.47-.27-.85 0-.85.49a1.87 1.87 0 0 0 .85 1.47c.48.27.86.05.86-.49z" fill="#fff"/><path d="m462.89 84.28a1.9 1.9 0 0 0 -.86-1.47c-.47-.27-.85 0-.85.49a1.87 1.87 0 0 0 .85 1.47c.47.23.86.06.86-.49z" fill="#6c6a6b"/><path d="m465.59 85.85a1.87 1.87 0 0 0 -.85-1.47c-.47-.27-.85-.06-.85.48a1.87 1.87 0 0 0 .85 1.47c.47.28.85.06.85-.48z" fill="#6c6a6b"/><path d="m459 77.18 17.56 10.14c1.3.75 2.36 0 2.36-1.78a5.66 5.66 0 0 0 -2.36-4.54l-17.56-10.11c-1.3-.75-2.35 0-2.35 1.79a5.64 5.64 0 0 0 2.35 4.5z" fill="#3f3c3a"/><path d="m477.76 84.86a3.64 3.64 0 0 0 -1.65-2.86c-.91-.52-1.65-.1-1.65.94a3.61 3.61 0 0 0 1.65 2.84c.89.55 1.65.13 1.65-.92z" fill="#848388"/><path d="m460.18 74.71a1.86 1.86 0 0 0 -.86-1.47c-.47-.27-.85 0-.85.49a1.87 1.87 0 0 0 .85 1.47c.48.27.86.05.86-.49z" fill="#6c6a6b"/><path d="m462.89 76.28a1.89 1.89 0 0 0 -.86-1.47c-.47-.28-.85-.06-.85.48a1.87 1.87 0 0 0 .85 1.47c.47.24.86.06.86-.48z" fill="#6c6a6b"/><path d="m465.59 77.84a1.87 1.87 0 0 0 -.85-1.47c-.47-.27-.85-.05-.85.49a1.87 1.87 0 0 0 .85 1.47c.47.27.85.05.85-.49z" fill="#6c6a6b"/><path d="m459 117.22 17.56 10.13c1.3.76 2.36 0 2.36-1.78a5.66 5.66 0 0 0 -2.36-4.51l-17.56-10.13c-1.3-.76-2.35 0-2.35 1.78a5.66 5.66 0 0 0 2.35 4.51z" fill="#3f3c3a"/><path d="m477.76 124.9a3.61 3.61 0 0 0 -1.65-2.84c-.91-.53-1.65-.11-1.65.94a3.64 3.64 0 0 0 1.65 2.84c.89.52 1.65.1 1.65-.94z" fill="#848388"/><path d="m460.18 114.75a1.86 1.86 0 0 0 -.86-1.47c-.47-.28-.85-.06-.85.48a1.87 1.87 0 0 0 .85 1.47c.48.28.86.06.86-.48z" fill="#6c6a6b"/><path d="m462.89 116.31a1.89 1.89 0 0 0 -.86-1.47c-.47-.27-.85 0-.85.49a1.87 1.87 0 0 0 .85 1.47c.47.27.86.05.86-.49z" fill="#6c6a6b"/><path d="m465.59 117.88a1.89 1.89 0 0 0 -.85-1.48c-.47-.27-.85-.05-.85.49a1.87 1.87 0 0 0 .85 1.47c.47.27.85.06.85-.48z" fill="#fff"/><path d="m459 109.21 17.56 10.14c1.3.75 2.36 0 2.36-1.79a5.69 5.69 0 0 0 -2.36-4.51l-17.56-10.13c-1.3-.75-2.35 0-2.35 1.78a5.65 5.65 0 0 0 2.35 4.51z" fill="#3f3c3a"/><path d="m477.76 116.89a3.64 3.64 0 0 0 -1.65-2.84c-.91-.52-1.65-.1-1.65.94a3.64 3.64 0 0 0 1.65 2.84c.89.52 1.65.1 1.65-.94z" fill="#fff"/><path d="m460.18 106.74a1.86 1.86 0 0 0 -.86-1.47c-.47-.27-.85 0-.85.49a1.87 1.87 0 0 0 .85 1.47c.48.27.86.05.86-.49z" fill="#fff"/><path d="m462.89 108.3a1.9 1.9 0 0 0 -.86-1.47c-.47-.27-.85 0-.85.49a1.87 1.87 0 0 0 .85 1.47c.47.27.86.06.86-.49z" fill="#fff"/><path d="m465.59 109.87a1.87 1.87 0 0 0 -.85-1.47c-.47-.27-.85-.06-.85.48a1.87 1.87 0 0 0 .85 1.47c.47.28.85.06.85-.48z" fill="#fff"/><path d="m459 101.2 17.56 10.14c1.3.75 2.36 0 2.36-1.78a5.66 5.66 0 0 0 -2.36-4.51l-17.56-10.14c-1.3-.75-2.35 0-2.35 1.79a5.64 5.64 0 0 0 2.35 4.5z" fill="#3f3c3a"/><path d="m477.76 108.88a3.64 3.64 0 0 0 -1.65-2.84c-.91-.52-1.65-.1-1.65.94a3.61 3.61 0 0 0 1.65 2.84c.89.53 1.65.11 1.65-.94z" fill="#848388"/><path d="m460.18 98.73a1.87 1.87 0 0 0 -.86-1.47c-.47-.27-.85-.05-.85.49a1.87 1.87 0 0 0 .85 1.47c.48.27.86.05.86-.49z" fill="#fff"/><path d="m462.89 100.3a1.89 1.89 0 0 0 -.86-1.47c-.47-.28-.85-.06-.85.48a1.87 1.87 0 0 0 .85 1.47c.47.28.86.06.86-.48z" fill="#fff"/><path d="m465.59 101.86a1.87 1.87 0 0 0 -.85-1.47c-.47-.27-.85 0-.85.49a1.87 1.87 0 0 0 .85 1.47c.47.27.85.05.85-.49z" fill="#6c6a6b"/><path d="m535.55 137.09a1.22 1.22 0 0 1 -.61-.17l-6.28-3.64a1.21 1.21 0 0 1 1.22-2.1l6.28 3.64a1.22 1.22 0 0 1 -.61 2.27zm-14.64-8.5a1.21 1.21 0 0 1 -.61-.16l-6.3-3.64a1.23 1.23 0 0 1 -.44-1.66 1.2 1.2 0 0 1 1.66-.44l6.28 3.64a1.21 1.21 0 0 1 -.61 2.26zm-14.64-8.5a1.21 1.21 0 0 1 -.61-.16l-6.28-3.64a1.21 1.21 0 0 1 1.22-2.1l6.28 3.64a1.22 1.22 0 0 1 .43 1.66 1.19 1.19 0 0 1 -1.04.6zm-18.77 79a1.21 1.21 0 0 1 -.61-.16l-6.28-3.64a1.21 1.21 0 1 1 1.22-2.1l6.28 3.64a1.21 1.21 0 0 1 -.61 2.26zm14.51 8a1.21 1.21 0 0 1 -.61-.16l-6.28-3.64a1.21 1.21 0 1 1 1.22-2.1l6.28 3.64a1.23 1.23 0 0 1 .44 1.66 1.21 1.21 0 0 1 -1.06.58zm49.12-61.49a1.21 1.21 0 0 1 -.61-.16l-6.28-3.64a1.21 1.21 0 0 1 1.22-2.1l6.28 3.64a1.23 1.23 0 0 1 .44 1.66 1.21 1.21 0 0 1 -1.05.58zm-20.25 78.4a1.26 1.26 0 0 1 -.61-.16l-6.27-3.65a1.21 1.21 0 0 1 1.22-2.1l6.27 3.64a1.21 1.21 0 0 1 .44 1.66 1.2 1.2 0 0 1 -1.05.61zm14.52 8a1.21 1.21 0 0 1 -.61-.16l-6.28-3.64a1.21 1.21 0 0 1 1.22-2.1l6.28 3.64a1.22 1.22 0 0 1 .43 1.66 1.19 1.19 0 0 1 -1.04.6zm14.16 7.67a1.21 1.21 0 0 1 -.61-.16l-6.28-3.64a1.21 1.21 0 0 1 1.22-2.1l6.28 3.64a1.21 1.21 0 0 1 -.61 2.26zm-43.32-24.17a1.25 1.25 0 0 1 -.61-.17l-6.27-3.64a1.21 1.21 0 1 1 1.22-2.1l6.27 3.64a1.22 1.22 0 0 1 -.61 2.27zm72 40.95a1.24 1.24 0 0 1 -.61-.16l-6.27-3.65a1.21 1.21 0 1 1 1.22-2.09l6.27 3.64a1.21 1.21 0 0 1 -.61 2.26zm-13.55-7.89a1.21 1.21 0 0 1 -.61-.16l-6.28-3.64a1.21 1.21 0 0 1 1.22-2.1l6.27 3.64a1.21 1.21 0 0 1 -.6 2.26z" fill="url(#b7)"/><path d="m192.42 281.66-1.3-.75c-4.61-2.66-4.08-7.22 1.18-10.19l14.62-8.24 18 10.4-14.62 8.23c-5.3 2.97-13.3 3.22-17.88.55z" fill="url(#b8)" opacity=".6"/><path d="m213.92 254.28c-4.74 0-17.18 7.43-17.18 7.43s0 1 0 3.75c0 2.59 1.46 5.12 4.17 7.12a1.09 1.09 0 0 0 .17.13 21.17 21.17 0 0 0 12.23 3.54 21.88 21.88 0 0 0 12.49-3.61l.55-.39c2.67-2.05 4.14-4.58 4.15-7.18s0-3.25 0-3.25-11.89-7.54-16.58-7.54z" fill="url(#b9)"/><path d="m226.14 254.57a21.14 21.14 0 0 0 -12.22-3.57 21.88 21.88 0 0 0 -12.51 3.62c-3 2.1-4.68 4.79-4.69 7.55s1.46 5.13 4.17 7.13a1.09 1.09 0 0 0 .17.13 21.17 21.17 0 0 0 12.23 3.57 21.88 21.88 0 0 0 12.49-3.61l.55-.39c2.67-2.05 4.14-4.58 4.15-7.18s-1.48-5.23-4.34-7.25z" fill="url(#ca)"/><path d="m221.77 260.42a7.86 7.86 0 0 0 -5-.64c.22-.83-.24-1.65-1.3-2.25a8.36 8.36 0 0 0 -6.65-.17l-.78-.44a1.75 1.75 0 0 0 -1.56 0c-.45.26-.47.66 0 .89l.72.41-1.27.72-.72-.4a1.77 1.77 0 0 0 -1.57 0c-.45.25-.47.65-.05.88l.73.41-1.53.87c-.45.26-.47.65-.05.89a1.75 1.75 0 0 0 1.56 0l.5-.28 9.9 5.56-.49.28c-.45.26-.47.65-.05.89a1.75 1.75 0 0 0 1.56 0l1.53-.87.7.39a1.78 1.78 0 0 0 1.56 0c.45-.26.47-.66 0-.89l-.69-.39 1.27-.73.7.4a1.78 1.78 0 0 0 1.56 0c.45-.25.47-.65.05-.89l-.7-.39c1.99-1.31 2.03-3.14.07-4.25zm-15.32 0 3.22-1.83a4.66 4.66 0 0 1 4.15-.06c1.13.63 1.09 1.68-.08 2.35l-3.22 1.83zm13.55 3.45-3.65 2.13-4.35-2.48 3.65-2.07a5 5 0 0 1 4.41-.07c1.23.67 1.19 1.79-.06 2.49z" fill="url(#cb)"/><path d="m213.92 249.35c-4.74 0-17.18 7.43-17.18 7.43s0 1 0 3.75c0 2.59 1.46 5.12 4.17 7.12a1 1 0 0 0 .17.12 21.1 21.1 0 0 0 12.23 3.54 21.88 21.88 0 0 0 12.49-3.6l.55-.39c2.67-2.05 4.14-4.59 4.15-7.18s0-3.25 0-3.25-11.89-7.54-16.58-7.54z" fill="url(#cc)"/><path d="m226.14 249.64a21.14 21.14 0 0 0 -12.22-3.54 22 22 0 0 0 -12.51 3.61c-3 2.11-4.68 4.79-4.69 7.56 0 2.6 1.46 5.13 4.17 7.13a1.09 1.09 0 0 0 .17.13 21.17 21.17 0 0 0 12.23 3.54 21.88 21.88 0 0 0 12.49-3.61l.55-.39c2.67-2.05 4.14-4.58 4.15-7.18s-1.48-5.24-4.34-7.25z" fill="url(#cd)"/><path d="m221.77 255.49a7.86 7.86 0 0 0 -5-.64c.22-.83-.24-1.65-1.3-2.25a8.36 8.36 0 0 0 -6.65-.17l-.78-.44a1.75 1.75 0 0 0 -1.56 0c-.45.26-.47.65 0 .89l.72.41-1.27.72-.72-.41a1.77 1.77 0 0 0 -1.57 0c-.45.25-.47.65-.05.88l.73.41-1.53.87c-.45.26-.47.65-.05.89a1.78 1.78 0 0 0 1.56 0l.5-.29 9.9 5.57-.49.28c-.45.26-.47.65-.05.89a1.78 1.78 0 0 0 1.56 0l1.53-.87.7.39a1.78 1.78 0 0 0 1.56 0c.45-.25.47-.65 0-.88l-.69-.39 1.27-.73.7.39a1.75 1.75 0 0 0 1.56 0c.45-.26.47-.65.05-.89l-.7-.39c1.99-1.3 2.03-3.14.07-4.24zm-15.32 0 3.22-1.83a4.66 4.66 0 0 1 4.15-.07c1.13.64 1.09 1.69-.08 2.35l-3.22 1.84zm13.55 3.45-3.65 2.06-4.35-2.41 3.65-2.08a5 5 0 0 1 4.41-.06c1.23.66 1.19 1.78-.06 2.49z" fill="url(#ce)"/><path d="m213.92 244c-4.74 0-17.18 7.43-17.18 7.43s0 1 0 3.75c0 2.59 1.46 5.12 4.17 7.12l.17.12a21.1 21.1 0 0 0 12.23 3.54 21.88 21.88 0 0 0 12.49-3.6l.55-.39c2.67-2.05 4.14-4.59 4.15-7.18s0-3.25 0-3.25-11.89-7.54-16.58-7.54z" fill="url(#cf)"/><path d="m226.14 244.26a21.14 21.14 0 0 0 -12.22-3.54 22 22 0 0 0 -12.51 3.61c-3 2.11-4.68 4.79-4.69 7.56 0 2.6 1.46 5.13 4.17 7.13l.17.13a21.17 21.17 0 0 0 12.23 3.53 21.88 21.88 0 0 0 12.49-3.6l.55-.39c2.67-2.05 4.14-4.59 4.15-7.18s-1.48-5.24-4.34-7.25z" fill="url(#cg)"/><path d="m221.77 250.11a7.86 7.86 0 0 0 -5-.64c.22-.83-.24-1.65-1.3-2.25a8.36 8.36 0 0 0 -6.65-.17l-.78-.44a1.75 1.75 0 0 0 -1.56 0c-.45.26-.47.65 0 .89l.72.41-1.27.72-.72-.41a1.8 1.8 0 0 0 -1.57 0c-.45.26-.47.66-.05.89l.73.41-1.53.87c-.45.26-.47.65-.05.89a1.75 1.75 0 0 0 1.56 0l.5-.28 9.9 5.57-.49.28c-.45.25-.47.65-.05.89a1.75 1.75 0 0 0 1.56 0l1.53-.86.7.39a1.78 1.78 0 0 0 1.56 0c.45-.25.47-.65 0-.88l-.69-.4 1.27-.72.7.39a1.75 1.75 0 0 0 1.56 0c.45-.26.47-.65.05-.89l-.7-.39c1.99-1.33 2.03-3.17.07-4.27zm-15.32 0 3.22-1.83a4.66 4.66 0 0 1 4.15-.07c1.13.63 1.09 1.69-.08 2.35l-3.22 1.84zm13.55 3.45-3.66 2.08-4.34-2.43 3.65-2.08a5 5 0 0 1 4.41-.06c1.23.66 1.19 1.78-.06 2.49z" fill="url(#ch)"/><path d="m213.92 238.36c-4.74 0-17.18 7.43-17.18 7.43s0 1 0 3.75c0 2.59 1.46 5.12 4.17 7.12a1.09 1.09 0 0 0 .17.13 21.17 21.17 0 0 0 12.23 3.54 21.88 21.88 0 0 0 12.49-3.61l.55-.39c2.67-2 4.14-4.58 4.15-7.18s0-3.25 0-3.25-11.89-7.54-16.58-7.54z" fill="url(#ci)"/><path d="m226.14 238.65a21.14 21.14 0 0 0 -12.22-3.54 21.88 21.88 0 0 0 -12.51 3.62c-3 2.1-4.68 4.78-4.69 7.55 0 2.6 1.46 5.13 4.17 7.13a1.09 1.09 0 0 0 .17.13 21.17 21.17 0 0 0 12.23 3.54 21.88 21.88 0 0 0 12.49-3.61l.55-.39c2.67-2.05 4.14-4.58 4.15-7.18s-1.48-5.23-4.34-7.25z" fill="url(#cj)"/><path d="m221.77 244.5a7.86 7.86 0 0 0 -5-.64c.22-.83-.24-1.65-1.3-2.25a8.36 8.36 0 0 0 -6.65-.17l-.78-.44a1.75 1.75 0 0 0 -1.56 0c-.45.26-.47.65 0 .89l.72.41-1.27.72-.72-.4a1.77 1.77 0 0 0 -1.57 0c-.45.25-.47.65-.05.88l.73.41-1.53.87c-.45.26-.47.65-.05.89a1.75 1.75 0 0 0 1.56 0l.5-.29 9.9 5.57-.49.28c-.45.26-.47.65-.05.89a1.75 1.75 0 0 0 1.56 0l1.53-.87.7.39a1.78 1.78 0 0 0 1.56 0c.45-.26.47-.66 0-.89l-.69-.39 1.27-.73.7.4a1.78 1.78 0 0 0 1.56 0c.45-.26.47-.65.05-.89l-.7-.39c1.99-1.31 2.03-3.15.07-4.25zm-15.32 0 3.22-1.83a4.66 4.66 0 0 1 4.15-.06c1.13.63 1.09 1.68-.08 2.35l-3.22 1.83zm13.55 3.5-3.65 2-4.35-2.4 3.65-2.08a5 5 0 0 1 4.41-.06c1.23.66 1.19 1.78-.06 2.54z" fill="url(#ck)"/><path d="m98.99 404.72-18.45-10.66 35.84-20.43 18.45 10.66z" fill="url(#cl)" opacity=".6"/><path d="m150.81 315.87-.14 59.19-18.2 10.58.14-59.19z" fill="url(#cm)"/><path d="m132.61 326.45-.14 59.19-18.32-10.58.13-59.19z" fill="url(#cn)"/><path d="m150.81 315.87-18.2 10.58-18.33-10.58 18.21-10.58z" fill="url(#co)"/><path d="m128.62 421.78-18.45-10.65 35.84-20.43 18.45 10.65z" fill="url(#cp)" opacity=".6"/><path d="m180.55 290.4-.13 101.7-18.2 10.58.13-101.7z" fill="url(#cq)"/><path d="m162.35 300.98-.13 101.7-18.33-10.58.14-101.7z" fill="url(#cr)"/><path d="m180.55 290.4-18.2 10.58-18.32-10.58 18.2-10.57z" fill="url(#cs)"/><path d="m158.73 438.96-18.45-10.65 35.84-20.43 18.45 10.65z" fill="url(#ct)" opacity=".6"/><path d="m210.66 371.34-.13 37.94-18.21 10.58.14-37.94z" fill="url(#cu)"/><path d="m192.46 381.92-.14 37.94-18.32-10.58.14-37.94z" fill="url(#cv)"/><path d="m210.66 371.34-18.2 10.58-18.32-10.58 18.2-10.58z" fill="url(#cw)"/><path d="m254.38 428.38a1.22 1.22 0 0 1 -.61-.17l-6.27-3.64a1.21 1.21 0 1 1 1.22-2.1l6.27 3.64a1.22 1.22 0 0 1 -.61 2.27zm-14.64-8.5a1.21 1.21 0 0 1 -.61-.16l-6.28-3.64a1.23 1.23 0 0 1 -.44-1.66 1.21 1.21 0 0 1 1.66-.44l6.28 3.64a1.21 1.21 0 0 1 -.61 2.26zm29.28 17a1.21 1.21 0 0 1 -.61-.16l-6.27-3.64a1.21 1.21 0 1 1 1.22-2.1l6.27 3.64a1.22 1.22 0 0 1 .44 1.66 1.21 1.21 0 0 1 -1.07.59zm-43.92-25.5a1.21 1.21 0 0 1 -.61-.16l-6.28-3.64a1.21 1.21 0 1 1 1.22-2.1l6.28 3.64a1.23 1.23 0 0 1 .44 1.66 1.21 1.21 0 0 1 -1.05.6zm-14.64-8.49a1.22 1.22 0 0 1 -.61-.17l-6.28-3.64a1.21 1.21 0 1 1 1.22-2.1l6.28 3.64a1.22 1.22 0 0 1 -.61 2.27z" fill="url(#cx)"/><path d="m561.99 366.51-49.75 28.91-50.08-28.91 49.75-28.91z" fill="url(#cy)" opacity=".6"/><path d="m564.9 341.82-.37 4.44-49.76 28.92.37-4.45z" fill="url(#cz)"/><path d="m515.14 370.73-.37 4.45-50.07-28.92.37-4.44z" fill="url(#cA)"/><path d="m564.9 341.82-49.76 28.91-50.07-28.91 49.75-28.92z" fill="url(#cB)"/><path d="m509.76 353.84-17.07-9.85 22.01-12.71 17.07 9.86z" fill="url(#cC)"/><path d="m497.04 295.82 18.04-10.42 18.04 10.42-17.92 10.48z" fill="url(#cD)"/><path d="m497.04 293.17 18.04-31.25.12 41.72z" fill="url(#cE)"/><path d="m515.08 261.92 18.04 31.25-17.92 10.47z" fill="url(#cF)"/><path d="m497.04 295.81 18.27 31.38-.11-20.89z" fill="url(#cG)"/><path d="m515.2 306.3.11 20.89 17.81-31.38z" fill="url(#cH)"/><path d="m275.29 440a1.37 1.37 0 0 1 -.68-2.55l7.08-4.09a1.35 1.35 0 0 1 1.86.5 1.37 1.37 0 0 1 -.5 1.86l-7.05 4.11a1.3 1.3 0 0 1 -.71.17zm16.52-9.55a1.36 1.36 0 0 1 -.68-2.54l7.07-4.1a1.36 1.36 0 1 1 1.37 2.36l-7.08 4.1a1.41 1.41 0 0 1 -.68.2zm16.52-9.55a1.4 1.4 0 0 1 -1.19-.68 1.37 1.37 0 0 1 .5-1.86l7.08-4.09a1.36 1.36 0 1 1 1.36 2.35l-7.07 4.1a1.41 1.41 0 0 1 -.68.2zm16.51-9.55a1.35 1.35 0 0 1 -1.18-.68 1.37 1.37 0 0 1 .5-1.86l7.08-4.09a1.36 1.36 0 0 1 1.86.49 1.38 1.38 0 0 1 -.5 1.87l-7.08 4.09a1.38 1.38 0 0 1 -.68.2zm112.16-64.55a1.36 1.36 0 0 1 -.68-2.54l7.08-4.09a1.36 1.36 0 1 1 1.36 2.35l-7.08 4.1a1.36 1.36 0 0 1 -.68.18zm16.51-9.55a1.36 1.36 0 0 1 -.68-2.54l7.09-4.09a1.36 1.36 0 0 1 1.86.49 1.38 1.38 0 0 1 -.5 1.87l-7.08 4.09a1.42 1.42 0 0 1 -.74.18zm-33.16 19.1a1.37 1.37 0 0 1 -1.18-.68 1.35 1.35 0 0 1 .5-1.86l7.07-4.1a1.37 1.37 0 0 1 1.86.5 1.35 1.35 0 0 1 -.5 1.86l-7.07 4.1a1.41 1.41 0 0 1 -.73.18zm49.65-28.65a1.35 1.35 0 0 1 -1.18-.68 1.37 1.37 0 0 1 .5-1.86l7.08-4.09a1.36 1.36 0 0 1 1.37 2.36l-7.09 4.09a1.36 1.36 0 0 1 -.68.18zm16.52-9.55a1.35 1.35 0 0 1 -1.18-.68 1.37 1.37 0 0 1 .5-1.86l7.08-4.09a1.36 1.36 0 1 1 1.36 2.36l-7.1 4.12a1.29 1.29 0 0 1 -.68.15z" fill="url(#cI)"/><path d="m323.64 159.3a1.24 1.24 0 0 1 -.61-.16l-6.27-3.64a1.21 1.21 0 0 1 1.22-2.1l6.27 3.64a1.22 1.22 0 0 1 .44 1.66 1.21 1.21 0 0 1 -1.05.6z" fill="url(#cJ)"/><path d="m352.52 176.22a1.21 1.21 0 0 1 -.61-.16l-6.28-3.64a1.23 1.23 0 0 1 -.44-1.66 1.21 1.21 0 0 1 1.66-.44l6.28 3.64a1.21 1.21 0 0 1 -.61 2.26z" fill="url(#cK)"/><path d="m367 184.21a1.21 1.21 0 0 1 -.61-.16l-6.28-3.64a1.23 1.23 0 0 1 -.44-1.66 1.21 1.21 0 0 1 1.66-.44l6.28 3.64a1.21 1.21 0 0 1 -.61 2.26z" fill="url(#cL)"/><path d="m381.19 191.88a1.21 1.21 0 0 1 -.61-.16l-6.27-3.64a1.21 1.21 0 1 1 1.22-2.1l6.27 3.64a1.21 1.21 0 0 1 -.61 2.26z" fill="url(#cM)"/><path d="m338.27 168.26a1.24 1.24 0 0 1 -.61-.16l-6.27-3.64a1.21 1.21 0 0 1 1.22-2.1l6.27 3.64a1.21 1.21 0 0 1 .44 1.66 1.2 1.2 0 0 1 -1.05.6z" fill="url(#cN)"/><path d="m265.55 125.78a1.21 1.21 0 0 1 -.61-.16l-6.28-3.62a1.23 1.23 0 0 1 -.44-1.66 1.21 1.21 0 0 1 1.66-.44l6.28 3.64a1.21 1.21 0 0 1 -.61 2.26z" fill="url(#cO)"/><path d="m294.42 142.7a1.28 1.28 0 0 1 -.61-.17l-6.27-3.64a1.21 1.21 0 0 1 1.22-2.1l6.27 3.65a1.21 1.21 0 0 1 -.61 2.26z" fill="url(#cP)"/><path d="m308.94 150.69a1.22 1.22 0 0 1 -.61-.17l-6.28-3.64a1.21 1.21 0 0 1 1.22-2.1l6.28 3.65a1.21 1.21 0 0 1 -.61 2.26z" fill="url(#cQ)"/><path d="m279.78 134.2a1.26 1.26 0 0 1 -.61-.16l-6.27-3.64a1.21 1.21 0 1 1 1.22-2.1l6.27 3.64a1.21 1.21 0 0 1 -.61 2.26z" fill="url(#cR)"/><path d="m409.87 208.68a1.22 1.22 0 0 1 -.61-.17l-6.26-3.64a1.21 1.21 0 1 1 1.22-2.09l6.27 3.64a1.21 1.21 0 0 1 .44 1.65 1.23 1.23 0 0 1 -1.06.61z" fill="url(#cS)"/><path d="m396.31 200.79a1.22 1.22 0 0 1 -.61-.17l-6.28-3.62a1.21 1.21 0 0 1 1.22-2.1l6.28 3.65a1.21 1.21 0 0 1 -.61 2.26z" fill="url(#cT)"/><path d="m352.89 241.83a1.37 1.37 0 0 1 -.68-2.55l7.08-4.09a1.36 1.36 0 1 1 1.36 2.36l-7.08 4.09a1.27 1.27 0 0 1 -.68.19z" fill="url(#cU)"/><path d="m369.41 232.28a1.37 1.37 0 0 1 -1.18-.68 1.36 1.36 0 0 1 .49-1.86l7.09-4.1a1.36 1.36 0 1 1 1.36 2.36l-7.08 4.09a1.32 1.32 0 0 1 -.68.19z" fill="url(#cV)"/><path d="m385.92 222.73a1.36 1.36 0 0 1 -.68-2.54l7.08-4.1a1.37 1.37 0 0 1 1.86.5 1.36 1.36 0 0 1 -.49 1.86l-7.09 4.1a1.36 1.36 0 0 1 -.68.18z" fill="url(#cW)"/><path d="m402.44 213.18a1.35 1.35 0 0 1 -1.18-.68 1.37 1.37 0 0 1 .5-1.86l7.08-4.09a1.36 1.36 0 1 1 1.36 2.36l-7.08 4.09a1.38 1.38 0 0 1 -.68.18z" fill="url(#cX)"/><path d="m396.18 129.6a1.36 1.36 0 0 1 -.69-2.54l7.08-4.09a1.36 1.36 0 0 1 1.37 2.36l-7.08 4.09a1.41 1.41 0 0 1 -.68.18zm16.15-9.6a1.4 1.4 0 0 1 -1.19-.68 1.37 1.37 0 0 1 .5-1.86l7.08-4.1a1.37 1.37 0 0 1 1.86.5 1.35 1.35 0 0 1 -.5 1.86l-7.08 4.1a1.35 1.35 0 0 1 -.67.18zm-32.15 18.56a1.36 1.36 0 0 1 -.69-2.54l7.08-4.09a1.35 1.35 0 0 1 1.86.49 1.37 1.37 0 0 1 -.5 1.87l-7.08 4.09a1.38 1.38 0 0 1 -.67.15zm-15.42 8.15a1.36 1.36 0 0 1 -.69-2.54l7.08-4.09a1.36 1.36 0 1 1 1.36 2.36l-7.08 4.09a1.38 1.38 0 0 1 -.67.15zm-16 8.93a1.36 1.36 0 0 1 -.68-2.54l7.08-4.1a1.36 1.36 0 1 1 1.36 2.36l-7.08 4.09a1.3 1.3 0 0 1 -.69.16zm-16.38 9.08a1.37 1.37 0 0 1 -.68-2.55l7.08-4.09a1.36 1.36 0 1 1 1.36 2.36l-7.08 4.09a1.3 1.3 0 0 1 -.69.16zm95.46-53.5a1.36 1.36 0 0 1 -.69-2.54l7.08-4.09a1.36 1.36 0 1 1 1.36 2.35l-7.07 4.1a1.41 1.41 0 0 1 -.69.15zm16.94-10.22a1.37 1.37 0 0 1 -.69-2.55l7.08-4.09a1.37 1.37 0 0 1 1.86.5 1.35 1.35 0 0 1 -.5 1.86l-7.07 4.09a1.32 1.32 0 0 1 -.68.19z" fill="url(#cY)"/><path d="m326 172v4.48c0 2.52-1.62 5-4.95 7-6.61 3.82-17.37 3.81-24 0a11.56 11.56 0 0 1 -3.74-3.24 6.47 6.47 0 0 1 -1.27-3.68v-4.54c0 2.5 1.7 5 5 6.92 6.66 3.84 17.42 3.86 24 0 3.3-1.94 4.96-4.49 4.96-6.94z" fill="url(#cZ)"/><path d="m326 171.89v.11c0 2.5-1.65 5-4.95 6.9-6.61 3.82-17.37 3.8-24 0-3.31-1.92-5-4.42-5-6.92s1.61-5 4.94-7c6.61-3.82 17.37-3.81 24 0 3.3 1.91 5.01 4.41 5.01 6.91z" fill="url(#c0)"/><path d="m318.72 167.07-6.89 4.63-.94-7.44-2.23 1.65 1.34 9.6 10.05-6.78zm-13.18 1.15 1.39 9.42 2.15-1.64-1.31-9.43zm-3.21 2.25 1.39 9.42 2.15-1.64-1.31-9.43z" fill="#fff" opacity=".5"/><path d="m326 162.22v4.48c0 2.52-1.62 5.05-4.95 7-6.61 3.82-17.37 3.81-24 0a11.56 11.56 0 0 1 -3.74-3.24 6.47 6.47 0 0 1 -1.31-3.76v-4.54c0 2.5 1.7 5 5 6.92 6.66 3.84 17.42 3.85 24 0 3.34-1.86 5-4.36 5-6.86z" fill="url(#c1)"/><path d="m326 162.16v.06c0 2.5-1.65 5-4.95 6.9-6.61 3.81-17.37 3.8-24 0-3.31-1.92-5-4.42-5-6.92s1.61-5 4.94-7c6.61-3.82 17.37-3.81 24 0 3.3 1.96 5.01 4.46 5.01 6.96z" fill="url(#c2)"/><path d="m318.72 157.34-6.89 4.66-.94-7.44-2.23 1.65 1.34 9.6 10.05-6.81zm-13.18 1.15 1.39 9.42 2.15-1.64-1.31-9.43zm-3.21 2.25 1.39 9.42 2.15-1.64-1.31-9.43z" fill="#fff" opacity=".5"/><path d="m326 152.87v4.49c0 2.52-1.62 5-4.95 7-6.61 3.82-17.37 3.8-24 0a11.8 11.8 0 0 1 -3.74-3.24 6.5 6.5 0 0 1 -1.27-3.68v-4.55c0 2.5 1.7 5 5 6.92 6.66 3.85 17.42 3.86 24 0 3.3-1.94 4.96-4.44 4.96-6.94z" fill="url(#c3)"/><path d="m326 152.81v.06c0 2.5-1.65 5-4.95 6.9-6.61 3.82-17.37 3.81-24 0-3.31-1.92-5-4.42-5-6.92s1.61-5 4.94-7c6.61-3.82 17.37-3.8 24 0 3.3 1.96 5.01 4.46 5.01 6.96z" fill="url(#c4)"/><path d="m318.72 148-6.89 4.63-.94-7.43-2.23 1.65 1.34 9.59 10.05-6.77zm-13.18 1.16 1.39 9.42 2.15-1.64-1.31-9.43zm-3.21 2.24 1.39 9.42 2.15-1.64-1.31-9.43z" fill="#fff" opacity=".5"/><path d="m251.6 197.52 22.29-12.47 21.89 12.64-23.78 12.16c-8-4.57-18-10.96-20.4-12.33z" fill="url(#c5)" opacity=".6"/><path d="m299.6 186.37v4.48c0 2.52-1.61 5.05-4.94 7-6.62 3.82-17.37 3.81-24 0a11.57 11.57 0 0 1 -3.74-3.24 6.49 6.49 0 0 1 -1.28-3.68v-4.54c0 2.5 1.7 5 5 6.91 6.66 3.85 17.41 3.86 24 0 3.36-1.94 4.96-4.43 4.96-6.93z" fill="url(#c6)"/><path d="m299.6 186.31v.06c0 2.5-1.64 5-4.94 6.89-6.62 3.82-17.37 3.81-24 0-3.32-1.92-5-4.41-5-6.91s1.62-5 4.94-7c6.62-3.82 17.38-3.81 24 0 3.31 1.96 4.98 4.46 5 6.96z" fill="url(#c7)"/><path d="m292.33 181.49-6.88 4.63-.94-7.44-2.23 1.65 1.33 9.6 10.06-6.78zm-13.17 1.15 1.39 9.42 2.15-1.64-1.31-9.42zm-3.16 2.25 1.39 9.42 2.15-1.64-1.31-9.43z" fill="#fff" opacity=".5"/><path d="m299.6 176.64v4.48c0 2.52-1.61 5-4.94 7-6.62 3.82-17.37 3.81-24 0a11.57 11.57 0 0 1 -3.74-3.24 6.49 6.49 0 0 1 -1.28-3.68v-4.54c0 2.49 1.7 5 5 6.91 6.66 3.85 17.41 3.86 24 0 3.36-1.94 4.96-4.43 4.96-6.93z" fill="url(#c8)"/><path d="m299.6 176.58v.06c0 2.5-1.64 5-4.94 6.89-6.62 3.82-17.37 3.81-24 0-3.32-1.92-5-4.42-5-6.91s1.62-5 4.94-7c6.62-3.82 17.38-3.81 24 0 3.31 1.96 4.98 4.46 5 6.96z" fill="url(#c9)"/><path d="m292.33 171.75-6.88 4.64-.94-7.44-2.23 1.65 1.33 9.6 10.06-6.78zm-13.17 1.16 1.39 9.42 2.15-1.64-1.31-9.43zm-3.16 2.25 1.39 9.42 2.15-1.64-1.31-9.43z" fill="#fff" opacity=".5"/><path d="m299.6 167.29v4.49c0 2.52-1.61 5-4.94 6.95-6.62 3.82-17.37 3.81-24 0a11.45 11.45 0 0 1 -3.74-3.24 6.46 6.46 0 0 1 -1.28-3.67v-4.55c0 2.5 1.7 5 5 6.92 6.66 3.84 17.41 3.86 24 0 3.36-1.9 4.96-4.4 4.96-6.9z" fill="url(#da)"/><path d="m299.6 167.23v.06c0 2.5-1.64 5-4.94 6.9-6.62 3.82-17.37 3.8-24 0-3.32-1.92-5-4.42-5-6.92s1.62-5 4.94-7c6.62-3.82 17.38-3.8 24 0 3.31 1.96 4.98 4.46 5 6.96z" fill="url(#db)"/><path d="m292.33 162.41-6.88 4.59-.94-7.44-2.23 1.65 1.33 9.6 10.06-6.78zm-13.17 1.16 1.39 9.42 2.15-1.65-1.31-9.42zm-3.16 2.24 1.39 9.42 2.15-1.64-1.31-9.43z" fill="#fff" opacity=".5"/><path d="m318.61 186.27a17 17 0 0 1 -1.51 7 1 1 0 0 1 -.07.15 5.77 5.77 0 0 1 -.27.56 15 15 0 0 1 -.95 1.65 16.15 16.15 0 0 1 -1 1.42c-.34.42-.71.83-1.09 1.22s-.68.66-1 1a13 13 0 0 1 -1.09.87c-.25.18-.5.36-.76.52a17.14 17.14 0 1 1 7.82-14.39z" fill="url(#dc)"/><circle cx="301.95" cy="187.59" fill="url(#dd)" r="16.41" transform="matrix(.85842322 -.51294208 .51294208 .85842322 -53.47 181.46)"/><path d="m295.45 184.27 12.94 12.94v3.29l-12.94-12.94zm10.61-8.21v9.61l-10.61-10.62v3.29l12.94 12.94v-15.22zm-10.61 6.94 12.94 12.94v-3.34l-12.94-12.94z" fill="#fff" opacity=".5"/></svg>