<svg xmlns="http://www.w3.org/2000/svg" xmlns:xlink="http://www.w3.org/1999/xlink" viewBox="0 0 470 480.08"><defs><style>.cls-1{fill:url(#linear-gradient);}.cls-2{fill:url(#linear-gradient-2);}.cls-3{fill:url(#linear-gradient-3);}.cls-4{fill:url(#linear-gradient-4);}.cls-5{fill:url(#linear-gradient-5);}.cls-6{fill:url(#linear-gradient-6);}.cls-7{fill:url(#linear-gradient-7);}.cls-8{fill:url(#linear-gradient-8);}.cls-9{fill:url(#linear-gradient-9);}.cls-10{isolation:isolate;}.cls-11{fill:#4c4242;}.cls-12,.cls-13,.cls-20,.cls-21,.cls-25,.cls-26,.cls-43,.cls-44,.cls-60,.cls-61{opacity:0.3;}.cls-12{fill:url(#linear-gradient-10);}.cls-13{fill:url(#linear-gradient-11);}.cls-14{fill:url(#linear-gradient-12);}.cls-15{fill:url(#linear-gradient-13);}.cls-16{fill:url(#linear-gradient-14);}.cls-17{fill:url(#linear-gradient-15);}.cls-18{fill:url(#linear-gradient-16);}.cls-19{fill:url(#linear-gradient-17);}.cls-20{fill:url(#linear-gradient-18);}.cls-21{fill:url(#linear-gradient-19);}.cls-22{fill:url(#linear-gradient-20);}.cls-23{fill:url(#linear-gradient-21);}.cls-24{fill:url(#linear-gradient-22);}.cls-25{fill:url(#linear-gradient-23);}.cls-26{fill:url(#linear-gradient-24);}.cls-27{fill:url(#linear-gradient-25);}.cls-28{fill:url(#linear-gradient-26);}.cls-29{fill:url(#linear-gradient-27);}.cls-30,.cls-48,.cls-65{mix-blend-mode:multiply;}.cls-30{fill:url(#linear-gradient-28);}.cls-31{clip-path:url(#clip-path);}.cls-32{fill:url(#linear-gradient-30);}.cls-33{clip-path:url(#clip-path-2);}.cls-34{clip-path:url(#clip-path-3);}.cls-35{fill:url(#linear-gradient-34);}.cls-36{fill:url(#linear-gradient-35);}.cls-37{fill:url(#linear-gradient-36);}.cls-38{fill:url(#linear-gradient-37);}.cls-39{mix-blend-mode:screen;}.cls-40{fill:url(#linear-gradient-38);}.cls-41{fill:url(#linear-gradient-39);}.cls-42{fill:url(#linear-gradient-40);}.cls-43{fill:url(#linear-gradient-41);}.cls-44{fill:url(#linear-gradient-42);}.cls-45{fill:url(#linear-gradient-43);}.cls-46{fill:url(#linear-gradient-44);}.cls-47{fill:url(#linear-gradient-45);}.cls-48{fill:url(#linear-gradient-46);}.cls-49{clip-path:url(#clip-path-4);}.cls-50{clip-path:url(#clip-path-5);}.cls-51{fill:url(#linear-gradient-50);}.cls-52{clip-path:url(#clip-path-6);}.cls-53{fill:url(#linear-gradient-52);}.cls-54{fill:url(#linear-gradient-53);}.cls-55{fill:url(#linear-gradient-54);}.cls-56{fill:url(#linear-gradient-55);}.cls-57{fill:url(#linear-gradient-56);}.cls-58{fill:url(#linear-gradient-57);}.cls-59{fill:url(#linear-gradient-58);}.cls-60{fill:url(#linear-gradient-59);}.cls-61{fill:url(#linear-gradient-60);}.cls-62{fill:url(#linear-gradient-61);}.cls-63{fill:url(#linear-gradient-62);}.cls-64{fill:url(#linear-gradient-63);}.cls-65{fill:url(#linear-gradient-64);}.cls-66{clip-path:url(#clip-path-7);}.cls-67{clip-path:url(#clip-path-8);}.cls-68{fill:url(#linear-gradient-68);}.cls-69{clip-path:url(#clip-path-9);}.cls-70{fill:url(#linear-gradient-70);}.cls-71{fill:url(#linear-gradient-71);}.cls-72{fill:url(#linear-gradient-72);}.cls-73{fill:url(#linear-gradient-73);}.cls-74{fill:url(#linear-gradient-74);}.cls-75{fill:url(#linear-gradient-75);}.cls-76{fill:url(#linear-gradient-76);}.cls-77{fill:url(#linear-gradient-77);}</style><linearGradient id="linear-gradient" x1="89.92" y1="34.88" x2="91.75" y2="38.64" gradientUnits="userSpaceOnUse"><stop offset="0" stop-color="#383533"/><stop offset="1" stop-color="#1c1714"/></linearGradient><linearGradient id="linear-gradient-2" x1="89.77" y1="34.96" x2="91.59" y2="38.71" xlink:href="#linear-gradient"/><linearGradient id="linear-gradient-3" x1="95.07" y1="38.44" x2="95.39" y2="38.44" xlink:href="#linear-gradient"/><linearGradient id="linear-gradient-4" x1="234.9" y1="105.12" x2="236.73" y2="108.87" xlink:href="#linear-gradient"/><linearGradient id="linear-gradient-5" x1="234.74" y1="105.19" x2="236.57" y2="108.95" xlink:href="#linear-gradient"/><linearGradient id="linear-gradient-6" x1="240.05" y1="108.67" x2="240.36" y2="108.67" xlink:href="#linear-gradient"/><linearGradient id="linear-gradient-7" x1="126.69" y1="265.05" x2="128.52" y2="268.81" xlink:href="#linear-gradient"/><linearGradient id="linear-gradient-8" x1="126.54" y1="265.13" x2="128.36" y2="268.88" xlink:href="#linear-gradient"/><linearGradient id="linear-gradient-9" x1="131.84" y1="268.61" x2="132.16" y2="268.61" xlink:href="#linear-gradient"/><linearGradient id="linear-gradient-10" x1="277.33" y1="274.61" x2="381.6" y2="274.61" gradientUnits="userSpaceOnUse"><stop offset="0" stop-color="#6c6a6b"/><stop offset="1" stop-color="#4c4242"/></linearGradient><linearGradient id="linear-gradient-11" x1="296.11" y1="273.26" x2="361.17" y2="273.26" xlink:href="#linear-gradient-10"/><linearGradient id="linear-gradient-12" x1="302.86" y1="270.67" x2="328.75" y2="270.67" xlink:href="#linear-gradient"/><linearGradient id="linear-gradient-13" x1="302.86" y1="248.35" x2="354.34" y2="248.35" gradientUnits="userSpaceOnUse"><stop offset="0" stop-color="#6b6565"/><stop offset="1" stop-color="#4c4242"/></linearGradient><linearGradient id="linear-gradient-14" x1="328.71" y1="270.66" x2="354.42" y2="270.66" xlink:href="#linear-gradient"/><linearGradient id="linear-gradient-15" x1="10.38" y1="23.17" x2="90.2" y2="23.17" gradientUnits="userSpaceOnUse"><stop offset="0" stop-color="#e6d48a"/><stop offset="0.03" stop-color="#dcc77a"/><stop offset="0.1" stop-color="#cbaf5e"/><stop offset="0.16" stop-color="#be9e49"/><stop offset="0.23" stop-color="#b7933d"/><stop offset="0.29" stop-color="#b49039"/><stop offset="0.34" stop-color="#b6933d"/><stop offset="0.39" stop-color="#bb9a48"/><stop offset="0.43" stop-color="#c4a75a"/><stop offset="0.47" stop-color="#d1b974"/><stop offset="0.5" stop-color="#dcca8c"/><stop offset="0.99" stop-color="#b49039"/></linearGradient><linearGradient id="linear-gradient-16" x1="168.54" y1="180.57" x2="404.78" y2="180.57" xlink:href="#linear-gradient-15"/><linearGradient id="linear-gradient-17" x1="167.78" y1="267.94" x2="177.62" y2="267.94" xlink:href="#linear-gradient-15"/><linearGradient id="linear-gradient-18" x1="318.13" y1="435.35" x2="422.4" y2="435.35" xlink:href="#linear-gradient-10"/><linearGradient id="linear-gradient-19" x1="336.9" y1="433.99" x2="401.97" y2="433.99" xlink:href="#linear-gradient-10"/><linearGradient id="linear-gradient-20" x1="343.66" y1="431.41" x2="369.55" y2="431.41" xlink:href="#linear-gradient"/><linearGradient id="linear-gradient-21" x1="343.66" y1="409.08" x2="395.14" y2="409.08" xlink:href="#linear-gradient-13"/><linearGradient id="linear-gradient-22" x1="369.5" y1="431.4" x2="395.22" y2="431.4" xlink:href="#linear-gradient"/><linearGradient id="linear-gradient-23" x1="51.73" y1="67.32" x2="156" y2="67.32" xlink:href="#linear-gradient-15"/><linearGradient id="linear-gradient-24" x1="70.51" y1="65.96" x2="135.57" y2="65.96" xlink:href="#linear-gradient-15"/><linearGradient id="linear-gradient-25" x1="77.26" y1="63.38" x2="103.15" y2="63.38" xlink:href="#linear-gradient"/><linearGradient id="linear-gradient-26" x1="77.26" y1="41.05" x2="128.74" y2="41.05" xlink:href="#linear-gradient-15"/><linearGradient id="linear-gradient-27" x1="103.11" y1="63.37" x2="128.82" y2="63.37" xlink:href="#linear-gradient"/><linearGradient id="linear-gradient-28" x1="89.35" y1="40.27" x2="118.62" y2="40.27" xlink:href="#linear-gradient"/><clipPath id="clip-path"><path class="cls-1" d="M90.71,38.37V34.58a.41.41,0,0,0,0,.11v3.78A.34.34,0,0,1,90.71,38.37Z"/></clipPath><linearGradient id="linear-gradient-30" x1="89.92" y1="34.88" x2="91.75" y2="38.64" xlink:href="#linear-gradient"/><clipPath id="clip-path-2"><path class="cls-2" d="M90.77,35.46v3.78c0-.25,0-.51,0-.77V34.69C90.75,35,90.77,35.21,90.77,35.46Z"/></clipPath><clipPath id="clip-path-3"><path class="cls-3" d="M95.39,35.52l0,3.78a7.55,7.55,0,0,1-.3,2.06l0-3.78A8.47,8.47,0,0,0,95.39,35.52Z"/></clipPath><linearGradient id="linear-gradient-34" x1="95.37" y1="37.5" x2="95.39" y2="37.5" xlink:href="#linear-gradient"/><linearGradient id="linear-gradient-35" x1="96.02" y1="38.41" x2="94.59" y2="38.63" xlink:href="#linear-gradient"/><linearGradient id="linear-gradient-36" x1="120.38" y1="41.56" x2="84.17" y2="43.2" xlink:href="#linear-gradient"/><linearGradient id="linear-gradient-37" x1="89.4" y1="35.68" x2="137.88" y2="49.06" xlink:href="#linear-gradient"/><linearGradient id="linear-gradient-38" x1="118.84" y1="36.83" x2="88.4" y2="36.66" xlink:href="#linear-gradient"/><linearGradient id="linear-gradient-39" x1="118.82" y1="40.5" x2="88.38" y2="40.32" xlink:href="#linear-gradient"/><linearGradient id="linear-gradient-40" x1="118.82" y1="35.33" x2="88.41" y2="35.16" xlink:href="#linear-gradient"/><linearGradient id="linear-gradient-41" x1="196.71" y1="137.55" x2="300.98" y2="137.55" xlink:href="#linear-gradient-15"/><linearGradient id="linear-gradient-42" x1="215.48" y1="136.2" x2="280.55" y2="136.2" xlink:href="#linear-gradient-15"/><linearGradient id="linear-gradient-43" x1="222.24" y1="133.61" x2="248.13" y2="133.61" xlink:href="#linear-gradient"/><linearGradient id="linear-gradient-44" x1="222.24" y1="111.29" x2="273.72" y2="111.29" xlink:href="#linear-gradient-15"/><linearGradient id="linear-gradient-45" x1="248.08" y1="133.6" x2="273.8" y2="133.6" xlink:href="#linear-gradient"/><linearGradient id="linear-gradient-46" x1="234.33" y1="110.5" x2="263.6" y2="110.5" xlink:href="#linear-gradient"/><clipPath id="clip-path-4"><path class="cls-4" d="M235.69,108.6v-3.78a.38.38,0,0,0,0,.1l0,3.78Z"/></clipPath><clipPath id="clip-path-5"><path class="cls-5" d="M235.74,105.69v3.78a6.85,6.85,0,0,0,0-.77l0-3.78C235.73,105.18,235.74,105.44,235.74,105.69Z"/></clipPath><linearGradient id="linear-gradient-50" x1="234.74" y1="105.19" x2="236.57" y2="108.95" xlink:href="#linear-gradient"/><clipPath id="clip-path-6"><path class="cls-6" d="M240.36,105.75v3.79a7.48,7.48,0,0,1-.3,2v-3.78A7.55,7.55,0,0,0,240.36,105.75Z"/></clipPath><linearGradient id="linear-gradient-52" x1="240.35" y1="107.73" x2="240.36" y2="107.73" xlink:href="#linear-gradient"/><linearGradient id="linear-gradient-53" x1="241" y1="108.64" x2="239.57" y2="108.86" xlink:href="#linear-gradient"/><linearGradient id="linear-gradient-54" x1="265.36" y1="111.79" x2="229.15" y2="113.43" xlink:href="#linear-gradient"/><linearGradient id="linear-gradient-55" x1="234.37" y1="105.91" x2="282.85" y2="119.29" xlink:href="#linear-gradient"/><linearGradient id="linear-gradient-56" x1="263.82" y1="107.07" x2="233.37" y2="106.89" xlink:href="#linear-gradient"/><linearGradient id="linear-gradient-57" x1="263.79" y1="110.73" x2="233.35" y2="110.56" xlink:href="#linear-gradient"/><linearGradient id="linear-gradient-58" x1="263.8" y1="105.57" x2="233.39" y2="105.39" xlink:href="#linear-gradient"/><linearGradient id="linear-gradient-59" x1="88.5" y1="297.49" x2="192.77" y2="297.49" xlink:href="#linear-gradient-15"/><linearGradient id="linear-gradient-60" x1="107.27" y1="296.13" x2="172.34" y2="296.13" xlink:href="#linear-gradient-15"/><linearGradient id="linear-gradient-61" x1="114.03" y1="293.55" x2="139.92" y2="293.55" xlink:href="#linear-gradient"/><linearGradient id="linear-gradient-62" x1="114.03" y1="271.22" x2="165.51" y2="271.22" xlink:href="#linear-gradient-15"/><linearGradient id="linear-gradient-63" x1="139.88" y1="293.53" x2="165.59" y2="293.53" xlink:href="#linear-gradient"/><linearGradient id="linear-gradient-64" x1="126.12" y1="270.44" x2="155.39" y2="270.44" xlink:href="#linear-gradient"/><clipPath id="clip-path-7"><path class="cls-7" d="M127.48,268.53v-3.78a.45.45,0,0,0,0,.11v3.78A.41.41,0,0,1,127.48,268.53Z"/></clipPath><clipPath id="clip-path-8"><path class="cls-8" d="M127.54,265.63v3.78c0-.25,0-.51,0-.77v-3.78C127.52,265.12,127.54,265.37,127.54,265.63Z"/></clipPath><linearGradient id="linear-gradient-68" x1="126.54" y1="265.13" x2="128.36" y2="268.88" xlink:href="#linear-gradient"/><clipPath id="clip-path-9"><path class="cls-9" d="M132.16,265.69l0,3.78a7.6,7.6,0,0,1-.3,2.06l0-3.78A8.47,8.47,0,0,0,132.16,265.69Z"/></clipPath><linearGradient id="linear-gradient-70" x1="132.14" y1="267.67" x2="132.16" y2="267.67" xlink:href="#linear-gradient"/><linearGradient id="linear-gradient-71" x1="132.79" y1="268.58" x2="131.36" y2="268.79" xlink:href="#linear-gradient"/><linearGradient id="linear-gradient-72" x1="157.15" y1="271.72" x2="120.94" y2="273.36" xlink:href="#linear-gradient"/><linearGradient id="linear-gradient-73" x1="126.17" y1="265.85" x2="174.65" y2="279.23" xlink:href="#linear-gradient"/><linearGradient id="linear-gradient-74" x1="155.61" y1="267" x2="125.17" y2="266.83" xlink:href="#linear-gradient"/><linearGradient id="linear-gradient-75" x1="155.59" y1="270.67" x2="125.15" y2="270.49" xlink:href="#linear-gradient"/><linearGradient id="linear-gradient-76" x1="155.59" y1="265.5" x2="125.18" y2="265.33" xlink:href="#linear-gradient"/><linearGradient id="linear-gradient-77" x1="6.09" y1="150.36" x2="224.16" y2="150.36" xlink:href="#linear-gradient-15"/></defs><title>Asset 6</title><g class="cls-10"><g id="Layer_2" data-name="Layer 2"><g id="Layer_1-2" data-name="Layer 1"><path class="cls-11" d="M340,406.93a.88.88,0,0,1-.44-.12l-7.74-4.46a.89.89,0,1,1,.89-1.55l7.74,4.46a.89.89,0,0,1,.32,1.22A.87.87,0,0,1,340,406.93ZM324.49,398a.8.8,0,0,1-.45-.12l-7.74-4.46a.9.9,0,0,1-.33-1.22.91.91,0,0,1,1.23-.33l7.73,4.47a.89.89,0,0,1-.44,1.66ZM309,389.08a1,1,0,0,1-.45-.12l-7.73-4.47a.89.89,0,1,1,.89-1.54l7.74,4.46a.89.89,0,0,1-.45,1.67Zm-15.31-9.17a.89.89,0,0,1-.61-.24,11.83,11.83,0,0,1-3.72-8.63.89.89,0,0,1,.9-.89h0a.89.89,0,0,1,.89.89,10.05,10.05,0,0,0,3.15,7.33.89.89,0,0,1,0,1.26A.86.86,0,0,1,293.7,379.91Zm0-16a.94.94,0,0,1-.65-.28.91.91,0,0,1,0-1.27,12.25,12.25,0,0,1,2.2-1.62l5.53-3.22a.9.9,0,0,1,1.22.33.89.89,0,0,1-.32,1.22l-5.54,3.21a10.68,10.68,0,0,0-1.87,1.39A.89.89,0,0,1,293.69,364Zm15.29-9.2a.9.9,0,0,1-.45-1.67l7.73-4.49a.9.9,0,0,1,.9,1.55l-7.73,4.48A.81.81,0,0,1,309,354.76Zm15.45-9a.91.91,0,0,1-.77-.44.89.89,0,0,1,.33-1.22l7.72-4.49a.9.9,0,0,1,.9,1.55l-7.73,4.48A.89.89,0,0,1,324.43,345.78Zm15.45-9a.91.91,0,0,1-.77-.44.89.89,0,0,1,.33-1.22l7.72-4.49a.9.9,0,0,1,.9,1.55l-7.73,4.48A.89.89,0,0,1,339.88,336.81Zm15.45-9a.91.91,0,0,1-.77-.44.89.89,0,0,1,.33-1.22l7.72-4.49a.9.9,0,0,1,.9,1.55l-7.73,4.48A.89.89,0,0,1,355.33,327.84Zm15.45-9a.91.91,0,0,1-.77-.44.9.9,0,0,1,.33-1.23l7.72-4.48a.9.9,0,0,1,.9,1.55l-7.73,4.48A.89.89,0,0,1,370.78,318.87Zm15.45-9a.9.9,0,0,1-.45-1.67l7.73-4.48a.89.89,0,0,1,.9,1.54l-7.73,4.49A.89.89,0,0,1,386.23,309.9Zm15.45-9a.89.89,0,0,1-.44-1.67l7.72-4.48a.89.89,0,0,1,.9,1.54l-7.73,4.49A.89.89,0,0,1,401.68,300.93Zm15.45-9a.89.89,0,0,1-.44-1.67l7.72-4.48a.89.89,0,0,1,.9,1.54l-7.73,4.49A.89.89,0,0,1,417.13,292Zm15.45-9a.89.89,0,0,1-.44-1.67l6.95-4a8.09,8.09,0,0,0,.69-.44.91.91,0,0,1,1.25.23.89.89,0,0,1-.23,1.24c-.26.18-.53.36-.81.52l-7,4A.89.89,0,0,1,432.58,283Zm12.3-11.89h-.13a.88.88,0,0,1-.75-1,10.84,10.84,0,0,0,.11-1.51,10.15,10.15,0,0,0-2.13-6.21.89.89,0,1,1,1.4-1.11,11.88,11.88,0,0,1,2.51,7.32,11.62,11.62,0,0,1-.13,1.77A.88.88,0,0,1,444.88,271.1Zm-9.46-13.5a.82.82,0,0,1-.45-.12L427.24,253a.89.89,0,0,1-.32-1.22.9.9,0,0,1,1.22-.33l7.73,4.48a.89.89,0,0,1-.45,1.66Zm-103.72-.51a.87.87,0,0,1-.77-.45.9.9,0,0,1,.32-1.22L339,251a.89.89,0,1,1,.89,1.55L332.15,257A1,1,0,0,1,331.7,257.09ZM420,248.66a.89.89,0,0,1-.45-.12l-7.73-4.48a.89.89,0,0,1-.33-1.22.9.9,0,0,1,1.22-.32L420.4,247a.89.89,0,0,1-.44,1.67Zm-72.79-.5a.91.91,0,0,1-.77-.44.89.89,0,0,1,.33-1.22l7.74-4.47a.89.89,0,0,1,.89,1.55L347.62,248A.89.89,0,0,1,347.17,248.16Zm57.32-8.45a.92.92,0,0,1-.45-.12l-4.31-2.49a32.39,32.39,0,0,0-3.43-1.73.89.89,0,1,1,.71-1.64,34,34,0,0,1,3.62,1.82l4.31,2.5a.89.89,0,0,1-.45,1.66Zm-41.84-.47a.9.9,0,0,1-.45-1.67l3.54-2a33.63,33.63,0,0,1,4.48-2.17.89.89,0,1,1,.66,1.65,33.36,33.36,0,0,0-4.25,2.07l-3.53,2A.92.92,0,0,1,362.65,239.24ZM388.09,233H388a33.2,33.2,0,0,0-8.68-.12.9.9,0,0,1-.21-1.78,35.41,35.41,0,0,1,9.14.13.89.89,0,0,1-.12,1.78Z"/><path class="cls-12" d="M292.56,253.34c-20.3,11.7-20.3,30.85,0,42.55s53.52,11.7,73.82,0,20.3-30.85,0-42.55S312.86,241.64,292.56,253.34Z"/><path class="cls-13" d="M305.61,260c-12.67,7.3-12.67,19.25,0,26.55s33.4,7.31,46.06,0,12.67-19.25,0-26.55S318.28,252.68,305.61,260Z"/><polygon class="cls-14" points="302.86 248.39 328.71 263.19 328.75 292.96 302.93 277.99 302.86 248.39"/><polygon class="cls-15" points="302.86 248.39 328.59 233.51 354.34 248.37 328.71 263.19 302.86 248.39"/><polygon class="cls-16" points="328.71 263.19 328.75 292.96 354.42 278 354.34 248.37 328.71 263.19"/><polygon class="cls-17" points="90.2 44.77 12.17 0 10.38 1.03 89.35 46.34 90.2 44.77"/><path class="cls-18" d="M169.43,270.58l-.89-1.55L398,137a10.07,10.07,0,0,0,0-17.48L357.85,96.67a33.21,33.21,0,0,0-32.94.1l-86.72,50.11-.89-1.54L324,95.22a35,35,0,0,1,34.73-.1L398.8,118a11.86,11.86,0,0,1,0,20.58Z"/><polygon class="cls-19" points="177.62 270.94 167.78 270.9 168.08 264.94 169.87 265.04 169.66 269.12 177.62 269.16 177.62 270.94"/><polygon class="cls-11" points="314.69 275.64 312.9 275.62 312.94 271.38 305.25 271.28 305.28 269.5 314.75 269.62 314.69 275.64"/><polygon class="cls-11" points="341.69 407.87 332.23 407.65 332.27 405.86 339.92 406.04 339.95 401.93 341.74 401.94 341.69 407.87"/><polygon class="cls-11" points="469.94 479.93 460.48 479.71 460.52 477.93 468.17 478.1 468.2 473.99 469.99 474.01 469.94 479.93"/><path class="cls-20" d="M333.35,414.08c-20.3,11.7-20.3,30.84,0,42.54s53.52,11.7,73.82,0,20.3-30.84,0-42.54S353.65,402.38,333.35,414.08Z"/><path class="cls-21" d="M346.4,420.72c-12.66,7.3-12.66,19.25,0,26.55s33.4,7.3,46.07,0,12.67-19.25,0-26.55S359.07,413.42,346.4,420.72Z"/><polygon class="cls-22" points="343.66 409.13 369.5 423.93 369.55 453.69 343.73 438.73 343.66 409.13"/><polygon class="cls-23" points="343.66 409.13 369.39 394.24 395.14 409.1 369.5 423.93 343.66 409.13"/><polygon class="cls-24" points="369.5 423.93 369.55 453.69 395.22 438.74 395.14 409.1 369.5 423.93"/><path class="cls-25" d="M67,46c-20.3,11.7-20.3,30.85,0,42.55s53.52,11.7,73.82,0,20.3-30.85,0-42.55S87.25,34.35,67,46Z"/><path class="cls-26" d="M80,52.69C67.34,60,67.34,71.94,80,79.24s33.39,7.3,46.06,0,12.67-19.25,0-26.55S92.67,45.39,80,52.69Z"/><polygon class="cls-27" points="77.26 41.1 103.11 55.9 103.15 85.66 77.33 70.69 77.26 41.1"/><polygon class="cls-28" points="77.26 41.1 102.99 26.21 128.74 41.07 103.11 55.9 77.26 41.1"/><polygon class="cls-29" points="103.11 55.9 103.15 85.66 128.82 70.71 128.74 41.07 103.11 55.9"/><path class="cls-30" d="M118.62,41s0,0,0-.08h0a1,1,0,0,0-.54-.72,2.66,2.66,0,0,0-.63-.26A56.29,56.29,0,0,0,95.12,38.5v-2c0,.15,0,.29,0,.44a6,6,0,0,0,0-1.27,1.14,1.14,0,0,0-.66-.89c-1.3-.75-4-.47-3.94.87h0v0a.34.34,0,0,1,0-.1v1.51a7.31,7.31,0,0,1-1,3,.7.7,0,0,0-.08.27h0s0,.06,0,.08h0v3.78a1.15,1.15,0,0,0,.7.93,2.12,2.12,0,0,0,.37.18l.3.1.24.06.11,0h0l.1,0,.21,0,.2,0H92l.26,0c1.6-.28,3.21-.5,4.82-.67l.63-.07c1.13-.11,2.27-.19,3.41-.23l1.11,0c.62,0,1.24,0,1.86,0s1,0,1.56.07l1.23.07c.65,0,1.3.12,1.94.2l.78.09c.91.12,1.82.28,2.71.47.59.12,1.18.28,1.76.43.35.09.71.16,1.05.26h0l.29.07.24,0h.89l.27,0a.45.45,0,0,0,.11,0l.19,0,.16,0,.1-.05.34-.15.12-.06.06,0,.16-.12.12-.09.08-.09,0,0,0-.05a.86.86,0,0,0,.1-.16.16.16,0,0,0,0-.07v0l0,0a.65.65,0,0,0,0-.13.53.53,0,0,0,0-.13V41Zm-1.9,1.39ZM113.88,42c-.51-.13-1-.27-1.52-.38C112.87,41.68,113.37,41.82,113.88,42Zm-19.06-.62c-.84.11-1.68.2-2.52.35q1.26-.23,2.52-.39ZM95,37.45c0,.1,0,.2,0,.3a7.25,7.25,0,0,1-.17.78A7.64,7.64,0,0,0,95,37.45Zm-5.49,3.42,0,0,0,.06Zm.52.45Zm5,0a.09.09,0,0,1,0,0c.69-.1,1.39-.17,2.08-.24C96.43,41.08,95.73,41.21,95,41.3Zm2.72-.36c1.14-.11,2.27-.19,3.41-.23C100,40.75,98.89,40.83,97.75,40.94Zm4.53-.25c.61,0,1.23,0,1.85,0C103.51,40.67,102.89,40.68,102.28,40.69Zm3.42.06,1.22.06h0Zm3.19.27.75.08Zm6.27,1.24a3.34,3.34,0,0,0,.66.13h0A3.12,3.12,0,0,1,115.16,42.26Zm1,.14Zm.74-.06h0Zm.25-.06.21-.08h0Zm.58-.24-.05,0a1.57,1.57,0,0,0,.31-.18l-.08.06Zm.59-.44,0,0a1.31,1.31,0,0,1-.12.11,1.09,1.09,0,0,1,.1-.11l.1-.11,0,0Zm.2-.31v0l0,.06a.38.38,0,0,0,0-.1l0-.08c0-.06,0-.11,0-.16A.76.76,0,0,1,118.55,41.29Z"/><g class="cls-10"><g class="cls-10"><path class="cls-1" d="M90.71,38.37V34.58a.41.41,0,0,0,0,.11v3.78A.34.34,0,0,1,90.71,38.37Z"/><g class="cls-31"><g class="cls-10"><path class="cls-32" d="M90.73,34.69v3.78a.34.34,0,0,1,0-.1V34.58a.41.41,0,0,0,0,.11"/></g></g></g><g class="cls-10"><path class="cls-2" d="M90.77,35.46v3.78c0-.25,0-.51,0-.77V34.69C90.75,35,90.77,35.21,90.77,35.46Z"/><g class="cls-33"><g class="cls-10"><path class="cls-2" d="M90.77,35.46v3.78c0-.25,0-.51,0-.77V34.69c0,.26,0,.52,0,.77"/></g></g></g><g class="cls-10"><path class="cls-3" d="M95.39,35.52l0,3.78a7.55,7.55,0,0,1-.3,2.06l0-3.78A8.47,8.47,0,0,0,95.39,35.52Z"/><g class="cls-34"><g class="cls-10"><path class="cls-35" d="M95.39,35.52l0,3.78V35.7c0-.06,0-.12,0-.18"/><path class="cls-36" d="M95.24,37l-.15.63,0,3.78c.06-.21.11-.42.16-.63a7.47,7.47,0,0,0,.14-1.25V35.7A7.47,7.47,0,0,1,95.24,37Z"/></g></g></g><path class="cls-37" d="M118.81,40.34v0a1.21,1.21,0,0,1-.18.28l-.06.06a1.77,1.77,0,0,1-.2.17l-.16.12-.18.1a1.75,1.75,0,0,1-.34.15l-.26.09-.19.05a3.46,3.46,0,0,1-.48.07h0a4,4,0,0,1-.6,0h0a5.19,5.19,0,0,1-.64-.13h0c-.37-.11-.74-.18-1.11-.27-.56-.14-1.11-.3-1.67-.41h0c-.86-.18-1.73-.33-2.6-.45h-.09c-.25,0-.51,0-.77-.09-.58-.07-1.15-.14-1.72-.19h-.23L106,39.79l-1.29-.06h-.27c-.62,0-1.24,0-1.86,0-.32,0-.64,0-1,0h-.15c-1.14,0-2.27.12-3.41.23l-.23,0-.39,0c-1.61.17-3.22.39-4.83.68a3.72,3.72,0,0,1-1.2,0h0a3.41,3.41,0,0,1-1-.35,1.2,1.2,0,0,1-.7-.93v3.78a1.2,1.2,0,0,0,.7.93c.12.07.24.12.37.18l.3.1.25.06.1,0h0l.1,0,.21,0h.64l.25,0c1.61-.29,3.22-.5,4.83-.68l.62-.07c1.14-.1,2.27-.18,3.41-.23h1.11c.62,0,1.24,0,1.86,0s1,0,1.56.07l1.23.06c.65,0,1.3.13,2,.21l.77.08c.91.13,1.82.28,2.72.47.59.12,1.17.28,1.75.43.35.09.71.16,1.06.26h0l.29.07.24.05h.89l.27,0,.11,0,.19,0,.16,0,.1,0,.34-.16.12,0,.06,0,.16-.12.13-.09.07-.08,0-.06.05,0,.11-.16,0-.07v0s0,0,0,0a.93.93,0,0,0,0-.13c0-.05,0-.09,0-.13V40A.79.79,0,0,1,118.81,40.34Z"/><path class="cls-38" d="M118.33,39.22c1.6.93-.52,2.78-2.9,2.09-7.37-2.11-15.19-2-22.87-.58a3.51,3.51,0,0,1-2.24-.36c-.56-.33-.86-.81-.6-1.29a7,7,0,0,0,1-4.39c-.15-1.36,2.64-1.65,4-.9a1.22,1.22,0,0,1,.66.9,7.4,7.4,0,0,1-.25,2.89A56.27,56.27,0,0,1,117.69,39,4,4,0,0,1,118.33,39.22Z"/></g><g class="cls-39"><path class="cls-40" d="M95.12,37.4A7.41,7.41,0,0,0,95.35,36a7.71,7.71,0,0,1-.26,1.42Z"/><path class="cls-41" d="M115.43,41.14c-7.37-2.11-15.19-2-22.87-.59a3.39,3.39,0,0,1-2.24-.36,1.23,1.23,0,0,1-.67-.84,1.11,1.11,0,0,0,.67,1,3.51,3.51,0,0,0,2.24.36c7.68-1.37,15.5-1.53,22.87.58,1.85.54,3.52-.46,3.43-1.36C118.73,40.8,117.16,41.64,115.43,41.14Z"/><path class="cls-42" d="M90.73,34.66v0a8.22,8.22,0,0,1,0,1A7,7,0,0,0,90.73,34.66Z"/></g><path class="cls-43" d="M211.93,116.28c-20.3,11.7-20.3,30.84,0,42.55s53.52,11.7,73.82,0,20.3-30.85,0-42.55S232.23,104.58,211.93,116.28Z"/><path class="cls-44" d="M225,122.92c-12.66,7.3-12.66,19.25,0,26.55s33.4,7.3,46.07,0,12.67-19.25,0-26.55S237.65,115.62,225,122.92Z"/><polygon class="cls-45" points="222.24 111.33 248.08 126.13 248.13 155.89 222.31 140.93 222.24 111.33"/><polygon class="cls-46" points="222.24 111.33 247.97 96.44 273.72 111.3 248.08 126.13 222.24 111.33"/><polygon class="cls-47" points="248.08 126.13 248.13 155.89 273.8 140.94 273.72 111.3 248.08 126.13"/><path class="cls-48" d="M263.6,111.22a.32.32,0,0,0,0-.09h0a.92.92,0,0,0-.53-.72,2.58,2.58,0,0,0-.64-.26,56.28,56.28,0,0,0-22.31-1.42v-2c0,.14,0,.29,0,.43a7.71,7.71,0,0,0,0-1.27,1.18,1.18,0,0,0-.66-.89c-1.3-.75-4-.47-3.94.87h0a0,0,0,0,1,0,0v1.41a7.12,7.12,0,0,1-1,3,.68.68,0,0,0-.07.27h0s0,.06,0,.09h0v3.79a1.18,1.18,0,0,0,.7.93,3,3,0,0,0,.36.17l.3.1a1.14,1.14,0,0,0,.25.06l.11,0h.12l.21,0h.41l.22,0,.26,0c1.6-.29,3.21-.51,4.82-.68l.62-.07c1.14-.11,2.28-.19,3.42-.23h1.1c.62,0,1.25,0,1.87,0s1,0,1.55.06l1.23.07c.66,0,1.3.13,2,.2.26,0,.52,0,.78.09.91.13,1.81.28,2.71.47.59.12,1.17.28,1.76.43.35.09.7.16,1.05.26h0l.29.07.24,0,.12,0h.77l.28,0,.11,0,.18,0,.16,0,.11-.05a2.07,2.07,0,0,0,.34-.15l.12-.06.06,0,.16-.12.12-.09.08-.08.05-.06,0,0a.72.72,0,0,0,.11-.15l0-.08,0,0a.05.05,0,0,1,0,0s0-.09,0-.14,0-.08,0-.12v-3.79Zm-1.91,1.38h0Zm-2.83-.42c-.51-.13-1-.27-1.52-.37C257.85,111.91,258.35,112.05,258.86,112.18Zm-19.07-.62c-.84.12-1.68.2-2.51.35.84-.15,1.67-.27,2.51-.39Zm.21-3.87c0,.09,0,.19,0,.29-.05.26-.1.53-.17.79A8.19,8.19,0,0,0,240,107.69Zm-5.48,3.41s0,0,0,0l.05.06Zm.52.45Zm5,0v0l2.09-.24C241.4,111.31,240.71,111.44,240,111.53Zm2.72-.36c1.13-.11,2.27-.19,3.4-.23C245,111,243.86,111.06,242.73,111.17Zm4.53-.25c.61,0,1.23,0,1.84,0C248.49,110.9,247.87,110.91,247.26,110.92Zm3.41.06,1.23.07h0Zm3.2.27c.25,0,.5,0,.75.09C254.37,111.3,254.12,111.28,253.87,111.25Zm6.27,1.25a4.2,4.2,0,0,0,.66.12h0A3.89,3.89,0,0,1,260.14,112.5Zm1,.13h.26A1.15,1.15,0,0,1,261.16,112.63Zm.75-.06h0Zm.24-.06.22-.08h0Zm.59-.23-.05,0,.31-.18-.08.06Zm.59-.45s0,0-.05,0a.69.69,0,0,1-.13.11,1.14,1.14,0,0,0,.11-.11l.09-.1,0,0S263.36,111.8,263.33,111.83Zm.2-.31v0l0,.06s0-.07,0-.1a.24.24,0,0,0,0-.08.76.76,0,0,0,.06-.16A1,1,0,0,1,263.53,111.52Z"/><g class="cls-10"><g class="cls-10"><path class="cls-4" d="M235.69,108.6v-3.78a.38.38,0,0,0,0,.1l0,3.78Z"/><g class="cls-49"><g class="cls-10"><path class="cls-4" d="M235.71,104.92l0,3.78v-3.88a.38.38,0,0,0,0,.1"/></g></g></g><g class="cls-10"><path class="cls-5" d="M235.74,105.69v3.78a6.85,6.85,0,0,0,0-.77l0-3.78C235.73,105.18,235.74,105.44,235.74,105.69Z"/><g class="cls-50"><g class="cls-10"><path class="cls-51" d="M235.74,105.69v3.78a6.85,6.85,0,0,0,0-.77l0-3.78c0,.26,0,.52,0,.77"/></g></g></g><g class="cls-10"><path class="cls-6" d="M240.36,105.75v3.79a7.48,7.48,0,0,1-.3,2v-3.78A7.55,7.55,0,0,0,240.36,105.75Z"/><g class="cls-52"><g class="cls-10"><path class="cls-53" d="M240.36,105.75v0"/><path class="cls-54" d="M240.21,107.18q-.06.31-.15.63v3.78a5.81,5.81,0,0,0,.15-.63,6.47,6.47,0,0,0,.15-1.24v-3.79A6.57,6.57,0,0,1,240.21,107.18Z"/></g></g></g><path class="cls-55" d="M263.79,110.57v0a1.48,1.48,0,0,1-.19.27l0,.06-.2.17-.16.12-.18.1a2.07,2.07,0,0,1-.34.15,1.34,1.34,0,0,1-.26.09l-.19,0a3.46,3.46,0,0,1-.48.07h-.05a3.92,3.92,0,0,1-.59,0h0a3.94,3.94,0,0,1-.65-.13h0c-.36-.1-.74-.18-1.11-.27-.55-.14-1.1-.29-1.66-.41h0c-.86-.17-1.73-.32-2.6-.45h-.09l-.78-.08c-.57-.07-1.14-.15-1.72-.2h-.22c-.41,0-.82,0-1.23-.06s-.86-.06-1.29-.07h-.27c-.62,0-1.24,0-1.86,0-.32,0-.64,0-1,0h-.15c-1.14,0-2.28.13-3.41.23l-.23,0-.39,0c-1.62.18-3.23.39-4.83.68a3.72,3.72,0,0,1-1.2,0h0a3.41,3.41,0,0,1-1-.36,1.18,1.18,0,0,1-.7-.93v3.78a1.17,1.17,0,0,0,.7.93,2.12,2.12,0,0,0,.37.18l.3.1.24.06.11,0h0l.1,0,.21,0h.63l.26,0c1.6-.28,3.21-.5,4.82-.67L243,114c1.13-.11,2.27-.19,3.41-.23.37,0,.74,0,1.1,0,.63,0,1.25,0,1.87,0s1,0,1.56.07.82,0,1.23.07c.65.05,1.3.12,1.94.2.26,0,.52,0,.78.09.91.12,1.82.28,2.71.46.59.13,1.18.29,1.76.43.35.09.71.16,1.05.26h0l.29.08.24,0h.22l.21,0h.46l.27,0,.11,0,.19,0,.16,0,.1,0,.34-.16.12,0,.06,0a.91.91,0,0,0,.16-.11.58.58,0,0,0,.12-.1.6.6,0,0,0,.08-.08s0,0,.05,0l.05,0a.86.86,0,0,0,.1-.16.25.25,0,0,0,0-.07v0s0,0,0,0a.65.65,0,0,0,0-.13.57.57,0,0,0,0-.13v-3.8A.74.74,0,0,1,263.79,110.57Z"/><path class="cls-56" d="M263.3,109.46c1.61.93-.51,2.78-2.9,2.08-7.36-2.1-15.19-2-22.86-.58a3.44,3.44,0,0,1-2.24-.36c-.57-.33-.86-.81-.6-1.28a7.06,7.06,0,0,0,1-4.4c-.15-1.36,2.63-1.65,3.94-.89a1.14,1.14,0,0,1,.66.89,7.21,7.21,0,0,1-.25,2.89,56.49,56.49,0,0,1,22.61,1.39A2.66,2.66,0,0,1,263.3,109.46Z"/></g><g class="cls-39"><path class="cls-57" d="M240.1,107.63a7.41,7.41,0,0,0,.23-1.41,8.67,8.67,0,0,1-.27,1.42Z"/><path class="cls-58" d="M260.4,111.37c-7.36-2.11-15.19-2-22.86-.58a3.5,3.5,0,0,1-2.24-.36,1.28,1.28,0,0,1-.68-.84,1.12,1.12,0,0,0,.68,1,3.44,3.44,0,0,0,2.24.36c7.67-1.37,15.5-1.52,22.86.58,1.85.54,3.53-.45,3.44-1.36C263.71,111,262.14,111.87,260.4,111.37Z"/><path class="cls-59" d="M235.71,104.9s0,0,0,0a8.26,8.26,0,0,1,0,1A6.84,6.84,0,0,0,235.71,104.9Z"/></g><path class="cls-60" d="M103.72,276.21c-20.3,11.7-20.3,30.85,0,42.55s53.52,11.7,73.82,0,20.3-30.85,0-42.55S124,264.51,103.72,276.21Z"/><path class="cls-61" d="M116.78,282.86c-12.67,7.3-12.67,19.24,0,26.55s33.39,7.3,46.06,0,12.67-19.25,0-26.55S129.44,275.56,116.78,282.86Z"/><polygon class="cls-62" points="114.03 271.26 139.88 286.06 139.92 315.83 114.1 300.86 114.03 271.26"/><polygon class="cls-63" points="114.03 271.26 139.76 256.38 165.51 271.24 139.88 286.06 114.03 271.26"/><polygon class="cls-64" points="139.88 286.06 139.92 315.83 165.59 300.88 165.51 271.24 139.88 286.06"/><path class="cls-65" d="M155.39,271.15s0,0,0-.08h0a.94.94,0,0,0-.54-.72,2.66,2.66,0,0,0-.63-.26,56.12,56.12,0,0,0-22.31-1.42v-2c0,.15,0,.29,0,.44a6,6,0,0,0,0-1.27,1.14,1.14,0,0,0-.66-.89c-1.3-.76-4.05-.47-3.94.87h0a0,0,0,0,0,0,0,.38.38,0,0,1,0-.1v1.5a7.35,7.35,0,0,1-1,3,.7.7,0,0,0-.08.27h0s0,0,0,.08h0v3.78a1.17,1.17,0,0,0,.7.93,2.12,2.12,0,0,0,.37.18l.29.1.25.06.11,0h0l.1,0,.21,0h.63l.26,0c1.6-.28,3.21-.5,4.82-.67l.63-.07c1.13-.11,2.27-.19,3.41-.23.37,0,.74,0,1.1,0,.63,0,1.25,0,1.87,0s1,0,1.56.07l1.23.06c.65.06,1.3.13,1.94.21.26,0,.52,0,.78.09.91.12,1.81.28,2.71.46.59.13,1.18.28,1.76.43.35.09.71.16,1,.26h0l.29.08.24,0h.22l.21,0h.46l.27,0,.11,0,.19,0,.16,0,.1,0,.34-.16.12-.05.06-.05a.91.91,0,0,0,.16-.11s.09-.06.12-.1l.08-.08.05-.05,0-.05a.86.86,0,0,0,.1-.16.25.25,0,0,0,0-.07v0s0,0,0,0a.65.65,0,0,0,0-.13.57.57,0,0,0,0-.13v-3.8Zm-1.91,1.39h0Zm-2.83-.43c-.51-.13-1-.26-1.52-.37C149.64,271.85,150.14,272,150.65,272.11Zm-19.07-.61c-.83.11-1.67.2-2.51.35.84-.15,1.68-.28,2.51-.4Zm.22-3.88c0,.1,0,.2,0,.29a6.93,6.93,0,0,1-.17.79A10.28,10.28,0,0,0,131.8,267.62ZM126.31,271l0,0,0,.05Zm.52.46Zm5,0a.07.07,0,0,1,0-.05c.69-.1,1.39-.17,2.08-.25C133.19,271.25,132.5,271.37,131.8,271.47Zm2.72-.37c1.13-.11,2.27-.18,3.41-.23C136.79,270.92,135.65,271,134.52,271.1Zm4.53-.24c.61,0,1.23,0,1.85,0C140.28,270.84,139.66,270.85,139.05,270.86Zm3.42.06,1.22.06h0Zm3.19.27.75.08Zm6.27,1.24a3.34,3.34,0,0,0,.66.13h0A5.34,5.34,0,0,1,151.93,272.43Zm1,.14Zm.74-.06h0Zm.25-.06.21-.08.05,0h0Zm.58-.24-.05,0a2.29,2.29,0,0,0,.31-.18l-.08.06Zm.59-.45-.05.06-.13.11a1.2,1.2,0,0,0,.11-.12l.1-.1,0,0A.36.36,0,0,1,155.12,271.76Zm.2-.3v0l0,.06a.54.54,0,0,0,0-.1l0-.09c0-.05,0-.1,0-.15A.76.76,0,0,1,155.32,271.46Z"/><g class="cls-10"><g class="cls-10"><path class="cls-7" d="M127.48,268.53v-3.78a.45.45,0,0,0,0,.11v3.78A.41.41,0,0,1,127.48,268.53Z"/><g class="cls-66"><g class="cls-10"><path class="cls-7" d="M127.5,264.86v3.78a.41.41,0,0,1,0-.11v-3.78a.45.45,0,0,0,0,.11"/></g></g></g><g class="cls-10"><path class="cls-8" d="M127.54,265.63v3.78c0-.25,0-.51,0-.77v-3.78C127.52,265.12,127.54,265.37,127.54,265.63Z"/><g class="cls-67"><g class="cls-10"><path class="cls-68" d="M127.54,265.63v3.78c0-.25,0-.51,0-.77v-3.78c0,.26,0,.51,0,.77"/></g></g></g><g class="cls-10"><path class="cls-9" d="M132.16,265.69l0,3.78a7.6,7.6,0,0,1-.3,2.06l0-3.78A8.47,8.47,0,0,0,132.16,265.69Z"/><g class="cls-69"><g class="cls-10"><path class="cls-70" d="M132.16,265.69l0,3.78v-3.6c0-.06,0-.12,0-.18"/><path class="cls-71" d="M132,267.12l-.15.63,0,3.78c.06-.21.11-.42.16-.63a7.47,7.47,0,0,0,.14-1.25v-3.78A7.59,7.59,0,0,1,132,267.12Z"/></g></g></g><path class="cls-72" d="M155.58,270.5v0a1,1,0,0,1-.19.28l0,.05a1.16,1.16,0,0,1-.2.18l-.16.12-.18.1-.34.15-.26.09-.19,0a2.41,2.41,0,0,1-.48.08h0a4,4,0,0,1-.6,0h0a3.78,3.78,0,0,1-.64-.12h0c-.37-.11-.74-.18-1.11-.28-.56-.14-1.11-.29-1.67-.4h0c-.86-.18-1.73-.33-2.6-.45h-.09c-.25,0-.51-.06-.77-.09-.58-.07-1.15-.14-1.73-.19H144l-1.23-.07c-.43,0-.86-.06-1.29-.07h-.27c-.62,0-1.24,0-1.86,0h-1.11c-1.14,0-2.27.12-3.41.23h-.23l-.39.06c-1.61.17-3.22.39-4.83.67a3.23,3.23,0,0,1-1.2,0h0a3.16,3.16,0,0,1-1-.36,1.17,1.17,0,0,1-.7-.93v3.79a1.2,1.2,0,0,0,.7.93l.37.17.3.1a1,1,0,0,0,.25.06l.1,0h.12l.21,0h.41l.23,0,.25,0c1.61-.29,3.22-.51,4.83-.68l.62-.07c1.14-.11,2.27-.19,3.41-.23h1.11c.62,0,1.24,0,1.86,0l1.56.06,1.23.07c.65.05,1.3.13,1.95.2.25,0,.51.05.77.09.91.13,1.82.28,2.72.47.59.12,1.17.28,1.75.43.35.09.71.16,1.06.26h0l.29.07.24,0,.11,0h.78l.27,0,.11,0,.19-.05.16,0,.1-.05a2.07,2.07,0,0,0,.34-.15.45.45,0,0,0,.12-.06l.06,0,.16-.12.13-.09.07-.08.05-.06,0,0,.11-.15,0-.08v0l0,0a.74.74,0,0,0,0-.14s0-.08,0-.12v-3.81A.72.72,0,0,1,155.58,270.5Z"/><path class="cls-73" d="M155.09,269.39c1.61.93-.51,2.78-2.89,2.09-7.37-2.11-15.2-2-22.87-.59a3.39,3.39,0,0,1-2.24-.36c-.56-.32-.86-.8-.6-1.28a7,7,0,0,0,1-4.39c-.15-1.37,2.64-1.65,3.95-.9a1.16,1.16,0,0,1,.65.9,7.21,7.21,0,0,1-.24,2.89,56.27,56.27,0,0,1,22.6,1.38A2.92,2.92,0,0,1,155.09,269.39Z"/></g><g class="cls-39"><path class="cls-74" d="M131.89,267.57a7.68,7.68,0,0,0,.23-1.41,8.34,8.34,0,0,1-.26,1.41Z"/><path class="cls-75" d="M152.2,271.3c-7.37-2.1-15.2-1.95-22.87-.58a3.45,3.45,0,0,1-2.24-.36,1.2,1.2,0,0,1-.67-.84,1.08,1.08,0,0,0,.67,1,3.39,3.39,0,0,0,2.24.36c7.67-1.36,15.5-1.52,22.87.59,1.85.54,3.52-.46,3.43-1.36C155.5,271,153.93,271.81,152.2,271.3Z"/><path class="cls-76" d="M127.5,264.83v0a8.18,8.18,0,0,1,0,1A7,7,0,0,0,127.5,264.83Z"/></g><path class="cls-77" d="M224.16,153.92h-2.39L87,232.18a33.62,33.62,0,0,1-33.54,0L12.92,208.82a10.06,10.06,0,0,1,0-17.43l147.75-85.68a11.86,11.86,0,0,0-.06-20.55l-39.9-22.89-1.84,1L159.7,86.71a10.07,10.07,0,0,1,.05,17.45L12,189.85a11.85,11.85,0,0,0,0,20.52l40.56,23.38a35.42,35.42,0,0,0,35.33,0l136.24-79.15Z"/><path class="cls-11" d="M59.12,412.15H59a34.62,34.62,0,0,1-8.85-2.28.89.89,0,0,1-.5-1.16.91.91,0,0,1,1.17-.5,32.91,32.91,0,0,0,8.39,2.17.89.89,0,0,1-.1,1.78Zm8.9-.1a.89.89,0,0,1-.12-1.78,33.26,33.26,0,0,0,8.35-2.34.89.89,0,0,1,.7,1.64,34.51,34.51,0,0,1-8.8,2.47Zm-25.41-6.31a.92.92,0,0,1-.45-.12l-7.72-4.5a.9.9,0,0,1,.9-1.55l7.72,4.5a.9.9,0,0,1,.32,1.23A.89.89,0,0,1,42.61,405.74Zm41.84-.35a.89.89,0,0,1-.45-1.67l7.74-4.46a.89.89,0,1,1,.89,1.55l-7.74,4.46A.88.88,0,0,1,84.45,405.39Zm-57.27-8.65a.89.89,0,0,1-.45-.12L19,392.12a.89.89,0,0,1-.32-1.22.9.9,0,0,1,1.22-.33l7.72,4.5a.9.9,0,0,1-.45,1.67Zm72.74-.28a.89.89,0,0,1-.44-1.66l7.73-4.47a.9.9,0,0,1,.9,1.55l-7.74,4.46A.82.82,0,0,1,99.92,396.46Zm-88.18-8.72a.92.92,0,0,1-.45-.12l-5.41-3.16a11.87,11.87,0,0,1-2.29-1.73.89.89,0,0,1,0-1.26.91.91,0,0,1,1.27,0,10.17,10.17,0,0,0,2,1.47l5.41,3.16a.89.89,0,0,1-.45,1.66Zm103.66-.2a.87.87,0,0,1-.77-.45.89.89,0,0,1,.32-1.22l7.74-4.46a.89.89,0,1,1,.89,1.54l-7.74,4.47A.88.88,0,0,1,115.4,387.54Zm15.47-8.93a.87.87,0,0,1-.77-.45.89.89,0,0,1,.33-1.22l7.73-4.46a.9.9,0,0,1,.9,1.55l-7.74,4.46A.89.89,0,0,1,130.87,378.61ZM.89,375h0a.9.9,0,0,1-.88-.91,11.84,11.84,0,0,1,3.84-8.57A.89.89,0,1,1,5,366.8a10,10,0,0,0-3.25,7.28A.91.91,0,0,1,.89,375Zm145.46-5.28a.89.89,0,0,1-.45-1.66l7.74-4.47a.89.89,0,1,1,.89,1.55l-7.73,4.46A1,1,0,0,1,146.35,369.68ZM12,362.36a.89.89,0,0,1-.45-1.66l7.74-4.46a.89.89,0,1,1,.89,1.55l-7.74,4.45A.88.88,0,0,1,12,362.36Zm149.78-1.6a.92.92,0,0,1-.77-.45.89.89,0,0,1,.33-1.22l7.74-4.47a.89.89,0,1,1,.89,1.55l-7.74,4.47A.89.89,0,0,1,161.82,360.76Zm-134.3-7.31a.87.87,0,0,1-.77-.45.89.89,0,0,1,.33-1.22l7.74-4.45a.89.89,0,1,1,.89,1.54L28,353.33A.92.92,0,0,1,27.52,353.45Zm149.78-1.62a.87.87,0,0,1-.77-.45.89.89,0,0,1,.32-1.22l7.74-4.46a.89.89,0,1,1,.89,1.55l-7.73,4.46A.92.92,0,0,1,177.3,351.83ZM43,344.54a.89.89,0,0,1-.45-1.67l7.74-4.45a.89.89,0,1,1,.89,1.54l-7.74,4.46A.88.88,0,0,1,43,344.54Zm149.77-1.64a.9.9,0,0,1-.78-.45.89.89,0,0,1,.33-1.22l7.74-4.46a.89.89,0,0,1,.89,1.55l-7.74,4.46A.88.88,0,0,1,192.78,342.9ZM58.49,335.63a.87.87,0,0,1-.77-.45.89.89,0,0,1,.33-1.22l7.74-4.46a.89.89,0,1,1,.89,1.55l-7.74,4.46A.92.92,0,0,1,58.49,335.63ZM208.25,334a.89.89,0,0,1-.45-1.66l7.74-4.47a.9.9,0,0,1,.9,1.55l-7.74,4.46A.82.82,0,0,1,208.25,334ZM74,326.71a.91.91,0,0,1-.78-.44.89.89,0,0,1,.33-1.22l7.74-4.46a.89.89,0,1,1,.89,1.55l-7.74,4.45A.79.79,0,0,1,74,326.71Zm149.75-1.66a.89.89,0,0,1-.45-1.67l7.74-4.46a.89.89,0,1,1,.89,1.54l-7.74,4.47A.88.88,0,0,1,223.73,325.05ZM89.46,317.8a.89.89,0,0,1-.45-1.67l7.75-4.45A.89.89,0,0,1,98,312a.91.91,0,0,1-.33,1.22l-7.75,4.45A.88.88,0,0,1,89.46,317.8Zm149.74-1.68a.87.87,0,0,1-.77-.45.89.89,0,0,1,.33-1.22l7.73-4.46a.89.89,0,0,1,1.22.33.9.9,0,0,1-.32,1.22L239.65,316A.92.92,0,0,1,239.2,316.12Zm-134.26-7.23a.87.87,0,0,1-.77-.45.89.89,0,0,1,.33-1.22l7.74-4.45a.89.89,0,1,1,.89,1.54l-7.74,4.46A.89.89,0,0,1,104.94,308.89Zm149.74-1.7a.91.91,0,0,1-.78-.44.9.9,0,0,1,.33-1.22l7.74-4.47a.89.89,0,1,1,.89,1.55l-7.74,4.46A.88.88,0,0,1,254.68,307.19Zm15.74-9.45a.87.87,0,0,1-.77-.45.89.89,0,0,1,.32-1.22l7.74-4.46a.89.89,0,0,1,1.22.32.91.91,0,0,1-.32,1.23l-7.74,4.46A.92.92,0,0,1,270.42,297.74Zm15.48-8.93a.89.89,0,0,1-.45-1.67l7.74-4.46a.89.89,0,1,1,.89,1.55l-7.74,4.46A.88.88,0,0,1,285.9,288.81Zm15.47-8.93a.89.89,0,0,1-.44-1.66l7.73-4.47a.9.9,0,0,1,.9,1.55l-7.74,4.46A.82.82,0,0,1,301.37,279.88ZM120.43,300a.89.89,0,0,1-.45-1.67l7.74-4.46a.89.89,0,1,1,.89,1.55l-7.74,4.46A.88.88,0,0,1,120.43,300Z"/><path class="cls-11" d="M469.11,480.08a.89.89,0,0,1-.45-.12l-7.74-4.45a.89.89,0,0,1,.89-1.55l7.74,4.45a.89.89,0,0,1,.33,1.22A.87.87,0,0,1,469.11,480.08Zm-15.49-8.91a.91.91,0,0,1-.45-.11l-7.74-4.46a.89.89,0,0,1,.89-1.55l7.74,4.46a.89.89,0,0,1-.44,1.66Zm-15.49-8.9a.88.88,0,0,1-.44-.12l-7.75-4.45a.91.91,0,0,1-.33-1.22.88.88,0,0,1,1.22-.33l7.75,4.45a.89.89,0,0,1-.45,1.67Zm-15.48-8.91a.89.89,0,0,1-.45-.12l-7.74-4.45a.89.89,0,1,1,.89-1.55l7.74,4.45a.89.89,0,0,1-.44,1.67Zm-15.49-8.91a.92.92,0,0,1-.45-.12L399,439.88a.89.89,0,0,1,.89-1.55l7.74,4.45a.89.89,0,0,1,.33,1.22A.87.87,0,0,1,407.16,444.45Zm-15.49-8.91a.87.87,0,0,1-.44-.11L383.48,431a.89.89,0,0,1,.89-1.55l7.75,4.46a.9.9,0,0,1,.33,1.22A.91.91,0,0,1,391.67,435.54Z"/></g></g></g></svg>