<svg xmlns="http://www.w3.org/2000/svg" xmlns:xlink="http://www.w3.org/1999/xlink" viewBox="0 0 490 477.49"><defs><style>.cls-1{isolation:isolate;}.cls-10,.cls-11,.cls-117,.cls-12,.cls-13,.cls-136,.cls-14,.cls-142,.cls-15,.cls-16,.cls-17,.cls-18,.cls-2,.cls-25,.cls-42,.cls-56,.cls-57,.cls-70,.cls-73,.cls-76,.cls-83,.cls-84{opacity:0.6;}.cls-2{fill:url(#linear-gradient);}.cls-3{fill:url(#linear-gradient-2);}.cls-4{fill:#3f3c3a;}.cls-5{fill:url(#linear-gradient-3);}.cls-6{fill:url(#linear-gradient-4);}.cls-7{fill:url(#linear-gradient-5);}.cls-8{fill:url(#linear-gradient-6);}.cls-9{fill:#1c1714;}.cls-10{fill:url(#linear-gradient-7);}.cls-11{fill:url(#linear-gradient-8);}.cls-12{fill:url(#linear-gradient-9);}.cls-13{fill:url(#linear-gradient-10);}.cls-14{fill:url(#linear-gradient-11);}.cls-15{fill:url(#linear-gradient-12);}.cls-16{fill:url(#linear-gradient-13);}.cls-17{fill:url(#linear-gradient-14);}.cls-18{fill:url(#linear-gradient-15);}.cls-19{fill:url(#linear-gradient-16);}.cls-20{fill:url(#linear-gradient-17);}.cls-21{fill:url(#linear-gradient-18);}.cls-22{fill:url(#linear-gradient-19);}.cls-23{fill:url(#linear-gradient-20);}.cls-24{fill:url(#linear-gradient-21);}.cls-26{fill:url(#linear-gradient-22);}.cls-27{fill:url(#linear-gradient-23);}.cls-28{fill:url(#linear-gradient-24);}.cls-29{fill:url(#linear-gradient-25);}.cls-30{fill:url(#linear-gradient-26);}.cls-31{fill:url(#linear-gradient-27);}.cls-32{fill:url(#linear-gradient-28);}.cls-33{fill:url(#linear-gradient-29);}.cls-34{fill:url(#linear-gradient-30);}.cls-35{fill:url(#linear-gradient-31);}.cls-36{fill:url(#linear-gradient-32);}.cls-37{fill:url(#linear-gradient-33);}.cls-38{fill:url(#linear-gradient-34);}.cls-39{fill:url(#linear-gradient-35);}.cls-40{fill:url(#linear-gradient-36);}.cls-41{fill:url(#linear-gradient-37);}.cls-42{fill:url(#linear-gradient-38);}.cls-43{fill:url(#linear-gradient-39);}.cls-44{fill:url(#linear-gradient-40);}.cls-45{fill:url(#linear-gradient-41);}.cls-46{fill:url(#linear-gradient-42);}.cls-47{fill:url(#linear-gradient-43);}.cls-48{fill:url(#linear-gradient-44);}.cls-49{fill:url(#linear-gradient-45);}.cls-50{fill:url(#linear-gradient-46);}.cls-51{fill:url(#linear-gradient-47);}.cls-52{fill:url(#linear-gradient-48);}.cls-53{fill:url(#linear-gradient-49);}.cls-54{fill:url(#linear-gradient-50);}.cls-55{fill:url(#linear-gradient-51);}.cls-56{fill:url(#linear-gradient-52);}.cls-57{fill:url(#linear-gradient-53);}.cls-58{fill:url(#linear-gradient-54);}.cls-59{fill:url(#linear-gradient-55);}.cls-60{fill:url(#linear-gradient-56);}.cls-61{fill:url(#linear-gradient-57);}.cls-62{fill:url(#linear-gradient-58);}.cls-63{fill:url(#linear-gradient-59);}.cls-64{fill:url(#linear-gradient-60);}.cls-65{fill:url(#linear-gradient-61);}.cls-66{fill:url(#linear-gradient-62);}.cls-67{fill:url(#linear-gradient-63);}.cls-68{fill:url(#linear-gradient-64);}.cls-69{fill:url(#linear-gradient-65);}.cls-70{fill:url(#linear-gradient-66);}.cls-71{fill:url(#linear-gradient-67);}.cls-72{fill:url(#linear-gradient-68);}.cls-73{fill:url(#linear-gradient-69);}.cls-74{fill:url(#linear-gradient-70);}.cls-75{fill:url(#linear-gradient-71);}.cls-76{fill:url(#linear-gradient-72);}.cls-77{fill:url(#linear-gradient-73);}.cls-78{fill:url(#linear-gradient-74);}.cls-79{fill:url(#linear-gradient-75);}.cls-80{fill:url(#linear-gradient-76);}.cls-81{fill:url(#linear-gradient-77);}.cls-82{fill:url(#linear-gradient-78);}.cls-83{fill:url(#linear-gradient-79);}.cls-84{fill:url(#linear-gradient-80);}.cls-85{fill:url(#linear-gradient-81);}.cls-86{fill:url(#linear-gradient-82);}.cls-87{fill:url(#linear-gradient-83);}.cls-88{fill:url(#linear-gradient-84);}.cls-89{fill:url(#linear-gradient-85);}.cls-90{fill:url(#linear-gradient-86);}.cls-91{fill:url(#linear-gradient-87);}.cls-92{fill:url(#linear-gradient-88);}.cls-93{fill:url(#linear-gradient-89);}.cls-94{fill:url(#linear-gradient-90);}.cls-95{fill:url(#linear-gradient-91);}.cls-96{fill:url(#linear-gradient-92);}.cls-97{fill:url(#linear-gradient-93);}.cls-98{fill:url(#linear-gradient-94);}.cls-99{fill:url(#linear-gradient-95);}.cls-100{opacity:0.8;fill:url(#linear-gradient-96);}.cls-101{fill:url(#linear-gradient-97);}.cls-102{fill:url(#linear-gradient-98);}.cls-103{fill:url(#linear-gradient-99);}.cls-104{fill:url(#linear-gradient-100);}.cls-105{fill:url(#linear-gradient-101);}.cls-106{fill:url(#linear-gradient-102);}.cls-107{fill:url(#linear-gradient-103);}.cls-108{fill:url(#linear-gradient-104);}.cls-109{fill:url(#linear-gradient-105);}.cls-110{fill:url(#linear-gradient-106);}.cls-111{fill:url(#linear-gradient-107);}.cls-112{fill:url(#linear-gradient-108);}.cls-113{fill:url(#linear-gradient-109);}.cls-114{fill:url(#linear-gradient-110);}.cls-115{fill:url(#linear-gradient-111);}.cls-116{fill:url(#linear-gradient-112);}.cls-117{fill:url(#linear-gradient-113);}.cls-118{fill:url(#linear-gradient-114);}.cls-119{fill:url(#linear-gradient-115);}.cls-120{fill:#fff;}.cls-120,.cls-129{opacity:0.5;}.cls-121{fill:url(#linear-gradient-116);}.cls-122{fill:url(#linear-gradient-117);}.cls-123{fill:url(#linear-gradient-118);}.cls-124{fill:url(#linear-gradient-119);}.cls-125{fill:url(#linear-gradient-120);}.cls-126{fill:url(#linear-gradient-121);}.cls-127{opacity:0.7;fill:url(#linear-gradient-122);}.cls-128{fill:url(#linear-gradient-123);}.cls-129{mix-blend-mode:multiply;}.cls-130{fill:url(#linear-gradient-124);}.cls-131{fill:url(#linear-gradient-125);}.cls-132{fill:url(#linear-gradient-126);}.cls-133{fill:#4c4242;}.cls-134{opacity:0.2;}.cls-135{fill:#575757;}.cls-136{fill:url(#linear-gradient-127);}.cls-137{fill:url(#linear-gradient-128);}.cls-138{fill:url(#linear-gradient-129);}.cls-139{fill:url(#linear-gradient-130);}.cls-140{fill:url(#linear-gradient-131);}.cls-141{fill:url(#linear-gradient-132);}.cls-142{fill:url(#linear-gradient-133);}.cls-143{fill:url(#linear-gradient-134);}.cls-144{fill:url(#linear-gradient-135);}.cls-145{fill:url(#linear-gradient-136);}.cls-146{fill:url(#linear-gradient-137);}.cls-147{fill:url(#linear-gradient-138);}.cls-148{fill:url(#linear-gradient-139);}.cls-149{fill:url(#linear-gradient-140);}</style><linearGradient id="linear-gradient" x1="353.42" y1="236.8" x2="378.88" y2="194.43" gradientUnits="userSpaceOnUse"><stop offset="0.02" stop-opacity="0"/><stop offset="0.07" stop-opacity="0.06"/><stop offset="1" stop-opacity="0.5"/></linearGradient><linearGradient id="linear-gradient-2" x1="296.04" y1="47.89" x2="315.03" y2="47.89" gradientUnits="userSpaceOnUse"><stop offset="0" stop-color="#383533"/><stop offset="1" stop-color="#1c1714"/></linearGradient><linearGradient id="linear-gradient-3" x1="352.25" y1="191.64" x2="431.54" y2="104.31" xlink:href="#linear-gradient-2"/><linearGradient id="linear-gradient-4" x1="488.2" y1="254.09" x2="470.51" y2="130.7" xlink:href="#linear-gradient-2"/><linearGradient id="linear-gradient-5" x1="315.13" y1="87" x2="265.35" y2="147.5" xlink:href="#linear-gradient-2"/><linearGradient id="linear-gradient-6" x1="477.53" y1="144.29" x2="468.59" y2="281.99" xlink:href="#linear-gradient-2"/><linearGradient id="linear-gradient-7" x1="414.5" y1="140.19" x2="435.72" y2="140.19" gradientUnits="userSpaceOnUse"><stop offset="0" stop-color="#848388"/><stop offset="0.74" stop-color="#6c6a6b"/></linearGradient><linearGradient id="linear-gradient-8" x1="413.65" y1="98.85" x2="424.42" y2="98.85" gradientTransform="translate(26.64 96.4) rotate(-4.41)" xlink:href="#linear-gradient-7"/><linearGradient id="linear-gradient-9" x1="412.57" y1="112.97" x2="423.33" y2="112.97" gradientTransform="translate(26.64 96.4) rotate(-4.41)" xlink:href="#linear-gradient-7"/><linearGradient id="linear-gradient-10" x1="411.48" y1="127.03" x2="422.25" y2="127.03" gradientTransform="translate(26.64 96.4) rotate(-4.41)" xlink:href="#linear-gradient-7"/><linearGradient id="linear-gradient-11" x1="410.39" y1="141.15" x2="421.16" y2="141.15" gradientTransform="translate(26.64 96.4) rotate(-4.41)" xlink:href="#linear-gradient-7"/><linearGradient id="linear-gradient-12" x1="401.96" y1="117.09" x2="409.36" y2="117.09" xlink:href="#linear-gradient-7"/><linearGradient id="linear-gradient-13" x1="390.81" y1="110.72" x2="398.72" y2="110.72" xlink:href="#linear-gradient-7"/><linearGradient id="linear-gradient-14" x1="381.21" y1="105.1" x2="389.12" y2="105.1" xlink:href="#linear-gradient-7"/><linearGradient id="linear-gradient-15" x1="371.62" y1="99.48" x2="379.53" y2="99.48" xlink:href="#linear-gradient-7"/><linearGradient id="linear-gradient-16" x1="343.01" y1="147.81" x2="403.87" y2="147.81" gradientUnits="userSpaceOnUse"><stop offset="0" stop-color="#6b6565"/><stop offset="1" stop-color="#4c4242"/></linearGradient><linearGradient id="linear-gradient-17" x1="343.38" y1="147.67" x2="403.95" y2="147.67" xlink:href="#linear-gradient-16"/><linearGradient id="linear-gradient-18" x1="347.35" y1="148.78" x2="396.45" y2="148.78" gradientUnits="userSpaceOnUse"><stop offset="0" stop-color="#4c4242"/><stop offset="1" stop-color="#342c2b"/></linearGradient><linearGradient id="linear-gradient-19" x1="350.57" y1="149.88" x2="389.74" y2="149.88" gradientUnits="userSpaceOnUse"><stop offset="0" stop-color="#6c6a6b"/><stop offset="1" stop-color="#4c4242"/></linearGradient><linearGradient id="linear-gradient-20" x1="363.68" y1="149.27" x2="380.12" y2="149.27" xlink:href="#linear-gradient-16"/><linearGradient id="linear-gradient-21" x1="363.68" y1="150.05" x2="380.12" y2="150.05" gradientUnits="userSpaceOnUse"><stop offset="0" stop-color="#3f3c3a"/><stop offset="1" stop-color="#2c2725"/></linearGradient><linearGradient id="linear-gradient-22" x1="424.1" y1="168.6" x2="433.88" y2="168.6" xlink:href="#linear-gradient-7"/><linearGradient id="linear-gradient-23" x1="420.53" y1="164.1" x2="421.79" y2="164.1" xlink:href="#linear-gradient-7"/><linearGradient id="linear-gradient-24" x1="424.1" y1="181.57" x2="433.88" y2="181.57" xlink:href="#linear-gradient-7"/><linearGradient id="linear-gradient-25" x1="420.53" y1="177.06" x2="421.79" y2="177.06" xlink:href="#linear-gradient-7"/><linearGradient id="linear-gradient-26" x1="424.1" y1="194.11" x2="433.88" y2="194.11" xlink:href="#linear-gradient-7"/><linearGradient id="linear-gradient-27" x1="420.53" y1="189.6" x2="421.79" y2="189.6" xlink:href="#linear-gradient-7"/><linearGradient id="linear-gradient-28" x1="424.1" y1="207.09" x2="433.88" y2="207.09" xlink:href="#linear-gradient-7"/><linearGradient id="linear-gradient-29" x1="420.53" y1="202.58" x2="421.79" y2="202.58" xlink:href="#linear-gradient-7"/><linearGradient id="linear-gradient-30" x1="321.98" y1="111.12" x2="331.76" y2="111.12" xlink:href="#linear-gradient-7"/><linearGradient id="linear-gradient-31" x1="318.4" y1="106.61" x2="319.67" y2="106.61" xlink:href="#linear-gradient-7"/><linearGradient id="linear-gradient-32" x1="321.98" y1="124.08" x2="331.76" y2="124.08" xlink:href="#linear-gradient-7"/><linearGradient id="linear-gradient-33" x1="318.4" y1="119.57" x2="319.67" y2="119.57" xlink:href="#linear-gradient-7"/><linearGradient id="linear-gradient-34" x1="321.98" y1="136.63" x2="331.76" y2="136.63" xlink:href="#linear-gradient-7"/><linearGradient id="linear-gradient-35" x1="318.4" y1="132.12" x2="319.67" y2="132.12" xlink:href="#linear-gradient-7"/><linearGradient id="linear-gradient-36" x1="321.98" y1="149.6" x2="331.76" y2="149.6" xlink:href="#linear-gradient-7"/><linearGradient id="linear-gradient-37" x1="318.4" y1="145.09" x2="319.67" y2="145.09" xlink:href="#linear-gradient-7"/><linearGradient id="linear-gradient-38" x1="181.2" y1="483.39" x2="154.12" y2="434.87" gradientTransform="matrix(-0.73, 0.03, -0.07, 0.79, 251.4, -100.78)" xlink:href="#linear-gradient"/><linearGradient id="linear-gradient-39" x1="98.2" y1="247.36" x2="126.78" y2="224.81" xlink:href="#linear-gradient"/><linearGradient id="linear-gradient-40" x1="124.41" y1="230.43" x2="124.41" y2="203.2" xlink:href="#linear-gradient-2"/><linearGradient id="linear-gradient-41" x1="5.93" y1="136.1" x2="224.78" y2="136.1" xlink:href="#linear-gradient-2"/><linearGradient id="linear-gradient-42" x1="97.06" y1="212.63" x2="62.72" y2="190.25" gradientTransform="matrix(-1.05, -0.03, 0.03, 1.02, 325.42, -5.15)" xlink:href="#linear-gradient"/><linearGradient id="linear-gradient-43" x1="236.88" y1="189.55" x2="287.76" y2="189.55" xlink:href="#linear-gradient-21"/><linearGradient id="linear-gradient-44" x1="287.76" y1="178.8" x2="236.88" y2="178.8" xlink:href="#linear-gradient-19"/><linearGradient id="linear-gradient-45" x1="252.35" y1="179.08" x2="278.87" y2="179.08" xlink:href="#linear-gradient-21"/><linearGradient id="linear-gradient-46" x1="236.88" y1="176.65" x2="287.76" y2="176.65" xlink:href="#linear-gradient-21"/><linearGradient id="linear-gradient-47" x1="287.76" y1="165.91" x2="236.88" y2="165.91" xlink:href="#linear-gradient-19"/><linearGradient id="linear-gradient-48" x1="252.35" y1="166.19" x2="278.87" y2="166.19" xlink:href="#linear-gradient-21"/><linearGradient id="linear-gradient-49" x1="236.88" y1="163.89" x2="287.76" y2="163.89" xlink:href="#linear-gradient-21"/><linearGradient id="linear-gradient-50" x1="287.76" y1="153.14" x2="236.88" y2="153.14" xlink:href="#linear-gradient-19"/><linearGradient id="linear-gradient-51" x1="252.35" y1="153.43" x2="278.87" y2="153.43" xlink:href="#linear-gradient-21"/><linearGradient id="linear-gradient-52" x1="-34.07" y1="506.22" x2="-55.62" y2="467.6" gradientTransform="matrix(-0.73, -0.04, -0.15, 0.78, 252.78, -155.77)" xlink:href="#linear-gradient"/><linearGradient id="linear-gradient-53" x1="-5.14" y1="253.2" x2="-14.74" y2="246.94" gradientTransform="matrix(-1.32, -0.1, -1.96, 0.89, 717.72, 13.83)" gradientUnits="userSpaceOnUse"><stop offset="0.16" stop-opacity="0"/><stop offset="0.2" stop-opacity="0.06"/><stop offset="1" stop-opacity="0.5"/></linearGradient><linearGradient id="linear-gradient-54" x1="196.68" y1="218.87" x2="249.9" y2="218.87" xlink:href="#linear-gradient-21"/><linearGradient id="linear-gradient-55" x1="249.9" y1="207.63" x2="196.68" y2="207.63" xlink:href="#linear-gradient-19"/><linearGradient id="linear-gradient-56" x1="212.87" y1="207.92" x2="240.61" y2="207.92" xlink:href="#linear-gradient-21"/><linearGradient id="linear-gradient-57" x1="196.68" y1="205.38" x2="249.9" y2="205.38" xlink:href="#linear-gradient-21"/><linearGradient id="linear-gradient-58" x1="249.9" y1="194.14" x2="196.68" y2="194.14" xlink:href="#linear-gradient-19"/><linearGradient id="linear-gradient-59" x1="212.87" y1="194.43" x2="240.61" y2="194.43" xlink:href="#linear-gradient-21"/><linearGradient id="linear-gradient-60" x1="196.68" y1="192.03" x2="249.9" y2="192.03" xlink:href="#linear-gradient-21"/><linearGradient id="linear-gradient-61" x1="249.9" y1="180.79" x2="196.68" y2="180.79" xlink:href="#linear-gradient-19"/><linearGradient id="linear-gradient-62" x1="212.87" y1="181.08" x2="240.61" y2="181.08" xlink:href="#linear-gradient-21"/><linearGradient id="linear-gradient-63" x1="223.6" y1="209.06" x2="277.14" y2="209.06" xlink:href="#linear-gradient-21"/><linearGradient id="linear-gradient-64" x1="225.55" y1="211.11" x2="276.77" y2="211.11" gradientTransform="translate(143.86 -98.95) rotate(30.86)" xlink:href="#linear-gradient-19"/><linearGradient id="linear-gradient-65" x1="241.01" y1="211.4" x2="261.2" y2="211.4" xlink:href="#linear-gradient-21"/><linearGradient id="linear-gradient-66" x1="371.99" y1="321.96" x2="392.82" y2="287.3" gradientUnits="userSpaceOnUse"><stop offset="0.3" stop-opacity="0"/><stop offset="0.33" stop-opacity="0.06"/><stop offset="1" stop-opacity="0.5"/></linearGradient><linearGradient id="linear-gradient-67" x1="406.05" y1="280.2" x2="426.14" y2="280.2" xlink:href="#linear-gradient-2"/><linearGradient id="linear-gradient-68" x1="388.38" y1="280.2" x2="414.35" y2="280.2" xlink:href="#linear-gradient-2"/><linearGradient id="linear-gradient-69" x1="403.37" y1="340.39" x2="424.2" y2="305.73" xlink:href="#linear-gradient-66"/><linearGradient id="linear-gradient-70" x1="437.31" y1="287.02" x2="457.4" y2="287.02" xlink:href="#linear-gradient-2"/><linearGradient id="linear-gradient-71" x1="419.64" y1="287.02" x2="445.61" y2="287.02" xlink:href="#linear-gradient-2"/><linearGradient id="linear-gradient-72" x1="435.85" y1="359.09" x2="456.67" y2="324.43" xlink:href="#linear-gradient-66"/><linearGradient id="linear-gradient-73" x1="469.9" y1="282.4" x2="490" y2="282.4" xlink:href="#linear-gradient-2"/><linearGradient id="linear-gradient-74" x1="452.23" y1="282.4" x2="478.2" y2="282.4" xlink:href="#linear-gradient-2"/><linearGradient id="linear-gradient-75" x1="97.87" y1="112.69" x2="122.65" y2="112.69" xlink:href="#linear-gradient-16"/><linearGradient id="linear-gradient-76" x1="122.5" y1="112.69" x2="147.13" y2="112.69" xlink:href="#linear-gradient-16"/><linearGradient id="linear-gradient-77" x1="97.87" y1="151.9" x2="122.81" y2="151.9" xlink:href="#linear-gradient-16"/><linearGradient id="linear-gradient-78" x1="122.65" y1="151.9" x2="147.13" y2="151.9" xlink:href="#linear-gradient-16"/><linearGradient id="linear-gradient-79" x1="139.35" y1="405.34" x2="174.99" y2="346.02" gradientUnits="userSpaceOnUse"><stop offset="0.25" stop-opacity="0"/><stop offset="0.29" stop-opacity="0.06"/><stop offset="1" stop-opacity="0.5"/></linearGradient><linearGradient id="linear-gradient-80" x1="160.99" y1="363.8" x2="115.56" y2="334.2" gradientTransform="matrix(-0.81, -0.01, 0.01, 0.8, 445.57, -24.2)" xlink:href="#linear-gradient"/><linearGradient id="linear-gradient-81" x1="325.11" y1="239.13" x2="378.21" y2="239.13" xlink:href="#linear-gradient-21"/><linearGradient id="linear-gradient-82" x1="325.11" y1="234.02" x2="378.2" y2="234.02" xlink:href="#linear-gradient-19"/><linearGradient id="linear-gradient-83" x1="334.07" y1="234.78" x2="366.78" y2="234.78" xlink:href="#linear-gradient-21"/><linearGradient id="linear-gradient-84" x1="325.11" y1="231.38" x2="378.21" y2="231.38" xlink:href="#linear-gradient-21"/><linearGradient id="linear-gradient-85" x1="325.11" y1="226.27" x2="378.2" y2="226.27" xlink:href="#linear-gradient-19"/><linearGradient id="linear-gradient-86" x1="334.07" y1="227.02" x2="366.78" y2="227.02" xlink:href="#linear-gradient-21"/><linearGradient id="linear-gradient-87" x1="325.11" y1="222.91" x2="378.21" y2="222.91" xlink:href="#linear-gradient-21"/><linearGradient id="linear-gradient-88" x1="325.11" y1="217.8" x2="378.2" y2="217.8" xlink:href="#linear-gradient-19"/><linearGradient id="linear-gradient-89" x1="334.07" y1="218.56" x2="366.78" y2="218.56" xlink:href="#linear-gradient-21"/><linearGradient id="linear-gradient-90" x1="325.11" y1="214.1" x2="378.21" y2="214.1" xlink:href="#linear-gradient-21"/><linearGradient id="linear-gradient-91" x1="325.11" y1="208.99" x2="378.2" y2="208.99" xlink:href="#linear-gradient-19"/><linearGradient id="linear-gradient-92" x1="334.07" y1="209.74" x2="366.78" y2="209.74" xlink:href="#linear-gradient-21"/><linearGradient id="linear-gradient-93" x1="243.13" y1="415.92" x2="447.13" y2="415.92" xlink:href="#linear-gradient-2"/><linearGradient id="linear-gradient-94" x1="247.67" y1="416.75" x2="442.41" y2="416.75" gradientUnits="userSpaceOnUse"><stop offset="0" stop-color="#3c3937"/><stop offset="1" stop-color="#2e2a27"/></linearGradient><linearGradient id="linear-gradient-95" x1="248.15" y1="432.18" x2="442.35" y2="432.18" xlink:href="#linear-gradient-2"/><linearGradient id="linear-gradient-96" x1="248.37" y1="412.08" x2="442.36" y2="412.08" xlink:href="#linear-gradient-16"/><linearGradient id="linear-gradient-97" x1="276.58" y1="435.87" x2="322.27" y2="435.87" gradientUnits="userSpaceOnUse"><stop offset="0" stop-color="#5c5657"/><stop offset="1" stop-color="#4c4242"/></linearGradient><linearGradient id="linear-gradient-98" x1="384.06" y1="373.66" x2="433.64" y2="373.66" xlink:href="#linear-gradient-16"/><linearGradient id="linear-gradient-99" x1="394.81" y1="374.36" x2="422.89" y2="374.36" xlink:href="#linear-gradient-2"/><linearGradient id="linear-gradient-100" x1="394.82" y1="374.23" x2="422.89" y2="374.23" xlink:href="#linear-gradient-19"/><linearGradient id="linear-gradient-101" x1="255.44" y1="454.68" x2="297.72" y2="454.68" xlink:href="#linear-gradient-2"/><linearGradient id="linear-gradient-102" x1="255.44" y1="454.68" x2="297.72" y2="454.68" xlink:href="#linear-gradient-19"/><linearGradient id="linear-gradient-103" x1="268.43" y1="444.21" x2="302.24" y2="444.21" xlink:href="#linear-gradient-97"/><linearGradient id="linear-gradient-104" x1="271.3" y1="444.21" x2="299.37" y2="444.21" xlink:href="#linear-gradient-16"/><linearGradient id="linear-gradient-105" x1="305.26" y1="408.16" x2="398.99" y2="408.16" xlink:href="#linear-gradient-97"/><linearGradient id="linear-gradient-106" x1="346.71" y1="390.39" x2="416.73" y2="390.39" xlink:href="#linear-gradient-97"/><linearGradient id="linear-gradient-107" x1="318.79" y1="423.19" x2="340.83" y2="423.19" xlink:href="#linear-gradient-97"/><linearGradient id="linear-gradient-108" x1="299.1" y1="409.22" x2="315.64" y2="409.22" xlink:href="#linear-gradient-97"/><linearGradient id="linear-gradient-109" x1="35.49" y1="426.06" x2="-9.94" y2="396.46" gradientTransform="matrix(-1, 0, 0, 1, 334.33, 0)" xlink:href="#linear-gradient"/><linearGradient id="linear-gradient-110" x1="283.28" y1="402.32" x2="322.55" y2="402.32" gradientTransform="translate(56.95 -30.27) rotate(0.98)" xlink:href="#linear-gradient-2"/><linearGradient id="linear-gradient-111" x1="273.38" y1="403.86" x2="316.04" y2="403.86" gradientTransform="translate(56.95 -30.27) rotate(0.98)" xlink:href="#linear-gradient-19"/><linearGradient id="linear-gradient-112" x1="286.3" y1="401.19" x2="315.75" y2="411.96" gradientTransform="translate(56.95 -30.27) rotate(0.98)" xlink:href="#linear-gradient-2"/><linearGradient id="linear-gradient-113" x1="62.24" y1="342.23" x2="44.16" y2="312.06" gradientTransform="matrix(-1.05, -0.03, 0.03, 1.02, 325.42, -5.15)" gradientUnits="userSpaceOnUse"><stop offset="0.14" stop-opacity="0"/><stop offset="0.18" stop-opacity="0.06"/><stop offset="1" stop-opacity="0.5"/></linearGradient><linearGradient id="linear-gradient-114" x1="265.24" y1="316.08" x2="329.01" y2="316.08" gradientUnits="userSpaceOnUse"><stop offset="0" stop-color="#9e8032"/><stop offset="0.14" stop-color="#a18336"/><stop offset="0.27" stop-color="#aa8e41"/><stop offset="0.39" stop-color="#b9a053"/><stop offset="0.51" stop-color="#cfb96d"/><stop offset="0.61" stop-color="#e6d48a"/><stop offset="0.67" stop-color="#d8c174"/><stop offset="0.75" stop-color="#c6a958"/><stop offset="0.83" stop-color="#b89743"/><stop offset="0.91" stop-color="#b18d37"/><stop offset="0.99" stop-color="#ae8933"/></linearGradient><linearGradient id="linear-gradient-115" x1="265.24" y1="302.61" x2="329.01" y2="302.61" gradientUnits="userSpaceOnUse"><stop offset="0" stop-color="#e6d48a"/><stop offset="0.03" stop-color="#dcc77a"/><stop offset="0.09" stop-color="#cbaf5e"/><stop offset="0.15" stop-color="#be9e49"/><stop offset="0.22" stop-color="#b7933d"/><stop offset="0.28" stop-color="#b49039"/><stop offset="0.35" stop-color="#b6933d"/><stop offset="0.41" stop-color="#bb9a48"/><stop offset="0.47" stop-color="#c4a75a"/><stop offset="0.53" stop-color="#d1b975"/><stop offset="0.59" stop-color="#e1d196"/><stop offset="0.64" stop-color="#f4edbf"/><stop offset="0.66" stop-color="#fbf7cd"/><stop offset="0.99" stop-color="#b49039"/></linearGradient><linearGradient id="linear-gradient-116" x1="265.24" y1="297.83" x2="329.01" y2="297.83" xlink:href="#linear-gradient-114"/><linearGradient id="linear-gradient-117" x1="265.24" y1="284.35" x2="329.01" y2="284.35" xlink:href="#linear-gradient-115"/><linearGradient id="linear-gradient-118" x1="265.24" y1="280.29" x2="329.01" y2="280.29" xlink:href="#linear-gradient-114"/><linearGradient id="linear-gradient-119" x1="265.24" y1="266.82" x2="329.01" y2="266.82" gradientUnits="userSpaceOnUse"><stop offset="0" stop-color="#e6d48a"/><stop offset="0.03" stop-color="#dcc77a"/><stop offset="0.1" stop-color="#cbaf5e"/><stop offset="0.16" stop-color="#be9e49"/><stop offset="0.23" stop-color="#b7933d"/><stop offset="0.29" stop-color="#b49039"/><stop offset="0.34" stop-color="#b6933d"/><stop offset="0.39" stop-color="#bb9a48"/><stop offset="0.43" stop-color="#c4a75a"/><stop offset="0.47" stop-color="#d1b974"/><stop offset="0.5" stop-color="#dcca8c"/><stop offset="0.99" stop-color="#b49039"/></linearGradient><linearGradient id="linear-gradient-120" x1="300.29" y1="302.55" x2="364.66" y2="302.55" xlink:href="#linear-gradient-114"/><linearGradient id="linear-gradient-121" x1="311.65" y1="326.79" x2="355.2" y2="283.24" gradientTransform="translate(203.68 -127.85) rotate(30.86)" xlink:href="#linear-gradient-119"/><linearGradient id="linear-gradient-122" x1="127.6" y1="315.83" x2="258.28" y2="315.83" gradientUnits="userSpaceOnUse"><stop offset="0" stop-color="#beb8bb"/><stop offset="1" stop-color="#fff"/></linearGradient><linearGradient id="linear-gradient-123" x1="127.6" y1="280.17" x2="258.28" y2="280.17" gradientUnits="userSpaceOnUse"><stop offset="0" stop-color="#c9c8c9"/><stop offset="1" stop-color="#8c8a8b"/></linearGradient><linearGradient id="linear-gradient-124" x1="131.69" y1="245.94" x2="133.84" y2="245.94" xlink:href="#linear-gradient-123"/><linearGradient id="linear-gradient-125" x1="136.64" y1="248.78" x2="138.78" y2="248.78" xlink:href="#linear-gradient-123"/><linearGradient id="linear-gradient-126" x1="141.59" y1="251.61" x2="143.73" y2="251.61" xlink:href="#linear-gradient-123"/><linearGradient id="linear-gradient-127" x1="261.84" y1="417.5" x2="240.28" y2="381.63" gradientTransform="matrix(-1, 0, 0, 1, 334.33, 0)" gradientUnits="userSpaceOnUse"><stop offset="0.21" stop-opacity="0"/><stop offset="0.25" stop-opacity="0.06"/><stop offset="1" stop-opacity="0.5"/></linearGradient><linearGradient id="linear-gradient-128" x1="72.37" y1="385.02" x2="132.08" y2="385.02" xlink:href="#linear-gradient-21"/><linearGradient id="linear-gradient-129" x1="124.1" y1="372.41" x2="79.37" y2="372.41" xlink:href="#linear-gradient-19"/><linearGradient id="linear-gradient-130" x1="72.37" y1="372.72" x2="132.08" y2="372.72" xlink:href="#linear-gradient-21"/><linearGradient id="linear-gradient-131" x1="124.1" y1="360.1" x2="79.37" y2="360.1" xlink:href="#linear-gradient-19"/><linearGradient id="linear-gradient-132" x1="84.91" y1="359.1" x2="119.54" y2="359.1" xlink:href="#linear-gradient-21"/><linearGradient id="linear-gradient-133" x1="210.6" y1="453.29" x2="187.06" y2="414.12" xlink:href="#linear-gradient-127"/><linearGradient id="linear-gradient-134" x1="121.96" y1="416.48" x2="189.01" y2="416.48" xlink:href="#linear-gradient-21"/><linearGradient id="linear-gradient-135" x1="180.06" y1="402.32" x2="129.82" y2="402.32" xlink:href="#linear-gradient-19"/><linearGradient id="linear-gradient-136" x1="121.96" y1="400.6" x2="189.01" y2="400.6" xlink:href="#linear-gradient-21"/><linearGradient id="linear-gradient-137" x1="180.06" y1="386.44" x2="129.82" y2="386.44" xlink:href="#linear-gradient-19"/><linearGradient id="linear-gradient-138" x1="121.96" y1="383.9" x2="189.01" y2="383.9" xlink:href="#linear-gradient-21"/><linearGradient id="linear-gradient-139" x1="180.06" y1="369.73" x2="129.82" y2="369.73" xlink:href="#linear-gradient-19"/><linearGradient id="linear-gradient-140" x1="136.04" y1="368.61" x2="174.93" y2="368.61" xlink:href="#linear-gradient-21"/></defs><title>Asset 7</title><g class="cls-1"><g id="Layer_2" data-name="Layer 2"><g id="Layer_1-2" data-name="Layer 1"><polygon class="cls-2" points="425.11 279.88 259.04 177.06 302.73 151.83 475.17 250.97 425.11 279.88"/><path class="cls-3" d="M306.35,44.42c-2.06-1.18-3.92-1.29-5.27-.51l-5,2.93c1.35-.78,3.21-.67,5.27.51l8.68,5,5-2.93Z"/><polygon class="cls-4" points="309.99 52.36 315.03 49.43 474.09 141.27 469.05 144.2 309.99 52.36"/><polygon class="cls-5" points="469.05 144.2 468.75 249.16 309.69 157.32 309.99 52.36 469.05 144.2"/><path class="cls-6" d="M477.26,143.1l-3.17-1.83-5,2.93,3.18,1.83a16.28,16.28,0,0,1,7.38,12.79l-.25,87.93c0,2.34-.83,4-2.16,4.76l5-2.93c1.33-.77,2.16-2.42,2.16-4.76l.25-87.93A16.23,16.23,0,0,0,477.26,143.1Z"/><path class="cls-7" d="M301.31,47.35c-4.1-2.36-7.42-.46-7.43,4.25l-.25,87.93A16.26,16.26,0,0,0,301,152.31l8.68,5,.3-105Z"/><path class="cls-8" d="M472.22,146,469,144.2l-.29,105h0l3.17,1.83c4.1,2.36,7.42.47,7.43-4.24l.25-87.93A16.28,16.28,0,0,0,472.22,146Z"/><path class="cls-9" d="M305.33,105.18c0,2.24-1.58,3.14-3.52,2a7.74,7.74,0,0,1-3.52-6.07c0-2.24,1.57-3.14,3.52-2A7.76,7.76,0,0,1,305.33,105.18Z"/><path class="cls-9" d="M474.25,212.75l-.15-.08a2.24,2.24,0,0,1-.93-1.78V189.42c0-.68.42-1,.93-.7l.15.08a2.23,2.23,0,0,1,.92,1.77v21.48C475.17,212.73,474.76,213.05,474.25,212.75Z"/><polygon class="cls-10" points="414.5 150.55 435.09 162.61 435.72 130.18 414.5 117.76 414.5 150.55"/><polygon class="cls-11" points="446.75 164.35 457.4 169.54 457.31 161.16 446.65 155.98 446.75 164.35"/><polygon class="cls-12" points="446.75 178.51 457.4 183.7 457.31 175.32 446.65 170.14 446.75 178.51"/><polygon class="cls-13" points="446.75 192.62 457.4 197.8 457.31 189.42 446.65 184.24 446.75 192.62"/><polygon class="cls-14" points="446.75 206.78 457.4 211.96 457.31 203.58 446.65 198.4 446.75 206.78"/><path class="cls-15" d="M407.75,114l-3.63-2.13c-1-.6-2,.78-2.14,3.08s.56,4.67,1.6,5.28l3.62,2.12c1,.61,2-.77,2.15-3.08S408.78,114.58,407.75,114Z"/><polygon class="cls-16" points="390.81 112.74 398.17 117.05 398.72 108.69 391.35 104.38 390.81 112.74"/><polygon class="cls-17" points="381.21 107.12 388.58 111.43 389.12 103.08 381.76 98.76 381.21 107.12"/><polygon class="cls-18" points="371.62 101.5 378.98 105.81 379.53 97.46 372.16 93.14 371.62 101.5"/><path class="cls-19" d="M373.61,114.48c-16.81-10.54-30.51-4.17-30.6,14.24s13.45,41.87,30.25,52.41,30.51,4.18,30.61-14.23S390.42,125,373.61,114.48Z"/><path class="cls-20" d="M373.66,114.45c-16.72-10.59-30.28-4.31-30.28,14s13.56,41.8,30.28,52.4,30.29,4.31,30.29-14S390.39,125.05,373.66,114.45Z"/><path class="cls-21" d="M371.9,121.85c-13.56-8.59-24.55-3.49-24.55,11.38s11,33.89,24.55,42.48,24.55,3.5,24.55-11.37S385.46,130.44,371.9,121.85Z"/><path class="cls-22" d="M370.16,128.4c-10.82-6.86-19.59-2.79-19.59,9.07s8.77,27,19.59,33.89,19.58,2.79,19.58-9.07S381,135.25,370.16,128.4Z"/><path class="cls-23" d="M380.12,150.89c0-4.28-3.37-10.09-7.51-13v-2.09l-2.85-2v2.09l-1.62-1.13v-2.09l-2.85-2v2.09l-1.61-1.12v2.95l1.61,1.11V158l-1.61-1.12v2.95l1.61,1.11v1.82l2.85,2v-1.81l1.62,1.12v1.81l2.85,2V166c4.14,2.88,7.51,1.73,7.51-2.54A15.93,15.93,0,0,0,377,155C378.88,154.9,380.12,153.47,380.12,150.89Zm-2.85,10.58c0,2.66-2.1,3.36-4.67,1.57l-4.46-3.1v-9.62l4.46,3.1C375.17,155.2,377.27,158.82,377.27,161.47Zm-4.67-11-4.46-3.1v-9.63l4.46,3.1c2.57,1.79,4.67,5.4,4.67,8.05S375.17,152.26,372.6,150.48Z"/><path class="cls-24" d="M380.12,151.67c0-4.28-3.37-10.09-7.51-13v-2.09l-2.85-2v2.08l-1.62-1.11v-2.1l-2.85-2v2.09l-1.61-1.12v2.95l1.61,1.11v22.2l-1.61-1.13v2.94l1.61,1.13v1.81l2.85,2v-1.81l1.62,1.12v1.81l2.85,2v-1.81c4.14,2.86,7.51,1.73,7.51-2.55a16,16,0,0,0-3.13-8.45C378.88,155.68,380.12,154.25,380.12,151.67Zm-2.85,10.58c0,2.65-2.1,3.36-4.67,1.58l-4.46-3.1V151.1l4.46,3.1C375.17,156,377.27,159.6,377.27,162.25Zm-4.67-11-4.46-3.1v-9.62l4.46,3.1c2.57,1.78,4.67,5.39,4.67,8.05S375.17,153,372.6,151.26Z"/><g class="cls-25"><polygon class="cls-26" points="424.1 161.98 424.1 169.6 433.88 175.23 433.88 167.61 424.1 161.98"/><polygon class="cls-27" points="420.53 159.92 420.53 167.54 421.79 168.27 421.79 160.65 420.53 159.92"/><polygon class="cls-28" points="424.1 174.94 424.1 182.56 433.88 188.19 433.88 180.57 424.1 174.94"/><polygon class="cls-29" points="420.53 172.88 420.53 180.5 421.79 181.23 421.79 173.61 420.53 172.88"/><polygon class="cls-30" points="424.1 187.49 424.1 195.11 433.88 200.74 433.88 193.12 424.1 187.49"/><polygon class="cls-31" points="420.53 185.43 420.53 193.05 421.79 193.78 421.79 186.16 420.53 185.43"/><polygon class="cls-32" points="424.1 200.46 424.1 208.08 433.88 213.71 433.88 206.09 424.1 200.46"/><polygon class="cls-33" points="420.53 198.4 420.53 206.02 421.79 206.75 421.79 199.13 420.53 198.4"/></g><g class="cls-25"><polygon class="cls-34" points="321.98 104.5 321.98 112.12 331.76 117.74 331.76 110.12 321.98 104.5"/><polygon class="cls-35" points="318.4 102.44 318.4 110.06 319.67 110.79 319.67 103.17 318.4 102.44"/><polygon class="cls-36" points="321.98 117.46 321.98 125.08 331.76 130.7 331.76 123.09 321.98 117.46"/><polygon class="cls-37" points="318.4 115.4 318.4 123.02 319.67 123.75 319.67 116.13 318.4 115.4"/><polygon class="cls-38" points="321.98 130 321.98 137.63 331.76 143.25 331.76 135.63 321.98 130"/><polygon class="cls-39" points="318.4 127.94 318.4 135.56 319.67 136.3 319.67 128.68 318.4 127.94"/><polygon class="cls-40" points="321.98 142.98 321.98 150.6 331.76 156.22 331.76 148.6 321.98 142.98"/><polygon class="cls-41" points="318.4 140.92 318.4 148.54 319.67 149.27 319.67 141.65 318.4 140.92"/></g><path class="cls-42" d="M67.09,280.8l-2.48-1.53c-8.79-5.41-6.66-15.62,4.76-22.81l31.71-20,34.32,21.12-31.71,20C92.27,284.77,75.88,286.21,67.09,280.8Z"/><path class="cls-9" d="M166,230.16a16.32,16.32,0,0,1-.3,2.59,15.87,15.87,0,0,1-.73,2.54,17.4,17.4,0,0,1-1.2,2.56,22.05,22.05,0,0,1-1.82,2.7,26.69,26.69,0,0,1-2.79,3,35.41,35.41,0,0,1-5.71,4.23l-.55.32a51.06,51.06,0,0,1-9.88,4.35,65,65,0,0,1-8.54,2.12c-1.89.35-3.81.61-5.75.81-1.66.16-3.33.27-5,.33s-3.08.06-4.62,0-3-.12-4.44-.24-2.94-.28-4.39-.49-3-.47-4.47-.78-3.17-.71-4.7-1.15a55.94,55.94,0,0,1-5.48-1.85,47.54,47.54,0,0,1-6.5-3.12A35.43,35.43,0,0,1,83.3,244l0,5.75a37.13,37.13,0,0,0,5.82,4.11A48.11,48.11,0,0,0,95.6,257c1.77.7,3.6,1.31,5.48,1.85,1.54.44,3.11.82,4.7,1.15s3,.57,4.47.78,2.92.37,4.39.49,3,.2,4.44.24,3.08,0,4.62,0,3.35-.17,5-.34q2.91-.28,5.76-.8A66.45,66.45,0,0,0,143,258.2a50.53,50.53,0,0,0,9.88-4.35l.55-.32a35,35,0,0,0,5.71-4.23,25.19,25.19,0,0,0,2.8-3,21.12,21.12,0,0,0,1.81-2.69,17.5,17.5,0,0,0,1.2-2.57,15.58,15.58,0,0,0,.73-2.54,15.12,15.12,0,0,0,.3-2.58c0-.14,0-.27,0-.4v-5.35Z"/><path class="cls-4" d="M152.68,211.17c17.67,10.2,17.76,26.74.21,36.93s-46.11,10.2-63.77,0A35.43,35.43,0,0,1,83.3,244l62.26-36.18A49.57,49.57,0,0,1,152.68,211.17Z"/><polygon class="cls-43" points="97.22 248.93 93.71 246.91 109.09 237.98 112.59 240.01 97.22 248.93"/><polygon class="cls-44" points="112.59 207.98 136.32 194.19 136.23 226.39 112.5 240.18 112.59 207.98"/><polygon class="cls-4" points="112.59 207.98 112.5 240.18 108.96 238.13 109.05 205.93 112.59 207.98"/><polygon class="cls-4" points="219.68 10.63 219.97 129.93 11 250.59 10.71 131.29 219.68 10.63"/><path class="cls-45" d="M222.05,3.78c1.33-.77,2.39-.16,2.4,1.36l.33,135.76a5.22,5.22,0,0,1-2.37,4.12L8.66,268.42c-1.32.76-2.39.16-2.39-1.36L5.93,131.3a5.24,5.24,0,0,1,2.38-4.12ZM220,129.93l-.29-119.29-209,120.65L11,250.59,220,129.93Z"/><path class="cls-4" d="M217.82.16a1.7,1.7,0,0,0-1.7.17L2.38,123.73A5.26,5.26,0,0,0,0,127.85L.34,263.61A1.65,1.65,0,0,0,1,265.14L7,268.59a1.66,1.66,0,0,1-.69-1.53L5.93,131.3a5.24,5.24,0,0,1,2.38-4.12L222.05,3.78a1.65,1.65,0,0,1,1.7-.17Z"/><path class="cls-9" d="M122.5,193.94a7.34,7.34,0,0,1,3.33-5.75c1.85-1.06,3.34-.21,3.34,1.9a7.33,7.33,0,0,1-3.34,5.75C124,196.91,122.5,196.06,122.5,193.94Z"/><path class="cls-46" d="M219.13,195.79,250,178.5,280.36,196l-33,16.85C236.32,206.55,222.38,197.68,219.13,195.79Z"/><path class="cls-47" d="M287.76,178.89v6.72c0,3.77-2.42,7.55-7.4,10.41-9.9,5.72-26,5.7-36-.06a17.29,17.29,0,0,1-5.59-4.85,9.67,9.67,0,0,1-1.91-5.5V178.8c0,3.74,2.54,7.48,7.5,10.36,10,5.75,26.08,5.77,36,.06C285.3,186.37,287.76,182.63,287.76,178.89Z"/><path class="cls-48" d="M287.76,178.8v.09c0,3.74-2.46,7.48-7.4,10.33-9.9,5.71-26,5.69-36-.06-5-2.88-7.46-6.62-7.5-10.36s2.42-7.54,7.39-10.41c9.9-5.72,26-5.7,36,.06C285.22,171.32,287.72,175.06,287.76,178.8Z"/><path class="cls-49" d="M276.87,171.59l-10.3,6.93-1.41-11.13-3.33,2.47,2,14.36,15.05-10.14Zm-19.71,1.73,2.07,14.1,3.22-2.46-2-14.11Zm-4.81,3.36,2.08,14.1,3.22-2.46-2-14.11Z"/><path class="cls-50" d="M287.76,166v6.71c0,3.77-2.42,7.55-7.4,10.42-9.9,5.71-26,5.69-36-.06a17.53,17.53,0,0,1-5.59-4.85,9.7,9.7,0,0,1-1.91-5.51v-6.8c0,3.74,2.54,7.48,7.5,10.35,10,5.76,26.08,5.78,36,.06C285.3,173.48,287.76,169.74,287.76,166Z"/><path class="cls-51" d="M287.76,165.91V166c0,3.74-2.46,7.48-7.4,10.32-9.9,5.72-26,5.7-36-.06-5-2.87-7.46-6.61-7.5-10.35s2.42-7.55,7.39-10.42c9.9-5.72,26-5.7,36,.06C285.22,158.42,287.72,162.16,287.76,165.91Z"/><path class="cls-52" d="M276.87,158.69l-10.3,6.94-1.41-11.14L261.83,157l2,14.37,15.05-10.15Zm-19.71,1.73,2.07,14.1,3.22-2.46-2-14.11Zm-4.81,3.36,2.08,14.1,3.22-2.46-2-14.11Z"/><path class="cls-53" d="M287.76,153.23V160c0,3.77-2.42,7.55-7.4,10.41-9.9,5.72-26,5.7-36-.06a17.29,17.29,0,0,1-5.59-4.85,9.67,9.67,0,0,1-1.91-5.5v-6.81c0,3.74,2.54,7.48,7.5,10.36,10,5.76,26.08,5.78,36,.06C285.3,160.72,287.76,157,287.76,153.23Z"/><path class="cls-54" d="M287.76,153.14v.09c0,3.75-2.46,7.49-7.4,10.33-9.9,5.72-26,5.7-36-.06-5-2.88-7.46-6.62-7.5-10.36s2.42-7.54,7.39-10.41c9.9-5.72,26-5.7,36,.06C285.22,145.66,287.72,149.4,287.76,153.14Z"/><path class="cls-55" d="M276.87,145.93l-10.3,6.93-1.41-11.13-3.33,2.47,2,14.37,15.05-10.15Zm-19.71,1.73,2.07,14.1,3.22-2.46-2-14.11ZM252.35,151l2.08,14.1,3.22-2.46-2-14.11Z"/><path class="cls-56" d="M190.93,234.31l-1.85-1.39C182.52,228,185,220,194.56,215.2l26.63-13.45,25.62,19.3L220.18,234.5C210.59,239.34,197.5,239.26,190.93,234.31Z"/><path class="cls-57" d="M228.58,238.49l-.1-.32c-.35-1.15,3.68-2.81,9-3.7L252.25,232l1.36,4.49L238.84,239C233.52,239.85,228.93,239.64,228.58,238.49Z"/><path class="cls-58" d="M249.9,207.72v7c0,3.94-2.53,7.9-7.74,10.89-10.36,6-27.2,6-37.63-.06a18,18,0,0,1-5.85-5.08,10.07,10.07,0,0,1-2-5.75v-7.12c0,3.91,2.66,7.82,7.85,10.83,10.43,6,27.27,6,37.63.06C247.32,215.55,249.9,211.64,249.9,207.72Z"/><path class="cls-59" d="M249.9,207.63v.09c0,3.92-2.58,7.83-7.74,10.8-10.36,6-27.2,6-37.63-.06-5.19-3-7.81-6.92-7.85-10.83s2.53-7.89,7.73-10.9c10.36-6,27.21-5.95,37.63.07C247.24,199.8,249.86,203.72,249.9,207.63Z"/><path class="cls-60" d="M238.51,200.08l-10.78,7.25-1.47-11.64-3.48,2.58,2.08,15,15.75-10.61Zm-20.62,1.81,2.17,14.75,3.37-2.57-2.05-14.76Zm-5,3.52L215,220.16l3.37-2.58-2.06-14.76Z"/><path class="cls-61" d="M249.9,194.23v7c0,3.94-2.53,7.9-7.74,10.89-10.36,6-27.2,6-37.63-.06a18.14,18.14,0,0,1-5.85-5.07,10.12,10.12,0,0,1-2-5.76v-7.12c0,3.91,2.66,7.82,7.85,10.83,10.43,6,27.27,6,37.63.06C247.32,202.06,249.9,198.15,249.9,194.23Z"/><path class="cls-62" d="M249.9,194.14v.09c0,3.92-2.58,7.83-7.74,10.8-10.36,6-27.2,6-37.63-.06-5.19-3-7.81-6.92-7.85-10.83s2.53-7.89,7.73-10.9c10.36-6,27.21-6,37.63.07C247.24,186.31,249.86,190.23,249.9,194.14Z"/><path class="cls-63" d="M238.51,186.59l-10.78,7.26-1.47-11.65-3.48,2.58,2.08,15,15.75-10.61Zm-20.62,1.81,2.17,14.75,3.37-2.57-2.05-14.76Zm-5,3.52L215,206.67l3.37-2.57-2.06-14.77Z"/><path class="cls-64" d="M249.9,180.88v7c0,3.94-2.53,7.9-7.74,10.89-10.36,6-27.2,6-37.63-.06a18.14,18.14,0,0,1-5.85-5.07,10.12,10.12,0,0,1-2-5.76v-7.12c0,3.91,2.66,7.83,7.85,10.83,10.43,6,27.27,6,37.63.06C247.32,188.71,249.9,184.8,249.9,180.88Z"/><path class="cls-65" d="M249.9,180.79v.09c0,3.92-2.58,7.83-7.74,10.8-10.36,6-27.2,6-37.63-.06-5.19-3-7.81-6.92-7.85-10.83s2.53-7.89,7.73-10.89c10.36-6,27.21-6,37.63.06C247.24,173,249.86,176.88,249.9,180.79Z"/><path class="cls-66" d="M238.51,173.24l-10.78,7.26-1.47-11.65-3.48,2.58,2.08,15,15.75-10.61Zm-20.62,1.81,2.17,14.75,3.37-2.57-2.05-14.76Zm-5,3.52L215,193.32l3.37-2.57L216.35,176Z"/><path class="cls-67" d="M277.14,209.05a26.62,26.62,0,0,1-2.34,11l-.11.23q-.19.44-.42.87a27.43,27.43,0,0,1-1.49,2.58c-.5.76-1,1.5-1.61,2.21s-1.11,1.3-1.71,1.91-1.06,1-1.62,1.51-1.12.93-1.71,1.36c-.38.28-.78.55-1.18.81a26.77,26.77,0,0,1-41.35-22.46,27.06,27.06,0,0,1,.14-2.72,26.77,26.77,0,0,1,53.4,2.72Z"/><circle class="cls-68" cx="251.16" cy="211.11" r="25.61" transform="translate(-72.73 158.74) rotate(-30.86)"/><path class="cls-69" d="M241,205.93l20.19,20.19v5.13L241,211.07Zm16.57-12.81v15L241,191.54v5.14l20.19,20.18V193.12ZM241,203.87l20.19,20.19v-5.14L241,198.74Z"/><polygon class="cls-70" points="369.23 327.72 349.01 316.05 388.29 293.66 408.51 305.33 369.23 327.72"/><polygon class="cls-71" points="426.14 253.62 425.99 295.19 406.05 306.78 406.19 265.21 426.14 253.62"/><polygon class="cls-72" points="406.19 265.21 406.05 306.78 385.97 295.19 386.12 253.62 406.19 265.21"/><polygon class="cls-4" points="426.14 253.62 406.19 265.21 386.12 253.62 406.06 242.03 426.14 253.62"/><polygon class="cls-73" points="400.62 346.15 380.4 334.48 419.68 312.09 439.9 323.76 400.62 346.15"/><polygon class="cls-74" points="457.4 248.79 457.26 313.65 437.31 325.25 437.46 260.38 457.4 248.79"/><polygon class="cls-75" points="437.46 260.38 437.31 325.25 417.23 313.65 417.38 248.79 437.46 260.38"/><polygon class="cls-4" points="457.4 248.79 437.46 260.38 417.38 248.79 437.33 237.2 457.4 248.79"/><polygon class="cls-76" points="433.09 364.85 412.87 353.18 452.15 330.79 472.37 342.46 433.09 364.85"/><polygon class="cls-77" points="490 220.89 489.85 332.32 469.9 343.92 470.05 232.48 490 220.89"/><polygon class="cls-78" points="470.05 232.48 469.9 343.92 449.83 332.33 449.98 220.89 470.05 232.48"/><polygon class="cls-4" points="490 220.89 470.05 232.48 449.98 220.89 469.92 209.29 490 220.89"/><polygon class="cls-4" points="97.87 130.48 122.5 116.26 147.13 130.48 122.65 144.79 97.87 130.48"/><polygon class="cls-79" points="97.87 126.86 122.5 84.2 122.65 141.17 97.87 126.86"/><polygon class="cls-80" points="122.5 84.2 147.13 126.86 122.65 141.17 122.5 84.2"/><polygon class="cls-81" points="97.87 130.48 122.81 173.31 122.65 144.79 97.87 130.48"/><polygon class="cls-82" points="122.65 144.79 122.81 173.31 147.13 130.48 122.65 144.79"/><polygon class="cls-83" points="188.06 431.23 57.59 356.22 129 318.76 257.56 393.78 188.06 431.23"/><path class="cls-84" d="M318.35,264.92l-2-1.18c-7.26-4.19-6.43-11.36,1.85-16l23-13,28.31,16.34-23,13C338.19,268.72,325.6,269.11,318.35,264.92Z"/><path class="cls-85" d="M352.15,221.86c-7.45,0-27,11.68-27,11.68s0,1.54,0,5.9c0,4.08,2.29,8.05,6.55,11.19a2.34,2.34,0,0,0,.27.2c5,3.6,11.86,5.57,19.23,5.57s14.42-2,19.65-5.66l.86-.63c4.2-3.22,6.51-7.2,6.53-11.28s0-5.11,0-5.11S359.53,221.86,352.15,221.86Z"/><path class="cls-86" d="M371.37,222.32c-5-3.59-11.84-5.57-19.22-5.57s-14.43,2-19.66,5.69c-4.74,3.3-7.36,7.53-7.38,11.88,0,4.09,2.29,8.06,6.55,11.2.09.08.18.14.27.21,5,3.59,11.86,5.56,19.23,5.56s14.42-2,19.65-5.66l.86-.63c4.2-3.21,6.51-7.2,6.53-11.28S375.79,225.49,371.37,222.32Z"/><path class="cls-87" d="M364.5,231.52a12.42,12.42,0,0,0-7.81-1c.35-1.31-.38-2.59-2.06-3.53-2.71-1.53-7.17-1.63-10.44-.28L343,226a2.8,2.8,0,0,0-2.46.05c-.7.4-.74,1-.08,1.4l1.14.64-2,1.14-1.14-.64a2.77,2.77,0,0,0-2.46.05c-.7.4-.74,1-.08,1.39l1.14.65-2.4,1.36c-.7.4-.74,1-.08,1.4a2.8,2.8,0,0,0,2.46,0l.78-.45,15.57,8.76-.77.44c-.7.4-.74,1-.08,1.4a2.77,2.77,0,0,0,2.46-.06l2.4-1.36,1.1.61a2.8,2.8,0,0,0,2.46-.05c.71-.4.74-1,.08-1.4l-1.09-.61,2-1.14,1.1.62a2.77,2.77,0,0,0,2.46-.06c.7-.4.74-1,.08-1.39l-1.1-.63C367.52,236.14,367.58,233.25,364.5,231.52Zm-24.09-.06,5.06-2.89a7.38,7.38,0,0,1,6.54-.1c1.76,1,1.7,2.65-.13,3.7l-5.07,2.88Zm21.32,5.48L356,240.21l-6.8-3.82,5.74-3.26a7.84,7.84,0,0,1,6.94-.11C363.74,234.07,363.68,235.83,361.73,236.94Z"/><path class="cls-88" d="M352.15,214.1c-7.45,0-27,11.69-27,11.69s0,1.53,0,5.89c0,4.08,2.29,8.06,6.55,11.2l.27.2c5,3.6,11.86,5.57,19.23,5.57s14.42-2,19.65-5.67l.86-.62c4.2-3.23,6.51-7.21,6.53-11.28s0-5.11,0-5.11S359.53,214.1,352.15,214.1Z"/><path class="cls-89" d="M371.37,214.56c-5-3.59-11.84-5.57-19.22-5.57s-14.43,2-19.66,5.69c-4.74,3.31-7.36,7.53-7.38,11.88,0,4.09,2.29,8.07,6.55,11.21l.27.21c5,3.59,11.86,5.56,19.23,5.56s14.42-2,19.65-5.67l.86-.62c4.2-3.22,6.51-7.21,6.53-11.28S375.79,217.73,371.37,214.56Z"/><path class="cls-90" d="M364.5,223.76a12.35,12.35,0,0,0-7.81-1c.35-1.31-.38-2.6-2.06-3.54-2.71-1.52-7.17-1.62-10.44-.28l-1.23-.68a2.74,2.74,0,0,0-2.46.05c-.7.4-.74,1-.08,1.4l1.14.63-2,1.14-1.14-.64a2.8,2.8,0,0,0-2.46,0c-.7.4-.74,1-.08,1.4l1.14.64-2.4,1.37c-.7.4-.74,1-.08,1.4a2.8,2.8,0,0,0,2.46-.06l.78-.44L353.35,234l-.77.44c-.7.4-.74,1-.08,1.4a2.8,2.8,0,0,0,2.46,0l2.4-1.37,1.1.62a2.77,2.77,0,0,0,2.46-.06c.71-.4.74-1,.08-1.39l-1.09-.62,2-1.14,1.1.62a2.8,2.8,0,0,0,2.46-.05c.7-.41.74-1,.08-1.4l-1.1-.62C367.52,228.39,367.58,225.5,364.5,223.76Zm-24.09-.06,5.06-2.88a7.38,7.38,0,0,1,6.54-.1c1.76,1,1.7,2.65-.13,3.69l-5.07,2.89Zm21.32,5.48L356,232.46l-6.8-3.82,5.74-3.27a7.81,7.81,0,0,1,6.94-.1C363.74,226.31,363.68,228.08,361.73,229.18Z"/><path class="cls-91" d="M352.15,205.64c-7.45,0-27,11.69-27,11.69s0,1.53,0,5.89c0,4.08,2.29,8.06,6.55,11.2l.27.2c5,3.6,11.86,5.57,19.23,5.57a34.54,34.54,0,0,0,19.65-5.67l.86-.62c4.2-3.23,6.51-7.21,6.53-11.28s0-5.11,0-5.11S359.53,205.64,352.15,205.64Z"/><path class="cls-92" d="M371.37,206.1c-5-3.59-11.84-5.57-19.22-5.57s-14.43,2-19.66,5.69c-4.74,3.31-7.36,7.53-7.38,11.88,0,4.09,2.29,8.07,6.55,11.21l.27.2c5,3.6,11.86,5.57,19.23,5.57a34.54,34.54,0,0,0,19.65-5.67l.86-.62c4.2-3.22,6.51-7.21,6.53-11.28S375.79,209.27,371.37,206.1Z"/><path class="cls-93" d="M364.5,215.3a12.35,12.35,0,0,0-7.81-1c.35-1.31-.38-2.6-2.06-3.54-2.71-1.53-7.17-1.62-10.44-.28L343,209.8a2.77,2.77,0,0,0-2.46,0c-.7.41-.74,1-.08,1.4l1.14.64-2,1.14-1.14-.64a2.8,2.8,0,0,0-2.46.05c-.7.4-.74,1-.08,1.39l1.14.65-2.4,1.36c-.7.41-.74,1-.08,1.41a2.84,2.84,0,0,0,2.46-.06l.78-.44,15.57,8.75-.77.44c-.7.4-.74,1-.08,1.4a2.8,2.8,0,0,0,2.46-.05l2.4-1.37,1.1.62a2.8,2.8,0,0,0,2.46-.06c.71-.4.74-1,.08-1.39l-1.09-.62,2-1.14,1.1.62a2.77,2.77,0,0,0,2.46-.06c.7-.4.74-1,.08-1.39l-1.1-.62C367.52,219.93,367.58,217,364.5,215.3Zm-24.09-.06,5.06-2.89a7.41,7.41,0,0,1,6.54-.09c1.76,1,1.7,2.65-.13,3.69l-5.07,2.89Zm21.32,5.48L356,224l-6.8-3.82,5.74-3.27a7.81,7.81,0,0,1,6.94-.1C363.74,217.85,363.68,219.61,361.73,220.72Z"/><path class="cls-94" d="M352.15,196.82c-7.45,0-27,11.69-27,11.69s0,1.53,0,5.89c0,4.08,2.29,8.06,6.55,11.2l.27.2c5,3.6,11.86,5.57,19.23,5.57s14.42-2,19.65-5.67l.86-.62c4.2-3.23,6.51-7.21,6.53-11.28s0-5.11,0-5.11S359.53,196.82,352.15,196.82Z"/><path class="cls-95" d="M371.37,197.28c-5-3.59-11.84-5.57-19.22-5.57s-14.43,2-19.66,5.69c-4.74,3.31-7.36,7.53-7.38,11.88,0,4.09,2.29,8.07,6.55,11.21l.27.21c5,3.59,11.86,5.56,19.23,5.56s14.42-2,19.65-5.67l.86-.62c4.2-3.22,6.51-7.21,6.53-11.28S375.79,200.45,371.37,197.28Z"/><path class="cls-96" d="M364.5,206.48a12.35,12.35,0,0,0-7.81-1c.35-1.31-.38-2.6-2.06-3.54-2.71-1.52-7.17-1.62-10.44-.28L343,201a2.74,2.74,0,0,0-2.46.05c-.7.4-.74,1-.08,1.4l1.14.63-2,1.14-1.14-.64a2.8,2.8,0,0,0-2.46.05c-.7.4-.74,1-.08,1.4l1.14.64-2.4,1.37c-.7.4-.74,1-.08,1.4a2.8,2.8,0,0,0,2.46-.06l.78-.44,15.57,8.75-.77.44c-.7.4-.74,1-.08,1.4a2.8,2.8,0,0,0,2.46,0l2.4-1.37,1.1.62a2.8,2.8,0,0,0,2.46-.06c.71-.4.74-1,.08-1.39l-1.09-.62,2-1.14,1.1.62a2.8,2.8,0,0,0,2.46-.05c.7-.41.74-1,.08-1.4l-1.1-.62C367.52,211.11,367.58,208.22,364.5,206.48Zm-24.09-.06,5.06-2.88a7.38,7.38,0,0,1,6.54-.1c1.76,1,1.7,2.65-.13,3.69L346.81,210Zm21.32,5.48L356,215.18l-6.8-3.82,5.74-3.27a7.81,7.81,0,0,1,6.94-.1C363.74,209,363.68,210.8,361.73,211.9Z"/><path class="cls-97" d="M439.66,385l-44.58-26.83a29.32,29.32,0,0,0-14.92-3.81A28.76,28.76,0,0,0,366,357.81L250.73,424.08c-4.78,2.75-7.55,6.85-7.6,11.23s2.66,8.64,7.46,11.53l44.59,26.84a29.38,29.38,0,0,0,14.91,3.81A28.74,28.74,0,0,0,324.24,474l115.28-66.26c4.78-2.75,7.56-6.84,7.61-11.23S444.46,387.88,439.66,385Z"/><path class="cls-98" d="M368.07,361.75,253.52,427.59c-3.74,2.16-5.81,5.24-5.85,8.48s2,6.46,5.78,8.73L295.25,470a43.48,43.48,0,0,0,5.58,2.82,26,26,0,0,0,21.36-1l114.54-65.84c4.27-2.46,6.21-6.07,5.56-9.68a9.55,9.55,0,0,0-2.85-5.14,25.58,25.58,0,0,0-4.77-3.67l-40.44-24.34c-.41-.25-1.87-1.08-2.32-1.29s-1.33-.68-1.65-.79a25,25,0,0,0-9.31-2.09A24.52,24.52,0,0,0,368.07,361.75Z"/><path class="cls-4" d="M433.94,392.44l-4.26-2.56-38.35-23.09-1.41-.84c-5.47-3.29-14.33-3.41-19.8-.26L256.32,431.1c-5.47,3.15-5.47,8.37,0,11.66l44,26.48c5.47,3.29,14.34,3.41,19.81.26l113.8-65.41C439.4,400.94,439.4,395.73,433.94,392.44Z"/><path class="cls-99" d="M442.32,392.53a4.85,4.85,0,0,1-.09.55l0,.13a5.52,5.52,0,0,1-.16.54h0c0,.12-.09.23-.14.35l0,.07c-.05.1-.09.2-.14.29a.83.83,0,0,0-.07.13l-.14.23-.09.14-.08.13,0,.06a2.7,2.7,0,0,1-.25.34.86.86,0,0,1-.07.1,5,5,0,0,1-.37.42l-.1.11-.32.31-.15.13-.34.3-.09.08-.06,0-.13.11-.28.2-.15.1-.3.21-.14.09-.46.28L319.27,466.27c-.34.2-.69.38-1,.55l-.37.16c-.26.11-.52.23-.79.33l-.23.09c-.33.12-.67.23-1,.33l-.12,0c-.37.11-.75.21-1.14.29l-.27.07c-.29.06-.58.12-.88.16l-.43.08-1.05.14-.23,0c-.41,0-.83.07-1.25.09h-.35c-.32,0-.64,0-1,0h-.37c-.4,0-.8,0-1.21,0h0l-1.26-.12-.37-.06-.84-.13-.54-.1c-.26-.05-.51-.1-.76-.17l-.52-.12-.72-.21-.53-.16-.71-.26c-.16-.06-.32-.11-.48-.18s-.5-.21-.75-.34l-.38-.16c-.37-.19-.73-.38-1.07-.59v0l-46-27.65c-2.93-1.76-4.36-4.06-4.28-6.32l-.22,3.57c-.08,2.26,1.35,4.55,4.27,6.32l46,27.65c.34.21.7.4,1.06.59l.38.17.76.34.47.17c.24.1.48.18.72.26l.52.16.49.15.24.06.52.13.75.17.54.1c.12,0,.23,0,.35.06l.5.07.37,0c.41.06.83.1,1.25.13h.05c.4,0,.81,0,1.21.05h.79l.52,0h.36c.41,0,.82,0,1.22-.09h0l.22,0c.36,0,.71-.08,1.06-.14l.43-.07.58-.1.3-.07.27-.06c.38-.09.77-.19,1.14-.3l.12,0c.34-.1.68-.22,1-.34l.23-.08.17-.07.61-.26.37-.16c.36-.17.72-.35,1.06-.55l118.81-68.29.46-.28.14-.08.3-.21a.65.65,0,0,1,.15-.1l.27-.21.14-.11.06,0,.09-.08.34-.29L440,400l.31-.32.11-.1c.13-.14.25-.29.36-.43a.73.73,0,0,1,.08-.09l.25-.35.05-.06.08-.13.09-.14a1.71,1.71,0,0,0,.13-.23.54.54,0,0,0,.07-.13l.15-.29,0-.07c.05-.12.1-.24.14-.36h0c.06-.17.11-.35.16-.54l0-.12a5.07,5.07,0,0,0,.09-.54v0a2.47,2.47,0,0,0,0-.39l.22-3.57a2.6,2.6,0,0,1,0,.4Z"/><path class="cls-100" d="M438.08,385.82l-4.44-2.68-40-24.09-1.47-.89c-5.71-3.43-15-3.56-20.67-.27l-118.81,68.3c-5.7,3.28-5.71,8.72,0,12.16l46,27.65c5.7,3.44,15,3.56,20.67.27L438.08,398C443.79,394.69,443.79,389.25,438.08,385.82Z"/><path class="cls-4" d="M437,387.14l-46-27.66a19.05,19.05,0,0,0-9.55-2.36,18.26,18.26,0,0,0-8.94,2.11l-118.8,68.29c-2.2,1.27-3.43,2.92-3.45,4.65s1.22,3.5,3.47,4.86l46,27.65a19.05,19.05,0,0,0,9.55,2.36,18.26,18.26,0,0,0,8.94-2.11L437,396.64c2.2-1.26,3.42-2.91,3.45-4.64S439.23,388.49,437,387.14Z"/><path class="cls-101" d="M320.14,424.85a13.52,13.52,0,0,0-6.88-1.66A12.86,12.86,0,0,0,308,424l-30.92,17.44c-.55.3-.64.78-.2,1.08l10.05,5.85a2,2,0,0,0,1.83,0s30.95-17.45,31.18-17.59l.33-.19a3.76,3.76,0,0,0,2-2.83C322.27,426.7,321.52,425.69,320.14,424.85Z"/><path class="cls-102" d="M386.24,363.28a3.69,3.69,0,0,0-2.18,2.94c0,1.12.77,2.21,2.2,3.08l29.07,17.49a12,12,0,0,0,6,1.49A11.59,11.59,0,0,0,427,387l6.62-3.81-40-24.09Z"/><path class="cls-103" d="M422.54,380.9l-24-14.58a2.74,2.74,0,0,0-2.69,0l-.62.36a.66.66,0,0,0,0,1.19l24,14.58a2.75,2.75,0,0,0,2.71,0l.6-.34A.67.67,0,0,0,422.54,380.9Z"/><path class="cls-104" d="M422.54,380.9l-24-14.58a2.74,2.74,0,0,0-2.69,0l-.62.36a.69.69,0,0,0-.37.53,2.72,2.72,0,0,1,2.57.09l24,14.58a.68.68,0,0,1,.34.66l.15-.07.6-.34A.67.67,0,0,0,422.54,380.9Z"/><path class="cls-105" d="M297.48,465.86,256.34,441.3a.58.58,0,0,0-.9.39v1.42a.46.46,0,0,0,.24.39l41.14,24.56a.58.58,0,0,0,.9-.39v-1.42A.47.47,0,0,0,297.48,465.86Z"/><path class="cls-106" d="M256.49,442.33v-.94l-.15-.09a.58.58,0,0,0-.9.39v1.42a.46.46,0,0,0,.24.39l41.14,24.56a.58.58,0,0,0,.9-.39v-.48l-41-24.47A.47.47,0,0,1,256.49,442.33Z"/><path class="cls-107" d="M300,443l-13.51-8.13a9.23,9.23,0,0,0-8.68-.13l-7.12,3.91a4.06,4.06,0,0,0-2.27,3.34,4.11,4.11,0,0,0,2.23,3.44l13.51,8.13a8.87,8.87,0,0,0,4.48,1.14,8.66,8.66,0,0,0,4.21-1l7.11-3.9a3.68,3.68,0,0,0,0-6.78Z"/><path class="cls-108" d="M298.35,445l-13.51-8.14a5.62,5.62,0,0,0-2.81-.69,5.38,5.38,0,0,0-2.63.62l-7.08,3.88a1.73,1.73,0,0,0-1,1.37,1.79,1.79,0,0,0,1,1.43l13.52,8.13a5.59,5.59,0,0,0,2.81.69,5.31,5.31,0,0,0,2.62-.61l7.09-3.89a1.67,1.67,0,0,0,1-1.36A1.73,1.73,0,0,0,298.35,445Z"/><g id="_Group_" data-name="&lt;Group&gt;"><polygon class="cls-109" points="305.26 400.28 365.06 436.15 398.99 416.36 340.14 380.16 305.26 400.28"/></g><g id="_Group_2" data-name="&lt;Group&gt;"><polygon class="cls-110" points="346.71 375.62 406.51 411.49 416.73 405.49 357.89 369.29 346.71 375.62"/></g><g id="_Group_3" data-name="&lt;Group&gt;"><path class="cls-111" d="M322.07,416.18a1.38,1.38,0,0,0-1.39,0l-1.19.68a1.37,1.37,0,0,0,0,2.36l18.36,11a1.33,1.33,0,0,0,1.4,0l.94-.55a1.37,1.37,0,0,0,0-2.34Z"/></g><g id="_Group_4" data-name="&lt;Group&gt;"><path class="cls-112" d="M302.38,403.93a1.36,1.36,0,0,0-1.39,0l-1.19.68a1.36,1.36,0,0,0,0,2.35l12.86,7.58a1.38,1.38,0,0,0,1.4,0L315,414a1.37,1.37,0,0,0,0-2.35Z"/></g><path class="cls-113" d="M299.12,425l-2.51-1.45c-8.9-5.14-7.78-14.11,2.49-20L327.63,387l34.73,20.06-28.53,16.47C323.56,429.5,308,430.14,299.12,425Z"/><path class="cls-114" d="M340.38,345l.14,0a10.29,10.29,0,0,1,1.27-.34,11,11,0,0,1,1.3-.19,12,12,0,0,1,1.35-.05,11.46,11.46,0,0,1,1.42.11,11.72,11.72,0,0,1,1.53.28,16.11,16.11,0,0,1,1.69.5,20,20,0,0,1,1.95.83,23.73,23.73,0,0,1,2.53,1.46,29.44,29.44,0,0,1,2.92,2.23,39.58,39.58,0,0,1,6.55,7.46c.7,1,1.37,2.08,2,3.18.5.86,1,1.74,1.43,2.64s.77,1.57,1.13,2.38.65,1.49,1,2.25.56,1.45.82,2.18.48,1.43.7,2.16.43,1.43.62,2.15.37,1.45.53,2.18.31,1.49.45,2.23.25,1.56.35,2.33.2,1.67.27,2.49.12,1.86.13,2.78c0,1.11,0,2.22-.07,3.3a33.57,33.57,0,0,1-.57,4.57c-1.43,7.27-5,11.89-9.6,13.49l-6.55,2.29c4.61-1.61,8.17-6.23,9.59-13.49a35.59,35.59,0,0,0,.58-4.58c.07-1.08.09-2.19.07-3.3,0-.92-.06-1.84-.14-2.78s-.15-1.65-.26-2.49-.22-1.55-.36-2.32-.28-1.49-.44-2.24-.34-1.45-.53-2.18-.4-1.44-.62-2.15-.45-1.44-.7-2.15-.53-1.47-.82-2.19-.62-1.51-.95-2.25-.74-1.6-1.13-2.38-.93-1.78-1.43-2.64c-.64-1.09-1.3-2.15-2-3.17a38.67,38.67,0,0,0-6.56-7.46,28.38,28.38,0,0,0-2.91-2.24,24.59,24.59,0,0,0-2.54-1.46,18.73,18.73,0,0,0-1.94-.82,16.21,16.21,0,0,0-1.69-.51,14.37,14.37,0,0,0-2.95-.39,12.27,12.27,0,0,0-1.36.05c-.44,0-.87.11-1.3.19a11.38,11.38,0,0,0-1.27.35l-.14,0Z"/><path class="cls-115" d="M349.92,352.1c-11.31-9.82-22.82-5.92-25.69,8.71s4,34.45,15.29,44.27,22.82,5.92,25.69-8.7S361.24,361.92,349.92,352.1Z"/><path class="cls-116" d="M341.08,359.29h0l0,.09c.64,1.4,1.26,2.79,1.88,4.17.87,1.91,1.73,3.83,2.6,5.73.94,2.07,1.86,4.12,2.79,6.18.86,1.9,1.74,3.83,2.6,5.75l.46,1h0l-.08-.07c-.32-.39-.67-.77-1-1.15l-1.25-1.39L347.62,378c-.4-.46-.81-.92-1.24-1.38s-1-1.12-1.49-1.68l-1.25-1.4c-.31-.34-.59-.65-.9-1l-.08-.12v0h0c-.24,0-.47,0-.71,0h-1.39a7.3,7.3,0,0,1-.81,0h-1.37a7.27,7.27,0,0,1-.81,0l-.37,0h-1.6a4,4,0,0,1-.49,0l0-.15,5.94-13v0h0m1.69,15.35v0l-.08-.07c-.16,0-.32,0-.49,0-.48,0-1,0-1.45,0l-1.24,0h-2.35l-1.09,0c-.28,0-.56,0-.84,0l0,0,0,0v.05l2.14,2.69L344,385.9l.09.11h.06l.32-.06c2.32-.5,4.65-1,7-1.47h.07l0,0-1.34-1.51c-.58-.65-1.16-1.31-1.76-2l-1.34-1.5-1.94-2.17-1.35-1.5-.95-1.06-.09-.11m-7.47,2.72.06.13,9,18.09c.31.62.64,1.26.95,1.9l0,0h0l0-.07c.64-1,1.28-2.09,1.91-3.16s1.31-2.14,2-3.22,1.26-2.08,1.89-3.12c.15-.28.33-.55.49-.82l.05-.07h-.09l-3.12.67c-1.21.24-2.4.51-3.6.75l-.61.13c-.6-.77-1.21-1.53-1.82-2.3-2.34-3-4.7-5.92-7.05-8.88l-.05-.07h0"/><path class="cls-117" d="M239,323.66l41.81-23.41L321.84,324l-44.72,22.81C262.23,338.22,243.36,326.21,239,323.66Z"/><path class="cls-118" d="M329,302.73v8.41c.05,4.73-3,9.47-9.28,13.06-12.41,7.16-32.59,7.14-45.09-.08a21.56,21.56,0,0,1-7-6.08,12.06,12.06,0,0,1-2.39-6.9v-8.53c.05,4.69,3.18,9.38,9.4,13,12.5,7.22,32.68,7.24,45.09.08C325.93,312.1,329,307.41,329,302.73Z"/><path class="cls-119" d="M329,302.61v.12c0,4.68-3.08,9.37-9.28,12.94-12.41,7.16-32.59,7.14-45.09-.08-6.22-3.6-9.35-8.29-9.4-13s3-9.45,9.26-13.05c12.41-7.17,32.61-7.14,45.1.07C325.83,293.23,329,297.92,329,302.61Z"/><path class="cls-120" d="M315.37,293.57l-12.92,8.69-1.76-14-4.18,3.1,2.5,18,18.87-12.72Zm-24.72,2.17,2.6,17.67,4-3.08-2.46-17.69Zm-6,4.21,2.6,17.68,4-3.09-2.46-17.69Z"/><path class="cls-121" d="M329,284.47v8.42c.05,4.72-3,9.46-9.28,13.05-12.41,7.17-32.59,7.14-45.09-.07a21.79,21.79,0,0,1-7-6.08,12.11,12.11,0,0,1-2.39-6.9v-8.54c.05,4.69,3.18,9.38,9.4,13,12.5,7.22,32.68,7.25,45.09.08C325.93,293.85,329,289.16,329,284.47Z"/><path class="cls-122" d="M329,284.35v.12c0,4.69-3.08,9.38-9.28,12.94-12.41,7.17-32.59,7.14-45.09-.08-6.22-3.6-9.35-8.29-9.4-13s3-9.45,9.26-13.05c12.41-7.17,32.61-7.14,45.1.07C325.83,275,329,279.67,329,284.35Z"/><path class="cls-120" d="M315.37,275.31,302.45,284l-1.76-13.95-4.18,3.09,2.5,18,18.87-12.72Zm-24.72,2.17,2.6,17.67,4-3.08-2.46-17.69Zm-6,4.21,2.6,17.68,4-3.08-2.46-17.69Z"/><path class="cls-123" d="M329,266.93v8.42c.05,4.73-3,9.47-9.28,13.06-12.41,7.16-32.59,7.14-45.09-.08a21.67,21.67,0,0,1-7-6.08,12.06,12.06,0,0,1-2.39-6.9v-8.53c.05,4.69,3.18,9.38,9.4,13,12.5,7.22,32.68,7.24,45.09.07C325.93,276.31,329,271.62,329,266.93Z"/><path class="cls-124" d="M329,266.82v.11c0,4.69-3.08,9.38-9.28,12.94-12.41,7.17-32.59,7.15-45.09-.07-6.22-3.6-9.35-8.29-9.4-13s3-9.45,9.26-13.06c12.41-7.16,32.61-7.14,45.1.08C325.83,257.44,329,262.13,329,266.82Z"/><path class="cls-120" d="M315.37,257.77l-12.92,8.7-1.76-14-4.18,3.1,2.5,18,18.87-12.72Zm-24.72,2.17,2.6,17.68,4-3.08-2.46-17.69Zm-6,4.22,2.6,17.67,4-3.08-2.46-17.69Z"/><path class="cls-125" d="M364.66,302.55a32.06,32.06,0,0,1-2.81,13.19c-.05.09-.09.19-.13.28q-.24.53-.51,1.05a32.81,32.81,0,0,1-1.79,3.1c-.6.92-1.25,1.8-1.94,2.66s-1.34,1.56-2.06,2.29-1.27,1.24-1.94,1.82-1.35,1.12-2.05,1.63c-.47.34-.95.67-1.43,1a32.19,32.19,0,1,1,14.66-27Z"/><circle class="cls-126" cx="333.42" cy="305.02" r="30.79" transform="translate(-109.26 214.23) rotate(-30.86)"/><path class="cls-120" d="M321.22,298.79l24.27,24.27v6.18L321.22,305Zm19.92-15.4v18l-19.92-19.92v6.17l24.27,24.28V283.39Zm-19.92,12.92,24.27,24.28v-6.18l-24.27-24.27Z"/><polygon class="cls-127" points="127.6 318.63 127.6 237.52 258.28 313.04 258.28 394.14 127.6 318.63"/><polygon class="cls-128" points="127.6 237.52 127.6 247.29 258.28 322.81 258.28 313.04 127.6 237.52"/><g class="cls-129"><path class="cls-130" d="M132.77,244.71c-.59-.34-1.08-.06-1.08.62a2.36,2.36,0,0,0,1.07,1.85c.59.34,1.07.06,1.08-.62a2.36,2.36,0,0,0-1.07-1.85"/><path class="cls-131" d="M137.72,247.55c-.6-.34-1.08-.07-1.08.61a2.36,2.36,0,0,0,1.07,1.85c.59.34,1.07.07,1.07-.61a2.33,2.33,0,0,0-1.06-1.85"/><path class="cls-132" d="M142.66,250.38c-.59-.34-1.07-.06-1.07.62a2.36,2.36,0,0,0,1.07,1.85c.59.34,1.07.06,1.07-.62a2.36,2.36,0,0,0-1.07-1.85"/></g><polygon class="cls-133" points="179.28 296.31 179.28 302.47 135.87 277.38 135.87 271.23 179.28 296.31"/><polygon class="cls-133" points="179.28 308.39 179.28 309.98 135.87 284.89 135.87 283.31 179.28 308.39"/><polygon class="cls-133" points="179.28 312.39 179.28 313.97 135.87 288.88 135.87 287.3 179.28 312.39"/><polygon class="cls-133" points="179.28 316.38 179.28 317.96 135.87 292.88 135.87 291.3 179.28 316.38"/><polygon class="cls-133" points="179.28 320.37 179.28 321.95 135.87 296.87 135.87 295.29 179.28 320.37"/><polygon class="cls-133" points="179.28 324.37 179.28 325.95 135.87 300.86 135.87 299.28 179.28 324.37"/><polygon class="cls-133" points="179.28 328.36 179.28 329.94 135.87 304.86 135.87 303.27 179.28 328.36"/><g class="cls-134"><path class="cls-135" d="M244.49,373.38l-2.8-1.62v-3.29l2.8,1.61v3.3m-2.85-1.65-2.8-1.61v-3.29l2.8,1.61v3.29m-2.85-1.64L236,368.47v-3.29l2.79,1.62v3.29m-2.85-1.65-2.79-1.61v-3.29l2.79,1.61v3.29m-2.84-1.64-2.8-1.61v-3.3l2.8,1.62v3.29m-2.85-1.64-2.8-1.62v-3.29l2.8,1.61v3.3m-2.85-1.65-2.81-1.62v-3.3l2.81,1.63v3.29m-2.85-1.64-2.81-1.63V357l2.81,1.62v3.3m-2.85-1.65-2.81-1.62v-3.29l2.81,1.62v3.29m-2.84-1.64L216,357v-3.29l2.82,1.62v3.3M216,356.93l-2.81-1.62V352l2.82,1.62v3.29m-2.85-1.64-2.81-1.63v-3.29l2.81,1.63v3.29m-2.85-1.65L207.5,352v-3.29l2.81,1.62v3.29M207.46,352l-2.81-1.62v-3.3l2.81,1.63V352m-2.84-1.64-2.82-1.63v-3.29l2.82,1.62v3.3m-2.85-1.65L199,347.09V343.8l2.81,1.62v3.29m-2.85-1.64-2.81-1.63v-3.29l2.81,1.63v3.29m-2.87-1.66-2.79-1.61v-3.29l2.79,1.61v3.29m-2.84-1.64-2.8-1.62v-3.29l2.8,1.62v3.29M244.5,370l-2.8-1.61v-3.29l2.8,1.61V370m-2.85-1.64-2.8-1.62v-3.29l2.8,1.62v3.29m-2.85-1.65L236,365.12v-3.29l2.79,1.61v3.29M236,365.09l-2.79-1.61v-3.3L236,361.8v3.29m-2.84-1.64-2.8-1.62v-3.29l2.79,1.61v3.3m-2.85-1.65-2.8-1.61V356.9l2.8,1.61v3.29m-2.85-1.64-2.81-1.63v-3.29l2.81,1.62v3.3m-2.85-1.65-2.81-1.62V353.6l2.81,1.62v3.29m-2.85-1.64-2.81-1.63V352l2.81,1.63v3.29m-2.84-1.65-2.82-1.62v-3.29l2.81,1.62v3.29M216,353.58,213.2,352v-3.3l2.82,1.63v3.29m-2.85-1.64-2.81-1.63V347l2.81,1.62v3.3m-2.85-1.65-2.81-1.62v-3.3l2.81,1.63v3.29m-2.85-1.64L204.66,347v-3.29l2.81,1.62v3.3M204.63,347l-2.82-1.62v-3.29l2.82,1.62V347m-2.85-1.64L199,343.73v-3.29l2.82,1.63v3.29m-2.85-1.65-2.81-1.62V338.8l2.81,1.62v3.29m-2.87-1.65-2.79-1.61v-3.3l2.79,1.62v3.29m-2.84-1.64-2.8-1.62v-3.29l2.8,1.61v3.3m51.29,26.25-2.8-1.61v-3.3l2.8,1.62v3.29M241.66,365l-2.8-1.62v-3.29l2.8,1.61V365m-2.85-1.65L236,361.77v-3.3l2.8,1.62v3.29M236,361.74l-2.79-1.62v-3.29l2.79,1.61v3.3m-2.84-1.65-2.8-1.61v-3.29l2.79,1.61v3.29m-2.85-1.64-2.8-1.62v-3.29l2.8,1.62v3.29m-2.85-1.65-2.81-1.62v-3.29l2.81,1.62v3.29m-2.85-1.64-2.81-1.62v-3.3l2.81,1.63v3.29m-2.85-1.64-2.81-1.63V348.6l2.81,1.62v3.3m-2.85-1.65-2.81-1.62V347l2.81,1.63v3.29M216,350.23l-2.82-1.63v-3.29l2.82,1.62v3.3m-2.85-1.65L210.37,347v-3.29l2.81,1.62v3.29m-2.85-1.64-2.81-1.63V342l2.81,1.63v3.29m-2.85-1.65-2.81-1.62v-3.29l2.81,1.62v3.29m-2.84-1.64L201.82,342v-3.3l2.81,1.63v3.29M201.79,342,199,340.38v-3.29l2.82,1.62V342m-2.85-1.65-2.81-1.62v-3.3l2.81,1.63v3.29m-2.87-1.65-2.79-1.62V333.8l2.79,1.61v3.3m-2.84-1.65-2.8-1.61v-3.29l2.8,1.61v3.29m51.29,26.26-2.8-1.62v-3.29l2.8,1.61v3.3m-2.85-1.65-2.8-1.61v-3.29l2.8,1.61v3.29M238.82,360,236,358.41v-3.29l2.8,1.62V360M236,358.38l-2.79-1.61v-3.29l2.79,1.61v3.29m-2.85-1.64-2.79-1.61v-3.3l2.79,1.62v3.29m-2.84-1.65-2.8-1.61v-3.29l2.8,1.61v3.29m-2.85-1.64-2.81-1.62v-3.3l2.82,1.63v3.29m-2.85-1.64-2.81-1.63v-3.29l2.81,1.62v3.3m-2.85-1.65-2.81-1.62v-3.29l2.81,1.62v3.29m-2.85-1.64-2.81-1.63V343.6l2.81,1.63v3.29M216,346.87l-2.82-1.62V342l2.82,1.62v3.29m-2.85-1.64-2.81-1.62v-3.3l2.81,1.63v3.29m-2.85-1.64L207.53,342v-3.29l2.81,1.62v3.3m-2.85-1.65-2.81-1.62V337l2.81,1.63v3.29m-2.85-1.64-2.81-1.63v-3.29l2.81,1.62v3.3m-2.84-1.65L199,337v-3.3l2.82,1.63v3.29M199,337l-2.81-1.63v-3.29l2.81,1.62V337m-2.87-1.66-2.79-1.61v-3.29l2.79,1.61v3.29m-2.84-1.64-2.8-1.61v-3.3l2.79,1.62v3.29M244.53,360l-2.8-1.61v-3.29l2.8,1.61V360m-2.85-1.64-2.8-1.61v-3.3l2.8,1.62v3.29m-2.85-1.65-2.8-1.61v-3.29l2.8,1.61v3.29M236,355l-2.79-1.61v-3.3l2.79,1.62V355m-2.85-1.64-2.79-1.62v-3.29l2.79,1.61v3.3m-2.84-1.65-2.8-1.61v-3.3l2.8,1.62v3.29m-2.85-1.64-2.82-1.63v-3.29l2.82,1.62v3.3m-2.85-1.65-2.81-1.62v-3.29l2.81,1.62v3.29m-2.85-1.64-2.81-1.63v-3.29l2.81,1.63v3.29m-2.85-1.65-2.81-1.62v-3.29l2.81,1.62v3.29m-2.84-1.64-2.82-1.62v-3.3l2.82,1.63v3.29m-2.85-1.64-2.81-1.63V337l2.82,1.62v3.3m-2.85-1.65-2.81-1.62v-3.3l2.81,1.63v3.29m-2.85-1.64L204.69,337v-3.29l2.81,1.62v3.3m-2.85-1.65-2.81-1.62V332l2.81,1.62v3.29m-2.84-1.64L199,333.67v-3.29l2.82,1.63v3.29M199,333.65,196.15,332v-3.29l2.82,1.62v3.29M196.09,332l-2.79-1.61v-3.3l2.79,1.62V332m-2.85-1.64-2.79-1.62v-3.29l2.79,1.61v3.3m51.3,26.25-2.8-1.61v-3.3l2.8,1.62v3.29M241.69,355l-2.8-1.62v-3.29l2.8,1.61V355m-2.85-1.65-2.8-1.61v-3.3l2.8,1.62v3.29M236,351.68l-2.79-1.62v-3.29l2.79,1.61v3.3M233.14,350l-2.79-1.61v-3.29l2.79,1.61V350m-2.84-1.64-2.8-1.62v-3.29l2.79,1.62v3.29m-2.85-1.65-2.82-1.62v-3.29l2.82,1.62v3.29m-2.85-1.64-2.81-1.62v-3.3l2.81,1.63v3.29m-2.85-1.65-2.81-1.62v-3.29l2.81,1.62v3.29m-2.85-1.64-2.81-1.62v-3.3l2.81,1.63v3.29m-2.84-1.64-2.82-1.63v-3.29l2.81,1.62v3.3m-2.85-1.65-2.82-1.62v-3.29l2.82,1.62v3.29m-2.85-1.64-2.81-1.63V332l2.81,1.63v3.29m-2.85-1.65-2.81-1.62v-3.29l2.81,1.62v3.29m-2.85-1.64L201.85,332v-3.3l2.81,1.63v3.29M201.82,332,199,330.32V327l2.82,1.62V332M199,330.3l-2.81-1.62v-3.3L199,327v3.29m-2.87-1.65L193.31,327v-3.29l2.79,1.61v3.3M193.25,327l-2.79-1.61V322.1l2.79,1.61V327m51.3,26.26-2.8-1.62v-3.29l2.8,1.61v3.3m-2.85-1.65L238.9,350v-3.29l2.8,1.61v3.29M238.85,350l-2.8-1.62v-3.29l2.8,1.61V350M236,348.32l-2.79-1.61v-3.29L236,345v3.29m-2.85-1.64-2.79-1.61v-3.3l2.79,1.62v3.29M230.31,345l-2.8-1.61v-3.29l2.79,1.61V345m-2.85-1.64-2.82-1.62v-3.3l2.82,1.63v3.29m-2.85-1.64-2.81-1.63v-3.29l2.81,1.62v3.3m-2.85-1.65L219,338.48v-3.29l2.81,1.62v3.29m-2.85-1.64-2.81-1.63v-3.29l2.81,1.62v3.3m-2.85-1.65-2.81-1.62V331.9l2.81,1.62v3.29m-2.84-1.64-2.82-1.63v-3.29l2.82,1.63v3.29m-2.85-1.65-2.81-1.62v-3.29l2.81,1.62v3.29m-2.85-1.64-2.81-1.62V327l2.81,1.63v3.29m-2.85-1.64-2.81-1.63v-3.29l2.81,1.62v3.3m-2.84-1.65L199,327v-3.29l2.81,1.62v3.29M199,327l-2.82-1.63V322l2.82,1.62V327m-2.87-1.66-2.79-1.61v-3.29l2.79,1.61v3.29m-2.85-1.64L190.47,322v-3.29l2.79,1.62v3.29m51.3,26.25-2.8-1.61V345l2.79,1.61v3.29m-2.85-1.64-2.8-1.62v-3.29l2.8,1.62v3.29m-2.85-1.65-2.8-1.61v-3.29l2.8,1.61v3.29M236,345l-2.79-1.61v-3.3l2.8,1.62V345m-2.85-1.64-2.79-1.62v-3.29l2.79,1.61v3.3m-2.85-1.65-2.79-1.61v-3.29l2.79,1.61v3.29M227.47,340l-2.82-1.63v-3.29l2.82,1.62V340m-2.85-1.65-2.81-1.62v-3.29l2.82,1.62v3.29m-2.85-1.64L219,335.12v-3.29l2.81,1.63v3.29m-2.85-1.65-2.81-1.62v-3.29l2.81,1.62v3.29m-2.85-1.64-2.81-1.62v-3.3l2.81,1.63v3.29m-2.84-1.64-2.82-1.63V326.9l2.82,1.62v3.3m-2.85-1.65-2.81-1.62v-3.3l2.81,1.63v3.29m-2.85-1.64-2.81-1.63v-3.29l2.81,1.62v3.3m-2.85-1.65-2.81-1.62V322l2.81,1.62v3.29m-2.85-1.64L199,323.61v-3.29l2.81,1.63v3.29M199,323.59,196.17,322v-3.29L199,320.3v3.29m-2.87-1.65-2.79-1.61V317l2.79,1.62v3.29m-2.85-1.64-2.79-1.62v-3.29l2.79,1.61v3.3m51.29,26.25-2.79-1.61v-3.3l2.79,1.62v3.29m-2.84-1.64-2.8-1.62V340l2.8,1.61v3.3m-2.85-1.65-2.8-1.61v-3.3l2.8,1.62v3.29M236,341.62l-2.8-1.62v-3.29l2.8,1.61v3.3M233.17,340l-2.79-1.61v-3.29l2.79,1.61V340m-2.85-1.64-2.79-1.62v-3.29l2.79,1.62v3.29m-2.84-1.65-2.82-1.62v-3.29l2.82,1.62v3.29M224.63,335l-2.82-1.62v-3.3l2.82,1.63V335m-2.85-1.64L219,331.77v-3.29l2.81,1.62v3.3m-2.85-1.65-2.81-1.62v-3.3l2.81,1.63v3.29m-2.85-1.64-2.81-1.63v-3.29l2.81,1.62v3.3m-2.84-1.65-2.82-1.62v-3.29l2.82,1.62v3.29m-2.85-1.64-2.81-1.63V321.9l2.82,1.62v3.3m-2.85-1.65-2.81-1.62v-3.29l2.81,1.62v3.29m-2.85-1.64-2.81-1.62v-3.3l2.81,1.63v3.29m-2.85-1.64L199,320.26V317l2.81,1.62v3.3M199,320.24l-2.82-1.62v-3.3L199,317v3.29m-2.87-1.65L193.34,317v-3.29l2.79,1.61v3.3m-2.85-1.65-2.79-1.61V312l2.79,1.61v3.29m51.29,26.26-2.79-1.62v-3.29l2.79,1.61v3.3m-2.84-1.65-2.8-1.61v-3.29l2.8,1.61v3.29m-2.85-1.64-2.8-1.62V335l2.8,1.62v3.29M236,338.26l-2.8-1.61v-3.29L236,335v3.29m-2.85-1.64L230.39,335v-3.29l2.79,1.62v3.29M230.33,335l-2.79-1.61v-3.29l2.79,1.61V335m-2.84-1.64-2.82-1.62v-3.3l2.81,1.63v3.29m-2.85-1.64-2.82-1.63v-3.29l2.82,1.62v3.3M221.79,330,219,328.42v-3.3l2.81,1.63V330m-2.85-1.64-2.81-1.63v-3.29L219,325.1v3.3m-2.85-1.65-2.81-1.62v-3.29l2.81,1.62v3.29m-2.84-1.64-2.82-1.62v-3.3l2.81,1.63v3.29m-2.85-1.65-2.82-1.62v-3.29l2.82,1.62v3.29m-2.85-1.64-2.81-1.62v-3.3l2.81,1.63v3.29m-2.85-1.64-2.81-1.63v-3.29l2.81,1.62v3.3m-2.85-1.65L199,316.91v-3.3l2.81,1.63v3.29M199,316.89l-2.82-1.63V312l2.82,1.62v3.3m-2.87-1.66-2.79-1.61v-3.29l2.8,1.61v3.29m-2.85-1.64L190.5,312v-3.29l2.79,1.62v3.29m51.29,26.25-2.79-1.61v-3.29l2.79,1.61v3.29m-2.84-1.64-2.8-1.62v-3.29l2.79,1.62v3.29m-2.85-1.65-2.8-1.61v-3.29l2.8,1.61v3.29M236,334.91l-2.8-1.61V330l2.8,1.62v3.29m-2.85-1.64-2.79-1.62v-3.29l2.8,1.61v3.3m-2.85-1.65L227.55,330v-3.3l2.79,1.62v3.29M227.5,330l-2.82-1.63v-3.29l2.81,1.62V330m-2.85-1.65-2.82-1.62v-3.29l2.82,1.62v3.29m-2.85-1.64L219,325.06v-3.29l2.81,1.63v3.29M219,325l-2.81-1.62v-3.29l2.81,1.62V325m-2.85-1.64-2.81-1.62v-3.3l2.81,1.63v3.29m-2.85-1.64-2.81-1.63v-3.29l2.81,1.62v3.3m-2.84-1.65-2.82-1.62v-3.3l2.82,1.63v3.29m-2.85-1.64-2.81-1.63v-3.29l2.81,1.62v3.3m-2.85-1.65-2.81-1.62v-3.29l2.81,1.62v3.29m-2.85-1.64-2.81-1.63v-3.29l2.81,1.63v3.29M199,313.53l-2.82-1.62v-3.29l2.81,1.62v3.29m-2.87-1.65-2.8-1.61V307l2.8,1.62v3.29m-2.85-1.65-2.79-1.61v-3.29l2.79,1.61v3.29m51.29,26.26-2.79-1.61v-3.3l2.79,1.62v3.29m-2.84-1.65-2.8-1.61v-3.29l2.79,1.61v3.29m-2.85-1.64-2.8-1.61v-3.3l2.8,1.62v3.29m-2.85-1.64-2.8-1.62v-3.29l2.8,1.61v3.3m-2.85-1.65-2.79-1.61V325l2.8,1.61v3.29m-2.85-1.64-2.79-1.62v-3.29l2.79,1.62v3.29m-2.85-1.65L224.69,325v-3.29l2.81,1.62v3.29M224.66,325l-2.82-1.62v-3.3l2.82,1.63V325m-2.85-1.65L219,321.71v-3.29l2.81,1.62v3.29M219,321.69l-2.81-1.62v-3.3L219,318.4v3.29m-2.85-1.64-2.81-1.63v-3.29l2.81,1.62v3.3m-2.85-1.65-2.81-1.62v-3.29l2.81,1.62v3.29m-2.84-1.64-2.82-1.63v-3.29l2.82,1.63v3.29m-2.85-1.65-2.81-1.62V310.2l2.81,1.62v3.29m-2.85-1.64-2.81-1.62v-3.3l2.81,1.63v3.29m-2.85-1.65-2.81-1.62v-3.29l2.81,1.62v3.29M199,310.18l-2.81-1.62v-3.3l2.81,1.63v3.29m-2.86-1.65-2.8-1.62v-3.29l2.8,1.61v3.3m-2.85-1.65-2.79-1.61V302l2.79,1.61v3.29m-5.77-6.69v.06l2.93,1.69v3.3l-2.93-1.7v.06l2.93,1.7v3.29l-2.93-1.69V307l2.93,1.69v3.29l-2.93-1.69v.06l2.93,1.7v3.29l-2.93-1.7v.06l2.93,1.7v3.29L187.49,317V317l2.94,1.69V322l-2.94-1.69v.06l2.94,1.69v3.3l-2.94-1.7v.06l2.94,1.7v3.29L187.46,327v.06l2.94,1.69v3.29l-2.94-1.69v.06l2.94,1.7v3.29l-2.94-1.7v.06l2.94,1.7v3.29l-2.94-1.69v.06l2.94,1.69v3.3l-2.94-1.7v.06l59.86,34.56V375l-2.74-1.58v-3.3l2.74,1.59v-.06l-2.74-1.59v-3.29l2.74,1.58v-.06l-2.74-1.58v-3.29l2.74,1.58v-.06l-2.74-1.58v-3.3l2.74,1.59v-.06L244.58,360V356.7l2.74,1.58v-.06l-2.74-1.58v-3.29l2.74,1.58v-.06l-2.74-1.58V350l2.74,1.59v-.06l-2.74-1.59v-3.29l2.74,1.58v-.06l-2.74-1.58v-3.29l2.74,1.58v-.06l-2.74-1.58v-3.3l2.74,1.59v-.06l-2.74-1.59v-3.29l2.74,1.58v-.06l-2.74-1.58v-3.29l2.74,1.58v-.06l-59.86-34.56"/></g><path class="cls-133" d="M221.71,331.91c4.38,2.52,4.3,25.89,6.83,27.35s1.38-9.75,4.43-9.77a1.69,1.69,0,0,1,.87.25c2.87,1.65,4,11.33,5.09,14.3,2.41,6.74,5.4,9.49,5.4,9.49L190.41,342.4c6.3,1.52,4.6-20.71,8.14-18.67,2.88,1.66,3,17.92,5.49,19.33a.68.68,0,0,0,.42.09c2.85-.32,2.62-10.14,5.55-8.45,3.1,1.79,3.29,9.48,5.62,11h0c2.32,1.34,2.81-15.65,6.05-13.78"/><path class="cls-136" d="M57.56,410.36l-2.65-1.53c-9.41-5.43-8.23-14.91,2.63-21.18l30.15-17.41,36.7,21.19L94.24,408.84C83.38,415.11,67,415.79,57.56,410.36Z"/><path class="cls-137" d="M132.08,372.52v7.88c0,4.42-2.84,8.86-8.69,12.22-11.62,6.71-30.52,6.69-42.22-.07a20.48,20.48,0,0,1-6.57-5.69,11.36,11.36,0,0,1-2.23-6.46v-8c0,4.39,3,8.78,8.8,12.15,11.7,6.76,30.6,6.78,42.22.07C129.19,381.3,132.08,376.91,132.08,372.52Z"/><path class="cls-138" d="M132.08,372.41v.11c0,4.39-2.89,8.78-8.69,12.11-11.62,6.71-30.52,6.69-42.22-.07-5.82-3.37-8.75-7.76-8.8-12.15s2.84-8.85,8.67-12.22c11.62-6.71,30.53-6.69,42.22.07C129.09,363.63,132,368,132.08,372.41Z"/><path class="cls-139" d="M132.08,360.21v7.88c0,4.43-2.84,8.86-8.69,12.22-11.62,6.71-30.52,6.69-42.22-.07a20.48,20.48,0,0,1-6.57-5.69,11.36,11.36,0,0,1-2.23-6.46v-8c0,4.39,3,8.78,8.8,12.16,11.7,6.75,30.6,6.78,42.22.07C129.19,369,132.08,364.6,132.08,360.21Z"/><path class="cls-140" d="M132.08,360.1v.11c0,4.39-2.89,8.78-8.69,12.12-11.62,6.71-30.52,6.68-42.22-.07-5.82-3.38-8.75-7.77-8.8-12.16s2.84-8.85,8.67-12.22c11.62-6.71,30.53-6.68,42.22.07C129.09,351.32,132,355.71,132.08,360.1Z"/><path class="cls-141" d="M107.58,366.63a10.5,10.5,0,0,1-4.48,1.28,16.77,16.77,0,0,1-5.58-.6,22.38,22.38,0,0,1-3-1l-2.6,1.5L87.19,365l2.5-1.44a17.44,17.44,0,0,1-2.47-2,8.91,8.91,0,0,1-2.31-3.13l6.17-1.3a8.61,8.61,0,0,0,1.9,2.72A13.2,13.2,0,0,0,94.21,361a16,16,0,0,0,2,1.38,12.14,12.14,0,0,0,2.88,1.26,3.45,3.45,0,0,0,2.71-.17c.58-.33.65-.77.23-1.31l-.12-.14a15.64,15.64,0,0,0-2.39-2L98,358.78a21.63,21.63,0,0,1-1.78-1.69,3.58,3.58,0,0,1-1.09-2.62c0-.94.83-1.84,2.35-2.72a10.6,10.6,0,0,1,4.52-1.33,16.87,16.87,0,0,1,5.57.55,18.88,18.88,0,0,1,2.55.82l2.65-1.53,4.72,2.72-2.46,1.43a18.85,18.85,0,0,1,2.24,1.75,8.92,8.92,0,0,1,2.24,2.78l-6.14,1.28a9,9,0,0,0-2.81-3.23,14.54,14.54,0,0,0-1.56-1,10.4,10.4,0,0,0-3.36-1.33l-.36-.05a3,3,0,0,0-1.94.29c-.53.3-.69.67-.45,1.09a.76.76,0,0,0,.16.25,16.35,16.35,0,0,0,2.54,2.3c.35.27.67.54,1,.79.93.79,1.67,1.48,2.24,2.07a3.47,3.47,0,0,1,1.05,2.59C109.82,364.89,109.06,365.77,107.58,366.63Z"/><path class="cls-142" d="M107.43,445.5l-2.9-1.68c-10.26-5.92-9-16.28,2.88-23.12l32.92-19,40.07,23.14-32.92,19C135.63,450.68,117.69,451.42,107.43,445.5Z"/><path class="cls-143" d="M189,402.44v8.85c.06,5-3.19,9.95-9.75,13.72-13,7.54-34.27,7.51-47.41-.08a22.83,22.83,0,0,1-7.38-6.39,12.75,12.75,0,0,1-2.51-7.25v-9c.05,4.93,3.35,9.86,9.89,13.64,13.14,7.59,34.36,7.62,47.41.08C185.77,412.3,189,407.37,189,402.44Z"/><path class="cls-144" d="M189,402.32v.12c0,4.93-3.24,9.86-9.75,13.6-13,7.54-34.27,7.51-47.41-.08-6.54-3.78-9.84-8.71-9.89-13.64s3.19-9.94,9.74-13.73c13.05-7.53,34.28-7.51,47.41.08C185.66,392.46,189,397.39,189,402.32Z"/><path class="cls-145" d="M189,386.56v8.85c.06,5-3.19,9.95-9.75,13.72-13,7.54-34.27,7.51-47.41-.08a22.83,22.83,0,0,1-7.38-6.39,12.75,12.75,0,0,1-2.51-7.25v-9c.05,4.93,3.35,9.86,9.89,13.64,13.14,7.59,34.36,7.62,47.41.08C185.77,396.42,189,391.49,189,386.56Z"/><path class="cls-146" d="M189,386.44v.12c0,4.93-3.24,9.86-9.75,13.6-13,7.54-34.27,7.51-47.41-.08-6.54-3.78-9.84-8.71-9.89-13.64s3.19-9.94,9.74-13.73c13.05-7.54,34.28-7.51,47.41.08C185.66,376.58,189,381.51,189,386.44Z"/><path class="cls-147" d="M189,369.85v8.85c.06,5-3.19,10-9.75,13.73-13,7.54-34.27,7.51-47.41-.08a23.07,23.07,0,0,1-7.38-6.39A12.78,12.78,0,0,1,122,378.7v-9c.05,4.93,3.35,9.86,9.89,13.65,13.14,7.59,34.36,7.62,47.41.08C185.77,379.71,189,374.78,189,369.85Z"/><path class="cls-148" d="M189,369.73v.12c0,4.93-3.24,9.86-9.75,13.61-13,7.54-34.27,7.51-47.41-.08-6.54-3.79-9.84-8.72-9.89-13.65s3.19-9.94,9.74-13.72c13.05-7.54,34.28-7.51,47.41.08C185.66,359.87,189,364.8,189,369.73Z"/><path class="cls-149" d="M161.5,377.06a11.54,11.54,0,0,1-5,1.44,18.92,18.92,0,0,1-6.27-.68,24.15,24.15,0,0,1-3.38-1.16l-2.91,1.68-5.31-3.06,2.81-1.62a20.59,20.59,0,0,1-2.78-2.27,10.14,10.14,0,0,1-2.59-3.52l6.93-1.45a9.82,9.82,0,0,0,2.13,3.05,14,14,0,0,0,1.39,1.26,16.46,16.46,0,0,0,2.24,1.55A13.87,13.87,0,0,0,152,373.7a4,4,0,0,0,3-.19.86.86,0,0,0,.26-1.47l-.14-.17a17.34,17.34,0,0,0-2.68-2.27l-1.66-1.35a23.84,23.84,0,0,1-2-1.9,4,4,0,0,1-1.22-2.94c0-1.06.92-2.07,2.63-3.06a12,12,0,0,1,5.08-1.49,19.16,19.16,0,0,1,6.25.61,22.29,22.29,0,0,1,2.87.93l3-1.72,5.31,3.06-2.77,1.6a20.73,20.73,0,0,1,2.51,2,10,10,0,0,1,2.52,3.13l-6.9,1.43a9.92,9.92,0,0,0-3.15-3.62,15.62,15.62,0,0,0-1.75-1.16,11.55,11.55,0,0,0-3.78-1.49l-.39-.06a3.51,3.51,0,0,0-2.18.32c-.59.34-.78.75-.52,1.24a1.39,1.39,0,0,0,.19.28,18.82,18.82,0,0,0,2.85,2.57q.58.46,1.08.9a29.38,29.38,0,0,1,2.51,2.32,3.86,3.86,0,0,1,1.19,2.9C164,375.1,163.17,376.1,161.5,377.06Z"/></g></g></g></svg>