<svg xmlns="http://www.w3.org/2000/svg" xmlns:xlink="http://www.w3.org/1999/xlink" viewBox="0 0 500 495.13"><defs><style>.cls-1{fill:url(#linear-gradient);}.cls-2{fill:url(#linear-gradient-2);}.cls-3{fill:url(#linear-gradient-3);}.cls-4{fill:url(#linear-gradient-4);}.cls-5{fill:url(#linear-gradient-5);}.cls-6{fill:url(#linear-gradient-6);}.cls-7{fill:url(#linear-gradient-7);}.cls-21,.cls-8{fill:#fff;}.cls-9{fill:url(#linear-gradient-8);}.cls-10{fill:url(#linear-gradient-9);}.cls-11{fill:url(#linear-gradient-10);}.cls-12{fill:url(#linear-gradient-11);}.cls-13{fill:url(#linear-gradient-12);}.cls-14{fill:url(#linear-gradient-13);}.cls-15{fill:url(#linear-gradient-14);}.cls-16{fill:url(#linear-gradient-15);}.cls-17{fill:url(#linear-gradient-16);}.cls-18{fill:url(#linear-gradient-17);}.cls-19{fill:url(#linear-gradient-18);}.cls-20{fill:url(#linear-gradient-19);}.cls-21{opacity:0.5;}.cls-22{fill:url(#linear-gradient-20);}.cls-23{fill:url(#linear-gradient-21);}.cls-24{fill:url(#linear-gradient-22);}.cls-25{fill:url(#linear-gradient-23);}</style><linearGradient id="linear-gradient" x1="172.87" y1="339.11" x2="253.52" y2="339.11" gradientUnits="userSpaceOnUse"><stop offset="0" stop-color="#c9c8c9"/><stop offset="1" stop-color="#8c8a8b"/></linearGradient><linearGradient id="linear-gradient-2" x1="144.57" y1="347.35" x2="254.69" y2="347.35" xlink:href="#linear-gradient"/><linearGradient id="linear-gradient-3" x1="124.9" y1="350.54" x2="295.89" y2="350.54" xlink:href="#linear-gradient"/><linearGradient id="linear-gradient-4" x1="138.03" y1="374.64" x2="435.63" y2="374.64" xlink:href="#linear-gradient"/><linearGradient id="linear-gradient-5" x1="234.18" y1="332.54" x2="253.52" y2="332.54" xlink:href="#linear-gradient"/><linearGradient id="linear-gradient-6" x1="125.41" y1="344.86" x2="140.2" y2="344.86" xlink:href="#linear-gradient"/><linearGradient id="linear-gradient-7" x1="138.65" y1="339.92" x2="152.87" y2="339.92" xlink:href="#linear-gradient"/><linearGradient id="linear-gradient-8" x1="354.85" y1="420.11" x2="500" y2="420.11" gradientUnits="userSpaceOnUse"><stop offset="0" stop-color="#5c5657"/><stop offset="1" stop-color="#4c4242"/></linearGradient><linearGradient id="linear-gradient-9" x1="196.88" y1="80.14" x2="259.17" y2="80.14" gradientUnits="userSpaceOnUse"><stop offset="0" stop-color="#6c6a6b"/><stop offset="1" stop-color="#4c4242"/></linearGradient><linearGradient id="linear-gradient-10" x1="203.53" y1="110.5" x2="218.48" y2="110.5" xlink:href="#linear-gradient-9"/><linearGradient id="linear-gradient-11" x1="217.48" y1="75.75" x2="271.26" y2="75.75" xlink:href="#linear-gradient-9"/><linearGradient id="linear-gradient-12" x1="226.68" y1="112.33" x2="245.17" y2="112.33" xlink:href="#linear-gradient-9"/><linearGradient id="linear-gradient-13" x1="303.91" y1="56.99" x2="181.74" y2="56.99" xlink:href="#linear-gradient-9"/><linearGradient id="linear-gradient-14" x1="305.13" y1="86.24" x2="297.21" y2="86.24" xlink:href="#linear-gradient-9"/><linearGradient id="linear-gradient-15" x1="336.11" y1="93.7" x2="0" y2="93.7" xlink:href="#linear-gradient-9"/><linearGradient id="linear-gradient-16" x1="252.75" y1="51.06" x2="278.23" y2="51.06" xlink:href="#linear-gradient-9"/><linearGradient id="linear-gradient-17" y1="124.42" x2="96.42" y2="124.42" gradientUnits="userSpaceOnUse"><stop offset="0" stop-color="#3f3c3a"/><stop offset="1" stop-color="#2c2725"/></linearGradient><linearGradient id="linear-gradient-18" x1="180.86" y1="250.47" x2="248.7" y2="250.47" gradientTransform="translate(-132.17 202.01) rotate(-40.54)" gradientUnits="userSpaceOnUse"><stop offset="0" stop-color="#9e8032"/><stop offset="0.14" stop-color="#a18336"/><stop offset="0.27" stop-color="#aa8e41"/><stop offset="0.39" stop-color="#b9a053"/><stop offset="0.51" stop-color="#cfb96d"/><stop offset="0.61" stop-color="#e6d48a"/><stop offset="0.67" stop-color="#d8c174"/><stop offset="0.75" stop-color="#c6a958"/><stop offset="0.83" stop-color="#b89743"/><stop offset="0.91" stop-color="#b18d37"/><stop offset="0.99" stop-color="#ae8933"/></linearGradient><linearGradient id="linear-gradient-19" x1="180.86" y1="236.14" x2="248.7" y2="236.14" gradientTransform="translate(-132.17 202.01) rotate(-40.54)" gradientUnits="userSpaceOnUse"><stop offset="0" stop-color="#e6d48a"/><stop offset="0.03" stop-color="#dcc77a"/><stop offset="0.1" stop-color="#cbaf5e"/><stop offset="0.16" stop-color="#be9e49"/><stop offset="0.23" stop-color="#b7933d"/><stop offset="0.29" stop-color="#b49039"/><stop offset="0.34" stop-color="#b6933d"/><stop offset="0.39" stop-color="#bb9a48"/><stop offset="0.43" stop-color="#c4a75a"/><stop offset="0.47" stop-color="#d1b974"/><stop offset="0.5" stop-color="#dcca8c"/><stop offset="0.99" stop-color="#b49039"/></linearGradient><linearGradient id="linear-gradient-20" x1="239.09" y1="242.75" x2="309.64" y2="242.75" gradientTransform="matrix(0.84, -0.54, 0.54, 0.84, -100, 202.23)" xlink:href="#linear-gradient-18"/><linearGradient id="linear-gradient-21" x1="251.54" y1="269.32" x2="299.26" y2="221.6" gradientTransform="translate(153.76 -91.25) rotate(30.86)" xlink:href="#linear-gradient-19"/><linearGradient id="linear-gradient-22" x1="216.88" y1="176.64" x2="282.62" y2="176.64" gradientTransform="translate(77.8 -82.81) rotate(24.86)" xlink:href="#linear-gradient-18"/><linearGradient id="linear-gradient-23" x1="228.48" y1="201.4" x2="272.95" y2="156.93" gradientTransform="translate(106.65 -97.25) rotate(30.86)" xlink:href="#linear-gradient-19"/></defs><title>Asset 13</title><g id="Layer_2" data-name="Layer 2"><g id="Layer_1-2" data-name="Layer 1"><path class="cls-1" d="M248.19,358.3l-40.6-12.17-34.72-19.08c1.45-7.28,8.23-10.14,20.2-3l22,9.91,38.43,4.43Z"/><path class="cls-2" d="M248,374.57l-51.68-16.36L144.57,329.8c2.16-10,11.59-13.84,28-3.71l30.23,14.17L254.69,351Z"/><path class="cls-3" d="M244.61,370.74,186,363.46,124.9,343.27c.33-11.18,9.68-17.13,29.25-9.52l35.2,9.19c32.56,2.76,68.47,3.05,106.54,1.74Z"/><path class="cls-4" d="M379.53,340.39c-15.65-21.92-40.43-31.8-67.39-22.63-17.72,6.61-49.29-1.4-68.54,3-16,3.69-15.64,22-.71,23.83s22,1.24,37.62,2.13c1.28.07,2.46.17,3.58.29-17.44.91-34.11,2.58-50.15,4.86a219.1,219.1,0,0,0-32.28-4.81l-33.22-14.82c-18.06-10.71-28.26-6.37-30.41,4.61l57,29.9,56.64,16.78s71.78-1.32,90.88,3.65c17.18,9,50.45,47.73,50.45,47.73l42.67-51.76S404,358.5,379.53,340.39Z"/><path class="cls-5" d="M234.18,332.27c0,7,6.26,8.84,12.68,8.89s6.62-5.72,6.66-9-1.26-8.33-6.34-8.2C243.08,324,234.14,325.14,234.18,332.27Z"/><path class="cls-6" d="M126,344.08c-1.67-.82.6-2.67,4.14-2.95,3.86-.3,9.12,1.09,9.74,3a6.43,6.43,0,0,1-.09,4.5S129.44,345.8,126,344.08Z"/><path class="cls-7" d="M139.1,337.69c-1.51-1.09,1-2.55,4.56-2.24,3.86.33,8.82,2.56,9.13,4.56a6.44,6.44,0,0,1-.84,4.43S142.24,340,139.1,337.69Z"/><rect class="cls-8" x="372.13" y="344.79" width="25.65" height="75.98" transform="translate(447.52 922.05) rotate(-141.46)"/><polygon class="cls-9" points="419.92 345.1 354.85 429.19 435.63 495.13 500 408.45 419.92 345.1"/><path class="cls-10" d="M256.77,49.77c2.16,9.13,3.2,18.5,1.69,27.83a54,54,0,0,1-1.94,8c-.93,2.94-2.11,8.54-4.39,10.81-14.51,6.41-29.82,11.07-44.8,16.29-3.47,1.51-7.78-.71-9.62-5s-.51-8.91,3-10.42l26.1-13.64c1.33-.7,6.54-3.58,6.54-3.58s-.77-15.48-3.36-21.9A2.33,2.33,0,0,1,230.5,56,11.35,11.35,0,0,1,233,53.65c5-3.59,12-6.45,18.23-6.5a8.77,8.77,0,0,1,3.59.6A3.33,3.33,0,0,1,256.77,49.77Z"/><path class="cls-11" d="M218.48,109.33c-2.26-4.46-14.94-1.38-14.94-1.38a14.85,14.85,0,0,0,1,6.13A90.93,90.93,0,0,0,218.48,109.33Z"/><path class="cls-12" d="M268.67,36.43c2.6,12.85,3.62,26.3,1.27,39.27A112.81,112.81,0,0,1,264.5,94c-10.39,8-21.39,15.15-32.21,22.55-3.09,2.52-8.44,1.07-11.95-3.24s-3.84-9.84-.75-12.36C223.63,97,240,83,241.84,79.05c1.7-11.14-1.73-23.41-5.68-33.68-.43-1.5,1.24-3.23,4-4.94,6.38-3.87,14.75-6.66,22.25-6.69C265.73,33.73,268.18,34.52,268.67,36.43Z"/><path class="cls-13" d="M245.17,107.71c-4.31-4.58-18.49,3.61-18.49,3.61a18.53,18.53,0,0,0,3.4,7A113.2,113.2,0,0,0,245.17,107.71Z"/><path class="cls-14" d="M207.61,19c21.67-2.25,43.33-4.93,65-6.85.11,0,.24-.06.29.07,17.6,22.87,23.86,47.37,30.54,75.63,2.85,12.05-8.61,17.69-16.08,11.38S260.9,41.59,260.9,41.59,200,61.21,184.56,64.51C173.75,66.3,196.78,20.64,207.61,19Z"/><path class="cls-15" d="M305.13,96.39c-2,.56-4.44.11-7.32-1.25a28.37,28.37,0,0,1,2.82-19.29C303,83.16,305,90.41,305.13,96.39Z"/><path class="cls-16" d="M326.43,12.49q-14.31-3-28.62-5.94C286.65,4.21,274.17-.31,262.74,0c-4.51.12-9.05.47-13.59,1L190.59,3.42a29.57,29.57,0,0,0-18.18,6.25A643.59,643.59,0,0,1,87.3,66.09L0,94.61V187.4l105-59.22h0c32,6.28,62.22,1.87,88.94-23.63,17.16-17.33,58.44-25.07,78.56-40.69,16.74-13,6.38-34.21-12.08-28.27S234.08,46,215.28,53.49c-14.47,5.74-20.91,4.64-30.44,3.93C193.67,44.35,212,39.72,226,35.28c4.41-1.21,8.82-2.42,13.24-3.59,8.3-2.19,26.07-6.21,26.07-6.21s46.77,6.8,56,7.73c8.7,1,13.88-4.25,14.67-9.52S332.52,13.42,326.43,12.49Z"/><path class="cls-17" d="M277.33,45.32c-3.86-8.22-12.12-7-19.65-3.52S253,52.07,254.78,56s6,9.07,11.86,6.17C271.39,59.78,281.24,53.64,277.33,45.32Z"/><rect class="cls-8" x="71.3" y="57.29" width="28.85" height="85.46" transform="translate(-20.85 22.6) rotate(-13.4)"/><polygon class="cls-18" points="96.42 160.5 68.32 49.58 0 68.45 0 199.26 96.42 160.5"/><path class="cls-19" d="M210.4,219.91l5.82,6.8c3.31,3.79,4.09,9.75,1.53,17-5.08,14.38-21.42,28.31-36.51,31.12a23.29,23.29,0,0,1-9.88-.06,13,13,0,0,1-6.7-3.93l-5.9-6.9c3.28,3.76,9.06,5.38,16.58,4,15.09-2.81,31.43-16.75,36.51-31.12C214.39,229.62,213.64,223.7,210.4,219.91Z"/><path class="cls-20" d="M210.32,219.82l.08.09c3.24,3.79,4,9.71,1.45,16.88-5.08,14.37-21.42,28.31-36.51,31.12-7.52,1.38-13.3-.24-16.58-4s-4.08-9.74-1.54-17c5.08-14.37,21.43-28.32,36.51-31.12C201.26,214.44,207,216.06,210.32,219.82Z"/><path class="cls-21" d="M193,221.94l-4.43,16-11.07-10.07-1.24,5.39,14.47,12.84,6.46-23.33Zm-18.47,18.84,14.32,12.49L190,248l-14.22-12.6Zm-2,7.57,14.32,12.49,1.14-5.28L173.84,243Z"/><path class="cls-22" d="M291.63,240a35.15,35.15,0,0,1,5.18,13.85c0,.11,0,.22.05.33.06.42.11.84.15,1.27a34.1,34.1,0,0,1,.17,3.91A33.47,33.47,0,0,1,297,263q-.19,1.68-.54,3.33-.3,1.43-.72,2.82c-.27.92-.59,1.83-.94,2.72-.23.59-.47,1.18-.73,1.75a35.23,35.23,0,0,1-13.12,15.13A35.28,35.28,0,0,1,232.18,278c-.65-1-1.24-2.07-1.78-3.13A35.28,35.28,0,0,1,291.63,240Z"/><circle class="cls-23" cx="264.24" cy="260.73" r="33.75" transform="translate(-87.11 380.56) rotate(-63.45)"/><path class="cls-21" d="M249.29,262.19,286,270.27l3.65,5.7-36.74-8.08Zm9.31-26,10.63,16.64-30.15-6.64,3.65,5.7L279.47,260l-16.85-26.36ZM247.83,259.9,284.57,268l-3.64-5.7-36.74-8.09Z"/><path class="cls-24" d="M260,196.28a32.77,32.77,0,0,1-8.27,11l-.24.2c-.3.25-.61.51-.92.75a32.17,32.17,0,0,1-3,2.1A30.09,30.09,0,0,1,244.6,212c-.94.46-1.91.88-2.89,1.25s-1.71.6-2.58.85-1.73.45-2.6.63c-.58.11-1.16.21-1.75.29a32.59,32.59,0,0,1-9.2,0,32.87,32.87,0,0,1-25.26-46.38q.72-1.53,1.56-3A32.87,32.87,0,0,1,260,196.28Z"/><circle class="cls-25" cx="229.96" cy="185.16" r="31.44" transform="translate(-18.1 25.06) rotate(-6)"/><path class="cls-21" d="M221.32,174.15l12.07,32.91-2.65,5.72-12.07-32.91Zm25.07-5.72-7.74,16.7-9.9-27-2.65,5.72,12.07,32.91,12.25-26.45Zm-24,3.42,12.06,32.91L237.1,199,225,166.13Z"/></g></g></svg>